<?xml version="1.0" encoding="utf-8"?>
<!-- Generator: Adobe Illustrator 24.0.2, SVG Export Plug-In . SVG Version: 6.00 Build 0)  -->
<svg version="1.0" id="Layer_1" xmlns="http://www.w3.org/2000/svg" xmlns:xlink="http://www.w3.org/1999/xlink" x="0px" y="0px"
	 width="270px" height="380px" viewBox="0 0 270 380" enable-background="new 0 0 270 380" xml:space="preserve">
<g id="_x31_5">
	<rect y="-0.00001" fill="none" width="270" height="380"/>
	<g>
		<circle fill="#262424" stroke="#606266" stroke-width="0.5" stroke-miterlimit="10" cx="83.47665" cy="145.47665" r="34.93385"/>
		
			<line fill="none" stroke="#606266" stroke-width="0.75" stroke-miterlimit="10" x1="83.47665" y1="145.47665" x2="59.06974" y2="169.88356"/>
		
			<line fill="none" stroke="#606266" stroke-width="0.75" stroke-miterlimit="10" x1="83.47665" y1="145.47665" x2="108.1785" y2="170.17851"/>
		<circle fill="#262424" stroke="#606266" stroke-width="0.75" stroke-miterlimit="10" cx="83.47665" cy="145.47665" r="23.5"/>
	</g>
	<g>
		<circle fill="#262424" stroke="#606266" stroke-width="0.5" stroke-miterlimit="10" cx="186.5" cy="145.44551" r="34.93385"/>
		
			<line fill="none" stroke="#606266" stroke-width="0.75" stroke-miterlimit="10" x1="186.5" y1="145.44551" x2="162.09309" y2="169.85242"/>
		
			<line fill="none" stroke="#606266" stroke-width="0.75" stroke-miterlimit="10" x1="186.5" y1="145.44551" x2="211.20186" y2="170.14737"/>
		<circle fill="#262424" stroke="#606266" stroke-width="0.75" stroke-miterlimit="10" cx="186.5" cy="145.44551" r="23.5"/>
	</g>
	<g>
		<circle fill="#262424" stroke="#606266" stroke-width="0.5" stroke-miterlimit="10" cx="135" cy="283.5" r="34.93385"/>
		
			<line fill="none" stroke="#606266" stroke-width="0.75" stroke-miterlimit="10" x1="135" y1="283.5" x2="110.30396" y2="308.19604"/>
		
			<line fill="none" stroke="#606266" stroke-width="0.75" stroke-miterlimit="10" x1="135" y1="283.5" x2="159.69603" y2="308.19604"/>
		<line fill="none" stroke="#606266" stroke-width="0.5" stroke-miterlimit="10" x1="135" y1="248.56616" x2="135" y2="283.5"/>
		<circle fill="#262424" stroke="#606266" stroke-width="0.75" stroke-miterlimit="10" cx="135" cy="283.5" r="23.5"/>
	</g>
	<g>
		<circle fill="none" cx="71" cy="351" r="14.578"/>
		
			<path fill="#A3A3A3" stroke="#A3A3A3" stroke-width="0.25" stroke-linecap="round" stroke-linejoin="round" stroke-miterlimit="10" d="
			M56.5957,338.90479c0.15332-0.17529,0.44531-0.48193,0.83301-0.55273c0.16309-0.03418,0.51953-0.0498,0.9043,0.28564
			c0.15723,0.13623,0.40332,0.41016,0.34863,0.85547c0.49512-0.34668,1.02148-0.17285,1.32422,0.09229
			c0.30469,0.26367,0.41992,0.63184,0.4043,0.91846c-0.02051,0.42578-0.26367,0.72412-0.45313,0.94336l-0.6875,0.78809
			l-3.16992-2.76025L56.5957,338.90479z M57.79883,340.33594l0.23047-0.26611c0.16211-0.18506,0.50488-0.65527,0.01563-1.08252
			c-0.52344-0.45459-0.97949,0.05127-1.06641,0.1499l-0.24023,0.27588L57.79883,340.33594z M59.24219,341.59424l0.35352-0.4043
			c0.17773-0.2041,0.33691-0.4165,0.34961-0.67188c0.01758-0.20215-0.06445-0.42432-0.25391-0.58984
			c-0.25195-0.21924-0.52734-0.2002-0.70313-0.13525c-0.16797,0.06201-0.3418,0.20313-0.56152,0.45508l-0.31543,0.36084
			L59.24219,341.59424z"/>
		
			<path fill="#A3A3A3" stroke="#A3A3A3" stroke-width="0.25" stroke-linecap="round" stroke-linejoin="round" stroke-miterlimit="10" d="
			M59.64844,335.99951c0.33691-0.25244,0.65039-0.42285,1.02539-0.39746c0.40527,0.02783,0.68945,0.28027,0.84766,0.49268
			c0.35352,0.47412,0.4082,1.16699-0.35938,1.74121l-0.3291,0.24561l1.09473,1.46387l-0.37305,0.2793l-2.51855-3.36768
			L59.64844,335.99951z M60.56934,337.72754l0.30762-0.23047c0.44434-0.33252,0.5459-0.75439,0.25586-1.14355
			c-0.40039-0.53418-0.9375-0.21094-1.18066-0.03076l-0.27832,0.20801L60.56934,337.72754z"/>
		
			<path fill="#A3A3A3" stroke="#A3A3A3" stroke-width="0.25" stroke-linecap="round" stroke-linejoin="round" stroke-miterlimit="10" d="
			M65.75977,334.67676l2.0918-0.5249l-0.41602-1.6582l0.45117-0.11377l1.02734,4.0791l-0.45313,0.11377l-0.50195-1.99316
			l-2.09082,0.52686l0.50098,1.99316l-0.45313,0.11377l-1.02539-4.07959l0.45313-0.11328L65.75977,334.67676z"/>
		
			<path fill="#A3A3A3" stroke="#A3A3A3" stroke-width="0.25" stroke-linecap="round" stroke-linejoin="round" stroke-miterlimit="10" d="
			M72.24805,335.22754l-1.78711-0.03662l-0.52734,1.1709l-0.51563-0.01025l2.02246-4.35596l1.79004,4.43506l-0.5166-0.01074
			L72.24805,335.22754z M72.07422,334.7832l-0.66895-1.69482l-0.75195,1.66504L72.07422,334.7832z"/>
		
			<path fill="#A3A3A3" stroke="#A3A3A3" stroke-width="0.25" stroke-linecap="round" stroke-linejoin="round" stroke-miterlimit="10" d="
			M75.47266,332.72461c0.27539,0.07373,0.67773,0.2002,0.92578,0.48779c0.19531,0.22119,0.32031,0.5874,0.20508,1.01807
			c-0.16602,0.62061-0.69336,0.96924-1.32031,0.84814l0.80664,2.15479l-0.54688-0.14453l-0.76172-2.10596l-0.11523-0.03027
			l-0.47266,1.77637l-0.45117-0.12061l1.08008-4.05713L75.47266,332.72461z M74.77246,334.55176l0.28613,0.07471
			c0.55957,0.15039,0.96484-0.02881,1.0918-0.50342c0.05957-0.22461,0.05273-0.4668-0.16406-0.68115
			c-0.15527-0.15234-0.3584-0.21924-0.55273-0.271l-0.27441-0.07324L74.77246,334.55176z"/>
		
			<path fill="#A3A3A3" stroke="#A3A3A3" stroke-width="0.25" stroke-linecap="round" stroke-linejoin="round" stroke-miterlimit="10" d="
			M76.58789,337.30273l2.90039-3.42676l-0.46484,3.86816l3.25098-2.18213l-1.74707,4.13525l-0.40918-0.24902l1.17969-2.70313
			l-2.83203,1.90527l0.4043-3.38086l-1.87402,2.28223L76.58789,337.30273z"/>
		
			<path fill="#A3A3A3" stroke="#A3A3A3" stroke-width="0.25" stroke-linecap="round" stroke-linejoin="round" stroke-miterlimit="10" d="
			M82.55664,338.75391c0.9707-0.79053,2.29883-0.61377,3.0625,0.32275c0.7627,0.93652,0.66602,2.27295-0.30469,3.06445
			c-0.96582,0.78662-2.29492,0.61914-3.0625-0.32178C81.48535,340.87695,81.58984,339.5415,82.55664,338.75391z M82.8584,339.125
			c-0.74707,0.60889-0.86035,1.68408-0.26465,2.41602c0.5957,0.73145,1.67188,0.8374,2.41992,0.22852
			c0.74512-0.6084,0.85938-1.68359,0.26367-2.41553C84.68164,338.62256,83.60547,338.51758,82.8584,339.125z"/>
	</g>
	<g>
		<circle fill="none" cx="199.5" cy="351.03378" r="14.578"/>
		
			<path fill="#A3A3A3" stroke="#A3A3A3" stroke-width="0.25" stroke-linecap="round" stroke-linejoin="round" stroke-miterlimit="10" d="
			M185.8457,340.69287l1.40332-1.63428l-1.2959-1.11182l0.30371-0.354l3.18945,2.73828l-0.30371,0.35254l-1.55859-1.33789
			l-1.4043,1.63525l1.55859,1.33936l-0.30371,0.35254l-3.18848-2.73779l0.30273-0.354L185.8457,340.69287z"/>
		
			<path fill="#A3A3A3" stroke="#A3A3A3" stroke-width="0.25" stroke-linecap="round" stroke-linejoin="round" stroke-miterlimit="10" d="
			M188.41406,335.83936c0.3418-0.24707,0.6582-0.41309,1.03125-0.38037c0.4043,0.03369,0.68359,0.29102,0.83887,0.50488
			c0.34668,0.47998,0.3877,1.17188-0.3877,1.73291l-0.33203,0.24023l1.07031,1.47949l-0.37891,0.27295l-2.45898-3.4043
			L188.41406,335.83936z M189.30664,337.5791l0.3125-0.22461c0.44727-0.32471,0.55664-0.74561,0.27246-1.13818
			c-0.3916-0.54102-0.93262-0.22656-1.17773-0.04883l-0.28027,0.20215L189.30664,337.5791z"/>
		
			<path fill="#A3A3A3" stroke="#A3A3A3" stroke-width="0.25" stroke-linecap="round" stroke-linejoin="round" stroke-miterlimit="10" d="
			M193.70508,333.08008l0.83203-0.19971c0.41016-0.09863,1.00293-0.19385,1.62109,0.11768
			c0.44727,0.22314,0.89648,0.66553,1.07227,1.3999c0.20508,0.85791-0.10742,1.41846-0.3418,1.73975
			c-0.29785,0.4082-0.65234,0.6543-1.38086,0.82764l-0.82715,0.19824L193.70508,333.08008z M195.03125,336.62646l0.39844-0.09521
			c0.32422-0.07715,0.76172-0.22021,1.08105-0.64648c0.24512-0.33105,0.39355-0.79346,0.25488-1.37451
			c-0.23438-0.97949-1.07227-1.45215-2.10742-1.20557l-0.39746,0.09521L195.03125,336.62646z"/>
		
			<path fill="#A3A3A3" stroke="#A3A3A3" stroke-width="0.25" stroke-linecap="round" stroke-linejoin="round" stroke-miterlimit="10" d="
			M200.69922,332.66406l-1.71094,0.00244l0.00098,1.24609l1.66211-0.00195l0.00098,0.44092l-1.66211,0.00195l0.00195,1.62988
			l1.71191-0.00195l0.00098,0.44043l-2.17871,0.00195l-0.00488-4.19727l2.17773-0.00244V332.66406z"/>
		
			<path fill="#A3A3A3" stroke="#A3A3A3" stroke-width="0.25" stroke-linecap="round" stroke-linejoin="round" stroke-miterlimit="10" d="
			M203.31445,333.06494l-0.73242,3.68408l-0.45703-0.0918l0.73242-3.68359l-0.99805-0.19922l0.08594-0.43115l2.45605,0.48828
			l-0.08691,0.43164L203.31445,333.06494z"/>
		
			<path fill="#A3A3A3" stroke="#A3A3A3" stroke-width="0.25" stroke-linecap="round" stroke-linejoin="round" stroke-miterlimit="10" d="
			M205.25977,335.81689c-0.14746,0.32178-0.30664,0.67188-0.11914,1.06934c0.09375,0.20313,0.31836,0.40918,0.53125,0.50488
			c0.21289,0.09766,0.51563,0.13135,0.73047,0.06982c0.42188-0.12012,0.58203-0.47021,0.72754-0.79102l1.06934-2.34717
			l0.42383,0.19238l-1.12012,2.46289c-0.14648,0.3208-0.32129,0.61523-0.65918,0.80762
			c-0.37402,0.2124-0.86719,0.23047-1.35449,0.00781c-0.48828-0.22266-0.79785-0.60596-0.88379-1.02637
			c-0.07617-0.38037,0.03027-0.70605,0.17676-1.02783l1.12207-2.46191l0.42383,0.19336L205.25977,335.81689z"/>
		
			<path fill="#A3A3A3" stroke="#A3A3A3" stroke-width="0.25" stroke-linecap="round" stroke-linejoin="round" stroke-miterlimit="10" d="
			M207.70703,338.80908l2.88672-3.29248l0.2002,4.74268l2.14746-2.4502l0.35156,0.30811l-2.89648,3.30322l-0.19922-4.74268
			l-2.14063,2.43945L207.70703,338.80908z"/>
		
			<path fill="#A3A3A3" stroke="#A3A3A3" stroke-width="0.25" stroke-linecap="round" stroke-linejoin="round" stroke-miterlimit="10" d="
			M215.41895,341.81494l-0.95215-1.42529l-1.03711,0.69287l0.92383,1.38428l-0.36719,0.24512l-0.92383-1.38428l-1.35742,0.90625
			l0.95117,1.42627l-0.36719,0.24512l-1.21094-1.81396l3.49609-2.33545l1.21191,1.81494L215.41895,341.81494z"/>
	</g>
	<g>
		
			<ellipse transform="matrix(0.08248 -0.99659 0.99659 0.08248 7.76603 241.4274)" fill="none" cx="135" cy="116.49604" rx="25.58" ry="25.58002"/>
		<path fill="#A3A3A3" stroke="#A3A3A3" stroke-width="0.25" stroke-miterlimit="10" d="M107.32715,112.26904l-2.42871,0.87402
			l0.0957-0.58057l1.89063-0.6709l-1.57422-1.26563l0.09375-0.58057l2.01953,1.62939l2.60449-0.94482l-0.09473,0.58008
			l-2.06836,0.74902l1.7207,1.38184l-0.0957,0.58057L107.32715,112.26904z"/>
		<path fill="#A3A3A3" stroke="#A3A3A3" stroke-width="0.25" stroke-miterlimit="10" d="M105.72852,108.80225l3.78906-0.19629
			l-3.00781-2.31396l0.17188-0.54688l4.1582,3.27344l-5.28223,0.33057L105.72852,108.80225z"/>
		<path fill="#A3A3A3" stroke="#A3A3A3" stroke-width="0.25" stroke-miterlimit="10" d="M110.72852,106.63671
			c0.07129-0.1748,0.28125-0.2627,0.45605-0.19189s0.26367,0.28125,0.19238,0.45654
			c-0.07129,0.1748-0.28125,0.26367-0.45703,0.19189C110.74512,107.02245,110.65625,106.812,110.72852,106.63671z"/>
		<path fill="#A3A3A3" stroke="#A3A3A3" stroke-width="0.25" stroke-miterlimit="10" d="M112.75195,101.39452l-1.05762,1.68066
			l0.81543,1.1748l-0.30469,0.48682l-2.99805-4.42285l5.25488,0.83301l-0.30566,0.48584L112.75195,101.39452z M112.22949,101.30518
			l-1.99902-0.33154l1.1582,1.67041L112.22949,101.30518z"/>
		<path fill="#A3A3A3" stroke="#A3A3A3" stroke-width="0.25" stroke-miterlimit="10" d="M114.73633,100.78368l-3.5918-3.28174
			l5.27344-0.11377l-2.67188-2.44189l0.34961-0.38232l3.60156,3.2915l-5.27246,0.11377l2.66113,2.43213L114.73633,100.78368z"/>
		<path fill="#A3A3A3" stroke="#A3A3A3" stroke-width="0.25" stroke-miterlimit="10" d="M119.54395,94.48632l-1.58301,1.20459
			l0.35156,1.38721l-0.45703,0.34668l-1.25391-5.19678l4.63086,2.62646l-0.45703,0.34766L119.54395,94.48632z M119.08594,94.21923
			l-1.75684-1.01318l0.49707,1.97119L119.08594,94.21923z"/>
		<path fill="#A3A3A3" stroke="#A3A3A3" stroke-width="0.25" stroke-miterlimit="10" d="M119.84766,90.33251l2.08203,3.62939
			l1.11914-0.64209l0.24414,0.42627l-1.56836,0.89844l-2.32617-4.0542L119.84766,90.33251z"/>
		<path fill="#A3A3A3" stroke="#A3A3A3" stroke-width="0.25" stroke-miterlimit="10" d="M122.41602,91.48583
			c-0.51465-1.29492,0.11621-2.646,1.36719-3.14307c1.25-0.49609,2.63672,0.05176,3.15137,1.34814
			c0.5127,1.28857-0.11035,2.64502-1.36621,3.14307C124.31055,93.33397,122.92871,92.77538,122.41602,91.48583z M122.91113,91.28905
			c0.39551,0.99658,1.49902,1.47852,2.47559,1.09033c0.97754-0.3877,1.44922-1.49512,1.05273-2.4917
			c-0.39453-0.99658-1.49805-1.47705-2.47559-1.08936S122.51465,90.29395,122.91113,91.28905z"/>
		<path fill="#A3A3A3" stroke="#A3A3A3" stroke-width="0.25" stroke-miterlimit="10" d="M130.46973,88.96825l1.91602-0.33984
			l0.01855,0.11133c0.09082,0.50928,0.03613,1.08691-0.18359,1.53174c-0.10449,0.21045-0.50781,0.94238-1.5625,1.12842
			c-1.36523,0.24268-2.56836-0.61816-2.80566-1.95605c-0.23633-1.33643,0.60645-2.55859,1.97755-2.80127
			c0.44141-0.07813,0.97852-0.05859,1.48633,0.20557c0.23535,0.12256,0.46484,0.29541,0.62695,0.45117l-0.31738,0.41211
			c-0.16406-0.16357-0.34473-0.30176-0.51855-0.39893c-0.25195-0.14063-0.63281-0.28613-1.18457-0.18848
			c-1.11035,0.19629-1.7334,1.16748-1.54492,2.23535c0.22168,1.25342,1.33301,1.71143,2.20215,1.55762
			c0.61328-0.10889,1.08789-0.51221,1.26953-1.021c0.05664-0.1582,0.10742-0.39551,0.06934-0.68799l-1.36426,0.24268
			L130.46973,88.96825z"/>
		<path fill="#A3A3A3" stroke="#A3A3A3" stroke-width="0.25" stroke-miterlimit="10" d="M137.37695,87.27831
			c-0.05664-0.12988-0.15527-0.27441-0.25586-0.36328c-0.08691-0.07568-0.25-0.1748-0.51563-0.1875
			c-0.46191-0.02295-0.79785,0.24756-0.81934,0.68018c-0.00879,0.18213,0.03418,0.28906,0.1543,0.41455
			c0.13281,0.14697,0.30371,0.23242,0.47461,0.31787l0.4375,0.21826c0.2666,0.13232,0.51172,0.271,0.69824,0.47656
			c0.22461,0.25,0.30859,0.52734,0.29297,0.86328c-0.04395,0.85938-0.70898,1.40039-1.54785,1.3584
			c-0.30762-0.01611-0.68848-0.09766-0.99512-0.42822c-0.21875-0.23486-0.3418-0.56494-0.3916-0.84619l0.51074-0.11572
			c0.02246,0.24707,0.12402,0.46191,0.25,0.60889c0.19238,0.21387,0.41992,0.28027,0.6582,0.29297
			c0.63574,0.03174,0.95898-0.40771,0.98242-0.87598c0.01074-0.20947-0.04297-0.39502-0.20313-0.55713
			c-0.12695-0.13232-0.30371-0.22607-0.54297-0.35059l-0.40918-0.21582c-0.17773-0.09326-0.40332-0.20264-0.60254-0.41553
			c-0.19336-0.20557-0.30078-0.4292-0.2832-0.77832c0.03516-0.7207,0.6123-1.1748,1.36719-1.13672
			c0.28711,0.01465,0.51465,0.08252,0.7373,0.24756c0.18262,0.13574,0.33398,0.33252,0.42871,0.53955L137.37695,87.27831z"/>
		<path fill="#A3A3A3" stroke="#A3A3A3" stroke-width="0.25" stroke-miterlimit="10" d="M138.55273,91.10059l1.05859-4.74414
			l2.71875,4.51221l0.78809-3.52881l0.50488,0.11328l-1.0625,4.75684l-2.71875-4.51172l-0.78516,3.51465L138.55273,91.10059z"/>
		<path fill="#A3A3A3" stroke="#A3A3A3" stroke-width="0.25" stroke-miterlimit="10" d="M146.41797,92.14404l-1.83203-0.77783
			l-1.03125,0.99414l-0.52832-0.22461l3.89355-3.66748l0.01465,5.32666l-0.52832-0.22461L146.41797,92.14404z M146.42188,91.61327
			l0.00977-2.02832l-1.4668,1.41064L146.42188,91.61327z"/>
		<path fill="#A3A3A3" stroke="#A3A3A3" stroke-width="0.25" stroke-miterlimit="10" d="M150.42383,90.48975
			c0.26855,0.16455,0.6582,0.42725,0.83301,0.81348c0.1377,0.29736,0.1543,0.72656-0.10547,1.15137
			c-0.37305,0.60889-1.04785,0.8125-1.67676,0.48535l0.17773,2.55615l-0.53906-0.3291l-0.14453-2.48682l-0.11328-0.07031
			l-1.06738,1.74561l-0.44238-0.27051l2.43848-3.98682L150.42383,90.48975z M149.0957,92.21581l0.28125,0.17139
			c0.55078,0.33643,1.04004,0.27441,1.3252-0.19141c0.13477-0.22119,0.20508-0.48242,0.04199-0.77979
			c-0.11719-0.21094-0.31348-0.34766-0.50488-0.46436l-0.26855-0.16455L149.0957,92.21581z"/>
		<path fill="#A3A3A3" stroke="#A3A3A3" stroke-width="0.25" stroke-miterlimit="10" d="M154.67285,94.1455l-1.4873-1.19141
			l-0.86621,1.08203l1.44238,1.15625l-0.30664,0.38184l-1.44336-1.15625l-1.13379,1.41602l1.4873,1.19141l-0.30664,0.38184
			l-1.89063-1.51514l2.91992-3.64551l1.89063,1.51611L154.67285,94.1455z"/>
		<path fill="#A3A3A3" stroke="#A3A3A3" stroke-width="0.25" stroke-miterlimit="10" d="M157.35059,96.06347l0.60645,0.73486
			c0.29785,0.3623,0.68262,0.9082,0.67285,1.67822c-0.00391,0.55664-0.22754,1.22168-0.87695,1.75635
			c-0.75781,0.62305-1.46973,0.58447-1.90527,0.50732c-0.55273-0.09961-0.97363-0.33398-1.50391-0.97754l-0.59961-0.73047
			L157.35059,96.06347z M154.45117,99.12061l0.28906,0.35156c0.23633,0.2876,0.59375,0.65527,1.17578,0.76709
			c0.44922,0.0835,0.98438,0.00586,1.49805-0.41699c0.86523-0.7124,0.92969-1.78125,0.17773-2.69629l-0.29004-0.35107
			L154.45117,99.12061z"/>
		<path fill="#A3A3A3" stroke="#A3A3A3" stroke-width="0.25" stroke-miterlimit="10" d="M160.74707,100.61913
			c0.16309,0.26855,0.38574,0.68262,0.3623,1.10449c-0.01563,0.3291-0.2002,0.71582-0.62695,0.97168
			c-0.61133,0.36768-1.30273,0.23535-1.70898-0.34668l-1.02539,2.34668l-0.32422-0.54004l1.02148-2.27051l-0.06836-0.11426
			l-1.75293,1.05273l-0.2666-0.44531l4.00391-2.40186L160.74707,100.61913z M158.77344,101.5332l0.16895,0.28174
			c0.33105,0.55225,0.79395,0.72412,1.2627,0.44336c0.22168-0.13281,0.4043-0.33203,0.39648-0.67139
			c-0.00586-0.24072-0.11621-0.45264-0.23047-0.64453l-0.16309-0.26953L158.77344,101.5332z"/>
		<path fill="#A3A3A3" stroke="#A3A3A3" stroke-width="0.25" stroke-miterlimit="10" d="M159.9082,105.05419
			c-0.3623,0.14893-0.75781,0.31055-0.90723,0.77393c-0.07715,0.23486-0.05176,0.57275,0.0459,0.8125
			c0.09961,0.23975,0.31836,0.49756,0.53906,0.61084c0.43164,0.22412,0.82617,0.06006,1.18945-0.08789l2.64648-1.0874
			l0.19727,0.47852l-2.77637,1.14063c-0.3623,0.14941-0.72754,0.25391-1.14746,0.1543
			c-0.46191-0.11377-0.875-0.47266-1.10059-1.02246s-0.18652-1.09668,0.06348-1.50195
			c0.22852-0.36621,0.56152-0.54834,0.92383-0.69727l2.77637-1.14111l0.19629,0.47949L159.9082,105.05419z"/>
		<path fill="#A3A3A3" stroke="#A3A3A3" stroke-width="0.25" stroke-miterlimit="10" d="M159.62402,109.09179l4.99023-0.18066
			l-3.52832,2.51465l4.22852,1.03906l-4.70898,1.66064l-0.10254-0.52295l3.10645-1.05469l-3.6875-0.90186l3.08398-2.19971
			l-3.2793,0.16797L159.62402,109.09179z"/>
	</g>
	<g>
		<circle fill="none" cx="83.5" cy="145.5" r="28.59473"/>
		<path fill="#A3A3A3" stroke="#A3A3A3" stroke-width="0.25" stroke-linejoin="round" stroke-miterlimit="10" d="
			M77.55664,171.82373c-0.0332-0.15771-0.10742-0.34277-0.19922-0.46631c-0.08008-0.10498-0.23828-0.25439-0.5332-0.33252
			c-0.50977-0.13574-0.9502,0.08789-1.07813,0.56738c-0.05273,0.20166-0.0293,0.33154,0.0752,0.49902
			c0.11426,0.19629,0.28418,0.33301,0.45508,0.46973l0.43848,0.34766c0.2666,0.21143,0.50781,0.4248,0.66699,0.69873
			c0.19434,0.33301,0.22168,0.6626,0.12305,1.03467c-0.25195,0.95117-1.12402,1.39893-2.05273,1.15283
			c-0.34082-0.09033-0.74707-0.27246-1.01074-0.71484c-0.19043-0.31494-0.25-0.71191-0.23828-1.04053l0.59863-0.00684
			c-0.0332,0.28174,0.02832,0.54688,0.13477,0.74023c0.16504,0.28369,0.40332,0.41309,0.66699,0.48291
			c0.7041,0.18652,1.16992-0.22803,1.30762-0.74658c0.06152-0.23242,0.04492-0.45166-0.09473-0.67139
			c-0.11133-0.17773-0.28711-0.32471-0.52539-0.51953l-0.40625-0.33984c-0.17773-0.14648-0.40332-0.32227-0.57617-0.6084
			c-0.16699-0.27588-0.23438-0.55127-0.13281-0.93701c0.21094-0.79736,0.96484-1.16992,1.80078-0.94775
			c0.31641,0.08398,0.55566,0.21338,0.76563,0.45117c0.17188,0.19531,0.29492,0.45166,0.35156,0.70654L77.55664,171.82373z"/>
		<path fill="#A3A3A3" stroke="#A3A3A3" stroke-width="0.25" stroke-linejoin="round" stroke-miterlimit="10" d="M80.58789,171.2417
			l-0.6543,5.2998l-0.58789-0.07324L80,171.16992L80.58789,171.2417z"/>
		<path fill="#A3A3A3" stroke="#A3A3A3" stroke-width="0.25" stroke-linejoin="round" stroke-miterlimit="10" d="
			M82.55273,176.81348l-0.2627-5.55518l4.3623,4.16016l-0.19531-4.13232l0.5918-0.02881l0.26367,5.57178l-4.3623-4.15967
			l0.19434,4.1167L82.55273,176.81348z"/>
		<path fill="#A3A3A3" stroke="#A3A3A3" stroke-width="0.25" stroke-linejoin="round" stroke-miterlimit="10" d="
			M91.47656,170.77246l-2.10938,0.53369l0.38867,1.53516l2.04688-0.51807l0.13672,0.54346l-2.04688,0.51758l0.50879,2.00781
			l2.1084-0.53369l0.13867,0.54346l-2.68359,0.67773l-1.30859-5.17041l2.68164-0.68018L91.47656,170.77246z"/>
	</g>
	<g>
		<circle fill="none" cx="186.44551" cy="145.5" r="28.59473"/>
		<path fill="#A3A3A3" stroke="#A3A3A3" stroke-width="0.25" stroke-linejoin="round" stroke-miterlimit="10" d="
			M175.70215,169.17236l1.02051,0.37988c0.50195,0.18604,1.19531,0.50391,1.62695,1.27051
			c0.31543,0.55273,0.47656,1.33789,0.1416,2.23828c-0.39063,1.0498-1.11719,1.41992-1.5918,1.59375
			c-0.60254,0.22021-1.15137,0.22949-2.04395-0.10352l-1.01367-0.375L175.70215,169.17236z M174.59277,173.85742l0.4873,0.18115
			c0.39746,0.14746,0.96191,0.30664,1.60059,0.08252c0.49121-0.17627,0.97559-0.56006,1.24023-1.27197
			c0.44629-1.2002-0.10352-2.29248-1.37109-2.76318l-0.4873-0.18164L174.59277,173.85742z"/>
		<path fill="#A3A3A3" stroke="#A3A3A3" stroke-width="0.25" stroke-linejoin="round" stroke-miterlimit="10" d="
			M183.43359,171.8584l-2.14355-0.36621l-0.2666,1.56104l2.08008,0.35547l-0.09375,0.55225l-2.08008-0.35645l-0.34961,2.04102
			l2.14453,0.36621l-0.09473,0.55225l-2.72754-0.46533l0.89844-5.2583l2.72754,0.4668L183.43359,171.8584z"/>
		<path fill="#A3A3A3" stroke="#A3A3A3" stroke-width="0.25" stroke-linejoin="round" stroke-miterlimit="10" d="
			M188.99805,172.55615c-0.16992-0.16504-0.42969-0.36035-0.7041-0.48389c-0.28223-0.12256-0.61035-0.19727-0.92285-0.19287
			c-1.23047,0.02148-2.125,1.02686-2.10547,2.25928c0.02441,1.44629,1.21191,2.1543,2.1875,2.13818
			c0.35938-0.00488,0.70898-0.11523,0.98633-0.26465c0.30176-0.15723,0.51465-0.35938,0.60938-0.45752l0.01172,0.73633
			c-0.58398,0.43262-1.19922,0.53857-1.59863,0.5459c-1.58301,0.02637-2.77832-1.15283-2.80371-2.69678
			c-0.02734-1.58984,1.14453-2.79443,2.74414-2.82129c0.31934-0.00439,0.93555,0.0249,1.58398,0.50293L188.99805,172.55615z"/>
		<path fill="#A3A3A3" stroke="#A3A3A3" stroke-width="0.25" stroke-linejoin="round" stroke-miterlimit="10" d="
			M194.06543,174.27637l-2.21875,0.49463l-0.29785,1.60742l-0.64063,0.14355l1.18164-5.99658l3.55273,4.94092l-0.64063,0.14258
			L194.06543,174.27637z M193.7168,173.77881l-1.33984-1.89063l-0.42578,2.28516L193.7168,173.77881z"/>
		<path fill="#A3A3A3" stroke="#A3A3A3" stroke-width="0.25" stroke-linejoin="round" stroke-miterlimit="10" d="
			M197.20313,172.37988l-2.78027-2.14209l0.63672-0.26172l2.16699,1.68506l0.36133-2.73047l0.63672-0.26221l-0.47461,3.48633
			l0.87598,2.12207l-0.5459,0.22607L197.20313,172.37988z"/>
	</g>
	<g>
		<circle fill="none" cx="135" cy="283.5" r="28.59473"/>
		
			<path fill="#A3A3A3" stroke="#A3A3A3" stroke-width="0.25" stroke-linecap="round" stroke-linejoin="round" stroke-miterlimit="10" d="
			M117.6709,309.67383l3.43262-4.54932l-0.3125,4.93604l3.96484-2.99658l-1.91992,5.36523l-0.53711-0.28564l1.30273-3.51123
			l-3.45313,2.61572l0.27148-4.31299l-2.21289,3.0249L117.6709,309.67383z"/>
		
			<path fill="#A3A3A3" stroke="#A3A3A3" stroke-width="0.25" stroke-linecap="round" stroke-linejoin="round" stroke-miterlimit="10" d="
			M127.42578,308.27979l-1.61328,5.0874l-0.56445-0.17871l1.61328-5.0874L127.42578,308.27979z"/>
		
			<path fill="#A3A3A3" stroke="#A3A3A3" stroke-width="0.25" stroke-linecap="round" stroke-linejoin="round" stroke-miterlimit="10" d="
			M129.7207,311.49268l-0.96484-2.78711l0.66309,0.11621l0.74023,2.17041l1.46777-1.78223l0.66211,0.11719l-1.88965,2.28467
			l1.04395,2.98877l-0.66309-0.11621l-0.82617-2.37305l-1.60254,1.9458l-0.66211-0.11719L129.7207,311.49268z"/>
		
			<path fill="#A3A3A3" stroke="#A3A3A3" stroke-width="0.25" stroke-linecap="round" stroke-linejoin="round" stroke-miterlimit="10" d="
			M135.90332,312.21533c-0.2207-1.57666,0.8457-2.9043,2.36621-3.11719c1.51953-0.21289,2.91016,0.77246,3.12988,2.34814
			c0.21973,1.56787-0.83691,2.90234-2.36621,3.11621C137.50391,314.77686,136.12305,313.7832,135.90332,312.21533z
			 M136.50488,312.13086c0.16895,1.21143,1.2627,2.04297,2.4502,1.87695c1.18848-0.16602,2.01172-1.26611,1.84277-2.47705
			c-0.16895-1.21143-1.2627-2.04395-2.45117-1.87793C137.1582,309.81787,136.33594,310.91846,136.50488,312.13086z"/>
		
			<path fill="#A3A3A3" stroke="#A3A3A3" stroke-width="0.25" stroke-linecap="round" stroke-linejoin="round" stroke-miterlimit="10" d="
			M144.00879,311.27246c0.15723,0.41992,0.3291,0.87695,0.85254,1.06543c0.26563,0.09619,0.65332,0.07959,0.93164-0.02344
			c0.27734-0.10449,0.58008-0.3457,0.7168-0.59326c0.27148-0.4873,0.09961-0.94434-0.05664-1.36377l-1.14844-3.06592
			l0.55469-0.20801l1.2041,3.21582c0.15723,0.41895,0.26465,0.84082,0.13477,1.31787
			c-0.14551,0.52393-0.57129,0.98389-1.20996,1.22217c-0.63672,0.2373-1.25977,0.17285-1.71387-0.12842
			c-0.41113-0.27295-0.60645-0.66113-0.76465-1.08105l-1.2041-3.21582l0.55566-0.2085L144.00879,311.27246z"/>
		
			<path fill="#A3A3A3" stroke="#A3A3A3" stroke-width="0.25" stroke-linecap="round" stroke-linejoin="round" stroke-miterlimit="10" d="
			M148.77148,306.08643l2.44727,4.10596l-0.50781,0.30322l-2.44922-4.10645l-1.11328,0.66455l-0.28711-0.48096l2.73633-1.63135
			l0.28809,0.48096L148.77148,306.08643z"/>
	</g>
	<g>
		<circle fill="none" cx="135" cy="283.44943" r="28.59473"/>
		<path fill="#A3A3A3" d="M142.42773,255.45801l1.96387,0.59375l0.47168-1.55566l0.42383,0.12988l-1.15918,3.8291l-0.4248-0.12793
			l0.56641-1.87305l-1.96387-0.59473l-0.56738,1.87305l-0.42383-0.12891l1.15918-3.83105l0.4248,0.12988L142.42773,255.45801z"/>
		<path fill="#A3A3A3" d="M147.71484,255.6543c0.36426,0.16992,0.64941,0.35449,0.79492,0.68066
			c0.16113,0.35254,0.07715,0.7041-0.02832,0.93164c-0.2373,0.5127-0.79395,0.86914-1.62012,0.48535l-0.35449-0.16406
			l-0.73145,1.5791l-0.40234-0.18652l1.68359-3.63086L147.71484,255.6543z M146.68359,257.20703l0.33203,0.1543
			c0.47852,0.22168,0.87891,0.11719,1.07324-0.30273c0.2666-0.57715-0.24609-0.88184-0.50781-1.00195l-0.2998-0.13965
			L146.68359,257.20703z"/>
		<path fill="#A3A3A3" d="M149.70508,261.26367l2.53125-3.30762l0.49121,4.48828l1.88281-2.46191l0.35254,0.26953l-2.53906,3.31836
			l-0.49023-4.48926l-1.87598,2.45215L149.70508,261.26367z"/>
		<path fill="#A3A3A3" d="M154.81836,262.79492c0.88867-0.79883,2.16211-0.69336,2.93359,0.16406
			c0.76953,0.85742,0.74023,2.13477-0.14844,2.93359c-0.88379,0.7959-2.1582,0.69824-2.93262-0.16406
			S153.93457,263.58984,154.81836,262.79492z M155.12402,263.13477c-0.68359,0.61426-0.74316,1.64355-0.14063,2.3125
			c0.60254,0.6709,1.63184,0.7207,2.31543,0.10742c0.68262-0.61523,0.74219-1.64355,0.14063-2.31445
			C156.83691,262.57129,155.80664,262.52051,155.12402,263.13477z"/>
		<path fill="#A3A3A3" d="M160.28711,266.30176l-3.2998,2.26953l-0.25098-0.36621l3.29883-2.27051L160.28711,266.30176z"/>
		<path fill="#A3A3A3" d="M161.44824,269.79297c0.06836-0.09961,0.12988-0.23535,0.15039-0.34863
			c0.01465-0.09766,0.01367-0.26074-0.0957-0.46094c-0.19043-0.3457-0.53906-0.46875-0.86426-0.29004
			c-0.13672,0.0752-0.19531,0.1543-0.23242,0.29883c-0.04785,0.16211-0.0332,0.32617-0.01953,0.48828l0.03809,0.41699
			c0.02344,0.25391,0.03223,0.49414-0.0332,0.72266c-0.08105,0.27637-0.24512,0.46191-0.49707,0.60156
			c-0.64648,0.35449-1.33984,0.11328-1.68555-0.51758c-0.12695-0.23047-0.23828-0.5459-0.13477-0.91602
			c0.07324-0.2666,0.25586-0.50391,0.44043-0.66699l0.31348,0.32031c-0.16992,0.12793-0.28125,0.29785-0.33203,0.45508
			c-0.06836,0.2373-0.01563,0.43359,0.08301,0.61133c0.2627,0.47754,0.72852,0.5166,1.0791,0.32324
			c0.1582-0.08594,0.26953-0.20898,0.31543-0.39844c0.04004-0.15234,0.02832-0.32324,0.01074-0.55273l-0.02539-0.39648
			c-0.0127-0.1709-0.03516-0.38477,0.03125-0.62598c0.06445-0.2334,0.17773-0.41113,0.43945-0.55566
			c0.54102-0.29785,1.13184-0.08203,1.44336,0.48438c0.11816,0.21582,0.17188,0.41309,0.15039,0.64941
			c-0.01563,0.19434-0.0918,0.39258-0.20117,0.55469L161.44824,269.79297z"/>
		<path fill="#A3A3A3" d="M163.45703,273.45508l-0.60156-1.5166l-1.10352,0.43945l0.58398,1.47168l-0.39063,0.15332l-0.58398-1.4707
			l-1.44336,0.57324l0.60156,1.5166l-0.39063,0.1543l-0.76563-1.92773l3.71875-1.47754l0.76563,1.92969L163.45703,273.45508z"/>
		<path fill="#A3A3A3" d="M164.90039,276.99316l0.13672,0.80469c0.06738,0.39551,0.12109,0.96484-0.21484,1.53223
			c-0.24023,0.41113-0.68945,0.81055-1.39844,0.92969c-0.82715,0.14063-1.33984-0.19043-1.63086-0.43359
			c-0.36816-0.30762-0.58008-0.66113-0.69922-1.36523l-0.13574-0.79785L164.90039,276.99316z M161.44531,278.03125l0.06543,0.38379
			c0.05371,0.3125,0.16211,0.7373,0.54688,1.06836c0.29785,0.25293,0.72754,0.42383,1.29004,0.32813
			c0.94531-0.16113,1.44824-0.92676,1.2793-1.92676l-0.06641-0.38379L161.44531,278.03125z"/>
		<path fill="#A3A3A3" d="M165.16016,283.68848l-0.05078-1.62891l-1.18555,0.03613l0.04883,1.58203l-0.41992,0.01172
			l-0.04883-1.58105l-1.55176,0.04785l0.0498,1.62988l-0.41895,0.0127l-0.06445-2.07324l3.99609-0.12305l0.06445,2.07324
			L165.16016,283.68848z"/>
		<path fill="#A3A3A3" d="M165.00977,286.26563l-3.57129-0.26465l0.03223-0.44238l3.57129,0.26367l0.07129-0.96875l0.41895,0.03027
			l-0.17676,2.38184l-0.41797-0.03125L165.00977,286.26563z"/>
		<path fill="#A3A3A3" d="M162.64355,288.64258c-0.32715-0.07422-0.68555-0.1543-1.01855,0.09766
			c-0.16992,0.12891-0.31738,0.37891-0.36523,0.5957c-0.04883,0.2168-0.02051,0.50586,0.0791,0.69336
			c0.19434,0.37012,0.55176,0.44922,0.87988,0.52148l2.39648,0.53418l-0.09766,0.43359l-2.5127-0.56055
			c-0.32813-0.07129-0.63672-0.17773-0.88281-0.4541c-0.26953-0.30566-0.38379-0.76172-0.27246-1.25879
			c0.11035-0.49805,0.40723-0.8623,0.78125-1.02637c0.33984-0.14453,0.66406-0.10938,0.99219-0.03613l2.51367,0.56055
			l-0.09668,0.43262L162.64355,288.64258z"/>
		<path fill="#A3A3A3" d="M160.25977,291.88672l3.86133,1.58105l-4.21094,1.65039l2.87305,1.1748l-0.16797,0.41113l-3.87305-1.58398
			l4.21094-1.65039l-2.8623-1.17188L160.25977,291.88672z"/>
		<path fill="#A3A3A3" d="M160.25098,299.99121l0.84277-1.39941l-1.01953-0.61328l-0.81738,1.36035l-0.36035-0.21875
			l0.81738-1.35742l-1.33301-0.80176l-0.8418,1.40039l-0.36035-0.21777l1.07129-1.78027l3.43164,2.06445l-1.07031,1.78125
			L160.25098,299.99121z"/>
	</g>
	<g>
		<circle fill="none" cx="135" cy="283.5" r="28.59473"/>
		<path fill="#A3A3A3" d="M108.50488,298.79102c-0.10938-0.19336-0.29102-0.55273-0.23047-0.92236
			c0.02148-0.15674,0.12109-0.48193,0.54492-0.71875c0.17188-0.09766,0.49609-0.23096,0.87793-0.04102
			c-0.15332-0.55322,0.1709-0.96875,0.50488-1.15674s0.7002-0.17383,0.95215-0.06738
			c0.37598,0.15381,0.56543,0.46631,0.7002,0.70605l0.4873,0.86768l-3.48535,1.95947L108.50488,298.79102z M110.1709,298.1709
			l-0.16504-0.29199c-0.11523-0.20459-0.42676-0.66211-0.96484-0.35889c-0.5752,0.32275-0.26855,0.89258-0.20605,1.00293
			l0.16992,0.30371L110.1709,298.1709z M111.75879,297.27832l-0.25-0.44482c-0.12598-0.22412-0.26563-0.43506-0.48926-0.52881
			c-0.17676-0.08057-0.40137-0.07764-0.61035,0.04053c-0.27734,0.15576-0.34766,0.4082-0.34473,0.58545
			c0.00098,0.17188,0.07129,0.37207,0.22754,0.64941l0.22266,0.39697L111.75879,297.27832z"/>
		<path fill="#A3A3A3" d="M106.71777,295.1543c-0.15234-0.37109-0.23438-0.70068-0.11914-1.03906
			c0.12207-0.3667,0.42285-0.56738,0.65527-0.66211c0.52344-0.2124,1.17285-0.0957,1.5166,0.74902l0.14746,0.36133l1.61035-0.65723
			l0.16797,0.41113l-3.70508,1.50928L106.71777,295.1543z M108.5293,294.72119l-0.1377-0.33838
			c-0.19922-0.48926-0.56445-0.68359-0.99219-0.50977c-0.58789,0.23975-0.41992,0.8125-0.31055,1.07959l0.12402,0.30469
			L108.5293,294.72119z"/>
		<path fill="#A3A3A3" d="M109.07129,289.69531l-4.10742,0.70215l2.69531-3.625l-3.05664,0.52246l-0.07422-0.43701l4.12012-0.70508
			l-2.69629,3.62549l3.04492-0.52002L109.07129,289.69531z"/>
		<path fill="#A3A3A3" d="M106.36133,285.09912c-1.19336-0.02002-2.05371-0.96436-2.03418-2.11621
			c0.01953-1.15234,0.91016-2.06787,2.10449-2.04834c1.18848,0.02002,2.05566,0.95898,2.03516,2.11768
			C108.44727,284.21094,107.5498,285.11914,106.36133,285.09912z M106.37012,284.64355
			c0.91699,0.01465,1.66211-0.69824,1.67676-1.59863c0.01563-0.89941-0.7041-1.63818-1.62207-1.6543
			c-0.91895-0.01514-1.66309,0.69873-1.67773,1.59912C104.73145,283.88965,105.45117,284.62842,106.37012,284.64355z"/>
		<path fill="#A3A3A3" d="M104.74219,278.81348l3.96387,0.58496l-0.06445,0.43945l-3.96484-0.58496L104.74219,278.81348z"/>
		<path fill="#A3A3A3" d="M106.27148,275.47705c-0.11719,0.02539-0.25586,0.08398-0.34766,0.15283
			c-0.07715,0.06055-0.18848,0.18164-0.24316,0.40234c-0.09668,0.38379,0.07324,0.71143,0.43359,0.80273
			c0.15137,0.03809,0.24902,0.01855,0.37402-0.06055c0.14551-0.08691,0.24609-0.21582,0.34668-0.3457l0.25684-0.33057
			c0.15625-0.20117,0.31348-0.38428,0.51758-0.50635c0.24707-0.14844,0.49512-0.17188,0.77344-0.10156
			c0.71582,0.18164,1.05859,0.83057,0.88184,1.52832c-0.06348,0.25537-0.19727,0.56152-0.52637,0.7627
			c-0.23438,0.14453-0.53125,0.19434-0.77637,0.1875l-0.01172-0.44727c0.21094,0.021,0.40918-0.02734,0.55371-0.10791
			c0.21094-0.12598,0.30566-0.30713,0.35547-0.50439c0.13379-0.52881-0.18066-0.87402-0.57031-0.97266
			c-0.1748-0.04395-0.33887-0.0293-0.50195,0.07715c-0.13281,0.08398-0.24121,0.21729-0.38477,0.39746l-0.25098,0.30859
			c-0.10742,0.1333-0.23828,0.3042-0.4502,0.43652c-0.20508,0.12695-0.41113,0.18066-0.70215,0.10693
			c-0.59766-0.15137-0.88281-0.71143-0.72461-1.33936c0.06055-0.23828,0.15527-0.41846,0.33203-0.57764
			c0.14453-0.13086,0.33496-0.22461,0.52539-0.26953L106.27148,275.47705z"/>
		<path fill="#A3A3A3" d="M107.30371,271.42773l-0.59375,1.51855l1.10645,0.43164l0.5752-1.47412l0.39063,0.15283l-0.5752,1.47363
			l1.44629,0.56543l0.59277-1.51904l0.39063,0.15234l-0.75391,1.93213l-3.72363-1.45459l0.75391-1.93115L107.30371,271.42773z"/>
		<path fill="#A3A3A3" d="M110.24902,268.37012l1.12988-1.7124l-1.35645-0.89502l0.24414-0.37012l3.33984,2.2041l-0.24414,0.37012
			l-1.63281-1.07764l-1.13086,1.7124l1.63281,1.07813l-0.24414,0.37012l-3.33984-2.20459l0.24414-0.37061L110.24902,268.37012z"/>
		<path fill="#A3A3A3" d="M115.06738,264.16846l-1.14551,1.26025l0.5127,1.11377l-0.33203,0.36426l-1.86328-4.18311l4.30859,1.49316
			l-0.33105,0.36328L115.06738,264.16846z M114.63965,264.01465l-1.63672-0.57959l0.72559,1.58301L114.63965,264.01465z"/>
		<path fill="#A3A3A3" d="M115.16504,260.16064c0.20801-0.17236,0.52832-0.41553,0.88965-0.45068
			c0.2793-0.0293,0.63184,0.07666,0.90332,0.40479c0.39063,0.47021,0.36914,1.07275-0.07031,1.4917l2.12012,0.56445
			l-0.41504,0.34424l-2.05664-0.5708l-0.08691,0.07324l1.11816,1.34766l-0.3418,0.2832l-2.55469-3.07813L115.16504,260.16064z
			 M116.19629,261.71338l0.2168-0.18066c0.4248-0.35254,0.50977-0.76611,0.21094-1.12549
			c-0.1416-0.17139-0.33398-0.29932-0.62012-0.25c-0.20313,0.03613-0.36816,0.15723-0.51563,0.27979l-0.20703,0.17285
			L116.19629,261.71338z"/>
		<path fill="#A3A3A3" d="M119.64941,261.62891l-1.54883-3.98047l3.02441,2.14258l-0.35059-3.70801l2.66504,3.33691
			l-0.39258,0.22949l-1.72656-2.2124l0.30859,3.23291l-2.64355-1.87207l1.05762,2.60205L119.64941,261.62891z"/>
		<path fill="#A3A3A3" d="M123.6582,257.14258c-0.3916-1.12891,0.20117-2.26074,1.29004-2.63818
			c1.08789-0.37744,2.25391,0.146,2.64551,1.27441c0.38867,1.12207-0.19629,2.2583-1.29004,2.63818
			C125.20898,258.79541,124.04688,258.26514,123.6582,257.14258z M124.08887,256.99268
			c0.30078,0.86768,1.22656,1.32178,2.07715,1.02686s1.29688-1.22412,0.99609-2.0918
			c-0.30078-0.86816-1.22559-1.32129-2.07617-1.02637C124.23438,255.19531,123.78809,256.125,124.08887,256.99268z"/>
	</g>
	<g>
		<circle fill="none" cx="183.01788" cy="44.24549" r="14.57799"/>
		
			<path fill="#A3A3A3" stroke="#A3A3A3" stroke-width="0.25" stroke-linecap="round" stroke-linejoin="round" stroke-miterlimit="10" d="
			M174.80371,30.72362l-1.47363,1.01855l0.25977,1.2627l-0.42578,0.29297L172.25,28.57128l4.05859,2.55371l-0.42578,0.29395
			L174.80371,30.72362z M174.40234,30.46386l-1.53906-0.9834l0.36621,1.79395L174.40234,30.46386z"/>
		
			<path fill="#A3A3A3" stroke="#A3A3A3" stroke-width="0.25" stroke-linecap="round" stroke-linejoin="round" stroke-miterlimit="10" d="
			M178.75586,26.78417c-0.16797-0.08105-0.41016-0.16309-0.64648-0.18848c-0.24023-0.02246-0.50488,0.00391-0.73633,0.08496
			c-0.91602,0.31836-1.33691,1.29395-1.01758,2.20996c0.37598,1.07617,1.43945,1.31152,2.16406,1.05859
			c0.26758-0.09375,0.50293-0.26172,0.67383-0.44141c0.18555-0.19336,0.29492-0.39746,0.3418-0.49219l0.19043,0.5459
			c-0.33008,0.46875-0.7627,0.7002-1.05957,0.80371c-1.17773,0.41211-2.36328-0.17578-2.76367-1.32227
			c-0.41406-1.18457,0.16504-2.37402,1.35352-2.78809c0.23828-0.08398,0.70703-0.21484,1.30957-0.01758L178.75586,26.78417z"/>
		
			<path fill="#A3A3A3" stroke="#A3A3A3" stroke-width="0.25" stroke-linecap="round" stroke-linejoin="round" stroke-miterlimit="10" d="
			M183.77148,26.28808c-0.13965-0.12402-0.34961-0.26953-0.56934-0.35938c-0.22559-0.08984-0.4873-0.1377-0.7334-0.12305
			c-0.96875,0.05176-1.64355,0.87207-1.59082,1.84082c0.0625,1.13965,1.01855,1.66211,1.78809,1.62109
			c0.28223-0.01563,0.55469-0.11328,0.76953-0.23926c0.23242-0.13184,0.39258-0.2998,0.46484-0.37891l0.03223,0.5791
			c-0.44824,0.35938-0.92871,0.46191-1.24316,0.47949c-1.24609,0.06738-2.22461-0.8252-2.29004-2.04199
			c-0.06934-1.25195,0.81836-2.23438,2.07715-2.30371c0.25195-0.01465,0.73828-0.00879,1.26367,0.34766L183.77148,26.28808z"/>
		
			<path fill="#A3A3A3" stroke="#A3A3A3" stroke-width="0.25" stroke-linecap="round" stroke-linejoin="round" stroke-miterlimit="10" d="
			M187.73438,26.4453l-1.68164-0.3291l-0.24023,1.22461l1.63281,0.31934l-0.08594,0.43262l-1.63281-0.31934l-0.3125,1.60156
			l1.68164,0.3291l-0.08398,0.43457l-2.14063-0.4209l0.80859-4.125l2.13965,0.41992L187.73438,26.4453z"/>
		
			<path fill="#A3A3A3" stroke="#A3A3A3" stroke-width="0.25" stroke-linecap="round" stroke-linejoin="round" stroke-miterlimit="10" d="
			M187.92188,30.35741l1.9834-3.9082l1.36816,4.54785l1.47461-2.90625l0.41699,0.21094l-1.98926,3.91895l-1.36816-4.54785
			l-1.46973,2.89551L187.92188,30.35741z"/>
		
			<path fill="#A3A3A3" stroke="#A3A3A3" stroke-width="0.25" stroke-linecap="round" stroke-linejoin="round" stroke-miterlimit="10" d="
			M195.41211,30.69726l-2.50977,2.80371l-0.34766-0.31152l2.50977-2.80371l-0.76172-0.68066l0.29492-0.33008l1.86914,1.67383
			l-0.29395,0.3291L195.41211,30.69726z"/>
	</g>
	<g>
		<circle fill="none" cx="183.01788" cy="44.24549" r="13.74777"/>
		
			<path fill="#A3A3A3" stroke="#A3A3A3" stroke-width="0.25" stroke-linecap="round" stroke-linejoin="round" stroke-miterlimit="10" d="
			M175.6582,57.02538l-2.03613,3.40332l-0.37793-0.22607l2.03613-3.40381L175.6582,57.02538z"/>
		
			<path fill="#A3A3A3" stroke="#A3A3A3" stroke-width="0.25" stroke-linecap="round" stroke-linejoin="round" stroke-miterlimit="10" d="
			M175.52734,61.49022l1.29004-3.92285l1.92285,4.04102l0.95898-2.91748l0.41797,0.13721l-1.29297,3.93311l-1.92383-4.04004
			l-0.95508,2.90527L175.52734,61.49022z"/>
		
			<path fill="#A3A3A3" stroke="#A3A3A3" stroke-width="0.25" stroke-linecap="round" stroke-linejoin="round" stroke-miterlimit="10" d="
			M182.10938,58.97216c0.39844,0.02051,0.72852,0.08545,0.98242,0.33105c0.27832,0.26514,0.33105,0.61963,0.31836,0.86865
			c-0.0293,0.55859-0.41016,1.09229-1.3125,1.04541l-0.38574-0.021l-0.09082,1.72168l-0.43945-0.02295l0.20898-3.96143
			L182.10938,58.97216z M181.73438,60.78026l0.36133,0.01904c0.52344,0.02734,0.85156-0.21631,0.87598-0.6748
			c0.0332-0.62891-0.55176-0.71973-0.83691-0.73486l-0.32617-0.0166L181.73438,60.78026z"/>
		
			<path fill="#A3A3A3" stroke="#A3A3A3" stroke-width="0.25" stroke-linecap="round" stroke-linejoin="round" stroke-miterlimit="10" d="
			M185.21094,61.31835c0.06055,0.32715,0.12695,0.68359,0.48633,0.89063c0.18164,0.104,0.46777,0.14258,0.68359,0.10205
			c0.2168-0.04004,0.46875-0.17822,0.60156-0.34229c0.26172-0.32031,0.19531-0.67676,0.13477-1.00488l-0.44531-2.39209
			l0.43359-0.08057l0.46582,2.50977c0.06152,0.32666,0.08496,0.64941-0.07129,0.98145
			c-0.17383,0.36523-0.5459,0.64648-1.04297,0.7373c-0.49609,0.09229-0.94434-0.03564-1.23828-0.31396
			c-0.26465-0.25391-0.3584-0.5625-0.41895-0.88965l-0.4668-2.50977l0.43262-0.08057L185.21094,61.31835z"/>
		
			<path fill="#A3A3A3" stroke="#A3A3A3" stroke-width="0.25" stroke-linecap="round" stroke-linejoin="round" stroke-miterlimit="10" d="
			M189.36719,58.03417l1.43945,3.24072l-0.40039,0.1792l-1.44141-3.24023l-0.87891,0.38965l-0.16992-0.37891l2.16016-0.96094
			l0.16992,0.37988L189.36719,58.03417z"/>
	</g>
	<g>
		<circle fill="none" cx="134.71875" cy="43.99999" r="14.57799"/>
		
			<path fill="#A3A3A3" stroke="#A3A3A3" stroke-width="0.25" stroke-linecap="round" stroke-linejoin="round" stroke-miterlimit="10" d="
			M116.45703,42.22997l3.74805,0.30664l-0.03711,0.46484l-3.74902-0.30713l-0.08301,1.0166l-0.43945-0.03564l0.20508-2.49805
			l0.43945,0.03516L116.45703,42.22997z"/>
		
			<path fill="#A3A3A3" stroke="#A3A3A3" stroke-width="0.25" stroke-linecap="round" stroke-linejoin="round" stroke-miterlimit="10" d="
			M116.57813,39.07226c0.0791-0.27246,0.21484-0.67188,0.50879-0.91406c0.22559-0.19043,0.59473-0.30615,1.02441-0.18164
			c0.61719,0.17969,0.95215,0.7168,0.81641,1.34033l2.17578-0.75781l-0.1582,0.54443l-2.12402,0.71338l-0.03223,0.11523
			l1.76563,0.51318l-0.13086,0.44824l-4.0332-1.17383L116.57813,39.07226z M118.38965,39.81591l0.08301-0.28467
			c0.16113-0.55615-0.00781-0.96533-0.48047-1.10352c-0.22363-0.06445-0.4668-0.06299-0.68555,0.14844
			c-0.15625,0.15137-0.22754,0.35352-0.28418,0.54688l-0.0791,0.27246L118.38965,39.81591z"/>
		
			<path fill="#A3A3A3" stroke="#A3A3A3" stroke-width="0.25" stroke-linecap="round" stroke-linejoin="round" stroke-miterlimit="10" d="
			M117.88477,35.64159l3.7832,1.81836l-0.20117,0.41943l-3.7832-1.81885L117.88477,35.64159z"/>
		
			<path fill="#A3A3A3" stroke="#A3A3A3" stroke-width="0.25" stroke-linecap="round" stroke-linejoin="round" stroke-miterlimit="10" d="
			M121.7627,33.44433l1.07813-1.37891l0.0791,0.06299c0.36719,0.28516,0.67871,0.70508,0.79883,1.13428
			c0.05664,0.20361,0.22656,0.93604-0.36621,1.69531c-0.76758,0.98145-2.09082,1.13086-3.05176,0.37891
			c-0.96289-0.75244-1.13477-2.07666-0.36328-3.06299c0.24805-0.31787,0.61816-0.62793,1.11914-0.75684
			c0.22949-0.05811,0.48633-0.08154,0.68945-0.07422l0.03516,0.46631c-0.20801-0.01074-0.41211,0.00488-0.58691,0.04443
			c-0.25293,0.05859-0.5957,0.18945-0.90527,0.58691c-0.62402,0.79785-0.45898,1.82227,0.31055,2.42383
			c0.90234,0.70557,1.9209,0.34277,2.41016-0.28271c0.34375-0.44189,0.41992-0.99854,0.23438-1.4458
			c-0.05762-0.14063-0.16602-0.3291-0.36719-0.50244l-0.76758,0.98193L121.7627,33.44433z"/>
		
			<path fill="#A3A3A3" stroke="#A3A3A3" stroke-width="0.25" stroke-linecap="round" stroke-linejoin="round" stroke-miterlimit="10" d="
			M125.64844,29.95067l1.45117-0.98096l0.05664,0.0835c0.26172,0.38574,0.42969,0.88184,0.41113,1.32813
			c-0.00879,0.21143-0.07324,0.96143-0.87207,1.50195c-1.03516,0.69922-2.34082,0.43213-3.02539-0.58105
			c-0.68555-1.01416-0.43945-2.32813,0.59961-3.02979c0.33496-0.22656,0.7832-0.4082,1.29883-0.37598
			c0.23828,0.01465,0.49023,0.07178,0.68164,0.14111l-0.11133,0.45508c-0.19336-0.07373-0.39453-0.12158-0.57227-0.13867
			c-0.25879-0.02246-0.62695-0.00293-1.04395,0.2793c-0.84082,0.56836-0.99902,1.59619-0.45215,2.40625
			c0.64258,0.94971,1.72461,0.91943,2.38281,0.4751c0.46484-0.31494,0.70801-0.8208,0.66992-1.30566
			c-0.01074-0.15234-0.05664-0.36475-0.19336-0.59131l-1.03516,0.69873L125.64844,29.95067z"/>
		
			<path fill="#A3A3A3" stroke="#A3A3A3" stroke-width="0.25" stroke-linecap="round" stroke-linejoin="round" stroke-miterlimit="10" d="
			M129.87109,26.24511l-1.61914,0.55566l0.4043,1.17725l1.57227-0.53906l0.14258,0.41553l-1.57031,0.54102l0.5293,1.5415
			l1.61816-0.55811l0.14355,0.41748l-2.05859,0.7085l-1.36426-3.96924l2.05859-0.70801L129.87109,26.24511z"/>
		
			<path fill="#A3A3A3" stroke="#A3A3A3" stroke-width="0.25" stroke-linecap="round" stroke-linejoin="round" stroke-miterlimit="10" d="
			M132.04883,25.37108c0.28223-0.03516,0.70313-0.06738,1.04297,0.10596c0.26367,0.1333,0.51563,0.42676,0.57031,0.87061
			c0.0791,0.6377-0.2832,1.15967-0.90918,1.28076l1.55566,1.70166l-0.5625,0.06885L132.25,27.72899l-0.11816,0.01416
			l0.22461,1.82813l-0.46289,0.05664l-0.51465-4.17432L132.04883,25.37108z M132.08008,27.33007l0.29492-0.03613
			c0.57617-0.07031,0.88574-0.38818,0.82617-0.87598c-0.0293-0.23193-0.12598-0.45459-0.40723-0.57275
			c-0.2002-0.08398-0.41504-0.0708-0.61621-0.04639l-0.28125,0.03516L132.08008,27.33007z"/>
		
			<path fill="#A3A3A3" stroke="#A3A3A3" stroke-width="0.25" stroke-linecap="round" stroke-linejoin="round" stroke-miterlimit="10" d="
			M137.78516,27.39062l1.91992,0.47363l-0.15918,0.64648l-1.9209-0.47461L137.78516,27.39062z"/>
		
			<path fill="#A3A3A3" stroke="#A3A3A3" stroke-width="0.25" stroke-linecap="round" stroke-linejoin="round" stroke-miterlimit="10" d="
			M145.2832,28.44433c0.34766,0.24023,0.60938,0.48242,0.70313,0.84521c0.10352,0.39258-0.0459,0.7417-0.19629,0.95947
			c-0.33691,0.48682-0.97559,0.75732-1.7627,0.21338l-0.33594-0.23291l-1.03906,1.50146l-0.38281-0.26465l2.38867-3.45508
			L145.2832,28.44433z M143.94141,29.86669l0.31641,0.21777c0.45508,0.31592,0.8877,0.27734,1.16309-0.12109
			c0.37988-0.54932-0.09668-0.95605-0.34668-1.12744l-0.28418-0.19678L143.94141,29.86669z"/>
		
			<path fill="#A3A3A3" stroke="#A3A3A3" stroke-width="0.25" stroke-linecap="round" stroke-linejoin="round" stroke-miterlimit="10" d="
			M148.7998,32.15673l-1.18652-1.23975l-0.90137,0.86328l1.15137,1.20313l-0.31836,0.30469l-1.15234-1.20215l-1.17969,1.12891
			l1.18652,1.23877l-0.31836,0.30566l-1.50879-1.57666l3.03809-2.90869l1.50879,1.57666L148.7998,32.15673z"/>
		
			<path fill="#A3A3A3" stroke="#A3A3A3" stroke-width="0.25" stroke-linecap="round" stroke-linejoin="round" stroke-miterlimit="10" d="
			M150.51367,33.79442c0.14844,0.2417,0.35449,0.61182,0.33789,0.9917c-0.00977,0.29541-0.17188,0.64746-0.55273,0.88232
			c-0.54688,0.3374-1.17188,0.22705-1.54297-0.29199l-0.89746,2.12402l-0.29785-0.48291l0.89453-2.05664l-0.0625-0.10107
			l-1.56738,0.9668l-0.24512-0.39697l3.57813-2.20996L150.51367,33.79442z M148.74609,34.64159l0.15527,0.25195
			c0.30469,0.49316,0.72363,0.64307,1.1416,0.38477c0.19824-0.12354,0.36133-0.30371,0.35059-0.60889
			c-0.00879-0.21777-0.11035-0.40674-0.21582-0.57861l-0.14941-0.2417L148.74609,34.64159z"/>
		
			<path fill="#A3A3A3" stroke="#A3A3A3" stroke-width="0.25" stroke-linecap="round" stroke-linejoin="round" stroke-miterlimit="10" d="
			M152.25,40.14843c0.08594-0.1665,0.17383-0.40625,0.20508-0.64209c0.02832-0.24072,0.00977-0.50586-0.06641-0.74023
			c-0.29688-0.92578-1.26074-1.37109-2.18555-1.07373c-1.08691,0.34863-1.35059,1.40771-1.11523,2.13965
			c0.08594,0.27002,0.25,0.50977,0.42578,0.68457c0.1875,0.19141,0.38867,0.30566,0.48438,0.35449l-0.55273,0.17773
			c-0.46094-0.3418-0.68164-0.78223-0.77832-1.08203c-0.38086-1.18896,0.23633-2.36182,1.39551-2.7334
			c1.19531-0.38379,2.37109,0.22607,2.75684,1.42773c0.07715,0.24023,0.19531,0.71191-0.0166,1.31006L152.25,40.14843z"/>
		
			<path fill="#A3A3A3" stroke="#A3A3A3" stroke-width="0.25" stroke-linecap="round" stroke-linejoin="round" stroke-miterlimit="10" d="
			M150.86328,42.30175c-0.35156,0.01367-0.73633,0.0293-1.00488,0.37402c-0.1377,0.17529-0.22168,0.46777-0.21191,0.70117
			c0.00977,0.23242,0.11523,0.51758,0.26758,0.68262c0.2959,0.32031,0.67969,0.30615,1.03125,0.2915l2.57227-0.10205
			l0.01855,0.46484l-2.69824,0.10791c-0.35156,0.01367-0.69336-0.01025-1.01563-0.22314
			c-0.35742-0.23779-0.59375-0.66992-0.61523-1.2041c-0.02148-0.53467,0.18066-0.98389,0.5166-1.24902
			c0.30469-0.23877,0.64355-0.28955,0.99512-0.3042l2.69824-0.1084l0.01855,0.46484L150.86328,42.30175z"/>
	</g>
	<g>
		<g>
			
				<path fill="#A3A3A3" stroke="#A3A3A3" stroke-width="0.25" stroke-linecap="round" stroke-linejoin="round" stroke-miterlimit="10" d="
				M127.11914,56.91308l-2.23633,3.55322l-0.39453-0.24756l2.2373-3.55371L127.11914,56.91308z"/>
			
				<path fill="#A3A3A3" stroke="#A3A3A3" stroke-width="0.25" stroke-linecap="round" stroke-linejoin="round" stroke-miterlimit="10" d="
				M126.86719,61.62694l1.41992-4.14551l1.98828,4.3125l1.05664-3.08301l0.44141,0.15088l-1.42383,4.15869l-1.98828-4.31348
				l-1.05273,3.07178L126.86719,61.62694z"/>
			
				<path fill="#A3A3A3" stroke="#A3A3A3" stroke-width="0.25" stroke-linecap="round" stroke-linejoin="round" stroke-miterlimit="10" d="
				M133.84766,59.02782c0.42188,0.02393,0.77148,0.09277,1.04102,0.354c0.29395,0.28076,0.34961,0.65674,0.33398,0.92139
				c-0.03125,0.59131-0.43555,1.15527-1.39258,1.104l-0.4082-0.02246l-0.10059,1.82471l-0.46582-0.02588l0.23047-4.19824
				L133.84766,59.02782z M133.44531,60.94384l0.38477,0.021c0.55371,0.02979,0.90234-0.22852,0.92871-0.71289
				c0.03711-0.66748-0.58301-0.76416-0.88477-0.78076l-0.34668-0.01904L133.44531,60.94384z"/>
			
				<path fill="#A3A3A3" stroke="#A3A3A3" stroke-width="0.25" stroke-linecap="round" stroke-linejoin="round" stroke-miterlimit="10" d="
				M137.1543,61.50683c0.06836,0.34668,0.14258,0.72363,0.52344,0.93799c0.19434,0.10791,0.49609,0.146,0.72461,0.10059
				c0.22949-0.04443,0.49609-0.19238,0.63379-0.36768c0.27246-0.34131,0.19922-0.71777,0.13184-1.06396l-0.49414-2.52539
				l0.45703-0.08936l0.51855,2.64893c0.06738,0.34619,0.0957,0.68652-0.06641,1.03857
				c-0.18066,0.38867-0.57129,0.68896-1.0957,0.7915c-0.52441,0.10205-0.99902-0.02881-1.3125-0.3208
				c-0.28223-0.26465-0.38574-0.59131-0.45215-0.93652l-0.51758-2.64941l0.45605-0.08936L137.1543,61.50683z"/>
			
				<path fill="#A3A3A3" stroke="#A3A3A3" stroke-width="0.25" stroke-linecap="round" stroke-linejoin="round" stroke-miterlimit="10" d="
				M141.47949,57.96435l1.60059,3.40088l-0.4209,0.19873l-1.60059-3.3999l-0.92383,0.43408l-0.1875-0.39893l2.26758-1.06738
				l0.1875,0.39893L141.47949,57.96435z"/>
		</g>
	</g>
	<g>
		<circle fill="#262424" stroke="#606266" stroke-width="0.5" stroke-miterlimit="10" cx="135" cy="198.5" r="34.93385"/>
		
			<line fill="none" stroke="#606266" stroke-width="0.75" stroke-miterlimit="10" x1="135" y1="198.5" x2="110.59309" y2="222.90691"/>
		<line fill="none" stroke="#606266" stroke-width="0.75" stroke-miterlimit="10" x1="135" y1="198.5" x2="135" y2="163.56616"/>
		
			<line fill="none" stroke="#606266" stroke-width="0.75" stroke-miterlimit="10" x1="135" y1="198.5" x2="159.70186" y2="223.20186"/>
		<circle fill="#262424" stroke="#606266" stroke-width="0.75" stroke-miterlimit="10" cx="135" cy="198.5" r="23.5"/>
	</g>
	<g>
		<circle fill="none" cx="135" cy="198.5" r="28.59473"/>
		
			<path fill="#A3A3A3" stroke="#A3A3A3" stroke-width="0.25" stroke-linecap="round" stroke-linejoin="round" stroke-miterlimit="10" d="
			M124.03418,223.16406c-0.00098-0.16016-0.03906-0.35693-0.10449-0.49561c-0.05859-0.11768-0.18457-0.29541-0.45703-0.42969
			c-0.47461-0.23145-0.94824-0.09912-1.16602,0.3457c-0.0918,0.18652-0.09375,0.31982-0.02539,0.50488
			c0.07227,0.21387,0.21387,0.37988,0.35547,0.54785l0.36035,0.42578c0.21973,0.25977,0.41504,0.51514,0.51758,0.81494
			c0.125,0.36328,0.08789,0.69189-0.08105,1.0376c-0.43262,0.88281-1.375,1.15039-2.23633,0.72852
			c-0.31641-0.1543-0.67871-0.4126-0.85059-0.89795c-0.12402-0.34521-0.10645-0.74512-0.03027-1.06494l0.58789,0.10986
			c-0.08789,0.26904-0.07813,0.54053-0.01172,0.75049c0.10547,0.31152,0.31445,0.48389,0.55859,0.604
			c0.65332,0.32031,1.19043,0.00488,1.42578-0.47705c0.10547-0.21387,0.13281-0.43359,0.03809-0.67529
			c-0.07324-0.19531-0.21777-0.37402-0.41309-0.61182l-0.33203-0.41113c-0.14453-0.17871-0.33203-0.39453-0.44531-0.70898
			c-0.10938-0.30273-0.12305-0.58447,0.05371-0.94434c0.3623-0.73877,1.17285-0.95605,1.94727-0.57715
			c0.29492,0.14551,0.50293,0.31836,0.66309,0.59229c0.12988,0.22363,0.2002,0.49854,0.20605,0.75977L124.03418,223.16406z"/>
		
			<path fill="#A3A3A3" stroke="#A3A3A3" stroke-width="0.25" stroke-linecap="round" stroke-linejoin="round" stroke-miterlimit="10" d="
			M124.84375,225.36475c0.41602-1.5376,1.91699-2.34277,3.40039-1.94336c1.48242,0.40039,2.37695,1.85107,1.96289,3.38867
			c-0.41309,1.53027-1.90918,2.34473-3.40039,1.94238C125.31543,228.35107,124.43164,226.89502,124.84375,225.36475z
			 M125.43164,225.52295c-0.31836,1.18164,0.36133,2.37695,1.52148,2.68896c1.1582,0.3125,2.34669-0.37793,2.66602-1.56006
			c0.31836-1.18164-0.36133-2.37598-1.52148-2.68945C126.93945,223.65039,125.75,224.34082,125.43164,225.52295z"/>
		
			<path fill="#A3A3A3" stroke="#A3A3A3" stroke-width="0.25" stroke-linecap="round" stroke-linejoin="round" stroke-miterlimit="10" d="
			M132.05859,227.56104c-0.02539,0.4458-0.05176,0.93408,0.35156,1.31543c0.20605,0.19629,0.56641,0.33643,0.8623,0.35254
			c0.2959,0.01563,0.66895-0.0835,0.89453-0.25586c0.44336-0.33594,0.46973-0.82275,0.49512-1.27051l0.17773-3.26611l0.5918,0.03271
			l-0.1875,3.42578c-0.02539,0.44775-0.09668,0.87598-0.40625,1.25977c-0.34375,0.42139-0.91797,0.66992-1.59668,0.6333
			c-0.67871-0.03711-1.22168-0.34814-1.51758-0.80469c-0.26563-0.41455-0.29004-0.84863-0.26563-1.29541l0.1875-3.42578
			l0.59082,0.03174L132.05859,227.56104z"/>
		
			<path fill="#A3A3A3" stroke="#A3A3A3" stroke-width="0.25" stroke-linecap="round" stroke-linejoin="round" stroke-miterlimit="10" d="
			M137.43555,224.28564c0.35938-0.03809,0.89453-0.06982,1.32031,0.15967c0.33203,0.17334,0.64453,0.55029,0.70313,1.11621
			c0.08594,0.81104-0.38477,1.46338-1.18164,1.60352l1.93457,2.19287l-0.71582,0.07568l-1.8584-2.15381l-0.15137,0.0166
			l0.24414,2.32129l-0.58887,0.06201l-0.55566-5.30518L137.43555,224.28564z M137.43164,226.771l0.37305-0.03906
			c0.73242-0.07764,1.13281-0.47363,1.06836-1.09277c-0.03125-0.29443-0.15039-0.58057-0.50391-0.73535
			c-0.25195-0.10986-0.52441-0.09863-0.7793-0.07129l-0.35742,0.03809L137.43164,226.771z"/>
		
			<path fill="#A3A3A3" stroke="#A3A3A3" stroke-width="0.25" stroke-linecap="round" stroke-linejoin="round" stroke-miterlimit="10" d="
			M144.54883,223.92383c-0.20703-0.11523-0.50879-0.23682-0.80566-0.28564c-0.30469-0.04541-0.6416-0.03271-0.94238,0.05371
			c-1.18457,0.33789-1.78906,1.54395-1.44922,2.72949c0.39844,1.39258,1.72949,1.76855,2.66797,1.49951
			c0.3457-0.09912,0.65625-0.29639,0.88672-0.51123c0.25-0.23047,0.40234-0.48242,0.46875-0.6001l0.20215,0.70654
			c-0.45215,0.57178-1.01855,0.83301-1.40332,0.94385c-1.52344,0.43604-2.98438-0.39551-3.41016-1.87939
			c-0.4375-1.53174,0.38281-2.99854,1.92188-3.43848c0.30762-0.08838,0.91113-0.21875,1.66113,0.07422L144.54883,223.92383z"/>
		
			<path fill="#A3A3A3" stroke="#A3A3A3" stroke-width="0.25" stroke-linecap="round" stroke-linejoin="round" stroke-miterlimit="10" d="
			M147.75781,221.72656l-1.96387,0.93799l0.68359,1.42871l1.90527-0.91064l0.24121,0.50537l-1.90527,0.91113l0.89355,1.86914
			l1.96387-0.93799l0.24121,0.50586l-2.49707,1.19336l-2.30176-4.81494l2.49707-1.19336L147.75781,221.72656z"/>
	</g>
	<g>
		<circle fill="none" cx="135.07129" cy="198.57129" r="28.59473"/>
		<path fill="#A3A3A3" d="M117.25879,174.68213c-0.10938-0.05127-0.25488-0.08936-0.36914-0.09033
			c-0.09961,0.00049-0.26074,0.02881-0.43945,0.16943c-0.31152,0.24463-0.37695,0.60889-0.14648,0.90137
			c0.09668,0.12207,0.18555,0.16699,0.33203,0.18018c0.16992,0.02148,0.32813-0.02002,0.4873-0.06104l0.40527-0.10498
			c0.24707-0.06494,0.48438-0.11328,0.71875-0.08545c0.28711,0.03467,0.49805,0.1665,0.67578,0.39258
			c0.45605,0.58057,0.33105,1.30469-0.23438,1.75c-0.20801,0.16309-0.50098,0.32422-0.88477,0.2832
			c-0.27441-0.0293-0.53906-0.17188-0.72949-0.32666l0.26465-0.36182c0.1543,0.14648,0.34082,0.22949,0.50488,0.25293
			c0.24414,0.0293,0.42969-0.05518,0.58984-0.18115c0.42871-0.33838,0.3916-0.80371,0.1416-1.12061
			c-0.11035-0.14063-0.25-0.23047-0.44434-0.24512c-0.15723-0.01514-0.32324,0.02588-0.54785,0.07959l-0.38672,0.09082
			c-0.16797,0.03955-0.375,0.09619-0.62402,0.07031c-0.24121-0.02393-0.43555-0.10742-0.62109-0.34326
			c-0.38184-0.48633-0.26563-1.104,0.24316-1.50537c0.19434-0.15186,0.37891-0.23633,0.61719-0.25439
			c0.19336-0.01563,0.40234,0.02637,0.58008,0.10742L117.25879,174.68213z"/>
		<path fill="#A3A3A3" d="M118.86914,172.62158L121.02148,176l-0.375,0.23926l-2.15137-3.37891L118.86914,172.62158z"/>
		<path fill="#A3A3A3" d="M122.17383,175.25439l-1.77246-3.77295l4.21387,1.63379l-1.31836-2.80664l0.40137-0.18896l1.77734,3.78369
			l-4.21289-1.6333l1.3125,2.7959L122.17383,175.25439z"/>
		<path fill="#A3A3A3" d="M127.65137,169.30469l-1.56738,0.46143l0.33691,1.14063l1.52148-0.44727l0.11816,0.40283l-1.52148,0.44824
			l0.43945,1.49121l1.56738-0.46045l0.11914,0.40283l-1.99414,0.58691l-1.13184-3.84229l1.99316-0.5874L127.65137,169.30469z"/>
	</g>
	<g>
		<circle fill="none" cx="135.07129" cy="198.57129" r="28.59473"/>
		<path fill="#A3A3A3" d="M141.91504,172.82715l1.33203-3.95313l1.91211,4.09766l0.99121-2.94141l0.42188,0.14258l-1.33789,3.96387
			l-1.91113-4.09668l-0.9873,2.92871L141.91504,172.82715z"/>
		<path fill="#A3A3A3" d="M147.23633,172.61523c0.58301-1.04199,1.82227-1.35449,2.8291-0.79297
			c1.00586,0.56348,1.39063,1.78223,0.80762,2.8252c-0.58008,1.03711-1.81641,1.35645-2.82813,0.79102
			C147.0332,174.875,146.65625,173.65332,147.23633,172.61523z M147.63477,172.83789
			c-0.44727,0.80176-0.1709,1.79492,0.61523,2.2334c0.78613,0.43945,1.77734,0.15527,2.22559-0.64648
			c0.44824-0.80273,0.1709-1.7959-0.61523-2.23535S148.08301,172.03613,147.63477,172.83789z"/>
		<path fill="#A3A3A3" d="M153.55469,174.17871l-2.39258,3.21289l-0.35742-0.26563l2.39453-3.21289L153.55469,174.17871z"/>
		<path fill="#A3A3A3" d="M155.77148,177.10449c0.0332-0.11523,0.04785-0.26563,0.03027-0.37988
			c-0.01758-0.0957-0.07129-0.25098-0.23926-0.40527c-0.29199-0.26758-0.66211-0.27148-0.91309,0.00293
			c-0.10547,0.11523-0.13574,0.20996-0.12402,0.3584c0.00684,0.16895,0.07324,0.31934,0.13867,0.46875l0.16992,0.38379
			c0.10449,0.2334,0.19043,0.45898,0.20117,0.69629c0.0127,0.28809-0.08301,0.51758-0.27734,0.73145
			c-0.49805,0.54395-1.23438,0.53809-1.76563,0.05176c-0.19434-0.17773-0.40234-0.44043-0.42285-0.82617
			c-0.0166-0.27637,0.08105-0.56152,0.20313-0.77441l0.39941,0.2041c-0.11914,0.17383-0.16992,0.37207-0.16602,0.53711
			c0.01074,0.24609,0.12305,0.41602,0.27539,0.55371c0.40234,0.36816,0.85547,0.25488,1.12695-0.04199
			c0.12207-0.13281,0.1875-0.28418,0.1709-0.47852c-0.01074-0.15723-0.07813-0.31543-0.16797-0.52832l-0.15234-0.36719
			c-0.06738-0.15918-0.15527-0.35449-0.1709-0.60352c-0.01563-0.24219,0.03516-0.44922,0.2373-0.66895
			c0.41699-0.45703,1.04688-0.44238,1.52539-0.00488c0.18164,0.16699,0.2959,0.33496,0.35254,0.56738
			c0.04688,0.18848,0.03906,0.40039-0.01172,0.59082L155.77148,177.10449z"/>
		<path fill="#A3A3A3" d="M158.84766,179.94043l-1.05469-1.24609l-0.90723,0.76953l1.02441,1.20801l-0.32031,0.27148
			l-1.02344-1.20898l-1.18555,1.00586l1.05469,1.24512l-0.32031,0.27051l-1.3418-1.58301l3.05273-2.58789l1.3418,1.58301
			L158.84766,179.94043z"/>
	</g>
	<g id="g8548_1_" transform="matrix(0.33866666,0,0,0.33866666,-6.6675,182.3825)">
		<g id="circle8538_1_">
			<circle fill="#A3A3A3" cx="418.30872" cy="-194.54625" r="66.44771"/>
		</g>
		<g id="line8540_1_">
			<rect x="402.62265" y="-225.71654" fill="#262424" width="33.30825" height="5.75787"/>
		</g>
		<g id="circle8542_1_">
			<path fill="#262424" d="M394.85739-209.52249c-7.26837,0-13.1958-5.91982-13.1958-13.18816
				c0-7.26836,5.92743-13.18054,13.1958-13.18054c7.26831,0,13.18051,5.91219,13.18051,13.18054
				C408.0379-215.44231,402.1257-209.52249,394.85739-209.52249z M394.85739-228.39429c-3.13895,0-5.69888,2.54468-5.69888,5.68364
				c0,3.13895,2.55994,5.69125,5.69888,5.69125c3.13892,0,5.68359-2.55231,5.68359-5.69125
				C400.54099-225.84961,397.99631-228.39429,394.85739-228.39429z"/>
		</g>
		<g id="ellipse8544_1_">
			<path fill="#262424" d="M417.89667-182.88713c-16.73093,0-34.74179-4.40366-34.74179-14.0567
				c0-9.65303,18.01086-14.0567,34.74179-14.0567c16.7309,0,34.75702,4.40367,34.75702,14.0567
				C452.65369-187.29079,434.62756-182.88713,417.89667-182.88713z M417.89667-203.50362
				c-17.70615,0-26.78775,4.78459-27.2601,6.6055c0.47235,1.72946,9.55396,6.51408,27.2601,6.51408
				c17.72134,0,26.80298-4.78462,27.27533-6.60551C444.69965-198.71902,435.61801-203.50362,417.89667-203.50362z"/>
		</g>
		<g id="path8546_1_">
			<path fill="#262424" d="M417.89667-153.56233c-28.34198,0-33.87323-10.69679-34.40656-11.91582l-0.32001-1.50851v-29.95717
				h7.49692v28.85243c1.34091,1.56186,7.46643,7.03217,27.22964,7.03217c19.68698,0,25.82776-5.60744,27.2601-7.34453v-28.54007
				h7.49692l-0.30475,31.12285C451.81561-164.5715,446.2691-153.56233,417.89667-153.56233z"/>
		</g>
	</g>
	<g>
		<circle fill="none" cx="83.4533" cy="145.5" r="28.59473"/>
		<path fill="#A3A3A3" d="M55.83887,136.54443l0.7002-1.92871l-1.5293-0.55469l0.15137-0.41699l3.7627,1.36475l-0.15137,0.4165
			l-1.83984-0.6665l-0.69824,1.9292l1.83887,0.6665l-0.15234,0.41748l-3.7627-1.36475l0.15332-0.41748L55.83887,136.54443z"/>
		<path fill="#A3A3A3" d="M59.56055,131.33154l-0.82422,1.49219l0.75684,0.96533l-0.23828,0.43164l-2.78223-3.64063l4.54004,0.45557
			l-0.23828,0.43066L59.56055,131.33154z M59.10938,131.28076l-1.72852-0.18555l1.07324,1.37354L59.10938,131.28076z"/>
		<path fill="#A3A3A3" d="M58.73438,127.40575c0.16113-0.21582,0.41699-0.52637,0.76074-0.64404
			c0.26563-0.09326,0.63281-0.07324,0.97363,0.18359c0.48926,0.36719,0.6084,0.95947,0.27734,1.46973l2.19434,0.05664
			l-0.32422,0.43213l-2.13281-0.07861l-0.06934,0.09082l1.40234,1.05322l-0.26758,0.35498l-3.20117-2.4048L58.73438,127.40575z
			 M60.09766,128.67871l0.16895-0.22607c0.33203-0.44189,0.31934-0.86427-0.05469-1.14552
			c-0.17871-0.1333-0.39453-0.21387-0.66211-0.09863c-0.18945,0.08252-0.32129,0.23877-0.4375,0.39258l-0.16113,0.21582
			L60.09766,128.67871z"/>
		<path fill="#A3A3A3" d="M63.44336,127.80322l-2.42969-3.51611l3.44043,1.38477l-1.2002-3.52832l3.36914,2.63086l-0.33008,0.31445
			l-2.19434-1.75439l1.05078,3.07568l-3.00879-1.20947l1.63281,2.28857L63.44336,127.80322z"/>
		<path fill="#A3A3A3" d="M66.29102,122.51611c-0.64453-1.00732-0.33301-2.24658,0.63867-2.8667
			c0.97168-0.62109,2.22852-0.38379,2.87207,0.62305c0.63965,1.00195,0.33594,2.24365-0.64063,2.86768
			C68.18457,123.76366,66.92969,123.51757,66.29102,122.51611z M66.67383,122.2705c0.49609,0.77441,1.50195,1,2.26172,0.51563
			c0.75879-0.48486,0.97656-1.49365,0.48047-2.26807c-0.49414-0.77393-1.50098-1.00049-2.25977-0.51514
			S66.17969,121.49609,66.67383,122.2705z"/>
		<path fill="#A3A3A3" d="M71.81934,121.50731l-1.56445-3.86865l4.12012,1.86328l-1.16309-2.87793l0.41211-0.16602l1.56836,3.87891
			l-4.12109-1.86279l1.15918,2.86621L71.81934,121.50731z"/>
		<path fill="#A3A3A3" d="M75.87891,115.8496l1.0166,3.86865l-0.42969,0.11279l-1.01563-3.86914L75.87891,115.8496z"/>
		<path fill="#A3A3A3" d="M80.83008,115.86376c-0.14258-0.10742-0.35254-0.229-0.56836-0.29492
			c-0.2207-0.06592-0.47266-0.09033-0.7041-0.05762c-0.91309,0.12988-1.48535,0.96143-1.35645,1.87451
			c0.15234,1.07373,1.10059,1.49023,1.8252,1.3877c0.2666-0.03809,0.5166-0.15137,0.70898-0.28809
			c0.20898-0.14453,0.34961-0.31543,0.41016-0.39697l0.07813,0.5459c-0.39551,0.37646-0.8418,0.5127-1.13867,0.55469
			c-1.1748,0.16602-2.17383-0.6001-2.33594-1.74463c-0.16602-1.18066,0.59277-2.18457,1.7793-2.35254
			c0.2373-0.03369,0.69824-0.06934,1.22363,0.22607L80.83008,115.86376z"/>
		<path fill="#A3A3A3" d="M87.16504,114.56591l0.33301,0.20703l-3.51172,5.29443l-0.33398-0.19531L87.16504,114.56591z"/>
		<path fill="#A3A3A3" d="M91.1123,115.85986l0.78125,0.24072c0.38477,0.11816,0.91797,0.32666,1.27441,0.88232
			c0.26074,0.40088,0.41504,0.98291,0.20313,1.67139c-0.24902,0.8042-0.77637,1.11328-1.12402,1.26367
			c-0.44336,0.19043-0.85449,0.2207-1.53906,0.01074l-0.77441-0.23877L91.1123,115.85986z M90.48242,119.41895l0.37305,0.11475
			c0.30371,0.09375,0.73438,0.18848,1.20215-0.00684c0.3623-0.15332,0.70801-0.46094,0.87695-1.00635
			c0.28223-0.91895-0.17676-1.71387-1.14746-2.0127l-0.37305-0.11475L90.48242,119.41895z"/>
		<path fill="#A3A3A3" d="M97.20898,118.64893l-1.47656-0.69092l-0.50195,1.07568l1.43359,0.66992l-0.17871,0.38037l-1.43359-0.6709
			l-0.65723,1.40625l1.47754,0.69141l-0.17871,0.38037l-1.87891-0.87891l1.69434-3.62207l1.87891,0.87842L97.20898,118.64893z"/>
		<path fill="#A3A3A3" d="M99.44922,119.93604l-1.88477,3.05078l-0.37793-0.2334l1.88379-3.05127l-0.82715-0.51123l0.2207-0.35791
			l2.03418,1.25684l-0.2207,0.35693L99.44922,119.93604z"/>
		<path fill="#A3A3A3" d="M100.49707,123.12499c-0.21289,0.25928-0.44629,0.54102-0.37109,0.95215
			c0.03711,0.20898,0.19238,0.4541,0.36426,0.59521c0.1709,0.14111,0.44141,0.24707,0.6543,0.24316
			c0.41699-0.00586,0.64941-0.28857,0.86328-0.54785l1.55859-1.89404l0.34277,0.28271l-1.63574,1.98633
			c-0.21387,0.25928-0.44629,0.48633-0.80371,0.58008c-0.39551,0.10303-0.85254-0.00195-1.24707-0.32666
			c-0.39355-0.32373-0.58398-0.75293-0.55859-1.15918c0.02344-0.36914,0.20215-0.64258,0.41504-0.90186l1.63574-1.98584
			l0.3418,0.28223L100.49707,123.12499z"/>
		<path fill="#A3A3A3" d="M102.30957,126.71337l3.14941-2.73975l-0.41992,4.50391l2.3418-2.03712l0.29297,0.33496l-3.1582,2.74708
			l0.41992-4.50391l-2.33301,2.03027L102.30957,126.71337z"/>
		<path fill="#A3A3A3" d="M109.5293,130.3623l-0.87012-1.37891l-1.00391,0.63379l0.84473,1.33789l-0.35547,0.22461l-0.84375-1.33887
			l-1.31348,0.8291l0.87012,1.37939l-0.35547,0.22363l-1.10645-1.75439l3.38184-2.13477l1.10742,1.75488L109.5293,130.3623z"/>
	</g>
</g>
</svg>
