<?xml version="1.0" encoding="utf-8"?>
<!-- Generator: Adobe Illustrator 24.0.2, SVG Export Plug-In . SVG Version: 6.00 Build 0)  -->
<svg version="1.0" id="Layer_1" xmlns="http://www.w3.org/2000/svg" xmlns:xlink="http://www.w3.org/1999/xlink" x="0px" y="0px"
	 width="270px" height="380px" viewBox="0 0 270 380" enable-background="new 0 0 270 380" xml:space="preserve">
<g id="_x37_">
	<rect y="-0.00001" fill="none" width="270" height="380"/>
	<g>
		<circle fill="#262424" stroke="#606266" stroke-width="0.75" stroke-miterlimit="10" cx="83.5" cy="145.5" r="34.93385"/>
		
			<line fill="none" stroke="#606266" stroke-width="0.75" stroke-miterlimit="10" x1="83.5" y1="145.5" x2="58.79808" y2="170.20192"/>
		
			<line fill="none" stroke="#606266" stroke-width="0.5" stroke-miterlimit="10" x1="83.46204" y1="145.61636" x2="116.56929" y2="156.79225"/>
		
			<line fill="none" stroke="#606266" stroke-width="0.5" stroke-miterlimit="10" x1="83.46204" y1="145.61636" x2="117.52246" y2="135.10704"/>
		
			<line fill="none" stroke="#606266" stroke-width="0.5" stroke-miterlimit="10" x1="83.46204" y1="145.61636" x2="104.36681" y2="117.62621"/>
		
			<line fill="none" stroke="#606266" stroke-width="0.5" stroke-miterlimit="10" x1="83.46204" y1="145.61636" x2="50.3548" y2="156.79225"/>
		
			<line fill="none" stroke="#606266" stroke-width="0.5" stroke-miterlimit="10" x1="83.46204" y1="145.61636" x2="49.40163" y2="135.10704"/>
		
			<line fill="none" stroke="#606266" stroke-width="0.5" stroke-miterlimit="10" x1="83.46204" y1="145.61636" x2="62.55727" y2="117.62621"/>
		
			<line fill="none" stroke="#606266" stroke-width="0.5" stroke-miterlimit="10" x1="83.5" y1="110.56614" x2="83.5" y2="145.61636"/>
		
			<line fill="none" stroke="#606266" stroke-width="0.75" stroke-miterlimit="10" x1="83.5" y1="145.5" x2="108.20195" y2="170.20195"/>
		<circle fill="#262424" stroke="#606266" stroke-width="0.75" stroke-miterlimit="10" cx="83.5" cy="145.5" r="23.5"/>
	</g>
	<g>
		<circle fill="#262424" stroke="#606266" stroke-width="0.5" stroke-miterlimit="10" cx="186.44551" cy="145.5" r="34.93385"/>
		<circle fill="#262424" stroke="#606266" stroke-width="0.75" stroke-miterlimit="10" cx="186.44551" cy="145.5" r="34.93385"/>
		
			<line fill="none" stroke="#606266" stroke-width="0.75" stroke-miterlimit="10" x1="186.44551" y1="145.5" x2="161.74948" y2="170.19603"/>
		
			<line fill="none" stroke="#606266" stroke-width="0.75" stroke-miterlimit="10" x1="186.44551" y1="145.5" x2="211.14154" y2="170.19603"/>
		
			<line fill="none" stroke="#606266" stroke-width="0.5" stroke-miterlimit="10" x1="186.48346" y1="110.42643" x2="186.48346" y2="145.47665"/>
		<circle fill="#262424" stroke="#606266" stroke-width="0.75" stroke-miterlimit="10" cx="186.44551" cy="145.5" r="23.5"/>
	</g>
	<g>
		<circle fill="#262424" stroke="#606266" stroke-width="0.5" stroke-miterlimit="10" cx="135" cy="198.5" r="34.93385"/>
		
			<line fill="none" stroke="#606266" stroke-width="0.75" stroke-miterlimit="10" x1="135" y1="198.5" x2="110.59309" y2="222.90691"/>
		<line fill="none" stroke="#606266" stroke-width="0.75" stroke-miterlimit="10" x1="135" y1="198.5" x2="102.8125" y2="214"/>
		<line fill="none" stroke="#606266" stroke-width="0.75" stroke-miterlimit="10" x1="135" y1="198.5" x2="98.425" y2="198.5"/>
		
			<line fill="none" stroke="#606266" stroke-width="0.75" stroke-miterlimit="10" x1="135" y1="198.5" x2="102.75625" y2="183.27499"/>
		
			<line fill="none" stroke="#606266" stroke-width="0.75" stroke-miterlimit="10" x1="135" y1="198.5" x2="112.09766" y2="170.5625"/>
		<line fill="none" stroke="#606266" stroke-width="0.75" stroke-miterlimit="10" x1="135" y1="198.5" x2="167.1875" y2="214"/>
		<line fill="none" stroke="#606266" stroke-width="0.75" stroke-miterlimit="10" x1="135" y1="198.5" x2="171.575" y2="198.5"/>
		
			<line fill="none" stroke="#606266" stroke-width="0.75" stroke-miterlimit="10" x1="135" y1="198.5" x2="167.24374" y2="183.27499"/>
		
			<line fill="none" stroke="#606266" stroke-width="0.75" stroke-miterlimit="10" x1="135" y1="198.5" x2="157.90234" y2="170.5625"/>
		
			<line fill="none" stroke="#606266" stroke-width="0.75" stroke-miterlimit="10" x1="135" y1="198.5" x2="126.6625" y2="163.08125"/>
		
			<line fill="none" stroke="#606266" stroke-width="0.75" stroke-miterlimit="10" x1="135" y1="198.5" x2="143.08374" y2="163.58667"/>
		
			<line fill="none" stroke="#606266" stroke-width="0.75" stroke-miterlimit="10" x1="135" y1="198.5" x2="159.70186" y2="223.20186"/>
		<circle fill="#262424" stroke="#606266" stroke-width="0.75" stroke-miterlimit="10" cx="135" cy="198.5" r="23.5"/>
	</g>
	<g>
		<circle fill="#262424" stroke="#606266" stroke-width="0.5" stroke-miterlimit="10" cx="135" cy="283.5" r="34.93385"/>
		
			<line fill="none" stroke="#606266" stroke-width="0.75" stroke-miterlimit="10" x1="135" y1="283.5" x2="110.30396" y2="308.19604"/>
		
			<line fill="none" stroke="#606266" stroke-width="0.75" stroke-miterlimit="10" x1="135" y1="283.5" x2="159.69603" y2="308.19604"/>
		<line fill="none" stroke="#606266" stroke-width="0.5" stroke-miterlimit="10" x1="135" y1="248.56616" x2="135" y2="283.5"/>
		<circle fill="#262424" stroke="#606266" stroke-width="0.75" stroke-miterlimit="10" cx="135" cy="283.5" r="23.5"/>
	</g>
	<g>
		<circle fill="none" cx="71" cy="351" r="14.578"/>
		
			<path fill="#A3A3A3" stroke="#A3A3A3" stroke-width="0.25" stroke-linecap="round" stroke-linejoin="round" stroke-miterlimit="10" d="
			M63.59863,334.62646c-0.18066-0.04932-0.43262-0.08447-0.66895-0.06543c-0.24121,0.02295-0.49609,0.09619-0.70898,0.21875
			c-0.83984,0.48291-1.07422,1.51758-0.59082,2.35742c0.56738,0.98779,1.65527,1.02393,2.32129,0.64063
			c0.24512-0.14014,0.44531-0.3501,0.58008-0.55762c0.14648-0.22266,0.21582-0.44385,0.24316-0.54736l0.29004,0.50195
			c-0.23828,0.52148-0.62109,0.82813-0.89453,0.98535c-1.08008,0.62158-2.35254,0.26318-2.95703-0.78906
			c-0.625-1.08643-0.27637-2.36133,0.81641-2.98877c0.2168-0.12598,0.65332-0.33984,1.28125-0.2583L63.59863,334.62646z"/>
		
			<path fill="#A3A3A3" stroke="#A3A3A3" stroke-width="0.25" stroke-linecap="round" stroke-linejoin="round" stroke-miterlimit="10" d="
			M65.96191,334.61816l2.09473-0.49951l-0.39746-1.66016l0.45313-0.10791l0.97559,4.0835l-0.45313,0.10889l-0.47656-1.99658
			l-2.09375,0.50049l0.47656,1.99561l-0.45313,0.10889l-0.97559-4.08301l0.4541-0.10938L65.96191,334.61816z"/>
		
			<path fill="#A3A3A3" stroke="#A3A3A3" stroke-width="0.25" stroke-linecap="round" stroke-linejoin="round" stroke-miterlimit="10" d="
			M70.10938,334.17725c0.09668-1.25,1.14063-2.09033,2.34473-1.99707c1.20508,0.09277,2.10645,1.08447,2.01074,2.33252
			c-0.0957,1.24219-1.13281,2.09033-2.34473,1.99707S70.01367,335.41943,70.10938,334.17725z M70.58691,334.21289
			c-0.0752,0.96094,0.62598,1.78467,1.56738,1.85791c0.94141,0.07227,1.75977-0.63379,1.83398-1.59473
			c0.07422-0.95996-0.62695-1.78467-1.56836-1.85693C71.47949,332.5459,70.66016,333.25342,70.58691,334.21289z"/>
		
			<path fill="#A3A3A3" stroke="#A3A3A3" stroke-width="0.25" stroke-linecap="round" stroke-linejoin="round" stroke-miterlimit="10" d="
			M77.28906,333.26904c0.26563,0.1001,0.6543,0.26855,0.87109,0.5791c0.17188,0.23975,0.25977,0.61719,0.10059,1.03418
			c-0.22754,0.60107-0.79004,0.89355-1.40137,0.70947l0.58398,2.229l-0.5293-0.20215l-0.54492-2.17236l-0.11133-0.04248
			l-0.65234,1.7207l-0.43555-0.16504l1.48926-3.9292L77.28906,333.26904z M76.40527,335.01514l0.27637,0.10498
			c0.54102,0.20508,0.96484,0.06836,1.13867-0.39063c0.08203-0.21777,0.09961-0.45996-0.09375-0.69531
			c-0.13867-0.16699-0.33398-0.25439-0.52344-0.32666l-0.26465-0.1001L76.40527,335.01514z"/>
		
			<path fill="#A3A3A3" stroke="#A3A3A3" stroke-width="0.25" stroke-linecap="round" stroke-linejoin="round" stroke-miterlimit="10" d="
			M80.5625,334.73682l0.70215,0.49121c0.3457,0.24268,0.81152,0.62158,0.98926,1.29199
			c0.13086,0.48438,0.09766,1.11523-0.33594,1.73389c-0.50586,0.72461-1.13281,0.86328-1.5293,0.90137
			c-0.50293,0.04736-0.92383-0.05371-1.53906-0.48389l-0.69727-0.48779L80.5625,334.73682z M78.78711,338.08936l0.33594,0.23486
			c0.27344,0.19092,0.67188,0.42383,1.2041,0.37988c0.41016-0.03613,0.85449-0.23291,1.19824-0.72314
			c0.57813-0.82715,0.375-1.77002-0.49805-2.37939l-0.33594-0.23535L78.78711,338.08936z"/>
	</g>
	<g>
		<circle fill="none" cx="199.5" cy="351.03378" r="14.578"/>
		
			<path fill="#A3A3A3" stroke="#A3A3A3" stroke-width="0.25" stroke-linecap="round" stroke-linejoin="round" stroke-miterlimit="10" d="
			M183.875,340.57861c0.16211-0.23242,0.41797-0.56836,0.77344-0.70313c0.27539-0.1084,0.66016-0.10059,1.02734,0.15527
			c0.52734,0.3667,0.67383,0.98291,0.3457,1.5293l2.30273-0.02344L188,342.00244L185.76172,342l-0.06836,0.09814l1.50781,1.05029
			l-0.26563,0.38232l-3.44531-2.39941L183.875,340.57861z M185.35254,341.86084l0.16895-0.24268
			c0.33008-0.4751,0.30078-0.91846-0.10156-1.19727c-0.19141-0.13428-0.42188-0.21045-0.69727-0.07959
			c-0.19531,0.09375-0.32813,0.26172-0.44336,0.42773l-0.16113,0.23242L185.35254,341.86084z"/>
		
			<path fill="#A3A3A3" stroke="#A3A3A3" stroke-width="0.25" stroke-linecap="round" stroke-linejoin="round" stroke-miterlimit="10" d="
			M187.18066,339.55371c-0.7998-0.96533-0.63477-2.29492,0.2959-3.06592c0.92969-0.77197,2.26758-0.68652,3.06641,0.27734
			c0.7959,0.95947,0.64063,2.29004-0.29492,3.06543S187.97656,340.51172,187.18066,339.55371z M187.54883,339.24707
			c0.61523,0.74219,1.69141,0.84766,2.41797,0.24463c0.72656-0.60254,0.82324-1.6792,0.20801-2.42139
			c-0.61426-0.74072-1.69043-0.84668-2.41699-0.24365S186.93457,338.50635,187.54883,339.24707z"/>
		
			<path fill="#A3A3A3" stroke="#A3A3A3" stroke-width="0.25" stroke-linecap="round" stroke-linejoin="round" stroke-miterlimit="10" d="
			M191.52539,336.1875c-0.44531-1.17188,0.13965-2.37939,1.26953-2.80859c1.13086-0.43018,2.37012,0.08301,2.81543,1.25439
			c0.44434,1.16602-0.13379,2.37598-1.27051,2.80762C193.2041,337.87354,191.96875,337.35254,191.52539,336.1875z
			 M191.97266,336.01709c0.34277,0.90088,1.32813,1.34814,2.21094,1.01123c0.88281-0.33594,1.32227-1.32422,0.97949-2.22461
			c-0.34277-0.90088-1.32813-1.34814-2.21094-1.01221C192.06836,334.12646,191.62988,335.1167,191.97266,336.01709z"/>
		
			<path fill="#A3A3A3" stroke="#A3A3A3" stroke-width="0.25" stroke-linecap="round" stroke-linejoin="round" stroke-miterlimit="10" d="
			M197.53516,332.76416l0.45117,3.73633l-0.46387,0.05566l-0.4502-3.7373l-1.01367,0.12207l-0.05371-0.43701l2.49121-0.30078
			l0.05273,0.43799L197.53516,332.76416z"/>
		
			<path fill="#A3A3A3" stroke="#A3A3A3" stroke-width="0.25" stroke-linecap="round" stroke-linejoin="round" stroke-miterlimit="10" d="
			M201.86133,336.49121l1.24609-4.19531l2.16211,4.22168l0.92578-3.12061l0.44629,0.13232l-1.24902,4.20654l-2.16211-4.2207
			l-0.92188,3.10791L201.86133,336.49121z"/>
		
			<path fill="#A3A3A3" stroke="#A3A3A3" stroke-width="0.25" stroke-linecap="round" stroke-linejoin="round" stroke-miterlimit="10" d="
			M207.2959,336.09961c0.72168-1.02637,2.05078-1.21582,3.04004-0.51904s1.25781,2.01123,0.53613,3.03711
			c-0.71777,1.02002-2.0459,1.21826-3.04004,0.51807S206.57715,337.11914,207.2959,336.09961z M207.6875,336.375
			c-0.55469,0.78857-0.375,1.85645,0.39844,2.40039c0.77344,0.54443,1.83984,0.35498,2.39453-0.43408
			c0.55469-0.7876,0.375-1.85645-0.39844-2.40039C209.30859,335.39746,208.24219,335.58594,207.6875,336.375z"/>
		
			<path fill="#A3A3A3" stroke="#A3A3A3" stroke-width="0.25" stroke-linecap="round" stroke-linejoin="round" stroke-miterlimit="10" d="
			M213.49512,339.14844l-2.84082,2.46777l-0.30664-0.35303l2.8418-2.46582l-0.66992-0.77148l0.33301-0.28857l1.64453,1.89355
			l-0.33301,0.28857L213.49512,339.14844z"/>
		
			<path fill="#A3A3A3" stroke="#A3A3A3" stroke-width="0.25" stroke-linecap="round" stroke-linejoin="round" stroke-miterlimit="10" d="
			M216.03223,342.96729l-0.84863-1.48828l-1.08398,0.61816l0.82422,1.44482l-0.38281,0.21826l-0.8252-1.44531l-1.41699,0.80859
			l0.84863,1.48975l-0.38281,0.21826l-1.08105-1.89404l3.65137-2.08252l1.08105,1.89404L216.03223,342.96729z"/>
	</g>
	<g>
		
			<ellipse transform="matrix(0.08248 -0.99659 0.99659 0.08248 7.76603 241.4274)" fill="none" cx="135" cy="116.49604" rx="25.58" ry="25.58002"/>
		<path fill="#A3A3A3" stroke="#A3A3A3" stroke-width="0.25" stroke-miterlimit="10" d="M116.66992,92.42772l3.11523,2.17041
			l-0.95703-3.67334l0.4707-0.32861l1.2793,5.1377l-4.37891-2.97852L116.66992,92.42772z"/>
		<path fill="#A3A3A3" stroke="#A3A3A3" stroke-width="0.25" stroke-miterlimit="10" d="M120.6748,89.8745l2.24902,4.09375
			l-0.4541,0.25l-2.24902-4.09521L120.6748,89.8745z"/>
		<path fill="#A3A3A3" stroke="#A3A3A3" stroke-width="0.25" stroke-miterlimit="10" d="M122.41797,89.01073l1.97852,4.22998
			l-0.46973,0.21924l-1.97852-4.22998L122.41797,89.01073z"/>
		<path fill="#A3A3A3" stroke="#A3A3A3" stroke-width="0.25" stroke-miterlimit="10" d="M125.37598,92.14013
			c0.17676-0.06982,0.38574,0.02051,0.45508,0.19629c0.06934,0.17627-0.02051,0.38525-0.19727,0.45508
			c-0.17676,0.06885-0.38477-0.02197-0.4541-0.19775S125.20117,92.20897,125.37598,92.14013z"/>
		<path fill="#A3A3A3" stroke="#A3A3A3" stroke-width="0.25" stroke-miterlimit="10" d="M131.05664,87.51563
			c-0.17188-0.11572-0.42676-0.24219-0.68164-0.30469c-0.26172-0.0625-0.55664-0.07324-0.82422-0.02002
			c-1.05664,0.21436-1.66602,1.22168-1.45313,2.27783c0.25,1.24121,1.38477,1.66064,2.2207,1.49268
			c0.30859-0.06299,0.5918-0.2124,0.80762-0.38428c0.2334-0.18262,0.38379-0.39111,0.4502-0.49121l0.12695,0.63135
			c-0.43359,0.46582-0.94531,0.65479-1.28711,0.72412c-1.3584,0.27441-2.57422-0.55127-2.8418-1.87451
			c-0.27441-1.36475,0.54199-2.58545,1.91309-2.86279c0.27441-0.05469,0.80957-0.12744,1.44238,0.18115L131.05664,87.51563z"/>
		<path fill="#A3A3A3" stroke="#A3A3A3" stroke-width="0.25" stroke-miterlimit="10" d="M132.97656,88.21777l2.39355-0.0752
			l-0.05957-1.896l0.51855-0.01611l0.14551,4.66699l-0.51855,0.01758l-0.07129-2.28174l-2.39258,0.07422l0.07031,2.28125
			l-0.51758,0.01611l-0.14551-4.66846l0.51855-0.01514L132.97656,88.21777z"/>
		<path fill="#A3A3A3" stroke="#A3A3A3" stroke-width="0.25" stroke-miterlimit="10" d="M137.08984,88.57958
			c0.2207-1.37744,1.45605-2.21289,2.7832-1.99902s2.23633,1.39551,2.01465,2.77197
			c-0.22168,1.36865-1.4502,2.21191-2.78418,1.99707S136.86914,89.94774,137.08984,88.57958z M137.61523,88.66259
			c-0.16992,1.05908,0.5293,2.03662,1.56641,2.2041s2.00977-0.54199,2.17969-1.59912c0.17188-1.05811-0.5293-2.03613-1.56641-2.2041
			C138.75781,86.89697,137.78516,87.60546,137.61523,88.66259z"/>
		<path fill="#A3A3A3" stroke="#A3A3A3" stroke-width="0.25" stroke-miterlimit="10" d="M144.43066,87.7705
			c0.29785,0.10254,0.73438,0.27344,0.98926,0.61328c0.19824,0.26025,0.30762,0.6748,0.14648,1.14551
			c-0.23145,0.67529-0.8457,1.02002-1.53027,0.83643l0.72754,2.45557l-0.59668-0.2041l-0.68066-2.39502l-0.12695-0.04297
			l-0.66211,1.93311l-0.49023-0.16748l1.51465-4.41748L144.43066,87.7705z M143.50977,89.74169l0.31152,0.10693
			c0.6084,0.20898,1.07324,0.04248,1.25098-0.47363c0.08398-0.24609,0.09473-0.51563-0.12891-0.77002
			c-0.16016-0.18066-0.38086-0.271-0.59277-0.34424l-0.29785-0.10254L143.50977,89.74169z"/>
		<path fill="#A3A3A3" stroke="#A3A3A3" stroke-width="0.25" stroke-miterlimit="10" d="M147.51563,88.92822l0.8457,0.43994
			c0.41602,0.21582,0.98438,0.56641,1.27734,1.27783c0.21484,0.51416,0.27051,1.21387-0.11719,1.95947
			c-0.45215,0.87012-1.12305,1.11328-1.55273,1.21387c-0.54883,0.12646-1.02637,0.07471-1.7666-0.30957l-0.83887-0.43506
			L147.51563,88.92822z M146.0498,92.87841l0.40332,0.20996c0.33008,0.1709,0.80273,0.36816,1.38086,0.24365
			c0.44629-0.10059,0.9082-0.38135,1.21484-0.97168c0.5166-0.99512,0.15625-2.00244-0.89453-2.54785l-0.4043-0.21094
			L146.0498,92.87841z"/>
		<path fill="#A3A3A3" stroke="#A3A3A3" stroke-width="0.25" stroke-miterlimit="10" d="M152.96973,93.32421
			c0.02441-0.13867,0.02051-0.31348-0.01465-0.44336c-0.03223-0.11084-0.11523-0.2832-0.33008-0.44043
			c-0.37305-0.27197-0.80273-0.22852-1.05859,0.12158c-0.10742,0.14746-0.12988,0.26123-0.09766,0.43164
			c0.03027,0.19678,0.12695,0.36133,0.22266,0.52686l0.24805,0.42285c0.15039,0.25732,0.2793,0.5083,0.32227,0.78223
			c0.05273,0.33203-0.0293,0.61133-0.22656,0.88281c-0.50781,0.69678-1.36133,0.78613-2.04102,0.29102
			c-0.24902-0.18066-0.52344-0.45996-0.59863-0.9043c-0.05566-0.31641,0.02148-0.65967,0.13574-0.92334l0.49023,0.18311
			c-0.11621,0.21924-0.14941,0.45508-0.12402,0.64648c0.04395,0.28418,0.19824,0.46533,0.3916,0.60547
			c0.51563,0.37451,1.02637,0.18408,1.30273-0.19434c0.12402-0.1709,0.18066-0.35498,0.13477-0.57813
			c-0.0332-0.18164-0.13086-0.35596-0.2627-0.59082l-0.22461-0.40576c-0.09766-0.17627-0.22754-0.39063-0.27734-0.67871
			c-0.04785-0.27832-0.0166-0.52393,0.18848-0.80762c0.42578-0.58252,1.15723-0.64746,1.76953-0.20264
			c0.23242,0.16846,0.38672,0.35059,0.48242,0.61182c0.07813,0.2124,0.09766,0.45947,0.0625,0.68701L152.96973,93.32421z"/>
	</g>
	<g>
		<circle fill="none" cx="83.5" cy="145.5" r="28.59473"/>
		<path fill="#A3A3A3" stroke="#A3A3A3" stroke-width="0.25" stroke-linejoin="round" stroke-miterlimit="10" d="
			M70.89063,168.14697l-2.64355,4.62891l-0.51367-0.29199l2.64355-4.63086L70.89063,168.14697z"/>
		<path fill="#A3A3A3" stroke="#A3A3A3" stroke-width="0.25" stroke-linejoin="round" stroke-miterlimit="10" d="M70.5625,174.0459
			l1.9043-5.22314l2.41406,5.51953l1.41602-3.88428l0.55664,0.20264l-1.91016,5.23828l-2.41406-5.521l-1.41016,3.87061
			L70.5625,174.0459z"/>
		<path fill="#A3A3A3" stroke="#A3A3A3" stroke-width="0.25" stroke-linejoin="round" stroke-miterlimit="10" d="
			M78.48242,170.96582l0.94238,4.2373l2.03809-3.83154l0.65039,0.08691l-2.90137,5.31396l-1.37988-5.89355L78.48242,170.96582z"/>
		<path fill="#A3A3A3" stroke="#A3A3A3" stroke-width="0.25" stroke-linejoin="round" stroke-miterlimit="10" d="
			M85.98828,171.88379l-2.17188,0.08496l0.0625,1.58154l2.1084-0.08252l0.02246,0.55811l-2.1084,0.0835l0.08203,2.06836
			l2.17188-0.08594l0.02148,0.55908l-2.7627,0.10889l-0.21094-5.32568l2.76367-0.10986L85.98828,171.88379z"/>
		<path fill="#A3A3A3" stroke="#A3A3A3" stroke-width="0.25" stroke-linejoin="round" stroke-miterlimit="10" d="
			M88.26953,170.95361c0.35156-0.07275,0.88281-0.15674,1.33008,0.0293c0.34766,0.14209,0.69531,0.48682,0.80859,1.04395
			c0.16406,0.7998-0.24023,1.49658-1.02148,1.71289l2.14063,1.99707l-0.70508,0.14404l-2.06055-1.96436l-0.14941,0.03125
			l0.46777,2.28955L88.5,176.35693l-1.07031-5.23242L88.26953,170.95361z M88.50586,173.4292l0.36914-0.07471
			c0.72168-0.14893,1.08203-0.58154,0.95703-1.19385c-0.05957-0.29004-0.20508-0.5625-0.57227-0.68311
			c-0.26367-0.08447-0.5332-0.0459-0.78418,0.00488l-0.35352,0.07178L88.50586,173.4292z"/>
		<path fill="#A3A3A3" stroke="#A3A3A3" stroke-width="0.25" stroke-linejoin="round" stroke-miterlimit="10" d="
			M94.25977,170.23486c-0.11914-0.10742-0.28906-0.2124-0.43652-0.25781c-0.12598-0.03711-0.34277-0.06445-0.62598,0.04688
			c-0.49121,0.19189-0.71484,0.63037-0.53418,1.09277c0.0752,0.19434,0.1709,0.28564,0.35449,0.35938
			c0.20703,0.09033,0.42578,0.10059,0.64453,0.10938l0.55859,0.02295c0.33984,0.0127,0.66016,0.04199,0.9502,0.16895
			c0.35254,0.15527,0.56934,0.4043,0.70996,0.7627c0.35742,0.9165-0.08203,1.79199-0.97559,2.1416
			c-0.32813,0.12939-0.76465,0.22119-1.23828,0.01953c-0.33887-0.14209-0.62207-0.42676-0.80566-0.69971l0.47852-0.35742
			c0.13965,0.24658,0.3457,0.42334,0.5459,0.5166c0.2998,0.13184,0.56934,0.09619,0.82324-0.00244
			c0.67773-0.26514,0.80859-0.87598,0.61426-1.37451c-0.08691-0.22314-0.22949-0.39209-0.47363-0.48535
			c-0.19336-0.0791-0.42188-0.0918-0.72949-0.10986l-0.52832-0.0332c-0.22852-0.01514-0.51563-0.02344-0.82324-0.15137
			c-0.29785-0.125-0.51465-0.30664-0.66113-0.6792c-0.29883-0.76855,0.08887-1.51172,0.89453-1.82617
			c0.30469-0.11865,0.57422-0.15527,0.88379-0.0874c0.25391,0.05518,0.50391,0.18896,0.7002,0.3623L94.25977,170.23486z"/>
		<path fill="#A3A3A3" stroke="#A3A3A3" stroke-width="0.25" stroke-linejoin="round" stroke-miterlimit="10" d="
			M98.28906,172.18896c0.18945-0.10449,0.43945-0.03369,0.54395,0.15479c0.10547,0.18896,0.0332,0.43994-0.15527,0.54443
			c-0.18848,0.10498-0.43945,0.03369-0.54395-0.15576C98.0293,172.54395,98.09961,172.29346,98.28906,172.18896z"/>
	</g>
	<g>
		<circle fill="none" cx="186.44551" cy="145.5" r="28.59473"/>
		<path fill="#A3A3A3" stroke="#A3A3A3" stroke-width="0.25" stroke-linejoin="round" stroke-miterlimit="10" d="
			M176.57031,169.66113l0.30078,4.22998l2.74219-3.67725l0.39648,4.5376l2.5625-3.44482l0.63281,0.17334l-3.64551,4.82422
			l-0.38184-4.53467l-2.75,3.6748l-0.49023-5.95654L176.57031,169.66113z"/>
		<path fill="#A3A3A3" stroke="#A3A3A3" stroke-width="0.25" stroke-linejoin="round" stroke-miterlimit="10" d="
			M186.5918,175.25342l-2.26953-0.07129l-0.6875,1.48389l-0.65527-0.02197l2.62988-5.51074l2.21387,5.66357l-0.65527-0.02002
			L186.5918,175.25342z M186.37793,174.68701l-0.82813-2.1626l-0.97852,2.10596L186.37793,174.68701z"/>
		<path fill="#A3A3A3" stroke="#A3A3A3" stroke-width="0.25" stroke-linejoin="round" stroke-miterlimit="10" d="
			M188.71094,171.34131l2.07422,3.81104l0.90039-4.24463l0.64844-0.09424l-1.32129,5.90576l-2.95215-5.28418L188.71094,171.34131z"
			/>
		<path fill="#A3A3A3" stroke="#A3A3A3" stroke-width="0.25" stroke-linejoin="round" stroke-miterlimit="10" d="
			M196.16602,170.15674l-2.06641,0.67871l0.49414,1.50488l2.00586-0.65967l0.1748,0.53174l-2.00488,0.65918l0.64648,1.9668
			l2.06641-0.67871l0.17383,0.53174l-2.62793,0.86377l-1.66504-5.06641l2.62793-0.86377L196.16602,170.15674z"/>
	</g>
	<g>
		<circle fill="none" cx="135" cy="198.5" r="28.59473"/>
		
			<path fill="#A3A3A3" stroke="#A3A3A3" stroke-width="0.25" stroke-linecap="round" stroke-linejoin="round" stroke-miterlimit="10" d="
			M126.86621,224.42627c-0.09277-0.21826-0.25488-0.5-0.45996-0.7207c-0.21094-0.22363-0.48535-0.42139-0.77539-0.5376
			c-1.14258-0.46143-2.36133,0.11719-2.82227,1.26025c-0.54297,1.34277,0.27539,2.45898,1.18164,2.8252
			c0.33398,0.13428,0.69922,0.16992,1.01367,0.14063c0.33887-0.02686,0.61328-0.13086,0.73926-0.18457l-0.27637,0.68262
			c-0.70801,0.17188-1.31445,0.03027-1.68555-0.11865c-1.4707-0.59424-2.11133-2.14746-1.5332-3.58008
			c0.5957-1.47852,2.14453-2.12988,3.62988-1.53027c0.29688,0.12012,0.85254,0.38721,1.26465,1.08057L126.86621,224.42627z"/>
		
			<path fill="#A3A3A3" stroke="#A3A3A3" stroke-width="0.25" stroke-linecap="round" stroke-linejoin="round" stroke-miterlimit="10" d="
			M128.21875,225.78662l2.68359,0.52881l0.41797-2.12549l0.58203,0.11426l-1.03223,5.23291l-0.58105-0.11475l0.50391-2.55713
			l-2.68164-0.5293l-0.50391,2.55811l-0.58203-0.11523l1.03223-5.23242l0.58008,0.11426L128.21875,225.78662z"/>
		
			<path fill="#A3A3A3" stroke="#A3A3A3" stroke-width="0.25" stroke-linecap="round" stroke-linejoin="round" stroke-miterlimit="10" d="
			M132.68359,227.11963c-0.0293-1.59033,1.18848-2.77881,2.72266-2.80713c1.53516-0.02783,2.79492,1.11523,2.82324,2.70557
			c0.03027,1.58252-1.17871,2.77881-2.72168,2.80811C133.96582,229.85498,132.71289,228.70166,132.68359,227.11963z
			 M133.29102,227.10889c0.02344,1.22314,1.00781,2.1792,2.20703,2.1582c1.19824-0.02246,2.14648-1.01563,2.125-2.23828
			c-0.02344-1.22217-1.00781-2.1792-2.20605-2.15723C134.21777,224.89404,133.26953,225.88623,133.29102,227.10889z"/>
		
			<path fill="#A3A3A3" stroke="#A3A3A3" stroke-width="0.25" stroke-linecap="round" stroke-linejoin="round" stroke-miterlimit="10" d="
			M139.80859,223.9458c0.35156-0.07373,0.88281-0.15869,1.33008,0.02686c0.34766,0.14063,0.69629,0.48535,0.8125,1.04346
			c0.16406,0.79834-0.23926,1.49609-1.01953,1.71436l2.14453,1.99365l-0.70605,0.14453l-2.06445-1.95947l-0.14941,0.02979
			l0.47363,2.29053l-0.58008,0.11914l-1.08105-5.22998L139.80859,223.9458z M140.0498,226.42188l0.36816-0.07666
			c0.72266-0.14893,1.08203-0.5835,0.95605-1.19434c-0.06055-0.29102-0.20703-0.5625-0.5752-0.68311
			c-0.26172-0.08398-0.5332-0.04492-0.7832,0.00684l-0.35352,0.07275L140.0498,226.42188z"/>
		
			<path fill="#A3A3A3" stroke="#A3A3A3" stroke-width="0.25" stroke-linecap="round" stroke-linejoin="round" stroke-miterlimit="10" d="
			M142.66992,223.30518l1.01465-0.39355c0.49902-0.19385,1.22754-0.41699,2.05957-0.12988
			c0.60254,0.20264,1.24414,0.68359,1.59082,1.57861c0.40527,1.04248,0.1084,1.80176-0.13086,2.24707
			c-0.30371,0.56348-0.70898,0.93506-1.59668,1.28076l-1.00586,0.39063L142.66992,223.30518z M144.95117,227.54199l0.48438-0.18799
			c0.39453-0.15332,0.92188-0.41016,1.25-1.00049c0.25-0.4585,0.3584-1.06543,0.08301-1.77441
			c-0.46387-1.19189-1.59961-1.64404-2.85938-1.15381l-0.48438,0.18799L144.95117,227.54199z"/>
	</g>
	<g>
		<circle fill="none" cx="135" cy="283.5" r="28.59473"/>
		
			<path fill="#A3A3A3" stroke="#A3A3A3" stroke-width="0.25" stroke-linecap="round" stroke-linejoin="round" stroke-miterlimit="10" d="
			M117.6709,309.67383l3.43262-4.54932l-0.3125,4.93604l3.96484-2.99658l-1.91992,5.36523l-0.53711-0.28564l1.30273-3.51123
			l-3.45313,2.61572l0.27148-4.31299l-2.21289,3.0249L117.6709,309.67383z"/>
		
			<path fill="#A3A3A3" stroke="#A3A3A3" stroke-width="0.25" stroke-linecap="round" stroke-linejoin="round" stroke-miterlimit="10" d="
			M127.42578,308.27979l-1.61328,5.0874l-0.56445-0.17871l1.61328-5.0874L127.42578,308.27979z"/>
		
			<path fill="#A3A3A3" stroke="#A3A3A3" stroke-width="0.25" stroke-linecap="round" stroke-linejoin="round" stroke-miterlimit="10" d="
			M129.7207,311.49268l-0.96484-2.78711l0.66309,0.11621l0.74023,2.17041l1.46777-1.78223l0.66211,0.11719l-1.88965,2.28467
			l1.04395,2.98877l-0.66309-0.11621l-0.82617-2.37305l-1.60254,1.9458l-0.66211-0.11719L129.7207,311.49268z"/>
		
			<path fill="#A3A3A3" stroke="#A3A3A3" stroke-width="0.25" stroke-linecap="round" stroke-linejoin="round" stroke-miterlimit="10" d="
			M135.90332,312.21533c-0.2207-1.57666,0.8457-2.9043,2.36621-3.11719c1.51953-0.21289,2.91016,0.77246,3.12988,2.34814
			c0.21973,1.56787-0.83691,2.90234-2.36621,3.11621C137.50391,314.77686,136.12305,313.7832,135.90332,312.21533z
			 M136.50488,312.13086c0.16895,1.21143,1.2627,2.04297,2.4502,1.87695c1.18848-0.16602,2.01172-1.26611,1.84277-2.47705
			c-0.16895-1.21143-1.2627-2.04395-2.45117-1.87793C137.1582,309.81787,136.33594,310.91846,136.50488,312.13086z"/>
		
			<path fill="#A3A3A3" stroke="#A3A3A3" stroke-width="0.25" stroke-linecap="round" stroke-linejoin="round" stroke-miterlimit="10" d="
			M144.00879,311.27246c0.15723,0.41992,0.3291,0.87695,0.85254,1.06543c0.26563,0.09619,0.65332,0.07959,0.93164-0.02344
			c0.27734-0.10449,0.58008-0.3457,0.7168-0.59326c0.27148-0.4873,0.09961-0.94434-0.05664-1.36377l-1.14844-3.06592
			l0.55469-0.20801l1.2041,3.21582c0.15723,0.41895,0.26465,0.84082,0.13477,1.31787
			c-0.14551,0.52393-0.57129,0.98389-1.20996,1.22217c-0.63672,0.2373-1.25977,0.17285-1.71387-0.12842
			c-0.41113-0.27295-0.60645-0.66113-0.76465-1.08105l-1.2041-3.21582l0.55566-0.2085L144.00879,311.27246z"/>
		
			<path fill="#A3A3A3" stroke="#A3A3A3" stroke-width="0.25" stroke-linecap="round" stroke-linejoin="round" stroke-miterlimit="10" d="
			M148.77148,306.08643l2.44727,4.10596l-0.50781,0.30322l-2.44922-4.10645l-1.11328,0.66455l-0.28711-0.48096l2.73633-1.63135
			l0.28809,0.48096L148.77148,306.08643z"/>
	</g>
	<g>
		<circle fill="none" cx="135" cy="283.44943" r="28.59473"/>
		<path fill="#A3A3A3" d="M140.99219,253.39648c0.26465,0.05566,0.6543,0.15723,0.90625,0.41992
			c0.19531,0.20166,0.33203,0.54395,0.24414,0.96094c-0.12891,0.59961-0.61523,0.95654-1.21875,0.87109l0.87402,2.0166
			l-0.5293-0.1123l-0.82813-1.97021l-0.11035-0.02344l-0.36621,1.71631l-0.43457-0.09375l0.83398-3.91895L140.99219,253.39648z
			 M140.41211,255.1709l0.27637,0.05859c0.54004,0.11523,0.91895-0.07422,1.0166-0.5332
			c0.04492-0.2168,0.02734-0.44824-0.18945-0.6416c-0.15527-0.1377-0.35254-0.19238-0.54102-0.23193l-0.26367-0.05664
			L140.41211,255.1709z"/>
		<path fill="#A3A3A3" d="M143.25586,255.95947c0.42578-1.11475,1.60742-1.59961,2.68262-1.18799
			c1.0752,0.41211,1.63086,1.56152,1.2041,2.67627c-0.4248,1.10889-1.60352,1.60205-2.68359,1.18799
			S142.83105,257.06836,143.25586,255.95947z M143.68164,256.12207c-0.32813,0.85742,0.08789,1.7998,0.92773,2.12207
			c0.83984,0.32129,1.7793-0.10254,2.10742-0.95996c0.32813-0.85645-0.08789-1.79883-0.92773-2.12109
			C144.94922,254.8418,144.00879,255.26563,143.68164,256.12207z"/>
		<path fill="#A3A3A3" d="M148.22754,257.98682c0.62598-1.01514,1.87793-1.27197,2.85742-0.66699
			c0.98047,0.60498,1.31055,1.83838,0.68359,2.854c-0.62305,1.01025-1.87207,1.27539-2.85742,0.66699
			C147.92578,260.23291,147.60352,258.99707,148.22754,257.98682z M148.61523,258.22656
			c-0.48145,0.78076-0.24805,1.78467,0.5166,2.25684c0.76563,0.47314,1.76758,0.23145,2.24902-0.54883
			c0.48242-0.78125,0.25-1.78516-0.51563-2.25781S149.09766,257.4458,148.61523,258.22656z"/>
		<path fill="#A3A3A3" d="M154.47559,260.37256l-2.29102,2.75049l-0.34082-0.28418l2.29102-2.75098l-0.74609-0.62109
			l0.26855-0.32324l1.83301,1.52832l-0.26758,0.32227L154.47559,260.37256z"/>
		<path fill="#A3A3A3" d="M154.90234,265.6875l3.29102-2.55664l-0.66797,4.46729l2.44727-1.90186l0.27344,0.35059l-3.30078,2.56348
			l0.66797-4.4668l-2.43848,1.89453L154.90234,265.6875z"/>
		<path fill="#A3A3A3" d="M159.45898,268.47119c1.06152-0.54541,2.26367-0.11963,2.79102,0.9043
			c0.52539,1.02295,0.17188,2.25049-0.88867,2.79541c-1.05469,0.54297-2.26074,0.12402-2.79102-0.9043
			C158.04199,270.23779,158.4043,269.01367,159.45898,268.47119z M159.66797,268.87598
			c-0.81641,0.41992-1.13477,1.39893-0.72266,2.19922c0.41016,0.79883,1.39258,1.10938,2.20703,0.69043
			c0.81641-0.41943,1.13477-1.39844,0.72461-2.19824C161.46484,268.76758,160.4834,268.45654,159.66797,268.87598z"/>
		<path fill="#A3A3A3" d="M163.57031,273.72949l-3.38672,1.1748l-0.14453-0.41992l3.38477-1.17383l-0.31738-0.91943l0.39746-0.13721
			l0.7832,2.25781l-0.39844,0.13672L163.57031,273.72949z"/>
		<path fill="#A3A3A3" d="M164.69824,278.01563l-0.35449-1.5918l-1.1582,0.25781l0.34375,1.54492l-0.41016,0.0918l-0.34375-1.54492
			l-1.51563,0.3374l0.35547,1.5918l-0.41016,0.09131l-0.45117-2.02441l3.90332-0.87061l0.45117,2.02539L164.69824,278.01563z"/>
	</g>
	<g>
		<circle fill="none" cx="135" cy="283.5" r="28.59473"/>
		<path fill="#A3A3A3" d="M113.01367,263.45801c-0.17773,0.01807-0.41602,0.07227-0.61719,0.1709
			c-0.20703,0.10254-0.4082,0.25488-0.55664,0.4375c-0.58203,0.71631-0.43555,1.71582,0.28125,2.29785
			c0.84375,0.68359,1.82227,0.34326,2.28516-0.22461c0.16797-0.20996,0.27344-0.46387,0.32227-0.69531
			c0.05664-0.24805,0.04102-0.46826,0.03125-0.57031l0.42773,0.34863c-0.0332,0.54443-0.26758,0.94824-0.45703,1.18164
			c-0.74805,0.92188-2,1.04004-2.90039,0.31055c-0.92773-0.75244-1.05273-2.00537-0.29688-2.93652
			c0.15039-0.18652,0.46484-0.52637,1.05078-0.66797L113.01367,263.45801z"/>
		<path fill="#A3A3A3" d="M114.96875,262.55469l1.53516-1.36768l-1.08398-1.21533l0.33203-0.2959l2.66602,2.99121l-0.33203,0.2959
			l-1.30273-1.46191l-1.53516,1.36719l1.30469,1.46191l-0.33203,0.2959l-2.66602-2.99121l0.33008-0.2959L114.96875,262.55469z"/>
		<path fill="#A3A3A3" d="M118.1875,260.28613c-0.62891-1.01465-0.30078-2.24902,0.67969-2.85645
			c0.97852-0.60693,2.23047-0.35254,2.85938,0.66211c0.62695,1.01025,0.30664,2.24707-0.67773,2.85645
			C120.06445,261.55859,118.81445,261.2959,118.1875,260.28613z M118.57617,260.0459
			c0.48438,0.78027,1.48633,1.02002,2.25195,0.5459c0.76367-0.47461,0.99609-1.479,0.51172-2.25928
			c-0.48438-0.78076-1.48633-1.02002-2.25195-0.54541C118.32422,258.26074,118.0918,259.26563,118.57617,260.0459z"/>
		<path fill="#A3A3A3" d="M122.86133,255.42188c0.25-0.10449,0.62695-0.24268,0.98242-0.1709
			c0.27734,0.05371,0.58398,0.25781,0.74805,0.65137c0.23633,0.56396,0.03906,1.13428-0.50391,1.4082l1.86328,1.15869
			l-0.49805,0.20752l-1.80078-1.14648l-0.10547,0.04395l0.67578,1.61719l-0.4082,0.1709l-1.54492-3.69287L122.86133,255.42188z
			 M123.39453,257.20898l0.25977-0.1084c0.50977-0.21387,0.71289-0.58496,0.53125-1.0166
			c-0.08594-0.20459-0.23242-0.38428-0.51953-0.41895c-0.20703-0.02539-0.39844,0.04199-0.57617,0.11621l-0.24805,0.10449
			L123.39453,257.20898z"/>
		<path fill="#A3A3A3" d="M125.88477,254.27246l0.78711-0.20801c0.38867-0.10254,0.94922-0.20703,1.54491,0.07666
			c0.43164,0.20215,0.86914,0.61426,1.05273,1.31006c0.21289,0.81152-0.07227,1.35205-0.28711,1.66309
			c-0.27539,0.39453-0.60742,0.63672-1.29688,0.81934l-0.7832,0.20508L125.88477,254.27246z M127.22461,257.62012l0.37695-0.09961
			c0.30664-0.08105,0.7207-0.22656,1.01563-0.63916c0.22461-0.31982,0.35742-0.76318,0.21094-1.31396
			c-0.24414-0.92773-1.05273-1.35938-2.0332-1.10156l-0.375,0.09961L127.22461,257.62012z"/>
	</g>
	<g>
		<circle fill="none" cx="186.32915" cy="145.59267" r="28.59473"/>
		<path fill="#A3A3A3" d="M192.96973,115.63477l0.1416,3.17676l2.12793-2.70313l0.20801,3.41016l1.98828-2.53125l0.4707,0.14258
			l-2.82813,3.54297l-0.19629-3.40625l-2.13379,2.70117l-0.25-4.47559L192.96973,115.63477z"/>
		<path fill="#A3A3A3" d="M199.65723,121.25977l-1.51855-0.76953l-0.93848,0.78809l-0.43848-0.22168l3.53809-2.90625
			l-0.2959,4.54883l-0.43945-0.22266L199.65723,121.25977z M199.69238,120.80761l0.125-1.73242l-1.33398,1.11914
			L199.69238,120.80761z"/>
		<path fill="#A3A3A3" d="M202.76758,119.74804l-0.7959,3.15527l2.65527-1.88086l0.40527,0.27832l-3.73145,2.58203l1.06055-4.41211
			L202.76758,119.74804z"/>
		<path fill="#A3A3A3" d="M207.39648,123.91991l-1.21484-1.08984l-0.79492,0.88477l1.17969,1.05762l-0.2793,0.3125l-1.17969-1.05762
			l-1.03809,1.15723l1.21582,1.08984l-0.28125,0.31348l-1.5459-1.38672l2.67285-2.97949l1.5459,1.38574L207.39648,123.91991z"/>
		<path fill="#A3A3A3" d="M210.4873,127.44335l-2.84766,2.17774l-0.27051-0.35352l2.84766-2.17677l-0.58984-0.77344l0.33398-0.25488
			l1.45117,1.89844l-0.33398,0.25489L210.4873,127.44335z"/>
		<path fill="#A3A3A3" d="M210.72266,132.30371l-0.8623-1.46777l-1.21484,0.15625l-0.24902-0.42383l4.54688-0.53613
			l-2.70508,3.66895l-0.25-0.42383L210.72266,132.30371z M210.99805,131.94043l1.03906-1.38965l-1.72656,0.22168
			L210.99805,131.94043z"/>
		<path fill="#A3A3A3" d="M214.55469,133.66211c0.08398,0.20605,0.2207,0.58496,0.11426,0.94629
			c-0.04102,0.15332-0.18066,0.46191-0.63184,0.64648c-0.18262,0.07422-0.52148,0.16699-0.87695-0.06934
			c0.08203,0.56836-0.29102,0.94141-0.64648,1.08594c-0.35547,0.14551-0.7168,0.08594-0.95508-0.05078
			c-0.35352-0.2002-0.50195-0.53418-0.60742-0.79004l-0.37598-0.92285l3.70801-1.51172L214.55469,133.66211z M211.13281,134.76074
			l0.19238,0.47266c0.09668,0.23926,0.20996,0.46582,0.4209,0.58691c0.16406,0.10156,0.38867,0.12695,0.61133,0.03613
			c0.29492-0.12109,0.39648-0.36328,0.41504-0.53906c0.02148-0.1709-0.02441-0.37891-0.14453-0.67383l-0.17285-0.42285
			L211.13281,134.76074z M212.82227,134.07129l0.12695,0.31152c0.08789,0.2168,0.3418,0.70996,0.91406,0.47559
			c0.61133-0.24902,0.37793-0.85352,0.33008-0.9707l-0.13184-0.32227L212.82227,134.07129z"/>
		<path fill="#A3A3A3" d="M215.79102,137.17676l-3.44727,0.97266l0.29883,1.0625l-0.40234,0.11426l-0.42188-1.49023l3.85254-1.08691
			L215.79102,137.17676z"/>
		<path fill="#A3A3A3" d="M216.33008,141.74121l-0.27344-1.60742l-1.16992,0.19824l0.26465,1.56055l-0.41406,0.07031
			l-0.26465-1.56055l-1.53125,0.25879l0.27344,1.6084l-0.41406,0.07031l-0.34668-2.0459l3.94238-0.66895l0.34766,2.0459
			L216.33008,141.74121z"/>
	</g>
	<g>
		<circle fill="none" cx="186.32915" cy="145.64322" r="28.59473"/>
		<path fill="#A3A3A3" d="M161.51563,162.23242c-0.05762,0.10645-0.10352,0.25-0.11133,0.36426
			c-0.00391,0.09863,0.01563,0.26074,0.14648,0.44824c0.22852,0.32227,0.58789,0.40723,0.89258,0.19336
			c0.12695-0.09082,0.17676-0.17676,0.19727-0.32422c0.03027-0.16699-0.00195-0.32715-0.03516-0.48828l-0.08301-0.41016
			c-0.05176-0.25-0.08789-0.48926-0.04785-0.72266c0.04883-0.28516,0.19238-0.48828,0.42773-0.6543
			c0.60352-0.4248,1.32031-0.26172,1.73438,0.32617c0.15234,0.21582,0.29883,0.51758,0.23633,0.89844
			c-0.04297,0.27246-0.19922,0.5293-0.36426,0.71094l-0.34766-0.2832c0.15527-0.14551,0.24707-0.32715,0.2793-0.49023
			c0.04199-0.24219-0.03223-0.43164-0.14941-0.59863c-0.31543-0.44629-0.78223-0.43262-1.11133-0.2002
			c-0.14648,0.10254-0.24316,0.2373-0.26855,0.43066c-0.02246,0.15527,0.00879,0.32422,0.05176,0.55176l0.06934,0.39063
			c0.03027,0.16895,0.07715,0.37891,0.03809,0.62695c-0.03711,0.23828-0.13086,0.42969-0.37598,0.60156
			c-0.50586,0.35645-1.11621,0.20703-1.49023-0.32227c-0.1416-0.20117-0.2168-0.39063-0.22168-0.62891
			c-0.00586-0.19434,0.04785-0.40039,0.1377-0.57422L161.51563,162.23242z"/>
		<path fill="#A3A3A3" d="M159.76953,160.03809l3.13477-1.72559l0.21387,0.38867l-3.13477,1.72461l0.46777,0.85059l-0.36719,0.20313
			l-1.15039-2.08984l0.36719-0.20215L159.76953,160.03809z"/>
		<path fill="#A3A3A3" d="M158.07813,157.48828c-0.10156-0.25-0.23438-0.63086-0.1582-0.98438
			c0.05664-0.27637,0.26367-0.58008,0.65918-0.74023c0.56738-0.22852,1.13574-0.02539,1.40137,0.52148l1.18164-1.85059
			l0.20313,0.50098l-1.16895,1.78711l0.04395,0.10547l1.625-0.65723l0.16602,0.41211l-3.71289,1.50098L158.07813,157.48828z
			 M159.87207,156.97656l-0.10547-0.26172c-0.20703-0.5127-0.5752-0.71973-1.00977-0.54395
			c-0.20605,0.08301-0.3877,0.22754-0.42676,0.51563c-0.02734,0.20508,0.03809,0.39941,0.11133,0.57715l0.10059,0.25
			L159.87207,156.97656z"/>
		<path fill="#A3A3A3" d="M156.88477,154.06445l3.84277-1.12207l0.125,0.42676l-3.84277,1.12109L156.88477,154.06445z"/>
		<path fill="#A3A3A3" d="M160.33398,151.63672l-4.11133,0.65332l2.73535-3.58984l-3.05859,0.4873l-0.06934-0.4375l4.12305-0.65625
			l-2.73438,3.58887l3.04688-0.48438L160.33398,151.63672z"/>
		<path fill="#A3A3A3" d="M157.72559,144.70898l0.03906-1.66797l0.09473,0.00195c0.44531,0.00977,0.92285,0.15234,1.25781,0.41309
			c0.16016,0.12305,0.70898,0.58594,0.68652,1.50488c-0.02637,1.18848-0.95313,2.05664-2.11816,2.0293
			c-1.16406-0.02637-2.05078-0.94141-2.02246-2.13672c0.00879-0.38379,0.11523-0.83203,0.42383-1.21484
			c0.1416-0.17676,0.3252-0.34082,0.48438-0.45117l0.29297,0.33691c-0.16504,0.11035-0.3125,0.23926-0.42285,0.36816
			c-0.16016,0.18945-0.34766,0.48535-0.3584,0.96484c-0.02246,0.96777,0.68848,1.65625,1.61914,1.67773
			c1.09277,0.02441,1.66504-0.83301,1.68164-1.58984c0.0127-0.53418-0.24707-1.00195-0.64355-1.24023
			c-0.125-0.07422-0.31445-0.15723-0.56738-0.1748l-0.02637,1.18848L157.72559,144.70898z"/>
		<path fill="#A3A3A3" d="M160.16211,140.36328l-3.86523-1.81738l3.66797-0.53027l-2.80762-2.44531l4.23145,0.58203l-0.12793,0.4375
			l-2.77539-0.41406l2.4502,2.12891l-3.20508,0.46484l2.55859,1.15625L160.16211,140.36328z"/>
		<path fill="#A3A3A3" d="M161.85352,132.59766l-0.75781,1.52734l0.79688,0.93066l-0.21777,0.44043l-2.93848-3.51172
			l4.55273,0.25488l-0.21875,0.44043L161.85352,132.59766z M161.39941,132.56738l-1.7334-0.10938l1.13086,1.32422
			L161.39941,132.56738z"/>
		<path fill="#A3A3A3" d="M162.90039,127.31152c-0.1748,0.03027-0.4082,0.10156-0.60449,0.21387
			c-0.2002,0.11719-0.38965,0.2832-0.52441,0.47461c-0.53125,0.75782-0.31543,1.7461,0.44141,2.27735
			c0.88965,0.62402,1.84473,0.21582,2.26465-0.38379c0.15625-0.2207,0.24316-0.48242,0.27637-0.7168
			c0.03809-0.25195,0.00781-0.4707-0.00977-0.57129l0.45215,0.31738c0.00586,0.5459-0.20117,0.96582-0.37402,1.21191
			c-0.68262,0.97363-1.92773,1.17871-2.87598,0.5127c-0.97852-0.68652-1.19141-1.92969-0.50098-2.9131
			c0.1377-0.19629,0.42773-0.55762,1.00391-0.74023L162.90039,127.31152z"/>
		<path fill="#A3A3A3" d="M164.76563,126.27538l1.44238-1.45801l-1.15527-1.14355l0.3125-0.31543l2.84277,2.81445l-0.3125,0.31543
			l-1.38965-1.37598l-1.44238,1.45801l1.38965,1.375l-0.3125,0.31642l-2.84277-2.81446l0.31152-0.31543L164.76563,126.27538z"/>
		<path fill="#A3A3A3" d="M167.08887,121.88378l2.53809,3.08691l-0.3418,0.28125l-2.53906-3.08594L167.08887,121.88378z"/>
		<path fill="#A3A3A3" d="M170.69238,124.08104l-2.20996-3.53223l4.37695,1.11621l-1.64453-2.62695l0.37695-0.23535l2.21484,3.54297
			l-4.375-1.11719l1.63672,2.61719L170.69238,124.08104z"/>
		<path fill="#A3A3A3" d="M175.41211,117.51952l-1.5,0.64355l0.46875,1.09082l1.45508-0.62402l0.16602,0.38477l-1.4541,0.625
			l0.6123,1.42773l1.49902-0.64453l0.16602,0.38574l-1.90723,0.81934l-1.57813-3.6748l1.90625-0.81934L175.41211,117.51952z"/>
		<path fill="#A3A3A3" d="M178.75,116.84277c-0.08301-0.08887-0.20313-0.17871-0.30859-0.22363
			c-0.0918-0.03516-0.25098-0.07129-0.4707-0.00781c-0.37988,0.10938-0.57617,0.42188-0.47363,0.7793
			c0.04297,0.14941,0.1084,0.22461,0.24023,0.29297c0.14844,0.08203,0.31055,0.10352,0.47266,0.125l0.41602,0.05566
			c0.25293,0.03418,0.48926,0.07715,0.69727,0.19238c0.25293,0.13867,0.39844,0.34082,0.47754,0.61719
			c0.2041,0.70801-0.18359,1.33203-0.875,1.53125c-0.25391,0.07227-0.58594,0.11328-0.92578-0.07031
			c-0.24316-0.12891-0.43457-0.36133-0.55273-0.57617l0.38184-0.23535c0.08691,0.19238,0.22949,0.33887,0.37207,0.42285
			c0.21484,0.11914,0.41895,0.11035,0.61328,0.05371c0.52539-0.15137,0.66406-0.59668,0.55371-0.98242
			c-0.0498-0.17383-0.14453-0.30859-0.31934-0.39453c-0.13965-0.07324-0.30957-0.09863-0.53711-0.13281l-0.39258-0.06152
			c-0.16992-0.02539-0.38281-0.05273-0.60449-0.16992c-0.21387-0.11328-0.3623-0.2627-0.44629-0.55078
			c-0.16992-0.59375,0.16992-1.12207,0.79297-1.30176c0.23535-0.06738,0.43945-0.07617,0.66602-0.00488
			c0.18555,0.05859,0.3623,0.17676,0.49609,0.31836L178.75,116.84277z"/>
	</g>
	<g>
		<circle fill="none" cx="183.01788" cy="44.24549" r="14.57799"/>
		
			<path fill="#A3A3A3" stroke="#A3A3A3" stroke-width="0.25" stroke-linecap="round" stroke-linejoin="round" stroke-miterlimit="10" d="
			M166.24805,35.74022l3.34863,1.72266l0.53027-1.03223l0.39258,0.20215l-0.74414,1.44727l-3.74121-1.92383L166.24805,35.74022z"/>
		
			<path fill="#A3A3A3" stroke="#A3A3A3" stroke-width="0.25" stroke-linecap="round" stroke-linejoin="round" stroke-miterlimit="10" d="
			M169.2168,32.07812l-1.04492,1.35742l0.98828,0.76074l1.01367-1.31641l0.34863,0.26953l-1.01465,1.31641l1.29199,0.99512
			l1.0459-1.35645l0.34961,0.26855l-1.33008,1.72559l-3.32715-2.5625l1.3291-1.72656L169.2168,32.07812z"/>
		
			<path fill="#A3A3A3" stroke="#A3A3A3" stroke-width="0.25" stroke-linecap="round" stroke-linejoin="round" stroke-miterlimit="10" d="
			M170.10156,30.52245l2.96387,1.70703l-1.1416-3.22363l0.39648-0.33105l1.54297,4.51465l-4.1582-2.33691L170.10156,30.52245z"/>
		
			<path fill="#A3A3A3" stroke="#A3A3A3" stroke-width="0.25" stroke-linecap="round" stroke-linejoin="round" stroke-miterlimit="10" d="
			M175.77051,27.31737l-1.52832,0.77832l0.56641,1.1123l1.4834-0.75488l0.2002,0.39258l-1.4834,0.75586l0.74023,1.45508
			l1.52832-0.77832l0.20117,0.39453l-1.94531,0.98926l-1.90625-3.74805l1.94336-0.98926L175.77051,27.31737z"/>
		
			<path fill="#A3A3A3" stroke="#A3A3A3" stroke-width="0.25" stroke-linecap="round" stroke-linejoin="round" stroke-miterlimit="10" d="
			M177.54785,26.24706l1.07031,3.60156l1.11035-0.33008l0.125,0.42285l-1.55664,0.46191l-1.19531-4.02441L177.54785,26.24706z"/>
		
			<path fill="#A3A3A3" stroke="#A3A3A3" stroke-width="0.25" stroke-linecap="round" stroke-linejoin="round" stroke-miterlimit="10" d="
			M182.82813,27.35644l1.97949,0.0918l-0.03027,0.66504l-1.97949-0.0918L182.82813,27.35644z"/>
		
			<path fill="#A3A3A3" stroke="#A3A3A3" stroke-width="0.25" stroke-linecap="round" stroke-linejoin="round" stroke-miterlimit="10" d="
			M190.83496,29.46483l1.5625,0.79395l-0.0459,0.08984c-0.21094,0.41602-0.5625,0.80273-0.96094,1.00391
			c-0.19043,0.09473-0.87695,0.4043-1.7373-0.0332c-1.11328-0.56543-1.51465-1.83594-0.96094-2.92676
			s1.82324-1.51465,2.94043-0.94629c0.36035,0.18262,0.73633,0.48633,0.95898,0.95313
			c0.10352,0.21387,0.17578,0.46289,0.20801,0.66406l-0.45215,0.12402c-0.03027-0.20703-0.08398-0.4043-0.15723-0.56738
			c-0.10547-0.23828-0.30176-0.5498-0.75098-0.77734c-0.9043-0.45996-1.88086-0.09961-2.32227,0.77148
			c-0.51953,1.02441,0.0332,1.95508,0.74219,2.31445c0.5,0.25391,1.06055,0.2207,1.46582-0.04688
			c0.12793-0.08398,0.29199-0.22852,0.42285-0.45801l-1.11328-0.56445L190.83496,29.46483z"/>
		
			<path fill="#A3A3A3" stroke="#A3A3A3" stroke-width="0.25" stroke-linecap="round" stroke-linejoin="round" stroke-miterlimit="10" d="
			M194.4873,33.3662l-1.30176-1.22754l-1.17969,0.51758l-0.375-0.35449l4.42773-1.87891l-1.65039,4.49707l-0.37598-0.35449
			L194.4873,33.3662z M194.65625,32.92089l0.64063-1.70898l-1.67676,0.73145L194.65625,32.92089z"/>
		
			<path fill="#A3A3A3" stroke="#A3A3A3" stroke-width="0.25" stroke-linecap="round" stroke-linejoin="round" stroke-miterlimit="10" d="
			M198.21289,33.93944l-3.08789,2.14941l-0.26758-0.38281l3.08887-2.15039l-0.58301-0.83691l0.36133-0.25293l1.43359,2.05859
			l-0.3623,0.25195L198.21289,33.93944z"/>
		
			<path fill="#A3A3A3" stroke="#A3A3A3" stroke-width="0.25" stroke-linecap="round" stroke-linejoin="round" stroke-miterlimit="10" d="
			M200.29883,37.96581l-0.68555-1.57031l-1.14258,0.5l0.66602,1.52246l-0.4043,0.17676l-0.66504-1.52344l-1.49512,0.65234
			l0.68555,1.57031l-0.4043,0.17578l-0.87109-1.99707l3.84961-1.68066l0.87109,1.99707L200.29883,37.96581z"/>
	</g>
	<g>
		<circle fill="none" cx="183.01788" cy="44.24549" r="13.74777"/>
		
			<path fill="#A3A3A3" stroke="#A3A3A3" stroke-width="0.25" stroke-linecap="round" stroke-linejoin="round" stroke-miterlimit="10" d="
			M175.6582,57.02538l-2.03613,3.40332l-0.37793-0.22607l2.03613-3.40381L175.6582,57.02538z"/>
		
			<path fill="#A3A3A3" stroke="#A3A3A3" stroke-width="0.25" stroke-linecap="round" stroke-linejoin="round" stroke-miterlimit="10" d="
			M175.52734,61.49022l1.29004-3.92285l1.92285,4.04102l0.95898-2.91748l0.41797,0.13721l-1.29297,3.93311l-1.92383-4.04004
			l-0.95508,2.90527L175.52734,61.49022z"/>
		
			<path fill="#A3A3A3" stroke="#A3A3A3" stroke-width="0.25" stroke-linecap="round" stroke-linejoin="round" stroke-miterlimit="10" d="
			M182.10938,58.97216c0.39844,0.02051,0.72852,0.08545,0.98242,0.33105c0.27832,0.26514,0.33105,0.61963,0.31836,0.86865
			c-0.0293,0.55859-0.41016,1.09229-1.3125,1.04541l-0.38574-0.021l-0.09082,1.72168l-0.43945-0.02295l0.20898-3.96143
			L182.10938,58.97216z M181.73438,60.78026l0.36133,0.01904c0.52344,0.02734,0.85156-0.21631,0.87598-0.6748
			c0.0332-0.62891-0.55176-0.71973-0.83691-0.73486l-0.32617-0.0166L181.73438,60.78026z"/>
		
			<path fill="#A3A3A3" stroke="#A3A3A3" stroke-width="0.25" stroke-linecap="round" stroke-linejoin="round" stroke-miterlimit="10" d="
			M185.21094,61.31835c0.06055,0.32715,0.12695,0.68359,0.48633,0.89063c0.18164,0.104,0.46777,0.14258,0.68359,0.10205
			c0.2168-0.04004,0.46875-0.17822,0.60156-0.34229c0.26172-0.32031,0.19531-0.67676,0.13477-1.00488l-0.44531-2.39209
			l0.43359-0.08057l0.46582,2.50977c0.06152,0.32666,0.08496,0.64941-0.07129,0.98145
			c-0.17383,0.36523-0.5459,0.64648-1.04297,0.7373c-0.49609,0.09229-0.94434-0.03564-1.23828-0.31396
			c-0.26465-0.25391-0.3584-0.5625-0.41895-0.88965l-0.4668-2.50977l0.43262-0.08057L185.21094,61.31835z"/>
		
			<path fill="#A3A3A3" stroke="#A3A3A3" stroke-width="0.25" stroke-linecap="round" stroke-linejoin="round" stroke-miterlimit="10" d="
			M189.36719,58.03417l1.43945,3.24072l-0.40039,0.1792l-1.44141-3.24023l-0.87891,0.38965l-0.16992-0.37891l2.16016-0.96094
			l0.16992,0.37988L189.36719,58.03417z"/>
	</g>
	<g>
		<path fill="#A3A3A3" d="M58.86621,157.82471H57.9707l0.31152-0.55957H59.458v5.33301h-0.5918v-4.77344H58.86621z"/>
	</g>
	<g>
		<path fill="#A3A3A3" d="M52.71484,148.57324l1.94238-2.24658c0.13574-0.16016,0.49512-0.58398,0.62402-0.77588
			c0.23926-0.34375,0.29492-0.59961,0.29492-0.81543c0-0.59961-0.43164-1.03955-1.0625-1.03955
			c-0.37598,0-0.6875,0.16797-0.8877,0.47168c-0.10449,0.16016-0.16797,0.35986-0.17676,0.63184h-0.5908
			c0.02441-0.53564,0.19141-0.86377,0.39941-1.10352c0.22461-0.25586,0.59961-0.54346,1.26367-0.54346
			c0.94336,0,1.64648,0.67139,1.64648,1.59082c0,0.35986-0.10352,0.68799-0.42383,1.14355
			c-0.22363,0.31201-0.51172,0.63965-0.72656,0.8877l-1.11133,1.25488h2.25391v0.54395H52.71484z"/>
	</g>
	<g>
		<path fill="#A3A3A3" d="M58.10156,126.62157c0.0166-0.2959,0.11328-0.56787,0.24805-0.78369
			c0.35156-0.55176,0.91992-0.62354,1.24023-0.62354c1.00684,0,1.50195,0.70361,1.50195,1.43896
			c0,0.38379-0.14258,0.91162-0.6875,1.18359c0.18457,0.07178,0.76758,0.36768,0.76758,1.28712
			c0,0.99951-0.72656,1.60693-1.63867,1.60693c-0.55078,0-1.19922-0.23145-1.48633-0.91943
			c-0.08008-0.19189-0.11328-0.36768-0.12109-0.55957h0.5918c0.02441,0.19189,0.08789,0.39209,0.19238,0.53564
			c0.17578,0.25586,0.4873,0.3999,0.82324,0.3999c0.5918,0,1.04688-0.48779,1.04688-1.07959
			c0-0.30371-0.11914-0.71143-0.52734-0.89551c-0.16797-0.07959-0.39941-0.11963-0.60742-0.11182v-0.52784
			c0.20801,0.01611,0.43945-0.02393,0.60742-0.11182s0.44824-0.31201,0.44824-0.7915c0-0.47168-0.25586-0.91162-0.91113-0.91162
			c-0.2168,0-0.48047,0.04004-0.6875,0.3042c-0.10449,0.13574-0.19238,0.33545-0.20898,0.55957
			C58.69336,126.62157,58.10156,126.62157,58.10156,126.62157z"/>
	</g>
	<g>
		<path fill="#A3A3A3" d="M75.52539,118.65917h0.65625v0.54395h-0.65625v1.00732h-0.5918v-1.00732h-2.73438l3.32617-4.62158
			C75.52538,114.58154,75.52538,118.65917,75.52539,118.65917z M74.93359,118.65917v-2.3584l-1.68652,2.3584H74.93359z"/>
	</g>
	<g>
		<path fill="#A3A3A3" d="M93.79492,115.42089h-1.71191l-0.34375,1.15137c0.10449-0.02393,0.20801-0.03174,0.33594-0.03174
			c1.07129,0,1.75879,0.80762,1.75879,1.84668c0,1.19141-0.89453,1.91895-1.94336,1.91895
			c-0.43164,0-0.83105-0.11963-1.19141-0.41553c-0.16699-0.14404-0.33496-0.32764-0.46289-0.54346l0.47168-0.33594
			c0.08789,0.17578,0.2002,0.30371,0.36035,0.43164c0.22266,0.18408,0.49512,0.31982,0.86328,0.31982
			c0.75195,0,1.31055-0.61572,1.31055-1.36719c0-0.76758-0.55078-1.31152-1.31055-1.31152
			c-0.19238,0-0.55273,0.03223-1.03125,0.36816l0.77539-2.57471h2.11914C93.79493,114.87743,93.79493,115.42089,93.79492,115.42089z
			"/>
	</g>
	<g>
		<path fill="#A3A3A3" d="M107.8623,125.87695l-1.22363,1.70313c0.15234-0.04834,0.30469-0.07227,0.47266-0.07227
			c1.02344,0,1.72656,0.76759,1.72656,1.75928c0,1.06299-0.76758,1.83057-1.83105,1.83057
			c-1.25488,0-1.84668-0.9751-1.84668-1.81494c0-0.19971,0.03906-0.66357,0.43945-1.22314l1.81445-2.51855L107.8623,125.87695z
			 M108.24609,129.28271c0-0.71143-0.52734-1.23096-1.25586-1.23096c-0.72656,0-1.23828,0.53564-1.23828,1.23096
			c0,0.71191,0.50391,1.27148,1.24609,1.27148C107.73438,130.5542,108.24609,130.00244,108.24609,129.28271z"/>
	</g>
	<g>
		<path fill="#A3A3A3" d="M113.27148,143.21045h-2.91797v-0.54346h3.91797l-3.56641,5.46094l-0.46289-0.31201L113.27148,143.21045z"
			/>
	</g>
	<g>
		<path fill="#A3A3A3" d="M109.90234,162.11523c0,0.83203-0.54297,1.56738-1.63086,1.56738s-1.63086-0.73535-1.63086-1.56738
			c0-0.5752,0.26367-1.06348,0.80664-1.30273c-0.42383-0.24805-0.64648-0.67188-0.64648-1.16797
			c0-0.75879,0.51172-1.47852,1.4707-1.47852s1.4707,0.71973,1.4707,1.47852c0,0.49609-0.22363,0.91992-0.64746,1.16797
			C109.63867,161.05176,109.90234,161.54004,109.90234,162.11523z M109.31055,162.09961c0-0.59961-0.43164-1.01563-1.03906-1.01563
			s-1.03906,0.41602-1.03906,1.01563c0,0.60742,0.42383,1.03906,1.03906,1.03906S109.31055,162.70703,109.31055,162.09961z
			 M109.18262,159.65332c0-0.58398-0.42383-0.94434-0.91113-0.94434c-0.48828,0-0.91211,0.36035-0.91211,0.94434
			c0,0.52734,0.39258,0.91895,0.91211,0.91895S109.18262,160.18066,109.18262,159.65332z"/>
	</g>
	<g>
		<path fill="#A3A3A3" d="M106.84961,216.05469c0-0.75537,0.55664-1.31348,1.31836-1.31348s1.32031,0.55811,1.32031,1.31348
			c0,0.75586-0.56445,1.30713-1.32031,1.30713S106.84961,216.81055,106.84961,216.05469z M107.29297,216.05469
			c0,0.61182,0.43164,0.92334,0.875,0.92334c0.4502,0,0.87598-0.31787,0.87598-0.92334c0-0.61182-0.41992-0.92969-0.87598-0.92969
			C107.71289,215.125,107.29297,215.44922,107.29297,216.05469z"/>
		<path fill="#A3A3A3" d="M112.09766,215.49707c-0.22754-0.28809-0.55762-0.37207-0.7793-0.37207
			c-0.46191,0-0.88086,0.32422-0.88086,0.92969s0.43164,0.92334,0.875,0.92334c0.25781,0,0.57617-0.11377,0.80273-0.38965v0.51563
			c-0.26953,0.19824-0.55664,0.25781-0.79102,0.25781c-0.77344,0-1.33105-0.55127-1.33105-1.30127
			c0-0.76123,0.56348-1.31934,1.33105-1.31934c0.39648,0,0.6543,0.15625,0.77344,0.24023v0.51563H112.09766z"/>
		<path fill="#A3A3A3" d="M113.2207,215.19727v2.09277h-0.43164v-2.09277h-0.26367v-0.396h0.26367v-0.89941h0.43164v0.89941h0.43164
			v0.396H113.2207z"/>
	</g>
	<g>
		<path fill="#A3A3A3" d="M107.57031,203.00439h-1.2832l-0.25781,0.86328c0.07813-0.01807,0.15625-0.02393,0.25195-0.02393
			c0.80371,0,1.31934,0.60547,1.31934,1.38525c0,0.89355-0.6709,1.43896-1.45703,1.43896
			c-0.32324,0-0.62402-0.08984-0.89355-0.31152c-0.12598-0.10791-0.25195-0.24609-0.34766-0.40771l0.35352-0.25195
			c0.06641,0.13184,0.15039,0.22754,0.26953,0.32373c0.16797,0.1377,0.37207,0.23975,0.64844,0.23975
			c0.56348,0,0.98242-0.46143,0.98242-1.02539c0-0.57568-0.41309-0.9834-0.98242-0.9834c-0.14453,0-0.41406,0.02393-0.77344,0.27588
			l0.58105-1.93115h1.58887v0.4082H107.57031z"/>
	</g>
	<g>
		<path fill="#A3A3A3" d="M109.85352,180.0083h0.43164v0.26416c0.1377-0.2041,0.35352-0.32422,0.61719-0.32422
			c0.44922,0,0.62988,0.31787,0.67773,0.40186c0.24023-0.37744,0.58203-0.40186,0.75-0.40186
			c0.7373,0,0.80859,0.61768,0.80859,0.97168v1.57715h-0.43164v-1.51123c0-0.28174-0.03516-0.65381-0.44336-0.65381
			c-0.49805,0-0.55176,0.47998-0.55176,0.77979v1.38525h-0.43164v-1.4751c0-0.17383,0.00586-0.68994-0.4502-0.68994
			c-0.49121,0-0.54492,0.50977-0.54492,0.80957v1.35547h-0.43164v-2.48877H109.85352z"/>
	</g>
	<g>
		<path fill="#A3A3A3" d="M105.07617,191.57617c-0.06055-0.14355-0.18555-0.25195-0.34766-0.25195
			c-0.15625,0-0.2998,0.09033-0.2998,0.28223c0,0.17969,0.12012,0.23389,0.40137,0.35352
			c0.36035,0.1499,0.52734,0.26416,0.62402,0.38379c0.1084,0.13184,0.13184,0.26416,0.13184,0.40186
			c0,0.52197-0.37793,0.81543-0.85742,0.81543c-0.10156,0-0.66016-0.01172-0.86914-0.63525l0.37109-0.15625
			c0.04883,0.13184,0.19238,0.40771,0.50391,0.40771c0.28125,0,0.4082-0.20947,0.4082-0.39551
			c0-0.23389-0.16797-0.31201-0.40234-0.41406c-0.2998-0.13184-0.49219-0.22754-0.60547-0.36572
			c-0.0957-0.11963-0.11328-0.23975-0.11328-0.36572c0-0.4375,0.30469-0.6958,0.72461-0.6958
			c0.13281,0,0.48633,0.02441,0.68359,0.4502L105.07617,191.57617z"/>
		<path fill="#A3A3A3" d="M108.36914,192.32568h0.49219v0.4082h-0.49219v0.75537h-0.44336v-0.75537H105.875l2.49414-3.46631
			V192.32568z M107.92578,192.32568v-1.76904l-1.26563,1.76904H107.92578z"/>
	</g>
	<g>
		<path fill="#A3A3A3" d="M118.14648,172.51123h0.43164v0.26416c0.13867-0.2041,0.35449-0.32422,0.61816-0.32422
			c0.4502,0,0.62988,0.31787,0.67773,0.40186c0.23926-0.37744,0.58105-0.40186,0.74902-0.40186
			c0.73828,0,0.81055,0.61768,0.81055,0.97168V175h-0.43164v-1.51123c0-0.28174-0.03711-0.65381-0.44434-0.65381
			c-0.49707,0-0.55176,0.47998-0.55176,0.77979V175h-0.43164v-1.4751c0-0.17383,0.00586-0.68994-0.44922-0.68994
			c-0.49219,0-0.54688,0.50977-0.54688,0.80957V175h-0.43164v-2.48877H118.14648z"/>
		<path fill="#A3A3A3" d="M124.43359,171.4082h-2.18848V171h2.93848l-2.6748,4.0957l-0.34766-0.2334L124.43359,171.4082z"/>
	</g>
	<g>
		<path fill="#A3A3A3" d="M131.89844,169.94482h0.43164v0.26416c0.13867-0.2041,0.35449-0.32422,0.61816-0.32422
			c0.4502,0,0.62988,0.31787,0.67773,0.40186c0.23926-0.37744,0.58105-0.40186,0.74902-0.40186
			c0.73828,0,0.81055,0.61768,0.81055,0.97168v1.57715h-0.43164v-1.51123c0-0.28174-0.03711-0.65381-0.44434-0.65381
			c-0.49707,0-0.55176,0.47998-0.55176,0.77979v1.38525h-0.43164v-1.4751c0-0.17383,0.00586-0.68994-0.44922-0.68994
			c-0.49219,0-0.54688,0.50977-0.54688,0.80957v1.35547h-0.43164V169.94482z"/>
		<path fill="#A3A3A3" d="M136.65625,172.28369l0.91797-1.27734c-0.11426,0.03613-0.22852,0.0542-0.35352,0.0542
			c-0.76758,0-1.2959-0.57568-1.2959-1.31934c0-0.79785,0.5752-1.37354,1.37402-1.37354c0.94141,0,1.38477,0.73193,1.38477,1.36133
			c0,0.1499-0.03027,0.50391-0.33008,0.91748l-1.36133,1.88281L136.65625,172.28369z M136.36914,169.729
			c0,0.53369,0.39551,0.92334,0.94141,0.92334c0.54492,0,0.92969-0.40137,0.92969-0.92334
			c0-0.53369-0.37891-0.95361-0.93555-0.95361C136.75195,168.77539,136.36914,169.18945,136.36914,169.729z"/>
	</g>
	<g>
		<path fill="#A3A3A3" d="M143.56836,172.12256H144v0.26416c0.1377-0.2041,0.35352-0.32422,0.61719-0.32422
			c0.44922,0,0.62988,0.31787,0.67773,0.40186c0.24023-0.37744,0.58203-0.40186,0.75-0.40186
			c0.7373,0,0.80859,0.61768,0.80859,0.97168v1.57715h-0.43164v-1.51123c0-0.28174-0.03516-0.65381-0.44336-0.65381
			c-0.49805,0-0.55176,0.47998-0.55176,0.77979v1.38525h-0.43164v-1.4751c0-0.17383,0.00586-0.68994-0.4502-0.68994
			c-0.49121,0-0.54492,0.50977-0.54492,0.80957v1.35547h-0.43164V172.12256z"/>
		<path fill="#A3A3A3" d="M148.86523,171.03125h-0.67188l0.23438-0.41992h0.88086v4h-0.44336V171.03125z"/>
		<path fill="#A3A3A3" d="M150.92383,171.03125h-0.67188l0.2334-0.41992h0.88184v4h-0.44336V171.03125z"/>
	</g>
	<g>
		<path fill="#A3A3A3" d="M156.79004,179.79199l-0.91699,1.27734c0.11328-0.03613,0.22754-0.0542,0.35352-0.0542
			c0.76758,0,1.29492,0.57568,1.29492,1.31934c0,0.79736-0.5752,1.37305-1.37305,1.37305
			c-0.94141,0-1.38477-0.73145-1.38477-1.36084c0-0.15039,0.0293-0.49805,0.33008-0.91797l1.36133-1.88867L156.79004,179.79199z
			 M157.07813,182.34668c0-0.53418-0.39648-0.92383-0.94141-0.92383c-0.5459,0-0.92969,0.40186-0.92969,0.92383
			c0,0.53369,0.37793,0.95313,0.93555,0.95313C156.69434,183.2998,157.07813,182.88623,157.07813,182.34668z"/>
		<path fill="#A3A3A3" d="M158.90234,183.48584l0.91797-1.27734c-0.11426,0.03613-0.22852,0.0542-0.35352,0.0542
			c-0.76758,0-1.2959-0.57568-1.2959-1.31934c0-0.79785,0.5752-1.37354,1.37402-1.37354c0.94141,0,1.38477,0.73193,1.38477,1.36133
			c0,0.1499-0.03027,0.50391-0.33008,0.91748l-1.36133,1.88281L158.90234,183.48584z M158.61523,180.93115
			c0,0.53369,0.39551,0.92334,0.94141,0.92334c0.54492,0,0.92969-0.40137,0.92969-0.92334
			c0-0.53369-0.37891-0.95361-0.93555-0.95361C158.99805,179.97754,158.61523,180.3916,158.61523,180.93115z"/>
	</g>
	<g>
		<path fill="#A3A3A3" d="M159.68262,194.74316l0.66504-4.22168l1.53516,3.37598l1.56543-3.38184l0.62402,4.22754h-0.45605
			l-0.37793-2.78223l-1.36133,2.9502l-1.34277-2.9502l-0.39551,2.78223H159.68262z"/>
		<path fill="#A3A3A3" d="M165.53711,194.59375l0.91797-1.27734c-0.11328,0.03613-0.22754,0.05371-0.35352,0.05371
			c-0.76758,0-1.29492-0.5752-1.29492-1.31934c0-0.79785,0.5752-1.37305,1.37305-1.37305c0.94141,0,1.38477,0.73145,1.38477,1.36133
			c0,0.14941-0.0293,0.50391-0.33008,0.91699l-1.36133,1.88281L165.53711,194.59375z M165.25,192.03906
			c0,0.5332,0.39648,0.92285,0.94141,0.92285c0.5459,0,0.92969-0.40137,0.92969-0.92285c0-0.53418-0.37793-0.9541-0.93555-0.9541
			C165.63379,191.08496,165.25,191.49902,165.25,192.03906z"/>
	</g>
	<g>
		<path fill="#A3A3A3" d="M159.68262,206.93994l0.66504-4.22168l1.53516,3.37598l1.56543-3.38184l0.62402,4.22754h-0.45605
			l-0.37793-2.78223l-1.36133,2.9502l-1.34277-2.9502l-0.39551,2.78223H159.68262z"/>
		<path fill="#A3A3A3" d="M167.06641,203.34814h-2.1875v-0.4082h2.9375l-2.67383,4.0957l-0.34766-0.2334L167.06641,203.34814z"/>
	</g>
	<g>
		<path fill="#A3A3A3" d="M156.65234,217.29004l0.66504-4.22168l1.53516,3.37598l1.56543-3.38184l0.62305,4.22754h-0.45508
			l-0.37793-2.78223l-1.36133,2.9502l-1.34277-2.9502l-0.39648,2.78223H156.65234z"/>
	</g>
	<g>
		<circle fill="none" cx="134.71875" cy="43.99999" r="14.57799"/>
		
			<path fill="#A3A3A3" stroke="#A3A3A3" stroke-width="0.25" stroke-linecap="round" stroke-linejoin="round" stroke-miterlimit="10" d="
			M123.45605,29.49169l2.34863,2.93262l-0.36523,0.2915l-2.34668-2.93311l-0.7959,0.63672l-0.27539-0.34326l1.95605-1.56494
			l0.27441,0.34326L123.45605,29.49169z"/>
		
			<path fill="#A3A3A3" stroke="#A3A3A3" stroke-width="0.25" stroke-linecap="round" stroke-linejoin="round" stroke-miterlimit="10" d="
			M125.91992,27.36815c0.25391-0.12793,0.63867-0.30176,1.0166-0.25293c0.29199,0.03467,0.62891,0.2251,0.83105,0.625
			c0.29005,0.57227,0.12695,1.18408-0.4209,1.51074l2.03809,1.07178l-0.50586,0.25635l-1.9707-1.06396l-0.10645,0.05469
			l0.83008,1.64014l-0.41602,0.21094l-1.89746-3.74902L125.91992,27.36815z M126.61328,29.19823l0.26465-0.13379
			c0.5166-0.26123,0.7002-0.66553,0.47949-1.10303c-0.10547-0.2085-0.27246-0.38574-0.57617-0.3999
			c-0.2168-0.01074-0.41406,0.07422-0.59375,0.16553l-0.25391,0.12793L126.61328,29.19823z"/>
		
			<path fill="#A3A3A3" stroke="#A3A3A3" stroke-width="0.25" stroke-linecap="round" stroke-linejoin="round" stroke-miterlimit="10" d="
			M129.48047,25.92968l1.2168,4.02197L130.25,30.08642l-1.21484-4.02295L129.48047,25.92968z"/>
		
			<path fill="#A3A3A3" stroke="#A3A3A3" stroke-width="0.25" stroke-linecap="round" stroke-linejoin="round" stroke-miterlimit="10" d="
			M133.82422,27.30272l1.74805-0.12061l0.00781,0.10059c0.03125,0.46484-0.07129,0.97754-0.31055,1.35498
			c-0.11426,0.17822-0.54492,0.79492-1.50781,0.8623c-1.24414,0.08594-2.24023-0.79932-2.3252-2.01855
			c-0.08398-1.21973,0.78613-2.2334,2.03809-2.32178c0.40234-0.02783,0.88086,0.04102,1.31055,0.32764
			c0.19922,0.13037,0.38867,0.30762,0.51953,0.46289l-0.32422,0.33789c-0.13086-0.16211-0.28027-0.30273-0.42578-0.40723
			c-0.21289-0.14893-0.54102-0.31543-1.04297-0.28076c-1.0127,0.0708-1.66406,0.87939-1.59668,1.85352
			c0.0791,1.14551,1.03027,1.66064,1.82324,1.60596c0.55957-0.03857,1.02344-0.35547,1.23438-0.79346
			c0.06641-0.1377,0.13281-0.34521,0.12793-0.60938l-1.24512,0.08691L133.82422,27.30272z"/>
		
			<path fill="#A3A3A3" stroke="#A3A3A3" stroke-width="0.25" stroke-linecap="round" stroke-linejoin="round" stroke-miterlimit="10" d="
			M139.24414,27.89745l1.69336,0.44092l-0.02441,0.09863c-0.11816,0.44971-0.37891,0.90234-0.72559,1.18311
			c-0.16406,0.1333-0.76953,0.58105-1.70117,0.33887c-1.20703-0.31494-1.86914-1.46973-1.56152-2.65234
			c0.30762-1.18164,1.45605-1.86621,2.66895-1.55078c0.38965,0.10205,0.82129,0.31836,1.13867,0.72607
			c0.14648,0.18799,0.26953,0.41455,0.34375,0.604l-0.41504,0.21777c-0.07324-0.19434-0.16895-0.37695-0.27441-0.52051
			c-0.1543-0.20898-0.41113-0.47217-0.89844-0.59814c-0.98145-0.25586-1.85547,0.30371-2.10156,1.24902
			c-0.28906,1.10791,0.44727,1.89941,1.2168,2.09961c0.54199,0.14111,1.08301-0.01074,1.4209-0.35889
			c0.10645-0.10938,0.23535-0.28418,0.31543-0.53711l-1.20703-0.31348L139.24414,27.89745z"/>
		
			<path fill="#A3A3A3" stroke="#A3A3A3" stroke-width="0.25" stroke-linecap="round" stroke-linejoin="round" stroke-miterlimit="10" d="
			M144.95313,28.70214l-1.48242-0.85889l-0.62695,1.07813l1.43945,0.83496l-0.2207,0.38135l-1.43945-0.83398l-0.81836,1.41162
			l1.48242,0.85889l-0.2207,0.38184l-1.88672-1.09424l2.10742-3.63428l1.88672,1.09326L144.95313,28.70214z"/>
		
			<path fill="#A3A3A3" stroke="#A3A3A3" stroke-width="0.25" stroke-linecap="round" stroke-linejoin="round" stroke-miterlimit="10" d="
			M147.17188,29.90136c0.20898,0.19287,0.50781,0.49268,0.59375,0.86377c0.07031,0.28711,0.00977,0.66943-0.29297,0.99854
			c-0.43555,0.47314-1.06641,0.53564-1.56641,0.13721l-0.28711,2.2876l-0.41797-0.38428l0.30469-2.22217l-0.08887-0.07959
			l-1.24707,1.354l-0.34375-0.31543l2.84961-3.09619L147.17188,29.90136z M145.69922,31.1953l0.21875,0.20068
			c0.42578,0.39209,0.86914,0.42383,1.20313,0.06152c0.15723-0.17188,0.26367-0.39014,0.17188-0.68115
			c-0.06641-0.20752-0.2168-0.36182-0.36426-0.49854l-0.20898-0.19287L145.69922,31.1953z"/>
	</g>
	<g>
		<g>
			
				<path fill="#A3A3A3" stroke="#A3A3A3" stroke-width="0.25" stroke-linecap="round" stroke-linejoin="round" stroke-miterlimit="10" d="
				M127.11914,56.91308l-2.23633,3.55322l-0.39453-0.24756l2.2373-3.55371L127.11914,56.91308z"/>
			
				<path fill="#A3A3A3" stroke="#A3A3A3" stroke-width="0.25" stroke-linecap="round" stroke-linejoin="round" stroke-miterlimit="10" d="
				M126.86719,61.62694l1.41992-4.14551l1.98828,4.3125l1.05664-3.08301l0.44141,0.15088l-1.42383,4.15869l-1.98828-4.31348
				l-1.05273,3.07178L126.86719,61.62694z"/>
			
				<path fill="#A3A3A3" stroke="#A3A3A3" stroke-width="0.25" stroke-linecap="round" stroke-linejoin="round" stroke-miterlimit="10" d="
				M133.84766,59.02782c0.42188,0.02393,0.77148,0.09277,1.04102,0.354c0.29395,0.28076,0.34961,0.65674,0.33398,0.92139
				c-0.03125,0.59131-0.43555,1.15527-1.39258,1.104l-0.4082-0.02246l-0.10059,1.82471l-0.46582-0.02588l0.23047-4.19824
				L133.84766,59.02782z M133.44531,60.94384l0.38477,0.021c0.55371,0.02979,0.90234-0.22852,0.92871-0.71289
				c0.03711-0.66748-0.58301-0.76416-0.88477-0.78076l-0.34668-0.01904L133.44531,60.94384z"/>
			
				<path fill="#A3A3A3" stroke="#A3A3A3" stroke-width="0.25" stroke-linecap="round" stroke-linejoin="round" stroke-miterlimit="10" d="
				M137.1543,61.50683c0.06836,0.34668,0.14258,0.72363,0.52344,0.93799c0.19434,0.10791,0.49609,0.146,0.72461,0.10059
				c0.22949-0.04443,0.49609-0.19238,0.63379-0.36768c0.27246-0.34131,0.19922-0.71777,0.13184-1.06396l-0.49414-2.52539
				l0.45703-0.08936l0.51855,2.64893c0.06738,0.34619,0.0957,0.68652-0.06641,1.03857
				c-0.18066,0.38867-0.57129,0.68896-1.0957,0.7915c-0.52441,0.10205-0.99902-0.02881-1.3125-0.3208
				c-0.28223-0.26465-0.38574-0.59131-0.45215-0.93652l-0.51758-2.64941l0.45605-0.08936L137.1543,61.50683z"/>
			
				<path fill="#A3A3A3" stroke="#A3A3A3" stroke-width="0.25" stroke-linecap="round" stroke-linejoin="round" stroke-miterlimit="10" d="
				M141.47949,57.96435l1.60059,3.40088l-0.4209,0.19873l-1.60059-3.3999l-0.92383,0.43408l-0.1875-0.39893l2.26758-1.06738
				l0.1875,0.39893L141.47949,57.96435z"/>
		</g>
	</g>
	<path fill="#A3A3A3" d="M135.05646,94.42661c-12.32449,0-22.315,9.99071-22.315,22.315c0,12.3242,9.99051,22.31491,22.315,22.31491
		c12.32408,0,22.31499-9.99071,22.31499-22.3149C157.37144,104.4173,147.38054,94.42661,135.05646,94.42661z M141.28543,127.21214
		c0,0.70444-3.60266,2.86803-3.7536,2.96355c-0.60374,0.51329-1.29289,0.96114-2.13339,1.26302
		c-2.79234,1.00125-5.6705,0.13077-6.40492-1.93707c-0.73483-2.0631,0.93581-4.55864,3.73332-5.54987v-0.0001
		c2.44043-0.87564,4.84035-0.27179,5.92233,1.24266v-5.01641c-0.66452,1.06173-1.7914,1.99755-3.26065,2.52087
		c-2.79236,1.00125-5.6705,0.13078-6.40533-1.94224c-0.73444-2.06288,0.93581-4.55356,3.73373-5.54478
		c2.44002-0.87048,4.84033-0.27169,5.93703,1.23779v-5.00638c-0.66414,1.0667-1.791,1.99754-3.26027,2.52086
		c-2.79276,1.00126-5.6709,0.13078-6.40533-1.94223c-0.73444-2.05792,0.93582-4.55357,3.73334-5.54479
		c2.44043-0.86551,4.84035-0.26672,5.93742,1.24276v-6.15857c0-0.71954,0.58865-1.31336,1.31316-1.31336
		s1.31317,0.59383,1.31317,1.31336V127.21214z"/>
</g>
</svg>
