<?xml version="1.0" encoding="utf-8"?>
<!-- Generator: Adobe Illustrator 24.0.2, SVG Export Plug-In . SVG Version: 6.00 Build 0)  -->
<svg version="1.0" id="Layer_1" xmlns="http://www.w3.org/2000/svg" xmlns:xlink="http://www.w3.org/1999/xlink" x="0px" y="0px"
	 width="270px" height="380px" viewBox="0 0 270 380" enable-background="new 0 0 270 380" xml:space="preserve">
<g id="_x33_">
	<rect y="-0.00002" fill="none" width="270" height="380"/>
	<g>
		<circle fill="#262424" stroke="#606266" stroke-width="0.75" stroke-miterlimit="10" cx="83.5" cy="145.5" r="34.93385"/>
		
			<line fill="none" stroke="#606266" stroke-width="0.75" stroke-miterlimit="10" x1="83.5" y1="145.5" x2="58.79808" y2="170.20192"/>
		
			<line fill="none" stroke="#606266" stroke-width="0.5" stroke-miterlimit="10" x1="83.5" y1="145.5" x2="50.8044" y2="157.82994"/>
		
			<line fill="none" stroke="#606266" stroke-width="0.5" stroke-miterlimit="10" x1="83.5" y1="145.5" x2="116.19559" y2="157.82994"/>
		
			<line fill="none" stroke="#606266" stroke-width="0.75" stroke-miterlimit="10" x1="83.5" y1="145.5" x2="108.20195" y2="170.20195"/>
		<circle fill="#262424" stroke="#606266" stroke-width="0.75" stroke-miterlimit="10" cx="83.5" cy="145.5" r="23.5"/>
	</g>
	<g>
		<circle fill="#262424" stroke="#606266" stroke-width="0.5" stroke-miterlimit="10" cx="186.44551" cy="145.5" r="34.93385"/>
		<circle fill="#262424" stroke="#606266" stroke-width="0.75" stroke-miterlimit="10" cx="186.44551" cy="145.5" r="34.93385"/>
		
			<line fill="none" stroke="#606266" stroke-width="0.5" stroke-miterlimit="10" x1="186.44551" y1="145.5" x2="154.08533" y2="157.70346"/>
		
			<line fill="none" stroke="#606266" stroke-width="0.5" stroke-miterlimit="10" x1="186.44551" y1="145.5" x2="218.80569" y2="157.70346"/>
		
			<line fill="none" stroke="#606266" stroke-width="0.5" stroke-miterlimit="10" x1="186.44551" y1="145.88486" x2="179.34586" y2="111.6731"/>
		
			<line fill="none" stroke="#606266" stroke-width="0.5" stroke-miterlimit="10" x1="186.44551" y1="145.88486" x2="193.54517" y2="111.6731"/>
		
			<line fill="none" stroke="#606266" stroke-width="0.75" stroke-miterlimit="10" x1="186.44551" y1="145.5" x2="161.74948" y2="170.19603"/>
		
			<line fill="none" stroke="#606266" stroke-width="0.75" stroke-miterlimit="10" x1="186.44551" y1="145.5" x2="211.14154" y2="170.19603"/>
		<circle fill="#262424" stroke="#606266" stroke-width="0.75" stroke-miterlimit="10" cx="186.44551" cy="145.5" r="23.5"/>
	</g>
	<g>
		<circle fill="#262424" stroke="#606266" stroke-width="0.5" stroke-miterlimit="10" cx="135" cy="198.5" r="34.93385"/>
		
			<line fill="none" stroke="#606266" stroke-width="0.75" stroke-miterlimit="10" x1="135" y1="198.5" x2="110.59309" y2="222.90691"/>
		
			<line fill="none" stroke="#606266" stroke-width="0.5" stroke-miterlimit="10" x1="135" y1="198.5" x2="102.63982" y2="210.70346"/>
		
			<line fill="none" stroke="#606266" stroke-width="0.75" stroke-miterlimit="10" x1="134.97266" y1="198.5" x2="100.10973" y2="200.23425"/>
		
			<line fill="none" stroke="#606266" stroke-width="0.5" stroke-miterlimit="10" x1="134.97266" y1="198.5" x2="102.84383" y2="184.82704"/>
		
			<line fill="none" stroke="#606266" stroke-width="0.5" stroke-miterlimit="10" x1="135" y1="198.5" x2="127.90034" y2="164.28827"/>
		
			<line fill="none" stroke="#606266" stroke-width="0.5" stroke-miterlimit="10" x1="135" y1="198.5" x2="142.09966" y2="164.28824"/>
		
			<line fill="none" stroke="#606266" stroke-width="0.5" stroke-miterlimit="10" x1="135" y1="198.5" x2="167.69551" y2="210.82991"/>
		
			<line fill="none" stroke="#606266" stroke-width="0.75" stroke-miterlimit="10" x1="135" y1="198.5" x2="159.70186" y2="223.20186"/>
		<circle fill="#262424" stroke="#606266" stroke-width="0.75" stroke-miterlimit="10" cx="135" cy="198.5" r="23.5"/>
	</g>
	<g>
		<circle fill="#262424" stroke="#606266" stroke-width="0.5" stroke-miterlimit="10" cx="135" cy="283.5" r="34.93385"/>
		
			<line fill="none" stroke="#606266" stroke-width="0.75" stroke-miterlimit="10" x1="135" y1="283.5" x2="110.30396" y2="308.19604"/>
		
			<line fill="none" stroke="#606266" stroke-width="0.75" stroke-miterlimit="10" x1="135" y1="283.5" x2="159.69603" y2="308.19604"/>
		<line fill="none" stroke="#606266" stroke-width="0.5" stroke-miterlimit="10" x1="135" y1="248.56616" x2="135" y2="283.5"/>
		<circle fill="#262424" stroke="#606266" stroke-width="0.75" stroke-miterlimit="10" cx="135" cy="283.5" r="23.5"/>
	</g>
	<g>
		<circle fill="none" cx="71" cy="351" r="14.578"/>
		
			<path fill="#A3A3A3" stroke="#A3A3A3" stroke-width="0.25" stroke-linecap="round" stroke-linejoin="round" stroke-miterlimit="10" d="
			M54.46484,341.94873l0.4668-0.71631c0.23047-0.354,0.59375-0.83008,1.25684-1.03027
			c0.47754-0.14648,1.1084-0.13281,1.74121,0.27881c0.73828,0.48145,0.89746,1.10205,0.94922,1.49609
			c0.06445,0.5-0.02344,0.92285-0.43262,1.55127l-0.46387,0.7124L54.46484,341.94873z M57.86719,343.60986l0.22363-0.34277
			c0.18262-0.28027,0.40137-0.68506,0.33984-1.21289c-0.0498-0.40918-0.26074-0.84619-0.7627-1.17285
			c-0.84375-0.54883-1.77637-0.31592-2.35645,0.5752l-0.22363,0.34326L57.86719,343.60986z"/>
		
			<path fill="#A3A3A3" stroke="#A3A3A3" stroke-width="0.25" stroke-linecap="round" stroke-linejoin="round" stroke-miterlimit="10" d="
			M59.45703,339.55029c0.23438,0.26416,0.48926,0.55078,0.92773,0.54053c0.22266-0.00537,0.50195-0.12695,0.67578-0.28271
			c0.1748-0.15381,0.32813-0.41699,0.35938-0.63916c0.06055-0.43408-0.19531-0.7207-0.42969-0.98389l-1.71289-1.92627
			l0.34766-0.31055l1.79785,2.02051c0.23535,0.2627,0.43262,0.54297,0.47266,0.9292c0.04199,0.42627-0.1416,0.88379-0.54004,1.23975
			c-0.40137,0.35742-0.87695,0.48535-1.2959,0.39453c-0.37891-0.08545-0.63379-0.31445-0.86816-0.57861l-1.79688-2.01904
			l0.34766-0.30957L59.45703,339.55029z"/>
		
			<path fill="#A3A3A3" stroke="#A3A3A3" stroke-width="0.25" stroke-linecap="round" stroke-linejoin="round" stroke-miterlimit="10" d="
			M64.78418,336.45361l-1.60156,0.79443l0.0752,1.28418l-0.46289,0.22998l-0.22461-4.80127l3.64258,3.104l-0.4629,0.22998
			L64.78418,336.45361z M64.4248,336.13916l-1.37988-1.19141l0.10547,1.82373L64.4248,336.13916z"/>
		
			<path fill="#A3A3A3" stroke="#A3A3A3" stroke-width="0.25" stroke-linecap="round" stroke-linejoin="round" stroke-miterlimit="10" d="
			M66.2373,332.80273l0.92676,3.64111l1.12305-0.28516l0.1084,0.42676l-1.57324,0.40039l-1.03711-4.06836L66.2373,332.80273z"/>
		
			<path fill="#A3A3A3" stroke="#A3A3A3" stroke-width="0.25" stroke-linecap="round" stroke-linejoin="round" stroke-miterlimit="10" d="
			M73.55664,332.7749l-1.44336-0.11572l-0.09766,1.23633l1.39258,0.11133l-0.03418,0.43945l-1.39355-0.11182l-0.16504,2.07275
			l-0.46387-0.0376l0.33203-4.18555l1.90918,0.15186L73.55664,332.7749z"/>
		
			<path fill="#A3A3A3" stroke="#A3A3A3" stroke-width="0.25" stroke-linecap="round" stroke-linejoin="round" stroke-miterlimit="10" d="
			M73.86133,336.4834l2.19531-3.92236l0.28516,3.89014l2.77539-2.76709l-0.92383,4.39795l-0.45117-0.16602l0.6416-2.88184
			l-2.41797,2.41357l-0.25098-3.40039l-1.40332,2.60156L73.86133,336.4834z"/>
		
			<path fill="#A3A3A3" stroke="#A3A3A3" stroke-width="0.25" stroke-linecap="round" stroke-linejoin="round" stroke-miterlimit="10" d="
			M82.11133,338.34668c0.94336-0.8252,2.27832-0.6958,3.07422,0.21436c0.79688,0.91016,0.74609,2.25049-0.19727,3.07715
			c-0.93945,0.81982-2.27441,0.69971-3.07422-0.2168C81.11328,340.50684,81.17188,339.1665,82.11133,338.34668z M82.42578,338.70703
			c-0.72559,0.6333-0.80273,1.71338-0.17969,2.4248c0.62109,0.71191,1.70117,0.77881,2.42773,0.14453
			c0.72461-0.63379,0.80176-1.71387,0.17969-2.4248C84.23145,338.13965,83.15137,338.07275,82.42578,338.70703z"/>
		
			<path fill="#A3A3A3" stroke="#A3A3A3" stroke-width="0.25" stroke-linecap="round" stroke-linejoin="round" stroke-miterlimit="10" d="
			M87.80859,342.58789c0.18555,0.37939,0.29492,0.71826,0.19922,1.08105c-0.10254,0.39307-0.40234,0.62598-0.64063,0.74072
			c-0.53125,0.26123-1.2207,0.18506-1.64258-0.67578l-0.17969-0.36719l-1.64063,0.80371l-0.20508-0.41895l3.77344-1.84766
			L87.80859,342.58789z M85.94043,343.17236l0.16895,0.34521c0.24414,0.49854,0.64063,0.67578,1.07617,0.46289
			c0.59961-0.29346,0.38086-0.88184,0.24805-1.15381l-0.15234-0.30957L85.94043,343.17236z"/>
	</g>
	<g>
		<circle fill="none" cx="199.5" cy="351.03378" r="14.578"/>
		
			<path fill="#A3A3A3" stroke="#A3A3A3" stroke-width="0.25" stroke-linecap="round" stroke-linejoin="round" stroke-miterlimit="10" d="
			M187.59473,337.55225c-0.11914-0.04199-0.27441-0.06787-0.39551-0.05664c-0.10156,0.01172-0.26758,0.05859-0.43945,0.22412
			c-0.29883,0.28809-0.32813,0.67529-0.05664,0.95605c0.11426,0.11719,0.21094,0.15479,0.36719,0.15332
			c0.17773,0.00244,0.33887-0.05664,0.5-0.11719l0.41211-0.15234c0.25098-0.09375,0.49219-0.16943,0.74219-0.16553
			c0.30176,0.00537,0.53516,0.12012,0.74609,0.33789c0.53711,0.55566,0.48438,1.32373-0.05859,1.84961
			c-0.19922,0.19238-0.48828,0.3916-0.89258,0.38916c-0.28906,0.00049-0.58008-0.12109-0.7959-0.26172l0.23828-0.40625
			c0.17578,0.13721,0.37891,0.20215,0.55176,0.20996c0.25879,0.00439,0.44336-0.104,0.59668-0.25244
			c0.41113-0.39844,0.32129-0.88037,0.02832-1.18262c-0.13086-0.13574-0.28516-0.21484-0.49023-0.20898
			c-0.16406,0.00146-0.33398,0.06055-0.5625,0.14209l-0.39453,0.13574c-0.16895,0.05859-0.37988,0.14014-0.64258,0.14014
			c-0.25391,0-0.46582-0.06543-0.68457-0.2915c-0.4502-0.46582-0.39551-1.12354,0.09375-1.5957
			c0.18555-0.18066,0.37012-0.2876,0.61523-0.33252c0.2002-0.03613,0.42285-0.01514,0.61816,0.0498L187.59473,337.55225z"/>
		
			<path fill="#A3A3A3" stroke="#A3A3A3" stroke-width="0.25" stroke-linecap="round" stroke-linejoin="round" stroke-miterlimit="10" d="
			M190.52051,337.4707c0.17676,0.30518,0.36816,0.63818,0.7998,0.7168c0.21973,0.04004,0.51758-0.02295,0.71973-0.13965
			c0.20215-0.11572,0.40527-0.34424,0.48047-0.5542c0.14746-0.41211-0.0459-0.74463-0.22168-1.05127l-1.28906-2.23145
			l0.4043-0.23242l1.35156,2.34082c0.17676,0.30469,0.31445,0.61816,0.27539,1.00537
			c-0.04492,0.42578-0.31641,0.83789-0.78027,1.10547c-0.46387,0.26709-0.95605,0.29688-1.34863,0.12305
			c-0.35352-0.15918-0.55664-0.43506-0.73242-0.74023l-1.35254-2.34082l0.4043-0.23291L190.52051,337.4707z"/>
		
			<path fill="#A3A3A3" stroke="#A3A3A3" stroke-width="0.25" stroke-linecap="round" stroke-linejoin="round" stroke-miterlimit="10" d="
			M194.07715,333.01465c0.22559-0.06299,0.63672-0.15723,1-0.00391c0.15527,0.06152,0.46094,0.24463,0.59668,0.73682
			c0.05664,0.20068,0.1123,0.56445-0.17871,0.90674c0.60449-0.0166,0.94629,0.41699,1.05469,0.80615
			c0.1084,0.38818,0.00098,0.7583-0.16895,0.98975c-0.25195,0.34424-0.61816,0.4585-0.89844,0.53662l-1.00781,0.28027l-1.125-4.0498
			L194.07715,333.01465z M194.29297,334.87109l0.33984-0.09424c0.23633-0.06592,0.78223-0.26904,0.6084-0.89551
			c-0.18652-0.66797-0.84473-0.49805-0.97266-0.4624l-0.35254,0.09863L194.29297,334.87109z M194.80664,336.7168l0.51563-0.14307
			c0.26172-0.07275,0.51074-0.16211,0.66309-0.36816c0.12598-0.1582,0.17969-0.39014,0.1123-0.63232
			c-0.08984-0.32178-0.33008-0.45752-0.51172-0.49902c-0.17578-0.04297-0.39844-0.01953-0.7207,0.06934l-0.46094,0.12842
			L194.80664,336.7168z"/>
		
			<path fill="#A3A3A3" stroke="#A3A3A3" stroke-width="0.25" stroke-linecap="round" stroke-linejoin="round" stroke-miterlimit="10" d="
			M200.02344,334.19141c0.20117-1.23633,1.31152-1.98779,2.50488-1.79346s2.00879,1.25781,1.80762,2.49414
			c-0.2002,1.23047-1.30469,1.98828-2.50391,1.79346C200.63281,336.49023,199.82422,335.42188,200.02344,334.19141z
			 M200.49609,334.26855c-0.1543,0.9502,0.47461,1.83057,1.40625,1.98193c0.93164,0.15186,1.80664-0.48438,1.96094-1.43457
			c0.15527-0.95068-0.47461-1.83105-1.40527-1.98193C201.52539,332.68213,200.65039,333.31689,200.49609,334.26855z"/>
		
			<path fill="#A3A3A3" stroke="#A3A3A3" stroke-width="0.25" stroke-linecap="round" stroke-linejoin="round" stroke-miterlimit="10" d="
			M207.79688,335.06152c-0.00293-0.12549-0.03516-0.27881-0.08887-0.38867c-0.04785-0.09229-0.15039-0.22998-0.36719-0.33105
			c-0.37793-0.17529-0.74902-0.06348-0.91406,0.2915c-0.06934,0.14746-0.06934,0.25293-0.01172,0.39746
			c0.06152,0.1665,0.1748,0.29688,0.28809,0.42578l0.29102,0.33105c0.17773,0.19971,0.33594,0.39893,0.4209,0.63232
			c0.10449,0.28516,0.0791,0.54492-0.04785,0.81982c-0.32813,0.70313-1.06543,0.9292-1.75098,0.60986
			c-0.25098-0.11719-0.54199-0.31543-0.68457-0.69482c-0.10352-0.27051-0.0957-0.58594-0.04102-0.83838l0.46582,0.07666
			c-0.06543,0.21338-0.05371,0.42773,0.00195,0.59229c0.08887,0.24316,0.25488,0.37646,0.4502,0.4668
			c0.51953,0.24219,0.9375-0.01416,1.11621-0.39746c0.08008-0.17139,0.09766-0.34424,0.01953-0.53418
			c-0.06152-0.15186-0.17773-0.29053-0.33496-0.47461l-0.26758-0.32031c-0.11719-0.13721-0.26855-0.30518-0.36328-0.55029
			c-0.08984-0.23682-0.10547-0.45996,0.02832-0.74609c0.27441-0.5874,0.90918-0.77197,1.52637-0.48389
			c0.2334,0.10889,0.40137,0.24268,0.53125,0.45605c0.10547,0.1748,0.16602,0.38965,0.17383,0.5957L207.79688,335.06152z"/>
		
			<path fill="#A3A3A3" stroke="#A3A3A3" stroke-width="0.25" stroke-linecap="round" stroke-linejoin="round" stroke-miterlimit="10" d="
			M212.0791,338.22119c-0.01855-0.18652-0.07617-0.43604-0.17871-0.64893c-0.10742-0.21777-0.26855-0.43018-0.45898-0.58496
			c-0.75391-0.61084-1.80469-0.45801-2.41602,0.29639c-0.71875,0.88525-0.36133,1.91406,0.23438,2.39893
			c0.2207,0.17871,0.48828,0.28955,0.73047,0.34033c0.26172,0.05908,0.49219,0.04395,0.59961,0.03271l-0.36523,0.44971
			c-0.57324-0.03516-0.99707-0.28271-1.24219-0.48096c-0.96875-0.78613-1.0918-2.104-0.32422-3.04834
			c0.79004-0.97363,2.10742-1.10596,3.08594-0.31104c0.19531,0.1582,0.55176,0.48975,0.70117,1.10645L212.0791,338.22119z"/>
		
			<path fill="#A3A3A3" stroke="#A3A3A3" stroke-width="0.25" stroke-linecap="round" stroke-linejoin="round" stroke-miterlimit="10" d="
			M211.46973,341.33447c0.15332,0.18848,0.12207,0.48047-0.06641,0.63232c-0.18945,0.15332-0.48145,0.12207-0.63379-0.06641
			c-0.15234-0.19043-0.12109-0.48145,0.06641-0.6333C211.02539,341.11475,211.31738,341.14502,211.46973,341.33447z"/>
	</g>
	<g>
		
			<ellipse transform="matrix(0.08248 -0.99659 0.99659 0.08248 7.76543 241.42732)" fill="none" cx="134.99962" cy="116.49633" rx="25.57993" ry="25.57996"/>
		<path fill="#A3A3A3" stroke="#A3A3A3" stroke-width="0.25" stroke-miterlimit="10" d="M106.70215,105.84863l4.37793,1.61182
			l-0.17969,0.48633l-4.37793-1.61182L106.70215,105.84863z"/>
		<path fill="#A3A3A3" stroke="#A3A3A3" stroke-width="0.25" stroke-miterlimit="10" d="M107.44434,104.05225l4.26855,1.8916
			l-0.20898,0.47412l-4.26953-1.89258L107.44434,104.05225z"/>
		<path fill="#A3A3A3" stroke="#A3A3A3" stroke-width="0.25" stroke-miterlimit="10" d="M108.30176,102.31248l4.1377,2.16406
			l-0.24023,0.45898l-4.1377-2.16406L108.30176,102.31248z"/>
		<path fill="#A3A3A3" stroke="#A3A3A3" stroke-width="0.25" stroke-miterlimit="10" d="M112.54883,103.00684
			c0.09766-0.1626,0.31836-0.21826,0.48145-0.12109c0.16113,0.09863,0.2168,0.31982,0.12012,0.48096
			c-0.09766,0.1626-0.31934,0.21729-0.48047,0.11963C112.50684,103.38914,112.45215,103.16795,112.54883,103.00684z"/>
		<path fill="#A3A3A3" stroke="#A3A3A3" stroke-width="0.25" stroke-miterlimit="10" d="M112.19336,97.40721l3.23047,2.65479
			l-0.32813,0.3999l-3.23047-2.65479l-0.7207,0.87695l-0.37891-0.31104l1.76953-2.1543l0.37891,0.31055L112.19336,97.40721z"/>
		<path fill="#A3A3A3" stroke="#A3A3A3" stroke-width="0.25" stroke-miterlimit="10" d="M113.41211,95.17088l3.19922,1.87354
			l-1.29688-3.79444l3.4707,1.95557l-1.21875-3.55127l0.4375-0.37012l1.67871,5.0127l-3.46094-1.96484l1.29199,3.80127
			l-4.53906-2.59131L113.41211,95.17088z"/>
		<path fill="#A3A3A3" stroke="#A3A3A3" stroke-width="0.25" stroke-miterlimit="10" d="M120.14551,92.76463
			c-0.63379-1.24121-0.13184-2.64648,1.06543-3.25732c1.19824-0.61182,2.63086-0.19385,3.26465,1.04736
			c0.62988,1.23535,0.1377,2.64307-1.06738,3.25732C122.20508,94.42674,120.77637,93.99949,120.14551,92.76463z M120.61914,92.52197
			c0.48828,0.95557,1.63086,1.33154,2.56738,0.85352c0.93555-0.47803,1.30176-1.62451,0.81445-2.5791
			c-0.48633-0.95459-1.62988-1.33057-2.56543-0.85303C120.49902,90.42188,120.13281,91.56834,120.61914,92.52197z"/>
		<path fill="#A3A3A3" stroke="#A3A3A3" stroke-width="0.25" stroke-miterlimit="10" d="M126.97656,89.6787
			c-0.28223-1.36279,0.57422-2.58203,1.88965-2.85352s2.58496,0.50928,2.86621,1.87207
			c0.2793,1.35742-0.56836,2.58301-1.89063,2.85596C128.51953,91.82664,127.25684,91.03613,126.97656,89.6787z M127.49707,89.57227
			c0.21582,1.04883,1.21875,1.71338,2.24609,1.50146c1.02832-0.2124,1.68457-1.21973,1.46777-2.26758
			c-0.21582-1.04883-1.21777-1.71338-2.24512-1.50146C127.9375,87.51756,127.28125,88.52439,127.49707,89.57227z"/>
		<path fill="#A3A3A3" stroke="#A3A3A3" stroke-width="0.25" stroke-miterlimit="10" d="M133.63184,86.30811
			c0.46777-0.02002,0.86133,0.01953,1.18848,0.2793c0.35352,0.27881,0.45508,0.68799,0.4668,0.98193
			c0.0293,0.65625-0.35645,1.32324-1.41895,1.36865l-0.4541,0.01855l0.08496,2.02686l-0.51758,0.021l-0.19434-4.66016
			L133.63184,86.30811z M133.39258,88.46729l0.42676-0.01758c0.61523-0.02637,0.97266-0.34912,0.9502-0.88721
			c-0.03125-0.74023-0.72559-0.78125-1.06152-0.76709l-0.38379,0.01563L133.39258,88.46729z"/>
		<path fill="#A3A3A3" stroke="#A3A3A3" stroke-width="0.25" stroke-miterlimit="10" d="M138.78125,86.97459l-1.89648-0.15479
			l-0.1123,1.37988l1.83984,0.1499l-0.04004,0.4873l-1.83984-0.1499l-0.14746,1.80566l1.89551,0.15479l-0.03906,0.4873
			l-2.41211-0.19629l0.37988-4.6499l2.41113,0.19727L138.78125,86.97459z"/>
		<path fill="#A3A3A3" stroke="#A3A3A3" stroke-width="0.25" stroke-miterlimit="10" d="M140.92969,86.85008
			c0.30859,0.06543,0.76172,0.18408,1.05469,0.48926c0.22949,0.23486,0.3877,0.63379,0.2832,1.12109
			c-0.14844,0.69873-0.7168,1.11328-1.41797,1.01514l1.01563,2.34912L141.25,91.69334l-0.96484-2.29541l-0.12891-0.02881
			l-0.42676,2.00098l-0.50684-0.10889l0.97461-4.56738L140.92969,86.85008z M140.25195,88.91747l0.32227,0.06836
			c0.62891,0.13477,1.07031-0.08643,1.18457-0.62012c0.05371-0.25342,0.03223-0.52246-0.21973-0.74854
			c-0.18066-0.16016-0.41113-0.22363-0.62891-0.27051l-0.30859-0.06543L140.25195,88.91747z"/>
		<path fill="#A3A3A3" stroke="#A3A3A3" stroke-width="0.25" stroke-miterlimit="10" d="M145.37305,91.68311l-1.86035-0.69922
			l-0.9873,1.03467l-0.53711-0.20264l3.73438-3.82471l0.23633,5.31934l-0.53711-0.20264L145.37305,91.68311z M145.35645,91.15281
			l-0.07617-2.02588l-1.40527,1.46924L145.35645,91.15281z"/>
		<path fill="#A3A3A3" stroke="#A3A3A3" stroke-width="0.25" stroke-miterlimit="10" d="M149.06836,90.29688l-1.94727,3.69629
			l-0.45801-0.2417l1.94727-3.69629l-1.00293-0.52832l0.22852-0.43311l2.46289,1.29785l-0.22852,0.43311L149.06836,90.29688z"/>
		<path fill="#A3A3A3" stroke="#A3A3A3" stroke-width="0.25" stroke-miterlimit="10" d="M149.56836,92.59081
			c0.82422-1.12158,2.30273-1.30273,3.38477-0.50732c1.08203,0.79639,1.35059,2.26221,0.52539,3.38281
			c-0.82031,1.11719-2.29688,1.30566-3.38477,0.50635C149.00684,95.17381,148.74805,93.70702,149.56836,92.59081z
			 M149.99609,92.90574c-0.63379,0.8623-0.45703,2.05078,0.3877,2.67285c0.8457,0.62207,2.03223,0.43555,2.66699-0.42627
			c0.63379-0.8623,0.45703-2.05176-0.3877-2.67285C151.81836,91.8574,150.62988,92.04395,149.99609,92.90574z"/>
		<path fill="#A3A3A3" stroke="#A3A3A3" stroke-width="0.25" stroke-miterlimit="10" d="M156.48633,95.21581
			c0.21875,0.22607,0.5293,0.57813,0.60156,0.99512c0.05859,0.32422-0.03223,0.74316-0.39063,1.08887
			c-0.5127,0.49609-1.2168,0.52393-1.74414,0.0498l-0.46777,2.51807l-0.43848-0.45313l0.48242-2.44336l-0.09277-0.09619
			l-1.46973,1.42188l-0.36133-0.37256l3.35938-3.24658L156.48633,95.21581z M154.76953,96.55467l0.22754,0.23584
			c0.44824,0.46289,0.93848,0.52637,1.33105,0.14697c0.18555-0.18018,0.31836-0.41602,0.23438-0.74414
			c-0.05957-0.2334-0.21484-0.41553-0.37109-0.57715l-0.21875-0.22607L154.76953,96.55467z"/>
		<path fill="#A3A3A3" stroke="#A3A3A3" stroke-width="0.25" stroke-miterlimit="10" d="M160.48242,101.08202l-0.89063-1.34131
			l-1.14844,0.76221l0.85938,1.2959l-0.4082,0.27051l-0.85938-1.29395l-1.92578,1.27783l-0.28613-0.43115l3.89063-2.58398
			l1.17773,1.77393L160.48242,101.08202z"/>
		<path fill="#A3A3A3" stroke="#A3A3A3" stroke-width="0.25" stroke-miterlimit="10" d="M157.36719,103.81834l4.82422-1.28516
			l-2.88086,3.23535l4.35254,0.07227l-4.21973,2.66455l-0.21582-0.48633l2.79297-1.71973l-3.79492-0.05859l2.5166-2.82861
			l-3.15918,0.89209L157.36719,103.81834z"/>
	</g>
	<g>
		<circle fill="none" cx="83.5" cy="145.5" r="28.59473"/>
		<path fill="#A3A3A3" stroke="#A3A3A3" stroke-width="0.25" stroke-linejoin="round" stroke-miterlimit="10" d="
			M71.97168,174.69434l2.4209-5.16064l0.71289,4.89551l3.26074-3.75098l-0.77148,5.64648l-0.58398-0.16943l0.5498-3.70459
			l-2.83984,3.27393l-0.625-4.27881l-1.54102,3.41797L71.97168,174.69434z"/>
		<path fill="#A3A3A3" stroke="#A3A3A3" stroke-width="0.25" stroke-linejoin="round" stroke-miterlimit="10" d="
			M80.10352,174.01172c0.03125-1.59033,1.29492-2.73438,2.83008-2.70313c1.53516,0.03027,2.75195,1.22266,2.7207,2.81445
			c-0.03125,1.58252-1.28711,2.73438-2.83008,2.70313C81.28027,176.7959,80.07227,175.5957,80.10352,174.01172z M80.71094,174.02393
			c-0.02344,1.22412,0.92383,2.21924,2.12402,2.24365c1.2002,0.02295,2.18652-0.93213,2.21191-2.15674
			c0.02344-1.22363-0.92383-2.21875-2.12402-2.2417C81.72266,171.84424,80.73535,172.80176,80.71094,174.02393z"/>
		<path fill="#A3A3A3" stroke="#A3A3A3" stroke-width="0.25" stroke-linejoin="round" stroke-miterlimit="10" d="
			M86.99902,171.22803l1.06348-0.22363c0.52539-0.1084,1.2793-0.20898,2.05273,0.20898
			c0.56055,0.29932,1.11426,0.87793,1.31055,1.81738c0.22852,1.0957-0.18945,1.79492-0.49805,2.19385
			c-0.39258,0.50684-0.85156,0.80664-1.7832,1.00098l-1.05664,0.22021L86.99902,171.22803z M88.55273,175.77734l0.50879-0.10645
			c0.41504-0.08545,0.97559-0.25244,1.39648-0.78076c0.32324-0.41016,0.52832-0.99219,0.37207-1.73535
			c-0.26074-1.25244-1.30664-1.88281-2.62891-1.60693l-0.50977,0.10645L88.55273,175.77734z"/>
		<path fill="#A3A3A3" stroke="#A3A3A3" stroke-width="0.25" stroke-linejoin="round" stroke-miterlimit="10" d="
			M94.09082,174.11719c0.20215-0.07471,0.43848,0.03418,0.5127,0.23633c0.07617,0.20264-0.0332,0.43896-0.23438,0.51465
			c-0.20313,0.07422-0.43945-0.03467-0.51465-0.23682C93.7793,174.42871,93.88867,174.19238,94.09082,174.11719z"/>
	</g>
	<g>
		<circle fill="none" cx="186.44551" cy="145.5" r="28.59473"/>
		<path fill="#A3A3A3" stroke="#A3A3A3" stroke-width="0.25" stroke-linejoin="round" stroke-miterlimit="10" d="
			M173.55371,168.66895l-1.55762-0.97607l-0.83691,1.33545l1.50488,0.94189l-0.29785,0.47461l-1.50488-0.94287l-1.40039,2.23682
			l-0.50098-0.31445l2.83105-4.51904l2.06055,1.28955L173.55371,168.66895z"/>
		<path fill="#A3A3A3" stroke="#A3A3A3" stroke-width="0.25" stroke-linejoin="round" stroke-miterlimit="10" d="
			M177.46289,170.44678l-2.00195-0.854l-0.62305,1.45752l1.94434,0.83008l-0.21973,0.51514l-1.94434-0.82959l-0.81348,1.90723
			l2.00195,0.85449l-0.21875,0.51563l-2.54883-1.08789l2.09668-4.91113l2.54785,1.08789L177.46289,170.44678z"/>
		<path fill="#A3A3A3" stroke="#A3A3A3" stroke-width="0.25" stroke-linejoin="round" stroke-miterlimit="10" d="
			M181.61523,171.57666l-2.11328-0.52002l-0.37793,1.53711l2.05078,0.50439l-0.13379,0.54395l-2.05078-0.50488l-0.49414,2.01221
			l2.1123,0.52002l-0.13379,0.54248l-2.6875-0.66064l1.27344-5.17969l2.6875,0.66113L181.61523,171.57666z"/>
		<path fill="#A3A3A3" stroke="#A3A3A3" stroke-width="0.25" stroke-linejoin="round" stroke-miterlimit="10" d="
			M183.12305,171.26123l1.08594,0.05859c0.53516,0.03027,1.29102,0.12744,1.93066,0.73096
			c0.46484,0.43408,0.85059,1.13623,0.79785,2.09521c-0.06055,1.11719-0.64453,1.68555-1.04492,1.99219
			c-0.51074,0.38867-1.0332,0.56055-1.98242,0.50781l-1.07813-0.05811L183.12305,171.26123z M183.45313,176.06104l0.51855,0.02832
			c0.42383,0.02246,1.00879,0.00781,1.55176-0.396c0.41797-0.31348,0.7666-0.82227,0.80859-1.58154
			c0.06934-1.27734-0.7793-2.15771-2.12891-2.23145l-0.51953-0.02734L183.45313,176.06104z"/>
		<path fill="#A3A3A3" stroke="#A3A3A3" stroke-width="0.25" stroke-linejoin="round" stroke-miterlimit="10" d="
			M189.4209,171.23047c0.29395-0.04102,0.82715-0.09131,1.25781,0.16309c0.18457,0.10352,0.53809,0.38525,0.62793,1.02637
			c0.03711,0.26123,0.04492,0.729-0.37695,1.11084c0.76172,0.0791,1.12012,0.68262,1.19141,1.18945
			c0.07031,0.50781-0.125,0.95361-0.37891,1.2168c-0.37305,0.39063-0.85449,0.47412-1.21875,0.52588l-1.31445,0.18359
			l-0.73828-5.2832L189.4209,171.23047z M189.38086,173.60107l0.44336-0.06201c0.30859-0.04248,1.0293-0.20703,0.91504-1.02393
			c-0.12207-0.87012-0.97949-0.76709-1.14648-0.74365l-0.45898,0.06494L189.38086,173.60107z M189.7168,176.00928l0.67383-0.09424
			c0.33984-0.04736,0.66992-0.11768,0.89551-0.35059c0.18457-0.18018,0.29102-0.46045,0.24707-0.77832
			c-0.05859-0.41895-0.33887-0.62988-0.56055-0.7124c-0.21289-0.08301-0.49707-0.0918-0.91699-0.03369l-0.60254,0.08447
			L189.7168,176.00928z"/>
		<path fill="#A3A3A3" stroke="#A3A3A3" stroke-width="0.25" stroke-linejoin="round" stroke-miterlimit="10" d="
			M197.21289,170.43604c-0.21289-0.10498-0.51953-0.21191-0.81836-0.24512c-0.30664-0.03174-0.64258-0.00146-0.9375,0.09912
			c-1.16602,0.39502-1.71094,1.62744-1.31445,2.79346c0.46484,1.37012,1.8125,1.68213,2.73633,1.36816
			c0.33984-0.11621,0.64063-0.32715,0.85938-0.5542c0.23828-0.24121,0.37891-0.49951,0.43848-0.62158l0.23633,0.69629
			c-0.4248,0.59131-0.97559,0.88086-1.35449,1.00928c-1.49902,0.5083-2.99805-0.24854-3.49414-1.71045
			c-0.51172-1.50635,0.23633-3.01025,1.75-3.52441c0.30273-0.10352,0.89941-0.2627,1.66211-0.00732L197.21289,170.43604z"/>
		<path fill="#A3A3A3" stroke="#A3A3A3" stroke-width="0.25" stroke-linejoin="round" stroke-miterlimit="10" d="
			M199.69336,170.39795l0.81836-3.11768l0.69141-0.40186l-0.91016,3.40283l3.65625,1.17139l-0.70703,0.40967l-3.11621-1.02246
			l-0.05566,0.20898l1.15234,1.98535l-0.51172,0.29639l-2.67676-4.61475l0.51172-0.29639L199.69336,170.39795z"/>
	</g>
	<g>
		<circle fill="none" cx="135" cy="198.5" r="28.59473"/>
		
			<path fill="#A3A3A3" stroke="#A3A3A3" stroke-width="0.25" stroke-linecap="round" stroke-linejoin="round" stroke-miterlimit="10" d="
			M126.70117,223.04932c0.34375,0.1084,0.84766,0.29346,1.14648,0.67432c0.23438,0.29248,0.37109,0.76318,0.19923,1.30469
			c-0.24609,0.77979-0.93945,1.18848-1.72656,0.99805l0.89648,2.78662l-0.6875-0.21826l-0.8418-2.71875l-0.14453-0.04492
			l-0.70605,2.22656l-0.56445-0.17871l1.6123-5.08789L126.70117,223.04932z M125.70313,225.32715l0.35742,0.11377
			c0.70215,0.22217,1.22852,0.02002,1.41699-0.57568c0.08887-0.28174,0.09473-0.59131-0.16797-0.87549
			c-0.1875-0.20313-0.44238-0.2998-0.68555-0.37695l-0.34375-0.10986L125.70313,225.32715z"/>
		
			<path fill="#A3A3A3" stroke="#A3A3A3" stroke-width="0.25" stroke-linecap="round" stroke-linejoin="round" stroke-miterlimit="10" d="
			M131.8623,228.09424l-2.24902-0.32275l-0.84668,1.39746l-0.64941-0.09326l3.22656-5.18506l1.57129,5.87402l-0.64941-0.09326
			L131.8623,228.09424z M131.71191,227.50684l-0.58301-2.24072l-1.20605,1.98389L131.71191,227.50684z"/>
		
			<path fill="#A3A3A3" stroke="#A3A3A3" stroke-width="0.25" stroke-linecap="round" stroke-linejoin="round" stroke-miterlimit="10" d="
			M135.21387,224.96338l-0.00293,4.77295h-0.5918l0.00391-4.77295l-1.29492-0.00098v-0.55908l3.18164,0.00244v0.55908
			L135.21387,224.96338z"/>
		
			<path fill="#A3A3A3" stroke="#A3A3A3" stroke-width="0.25" stroke-linecap="round" stroke-linejoin="round" stroke-miterlimit="10" d="
			M137.83984,224.24414l0.52637,5.30859l-0.58887,0.05811l-0.52637-5.30859L137.83984,224.24414z"/>
		
			<path fill="#A3A3A3" stroke="#A3A3A3" stroke-width="0.25" stroke-linecap="round" stroke-linejoin="round" stroke-miterlimit="10" d="
			M139.41406,226.85938c-0.39258-1.54248,0.51953-2.98047,2.00781-3.36084c1.48926-0.37939,2.97852,0.44531,3.37305,1.98828
			c0.39063,1.53516-0.51172,2.97852-2.00781,3.36084S139.80664,228.39453,139.41406,226.85938z M140.00391,226.70898
			c0.30273,1.18604,1.48145,1.89209,2.64453,1.59521c1.16211-0.29639,1.85938-1.48096,1.55664-2.66699
			s-1.48145-1.89355-2.64453-1.59668C140.39844,224.3374,139.70117,225.52295,140.00391,226.70898z"/>
	</g>
	<g>
		<circle fill="none" cx="135" cy="283.5" r="28.59473"/>
		
			<path fill="#A3A3A3" stroke="#A3A3A3" stroke-width="0.25" stroke-linecap="round" stroke-linejoin="round" stroke-miterlimit="10" d="
			M117.6709,309.67383l3.43262-4.54932l-0.3125,4.93604l3.96484-2.99658l-1.91992,5.36523l-0.53711-0.28564l1.30273-3.51123
			l-3.45313,2.61572l0.27148-4.31299l-2.21289,3.0249L117.6709,309.67383z"/>
		
			<path fill="#A3A3A3" stroke="#A3A3A3" stroke-width="0.25" stroke-linecap="round" stroke-linejoin="round" stroke-miterlimit="10" d="
			M127.42578,308.27979l-1.61328,5.0874l-0.56445-0.17871l1.61328-5.0874L127.42578,308.27979z"/>
		
			<path fill="#A3A3A3" stroke="#A3A3A3" stroke-width="0.25" stroke-linecap="round" stroke-linejoin="round" stroke-miterlimit="10" d="
			M129.7207,311.49268l-0.96484-2.78711l0.66309,0.11621l0.74023,2.17041l1.46777-1.78223l0.66211,0.11719l-1.88965,2.28467
			l1.04395,2.98877l-0.66309-0.11621l-0.82617-2.37305l-1.60254,1.9458l-0.66211-0.11719L129.7207,311.49268z"/>
		
			<path fill="#A3A3A3" stroke="#A3A3A3" stroke-width="0.25" stroke-linecap="round" stroke-linejoin="round" stroke-miterlimit="10" d="
			M135.90332,312.21533c-0.2207-1.57666,0.8457-2.9043,2.36621-3.11719c1.51953-0.21289,2.91016,0.77246,3.12988,2.34814
			c0.21973,1.56787-0.83691,2.90234-2.36621,3.11621C137.50391,314.77686,136.12305,313.7832,135.90332,312.21533z
			 M136.50488,312.13086c0.16895,1.21143,1.2627,2.04297,2.4502,1.87695c1.18848-0.16602,2.01172-1.26611,1.84277-2.47705
			c-0.16895-1.21143-1.2627-2.04395-2.45117-1.87793C137.1582,309.81787,136.33594,310.91846,136.50488,312.13086z"/>
		
			<path fill="#A3A3A3" stroke="#A3A3A3" stroke-width="0.25" stroke-linecap="round" stroke-linejoin="round" stroke-miterlimit="10" d="
			M144.00879,311.27246c0.15723,0.41992,0.3291,0.87695,0.85254,1.06543c0.26563,0.09619,0.65332,0.07959,0.93164-0.02344
			c0.27734-0.10449,0.58008-0.3457,0.7168-0.59326c0.27148-0.4873,0.09961-0.94434-0.05664-1.36377l-1.14844-3.06592
			l0.55469-0.20801l1.2041,3.21582c0.15723,0.41895,0.26465,0.84082,0.13477,1.31787
			c-0.14551,0.52393-0.57129,0.98389-1.20996,1.22217c-0.63672,0.2373-1.25977,0.17285-1.71387-0.12842
			c-0.41113-0.27295-0.60645-0.66113-0.76465-1.08105l-1.2041-3.21582l0.55566-0.2085L144.00879,311.27246z"/>
		
			<path fill="#A3A3A3" stroke="#A3A3A3" stroke-width="0.25" stroke-linecap="round" stroke-linejoin="round" stroke-miterlimit="10" d="
			M148.77148,306.08643l2.44727,4.10596l-0.50781,0.30322l-2.44922-4.10645l-1.11328,0.66455l-0.28711-0.48096l2.73633-1.63135
			l0.28809,0.48096L148.77148,306.08643z"/>
	</g>
	<g>
		<circle fill="none" cx="135" cy="283.44943" r="28.59473"/>
		<path fill="#A3A3A3" d="M144.18652,255.09766c-0.02051-0.11914-0.07324-0.25879-0.1377-0.35352
			c-0.05859-0.07959-0.1748-0.19531-0.39355-0.25977c-0.37988-0.11328-0.71387,0.04492-0.81934,0.40137
			c-0.04395,0.14941-0.0293,0.24756,0.04492,0.37598c0.08105,0.14941,0.20703,0.25488,0.33105,0.36084l0.32031,0.27002
			c0.19629,0.16406,0.37207,0.32861,0.48535,0.53809c0.1377,0.25293,0.15137,0.50098,0.07031,0.77686
			c-0.20996,0.70752-0.87305,1.02393-1.5625,0.81982c-0.25293-0.0752-0.55371-0.22021-0.74219-0.55713
			c-0.13477-0.24023-0.17188-0.53906-0.15527-0.78467l0.44727,0.00781c-0.03027,0.20996,0.01172,0.40967,0.08594,0.55713
			c0.11816,0.21631,0.29297,0.31787,0.48926,0.37549c0.52344,0.15527,0.88086-0.14453,0.99512-0.53027
			c0.05078-0.17285,0.04395-0.3374-0.05664-0.50488c-0.0791-0.13574-0.20801-0.24854-0.38184-0.40039l-0.29785-0.26367
			c-0.12891-0.11328-0.29492-0.24951-0.41797-0.46777c-0.11816-0.20996-0.16406-0.41797-0.0791-0.70508
			c0.17578-0.59277,0.74707-0.85449,1.36914-0.6709c0.23535,0.07031,0.41113,0.17188,0.56348,0.35449
			c0.125,0.1499,0.21094,0.34375,0.24902,0.53711L144.18652,255.09766z"/>
		<path fill="#A3A3A3" d="M145.875,257.47949c-0.13867,0.30566-0.29004,0.63867-0.11328,1.01563
			c0.08984,0.19238,0.30371,0.38867,0.50586,0.48145c0.20117,0.0918,0.49023,0.12402,0.69434,0.06592
			c0.40039-0.11279,0.55273-0.4458,0.69238-0.75146l1.01758-2.23096l0.4043,0.18408l-1.06836,2.34033
			c-0.13965,0.30518-0.30664,0.58496-0.62793,0.76807c-0.35449,0.20068-0.82324,0.2168-1.28711,0.00586
			c-0.46387-0.21191-0.75879-0.57666-0.83984-0.97705c-0.07129-0.36182,0.03027-0.67139,0.16992-0.97705l1.06641-2.33984
			l0.4043,0.18457L145.875,257.47949z"/>
		<path fill="#A3A3A3" d="M151.37305,257.59375c0.18652,0.12012,0.51465,0.35254,0.63477,0.70898
			c0.05273,0.14893,0.11523,0.48242-0.14746,0.89063c-0.10742,0.16602-0.33203,0.43555-0.75879,0.44531
			c0.39355,0.41797,0.30176,0.93652,0.09375,1.25879c-0.20898,0.32227-0.53906,0.48047-0.81152,0.50488
			c-0.4043,0.03809-0.71777-0.14941-0.9502-0.29932l-0.83496-0.54053l2.16992-3.35938L151.37305,257.59375z M149.19824,260.45117
			l0.42969,0.27637c0.21582,0.14014,0.4375,0.26172,0.67969,0.23975c0.19238-0.01123,0.39063-0.11865,0.52051-0.32031
			c0.17285-0.26709,0.11719-0.52393,0.03223-0.6792c-0.08105-0.15234-0.2373-0.2959-0.50391-0.46875l-0.38281-0.24707
			L149.19824,260.45117z M150.1875,258.91943l0.2832,0.18213c0.19531,0.12695,0.68555,0.38574,1.02051-0.13281
			c0.3584-0.55371-0.17969-0.91602-0.28613-0.98389l-0.29102-0.18896L150.1875,258.91943z"/>
		<path fill="#A3A3A3" d="M154.17578,262.12402c0.85938-0.82813,2.13477-0.76465,2.93359,0.06445
			c0.79785,0.8291,0.81055,2.10547-0.04883,2.93359c-0.85547,0.82324-2.13086,0.76855-2.93262-0.06494
			C153.3252,264.22266,153.32031,262.94678,154.17578,262.12402z M154.49121,262.45215
			c-0.66016,0.63574-0.68457,1.66553-0.06152,2.31348c0.62402,0.64795,1.6543,0.66406,2.31445,0.02734
			c0.66211-0.63574,0.68555-1.66504,0.0625-2.31396C156.18262,261.83105,155.15234,261.81592,154.49121,262.45215z"/>
		<path fill="#A3A3A3" d="M159.91699,267.05469c0.05762-0.10547,0.10449-0.24707,0.1123-0.3623
			c0.00586-0.09863-0.0127-0.26074-0.14355-0.44775c-0.22559-0.32471-0.58496-0.41113-0.88965-0.19873
			c-0.12793,0.08887-0.17773,0.1748-0.19922,0.32129c-0.03027,0.16748,0.00098,0.32813,0.03223,0.48828l0.08105,0.41113
			c0.05078,0.25,0.08496,0.48828,0.04297,0.72217c-0.05078,0.28418-0.19434,0.48633-0.43164,0.65088
			c-0.60449,0.4209-1.31934,0.25391-1.73047-0.33643c-0.15039-0.2168-0.29395-0.51807-0.23047-0.89795
			c0.04395-0.27246,0.20215-0.52832,0.36816-0.70947l0.34473,0.28564c-0.1543,0.14453-0.24805,0.32617-0.28223,0.48828
			c-0.04199,0.2417,0.03125,0.43164,0.14746,0.59863c0.31152,0.44727,0.77832,0.4375,1.1084,0.20703
			c0.14746-0.10254,0.24512-0.23535,0.27148-0.42871c0.02344-0.15527-0.00781-0.32422-0.04785-0.55127l-0.06738-0.39111
			c-0.03125-0.16895-0.0752-0.37988-0.03516-0.62598c0.03906-0.23877,0.13281-0.42871,0.37988-0.6001
			c0.50684-0.35205,1.11621-0.19971,1.48633,0.33154c0.14063,0.20215,0.21387,0.3916,0.21875,0.62891
			c0.00391,0.19531-0.05078,0.40039-0.14258,0.57324L159.91699,267.05469z"/>
		<path fill="#A3A3A3" d="M162.32422,271.61035c0.05566-0.16895,0.10547-0.40771,0.09961-0.63281
			c-0.00977-0.23096-0.06641-0.47754-0.1709-0.68652c-0.41406-0.82568-1.38672-1.10352-2.21289-0.68848
			c-0.96973,0.4873-1.0625,1.52002-0.7334,2.17383c0.12109,0.2417,0.30957,0.44238,0.5,0.58203
			c0.2041,0.15234,0.41016,0.22998,0.50781,0.2627l-0.49414,0.24658c-0.48242-0.25391-0.75488-0.63428-0.88965-0.90283
			c-0.53223-1.06104-0.12402-2.25293,0.91113-2.77246c1.06641-0.53613,2.26074-0.13574,2.7998,0.93701
			c0.10742,0.21387,0.28906,0.64111,0.17676,1.23389L162.32422,271.61035z"/>
		<path fill="#A3A3A3" d="M163.83398,273.16113l-3.75293,1.37646l-0.15137-0.41602l3.75293-1.37744L163.83398,273.16113z"/>
		<path fill="#A3A3A3" d="M164.52637,275.32031l-3.45898,0.94238l0.29102,1.06641l-0.40625,0.11084l-0.40723-1.49512
			l3.86523-1.05322L164.52637,275.32031z"/>
		<path fill="#A3A3A3" d="M165.16309,278.17773l-3.52441,0.60742l0.18652,1.08594l-0.41309,0.07178l-0.2627-1.52295l3.93848-0.6792
			L165.16309,278.17773z"/>
		<path fill="#A3A3A3" d="M162.76465,283.04834l-0.07617-1.70166l-1.14746-0.42773l-0.02246-0.49121l4.26953,1.6499l-4.10645,1.979
			l-0.02246-0.49023L162.76465,283.04834z M163.17578,282.85547l1.56836-0.74316l-1.62988-0.61035L163.17578,282.85547z"/>
		<path fill="#A3A3A3" d="M165.10547,285.9707l-3.57031-0.27637l0.0332-0.44287l3.57129,0.27686l0.0752-0.96924l0.41895,0.03271
			l-0.18359,2.38086l-0.41895-0.03223L165.10547,285.9707z"/>
		<path fill="#A3A3A3" d="M163.40039,287.60596c1.16602,0.25928,1.82031,1.35889,1.56934,2.48389
			c-0.25,1.125-1.30859,1.84277-2.47461,1.58301c-1.16113-0.2583-1.82129-1.35254-1.56934-2.48389
			C161.17773,288.05859,162.24023,287.34717,163.40039,287.60596z M163.30176,288.05176
			c-0.89746-0.2002-1.77051,0.34961-1.96582,1.229c-0.19531,0.87891,0.36133,1.74756,1.25879,1.94678
			c0.89648,0.2002,1.76855-0.34961,1.96484-1.22949C164.75488,289.11914,164.19824,288.25098,163.30176,288.05176z"/>
		<path fill="#A3A3A3" d="M163.6377,294.31055c-0.09668,0.25146-0.26074,0.61914-0.55859,0.82422
			c-0.23145,0.16064-0.58984,0.23975-0.98633,0.08545c-0.56934-0.22217-0.84277-0.76025-0.66113-1.33936l-2.12695,0.53516
			l0.19727-0.50244l2.07227-0.49805l0.04199-0.10596l-1.63086-0.63623l0.16113-0.41309l3.72461,1.45264L163.6377,294.31055z
			 M161.98438,293.45313l-0.10254,0.2627c-0.2002,0.51367-0.0752,0.91699,0.36035,1.08643
			c0.20703,0.08057,0.43848,0.1001,0.66406-0.08252c0.15918-0.13037,0.24512-0.31592,0.31445-0.49512l0.09863-0.25098
			L161.98438,293.45313z"/>
	</g>
	<g>
		<circle fill="none" cx="135" cy="283.5" r="28.59473"/>
		<path fill="#A3A3A3" d="M104.4707,281.28076l0.0957-0.81104c0.04688-0.39844,0.15625-0.95898,0.6377-1.40967
			c0.34668-0.32715,0.88965-0.58252,1.60449-0.49756c0.83398,0.09863,1.23145,0.5625,1.44336,0.87695
			c0.26563,0.40039,0.37012,0.79883,0.28516,1.50732l-0.09473,0.8042L104.4707,281.28076z M108.07813,281.26074l0.04688-0.38721
			c0.03516-0.31494,0.05078-0.75439-0.22461-1.17969c-0.21289-0.32715-0.5791-0.61182-1.14453-0.6792
			c-0.95313-0.11279-1.65234,0.48096-1.77148,1.4873l-0.04492,0.38672L108.07813,281.26074z"/>
		<path fill="#A3A3A3" d="M107.65234,276.86914c0.32422,0.09082,0.67578,0.18994,1.02148-0.04346
			c0.17773-0.11816,0.33789-0.35889,0.39844-0.57324c0.06055-0.21289,0.04883-0.50293-0.04004-0.69678
			c-0.1748-0.37842-0.52637-0.47754-0.84961-0.56885l-2.36035-0.66406l0.11914-0.42725l2.47754,0.69727
			c0.32227,0.09082,0.62402,0.21289,0.85449,0.50244c0.25195,0.31982,0.3418,0.78076,0.20215,1.27148
			c-0.1377,0.49072-0.45313,0.83789-0.83496,0.97998c-0.34766,0.12598-0.66895,0.07324-0.99219-0.01807l-2.47656-0.69678
			l0.12012-0.42725L107.65234,276.86914z"/>
		<path fill="#A3A3A3" d="M110.13867,271.27051l-0.70801,1.55176l0.82813,0.90527l-0.20508,0.44824l-3.05176-3.41943
			l4.56348,0.10889l-0.20508,0.44824L110.13867,271.27051z M109.68359,271.25391l-1.73828-0.05273l1.1748,1.28809
			L109.68359,271.25391z"/>
		<path fill="#A3A3A3" d="M108.90039,267.60449l3.04688,1.88135l0.58008-0.93994l0.35742,0.22119l-0.8125,1.31689l-3.40625-2.10156
			L108.90039,267.60449z"/>
		<path fill="#A3A3A3" d="M113.13379,262.7417l-0.91699,1.03223l0.88477,0.78564l0.88379-0.99658l0.31543,0.2793l-0.88672,0.99561
			l1.48047,1.31494l-0.29297,0.33203l-2.99219-2.65771l1.20996-1.36426L113.13379,262.7417z"/>
		<path fill="#A3A3A3" d="M116.41602,264.40869l-2.17676-3.67871l3.33496,1.62402l-0.94824-3.60449l3.1748,2.86133l-0.35156,0.29053
			l-2.06445-1.90381l0.83008,3.14209l-2.91504-1.41846l1.46875,2.39697L116.41602,264.40869z"/>
		<path fill="#A3A3A3" d="M121.37305,258.32324c-0.49023-1.08936-0.00195-2.271,1.04883-2.74512
			c1.0498-0.47363,2.25781-0.05762,2.74902,1.03174c0.49023,1.08252,0.01074,2.26758-1.0459,2.74414
			S121.86328,259.40625,121.37305,258.32324z M121.79004,258.13477c0.37793,0.83789,1.34082,1.20654,2.16113,0.83594
			c0.82031-0.37012,1.18164-1.33691,0.80469-2.17383s-1.3418-1.20557-2.16211-0.83545
			C121.77148,256.33203,121.41211,257.29834,121.79004,258.13477z"/>
		<path fill="#A3A3A3" d="M126.67969,254.10547c0.38672-0.10791,0.72363-0.15186,1.04688,0.00146
			c0.34962,0.16406,0.51366,0.48486,0.58105,0.72803c0.15137,0.54199-0.04102,1.17432-0.91895,1.41895l-0.375,0.104l0.4668,1.6748
			l-0.42773,0.11914l-1.07227-3.85205L126.67969,254.10547z M126.90039,255.95361l0.35352-0.09766
			c0.50781-0.1416,0.74414-0.48096,0.62109-0.92578c-0.17188-0.61133-0.75977-0.51025-1.03711-0.43359l-0.31836,0.08838
			L126.90039,255.95361z"/>
	</g>
	<g>
		<circle fill="none" cx="183.01788" cy="44.24548" r="14.57799"/>
		
			<path fill="#A3A3A3" stroke="#A3A3A3" stroke-width="0.25" stroke-linecap="round" stroke-linejoin="round" stroke-miterlimit="10" d="
			M166.24805,35.74021l3.34863,1.72266l0.53027-1.03223l0.39258,0.20215l-0.74414,1.44727l-3.74121-1.92383L166.24805,35.74021z"/>
		
			<path fill="#A3A3A3" stroke="#A3A3A3" stroke-width="0.25" stroke-linecap="round" stroke-linejoin="round" stroke-miterlimit="10" d="
			M169.2168,32.07811l-1.04492,1.35742l0.98828,0.76074l1.01367-1.31641l0.34863,0.26953l-1.01465,1.31641l1.29199,0.99512
			l1.0459-1.35645l0.34961,0.26855l-1.33008,1.72559l-3.32715-2.5625l1.3291-1.72656L169.2168,32.07811z"/>
		
			<path fill="#A3A3A3" stroke="#A3A3A3" stroke-width="0.25" stroke-linecap="round" stroke-linejoin="round" stroke-miterlimit="10" d="
			M170.10156,30.52244l2.96387,1.70703l-1.1416-3.22363l0.39648-0.33105l1.54297,4.51465l-4.1582-2.33691L170.10156,30.52244z"/>
		
			<path fill="#A3A3A3" stroke="#A3A3A3" stroke-width="0.25" stroke-linecap="round" stroke-linejoin="round" stroke-miterlimit="10" d="
			M175.77051,27.31736l-1.52832,0.77832l0.56641,1.1123l1.4834-0.75488l0.2002,0.39258l-1.4834,0.75586l0.74023,1.45508
			l1.52832-0.77832l0.20117,0.39453l-1.94531,0.98926l-1.90625-3.74805l1.94336-0.98926L175.77051,27.31736z"/>
		
			<path fill="#A3A3A3" stroke="#A3A3A3" stroke-width="0.25" stroke-linecap="round" stroke-linejoin="round" stroke-miterlimit="10" d="
			M177.54785,26.24705l1.07031,3.60156l1.11035-0.33008l0.125,0.42285l-1.55664,0.46191l-1.19531-4.02441L177.54785,26.24705z"/>
		
			<path fill="#A3A3A3" stroke="#A3A3A3" stroke-width="0.25" stroke-linecap="round" stroke-linejoin="round" stroke-miterlimit="10" d="
			M182.82813,27.35643l1.97949,0.0918l-0.03027,0.66504l-1.97949-0.0918L182.82813,27.35643z"/>
		
			<path fill="#A3A3A3" stroke="#A3A3A3" stroke-width="0.25" stroke-linecap="round" stroke-linejoin="round" stroke-miterlimit="10" d="
			M190.83496,29.46482l1.5625,0.79395l-0.0459,0.08984c-0.21094,0.41602-0.5625,0.80273-0.96094,1.00391
			c-0.19043,0.09473-0.87695,0.4043-1.7373-0.0332c-1.11328-0.56543-1.51465-1.83594-0.96094-2.92676
			s1.82324-1.51465,2.94043-0.94629c0.36035,0.18262,0.73633,0.48633,0.95898,0.95313
			c0.10352,0.21387,0.17578,0.46289,0.20801,0.66406l-0.45215,0.12402c-0.03027-0.20703-0.08398-0.4043-0.15723-0.56738
			c-0.10547-0.23828-0.30176-0.5498-0.75098-0.77734c-0.9043-0.45996-1.88086-0.09961-2.32227,0.77148
			c-0.51953,1.02441,0.0332,1.95508,0.74219,2.31445c0.5,0.25391,1.06055,0.2207,1.46582-0.04688
			c0.12793-0.08398,0.29199-0.22852,0.42285-0.45801l-1.11328-0.56445L190.83496,29.46482z"/>
		
			<path fill="#A3A3A3" stroke="#A3A3A3" stroke-width="0.25" stroke-linecap="round" stroke-linejoin="round" stroke-miterlimit="10" d="
			M194.4873,33.36619l-1.30176-1.22754l-1.17969,0.51758l-0.375-0.35449l4.42773-1.87891l-1.65039,4.49707l-0.37598-0.35449
			L194.4873,33.36619z M194.65625,32.92088l0.64063-1.70898l-1.67676,0.73145L194.65625,32.92088z"/>
		
			<path fill="#A3A3A3" stroke="#A3A3A3" stroke-width="0.25" stroke-linecap="round" stroke-linejoin="round" stroke-miterlimit="10" d="
			M198.21289,33.93943l-3.08789,2.14941l-0.26758-0.38281l3.08887-2.15039l-0.58301-0.83691l0.36133-0.25293l1.43359,2.05859
			l-0.3623,0.25195L198.21289,33.93943z"/>
		
			<path fill="#A3A3A3" stroke="#A3A3A3" stroke-width="0.25" stroke-linecap="round" stroke-linejoin="round" stroke-miterlimit="10" d="
			M200.29883,37.9658l-0.68555-1.57031l-1.14258,0.5l0.66602,1.52246l-0.4043,0.17676l-0.66504-1.52344l-1.49512,0.65234
			l0.68555,1.57031l-0.4043,0.17578l-0.87109-1.99707l3.84961-1.68066l0.87109,1.99707L200.29883,37.9658z"/>
	</g>
	<g>
		<circle fill="none" cx="183.01788" cy="44.24548" r="13.74777"/>
		
			<path fill="#A3A3A3" stroke="#A3A3A3" stroke-width="0.25" stroke-linecap="round" stroke-linejoin="round" stroke-miterlimit="10" d="
			M175.6582,57.02537l-2.03613,3.40332l-0.37793-0.22607l2.03613-3.40381L175.6582,57.02537z"/>
		
			<path fill="#A3A3A3" stroke="#A3A3A3" stroke-width="0.25" stroke-linecap="round" stroke-linejoin="round" stroke-miterlimit="10" d="
			M175.52734,61.49021l1.29004-3.92285l1.92285,4.04102l0.95898-2.91748l0.41797,0.13721l-1.29297,3.93311l-1.92383-4.04004
			l-0.95508,2.90527L175.52734,61.49021z"/>
		
			<path fill="#A3A3A3" stroke="#A3A3A3" stroke-width="0.25" stroke-linecap="round" stroke-linejoin="round" stroke-miterlimit="10" d="
			M182.10938,58.97215c0.39844,0.02051,0.72852,0.08545,0.98242,0.33105c0.27832,0.26514,0.33105,0.61963,0.31836,0.86865
			c-0.0293,0.55859-0.41016,1.09229-1.3125,1.04541l-0.38574-0.021l-0.09082,1.72168l-0.43945-0.02295l0.20898-3.96143
			L182.10938,58.97215z M181.73438,60.78025l0.36133,0.01904c0.52344,0.02734,0.85156-0.21631,0.87598-0.6748
			c0.0332-0.62891-0.55176-0.71973-0.83691-0.73486l-0.32617-0.0166L181.73438,60.78025z"/>
		
			<path fill="#A3A3A3" stroke="#A3A3A3" stroke-width="0.25" stroke-linecap="round" stroke-linejoin="round" stroke-miterlimit="10" d="
			M185.21094,61.31834c0.06055,0.32715,0.12695,0.68359,0.48633,0.89063c0.18164,0.104,0.46777,0.14258,0.68359,0.10205
			c0.2168-0.04004,0.46875-0.17822,0.60156-0.34229c0.26172-0.32031,0.19531-0.67676,0.13477-1.00488l-0.44531-2.39209
			l0.43359-0.08057l0.46582,2.50977c0.06152,0.32666,0.08496,0.64941-0.07129,0.98145
			c-0.17383,0.36523-0.5459,0.64648-1.04297,0.7373c-0.49609,0.09229-0.94434-0.03564-1.23828-0.31396
			c-0.26465-0.25391-0.3584-0.5625-0.41895-0.88965l-0.4668-2.50977l0.43262-0.08057L185.21094,61.31834z"/>
		
			<path fill="#A3A3A3" stroke="#A3A3A3" stroke-width="0.25" stroke-linecap="round" stroke-linejoin="round" stroke-miterlimit="10" d="
			M189.36719,58.03416l1.43945,3.24072l-0.40039,0.1792l-1.44141-3.24023l-0.87891,0.38965l-0.16992-0.37891l2.16016-0.96094
			l0.16992,0.37988L189.36719,58.03416z"/>
	</g>
	<g>
		<path fill="#A3A3A3" d="M135.01257,94.38394c-12.34584,0-22.35632,10.0092-22.35632,22.3576
			c0,12.34777,10.01048,22.35761,22.35632,22.35761c12.34839,0,22.35887-10.00984,22.35887-22.3576
			C157.37144,104.39314,147.36096,94.38394,135.01257,94.38394z"/>
	</g>
	<g>
		<path fill="#A3A3A3" d="M108.41797,216.26367c0.21582,0,0.40039,0.18408,0.40039,0.3999s-0.18457,0.3999-0.40039,0.3999
			s-0.40039-0.18408-0.40039-0.3999S108.20215,216.26367,108.41797,216.26367z"/>
		<path fill="#A3A3A3" d="M113.16016,212.19385h-1.71094l-0.34375,1.15137c0.10352-0.02393,0.20801-0.03174,0.33594-0.03174
			c1.07129,0,1.75977,0.80762,1.75977,1.84668c0,1.19141-0.89648,1.91895-1.94336,1.91895
			c-0.43164,0-0.83203-0.11963-1.19141-0.41553c-0.16797-0.14404-0.33594-0.32764-0.46387-0.54346l0.47168-0.33594
			c0.08789,0.17578,0.19922,0.30371,0.35938,0.43164c0.22461,0.18408,0.49609,0.31982,0.86328,0.31982
			c0.75195,0,1.3125-0.61572,1.3125-1.36719c0-0.76758-0.55273-1.31152-1.3125-1.31152c-0.19141,0-0.55078,0.03223-1.03125,0.36816
			l0.77539-2.57471h2.11914v0.54346H113.16016z"/>
	</g>
	<g>
		<path fill="#A3A3A3" d="M57.87109,162.88281c-0.35156-0.51172-0.53516-1.19922-0.53516-1.95898
			c0-0.75928,0.18359-1.44727,0.53516-1.95898c0.4082-0.59131,0.94434-0.79932,1.36719-0.79932
			c0.42383,0,0.96094,0.20801,1.36816,0.79932c0.35156,0.51172,0.53613,1.19971,0.53613,1.95898
			c0,0.75977-0.18457,1.44727-0.53613,1.95898c-0.40723,0.5918-0.94434,0.79932-1.36816,0.79932
			C58.81543,163.68213,58.2793,163.47461,57.87109,162.88281z M58.31934,159.30078c-0.28809,0.45557-0.3916,1.06348-0.3916,1.62305
			s0.10352,1.16748,0.3916,1.62305c0.28027,0.44775,0.64746,0.5918,0.91895,0.5918c0.27246,0,0.64063-0.14404,0.91992-0.5918
			c0.28809-0.45557,0.39258-1.06348,0.39258-1.62305s-0.10449-1.16748-0.39258-1.62305
			c-0.2793-0.44775-0.64746-0.5918-0.91992-0.5918C58.9668,158.70898,58.59961,158.85303,58.31934,159.30078z"/>
	</g>
	<g>
		<path fill="#A3A3A3" d="M106.85547,158.81299h-0.89648l0.3125-0.55957h1.17578v5.33301h-0.5918
			C106.85548,163.58643,106.85548,158.81299,106.85547,158.81299z"/>
	</g>
	<g>
		<path fill="#A3A3A3" d="M160.49219,215.51221c0,0.83154-0.54297,1.56689-1.63086,1.56689
			c-1.08691,0-1.63086-0.73535-1.63086-1.56689c0-0.57568,0.26367-1.06348,0.80762-1.30322
			c-0.42383-0.24805-0.64746-0.67188-0.64746-1.16748c0-0.75928,0.51172-1.479,1.4707-1.479
			c0.95996,0,1.47168,0.71973,1.47168,1.479c0,0.49561-0.22363,0.91943-0.64746,1.16748
			C160.22852,214.44873,160.49219,214.93652,160.49219,215.51221z M159.90039,215.49609c0-0.59961-0.43164-1.01514-1.03906-1.01514
			s-1.03906,0.41553-1.03906,1.01514c0,0.60791,0.42383,1.03955,1.03906,1.03955S159.90039,216.104,159.90039,215.49609z
			 M159.77344,213.0498c0-0.58398-0.42383-0.94385-0.91211-0.94385c-0.4873,0-0.91113,0.35986-0.91113,0.94385
			c0,0.52734,0.3916,0.91943,0.91113,0.91943S159.77344,213.57715,159.77344,213.0498z"/>
	</g>
	<g>
		<path fill="#A3A3A3" d="M133.37891,172.6582l1.94238-2.24658c0.13574-0.16016,0.49512-0.58398,0.62402-0.77588
			c0.23926-0.34375,0.29492-0.59961,0.29492-0.81543c0-0.59961-0.43164-1.03955-1.0625-1.03955
			c-0.37598,0-0.6875,0.16797-0.8877,0.47168c-0.10449,0.16016-0.16797,0.35986-0.17676,0.63184h-0.59082
			c0.02441-0.53564,0.19141-0.86377,0.39941-1.10352c0.22461-0.25586,0.59961-0.54346,1.26367-0.54346
			c0.94336,0,1.64648,0.67139,1.64648,1.59082c0,0.35986-0.10352,0.68799-0.42383,1.14355
			c-0.22363,0.31201-0.51172,0.63965-0.72656,0.8877l-1.11133,1.25488h2.25391v0.54395H133.37891z"/>
	</g>
	<g>
		<path fill="#A3A3A3" d="M105.78906,190.75488h-0.89648l0.3125-0.55957h1.17578v5.33301h-0.5918
			C105.78907,195.52832,105.78907,190.75488,105.78906,190.75488z"/>
	</g>
	<path fill="#A3A3A3" d="M162.32123,160.79759v1.18205h-1.73567v-0.88562h1.18211v-1.18079h1.18332v-2.99007h-2.99011v1.18082
		h-1.1833v2.99004h1.1833v1.51028h2.36035v1.18332h2.9901v-2.99004H162.32123z M160.58556,157.54788h1.74075v1.74069h-0.55864
		v-1.18459h-1.18211V157.54788z M159.40224,160.46936v-1.74071h1.74075v1.74071H159.40224z M164.68666,163.16296h-1.74075v-1.74071
		h1.74075V163.16296z"/>
	<path fill="#A3A3A3" d="M210.80043,160.79759v1.18205h-1.73567v-0.88562h1.1821v-1.18079v-0.62466v-1.18459h-1.1821v-0.55611
		h2.73132v3.25415L210.80043,160.79759z M212.42075,160.80203v-3.87886h-3.98067v1.18082h-1.18332v2.99004h1.18332v1.51028h2.36035
		v1.18332h2.9901v-2.99004L212.42075,160.80203z M207.88144,160.46936v-1.74071h1.74075v1.74071H207.88144z M213.16586,163.16296
		h-1.74077v-1.74071h1.74077V163.16296z"/>
	<path fill="#A3A3A3" d="M186.43935,116.59332v1.18204h-1.73567v-0.88561h1.1821v-1.18078v-0.62467v-1.18459h-2.9901v2.99004
		h1.18332v1.51028h2.36035v1.18332h2.9901v-2.99004h-2.9901V116.59332z M183.52036,116.26508v-1.74069h1.74075v1.74069H183.52036z
		 M188.80478,118.95868h-1.74075v-1.74068h1.74075V118.95868z"/>
	<g>
		<circle fill="none" cx="134.71875" cy="43.99998" r="14.57799"/>
		
			<path fill="#A3A3A3" stroke="#A3A3A3" stroke-width="0.25" stroke-linecap="round" stroke-linejoin="round" stroke-miterlimit="10" d="
			M123.45605,29.49168l2.34863,2.93262l-0.36523,0.2915l-2.34668-2.93311l-0.7959,0.63672l-0.27539-0.34326l1.95605-1.56494
			l0.27441,0.34326L123.45605,29.49168z"/>
		
			<path fill="#A3A3A3" stroke="#A3A3A3" stroke-width="0.25" stroke-linecap="round" stroke-linejoin="round" stroke-miterlimit="10" d="
			M125.91992,27.36814c0.25391-0.12793,0.63867-0.30176,1.0166-0.25293c0.29199,0.03467,0.62891,0.2251,0.83105,0.625
			c0.29005,0.57227,0.12695,1.18408-0.4209,1.51074l2.03809,1.07178l-0.50586,0.25635l-1.9707-1.06396l-0.10645,0.05469
			l0.83008,1.64014l-0.41602,0.21094l-1.89746-3.74902L125.91992,27.36814z M126.61328,29.19822l0.26465-0.13379
			c0.5166-0.26123,0.7002-0.66553,0.47949-1.10303c-0.10547-0.2085-0.27246-0.38574-0.57617-0.3999
			c-0.2168-0.01074-0.41406,0.07422-0.59375,0.16553l-0.25391,0.12793L126.61328,29.19822z"/>
		
			<path fill="#A3A3A3" stroke="#A3A3A3" stroke-width="0.25" stroke-linecap="round" stroke-linejoin="round" stroke-miterlimit="10" d="
			M129.48047,25.92967l1.2168,4.02197L130.25,30.08641l-1.21484-4.02295L129.48047,25.92967z"/>
		
			<path fill="#A3A3A3" stroke="#A3A3A3" stroke-width="0.25" stroke-linecap="round" stroke-linejoin="round" stroke-miterlimit="10" d="
			M133.82422,27.30271l1.74805-0.12061l0.00781,0.10059c0.03125,0.46484-0.07129,0.97754-0.31055,1.35498
			c-0.11426,0.17822-0.54492,0.79492-1.50781,0.8623c-1.24414,0.08594-2.24023-0.79932-2.3252-2.01855
			c-0.08398-1.21973,0.78613-2.2334,2.03809-2.32178c0.40234-0.02783,0.88086,0.04102,1.31055,0.32764
			c0.19922,0.13037,0.38867,0.30762,0.51953,0.46289l-0.32422,0.33789c-0.13086-0.16211-0.28027-0.30273-0.42578-0.40723
			c-0.21289-0.14893-0.54102-0.31543-1.04297-0.28076c-1.0127,0.0708-1.66406,0.87939-1.59668,1.85352
			c0.0791,1.14551,1.03027,1.66064,1.82324,1.60596c0.55957-0.03857,1.02344-0.35547,1.23438-0.79346
			c0.06641-0.1377,0.13281-0.34521,0.12793-0.60938l-1.24512,0.08691L133.82422,27.30271z"/>
		
			<path fill="#A3A3A3" stroke="#A3A3A3" stroke-width="0.25" stroke-linecap="round" stroke-linejoin="round" stroke-miterlimit="10" d="
			M139.24414,27.89744l1.69336,0.44092l-0.02441,0.09863c-0.11816,0.44971-0.37891,0.90234-0.72559,1.18311
			c-0.16406,0.1333-0.76953,0.58105-1.70117,0.33887c-1.20703-0.31494-1.86914-1.46973-1.56152-2.65234
			c0.30762-1.18164,1.45605-1.86621,2.66895-1.55078c0.38965,0.10205,0.82129,0.31836,1.13867,0.72607
			c0.14648,0.18799,0.26953,0.41455,0.34375,0.604l-0.41504,0.21777c-0.07324-0.19434-0.16895-0.37695-0.27441-0.52051
			c-0.1543-0.20898-0.41113-0.47217-0.89844-0.59814c-0.98145-0.25586-1.85547,0.30371-2.10156,1.24902
			c-0.28906,1.10791,0.44727,1.89941,1.2168,2.09961c0.54199,0.14111,1.08301-0.01074,1.4209-0.35889
			c0.10645-0.10938,0.23535-0.28418,0.31543-0.53711l-1.20703-0.31348L139.24414,27.89744z"/>
		
			<path fill="#A3A3A3" stroke="#A3A3A3" stroke-width="0.25" stroke-linecap="round" stroke-linejoin="round" stroke-miterlimit="10" d="
			M144.95313,28.70213l-1.48242-0.85889l-0.62695,1.07813l1.43945,0.83496l-0.2207,0.38135l-1.43945-0.83398l-0.81836,1.41162
			l1.48242,0.85889l-0.2207,0.38184l-1.88672-1.09424l2.10742-3.63428l1.88672,1.09326L144.95313,28.70213z"/>
		
			<path fill="#A3A3A3" stroke="#A3A3A3" stroke-width="0.25" stroke-linecap="round" stroke-linejoin="round" stroke-miterlimit="10" d="
			M147.17188,29.90135c0.20898,0.19287,0.50781,0.49268,0.59375,0.86377c0.07031,0.28711,0.00977,0.66943-0.29297,0.99854
			c-0.43555,0.47314-1.06641,0.53564-1.56641,0.13721l-0.28711,2.2876l-0.41797-0.38428l0.30469-2.22217l-0.08887-0.07959
			l-1.24707,1.354l-0.34375-0.31543l2.84961-3.09619L147.17188,29.90135z M145.69922,31.19529l0.21875,0.20068
			c0.42578,0.39209,0.86914,0.42383,1.20313,0.06152c0.15723-0.17188,0.26367-0.39014,0.17188-0.68115
			c-0.06641-0.20752-0.2168-0.36182-0.36426-0.49854l-0.20898-0.19287L145.69922,31.19529z"/>
	</g>
	<g>
		<g>
			
				<path fill="#A3A3A3" stroke="#A3A3A3" stroke-width="0.25" stroke-linecap="round" stroke-linejoin="round" stroke-miterlimit="10" d="
				M127.11914,56.91307l-2.23633,3.55322l-0.39453-0.24756l2.2373-3.55371L127.11914,56.91307z"/>
			
				<path fill="#A3A3A3" stroke="#A3A3A3" stroke-width="0.25" stroke-linecap="round" stroke-linejoin="round" stroke-miterlimit="10" d="
				M126.86719,61.62693l1.41992-4.14551l1.98828,4.3125l1.05664-3.08301l0.44141,0.15088l-1.42383,4.15869l-1.98828-4.31348
				l-1.05273,3.07178L126.86719,61.62693z"/>
			
				<path fill="#A3A3A3" stroke="#A3A3A3" stroke-width="0.25" stroke-linecap="round" stroke-linejoin="round" stroke-miterlimit="10" d="
				M133.84766,59.02781c0.42188,0.02393,0.77148,0.09277,1.04102,0.354c0.29395,0.28076,0.34961,0.65674,0.33398,0.92139
				c-0.03125,0.59131-0.43555,1.15527-1.39258,1.104l-0.4082-0.02246l-0.10059,1.82471l-0.46582-0.02588l0.23047-4.19824
				L133.84766,59.02781z M133.44531,60.94383l0.38477,0.021c0.55371,0.02979,0.90234-0.22852,0.92871-0.71289
				c0.03711-0.66748-0.58301-0.76416-0.88477-0.78076l-0.34668-0.01904L133.44531,60.94383z"/>
			
				<path fill="#A3A3A3" stroke="#A3A3A3" stroke-width="0.25" stroke-linecap="round" stroke-linejoin="round" stroke-miterlimit="10" d="
				M137.1543,61.50682c0.06836,0.34668,0.14258,0.72363,0.52344,0.93799c0.19434,0.10791,0.49609,0.146,0.72461,0.10059
				c0.22949-0.04443,0.49609-0.19238,0.63379-0.36768c0.27246-0.34131,0.19922-0.71777,0.13184-1.06396l-0.49414-2.52539
				l0.45703-0.08936l0.51855,2.64893c0.06738,0.34619,0.0957,0.68652-0.06641,1.03857
				c-0.18066,0.38867-0.57129,0.68896-1.0957,0.7915c-0.52441,0.10205-0.99902-0.02881-1.3125-0.3208
				c-0.28223-0.26465-0.38574-0.59131-0.45215-0.93652l-0.51758-2.64941l0.45605-0.08936L137.1543,61.50682z"/>
			
				<path fill="#A3A3A3" stroke="#A3A3A3" stroke-width="0.25" stroke-linecap="round" stroke-linejoin="round" stroke-miterlimit="10" d="
				M141.47949,57.96434l1.60059,3.40088l-0.4209,0.19873l-1.60059-3.3999l-0.92383,0.43408l-0.1875-0.39893l2.26758-1.06738
				l0.1875,0.39893L141.47949,57.96434z"/>
		</g>
	</g>
</g>
<polygon fill="#262424" points="148.20949,130.6037 136.13538,130.6037 136.13538,125.82533 126.60426,125.82533 
	126.60426,119.72675 121.8259,119.72675 121.8259,107.65265 126.60426,107.65265 126.60426,102.88454 138.67836,102.88454 
	138.67836,114.95863 133.89999,114.95863 133.89999,119.72675 129.12674,119.72675 129.12674,123.30283 136.13536,123.30283 
	136.13536,118.52959 148.20947,118.52959 148.20947,130.6037 "/>
<polygon fill="#A3A3A3" points="133.90001,112.43613 136.15588,112.43613 136.15588,105.40701 129.12675,105.40701 
	129.12675,107.65263 133.90001,107.65263 "/>
<rect x="124.34839" y="110.17513" fill="#A3A3A3" width="7.02913" height="7.02913"/>
<rect x="138.65787" y="121.05209" fill="#A3A3A3" width="7.02913" height="7.02913"/>
</svg>
