<?xml version="1.0" encoding="utf-8"?>
<!-- Generator: Adobe Illustrator 24.0.2, SVG Export Plug-In . SVG Version: 6.00 Build 0)  -->
<svg version="1.0" id="Layer_1" xmlns="http://www.w3.org/2000/svg" xmlns:xlink="http://www.w3.org/1999/xlink" x="0px" y="0px"
	 width="270px" height="380px" viewBox="0 0 270 380" enable-background="new 0 0 270 380" xml:space="preserve">
<g id="_x39__1_">
	<rect y="-0.00001" fill="none" width="270" height="380"/>
	<g>
		<circle fill="#262424" stroke="#606266" stroke-width="0.5" stroke-miterlimit="10" cx="83.47665" cy="145.47665" r="34.93385"/>
		
			<line fill="none" stroke="#606266" stroke-width="0.75" stroke-miterlimit="10" x1="83.47665" y1="145.47665" x2="59.06974" y2="169.88356"/>
		
			<line fill="none" stroke="#606266" stroke-width="0.5" stroke-miterlimit="10" x1="83.47665" y1="145.47665" x2="51.11647" y2="157.6801"/>
		
			<line fill="none" stroke="#606266" stroke-width="0.5" stroke-miterlimit="10" x1="83.47665" y1="145.47665" x2="76.37699" y2="111.26492"/>
		
			<line fill="none" stroke="#606266" stroke-width="0.5" stroke-miterlimit="10" x1="83.47665" y1="145.47665" x2="90.57631" y2="111.26488"/>
		
			<line fill="none" stroke="#606266" stroke-width="0.5" stroke-miterlimit="10" x1="83.47665" y1="145.47665" x2="116.17216" y2="157.80656"/>
		
			<line fill="none" stroke="#606266" stroke-width="0.75" stroke-miterlimit="10" x1="83.47665" y1="145.47665" x2="108.1785" y2="170.17851"/>
		<circle fill="#262424" stroke="#606266" stroke-width="0.75" stroke-miterlimit="10" cx="83.47665" cy="145.47665" r="23.5"/>
	</g>
	<g>
		<circle fill="#262424" stroke="#606266" stroke-width="0.5" stroke-miterlimit="10" cx="186.44551" cy="145.5" r="34.93385"/>
		<circle fill="#262424" stroke="#606266" stroke-width="0.75" stroke-miterlimit="10" cx="186.44551" cy="145.5" r="34.93385"/>
		
			<line fill="none" stroke="#606266" stroke-width="0.75" stroke-miterlimit="10" x1="186.44551" y1="145.5" x2="161.74948" y2="170.19603"/>
		
			<line fill="none" stroke="#606266" stroke-width="0.75" stroke-miterlimit="10" x1="186.44551" y1="145.5" x2="186.5" y2="110.56614"/>
		
			<line fill="none" stroke="#606266" stroke-width="0.75" stroke-miterlimit="10" x1="186.44551" y1="145.5" x2="211.14154" y2="170.19603"/>
		<circle fill="#262424" stroke="#606266" stroke-width="0.75" stroke-miterlimit="10" cx="186.44551" cy="145.5" r="23.5"/>
	</g>
	<g>
		<circle fill="#262424" stroke="#606266" stroke-width="0.5" stroke-miterlimit="10" cx="135" cy="198.5" r="34.93385"/>
		
			<line fill="none" stroke="#606266" stroke-width="0.75" stroke-miterlimit="10" x1="135" y1="198.5" x2="110.59309" y2="222.90691"/>
		
			<line fill="none" stroke="#606266" stroke-width="0.75" stroke-miterlimit="10" x1="135" y1="198.5" x2="112.10194" y2="172.11783"/>
		
			<line fill="none" stroke="#606266" stroke-width="0.75" stroke-miterlimit="10" x1="135" y1="198.5" x2="159.70186" y2="223.20186"/>
		<circle fill="#262424" stroke="#606266" stroke-width="0.75" stroke-miterlimit="10" cx="135" cy="198.5" r="23.5"/>
	</g>
	<g>
		<circle fill="#262424" stroke="#606266" stroke-width="0.5" stroke-miterlimit="10" cx="135" cy="283.5" r="34.93385"/>
		
			<line fill="none" stroke="#606266" stroke-width="0.75" stroke-miterlimit="10" x1="135" y1="283.5" x2="110.30396" y2="308.19604"/>
		
			<line fill="none" stroke="#606266" stroke-width="0.75" stroke-miterlimit="10" x1="135" y1="283.5" x2="159.69603" y2="308.19604"/>
		<line fill="none" stroke="#606266" stroke-width="0.5" stroke-miterlimit="10" x1="135" y1="248.56616" x2="135" y2="283.5"/>
		<circle fill="#262424" stroke="#606266" stroke-width="0.75" stroke-miterlimit="10" cx="135" cy="283.5" r="23.5"/>
	</g>
	<g>
		<circle fill="none" cx="71" cy="351" r="14.578"/>
		
			<path fill="#A3A3A3" stroke="#A3A3A3" stroke-width="0.25" stroke-linecap="round" stroke-linejoin="round" stroke-miterlimit="10" d="
			M64.73438,334.12891c-0.09668-0.08301-0.23242-0.1626-0.34961-0.19531c-0.09961-0.02539-0.27051-0.04346-0.49219,0.0498
			c-0.38281,0.16162-0.54883,0.5127-0.39844,0.87158c0.06445,0.15186,0.1416,0.2207,0.28711,0.27637
			c0.16602,0.06738,0.33789,0.06982,0.50977,0.07275l0.44043,0.00635c0.26855,0.00244,0.52051,0.01904,0.75195,0.11328
			c0.28027,0.11426,0.45801,0.30664,0.5752,0.58496c0.30078,0.71484-0.02734,1.41406-0.72461,1.70752
			c-0.25391,0.10742-0.59668,0.18994-0.97363,0.04053c-0.27051-0.10449-0.49902-0.32275-0.64941-0.5332l0.37012-0.2915
			c0.11426,0.19092,0.28027,0.32471,0.44043,0.39453c0.23926,0.09863,0.4502,0.06348,0.64746-0.01953
			c0.52832-0.22266,0.62012-0.70557,0.45605-1.09473c-0.07422-0.17383-0.18945-0.30322-0.38281-0.37256
			c-0.1543-0.05713-0.33496-0.06348-0.57813-0.0708l-0.41602-0.01611c-0.18164-0.00635-0.40625-0.00635-0.65137-0.10156
			c-0.2373-0.09131-0.41113-0.22998-0.53418-0.52051c-0.25195-0.59814,0.03711-1.19287,0.66504-1.45654
			c0.23828-0.1001,0.4502-0.13477,0.69531-0.0874c0.2002,0.03857,0.39941,0.13965,0.55859,0.27051L64.73438,334.12891z"/>
		
			<path fill="#A3A3A3" stroke="#A3A3A3" stroke-width="0.25" stroke-linecap="round" stroke-linejoin="round" stroke-miterlimit="10" d="
			M69.52734,335.24902l-1.76953,0.26563l-0.32227,1.24609l-0.50977,0.07764l1.25781-4.64258l2.5166,4.0752l-0.51074,0.07568
			L69.52734,335.24902z M69.28125,334.83936l-0.94727-1.55762l-0.45996,1.76953L69.28125,334.83936z"/>
		
			<path fill="#A3A3A3" stroke="#A3A3A3" stroke-width="0.25" stroke-linecap="round" stroke-linejoin="round" stroke-miterlimit="10" d="
			M71.72266,332.03711l0.56641,3.2959l1.86328-3.09961l0.66602,3.52881l1.74121-2.90234l0.50879,0.08594l-2.48242,4.06885
			l-0.6543-3.52734l-1.86914,3.09912l-0.84961-4.63525L71.72266,332.03711z"/>
		
			<path fill="#A3A3A3" stroke="#A3A3A3" stroke-width="0.25" stroke-linecap="round" stroke-linejoin="round" stroke-miterlimit="10" d="
			M80.08203,335.4668c0.00195-0.12695-0.02148-0.28223-0.07031-0.39307c-0.04297-0.09473-0.1377-0.2373-0.34961-0.34961
			c-0.36719-0.19482-0.74414-0.10205-0.92773,0.24316c-0.07617,0.14453-0.08203,0.24902-0.03125,0.39648
			c0.05176,0.17041,0.1582,0.30518,0.26563,0.44141l0.27344,0.34326c0.16699,0.20996,0.31445,0.41748,0.38867,0.65625
			c0.08887,0.28955,0.05078,0.54736-0.08984,0.81543c-0.36328,0.68359-1.11133,0.87305-1.7793,0.51855
			c-0.24609-0.12939-0.52539-0.34229-0.64844-0.729c-0.08984-0.27588-0.06543-0.59082,0.00195-0.83936l0.45996,0.10107
			c-0.0752,0.20898-0.0752,0.42334-0.02832,0.59131c0.07617,0.24756,0.23633,0.38916,0.42578,0.48975
			c0.50781,0.26709,0.93848,0.03223,1.13574-0.33984c0.08887-0.16797,0.11523-0.33887,0.04688-0.53271
			c-0.05371-0.15674-0.16211-0.2998-0.30957-0.49268l-0.25195-0.33252c-0.10938-0.14355-0.25195-0.31836-0.33301-0.56836
			c-0.0791-0.2417-0.08301-0.46387,0.06543-0.74219c0.30273-0.57422,0.94727-0.72656,1.54883-0.40723
			c0.22754,0.12061,0.3877,0.26318,0.50684,0.4834c0.09668,0.17969,0.14551,0.39746,0.14355,0.60352L80.08203,335.4668z"/>
	</g>
	<g>
		<circle fill="none" cx="199.5" cy="351.03378" r="14.578"/>
		
			<path fill="#A3A3A3" stroke="#A3A3A3" stroke-width="0.25" stroke-linecap="round" stroke-linejoin="round" stroke-miterlimit="10" d="
			M193.17188,334.18262c-0.09668-0.08203-0.23242-0.16064-0.34961-0.19385c-0.09961-0.0249-0.27148-0.04053-0.49121,0.05322
			c-0.38184,0.16357-0.54688,0.51563-0.39355,0.87305c0.06445,0.15186,0.14258,0.22021,0.28906,0.27441
			c0.16406,0.06641,0.33691,0.06836,0.50977,0.06982l0.43848,0.00342c0.26855,0.00146,0.52051,0.01709,0.75293,0.11035
			c0.28125,0.1123,0.45801,0.30469,0.57813,0.58154c0.30469,0.71289-0.01953,1.4126-0.71484,1.70898
			c-0.25488,0.10938-0.5957,0.19385-0.97266,0.04639c-0.27148-0.10254-0.5-0.31982-0.65137-0.5293l0.36719-0.29346
			c0.11523,0.18994,0.28223,0.32324,0.44238,0.39307c0.23926,0.09521,0.4502,0.06055,0.64648-0.02344
			c0.52734-0.22656,0.61523-0.70947,0.44922-1.09668c-0.07422-0.17432-0.19043-0.30225-0.38379-0.37012
			c-0.1543-0.05664-0.33496-0.06152-0.57715-0.06836l-0.41699-0.01318c-0.17969-0.00488-0.40625-0.00391-0.65137-0.09814
			c-0.23633-0.09033-0.41211-0.22705-0.53613-0.51709c-0.25488-0.59619,0.03223-1.19141,0.65723-1.45898
			c0.2373-0.10205,0.44727-0.13721,0.69336-0.09131c0.20117,0.0376,0.40137,0.13672,0.55957,0.26758L193.17188,334.18262z"/>
		
			<path fill="#A3A3A3" stroke="#A3A3A3" stroke-width="0.25" stroke-linecap="round" stroke-linejoin="round" stroke-miterlimit="10" d="
			M195.46094,332.65771l0.94727,4.09668l-0.45508,0.10547l-0.94629-4.09668L195.46094,332.65771z"/>
		
			<path fill="#A3A3A3" stroke="#A3A3A3" stroke-width="0.25" stroke-linecap="round" stroke-linejoin="round" stroke-miterlimit="10" d="
			M197.56348,336.43457l-0.02734-4.38379l3.30078,3.41699l-0.02051-3.25928l0.4668-0.00391l0.02734,4.396l-3.30078-3.41699
			l0.01953,3.24805L197.56348,336.43457z"/>
		
			<path fill="#A3A3A3" stroke="#A3A3A3" stroke-width="0.25" stroke-linecap="round" stroke-linejoin="round" stroke-miterlimit="10" d="
			M205.50977,333.63379l-1.65137-0.45264l-0.33008,1.20166l1.60254,0.43994l-0.11621,0.42529l-1.60254-0.43994l-0.43164,1.57178
			l1.65137,0.45361l-0.11621,0.42432l-2.10156-0.57617l1.11133-4.04932l2.10156,0.57617L205.50977,333.63379z"/>
		
			<path fill="#A3A3A3" stroke="#A3A3A3" stroke-width="0.25" stroke-linecap="round" stroke-linejoin="round" stroke-miterlimit="10" d="
			M208.62695,335.53125c0.00391-0.12646-0.02051-0.28174-0.06738-0.39355c-0.04297-0.09473-0.1377-0.2373-0.34863-0.35059
			c-0.36719-0.1958-0.74414-0.104-0.92773,0.24023c-0.07813,0.14453-0.08301,0.24951-0.0332,0.39648
			c0.05078,0.1709,0.1582,0.30615,0.26367,0.44141l0.27246,0.34473c0.16699,0.20996,0.31348,0.4165,0.38574,0.65625
			c0.08789,0.28857,0.05078,0.54688-0.0918,0.81396c-0.36523,0.68359-1.11426,0.86914-1.78125,0.5127
			c-0.24414-0.12939-0.52246-0.34229-0.64453-0.72949c-0.08789-0.27588-0.06348-0.59082,0.00586-0.83984l0.45898,0.10303
			c-0.07617,0.20947-0.07617,0.42285-0.0293,0.59131c0.07422,0.24707,0.23438,0.38867,0.42188,0.48975
			c0.50586,0.26904,0.9375,0.03613,1.13672-0.33643c0.08887-0.16602,0.11621-0.33643,0.04785-0.53125
			c-0.05176-0.15625-0.16113-0.29932-0.30762-0.49316l-0.25-0.33252c-0.10938-0.14404-0.25098-0.31982-0.33203-0.56934
			c-0.07813-0.24219-0.08008-0.46436,0.06836-0.7417c0.30566-0.57275,0.94922-0.72168,1.54883-0.40137
			c0.22852,0.12061,0.38672,0.26465,0.50586,0.48438c0.0957,0.17969,0.14453,0.39795,0.14063,0.60254L208.62695,335.53125z"/>
	</g>
	<g>
		
			<ellipse transform="matrix(0.08248 -0.99659 0.99659 0.08248 7.76603 241.4274)" fill="none" cx="135" cy="116.49604" rx="25.58" ry="25.58002"/>
		<path fill="#A3A3A3" stroke="#A3A3A3" stroke-width="0.25" stroke-miterlimit="10" d="M107.70508,103.49413l4.22852,1.979
			l-0.21973,0.46875l-4.22754-1.979L107.70508,103.49413z"/>
		<path fill="#A3A3A3" stroke="#A3A3A3" stroke-width="0.25" stroke-miterlimit="10" d="M110.76758,102.50977l-2.58008-0.07129
			l0.29883-0.50635l2.00684,0.06396l-1.00586-1.75195l0.2998-0.50586l1.28711,2.25293l2.76953,0.06982l-0.2998,0.50586
			l-2.19824-0.05664l1.09668,1.91455l-0.2998,0.50488L110.76758,102.50977z"/>
		<path fill="#A3A3A3" stroke="#A3A3A3" stroke-width="0.25" stroke-miterlimit="10" d="M113.83594,101.0752
			c0.11133-0.15234,0.33594-0.1875,0.48828-0.07617s0.1875,0.33691,0.07617,0.48926
			c-0.11133,0.15332-0.33691,0.18652-0.49023,0.0752C113.75879,101.45214,113.72461,101.22753,113.83594,101.0752z"/>
		<path fill="#A3A3A3" stroke="#A3A3A3" stroke-width="0.25" stroke-miterlimit="10" d="M116.2002,95.8745l1.41992-1.33008
			l0.07715,0.08154c0.35352,0.37842,0.625,0.8916,0.68262,1.38379c0.02637,0.23389,0.08789,1.06738-0.69336,1.80029
			c-1.01074,0.94678-2.48926,0.8833-3.41699-0.10693c-0.92871-0.99072-0.89063-2.47461,0.12598-3.42725
			c0.32715-0.30615,0.78711-0.5835,1.3584-0.63916c0.2627-0.02588,0.54883-0.00586,0.77148,0.03467l-0.04199,0.51904
			c-0.22656-0.04688-0.4541-0.06494-0.65137-0.05176c-0.28906,0.021-0.6875,0.10693-1.0957,0.48926
			c-0.82227,0.77051-0.81641,1.92432-0.07422,2.71631c0.87109,0.9292,2.05078,0.70557,2.69531,0.10352
			c0.4541-0.42676,0.63184-1.02393,0.50586-1.54834c-0.03906-0.16504-0.12598-0.39014-0.31641-0.61475l-1.01172,0.94678
			L116.2002,95.8745z"/>
		<path fill="#A3A3A3" stroke="#A3A3A3" stroke-width="0.25" stroke-miterlimit="10" d="M117.90625,91.55663
			c0.26172-0.17529,0.66406-0.41846,1.08789-0.41406c0.32813-0.00098,0.72461,0.16455,1.00195,0.5791
			c0.39648,0.59424,0.29688,1.29199-0.26465,1.72559l2.39355,0.9126l-0.52344,0.3501l-2.31934-0.91309l-0.11035,0.07373
			l1.13477,1.70361l-0.43164,0.28711l-2.59277-3.88916L117.90625,91.55663z M118.91406,93.48681l0.27539-0.18311
			c0.53516-0.3584,0.68555-0.82813,0.38281-1.28271c-0.14453-0.21631-0.35254-0.38867-0.69043-0.36572
			c-0.24121,0.01758-0.44727,0.1377-0.63379,0.26221l-0.2627,0.17578L118.91406,93.48681z"/>
		<path fill="#A3A3A3" stroke="#A3A3A3" stroke-width="0.25" stroke-miterlimit="10" d="M124.47266,91.74706l-1.80078,0.84766
			l0.05273,1.4292l-0.51953,0.24512l-0.1377-5.34814l3.97949,3.54199l-0.51953,0.24316L124.47266,91.74706z M124.08008,91.38964
			l-1.50586-1.3584l0.07227,2.0332L124.08008,91.38964z"/>
		<path fill="#A3A3A3" stroke="#A3A3A3" stroke-width="0.25" stroke-miterlimit="10" d="M126.45703,92.32128l-1.23242-4.7002
			l4.48242,2.76465l-0.91602-3.49805l0.5-0.12988l1.23633,4.71338l-4.4834-2.76416l0.91309,3.4834L126.45703,92.32128z"/>
		<path fill="#A3A3A3" stroke="#A3A3A3" stroke-width="0.25" stroke-miterlimit="10" d="M131.8457,89.29882
			c0.0293,0.39111,0.06152,0.81641,0.45508,1.10254c0.19922,0.146,0.5293,0.22705,0.78711,0.20801
			c0.25781-0.01953,0.57129-0.14746,0.74707-0.32275c0.34668-0.34229,0.31445-0.76709,0.28516-1.1582l-0.21387-2.85352
			l0.5166-0.0376l0.22363,2.99268c0.0293,0.39014,0.01563,0.77002-0.20898,1.13818c-0.25,0.4043-0.7207,0.68506-1.31348,0.729
			c-0.59277,0.04541-1.09863-0.16211-1.40723-0.5249c-0.27734-0.33105-0.34766-0.7041-0.37695-1.09521l-0.22266-2.99268
			l0.51563-0.03906L131.8457,89.29882z"/>
		<path fill="#A3A3A3" stroke="#A3A3A3" stroke-width="0.25" stroke-miterlimit="10" d="M136.60742,86.31054l-0.2373,4.17529
			l1.28711,0.07324l-0.02734,0.48975l-1.80566-0.10254l0.26563-4.6665L136.60742,86.31054z"/>
		<path fill="#A3A3A3" stroke="#A3A3A3" stroke-width="0.25" stroke-miterlimit="10" d="M140.95996,90.26854l-1.95215-0.36572
			l-0.79199,1.18896l-0.56348-0.10645l3.00977-4.4082l1.15527,5.18994l-0.56348-0.10596L140.95996,90.26854z M140.85156,89.75097
			l-0.42773-1.98096l-1.12695,1.68848L140.85156,89.75097z"/>
		<path fill="#A3A3A3" stroke="#A3A3A3" stroke-width="0.25" stroke-miterlimit="10" d="M150.01563,91.38231
			c-0.06445-0.19727-0.18359-0.45557-0.34375-0.66504c-0.16797-0.21045-0.39063-0.40332-0.63281-0.52881
			c-0.95898-0.49219-2.06641-0.08447-2.55762,0.87598c-0.5791,1.12646,0.0459,2.16309,0.80566,2.55273
			c0.28027,0.14355,0.5957,0.20361,0.87109,0.20361c0.29785,0.00293,0.54492-0.06689,0.6582-0.10352l-0.29297,0.57373
			c-0.63086,0.09326-1.14844-0.07813-1.45996-0.23828c-1.2334-0.63232-1.66895-2.03613-1.05273-3.23877
			c0.63574-1.23828,2.03613-1.68457,3.28223-1.04443c0.25,0.12695,0.71289,0.40381,1.0166,1.04004L150.01563,91.38231z"/>
		<path fill="#A3A3A3" stroke="#A3A3A3" stroke-width="0.25" stroke-miterlimit="10" d="M152.07813,91.55663l-2.37305,3.43555
			l1.05859,0.73193l-0.2793,0.40234L149,95.10009l2.65234-3.83691L152.07813,91.55663z"/>
		<path fill="#A3A3A3" stroke="#A3A3A3" stroke-width="0.25" stroke-miterlimit="10" d="M152.15918,94.37548
			c0.94336-1.02197,2.43262-1.03662,3.41895-0.12695c0.98633,0.91113,1.0918,2.39502,0.14746,3.41895
			c-0.93848,1.01709-2.42676,1.04199-3.41895,0.12744C151.31445,96.87988,151.2207,95.39404,152.15918,94.37548z M152.5498,94.73632
			c-0.72559,0.78662-0.68164,1.9873,0.08887,2.69873c0.77051,0.71094,1.9707,0.65771,2.69727-0.12891
			c0.72461-0.78613,0.68164-1.98682-0.08984-2.69824C154.47461,93.89697,153.27539,93.9502,152.5498,94.73632z"/>
		<path fill="#A3A3A3" stroke="#A3A3A3" stroke-width="0.25" stroke-miterlimit="10" d="M156.34766,99.31542
			c-0.31543,0.23438-0.6582,0.48779-0.69141,0.97314c-0.01563,0.24902,0.09082,0.56982,0.24512,0.77881
			c0.15527,0.2085,0.43066,0.40381,0.67285,0.46094c0.47461,0.10986,0.81738-0.14502,1.13281-0.37793l2.30078-1.70605
			l0.30859,0.41553l-2.41406,1.78955c-0.31445,0.23438-0.64258,0.42578-1.07422,0.43164
			c-0.47656,0.00439-0.96582-0.24365-1.32031-0.72217c-0.35547-0.47803-0.44922-1.01758-0.30664-1.47266
			c0.13086-0.41064,0.41016-0.66992,0.72461-0.90332l2.41406-1.79004l0.30859,0.41748L156.34766,99.31542z"/>
		<path fill="#A3A3A3" stroke="#A3A3A3" stroke-width="0.25" stroke-miterlimit="10" d="M161.25391,101.3872l0.42969,0.84961
			c0.21289,0.41699,0.4707,1.0332,0.29297,1.78174c-0.12402,0.54248-0.48633,1.14209-1.23535,1.52344
			c-0.87402,0.44336-1.56055,0.25049-1.96777,0.08057c-0.51855-0.21631-0.87695-0.53564-1.25488-1.27881l-0.42676-0.84277
			L161.25391,101.3872z M157.76172,103.74169l0.20703,0.40576c0.16797,0.32959,0.43652,0.7666,0.97949,1.00195
			c0.4209,0.17822,0.95898,0.21875,1.55176-0.08203c0.99805-0.50732,1.29297-1.53564,0.75781-2.59082l-0.20703-0.40479
			L157.76172,103.74169z"/>
	</g>
	<g>
		<circle fill="none" cx="83.5" cy="145.5" r="28.59473"/>
		<path fill="#A3A3A3" stroke="#A3A3A3" stroke-width="0.25" stroke-linejoin="round" stroke-miterlimit="10" d="
			M69.23926,167.21484l0.9502,0.53223c0.4668,0.26221,1.10254,0.68262,1.41113,1.50732
			c0.22754,0.59473,0.26465,1.39502-0.20605,2.23242c-0.54688,0.97705-1.32227,1.23145-1.81738,1.32959
			c-0.62891,0.12451-1.17383,0.04834-2.00488-0.41699l-0.94141-0.52686L69.23926,167.21484z M67.41992,171.67188l0.4541,0.25439
			c0.37012,0.20752,0.90332,0.45166,1.56836,0.32861c0.5127-0.09814,1.05078-0.40186,1.42285-1.06494
			c0.625-1.11621,0.25-2.28076-0.92969-2.94189l-0.45313-0.25488L67.41992,171.67188z"/>
		<path fill="#A3A3A3" stroke="#A3A3A3" stroke-width="0.25" stroke-linejoin="round" stroke-miterlimit="10" d="
			M76.46777,171.06396l-2.06348-0.69727l-0.50684,1.50195l2.00293,0.67578l-0.17969,0.53076l-2.00195-0.67627l-0.66406,1.96436
			l2.0625,0.69727l-0.17871,0.53076l-2.62402-0.88623l1.70898-5.05908l2.62402,0.88623L76.46777,171.06396z"/>
		<path fill="#A3A3A3" stroke="#A3A3A3" stroke-width="0.25" stroke-linejoin="round" stroke-miterlimit="10" d="
			M77.28125,176.21436l0.68164-5.52197l3.59766,4.84033l0.50684-4.10693l0.58789,0.07275l-0.68457,5.53711l-3.5957-4.84033
			l-0.50488,4.09082L77.28125,176.21436z"/>
		<path fill="#A3A3A3" stroke="#A3A3A3" stroke-width="0.25" stroke-linejoin="round" stroke-miterlimit="10" d="
			M86.75391,172.27148c-0.08398-0.13721-0.2168-0.2876-0.34473-0.37207c-0.11035-0.0708-0.31055-0.1582-0.61426-0.13184
			c-0.52539,0.04541-0.86426,0.40381-0.82227,0.89746c0.01758,0.20703,0.08398,0.32178,0.23926,0.44531
			c0.17285,0.14551,0.37988,0.21631,0.58691,0.28613l0.5293,0.18018c0.32227,0.10938,0.62109,0.22754,0.86328,0.43262
			c0.29492,0.24658,0.43359,0.54883,0.46582,0.93115c0.08496,0.98096-0.58496,1.69629-1.54199,1.77832
			c-0.35059,0.0293-0.7959-0.00439-1.19238-0.33154c-0.28418-0.23193-0.47559-0.58496-0.5752-0.89844l0.56055-0.20898
			c0.06445,0.27637,0.21191,0.50439,0.37695,0.65039c0.25098,0.21143,0.51953,0.25391,0.79004,0.22949
			c0.72559-0.06152,1.02441-0.60986,0.97852-1.14355c-0.02051-0.23926-0.11035-0.43945-0.31641-0.59961
			c-0.16406-0.13037-0.37988-0.20801-0.66895-0.31152l-0.49805-0.18213c-0.21484-0.07764-0.48828-0.16797-0.74707-0.37842
			c-0.25-0.20313-0.40723-0.43848-0.44043-0.83691c-0.07031-0.82129,0.51172-1.42578,1.37305-1.49902
			c0.32715-0.02734,0.5957,0.01318,0.87305,0.1665c0.22852,0.125,0.42969,0.32422,0.56836,0.54492L86.75391,172.27148z"/>
		<path fill="#A3A3A3" stroke="#A3A3A3" stroke-width="0.25" stroke-linejoin="round" stroke-miterlimit="10" d="
			M89.40723,170.71143l1.16016,5.20996l-0.57813,0.12939l-1.15918-5.21045L89.40723,170.71143z"/>
		<path fill="#A3A3A3" stroke="#A3A3A3" stroke-width="0.25" stroke-linejoin="round" stroke-miterlimit="10" d="
			M92.63477,170.33057l1.59766,4.50342l-0.55859,0.19824l-1.59766-4.50391l-1.2207,0.43311l-0.1875-0.52832l3.00195-1.06396
			l0.1875,0.52734L92.63477,170.33057z"/>
		<path fill="#A3A3A3" stroke="#A3A3A3" stroke-width="0.25" stroke-linejoin="round" stroke-miterlimit="10" d="
			M97.33789,170.91992l-3.00977-1.79785l0.60059-0.33496l2.34766,1.4165l0.03906-2.74902l0.59961-0.33594l-0.06055,3.51318
			l1.11816,2.00293l-0.5166,0.28809L97.33789,170.91992z"/>
	</g>
	<g>
		<circle fill="none" cx="186.44551" cy="145.5" r="28.59473"/>
		<path fill="#A3A3A3" stroke="#A3A3A3" stroke-width="0.25" stroke-linejoin="round" stroke-miterlimit="10" d="
			M170.65625,169.5127c0.74121-1.40918,2.38281-1.86523,3.74121-1.1499c1.35938,0.71582,1.91309,2.32715,1.1709,3.73633
			c-0.73828,1.40088-2.375,1.86816-3.74219,1.14893C170.45996,172.52832,169.91797,170.91357,170.65625,169.5127z
			 M171.19336,169.79541c-0.57031,1.08301-0.16797,2.39844,0.89453,2.95605c1.06152,0.55957,2.37305,0.14746,2.94336-0.93555
			c0.56934-1.08301,0.16797-2.39795-0.89453-2.95654C173.0752,168.2998,171.76367,168.71289,171.19336,169.79541z"/>
		<path fill="#A3A3A3" stroke="#A3A3A3" stroke-width="0.25" stroke-linejoin="round" stroke-miterlimit="10" d="
			M177.91406,170.03955l0.33887,4.32373l2.55371-3.50488l0.63086,0.17773l-3.61523,4.85059l-0.53906-6.02539L177.91406,170.03955z"
			/>
		<path fill="#A3A3A3" stroke="#A3A3A3" stroke-width="0.25" stroke-linejoin="round" stroke-miterlimit="10" d="
			M185.23145,171.99756l-2.16504-0.21973l-0.16016,1.57617l2.10059,0.21387l-0.05566,0.55664l-2.10156-0.21436l-0.21094,2.06201
			l2.16602,0.22168l-0.05664,0.55713l-2.75488-0.28174l0.54199-5.30811l2.75391,0.28076L185.23145,171.99756z"/>
		<path fill="#A3A3A3" stroke="#A3A3A3" stroke-width="0.25" stroke-linejoin="round" stroke-miterlimit="10" d="
			M187.57227,171.39355c0.35938-0.02197,0.89648-0.03271,1.3125,0.21436c0.32422,0.18896,0.62207,0.57813,0.6582,1.14502
			c0.05078,0.81543-0.44727,1.44873-1.25098,1.55518l1.84375,2.27344l-0.71973,0.04639l-1.76758-2.23145l-0.15234,0.00928
			l0.14648,2.33252l-0.59082,0.03809l-0.33496-5.3291L187.57227,171.39355z M187.46387,173.87842l0.375-0.02295
			c0.73535-0.04688,1.15234-0.42578,1.11328-1.04883c-0.01855-0.29541-0.125-0.58496-0.47266-0.75684
			c-0.24805-0.12012-0.52148-0.11914-0.77637-0.10303l-0.35938,0.02344L187.46387,173.87842z"/>
		<path fill="#A3A3A3" stroke="#A3A3A3" stroke-width="0.25" stroke-linejoin="round" stroke-miterlimit="10" d="
			M191.72363,170.86914l0.99316,4.67188l1.44043-0.30713l0.11621,0.54736l-2.01855,0.43115l-1.11035-5.21924L191.72363,170.86914z"
			/>
		<path fill="#A3A3A3" stroke="#A3A3A3" stroke-width="0.25" stroke-linejoin="round" stroke-miterlimit="10" d="
			M198.42383,172.74951l-2.11328,0.83398l-0.04297,1.63379l-0.61133,0.24219l0.23242-6.10498l4.2793,4.32471l-0.61035,0.24023
			L198.42383,172.74951z M198.00293,172.31396l-1.61816-1.6582l-0.06445,2.32227L198.00293,172.31396z"/>
		<path fill="#A3A3A3" stroke="#A3A3A3" stroke-width="0.25" stroke-linejoin="round" stroke-miterlimit="10" d="
			M199.92383,167.62695c0.45508-0.28271,0.87012-0.46338,1.34082-0.38867c0.51074,0.0791,0.84082,0.42969,1.01758,0.71533
			c0.39648,0.63916,0.3877,1.52002-0.64551,2.16113l-0.44336,0.27393l1.22461,1.97217l-0.50391,0.31152l-2.8125-4.53516
			L199.92383,167.62695z M200.89844,169.91357l0.41504-0.2583c0.59863-0.37061,0.77344-0.89258,0.44824-1.41748
			c-0.44727-0.7207-1.16211-0.37109-1.48828-0.16846l-0.37305,0.23242L200.89844,169.91357z"/>
	</g>
	<g>
		<circle fill="none" cx="135" cy="198.5" r="28.59473"/>
		
			<path fill="#A3A3A3" stroke="#A3A3A3" stroke-width="0.25" stroke-linecap="round" stroke-linejoin="round" stroke-miterlimit="10" d="
			M127.32617,223.24707c0.51367,0.15625,0.9248,0.34814,1.17871,0.75098c0.27832,0.43506,0.2334,0.91602,0.13574,1.2373
			c-0.21875,0.7207-0.88672,1.2959-2.05078,0.94287l-0.49805-0.15039l-0.67383,2.22119l-0.56641-0.17139l1.54785-5.11133
			L127.32617,223.24707z M126.25391,225.49072l0.4668,0.14209c0.6748,0.20459,1.18359-0.01025,1.36133-0.6001
			c0.24609-0.81201-0.48828-1.11816-0.85645-1.22998l-0.4209-0.12695L126.25391,225.49072z"/>
		
			<path fill="#A3A3A3" stroke="#A3A3A3" stroke-width="0.25" stroke-linecap="round" stroke-linejoin="round" stroke-miterlimit="10" d="
			M130.42871,224.00977l-1,5.23877l-0.58105-0.11035l1-5.23975L130.42871,224.00977z"/>
		
			<path fill="#A3A3A3" stroke="#A3A3A3" stroke-width="0.25" stroke-linecap="round" stroke-linejoin="round" stroke-miterlimit="10" d="
			M132.9541,224.88818l-0.40918,4.75684l-0.58984-0.05078l0.40918-4.75684l-1.29102-0.11182l0.04785-0.55811l3.17188,0.27344
			l-0.04688,0.55811L132.9541,224.88818z"/>
		
			<path fill="#A3A3A3" stroke="#A3A3A3" stroke-width="0.25" stroke-linecap="round" stroke-linejoin="round" stroke-miterlimit="10" d="
			M138.77539,225.39746c-0.17773-0.15771-0.44531-0.34229-0.72461-0.45361c-0.28711-0.11084-0.61914-0.16992-0.93066-0.15088
			c-1.22949,0.07275-2.0791,1.11865-2.00488,2.34717c0.08789,1.44434,1.30566,2.10059,2.2793,2.04102
			c0.3584-0.02246,0.70313-0.14648,0.97461-0.30762c0.29395-0.16992,0.49707-0.38281,0.58789-0.48438l0.04395,0.73438
			c-0.56543,0.4585-1.17383,0.59229-1.57324,0.61621c-1.58008,0.09619-2.82617-1.03027-2.91895-2.5708
			c-0.09668-1.58789,1.02051-2.84082,2.61719-2.93799c0.31934-0.01904,0.93652-0.01709,1.60449,0.43164L138.77539,225.39746z"/>
		
			<path fill="#A3A3A3" stroke="#A3A3A3" stroke-width="0.25" stroke-linecap="round" stroke-linejoin="round" stroke-miterlimit="10" d="
			M140.58789,226.03711l2.65137-0.67041l-0.53223-2.10156l0.57422-0.14453l1.30859,5.17139l-0.57422,0.14453l-0.63867-2.52637
			l-2.65234,0.66992l0.64063,2.52783l-0.57422,0.14551l-1.30859-5.17139l0.57227-0.14551L140.58789,226.03711z"/>
	</g>
	<g>
		<circle fill="none" cx="135" cy="283.5" r="28.59473"/>
		
			<path fill="#A3A3A3" stroke="#A3A3A3" stroke-width="0.25" stroke-linecap="round" stroke-linejoin="round" stroke-miterlimit="10" d="
			M117.6709,309.67383l3.43262-4.54932l-0.3125,4.93604l3.96484-2.99658l-1.91992,5.36523l-0.53711-0.28564l1.30273-3.51123
			l-3.45313,2.61572l0.27148-4.31299l-2.21289,3.0249L117.6709,309.67383z"/>
		
			<path fill="#A3A3A3" stroke="#A3A3A3" stroke-width="0.25" stroke-linecap="round" stroke-linejoin="round" stroke-miterlimit="10" d="
			M127.42578,308.27979l-1.61328,5.0874l-0.56445-0.17871l1.61328-5.0874L127.42578,308.27979z"/>
		
			<path fill="#A3A3A3" stroke="#A3A3A3" stroke-width="0.25" stroke-linecap="round" stroke-linejoin="round" stroke-miterlimit="10" d="
			M129.7207,311.49268l-0.96484-2.78711l0.66309,0.11621l0.74023,2.17041l1.46777-1.78223l0.66211,0.11719l-1.88965,2.28467
			l1.04395,2.98877l-0.66309-0.11621l-0.82617-2.37305l-1.60254,1.9458l-0.66211-0.11719L129.7207,311.49268z"/>
		
			<path fill="#A3A3A3" stroke="#A3A3A3" stroke-width="0.25" stroke-linecap="round" stroke-linejoin="round" stroke-miterlimit="10" d="
			M135.90332,312.21533c-0.2207-1.57666,0.8457-2.9043,2.36621-3.11719c1.51953-0.21289,2.91016,0.77246,3.12988,2.34814
			c0.21973,1.56787-0.83691,2.90234-2.36621,3.11621C137.50391,314.77686,136.12305,313.7832,135.90332,312.21533z
			 M136.50488,312.13086c0.16895,1.21143,1.2627,2.04297,2.4502,1.87695c1.18848-0.16602,2.01172-1.26611,1.84277-2.47705
			c-0.16895-1.21143-1.2627-2.04395-2.45117-1.87793C137.1582,309.81787,136.33594,310.91846,136.50488,312.13086z"/>
		
			<path fill="#A3A3A3" stroke="#A3A3A3" stroke-width="0.25" stroke-linecap="round" stroke-linejoin="round" stroke-miterlimit="10" d="
			M144.00879,311.27246c0.15723,0.41992,0.3291,0.87695,0.85254,1.06543c0.26563,0.09619,0.65332,0.07959,0.93164-0.02344
			c0.27734-0.10449,0.58008-0.3457,0.7168-0.59326c0.27148-0.4873,0.09961-0.94434-0.05664-1.36377l-1.14844-3.06592
			l0.55469-0.20801l1.2041,3.21582c0.15723,0.41895,0.26465,0.84082,0.13477,1.31787
			c-0.14551,0.52393-0.57129,0.98389-1.20996,1.22217c-0.63672,0.2373-1.25977,0.17285-1.71387-0.12842
			c-0.41113-0.27295-0.60645-0.66113-0.76465-1.08105l-1.2041-3.21582l0.55566-0.2085L144.00879,311.27246z"/>
		
			<path fill="#A3A3A3" stroke="#A3A3A3" stroke-width="0.25" stroke-linecap="round" stroke-linejoin="round" stroke-miterlimit="10" d="
			M148.77148,306.08643l2.44727,4.10596l-0.50781,0.30322l-2.44922-4.10645l-1.11328,0.66455l-0.28711-0.48096l2.73633-1.63135
			l0.28809,0.48096L148.77148,306.08643z"/>
	</g>
	<g>
		<circle fill="none" cx="135" cy="283.44943" r="28.59473"/>
		<path fill="#A3A3A3" d="M143.95313,255.04492c-0.02148-0.11816-0.0752-0.25879-0.1416-0.35254
			c-0.05859-0.08008-0.1748-0.19434-0.39355-0.25781c-0.38086-0.10938-0.71387,0.0498-0.81836,0.40723
			c-0.04297,0.15039-0.02734,0.24902,0.04883,0.37598c0.08203,0.14941,0.20703,0.25391,0.33301,0.35938l0.32227,0.26758
			c0.19629,0.16309,0.37402,0.32715,0.48926,0.53418c0.13965,0.25293,0.15527,0.50098,0.0752,0.77734
			c-0.20508,0.70898-0.86621,1.03027-1.55762,0.83203c-0.25391-0.07422-0.55566-0.21777-0.74609-0.55371
			c-0.13672-0.23926-0.17578-0.53809-0.16113-0.7832l0.44824,0.00391c-0.0293,0.20996,0.0127,0.41016,0.08984,0.55762
			c0.11914,0.21484,0.29492,0.31641,0.49121,0.37305c0.52441,0.15039,0.88086-0.15234,0.99316-0.53906
			c0.04883-0.17188,0.04102-0.33789-0.06055-0.50391c-0.08008-0.13574-0.20996-0.24707-0.38477-0.39844l-0.2998-0.26074
			c-0.12988-0.1123-0.29688-0.24902-0.4209-0.46582c-0.12109-0.20996-0.16797-0.41602-0.08398-0.7041
			c0.17188-0.59375,0.74121-0.86035,1.36328-0.68164c0.2373,0.06836,0.41406,0.16992,0.56738,0.35156
			c0.12598,0.14941,0.21387,0.34375,0.25195,0.53516L143.95313,255.04492z"/>
		<path fill="#A3A3A3" d="M146.56641,255.15039l-1.48633,3.71875l-0.41309-0.16406l1.4873-3.71973L146.56641,255.15039z"/>
		<path fill="#A3A3A3" d="M146.3584,259.37012l2.0293-3.6416l1.13281,4.37402l1.50879-2.70801l0.38867,0.21582l-2.03516,3.65039
			L148.25,256.8877l-1.50391,2.69824L146.3584,259.37012z"/>
		<path fill="#A3A3A3" d="M154.38672,260.34375l-1.28906-1.00293l-0.73047,0.93848l1.25195,0.97461l-0.25781,0.33105
			l-1.25195-0.97266l-0.95508,1.22656l1.28906,1.00391l-0.25781,0.33105l-1.63965-1.27539l2.45801-3.16113l1.64063,1.27441
			L154.38672,260.34375z"/>
		<path fill="#A3A3A3" d="M157.54102,262.69629l-1.70313,2.6875l3.29395-0.99902l-1.78125,2.91797l3.08105-0.93945l0.30469,0.38672
			l-4.34961,1.28809l1.78906-2.90723l-3.29688,0.99316l2.35742-3.81348L157.54102,262.69629z"/>
		<path fill="#A3A3A3" d="M159.80078,271.12793l-0.80469-1.49805l-1.2207,0.11035l-0.23242-0.43164l4.56055-0.36328
			l-2.84082,3.56152l-0.23242-0.43262L159.80078,271.12793z M160.08789,270.77637l1.0918-1.34863l-1.73242,0.15625
			L160.08789,270.77637z"/>
		<path fill="#A3A3A3" d="M163.21191,271.65723l-2.45898,2.13379l3.25488-0.02344l0.17383,0.45996l-4.54004-0.01758l3.39648-3.0127
			L163.21191,271.65723z"/>
		<path fill="#A3A3A3" d="M164.62305,277.74609l-0.37109-1.5918l-1.1582,0.26953l0.35938,1.54492l-0.4082,0.09473l-0.35938-1.54395
			l-1.51563,0.35156l0.37012,1.59277l-0.41016,0.09375l-0.4707-2.02344l3.90234-0.9082l0.47168,2.02441L164.62305,277.74609z"/>
		<path fill="#A3A3A3" d="M164.69141,281.1582c0.10156-0.06445,0.21289-0.16602,0.27539-0.26367
			c0.05078-0.08301,0.11426-0.23535,0.09082-0.46191c-0.04102-0.39355-0.31348-0.64355-0.68359-0.60547
			c-0.15527,0.0166-0.24023,0.06738-0.33105,0.18652c-0.10742,0.13086-0.15723,0.28711-0.20703,0.44238l-0.12793,0.39941
			c-0.07715,0.24316-0.16309,0.46875-0.31348,0.65332c-0.18066,0.22363-0.40625,0.33203-0.69141,0.36133
			c-0.73438,0.07617-1.28027-0.41699-1.35352-1.13281c-0.02734-0.2627-0.00781-0.59766,0.23242-0.89941
			c0.1709-0.2168,0.43359-0.36426,0.66602-0.44238l0.16406,0.41797c-0.20605,0.05078-0.375,0.16504-0.48242,0.29004
			c-0.15625,0.19238-0.18359,0.39355-0.16211,0.59668c0.05664,0.54297,0.4707,0.75879,0.87109,0.71777
			c0.17871-0.01855,0.32813-0.08691,0.44434-0.24512c0.0957-0.12402,0.15137-0.28613,0.22559-0.50488l0.13086-0.37598
			c0.05469-0.16211,0.11816-0.36719,0.27246-0.56445c0.14941-0.19141,0.32422-0.31152,0.62207-0.3418
			c0.61523-0.06348,1.0752,0.36621,1.14258,1.00977c0.02539,0.24512-0.00293,0.44727-0.11328,0.65723
			c-0.0918,0.17188-0.23828,0.32617-0.40234,0.43359L164.69141,281.1582z"/>
	</g>
	<g>
		<circle fill="none" cx="135" cy="283.5" r="28.59473"/>
		<path fill="#A3A3A3" d="M105.37305,279.9917c-0.11328,0.04395-0.24121,0.12158-0.32031,0.20508
			c-0.06738,0.07227-0.15918,0.2085-0.17969,0.43604c-0.03613,0.39453,0.18359,0.69238,0.55371,0.72607
			c0.15625,0.01514,0.24902-0.01904,0.36133-0.11719c0.13086-0.10889,0.20996-0.25195,0.29004-0.39502l0.20215-0.36768
			c0.12305-0.22412,0.25098-0.4292,0.43359-0.58154c0.22266-0.18408,0.46289-0.24658,0.75-0.21973
			c0.73633,0.06787,1.17578,0.65723,1.10938,1.375c-0.02441,0.26318-0.1084,0.58643-0.40234,0.83594
			c-0.20898,0.18066-0.49609,0.27539-0.74023,0.30664l-0.08008-0.44141c0.21191-0.01074,0.40039-0.09033,0.53125-0.19238
			c0.18945-0.15771,0.25391-0.35059,0.27344-0.55371c0.05078-0.54443-0.31445-0.83691-0.71484-0.87402
			c-0.17969-0.0166-0.33984,0.02295-0.48438,0.15381c-0.11914,0.10449-0.20508,0.25342-0.31934,0.45313l-0.2002,0.34326
			c-0.08691,0.14893-0.18945,0.33887-0.37891,0.50195c-0.18359,0.1582-0.37793,0.24268-0.67676,0.21484
			c-0.61621-0.05664-0.98535-0.56689-0.9248-1.21289c0.02148-0.24463,0.08789-0.43799,0.2373-0.62305
			c0.12207-0.15137,0.29688-0.27441,0.47852-0.34766L105.37305,279.9917z"/>
		<path fill="#A3A3A3" d="M108.21777,276.24219l-0.39648,1.65625l0.98535,0.729l-0.11426,0.479l-3.65039-2.76611l4.49512-0.77002
			l-0.11426,0.47852L108.21777,276.24219z M107.76855,276.31299l-1.71387,0.28174l1.39941,1.0376L107.76855,276.31299z"/>
		<path fill="#A3A3A3" d="M105.99609,273.43652l3.17188,0.22803l-2.43848-2.42773l3.41113,0.18799l-2.28418-2.26855l0.19629-0.45068
			l3.19238,3.21924l-3.40723-0.19873l2.43652,2.43262l-4.47461-0.271L105.99609,273.43652z"/>
		<path fill="#A3A3A3" d="M110.10156,265.52734l2.97266,1.12402l-1.64063-3.02051l3.21289,1.15479l-1.53809-2.8252l0.31543-0.37598
			l2.1377,3.99561l-3.20605-1.16406l1.6377,3.02539l-4.20801-1.53809L110.10156,265.52734z"/>
		<path fill="#A3A3A3" d="M117.90723,261.61084l-1.30957,1.0918l0.35449,1.17432l-0.37891,0.31494l-1.27148-4.40234l4.06641,2.07373
			l-0.37891,0.31445L117.90723,261.61084z M117.50488,261.39941l-1.54297-0.80029l0.50098,1.66943L117.50488,261.39941z"/>
		<path fill="#A3A3A3" d="M117.77246,258.15332l2.57324,1.99072l-0.66113-3.18457l0.41699-0.26123l0.87402,4.45215l-3.61914-2.73633
			L117.77246,258.15332z"/>
		<path fill="#A3A3A3" d="M123.42285,255.57471l-1.48438,0.68164l0.49512,1.08057l1.44141-0.66113l0.1748,0.38184l-1.44043,0.66113
			l0.64941,1.41504l1.48438-0.68164l0.17578,0.38184l-1.88965,0.86621l-1.6709-3.6416l1.88867-0.86621L123.42285,255.57471z"/>
		<path fill="#A3A3A3" d="M126.75488,254.8208c-0.08398-0.08643-0.20508-0.17334-0.3125-0.21533
			c-0.09375-0.03418-0.25391-0.06543-0.4707,0.00391c-0.37695,0.11914-0.56641,0.43555-0.45508,0.79004
			c0.04688,0.14893,0.11328,0.22266,0.24707,0.28711c0.15137,0.07813,0.31348,0.09668,0.47656,0.11328l0.41699,0.04492
			c0.25293,0.02734,0.49121,0.06445,0.70117,0.17432c0.25586,0.1333,0.40625,0.33105,0.49316,0.60547
			c0.22169,0.70264-0.15039,1.33643-0.83691,1.55225c-0.25195,0.08008-0.58203,0.12793-0.92578-0.04688
			c-0.24609-0.12354-0.44434-0.35059-0.56738-0.56348l0.37598-0.24414c0.0918,0.19141,0.23633,0.33496,0.38086,0.41406
			c0.21875,0.11328,0.42188,0.10059,0.61621,0.03906c0.52051-0.16406,0.64844-0.61328,0.52832-0.99609
			c-0.05469-0.17188-0.15234-0.30469-0.33008-0.38672c-0.14063-0.06934-0.31055-0.09082-0.54004-0.11914l-0.39355-0.05176
			c-0.16992-0.02148-0.38379-0.04199-0.6084-0.15381c-0.21582-0.10791-0.36914-0.25439-0.45898-0.54053
			c-0.18555-0.58887,0.1416-1.12598,0.75879-1.32031c0.23535-0.07373,0.4375-0.08789,0.66602-0.02051
			c0.18652,0.05371,0.36719,0.16553,0.50488,0.30469L126.75488,254.8208z"/>
	</g>
	<g>
		<circle fill="none" cx="135.25" cy="198.37961" r="28.59473"/>
		<path fill="#A3A3A3" d="M120.76563,171.39307c0.24023-0.125,0.60449-0.29395,0.96484-0.25195
			c0.28027,0.03125,0.60156,0.20898,0.79883,0.58691c0.28125,0.54297,0.13281,1.12793-0.38574,1.44434l1.9541,1l-0.47949,0.24902
			l-1.88965-0.99316l-0.10059,0.05273l0.80762,1.55469l-0.39355,0.2041l-1.8457-3.55078L120.76563,171.39307z M121.44531,173.13037
			l0.25-0.13086c0.49023-0.25391,0.66113-0.64063,0.44531-1.05664c-0.10254-0.19629-0.2627-0.36328-0.55273-0.375
			c-0.20703-0.00684-0.39453,0.07617-0.56445,0.16504l-0.23926,0.12402L121.44531,173.13037z"/>
		<path fill="#A3A3A3" d="M126.72852,171.9585l-1.60352,0.57227l-0.07422,1.22266l-0.46289,0.16406l0.32813-4.56445l3.0957,3.3457
			l-0.46387,0.16602L126.72852,171.9585z M126.42383,171.62256l-1.16992-1.2832l-0.10645,1.73828L126.42383,171.62256z"/>
		<path fill="#A3A3A3" d="M128.81836,172.48779l-0.7334-4.10254l3.64453,2.66797l-0.5459-3.05176l0.4375-0.07813l0.73535,4.11426
			l-3.64551-2.66797l0.54492,3.04004L128.81836,172.48779z"/>
		<path fill="#A3A3A3" d="M133.60645,167.78076l0.81543-0.00586c0.40234-0.00293,0.9707,0.03516,1.47656,0.45703
			c0.36914,0.30273,0.68945,0.81055,0.69434,1.53027c0.00684,0.83887-0.4043,1.29102-0.69043,1.53809
			c-0.36328,0.31543-0.74609,0.46777-1.45898,0.47266l-0.80859,0.00586L133.60645,167.78076z M134.07422,171.35596l0.38965-0.00293
			c0.31836-0.00195,0.75586-0.04102,1.14258-0.36816c0.29785-0.25293,0.53516-0.65137,0.53125-1.21973
			c-0.00684-0.95898-0.68262-1.57813-1.69531-1.57031l-0.38965,0.00293L134.07422,171.35596z"/>
		<path fill="#A3A3A3" d="M137.81445,169.81396c0.19531-1.17871,1.25586-1.89063,2.39258-1.70215s1.91113,1.20508,1.71582,2.38281
			c-0.19434,1.17285-1.25,1.8916-2.39258,1.70215C138.38672,172.00732,137.62012,170.98584,137.81445,169.81396z
			 M138.26465,169.88818c-0.15039,0.90625,0.44629,1.74609,1.33398,1.89355c0.8877,0.14648,1.72363-0.45605,1.87402-1.3623
			c0.15039-0.90527-0.44629-1.74609-1.33398-1.89355C139.25,168.37842,138.41406,168.98291,138.26465,169.88818z"/>
		<path fill="#A3A3A3" d="M142.46191,172.69092l2.10449-3.72168l0.25391,3.70215l2.65234-2.62109l-0.89844,4.17969l-0.42676-0.15918
			l0.62207-2.73926l-2.31055,2.28613l-0.22266-3.23535l-1.34766,2.46777L142.46191,172.69092z"/>
	</g>
	<g>
		<circle fill="none" cx="135.25" cy="198.37961" r="28.59473"/>
		<path fill="#A3A3A3" d="M104.89746,202.05713l-0.06152-0.81494c-0.03125-0.40137-0.0332-0.97412,0.35449-1.50977
			c0.27734-0.38867,0.7627-0.74512,1.48145-0.79932c0.83887-0.06396,1.32031,0.31543,1.58691,0.58398
			c0.33984,0.3418,0.51953,0.71387,0.57324,1.42725l0.06152,0.80859L104.89746,202.05713z M108.44141,201.34131l-0.03027-0.38965
			c-0.02441-0.31738-0.09375-0.75195-0.44629-1.1167c-0.27441-0.28027-0.68848-0.48975-1.25781-0.44629
			c-0.95898,0.07275-1.53027,0.79102-1.4541,1.80322l0.03027,0.38965L108.44141,201.34131z"/>
		<path fill="#A3A3A3" d="M105.25781,195.3252l-0.10156,1.62891l1.1875,0.07471l0.09766-1.58203l0.41992,0.02637l-0.09863,1.58154
			l1.55176,0.09619l0.10156-1.62939l0.41992,0.02588l-0.12988,2.07373l-3.99609-0.24951l0.12988-2.07275L105.25781,195.3252z"/>
		<path fill="#A3A3A3" d="M105.64746,192.80322l3.52344,0.63135l-0.07813,0.43701l-3.52246-0.63135l-0.17285,0.95605
			l-0.41309-0.07373l0.4209-2.34912l0.41309,0.07422L105.64746,192.80322z"/>
		<path fill="#A3A3A3" d="M108.22461,190.66553c0.32031,0.10352,0.66797,0.21631,1.02344-0.00244
			c0.18066-0.11084,0.35156-0.34619,0.41992-0.55713s0.06836-0.50146-0.01367-0.69824
			c-0.15723-0.38525-0.50586-0.49854-0.82422-0.60205l-2.33398-0.75879l0.13672-0.42188l2.44727,0.79492
			c0.32031,0.10449,0.61719,0.23828,0.83594,0.53662c0.23926,0.33057,0.30859,0.79443,0.15137,1.2793
			s-0.4873,0.81885-0.87402,0.94531c-0.35254,0.11377-0.67188,0.04688-0.99121-0.05664l-2.44824-0.79492l0.1377-0.42236
			L108.22461,190.66553z"/>
		<path fill="#A3A3A3" d="M110.91211,187.64844l-3.69629-1.93262l4.34473-1.24951l-2.74902-1.4375l0.20605-0.39404l3.70605,1.93896
			l-4.34473,1.24951l2.73828,1.43213L110.91211,187.64844z"/>
		<path fill="#A3A3A3" d="M111.67285,179.5918l-0.96387,1.31543l0.95898,0.70166l0.93457-1.27734l0.33887,0.24805l-0.93555,1.27686
			l1.25293,0.91797l0.96289-1.31592l0.33887,0.24805l-1.22656,1.67383l-3.22559-2.36328l1.22559-1.67383L111.67285,179.5918z"/>
	</g>
	<g>
		<circle fill="none" cx="183.01788" cy="44.24549" r="14.57799"/>
		
			<path fill="#A3A3A3" stroke="#A3A3A3" stroke-width="0.25" stroke-linecap="round" stroke-linejoin="round" stroke-miterlimit="10" d="
			M166.24805,35.74022l3.34863,1.72266l0.53027-1.03223l0.39258,0.20215l-0.74414,1.44727l-3.74121-1.92383L166.24805,35.74022z"/>
		
			<path fill="#A3A3A3" stroke="#A3A3A3" stroke-width="0.25" stroke-linecap="round" stroke-linejoin="round" stroke-miterlimit="10" d="
			M169.2168,32.07812l-1.04492,1.35742l0.98828,0.76074l1.01367-1.31641l0.34863,0.26953l-1.01465,1.31641l1.29199,0.99512
			l1.0459-1.35645l0.34961,0.26855l-1.33008,1.72559l-3.32715-2.5625l1.3291-1.72656L169.2168,32.07812z"/>
		
			<path fill="#A3A3A3" stroke="#A3A3A3" stroke-width="0.25" stroke-linecap="round" stroke-linejoin="round" stroke-miterlimit="10" d="
			M170.10156,30.52245l2.96387,1.70703l-1.1416-3.22363l0.39648-0.33105l1.54297,4.51465l-4.1582-2.33691L170.10156,30.52245z"/>
		
			<path fill="#A3A3A3" stroke="#A3A3A3" stroke-width="0.25" stroke-linecap="round" stroke-linejoin="round" stroke-miterlimit="10" d="
			M175.77051,27.31737l-1.52832,0.77832l0.56641,1.1123l1.4834-0.75488l0.2002,0.39258l-1.4834,0.75586l0.74023,1.45508
			l1.52832-0.77832l0.20117,0.39453l-1.94531,0.98926l-1.90625-3.74805l1.94336-0.98926L175.77051,27.31737z"/>
		
			<path fill="#A3A3A3" stroke="#A3A3A3" stroke-width="0.25" stroke-linecap="round" stroke-linejoin="round" stroke-miterlimit="10" d="
			M177.54785,26.24706l1.07031,3.60156l1.11035-0.33008l0.125,0.42285l-1.55664,0.46191l-1.19531-4.02441L177.54785,26.24706z"/>
		
			<path fill="#A3A3A3" stroke="#A3A3A3" stroke-width="0.25" stroke-linecap="round" stroke-linejoin="round" stroke-miterlimit="10" d="
			M182.82813,27.35644l1.97949,0.0918l-0.03027,0.66504l-1.97949-0.0918L182.82813,27.35644z"/>
		
			<path fill="#A3A3A3" stroke="#A3A3A3" stroke-width="0.25" stroke-linecap="round" stroke-linejoin="round" stroke-miterlimit="10" d="
			M190.83496,29.46483l1.5625,0.79395l-0.0459,0.08984c-0.21094,0.41602-0.5625,0.80273-0.96094,1.00391
			c-0.19043,0.09473-0.87695,0.4043-1.7373-0.0332c-1.11328-0.56543-1.51465-1.83594-0.96094-2.92676
			s1.82324-1.51465,2.94043-0.94629c0.36035,0.18262,0.73633,0.48633,0.95898,0.95313
			c0.10352,0.21387,0.17578,0.46289,0.20801,0.66406l-0.45215,0.12402c-0.03027-0.20703-0.08398-0.4043-0.15723-0.56738
			c-0.10547-0.23828-0.30176-0.5498-0.75098-0.77734c-0.9043-0.45996-1.88086-0.09961-2.32227,0.77148
			c-0.51953,1.02441,0.0332,1.95508,0.74219,2.31445c0.5,0.25391,1.06055,0.2207,1.46582-0.04688
			c0.12793-0.08398,0.29199-0.22852,0.42285-0.45801l-1.11328-0.56445L190.83496,29.46483z"/>
		
			<path fill="#A3A3A3" stroke="#A3A3A3" stroke-width="0.25" stroke-linecap="round" stroke-linejoin="round" stroke-miterlimit="10" d="
			M194.4873,33.3662l-1.30176-1.22754l-1.17969,0.51758l-0.375-0.35449l4.42773-1.87891l-1.65039,4.49707l-0.37598-0.35449
			L194.4873,33.3662z M194.65625,32.92089l0.64063-1.70898l-1.67676,0.73145L194.65625,32.92089z"/>
		
			<path fill="#A3A3A3" stroke="#A3A3A3" stroke-width="0.25" stroke-linecap="round" stroke-linejoin="round" stroke-miterlimit="10" d="
			M198.21289,33.93944l-3.08789,2.14941l-0.26758-0.38281l3.08887-2.15039l-0.58301-0.83691l0.36133-0.25293l1.43359,2.05859
			l-0.3623,0.25195L198.21289,33.93944z"/>
		
			<path fill="#A3A3A3" stroke="#A3A3A3" stroke-width="0.25" stroke-linecap="round" stroke-linejoin="round" stroke-miterlimit="10" d="
			M200.29883,37.96581l-0.68555-1.57031l-1.14258,0.5l0.66602,1.52246l-0.4043,0.17676l-0.66504-1.52344l-1.49512,0.65234
			l0.68555,1.57031l-0.4043,0.17578l-0.87109-1.99707l3.84961-1.68066l0.87109,1.99707L200.29883,37.96581z"/>
	</g>
	<g>
		<circle fill="none" cx="183.01788" cy="44.24549" r="13.74777"/>
		
			<path fill="#A3A3A3" stroke="#A3A3A3" stroke-width="0.25" stroke-linecap="round" stroke-linejoin="round" stroke-miterlimit="10" d="
			M175.6582,57.02538l-2.03613,3.40332l-0.37793-0.22607l2.03613-3.40381L175.6582,57.02538z"/>
		
			<path fill="#A3A3A3" stroke="#A3A3A3" stroke-width="0.25" stroke-linecap="round" stroke-linejoin="round" stroke-miterlimit="10" d="
			M175.52734,61.49022l1.29004-3.92285l1.92285,4.04102l0.95898-2.91748l0.41797,0.13721l-1.29297,3.93311l-1.92383-4.04004
			l-0.95508,2.90527L175.52734,61.49022z"/>
		
			<path fill="#A3A3A3" stroke="#A3A3A3" stroke-width="0.25" stroke-linecap="round" stroke-linejoin="round" stroke-miterlimit="10" d="
			M182.10938,58.97216c0.39844,0.02051,0.72852,0.08545,0.98242,0.33105c0.27832,0.26514,0.33105,0.61963,0.31836,0.86865
			c-0.0293,0.55859-0.41016,1.09229-1.3125,1.04541l-0.38574-0.021l-0.09082,1.72168l-0.43945-0.02295l0.20898-3.96143
			L182.10938,58.97216z M181.73438,60.78026l0.36133,0.01904c0.52344,0.02734,0.85156-0.21631,0.87598-0.6748
			c0.0332-0.62891-0.55176-0.71973-0.83691-0.73486l-0.32617-0.0166L181.73438,60.78026z"/>
		
			<path fill="#A3A3A3" stroke="#A3A3A3" stroke-width="0.25" stroke-linecap="round" stroke-linejoin="round" stroke-miterlimit="10" d="
			M185.21094,61.31835c0.06055,0.32715,0.12695,0.68359,0.48633,0.89063c0.18164,0.104,0.46777,0.14258,0.68359,0.10205
			c0.2168-0.04004,0.46875-0.17822,0.60156-0.34229c0.26172-0.32031,0.19531-0.67676,0.13477-1.00488l-0.44531-2.39209
			l0.43359-0.08057l0.46582,2.50977c0.06152,0.32666,0.08496,0.64941-0.07129,0.98145
			c-0.17383,0.36523-0.5459,0.64648-1.04297,0.7373c-0.49609,0.09229-0.94434-0.03564-1.23828-0.31396
			c-0.26465-0.25391-0.3584-0.5625-0.41895-0.88965l-0.4668-2.50977l0.43262-0.08057L185.21094,61.31835z"/>
		
			<path fill="#A3A3A3" stroke="#A3A3A3" stroke-width="0.25" stroke-linecap="round" stroke-linejoin="round" stroke-miterlimit="10" d="
			M189.36719,58.03417l1.43945,3.24072l-0.40039,0.1792l-1.44141-3.24023l-0.87891,0.38965l-0.16992-0.37891l2.16016-0.96094
			l0.16992,0.37988L189.36719,58.03417z"/>
	</g>
	<g>
		<circle fill="none" cx="134.71875" cy="43.99999" r="14.57799"/>
		
			<path fill="#A3A3A3" stroke="#A3A3A3" stroke-width="0.25" stroke-linecap="round" stroke-linejoin="round" stroke-miterlimit="10" d="
			M116.39258,44.84667l3.75586-0.23291l0.0293,0.46484l-3.75586,0.23389l0.0625,1.01855l-0.43945,0.02734l-0.15625-2.50439
			l0.44141-0.02734L116.39258,44.84667z"/>
		
			<path fill="#A3A3A3" stroke="#A3A3A3" stroke-width="0.25" stroke-linecap="round" stroke-linejoin="round" stroke-miterlimit="10" d="
			M116.06934,41.71532c0.03906-0.27979,0.11621-0.69482,0.37207-0.97656c0.19531-0.2207,0.54297-0.38818,0.98535-0.32617
			c0.63574,0.08789,1.04492,0.5708,1.00098,1.20654l2.04102-1.06201l-0.07813,0.56152l-1.99609,1.01074l-0.01758,0.11865
			l1.82031,0.25391l-0.06445,0.46143l-4.15625-0.58057L116.06934,41.71532z M117.9668,42.18993l0.04102-0.29248
			c0.08008-0.57373-0.14648-0.95361-0.63281-1.02295c-0.23047-0.03223-0.4707,0.00439-0.65723,0.24561
			c-0.13184,0.17188-0.17285,0.38184-0.20215,0.58105l-0.03906,0.28125L117.9668,42.18993z"/>
		
			<path fill="#A3A3A3" stroke="#A3A3A3" stroke-width="0.25" stroke-linecap="round" stroke-linejoin="round" stroke-miterlimit="10" d="
			M116.86328,38.11669l4.01074,1.25732l-0.13965,0.44482l-4.01074-1.2583L116.86328,38.11669z"/>
		
			<path fill="#A3A3A3" stroke="#A3A3A3" stroke-width="0.25" stroke-linecap="round" stroke-linejoin="round" stroke-miterlimit="10" d="
			M120.38672,35.41112l0.86914-1.51855l0.08594,0.0498c0.4043,0.23145,0.77344,0.60205,0.95313,1.00977
			c0.08398,0.19336,0.35938,0.89453-0.12012,1.73096c-0.62012,1.08057-1.90723,1.41699-2.9668,0.80908
			c-1.05957-0.60596-1.41895-1.89258-0.7959-2.979c0.2002-0.3501,0.52246-0.70947,0.99902-0.90771
			c0.21973-0.0918,0.46973-0.15088,0.67285-0.17334l0.09961,0.45654c-0.20605,0.02002-0.40625,0.06445-0.57422,0.12842
			c-0.24121,0.09375-0.56055,0.27295-0.8125,0.70947c-0.50293,0.87988-0.19141,1.86914,0.6543,2.35498
			c0.99414,0.56836,1.95117,0.06494,2.34473-0.62354c0.27832-0.48633,0.27246-1.04785,0.02637-1.46533
			c-0.07813-0.12988-0.21094-0.30225-0.43457-0.44336l-0.62012,1.08057L120.38672,35.41112z"/>
		
			<path fill="#A3A3A3" stroke="#A3A3A3" stroke-width="0.25" stroke-linecap="round" stroke-linejoin="round" stroke-miterlimit="10" d="
			M123.74023,31.39257l1.29688-1.17529l0.06641,0.07471c0.31348,0.34375,0.54883,0.81055,0.5957,1.25342
			c0.02051,0.20947,0.06445,0.96045-0.64844,1.6084c-0.92188,0.83691-2.25,0.75977-3.07031-0.14307
			c-0.82227-0.9043-0.7666-2.23828,0.16016-3.07959c0.29883-0.271,0.71484-0.51367,1.23047-0.55615
			c0.23633-0.01953,0.49414,0.00195,0.69238,0.0415l-0.04492,0.46631c-0.20215-0.04541-0.40723-0.06396-0.58496-0.05469
			c-0.25977,0.01367-0.61914,0.08594-0.99219,0.42432c-0.75,0.68066-0.75977,1.71924-0.10352,2.44092
			c0.77051,0.84766,1.83496,0.66211,2.42188,0.12939c0.41406-0.37646,0.58203-0.91113,0.47656-1.38525
			c-0.0332-0.14746-0.1084-0.35156-0.27637-0.55566l-0.92285,0.8374L123.74023,31.39257z"/>
		
			<path fill="#A3A3A3" stroke="#A3A3A3" stroke-width="0.25" stroke-linecap="round" stroke-linejoin="round" stroke-miterlimit="10" d="
			M127.39063,27.10546l-1.52344,0.78613l0.57128,1.1084l1.47949-0.76221l0.20117,0.3916l-1.47852,0.76367l0.74805,1.4502
			l1.52345-0.78662l0.20215,0.39258l-1.9375,1L125.25,27.71239l1.9375-0.99854L127.39063,27.10546z"/>
		
			<path fill="#A3A3A3" stroke="#A3A3A3" stroke-width="0.25" stroke-linecap="round" stroke-linejoin="round" stroke-miterlimit="10" d="
			M129.46094,25.93505c0.27344-0.07471,0.68555-0.1665,1.04492-0.04102c0.2793,0.09277,0.57031,0.34717,0.6875,0.77783
			c0.16602,0.62012-0.11719,1.18604-0.71875,1.39453l1.77734,1.46289l-0.54688,0.14746l-1.71289-1.44092l-0.11523,0.03174
			l0.47852,1.77441l-0.44922,0.12158l-1.0957-4.05322L129.46094,25.93505z M129.76758,27.86522l0.28516-0.07568
			c0.55957-0.15137,0.82227-0.50977,0.69336-0.9834c-0.06055-0.2251-0.1875-0.43164-0.48242-0.5083
			c-0.21094-0.05469-0.41992-0.01123-0.61523,0.04199l-0.27344,0.07373L129.76758,27.86522z"/>
		
			<path fill="#A3A3A3" stroke="#A3A3A3" stroke-width="0.25" stroke-linecap="round" stroke-linejoin="round" stroke-miterlimit="10" d="
			M135.40039,27.12206l1.9707,0.19434l-0.06445,0.66357l-1.97168-0.19482L135.40039,27.12206z"/>
		
			<path fill="#A3A3A3" stroke="#A3A3A3" stroke-width="0.25" stroke-linecap="round" stroke-linejoin="round" stroke-miterlimit="10" d="
			M143.32031,29.65966l1.51953,0.87305l-0.05078,0.08789c-0.23242,0.40479-0.60352,0.77246-1.01172,0.95264
			c-0.19531,0.08447-0.89648,0.35645-1.73242-0.12402c-1.08203-0.62207-1.41602-1.9126-0.80664-2.97266
			s1.89844-1.41602,2.98633-0.79199c0.34961,0.20215,0.70898,0.52539,0.90625,1.00195
			c0.0918,0.22021,0.15039,0.47217,0.17188,0.6748l-0.45703,0.09961c-0.01953-0.20703-0.06445-0.40771-0.12695-0.57422
			c-0.09375-0.24316-0.27246-0.56396-0.70898-0.81543c-0.88086-0.50684-1.87305-0.19775-2.35938,0.64941
			c-0.57227,0.99463-0.06836,1.95264,0.61914,2.34863c0.48633,0.27979,1.04883,0.27588,1.4668,0.02979
			c0.13184-0.07715,0.30273-0.21191,0.44531-0.43457l-1.08008-0.62207L143.32031,29.65966z"/>
		
			<path fill="#A3A3A3" stroke="#A3A3A3" stroke-width="0.25" stroke-linecap="round" stroke-linejoin="round" stroke-miterlimit="10" d="
			M147.74609,30.43651c0.20117,0.19971,0.48633,0.51172,0.55859,0.88525c0.05762,0.29004-0.01758,0.66943-0.33398,0.98633
			c-0.45508,0.4541-1.08789,0.49023-1.56836,0.07129l-0.38281,2.27344l-0.40137-0.40137l0.39551-2.20654l-0.08398-0.08398
			l-1.30078,1.30176l-0.33008-0.32959l2.9707-2.97412L147.74609,30.43651z M146.22266,31.66698l0.20996,0.20898
			c0.41016,0.40918,0.85059,0.45898,1.19922,0.11084c0.16504-0.16455,0.28027-0.37939,0.2002-0.67334
			c-0.05859-0.20947-0.20117-0.36914-0.34375-0.51172l-0.20117-0.20068L146.22266,31.66698z"/>
		
			<path fill="#A3A3A3" stroke="#A3A3A3" stroke-width="0.25" stroke-linecap="round" stroke-linejoin="round" stroke-miterlimit="10" d="
			M148.65527,36.54247l-0.93262-1.52832l-1.27441,0.18604l-0.26855-0.44141l4.76953-0.64209l-2.78027,3.90479l-0.26855-0.44092
			L148.65527,36.54247z M148.9375,36.15673l1.06934-1.47949l-1.81152,0.26367L148.9375,36.15673z"/>
		
			<path fill="#A3A3A3" stroke="#A3A3A3" stroke-width="0.25" stroke-linecap="round" stroke-linejoin="round" stroke-miterlimit="10" d="
			M152.39746,37.62499l-3.94043,1.46387l-0.16211-0.43652l3.93945-1.46484L152.39746,37.62499z"/>
		
			<path fill="#A3A3A3" stroke="#A3A3A3" stroke-width="0.25" stroke-linecap="round" stroke-linejoin="round" stroke-miterlimit="10" d="
			M148.88867,40.06981l4.33203-0.6084l-2.94141,3.71924l3.22266-0.45313l0.06445,0.46143l-4.3457,0.61035l2.94336-3.71924
			l-3.21094,0.45068L148.88867,40.06981z"/>
		
			<path fill="#A3A3A3" stroke="#A3A3A3" stroke-width="0.25" stroke-linecap="round" stroke-linejoin="round" stroke-miterlimit="10" d="
			M152.42773,47.03075c0.11914-0.04053,0.25586-0.11914,0.34375-0.20361c0.07227-0.07324,0.17285-0.21289,0.20313-0.45068
			c0.05176-0.41357-0.16797-0.73291-0.55566-0.78223c-0.16309-0.02051-0.2627,0.01074-0.38281,0.11084
			c-0.1416,0.1084-0.22949,0.25684-0.31836,0.4043l-0.22559,0.37842c-0.1377,0.23047-0.27832,0.44043-0.47656,0.59424
			c-0.23828,0.18506-0.49414,0.24219-0.79492,0.20459c-0.76953-0.09814-1.20898-0.73193-1.11523-1.48291
			c0.03516-0.27539,0.13477-0.61279,0.45313-0.86475c0.22656-0.18066,0.53027-0.26904,0.78711-0.29395l0.06836,0.46631
			c-0.22266,0.00342-0.42383,0.07959-0.56348,0.18311c-0.2041,0.15771-0.28027,0.35889-0.30762,0.5708
			c-0.07227,0.56982,0.30078,0.89014,0.71973,0.94336c0.1875,0.02393,0.35742-0.01221,0.51465-0.14551
			c0.12695-0.10352,0.22266-0.25781,0.35156-0.46338l0.22168-0.354c0.09668-0.15186,0.20996-0.34766,0.41504-0.5127
			c0.19727-0.15869,0.40527-0.24072,0.71875-0.20068c0.64355,0.08105,1.01367,0.63037,0.92773,1.30518
			c-0.0332,0.25635-0.10938,0.45801-0.27344,0.646c-0.13379,0.15527-0.32031,0.27686-0.51367,0.34863L152.42773,47.03075z"/>
	</g>
	<g>
		<g>
			
				<path fill="#A3A3A3" stroke="#A3A3A3" stroke-width="0.25" stroke-linecap="round" stroke-linejoin="round" stroke-miterlimit="10" d="
				M127.11914,56.91308l-2.23633,3.55322l-0.39453-0.24756l2.2373-3.55371L127.11914,56.91308z"/>
			
				<path fill="#A3A3A3" stroke="#A3A3A3" stroke-width="0.25" stroke-linecap="round" stroke-linejoin="round" stroke-miterlimit="10" d="
				M126.86719,61.62694l1.41992-4.14551l1.98828,4.3125l1.05664-3.08301l0.44141,0.15088l-1.42383,4.15869l-1.98828-4.31348
				l-1.05273,3.07178L126.86719,61.62694z"/>
			
				<path fill="#A3A3A3" stroke="#A3A3A3" stroke-width="0.25" stroke-linecap="round" stroke-linejoin="round" stroke-miterlimit="10" d="
				M133.84766,59.02782c0.42188,0.02393,0.77148,0.09277,1.04102,0.354c0.29395,0.28076,0.34961,0.65674,0.33398,0.92139
				c-0.03125,0.59131-0.43555,1.15527-1.39258,1.104l-0.4082-0.02246l-0.10059,1.82471l-0.46582-0.02588l0.23047-4.19824
				L133.84766,59.02782z M133.44531,60.94384l0.38477,0.021c0.55371,0.02979,0.90234-0.22852,0.92871-0.71289
				c0.03711-0.66748-0.58301-0.76416-0.88477-0.78076l-0.34668-0.01904L133.44531,60.94384z"/>
			
				<path fill="#A3A3A3" stroke="#A3A3A3" stroke-width="0.25" stroke-linecap="round" stroke-linejoin="round" stroke-miterlimit="10" d="
				M137.1543,61.50683c0.06836,0.34668,0.14258,0.72363,0.52344,0.93799c0.19434,0.10791,0.49609,0.146,0.72461,0.10059
				c0.22949-0.04443,0.49609-0.19238,0.63379-0.36768c0.27246-0.34131,0.19922-0.71777,0.13184-1.06396l-0.49414-2.52539
				l0.45703-0.08936l0.51855,2.64893c0.06738,0.34619,0.0957,0.68652-0.06641,1.03857
				c-0.18066,0.38867-0.57129,0.68896-1.0957,0.7915c-0.52441,0.10205-0.99902-0.02881-1.3125-0.3208
				c-0.28223-0.26465-0.38574-0.59131-0.45215-0.93652l-0.51758-2.64941l0.45605-0.08936L137.1543,61.50683z"/>
			
				<path fill="#A3A3A3" stroke="#A3A3A3" stroke-width="0.25" stroke-linecap="round" stroke-linejoin="round" stroke-miterlimit="10" d="
				M141.47949,57.96435l1.60059,3.40088l-0.4209,0.19873l-1.60059-3.3999l-0.92383,0.43408l-0.1875-0.39893l2.26758-1.06738
				l0.1875,0.39893L141.47949,57.96435z"/>
		</g>
	</g>
	<path fill="#A3A3A3" d="M135.06769,94.32343c-12.38165,0-22.41652,10.03744-22.41652,22.41844s10.03487,22.4178,22.41652,22.4178
		c12.38164,0,22.41908-10.03679,22.41908-22.41779S147.44933,94.32343,135.06769,94.32343z M145.86339,123.21351v0.10796h-0.53207
		c-0.02571,0-0.04884,0.01543-0.07454,0.01543c-0.02571,0-0.04884-0.01543-0.07454-0.01543h-20.0903v-0.03856
		c-0.06425,0.00257-0.1208,0.03856-0.18764,0.03856c-2.67065,0-4.83494-2.19256-4.83494-4.89662
		c0-2.69443,2.14886-4.87478,4.80666-4.89149c-0.32901-0.47295-0.56806-1.01659-0.56806-1.63799
		c0-1.61358,1.30834-2.92062,2.92255-2.92062c1.08215,0,1.98949,0.61561,2.49329,1.49019
		c1.26721-2.00556,3.73224-3.38586,6.60338-3.38586c4.15121,0,7.51843,2.85572,7.51843,6.37782
		c0,0.11439-0.03084,0.22041-0.03854,0.33351h0.08482c0.43953-0.13238,0.87907-0.2776,1.36488-0.2776
		c2.69121,0,4.87091,2.19898,4.87091,4.91205C150.12769,120.92072,148.25386,122.89993,145.86339,123.21351z"/>
	<path fill="#A3A3A3" d="M110.63477,162.62224v0.02771h-0.13655c-0.0066,0-0.01254,0.00397-0.01913,0.00397
		c-0.0066,0-0.01254-0.00397-0.01913-0.00397H105.304v-0.00989c-0.01649,0.00066-0.03101,0.00989-0.04816,0.00989
		c-0.68539,0-1.24084-0.5627-1.24084-1.25667c0-0.6915,0.55148-1.25105,1.23358-1.25534
		c-0.08443-0.12138-0.14578-0.26091-0.14578-0.42038c0-0.41411,0.33577-0.74954,0.75004-0.74954
		c0.27773,0,0.51058,0.15799,0.63988,0.38243c0.32522-0.51469,0.95784-0.86894,1.69469-0.86894
		c1.06536,0,1.92953,0.73289,1.92953,1.6368c0,0.02936-0.00792,0.05658-0.0099,0.0856h0.02177
		c0.11281-0.03398,0.22561-0.07124,0.35029-0.07124c0.69067,0,1.25007,0.56435,1.25007,1.26062
		C111.72916,162.03381,111.24827,162.54176,110.63477,162.62224z"/>
	<g>
		<circle id="circle8474_2_" fill="#A3A3A3" cx="83.2864" cy="114.46276" r="0.33984"/>
		<circle id="circle8476_2_" fill="#A3A3A3" cx="85.18624" cy="115.78276" r="0.33984"/>
		<circle id="circle8478_2_" fill="#A3A3A3" cx="81.62176" cy="115.273" r="0.33984"/>
		<circle id="circle8480_2_" fill="#A3A3A3" cx="86.28256" cy="116.521" r="0.33984"/>
		<circle id="circle8482_2_" fill="#A3A3A3" cx="80.71744" cy="116.83396" r="0.33984"/>
		<circle id="circle8484_2_" fill="#A3A3A3" cx="81.70816" cy="118.27396" r="0.33984"/>
		<circle id="circle8486_2_" fill="#A3A3A3" cx="84.47585" cy="118.5514" r="0.31776"/>
		<circle id="circle8488_4_" fill="#A3A3A3" cx="82.15072" cy="116.61604" r="0.44736"/>
		<circle id="circle8490_4_" fill="#A3A3A3" cx="83.57536" cy="115.72038" r="0.44736"/>
		<circle id="circle8492_2_" fill="#A3A3A3" cx="83.128" cy="117.51172" r="0.44736"/>
		<circle id="circle8494_4_" fill="#A3A3A3" cx="84.28288" cy="117.06342" r="0.44736"/>
		<circle id="circle8496_2_" fill="#A3A3A3" cx="85.38304" cy="117.38308" r="0.44736"/>
	</g>
	<g>
		<circle id="circle8488_3_" fill="#A3A3A3" cx="57.42376" cy="161.69383" r="0.44736"/>
		<circle id="circle8490_3_" fill="#A3A3A3" cx="58.8484" cy="160.79816" r="0.44736"/>
		<circle id="circle8494_3_" fill="#A3A3A3" cx="59.55592" cy="162.14119" r="0.44736"/>
	</g>
	<g>
		<circle fill="none" cx="186.44551" cy="145.47665" r="28.59473"/>
		<path fill="#A3A3A3" d="M195.46387,119.25488c-0.17676,0.59863-0.72461,1.01123-1.50781,0.7793
			c-0.78223-0.23145-1.0166-0.87598-0.83984-1.47363c0.12305-0.41406,0.41699-0.70898,0.8584-0.76563
			c-0.25195-0.26855-0.32227-0.62109-0.2168-0.97803c0.16211-0.54639,0.68262-0.95508,1.37305-0.75098
			c0.69043,0.20459,0.9043,0.83057,0.74316,1.37744c-0.10449,0.35645-0.35645,0.61377-0.71387,0.70215
			C195.5,118.43359,195.58594,118.84032,195.46387,119.25488z M195.04102,119.11669
			c0.12793-0.43115-0.09375-0.82178-0.53125-0.95117s-0.83691,0.07764-0.96387,0.50928
			c-0.12988,0.4375,0.08301,0.83789,0.52637,0.96875S194.91211,119.55419,195.04102,119.11669z M195.46973,117.33007
			c0.125-0.41992-0.10352-0.76855-0.45508-0.87305c-0.35059-0.10352-0.73145,0.06543-0.85645,0.48486
			c-0.1123,0.37939,0.08691,0.74463,0.45996,0.85547C194.99219,117.9077,195.35742,117.70947,195.46973,117.33007z"/>
		<path fill="#A3A3A3" d="M200.00195,118.01952l-0.45996,3.22266l2.44434-2.14941l0.43359,0.2334l-3.44336,2.96191l0.5918-4.50244
			L200.00195,118.01952z"/>
		<path fill="#A3A3A3" d="M202.28906,121.5835c0.73047-0.94336,2.00098-1.06592,2.91113-0.36084
			c0.90918,0.70459,1.1084,1.96484,0.37695,2.90771c-0.72656,0.93799-1.99609,1.06982-2.91016,0.36084
			C201.75293,123.7827,201.5625,122.52147,202.28906,121.5835z M202.64941,121.86229
			c-0.56055,0.72461-0.43555,1.74707,0.27539,2.29736c0.70898,0.55029,1.73145,0.4165,2.29199-0.30811
			c0.5625-0.7251,0.4375-1.74707-0.27344-2.29736S203.21191,121.1377,202.64941,121.86229z"/>
		<path fill="#A3A3A3" d="M208.31152,124.07616l-2.85156,2.81836l-0.3125-0.31641l2.85059-2.81738L208.31152,124.07616z"/>
		<path fill="#A3A3A3" d="M210.78223,128.37549c0.02148-0.17725,0.02148-0.42042-0.03027-0.64014
			c-0.05371-0.22461-0.1582-0.45508-0.30371-0.63867c-0.57031-0.72656-1.57813-0.80469-2.30469-0.2334
			c-0.85352,0.6709-0.73828,1.70167-0.28613,2.27735c0.16797,0.2124,0.3916,0.37109,0.60645,0.46973
			c0.23047,0.10938,0.44824,0.14355,0.5498,0.15527l-0.43359,0.3418c-0.52539-0.15332-0.86719-0.47168-1.05273-0.70752
			c-0.7334-0.93359-0.57227-2.1836,0.33887-2.89894c0.93945-0.7373,2.18945-0.58398,2.93164,0.35938
			c0.14844,0.18945,0.40918,0.57031,0.41797,1.17481L210.78223,128.37549z"/>
		<path fill="#A3A3A3" d="M213.08105,131.2749l-0.82227-1.4126l-1.02832,0.59814l0.79785,1.37158l-0.36426,0.21143l-0.79785-1.37158
			l-1.34473,0.7832l0.82227,1.41309l-0.36328,0.21191l-1.0459-1.79736l3.46387-2.0166l1.0459,1.79736L213.08105,131.2749z"/>
		<path fill="#A3A3A3" d="M214.14648,134.51172c0.07813-0.0918,0.15332-0.22168,0.18359-0.33252
			c0.02539-0.09521,0.04004-0.2583-0.04883-0.46826c-0.1543-0.36426-0.48926-0.52148-0.83105-0.37549
			c-0.14355,0.06104-0.20996,0.13428-0.26074,0.27441c-0.06445,0.15674-0.06641,0.3208-0.06738,0.48438l-0.00488,0.41943
			c-0.00195,0.25439-0.0166,0.49512-0.10547,0.71582c-0.1084,0.26758-0.29004,0.43604-0.55469,0.54883
			c-0.67871,0.28906-1.34375-0.02002-1.62695-0.68213c-0.10352-0.24268-0.18262-0.56689-0.04297-0.92676
			c0.09961-0.25732,0.30566-0.47607,0.50684-0.61963l0.27832,0.35059c-0.18164,0.11035-0.30859,0.26855-0.375,0.4209
			c-0.09082,0.22754-0.05859,0.42871,0.02148,0.61621c0.21387,0.50195,0.67383,0.58643,1.04395,0.42871
			c0.16504-0.07031,0.28711-0.18066,0.35156-0.36523c0.05566-0.14697,0.05957-0.31836,0.06641-0.54932l0.01367-0.39697
			c0.00488-0.17188,0.00488-0.38672,0.09375-0.62012c0.08594-0.22559,0.21777-0.39258,0.49316-0.51025
			c0.56836-0.2417,1.13477,0.03174,1.38867,0.62793c0.0957,0.22607,0.12988,0.42725,0.08594,0.66064
			c-0.03613,0.19092-0.13086,0.38184-0.25586,0.53223L214.14648,134.51172z"/>
		<path fill="#A3A3A3" d="M215.77246,140.21387c0.0957-0.07422,0.19434-0.18652,0.24707-0.28955
			c0.04395-0.08838,0.09082-0.24561,0.04492-0.46875c-0.0791-0.38818-0.37598-0.60986-0.74023-0.53467
			c-0.1543,0.03125-0.2334,0.09033-0.3125,0.2168c-0.09277,0.1416-0.12695,0.30176-0.16113,0.46191l-0.08887,0.41064
			c-0.05176,0.24951-0.11523,0.4834-0.24609,0.68164c-0.15918,0.2417-0.37207,0.37061-0.6543,0.42871
			c-0.72266,0.14844-1.31445-0.28857-1.45996-0.99414c-0.05273-0.25928-0.06543-0.59326,0.14355-0.91846
			c0.14844-0.23242,0.39453-0.40527,0.61914-0.50684l0.20508,0.39941c-0.20117,0.07129-0.3584,0.20215-0.45215,0.33789
			c-0.13672,0.20557-0.14355,0.40918-0.10254,0.60938c0.11035,0.53516,0.54395,0.70996,0.9375,0.62891
			c0.17773-0.03613,0.31836-0.12012,0.41895-0.28809c0.08398-0.13379,0.12402-0.30029,0.1748-0.52588l0.09277-0.38672
			c0.03906-0.16748,0.08203-0.37842,0.21582-0.58936c0.12988-0.20459,0.29199-0.34229,0.58594-0.40234
			c0.60645-0.12402,1.10742,0.25732,1.2373,0.89258c0.0498,0.24121,0.04199,0.44482-0.04785,0.66602
			c-0.07227,0.18066-0.2041,0.34766-0.35645,0.47119L215.77246,140.21387z"/>
		<path fill="#A3A3A3" d="M216.49609,142.95264l-3.56543,0.32764l-0.04004-0.44238l3.56445-0.32715l-0.08887-0.96777
			l0.41797-0.03809l0.21875,2.37744l-0.41895,0.0376L216.49609,142.95264z"/>
		<path fill="#A3A3A3" d="M214.10742,147.17725l0.05176-1.70215l-1.1123-0.51416l0.0166-0.49072l4.13086,1.96924l-4.24414,1.66211
			l0.01563-0.49121L214.10742,147.17725z M214.53125,147.0166l1.62109-0.62207l-1.5791-0.73242L214.53125,147.0166z"/>
		<path fill="#A3A3A3" d="M215.35938,152.4165c0.14648-0.10205,0.32813-0.26416,0.45996-0.44678
			c0.13281-0.18945,0.23535-0.4209,0.27734-0.65137c0.16602-0.90967-0.44336-1.7168-1.35254-1.88281
			c-1.06836-0.19531-1.76563,0.57471-1.89648,1.29492c-0.04883,0.26563-0.01953,0.54004,0.04883,0.76563
			c0.07129,0.24512,0.18945,0.43164,0.24805,0.51563l-0.54395-0.09961c-0.2334-0.49414-0.2207-0.96191-0.16699-1.25684
			c0.21387-1.16992,1.25879-1.87598,2.39844-1.66748c1.17578,0.21436,1.88867,1.25391,1.67285,2.43555
			c-0.04297,0.23633-0.15625,0.68555-0.60254,1.09229L215.35938,152.4165z"/>
		<path fill="#A3A3A3" d="M213.99609,154.07617l1.0752,2.16895l-0.19336,0.56836l-1.16406-2.37695l-2.64844,1.1416l0.19824-0.57959
			l2.26855-0.95947l-0.07129-0.14551l-1.63281-0.55566l0.14355-0.4209l3.79395,1.29199l-0.14355,0.42041L213.99609,154.07617z"/>
	</g>
	<g>
		<circle fill="none" cx="186.44551" cy="145.47665" r="28.59473"/>
		<path fill="#A3A3A3" d="M162.40332,129.96973l0.8877-1.41309l0.08105,0.05078c0.37695,0.23584,0.71289,0.60254,0.86816,0.99902
			c0.07324,0.1875,0.30762,0.86621-0.18066,1.64355c-0.63184,1.00781-1.87305,1.27783-2.85938,0.65869
			c-0.98633-0.61963-1.2793-1.85889-0.64355-2.87109c0.2041-0.32471,0.52539-0.65527,0.9873-0.82666
			c0.21289-0.0791,0.4541-0.12598,0.64746-0.14014l0.07813,0.43994c-0.19824,0.01074-0.38965,0.0459-0.55176,0.10059
			c-0.23438,0.0791-0.54688,0.2373-0.80273,0.64453c-0.5127,0.81885-0.25488,1.77441,0.5332,2.26953
			c0.92578,0.58105,1.85645,0.13672,2.25781-0.50391c0.28516-0.45215,0.30176-0.98682,0.08203-1.39404
			c-0.06836-0.12842-0.19043-0.29736-0.39648-0.44092l-0.63281,1.00635L162.40332,129.96973z"/>
		<path fill="#A3A3A3" d="M163.125,125.65624c0.17676-0.20313,0.4541-0.49512,0.80371-0.58838
			c0.27148-0.07422,0.63574-0.02881,0.95801,0.25146c0.46191,0.40039,0.53906,0.99902,0.17383,1.48438l2.18262,0.21094
			l-0.35352,0.40723l-2.12109-0.22754l-0.07422,0.08545l1.32227,1.14796l-0.29102,0.33496l-3.02148-2.62159L163.125,125.65624z
			 M164.39551,127.0205l0.18359-0.21289c0.3623-0.41602,0.37891-0.83887,0.02539-1.14551
			c-0.16699-0.14502-0.37891-0.24121-0.65137-0.14453c-0.19629,0.06836-0.33887,0.21436-0.46387,0.36035l-0.17773,0.20313
			L164.39551,127.0205z"/>
		<path fill="#A3A3A3" d="M168.87598,123.99364l-1.2832,1.12109l0.38086,1.16455l-0.37012,0.32422l-1.37207-4.36914l4.10938,1.97754
			l-0.37109,0.32275L168.87598,123.99364z M168.46875,123.79198l-1.56055-0.76367l0.53906,1.65527L168.46875,123.79198z"/>
		<path fill="#A3A3A3" d="M169.22852,120.16698l2.27344,3.29199l-0.36426,0.25195l-2.27441-3.2915L169.22852,120.16698z"/>
		<path fill="#A3A3A3" d="M172.63477,122.66405l-1.91113-3.70996l4.27441,1.47949l-1.4209-2.75879l0.39453-0.2041l1.91602,3.7207
			l-4.27344-1.479l1.41602,2.74854L172.63477,122.66405z"/>
		<path fill="#A3A3A3" d="M177.72168,116.95604c-0.08594-0.08545-0.20898-0.16992-0.31738-0.20996
			c-0.09277-0.03271-0.25391-0.06055-0.46973,0.01221c-0.375,0.12549-0.55859,0.4458-0.44141,0.79834
			c0.0498,0.14697,0.11816,0.21973,0.25293,0.28174c0.15137,0.07568,0.31543,0.09131,0.47754,0.10596l0.41797,0.03711
			c0.25391,0.02295,0.49219,0.05615,0.70508,0.16211c0.25781,0.12842,0.41113,0.32373,0.50293,0.59668
			c0.2334,0.69922-0.12695,1.33887-0.80957,1.56738c-0.25098,0.08301-0.58008,0.13721-0.92676-0.03174
			c-0.24902-0.11865-0.4502-0.34229-0.57715-0.55322l0.37109-0.25c0.0957,0.18848,0.24316,0.33008,0.38965,0.40674
			c0.21973,0.10986,0.42285,0.09326,0.61621,0.02832c0.5166-0.17334,0.6377-0.62451,0.50977-1.00537
			c-0.05664-0.1709-0.15723-0.30176-0.33594-0.38086c-0.14258-0.06641-0.3125-0.08545-0.54199-0.10938l-0.39453-0.04541
			c-0.1709-0.01855-0.38477-0.03467-0.61035-0.14307c-0.21875-0.104-0.37402-0.24805-0.46875-0.53174
			c-0.19629-0.58594,0.12109-1.12939,0.73535-1.33447c0.2334-0.07764,0.43652-0.09521,0.66504-0.03223
			c0.18848,0.05127,0.37012,0.16016,0.51074,0.29688L177.72168,116.95604z"/>
	</g>
</g>
</svg>
