<?xml version="1.0" encoding="utf-8"?>
<!-- Generator: Adobe Illustrator 24.0.2, SVG Export Plug-In . SVG Version: 6.00 Build 0)  -->
<svg version="1.0" id="Layer_1" xmlns="http://www.w3.org/2000/svg" xmlns:xlink="http://www.w3.org/1999/xlink" x="0px" y="0px"
	 width="270px" height="380px" viewBox="0 0 270 380" enable-background="new 0 0 270 380" xml:space="preserve">
<g id="_x35_">
	<rect y="-0.00001" fill="none" width="270" height="380"/>
	<g>
		<circle fill="#262424" stroke="#606266" stroke-width="0.75" stroke-miterlimit="10" cx="83.5" cy="145.5" r="34.93385"/>
		
			<line fill="none" stroke="#606266" stroke-width="0.75" stroke-miterlimit="10" x1="83.5" y1="145.5" x2="58.79808" y2="170.20192"/>
		
			<line fill="none" stroke="#606266" stroke-width="0.5" stroke-miterlimit="10" x1="83.5" y1="145.5" x2="50.8044" y2="157.82994"/>
		
			<line fill="none" stroke="#606266" stroke-width="0.5" stroke-miterlimit="10" x1="83.5" y1="145.5" x2="116.19559" y2="157.82994"/>
		
			<line fill="none" stroke="#606266" stroke-width="0.5" stroke-miterlimit="10" x1="83.5" y1="145.5" x2="76.40034" y2="111.28825"/>
		
			<line fill="none" stroke="#606266" stroke-width="0.5" stroke-miterlimit="10" x1="83.5" y1="145.5" x2="90.59966" y2="111.28825"/>
		
			<line fill="none" stroke="#606266" stroke-width="0.75" stroke-miterlimit="10" x1="83.5" y1="145.5" x2="108.20195" y2="170.20195"/>
		<circle fill="#262424" stroke="#606266" stroke-width="0.75" stroke-miterlimit="10" cx="83.5" cy="145.5" r="23.5"/>
	</g>
	<g>
		<circle fill="#262424" stroke="#606266" stroke-width="0.5" stroke-miterlimit="10" cx="186.44551" cy="145.5" r="34.93385"/>
		<circle fill="#262424" stroke="#606266" stroke-width="0.75" stroke-miterlimit="10" cx="186.44551" cy="145.5" r="34.93385"/>
		
			<line fill="none" stroke="#606266" stroke-width="0.5" stroke-miterlimit="10" x1="186.44551" y1="145.5" x2="154.08533" y2="157.70346"/>
		
			<line fill="none" stroke="#606266" stroke-width="0.5" stroke-miterlimit="10" x1="186.44551" y1="145.5" x2="218.80569" y2="157.70346"/>
		
			<line fill="none" stroke="#606266" stroke-width="0.75" stroke-miterlimit="10" x1="186.44551" y1="145.5" x2="161.74948" y2="170.19603"/>
		
			<line fill="none" stroke="#606266" stroke-width="0.75" stroke-miterlimit="10" x1="186.44551" y1="145.5" x2="211.14154" y2="170.19603"/>
		<circle fill="#262424" stroke="#606266" stroke-width="0.75" stroke-miterlimit="10" cx="186.44551" cy="145.5" r="23.5"/>
	</g>
	<g>
		<circle fill="#262424" stroke="#606266" stroke-width="0.5" stroke-miterlimit="10" cx="135" cy="198.5" r="34.93385"/>
		
			<line fill="none" stroke="#606266" stroke-width="0.75" stroke-miterlimit="10" x1="135" y1="198.5" x2="110.59309" y2="222.90691"/>
		
			<line fill="none" stroke="#606266" stroke-width="0.5" stroke-miterlimit="10" x1="135" y1="198.5" x2="102.63982" y2="210.70346"/>
		
			<line fill="none" stroke="#606266" stroke-width="0.5" stroke-miterlimit="10" x1="135" y1="198.5" x2="167.69551" y2="210.82991"/>
		
			<line fill="none" stroke="#606266" stroke-width="0.75" stroke-miterlimit="10" x1="135" y1="198.5" x2="159.70186" y2="223.20186"/>
		<circle fill="#262424" stroke="#606266" stroke-width="0.75" stroke-miterlimit="10" cx="135" cy="198.5" r="23.5"/>
	</g>
	<g>
		<circle fill="#262424" stroke="#606266" stroke-width="0.5" stroke-miterlimit="10" cx="135" cy="283.5" r="34.93385"/>
		
			<line fill="none" stroke="#606266" stroke-width="0.75" stroke-miterlimit="10" x1="135" y1="283.5" x2="110.30396" y2="308.19604"/>
		
			<line fill="none" stroke="#606266" stroke-width="0.75" stroke-miterlimit="10" x1="135" y1="283.5" x2="159.69603" y2="308.19604"/>
		<line fill="none" stroke="#606266" stroke-width="0.5" stroke-miterlimit="10" x1="135" y1="248.56616" x2="135" y2="283.5"/>
		<circle fill="#262424" stroke="#606266" stroke-width="0.75" stroke-miterlimit="10" cx="135" cy="283.5" r="23.5"/>
	</g>
	<g>
		<circle fill="none" cx="71" cy="351" r="14.578"/>
		
			<path fill="#A3A3A3" stroke="#A3A3A3" stroke-width="0.25" stroke-linecap="round" stroke-linejoin="round" stroke-miterlimit="10" d="
			M52.63672,350.22949l0.03125,1.44727l1.24023-0.02539l-0.0293-1.39844l0.44141-0.00879l0.02832,1.39893l2.0791-0.04395
			l0.00977,0.46533l-4.20117,0.08838l-0.04102-1.91504L52.63672,350.22949z"/>
		
			<path fill="#A3A3A3" stroke="#A3A3A3" stroke-width="0.25" stroke-linecap="round" stroke-linejoin="round" stroke-miterlimit="10" d="
			M54.27539,349.14746c-1.2168-0.29736-1.87891-1.46436-1.5918-2.63818c0.28711-1.1748,1.41211-1.90576,2.62891-1.60742
			c1.21094,0.29492,1.88086,1.45703,1.5918,2.63721C56.61621,348.71973,55.4873,349.44287,54.27539,349.14746z M54.38965,348.68213
			c0.93555,0.229,1.8623-0.3291,2.08691-1.24707c0.22461-0.91748-0.3418-1.83984-1.27734-2.06885
			c-0.93555-0.22803-1.86328,0.33008-2.08691,1.24756C52.8877,347.53174,53.45313,348.45361,54.38965,348.68213z"/>
		
			<path fill="#A3A3A3" stroke="#A3A3A3" stroke-width="0.25" stroke-linecap="round" stroke-linejoin="round" stroke-miterlimit="10" d="
			M54.43359,342.11572c0.13867-0.24707,0.36133-0.60547,0.70215-0.77588c0.2627-0.13379,0.64746-0.16309,1.03809,0.05518
			c0.55957,0.31494,0.76367,0.91309,0.49219,1.48828l2.28711-0.24561l-0.27637,0.49512l-2.22754,0.21387l-0.05859,0.10449
			l1.60254,0.89844l-0.22754,0.40771l-3.66113-2.0542L54.43359,342.11572z M56.02832,343.24854l0.14551-0.25879
			c0.2832-0.50439,0.21094-0.94189-0.21777-1.18262c-0.20313-0.11328-0.44043-0.16748-0.7002-0.01025
			c-0.1875,0.11182-0.30273,0.29297-0.40039,0.46875l-0.13867,0.24609L56.02832,343.24854z"/>
		
			<path fill="#A3A3A3" stroke="#A3A3A3" stroke-width="0.25" stroke-linecap="round" stroke-linejoin="round" stroke-miterlimit="10" d="
			M59.13477,342.18506l-2.61133-3.6499l3.63477,1.396l-1.31836-3.68359l3.58008,2.70557l-0.34082,0.33496l-2.33105-1.80371
			l1.15234,3.21045l-3.17773-1.21924l1.75195,2.37402L59.13477,342.18506z"/>
		
			<path fill="#A3A3A3" stroke="#A3A3A3" stroke-width="0.25" stroke-linecap="round" stroke-linejoin="round" stroke-miterlimit="10" d="
			M64.71484,336.48096l-1.5957,0.80322l0.08203,1.28271l-0.46094,0.23242l-0.25195-4.79834l3.6582,3.0835l-0.46094,0.23193
			L64.71484,336.48096z M64.35352,336.16895l-1.38477-1.18408l0.11523,1.82275L64.35352,336.16895z"/>
		
			<path fill="#A3A3A3" stroke="#A3A3A3" stroke-width="0.25" stroke-linecap="round" stroke-linejoin="round" stroke-miterlimit="10" d="
			M66.60352,336.93799l-0.76563-4.30811l3.82422,2.80518l-0.57031-3.20557l0.45898-0.08057l0.76758,4.32129l-3.82422-2.80615
			l0.56836,3.19287L66.60352,336.93799z"/>
		
			<path fill="#A3A3A3" stroke="#A3A3A3" stroke-width="0.25" stroke-linecap="round" stroke-linejoin="round" stroke-miterlimit="10" d="
			M72.5957,332.69336l-0.2793,3.75391l-0.46484-0.03369l0.2793-3.75439l-1.01953-0.07666l0.0332-0.44043l2.50293,0.18701
			l-0.03223,0.43994L72.5957,332.69336z"/>
		
			<path fill="#A3A3A3" stroke="#A3A3A3" stroke-width="0.25" stroke-linecap="round" stroke-linejoin="round" stroke-miterlimit="10" d="
			M79.03906,336.3374l1.55176,0.81396l-0.04688,0.08984c-0.21777,0.41309-0.5752,0.79541-0.97656,0.99023
			c-0.19043,0.09229-0.88184,0.39111-1.73535-0.05762c-1.10547-0.58008-1.49023-1.85742-0.91992-2.94092
			c0.56836-1.08301,1.84375-1.48828,2.95508-0.90527c0.35645,0.1875,0.72852,0.49658,0.94531,0.96729
			c0.09961,0.21533,0.16797,0.46533,0.19727,0.6665l-0.45313,0.11768c-0.02734-0.20605-0.08008-0.4043-0.15039-0.57031
			c-0.10156-0.23926-0.29297-0.55322-0.74023-0.78711c-0.89844-0.47217-1.87891-0.125-2.33301,0.73975
			c-0.53418,1.01611,0.00488,1.95508,0.70996,2.32471c0.49609,0.26074,1.05762,0.23584,1.4668-0.02637
			c0.12891-0.08301,0.29492-0.22266,0.42969-0.45166l-1.10547-0.58105L79.03906,336.3374z"/>
		
			<path fill="#A3A3A3" stroke="#A3A3A3" stroke-width="0.25" stroke-linecap="round" stroke-linejoin="round" stroke-miterlimit="10" d="
			M83.49609,336.94092c0.20898,0.19287,0.50586,0.49365,0.5918,0.86523c0.06836,0.28711,0.00781,0.66895-0.29688,0.99854
			c-0.4375,0.47168-1.06836,0.53125-1.56641,0.13135l-0.2959,2.28711l-0.41699-0.38574l0.3125-2.22217l-0.08789-0.08105
			l-1.25195,1.35205l-0.3418-0.31787l2.8584-3.08643L83.49609,336.94092z M82.01953,338.22852l0.2168,0.20264
			c0.42578,0.39404,0.86914,0.42578,1.20313,0.06543c0.15918-0.17139,0.2666-0.39014,0.17578-0.68115
			c-0.06641-0.20801-0.21484-0.3623-0.36328-0.49902l-0.20898-0.19336L82.01953,338.22852z"/>
		
			<path fill="#A3A3A3" stroke="#A3A3A3" stroke-width="0.25" stroke-linecap="round" stroke-linejoin="round" stroke-miterlimit="10" d="
			M84.62891,343l-0.98926-1.48828l-1.26465,0.23486l-0.28711-0.42969l4.73633-0.82715l-2.62305,4.00439l-0.28613-0.42969
			L84.62891,343z M84.89453,342.60449l1.00977-1.51904l-1.79688,0.3335L84.89453,342.60449z"/>
		
			<path fill="#A3A3A3" stroke="#A3A3A3" stroke-width="0.25" stroke-linecap="round" stroke-linejoin="round" stroke-miterlimit="10" d="
			M88.4082,343.92139l-3.875,1.62256l-0.17969-0.43018l3.875-1.62158L88.4082,343.92139z"/>
		
			<path fill="#A3A3A3" stroke="#A3A3A3" stroke-width="0.25" stroke-linecap="round" stroke-linejoin="round" stroke-miterlimit="10" d="
			M85.00391,346.50781l4.30859-0.77539l-2.79688,3.83154l3.2041-0.57764l0.08301,0.45801l-4.32031,0.7793l2.79688-3.83154
			l-3.19238,0.57373L85.00391,346.50781z"/>
		
			<path fill="#A3A3A3" stroke="#A3A3A3" stroke-width="0.25" stroke-linecap="round" stroke-linejoin="round" stroke-miterlimit="10" d="
			M88.81348,353.33789c0.11816-0.04736,0.25098-0.13086,0.33496-0.21777c0.07031-0.07666,0.16504-0.21973,0.18555-0.4585
			c0.03516-0.41455-0.19629-0.72607-0.58594-0.75928c-0.16309-0.01416-0.26172,0.02148-0.37793,0.125
			c-0.13574,0.11523-0.21875,0.26514-0.30176,0.41699l-0.21094,0.38623c-0.12793,0.23535-0.26074,0.45215-0.45117,0.6123
			c-0.23242,0.19531-0.48438,0.26221-0.78711,0.23535c-0.77148-0.06641-1.2373-0.68311-1.17188-1.43652
			c0.02344-0.27686,0.11035-0.6167,0.41797-0.88037c0.21875-0.19092,0.51855-0.2915,0.77539-0.32666l0.08594,0.46484
			c-0.22266,0.01221-0.41992,0.09521-0.55566,0.20459c-0.19824,0.1665-0.26563,0.36914-0.28418,0.58203
			c-0.0498,0.57227,0.33496,0.87744,0.75586,0.91406c0.1875,0.01611,0.35645-0.02588,0.50781-0.16504
			c0.12305-0.10986,0.21289-0.2666,0.33203-0.47754l0.20898-0.36133c0.08984-0.15723,0.19531-0.35645,0.39453-0.52881
			c0.19043-0.16699,0.39453-0.25732,0.70898-0.22949c0.64648,0.05615,1.03711,0.59033,0.97852,1.26807
			c-0.02344,0.25684-0.09082,0.45947-0.24707,0.65625c-0.12793,0.15869-0.30957,0.28906-0.5,0.36768L88.81348,353.33789z"/>
	</g>
	<g>
		<circle fill="none" cx="199.5" cy="351.03378" r="14.578"/>
		
			<path fill="#A3A3A3" stroke="#A3A3A3" stroke-width="0.25" stroke-linecap="round" stroke-linejoin="round" stroke-miterlimit="10" d="
			M180.66602,350.66895l0.08105-0.85303c0.04004-0.41992,0.13965-1.01074,0.63379-1.49561
			c0.35547-0.35205,0.91992-0.63428,1.67285-0.5625c0.87793,0.08252,1.30664,0.55908,1.53613,0.88477
			c0.28906,0.41309,0.4082,0.82861,0.33789,1.57568l-0.08008,0.84473L180.66602,350.66895z M184.45313,350.55811l0.03809-0.40674
			c0.03125-0.33203,0.03711-0.79395-0.2627-1.23242c-0.23438-0.33887-0.62402-0.62891-1.21973-0.68506
			c-1.00293-0.09521-1.72168,0.54541-1.82129,1.60449l-0.03906,0.40869L184.45313,350.55811z"/>
		
			<path fill="#A3A3A3" stroke="#A3A3A3" stroke-width="0.25" stroke-linecap="round" stroke-linejoin="round" stroke-miterlimit="10" d="
			M181.63477,345.17188c0.09375-0.26758,0.25098-0.66113,0.55664-0.88818c0.23633-0.17773,0.60938-0.27393,1.0332-0.12744
			c0.60742,0.21094,0.91406,0.76611,0.74609,1.38281l2.21387-0.64502l-0.18652,0.53564l-2.15918,0.60352l-0.04004,0.11182
			l1.73926,0.60742l-0.1543,0.43945l-3.9707-1.38379L181.63477,345.17188z M183.40625,346.00879l0.09766-0.27979
			c0.19043-0.54785,0.04297-0.96631-0.4209-1.12891c-0.2207-0.0752-0.46387-0.08691-0.69434,0.11328
			c-0.16309,0.14307-0.24609,0.34082-0.31152,0.53174l-0.09277,0.26758L183.40625,346.00879z"/>
		
			<path fill="#A3A3A3" stroke="#A3A3A3" stroke-width="0.25" stroke-linecap="round" stroke-linejoin="round" stroke-miterlimit="10" d="
			M186.74316,341.69678l-0.9707,1.50244l0.72168,1.06641l-0.28125,0.43213l-2.64648-4.0127l4.71777,0.80859l-0.28027,0.43359
			L186.74316,341.69678z M186.27441,341.61133l-1.79492-0.32031l1.02246,1.51465L186.27441,341.61133z"/>
		
			<path fill="#A3A3A3" stroke="#A3A3A3" stroke-width="0.25" stroke-linecap="round" stroke-linejoin="round" stroke-miterlimit="10" d="
			M185.63477,338.104l2.8623,1.71582l-1.13281-3.42773l3.10449,1.7915l-1.06445-3.20508l0.39746-0.32959l1.46387,4.52539
			l-3.0957-1.7998l1.12891,3.43164l-4.06055-2.37256L185.63477,338.104z"/>
		
			<path fill="#A3A3A3" stroke="#A3A3A3" stroke-width="0.25" stroke-linecap="round" stroke-linejoin="round" stroke-miterlimit="10" d="
			M192.15625,333.70947c0.2168-0.08643,0.61523-0.22607,0.99316-0.11328c0.16113,0.04541,0.48535,0.19336,0.6748,0.66699
			c0.07715,0.19238,0.17188,0.54785-0.08008,0.9209c0.59863-0.08301,0.9873,0.31055,1.13672,0.68506
			c0.15039,0.37354,0.08496,0.75342-0.05957,1.00098c-0.21191,0.37061-0.56445,0.52393-0.83301,0.63232l-0.9707,0.38916
			l-1.5625-3.90088L192.15625,333.70947z M192.57422,335.53125l0.32715-0.13184c0.22852-0.09131,0.74707-0.35352,0.50684-0.95557
			c-0.25879-0.64355-0.89453-0.40283-1.01758-0.35303l-0.33887,0.13574L192.57422,335.53125z M193.28711,337.30859l0.49609-0.19971
			c0.25195-0.1001,0.49023-0.21631,0.61914-0.43799c0.10742-0.17236,0.13477-0.40723,0.04102-0.64111
			c-0.12402-0.31006-0.37793-0.41797-0.5625-0.43945c-0.17969-0.02295-0.39844,0.02393-0.70703,0.14893l-0.44531,0.17725
			L193.28711,337.30859z"/>
		
			<path fill="#A3A3A3" stroke="#A3A3A3" stroke-width="0.25" stroke-linecap="round" stroke-linejoin="round" stroke-miterlimit="10" d="
			M198.22656,335.26758l-1.77148,0.24316l-0.33691,1.24121l-0.51074,0.0708l1.3125-4.62256l2.46582,4.10254l-0.51172,0.06885
			L198.22656,335.26758z M197.98633,334.85547l-0.92871-1.56787l-0.48145,1.76221L197.98633,334.85547z"/>
		
			<path fill="#A3A3A3" stroke="#A3A3A3" stroke-width="0.25" stroke-linecap="round" stroke-linejoin="round" stroke-miterlimit="10" d="
			M201,332.27539c0.28125,0.02734,0.7002,0.08887,0.99219,0.33301c0.22852,0.18701,0.41016,0.52832,0.36621,0.97412
			c-0.06348,0.63916-0.53027,1.06787-1.16895,1.04834l1.14453,2.00146l-0.56445-0.05566l-1.0918-1.95898l-0.11914-0.01025
			l-0.18164,1.83105l-0.46387-0.04639l0.41504-4.18311L201,332.27539z M200.59961,334.19287l0.29492,0.0293
			c0.57715,0.05762,0.94922-0.18506,0.99805-0.67432c0.02344-0.23096-0.02246-0.47021-0.27148-0.64648
			c-0.17773-0.12646-0.38867-0.16016-0.58984-0.1792l-0.2832-0.02783L200.59961,334.19287z"/>
		
			<path fill="#A3A3A3" stroke="#A3A3A3" stroke-width="0.25" stroke-linecap="round" stroke-linejoin="round" stroke-miterlimit="10" d="
			M205.86719,334.19434c-0.01758-0.12451-0.06836-0.27441-0.13477-0.37598c-0.05762-0.08545-0.17578-0.21094-0.40332-0.28564
			c-0.39551-0.13037-0.75195,0.02344-0.87402,0.39502c-0.05273,0.15479-0.04004,0.25928,0.03418,0.39648
			c0.08008,0.16016,0.20801,0.27539,0.33691,0.39111l0.32715,0.29443c0.2002,0.17822,0.37988,0.35791,0.49316,0.58008
			c0.13672,0.27148,0.14258,0.53271,0.04785,0.82031c-0.24316,0.73633-0.95117,1.04736-1.66992,0.81104
			c-0.26465-0.08691-0.5752-0.25-0.76172-0.61084c-0.13379-0.25684-0.16309-0.57227-0.1377-0.83008l0.4707,0.02295
			c-0.03906,0.21973-0.00293,0.43018,0.07227,0.58936c0.11523,0.23096,0.29688,0.34326,0.50098,0.41113
			c0.54492,0.1792,0.93164-0.125,1.06348-0.52588c0.06055-0.18018,0.05664-0.35303-0.04297-0.53223
			c-0.07813-0.146-0.20996-0.26953-0.38867-0.43408l-0.30371-0.28662c-0.13184-0.12305-0.30176-0.27197-0.4248-0.50537
			c-0.11719-0.2251-0.1582-0.4458-0.05859-0.74365c0.20313-0.61768,0.8125-0.87402,1.46094-0.66016
			c0.24512,0.08008,0.42676,0.19434,0.58105,0.39063c0.12598,0.16113,0.20996,0.36816,0.24219,0.57227L205.86719,334.19434z"/>
		
			<path fill="#A3A3A3" stroke="#A3A3A3" stroke-width="0.25" stroke-linecap="round" stroke-linejoin="round" stroke-miterlimit="10" d="
			M210.00586,337.50879l1.61133,1.42725l1.13086-1.27734l0.34766,0.30908l-2.7832,3.14209l-0.34766-0.30957l1.35938-1.53516
			l-1.61035-1.42725l-1.36035,1.53516l-0.34863-0.30811l2.7832-3.1416l0.34863,0.30908L210.00586,337.50879z"/>
		
			<path fill="#A3A3A3" stroke="#A3A3A3" stroke-width="0.25" stroke-linecap="round" stroke-linejoin="round" stroke-miterlimit="10" d="
			M213.2041,343.15723l-0.97754-1.49854l-1.26758,0.22559l-0.28223-0.43408l4.74512-0.78467l-2.65918,3.98389l-0.28223-0.43311
			L213.2041,343.15723z M213.47363,342.76318l1.02344-1.50928l-1.80176,0.31689L213.47363,342.76318z"/>
		
			<path fill="#A3A3A3" stroke="#A3A3A3" stroke-width="0.25" stroke-linecap="round" stroke-linejoin="round" stroke-miterlimit="10" d="
			M217.0957,344.41992c0.09473,0.26758,0.2168,0.67188,0.11914,1.04053c-0.07324,0.28564-0.30469,0.59521-0.72754,0.74268
			c-0.60645,0.21387-1.19238-0.02783-1.44531-0.61426l-1.3291,1.88477l-0.1875-0.53467l1.31152-1.81836l-0.04004-0.1123
			l-1.73633,0.61035l-0.1543-0.43945l3.96484-1.39502L217.0957,344.41992z M215.18945,344.86963l0.09766,0.28027
			c0.19336,0.54688,0.56934,0.78223,1.0332,0.61816c0.2207-0.07813,0.41797-0.22021,0.47266-0.52002
			c0.03809-0.21387-0.02148-0.42041-0.08789-0.61133l-0.09473-0.26709L215.18945,344.86963z"/>
		
			<path fill="#A3A3A3" stroke="#A3A3A3" stroke-width="0.25" stroke-linecap="round" stroke-linejoin="round" stroke-miterlimit="10" d="
			M213.92773,347.89893l4.4707,0.45605l-3.45703,1.80469l3.6416,1.44873l-4.40332,0.89746l-0.02539-0.47754l2.89941-0.55664
			l-3.17578-1.25928l3.02051-1.58008l-2.94434-0.25586L213.92773,347.89893z"/>
	</g>
	<g>
		
			<ellipse transform="matrix(0.08248 -0.99659 0.99659 0.08248 7.76603 241.4274)" fill="none" cx="135" cy="116.49604" rx="25.58" ry="25.58002"/>
		<path fill="#A3A3A3" stroke="#A3A3A3" stroke-width="0.25" stroke-miterlimit="10" d="M108.45215,101.97411l3.72949,0.71924
			l-2.36621-2.97021l0.29688-0.49072l3.25488,4.17871l-5.21289-0.94629L108.45215,101.97411z"/>
		<path fill="#A3A3A3" stroke="#A3A3A3" stroke-width="0.25" stroke-miterlimit="10" d="M113.83594,101.0752
			c0.11133-0.15234,0.33594-0.1875,0.48828-0.07617s0.1875,0.33691,0.07617,0.48926
			c-0.11133,0.15332-0.33691,0.18652-0.49023,0.0752C113.75879,101.45214,113.72461,101.22753,113.83594,101.0752z"/>
		<path fill="#A3A3A3" stroke="#A3A3A3" stroke-width="0.25" stroke-miterlimit="10" d="M114.54102,96.86962l1.72852-1.65527
			l-1.3125-1.37012l0.375-0.35742l3.22656,3.37158l-0.37305,0.3584l-1.57813-1.64844l-1.72852,1.65527l1.57813,1.64795
			l-0.375,0.35791l-3.22656-3.37158l0.37305-0.35742L114.54102,96.86962z"/>
		<path fill="#A3A3A3" stroke="#A3A3A3" stroke-width="0.25" stroke-miterlimit="10" d="M120.76465,93.67675l-1.64551,1.11719
			l0.27539,1.40332l-0.47559,0.32227l-0.96777-5.25781l4.47852,2.87598l-0.47461,0.32227L120.76465,93.67675z M120.32129,93.38573
			l-1.69824-1.10742l0.38867,1.99512L120.32129,93.38573z"/>
		<path fill="#A3A3A3" stroke="#A3A3A3" stroke-width="0.25" stroke-miterlimit="10" d="M121.51953,89.43945
			c0.2832-0.13672,0.71484-0.32129,1.13281-0.25928c0.3252,0.04492,0.69336,0.2627,0.91016,0.71143
			c0.30957,0.64209,0.11523,1.31885-0.5,1.66943l2.24219,1.23389l-0.56836,0.27393l-2.16602-1.22412l-0.11914,0.05811
			l0.88672,1.84082l-0.4668,0.22412l-2.02637-4.2041L121.51953,89.43945z M122.25,91.48632l0.29688-0.14209
			c0.5791-0.2793,0.79199-0.72412,0.55469-1.21582c-0.11133-0.23389-0.29297-0.43311-0.63086-0.45654
			c-0.24121-0.01611-0.46094,0.07471-0.66309,0.17285l-0.28418,0.13623L122.25,91.48632z"/>
		<path fill="#A3A3A3" stroke="#A3A3A3" stroke-width="0.25" stroke-miterlimit="10" d="M125.68945,92.55565l-0.56152-4.96045
			l2.77734,3.32471l0.71191-4.29346l2.01563,4.56543l-0.51367,0.1416l-1.28906-3.01465l-0.61719,3.74512l-2.42871-2.90527
			l0.41895,3.25586L125.68945,92.55565z"/>
		<path fill="#A3A3A3" stroke="#A3A3A3" stroke-width="0.25" stroke-miterlimit="10" d="M131.0957,88.78124
			c-0.07617-1.39063,0.95117-2.47119,2.29395-2.5459c1.34277-0.07422,2.48242,0.88721,2.55957,2.2793
			c0.07617,1.38477-0.94336,2.47168-2.29297,2.5459C132.30566,91.13573,131.17188,90.16649,131.0957,88.78124z M131.62793,88.75292
			c0.05859,1.06982,0.95215,1.87598,2.00098,1.81836c1.04883-0.05859,1.84766-0.95801,1.78906-2.02783
			c-0.05957-1.07031-0.95313-1.87646-2.00195-1.81885C132.36719,86.7832,131.56836,87.68261,131.62793,88.75292z"/>
		<path fill="#A3A3A3" stroke="#A3A3A3" stroke-width="0.25" stroke-miterlimit="10" d="M136.78809,90.91698l0.73047-4.81104
			l3.02637,4.32031l0.54297-3.57861l0.5127,0.07764l-0.7334,4.82422l-3.02539-4.31934l-0.54199,3.56445L136.78809,90.91698z"/>
		<path fill="#A3A3A3" stroke="#A3A3A3" stroke-width="0.25" stroke-miterlimit="10" d="M143.68359,87.53809l-1.30273,4.48389
			l-0.49805-0.14404l1.30273-4.48389L143.68359,87.53809z"/>
		<path fill="#A3A3A3" stroke="#A3A3A3" stroke-width="0.25" stroke-miterlimit="10" d="M148.11914,90.33788
			c-0.0791-0.19287-0.2168-0.44043-0.39258-0.63623c-0.18164-0.19873-0.41895-0.37451-0.6709-0.48047
			c-0.99316-0.41992-2.06543,0.06885-2.48535,1.06201c-0.49219,1.1665,0.20801,2.15381,0.99414,2.48633
			c0.29004,0.12256,0.60938,0.1582,0.88379,0.13672c0.29688-0.01807,0.53906-0.10596,0.64941-0.1499l-0.25098,0.59326
			c-0.62207,0.13965-1.15039,0.00781-1.47363-0.12891c-1.27539-0.53955-1.81445-1.90625-1.28906-3.15088
			c0.54102-1.28369,1.90527-1.83154,3.19434-1.28711c0.25879,0.10938,0.74121,0.35107,1.09082,0.96191L148.11914,90.33788z"/>
		<path fill="#A3A3A3" stroke="#A3A3A3" stroke-width="0.25" stroke-miterlimit="10" d="M149.92578,92.80811
			c0.84082-1.11182,2.32422-1.27148,3.39551-0.45996c1.07324,0.81152,1.32129,2.28174,0.47949,3.39307
			c-0.83594,1.10547-2.31738,1.27588-3.39551,0.45996C149.32813,95.38573,149.08887,93.91309,149.92578,92.80811z
			 M150.34961,93.12938c-0.64648,0.854-0.48633,2.04639,0.35156,2.68115c0.83789,0.63379,2.0293,0.46387,2.67578-0.39063
			c0.64648-0.854,0.48633-2.04736-0.35156-2.68018C152.18848,92.10497,150.99609,92.27489,150.34961,93.12938z"/>
		<path fill="#A3A3A3" stroke="#A3A3A3" stroke-width="0.25" stroke-miterlimit="10" d="M157.03125,97.13866
			c0.04883-0.13379,0.0791-0.30518,0.06836-0.43945c-0.01172-0.11377-0.05859-0.29883-0.24023-0.49316
			c-0.31641-0.33691-0.74609-0.375-1.0625-0.0791c-0.13281,0.12402-0.17676,0.23242-0.17676,0.40479
			c-0.00684,0.19873,0.05762,0.37842,0.12012,0.55908l0.16309,0.45996c0.09961,0.28125,0.18066,0.55078,0.1709,0.82813
			c-0.01074,0.33643-0.14258,0.59424-0.3877,0.82324c-0.62793,0.58936-1.4834,0.5166-2.05664-0.0957
			c-0.21094-0.2251-0.42871-0.5498-0.41797-0.99902c0.00488-0.32227,0.14453-0.64453,0.30566-0.88086l0.44727,0.27148
			c-0.15527,0.19238-0.23242,0.41846-0.24316,0.61035c-0.00879,0.2876,0.1084,0.49414,0.27051,0.66748
			c0.43555,0.46484,0.97266,0.37402,1.31543,0.05371c0.15332-0.14404,0.24316-0.31348,0.24023-0.54248
			c0.00098-0.18213-0.06152-0.37354-0.14746-0.62891l-0.14453-0.43945c-0.0625-0.19043-0.14941-0.42578-0.14453-0.71777
			c0.00391-0.28271,0.08105-0.51709,0.33594-0.75684c0.52637-0.49316,1.25684-0.41992,1.77344,0.13281
			c0.19629,0.20898,0.31348,0.41602,0.35938,0.68896c0.03711,0.2251,0.00977,0.47119-0.06738,0.68652L157.03125,97.13866z"/>
		<path fill="#A3A3A3" stroke="#A3A3A3" stroke-width="0.25" stroke-miterlimit="10" d="M160.22168,101.61327
			c0.03809-0.20459,0.05566-0.48926,0.0127-0.74854c-0.04492-0.26611-0.14941-0.54199-0.30371-0.76709
			c-0.61035-0.89014-1.77734-1.05762-2.66699-0.44775c-1.04492,0.71631-0.98926,1.92529-0.50586,2.63086
			c0.17773,0.25977,0.42773,0.4624,0.66895,0.59375c0.26074,0.14404,0.51172,0.20068,0.62891,0.22314l-0.53125,0.36328
			c-0.59863-0.21631-0.97363-0.61426-1.1709-0.90332c-0.78418-1.14355-0.5-2.58594,0.61523-3.35059
			c1.14844-0.78809,2.59375-0.51221,3.38574,0.64307c0.1582,0.23096,0.43457,0.69482,0.39746,1.39893L160.22168,101.61327z"/>
		<path fill="#A3A3A3" stroke="#A3A3A3" stroke-width="0.25" stroke-miterlimit="10" d="M158.19922,104.29784
			c0.08887,0.16699,0.02148,0.38477-0.14551,0.47266c-0.16797,0.08887-0.38574,0.021-0.47363-0.14551
			c-0.08887-0.16797-0.02148-0.38525,0.14551-0.47363C157.89355,104.06249,158.11133,104.13036,158.19922,104.29784z"/>
	</g>
	<g>
		<circle fill="none" cx="83.5" cy="145.5" r="28.59473"/>
		<path fill="#A3A3A3" stroke="#A3A3A3" stroke-width="0.25" stroke-linejoin="round" stroke-miterlimit="10" d="
			M73.14648,171.63965l2.58984,0.88232l0.69922-2.05176l0.55957,0.19092l-1.71973,5.05029l-0.56055-0.19092l0.84082-2.46777
			l-2.58887-0.88184l-0.8418,2.46777l-0.55957-0.19092l1.71973-5.05029l0.56055,0.19092L73.14648,171.63965z"/>
		<path fill="#A3A3A3" stroke="#A3A3A3" stroke-width="0.25" stroke-linejoin="round" stroke-miterlimit="10" d="M81.0498,175.15869
			l-2.25586-0.27002l-0.81348,1.4165l-0.65137-0.07764l3.10254-5.25879l1.70898,5.83398l-0.65039-0.07813L81.0498,175.15869z
			 M80.88477,174.57422L80.25,172.34766l-1.15918,2.01221L80.88477,174.57422z"/>
		<path fill="#A3A3A3" stroke="#A3A3A3" stroke-width="0.25" stroke-linejoin="round" stroke-miterlimit="10" d="
			M84.70605,171.38037c0.3584-0.02393,0.89551-0.03613,1.31152,0.20947c0.3252,0.18604,0.62305,0.57471,0.66016,1.14111
			c0.05469,0.81396-0.43945,1.44629-1.24219,1.55664l1.84863,2.26367l-0.71777,0.04785l-1.77344-2.22119l-0.15137,0.00977
			l0.1543,2.32813l-0.58984,0.04053l-0.35352-5.32031L84.70605,171.38037z M84.60645,173.86182l0.375-0.02539
			c0.7334-0.04785,1.14941-0.42871,1.1084-1.05029c-0.02051-0.29492-0.12695-0.58496-0.47559-0.75342
			c-0.24805-0.11963-0.52051-0.11816-0.77539-0.10156l-0.3584,0.0249L84.60645,173.86182z"/>
		<path fill="#A3A3A3" stroke="#A3A3A3" stroke-width="0.25" stroke-linejoin="round" stroke-miterlimit="10" d="M89.4043,176.31006
			l-0.71875-5.65039l3.2207,3.75049l0.74512-4.91162l2.37012,5.17969l-0.58301,0.16943l-1.51855-3.42041l-0.64453,4.28174
			l-2.81641-3.27637l0.52832,3.7085L89.4043,176.31006z"/>
	</g>
	<g>
		<circle fill="none" cx="186.44551" cy="145.5" r="28.59473"/>
		<path fill="#A3A3A3" stroke="#A3A3A3" stroke-width="0.25" stroke-linejoin="round" stroke-miterlimit="10" d="
			M174.86914,168.88867v4.24365l2.99707-3.47607l0.0752,4.55811l2.80176-3.25684l0.61914,0.21777l-3.98047,4.55566l-0.05957-4.55225
			l-3.00586,3.47314l-0.06641-5.98047L174.86914,168.88867z"/>
		<path fill="#A3A3A3" stroke="#A3A3A3" stroke-width="0.25" stroke-linejoin="round" stroke-miterlimit="10" d="
			M183.05078,171.18994l-0.74805,5.2793l-0.58594-0.08301l0.74805-5.28027L183.05078,171.18994z"/>
		<path fill="#A3A3A3" stroke="#A3A3A3" stroke-width="0.25" stroke-linejoin="round" stroke-miterlimit="10" d="
			M184.80859,171.41895l1.08789-0.01221c0.53613-0.00537,1.29688,0.04248,1.97461,0.60303
			c0.49219,0.40234,0.92383,1.07813,0.93359,2.03857c0.01172,1.11865-0.5332,1.72461-0.91309,2.05713
			c-0.4834,0.4209-0.99316,0.62598-1.94531,0.63672l-1.0791,0.01172L184.80859,171.41895z M185.45313,176.18799l0.51953-0.00635
			c0.42383-0.00439,1.00684-0.05859,1.52246-0.49658c0.39648-0.33984,0.71094-0.87158,0.70215-1.63086
			c-0.01367-1.27979-0.91797-2.10205-2.27051-2.0874l-0.51953,0.00537L185.45313,176.18799z"/>
		<path fill="#A3A3A3" stroke="#A3A3A3" stroke-width="0.25" stroke-linejoin="round" stroke-miterlimit="10" d="
			M191.57422,171.45752l0.86816,4.69434l-0.58203,0.10791l-0.86816-4.69434l-1.27344,0.23584l-0.10156-0.55029l3.12891-0.5791
			l0.10156,0.55078L191.57422,171.45752z"/>
		<path fill="#A3A3A3" stroke="#A3A3A3" stroke-width="0.25" stroke-linejoin="round" stroke-miterlimit="10" d="
			M195.17383,172.2085l2.55664-0.97656l-0.77246-2.02539l0.55273-0.21045l1.90234,4.98584l-0.55371,0.21143l-0.92969-2.4375
			l-2.55664,0.97461l0.92969,2.4375l-0.55273,0.21143l-1.90234-4.98682l0.55273-0.21143L195.17383,172.2085z"/>
	</g>
	<g>
		<circle fill="none" cx="135" cy="198.5" r="28.59473"/>
		
			<path fill="#A3A3A3" stroke="#A3A3A3" stroke-width="0.25" stroke-linecap="round" stroke-linejoin="round" stroke-miterlimit="10" d="
			M125.18164,222.48779c0.27539,0.10693,0.76563,0.32227,1.01855,0.75439c0.11035,0.17969,0.2832,0.59863,0.0498,1.20215
			c-0.0957,0.24658-0.31543,0.6582-0.87109,0.78564c0.62695,0.43945,0.64746,1.1416,0.46289,1.61914
			c-0.18555,0.47656-0.57422,0.77197-0.92285,0.87695c-0.51563,0.16064-0.97656,0-1.31934-0.13281l-1.23828-0.479l1.9248-4.97314
			L125.18164,222.48779z M123.11523,226.80518l0.63379,0.24561c0.32129,0.12451,0.64258,0.22363,0.95313,0.12939
			c0.24902-0.06738,0.47754-0.26074,0.59277-0.55957c0.15332-0.39404,0.01172-0.71582-0.14063-0.89453
			c-0.14648-0.17725-0.39063-0.32275-0.78516-0.47559l-0.56641-0.21924L123.11523,226.80518z M123.99219,224.54004l0.41797,0.16113
			c0.29102,0.11182,0.99902,0.31885,1.29688-0.4502c0.31641-0.81982-0.48242-1.146-0.63867-1.20654l-0.43262-0.16699
			L123.99219,224.54004z"/>
		
			<path fill="#A3A3A3" stroke="#A3A3A3" stroke-width="0.25" stroke-linecap="round" stroke-linejoin="round" stroke-miterlimit="10" d="
			M127.97949,226.85645c-0.08691,0.43896-0.18262,0.91846,0.16309,1.354c0.17578,0.22217,0.51367,0.4126,0.80371,0.46924
			c0.29102,0.05811,0.6748,0.01172,0.92285-0.12549c0.48633-0.27051,0.58203-0.74902,0.66895-1.18896l0.6377-3.20947l0.58105,0.1167
			l-0.66895,3.36572c-0.08789,0.43945-0.21875,0.854-0.58008,1.18848c-0.39941,0.37012-1.00391,0.53516-1.66992,0.40283
			c-0.66797-0.13232-1.16211-0.51611-1.39063-1.01074c-0.20313-0.44873-0.16602-0.88135-0.08008-1.32129l0.66991-3.36572
			l0.58105,0.11523L127.97949,226.85645z"/>
		
			<path fill="#A3A3A3" stroke="#A3A3A3" stroke-width="0.25" stroke-linecap="round" stroke-linejoin="round" stroke-miterlimit="10" d="
			M132.68555,229.79346l0.76172-5.65332l2.15039,4.45898l1.98828-4.56006l0.95703,5.62402l-0.60742,0.0127l-0.58789-3.70068
			l-1.72754,3.97705l-1.88184-3.89746l-0.44434,3.72607L132.68555,229.79346z"/>
		
			<path fill="#A3A3A3" stroke="#A3A3A3" stroke-width="0.25" stroke-linecap="round" stroke-linejoin="round" stroke-miterlimit="10" d="
			M140.27539,223.854c0.52344-0.11279,0.97461-0.14404,1.39258,0.08545c0.45313,0.24561,0.64648,0.68701,0.7168,1.01514
			c0.1582,0.73535-0.14746,1.56152-1.33691,1.81592l-0.50781,0.10986l0.4873,2.2666l-0.57813,0.12549l-1.12109-5.21533
			L140.27539,223.854z M140.42285,226.33252l0.47754-0.10254c0.6875-0.14697,1.02832-0.58008,0.89844-1.18262
			c-0.17773-0.82861-0.96875-0.73975-1.34375-0.65918l-0.42969,0.09131L140.42285,226.33252z"/>
		
			<path fill="#A3A3A3" stroke="#A3A3A3" stroke-width="0.25" stroke-linecap="round" stroke-linejoin="round" stroke-miterlimit="10" d="
			M145.31445,223.4248c-0.11719-0.11035-0.28516-0.21875-0.43164-0.26611c-0.125-0.03906-0.34082-0.06934-0.625,0.03564
			c-0.49609,0.18262-0.72656,0.61816-0.55469,1.08398c0.07227,0.19434,0.16602,0.2876,0.34766,0.36475
			c0.20703,0.0957,0.4248,0.10742,0.64258,0.12061l0.55859,0.03174c0.33984,0.02002,0.65918,0.05518,0.94727,0.1875
			c0.34961,0.15967,0.5625,0.41406,0.69531,0.77344c0.3418,0.92236-0.11328,1.79102-1.01367,2.12402
			c-0.3291,0.12256-0.76758,0.20801-1.2373-0.00146c-0.33594-0.14893-0.61328-0.43896-0.79199-0.71387l0.48438-0.34961
			c0.13477,0.24805,0.33789,0.42871,0.53613,0.52637c0.29785,0.13672,0.56738,0.10498,0.82324,0.01123
			c0.68164-0.25293,0.82422-0.85986,0.6377-1.36279c-0.08301-0.22461-0.22363-0.39502-0.46387-0.49316
			c-0.19336-0.08252-0.4209-0.09912-0.72852-0.12305l-0.52734-0.04248c-0.22852-0.01855-0.51367-0.03223-0.82031-0.16553
			c-0.29492-0.13037-0.50879-0.31543-0.64746-0.68994c-0.28613-0.77246,0.11426-1.50977,0.9248-1.80957
			c0.30762-0.11426,0.57715-0.14502,0.88574-0.07178c0.25293,0.05908,0.5,0.19824,0.69238,0.37402L145.31445,223.4248z"/>
	</g>
	<g>
		<circle fill="none" cx="135" cy="283.5" r="28.59473"/>
		
			<path fill="#A3A3A3" stroke="#A3A3A3" stroke-width="0.25" stroke-linecap="round" stroke-linejoin="round" stroke-miterlimit="10" d="
			M117.6709,309.67383l3.43262-4.54932l-0.3125,4.93604l3.96484-2.99658l-1.91992,5.36523l-0.53711-0.28564l1.30273-3.51123
			l-3.45313,2.61572l0.27148-4.31299l-2.21289,3.0249L117.6709,309.67383z"/>
		
			<path fill="#A3A3A3" stroke="#A3A3A3" stroke-width="0.25" stroke-linecap="round" stroke-linejoin="round" stroke-miterlimit="10" d="
			M127.42578,308.27979l-1.61328,5.0874l-0.56445-0.17871l1.61328-5.0874L127.42578,308.27979z"/>
		
			<path fill="#A3A3A3" stroke="#A3A3A3" stroke-width="0.25" stroke-linecap="round" stroke-linejoin="round" stroke-miterlimit="10" d="
			M129.7207,311.49268l-0.96484-2.78711l0.66309,0.11621l0.74023,2.17041l1.46777-1.78223l0.66211,0.11719l-1.88965,2.28467
			l1.04395,2.98877l-0.66309-0.11621l-0.82617-2.37305l-1.60254,1.9458l-0.66211-0.11719L129.7207,311.49268z"/>
		
			<path fill="#A3A3A3" stroke="#A3A3A3" stroke-width="0.25" stroke-linecap="round" stroke-linejoin="round" stroke-miterlimit="10" d="
			M135.90332,312.21533c-0.2207-1.57666,0.8457-2.9043,2.36621-3.11719c1.51953-0.21289,2.91016,0.77246,3.12988,2.34814
			c0.21973,1.56787-0.83691,2.90234-2.36621,3.11621C137.50391,314.77686,136.12305,313.7832,135.90332,312.21533z
			 M136.50488,312.13086c0.16895,1.21143,1.2627,2.04297,2.4502,1.87695c1.18848-0.16602,2.01172-1.26611,1.84277-2.47705
			c-0.16895-1.21143-1.2627-2.04395-2.45117-1.87793C137.1582,309.81787,136.33594,310.91846,136.50488,312.13086z"/>
		
			<path fill="#A3A3A3" stroke="#A3A3A3" stroke-width="0.25" stroke-linecap="round" stroke-linejoin="round" stroke-miterlimit="10" d="
			M144.00879,311.27246c0.15723,0.41992,0.3291,0.87695,0.85254,1.06543c0.26563,0.09619,0.65332,0.07959,0.93164-0.02344
			c0.27734-0.10449,0.58008-0.3457,0.7168-0.59326c0.27148-0.4873,0.09961-0.94434-0.05664-1.36377l-1.14844-3.06592
			l0.55469-0.20801l1.2041,3.21582c0.15723,0.41895,0.26465,0.84082,0.13477,1.31787
			c-0.14551,0.52393-0.57129,0.98389-1.20996,1.22217c-0.63672,0.2373-1.25977,0.17285-1.71387-0.12842
			c-0.41113-0.27295-0.60645-0.66113-0.76465-1.08105l-1.2041-3.21582l0.55566-0.2085L144.00879,311.27246z"/>
		
			<path fill="#A3A3A3" stroke="#A3A3A3" stroke-width="0.25" stroke-linecap="round" stroke-linejoin="round" stroke-miterlimit="10" d="
			M148.77148,306.08643l2.44727,4.10596l-0.50781,0.30322l-2.44922-4.10645l-1.11328,0.66455l-0.28711-0.48096l2.73633-1.63135
			l0.28809,0.48096L148.77148,306.08643z"/>
	</g>
	<g>
		<circle fill="none" cx="135" cy="283.44943" r="28.59473"/>
		<path fill="#A3A3A3" d="M142.65527,253.77197l0.78027,0.23975c0.38477,0.11768,0.91699,0.3252,1.27344,0.87939
			c0.26074,0.40039,0.41406,0.98096,0.20313,1.66895c-0.24609,0.80322-0.77344,1.11182-1.12109,1.2627
			c-0.44141,0.19043-0.85254,0.22119-1.53418,0.01221l-0.77441-0.23779L142.65527,253.77197z M142.0293,257.32617l0.37305,0.11426
			c0.30371,0.09326,0.73242,0.18701,1.20117-0.0083c0.35938-0.15283,0.70703-0.46045,0.87305-1.00537
			c0.28125-0.91797-0.17773-1.71094-1.14648-2.0083l-0.37305-0.11475L142.0293,257.32617z"/>
		<path fill="#A3A3A3" d="M147.65039,255.56104c0.24512,0.11426,0.60156,0.30029,0.78711,0.61328
			c0.14648,0.23975,0.20117,0.604,0.02148,0.98975c-0.26074,0.5542-0.81445,0.79199-1.38184,0.57275l0.39551,2.15967
			l-0.49023-0.22852l-0.36133-2.104l-0.10352-0.04834l-0.74219,1.5874l-0.40234-0.18799l1.69531-3.62598L147.65039,255.56104z
			 M146.68555,257.15674l0.25586,0.12012c0.5,0.2334,0.91113,0.13428,1.10938-0.29053
			c0.09375-0.20117,0.12793-0.42969-0.03906-0.66699c-0.11914-0.16846-0.29883-0.26563-0.47363-0.34766l-0.24414-0.11426
			L146.68555,257.15674z"/>
		<path fill="#A3A3A3" d="M150.82617,260.64014l-1.42969-0.92627l-1.01563,0.68555l-0.41406-0.26758l3.82617-2.51758
			l-0.77539,4.49414l-0.41211-0.26709L150.82617,260.64014z M150.9082,260.19385l0.30664-1.70996l-1.44434,0.97217
			L150.9082,260.19385z"/>
		<path fill="#A3A3A3" d="M154.20508,259.4751l-1.26953,2.91406l3.09863-1.49023l-1.31152,3.15332l2.89844-1.39893l0.35938,0.33496
			l-4.09766,1.93848l1.32129-3.14502l-3.10254,1.48633l1.74219-4.12793L154.20508,259.4751z"/>
		<path fill="#A3A3A3" d="M159.31836,264.80566c0.13281,0.17822,0.36035,0.51074,0.34863,0.88574
			c-0.00098,0.1582-0.05762,0.49316-0.44531,0.78467c-0.15918,0.11816-0.46289,0.29346-0.86719,0.1543
			c0.22461,0.5293-0.04199,0.98389-0.34961,1.21436c-0.30762,0.22998-0.67188,0.26367-0.93457,0.19189
			c-0.39258-0.10352-0.62109-0.38867-0.78809-0.60986l-0.59668-0.79736l3.20117-2.39941L159.31836,264.80566z M156.28711,266.73389
			l0.30664,0.40723c0.1543,0.20654,0.32031,0.39746,0.55469,0.46143c0.18555,0.05615,0.40918,0.02393,0.60059-0.12012
			c0.25391-0.19043,0.29199-0.45068,0.26465-0.62646c-0.02246-0.16992-0.11914-0.35986-0.30957-0.61377l-0.27441-0.36475
			L156.28711,266.73389z M157.74707,265.64014l0.20117,0.26855c0.13965,0.18652,0.50977,0.59912,1.00391,0.229
			c0.52832-0.396,0.14941-0.92139,0.07324-1.02246l-0.20898-0.27832L157.74707,265.64014z"/>
		<path fill="#A3A3A3" d="M159.77051,270.87305l-0.81934-1.49805l-1.2207,0.12012l-0.23633-0.43262l4.57031-0.39453l-2.8252,3.58984
			l-0.23535-0.43213L159.77051,270.87305z M160.05664,270.51807l1.08496-1.35986l-1.7373,0.16797L160.05664,270.51807z"/>
		<path fill="#A3A3A3" d="M163.52539,272.26221c0.0957,0.25244,0.2207,0.63525,0.13574,0.98828
			c-0.06348,0.27344-0.27832,0.57275-0.67578,0.72314c-0.57324,0.21631-1.13574-0.00146-1.38965-0.55322l-1.22363,1.82178
			l-0.19043-0.50537l1.20898-1.7583l-0.04004-0.10693l-1.63965,0.61914l-0.15625-0.41553l3.74414-1.41357L163.52539,272.26221z
			 M161.7207,272.73193l0.09961,0.26318c0.19531,0.51709,0.55859,0.73291,0.99707,0.56787
			c0.20801-0.07861,0.3916-0.21924,0.43848-0.50586c0.03027-0.20459-0.03027-0.39941-0.09766-0.57959l-0.0957-0.25195
			L161.7207,272.73193z"/>
		<path fill="#A3A3A3" d="M164.2041,277.24219c0.09277-0.07715,0.18848-0.19287,0.2373-0.29736
			c0.04102-0.08936,0.08398-0.24756,0.0293-0.46973c-0.0918-0.38477-0.39453-0.59619-0.75684-0.50928
			c-0.15137,0.03613-0.22949,0.09814-0.30273,0.22705c-0.08887,0.14453-0.11816,0.30518-0.14746,0.4668l-0.07422,0.41211
			c-0.04492,0.25195-0.09961,0.48682-0.22363,0.68945c-0.15137,0.24609-0.35938,0.38135-0.63965,0.44873
			c-0.7168,0.17139-1.32324-0.24512-1.49023-0.94482c-0.06055-0.25635-0.08594-0.58984,0.11328-0.92188
			c0.14063-0.23682,0.38086-0.41797,0.60156-0.52637l0.2168,0.39258c-0.19727,0.07764-0.34961,0.21289-0.44043,0.35156
			c-0.12793,0.20947-0.12891,0.41357-0.08203,0.61182c0.12695,0.53076,0.56738,0.69141,0.95801,0.59766
			c0.17578-0.04199,0.31445-0.13086,0.4082-0.30127c0.0791-0.13623,0.11328-0.30469,0.15723-0.53125l0.08008-0.38867
			c0.03418-0.16895,0.06934-0.38037,0.19629-0.59619c0.12305-0.20801,0.28027-0.35107,0.57129-0.4209
			c0.60059-0.14355,1.11426,0.22119,1.26563,0.85156c0.05664,0.23877,0.05664,0.44238-0.02637,0.66553
			c-0.06738,0.18262-0.19336,0.35498-0.34082,0.48291L164.2041,277.24219z"/>
		<path fill="#A3A3A3" d="M164.03516,283.87451l-0.10059,2.05273l1.62695,0.08008l-0.02246,0.44385l-4.00293-0.19727
			l0.02246-0.44336l1.95605,0.09619l0.10059-2.05273l-1.95605-0.09619l0.02246-0.44434l4.00293,0.19727l-0.02246,0.44385
			L164.03516,283.87451z"/>
		<path fill="#A3A3A3" d="M162.01758,289.93213l0.34668-1.66699l-1.00684-0.69775l0.09961-0.48193l3.72949,2.65234l-4.4668,0.9043
			l0.09961-0.48096L162.01758,289.93213z M162.46484,289.84717l1.70313-0.33301l-1.42969-0.99365L162.46484,289.84717z"/>
		<path fill="#A3A3A3" d="M163.96777,293.43896c-0.0918,0.25391-0.24316,0.62549-0.53809,0.83936
			c-0.22461,0.16699-0.58203,0.25586-0.98242,0.11182c-0.57617-0.20654-0.86328-0.7373-0.69824-1.3208l-2.11133,0.59326
			l0.18262-0.50781l2.05957-0.55469l0.03809-0.10742l-1.64844-0.5918l0.14941-0.41748l3.76563,1.35156L163.96777,293.43896z
			 M162.29004,292.62598l-0.09473,0.26611c-0.18652,0.51904-0.0498,0.91846,0.39063,1.07617
			c0.20898,0.0752,0.43945,0.08838,0.66113-0.10059c0.15625-0.13428,0.23633-0.32227,0.2998-0.50342l0.0918-0.25391
			L162.29004,292.62598z"/>
		<path fill="#A3A3A3" d="M159.35254,294.45508l3.36523,2.63965l-3.69824-0.3042l2.19141,3.0166l-3.99805-1.51611l0.22266-0.39795
			l2.61523,1.02588l-1.91406-2.62744l3.23242,0.26367l-2.23828-1.70166L159.35254,294.45508z"/>
		<path fill="#A3A3A3" d="M156.74414,299.73389c-0.09766,0.12988-0.29004,0.15723-0.41895,0.06006
			c-0.12988-0.09717-0.15723-0.29004-0.06055-0.41943c0.09668-0.12988,0.29004-0.15723,0.41895-0.06055
			C156.81348,299.41162,156.84082,299.60498,156.74414,299.73389z"/>
	</g>
	<g>
		<circle fill="none" cx="135" cy="283.5" r="28.59473"/>
		<path fill="#A3A3A3" d="M108.625,295.53516l-0.78809-1.89453l-1.50098,0.62402l-0.16992-0.40918l3.69531-1.53711l0.16992,0.41016
			l-1.80664,0.75098l0.78809,1.89551l1.80664-0.75195l0.1709,0.41016l-3.69629,1.53711l-0.1709-0.41016L108.625,295.53516z"/>
		<path fill="#A3A3A3" d="M107.8457,289.17773l0.40137,1.65625l1.20996,0.20117l0.11621,0.47852l-4.51172-0.80273l3.65527-2.73242
			l0.11523,0.47852L107.8457,289.17773z M107.47852,289.44531l-1.39844,1.03125l1.71875,0.28711L107.47852,289.44531z"/>
		<path fill="#A3A3A3" d="M104.58398,286.84375c-0.02637-0.26953-0.04785-0.6709,0.12598-0.99023
			c0.13379-0.24805,0.41699-0.48047,0.8418-0.52246c0.6084-0.05957,1.09668,0.29688,1.19727,0.89551l1.65625-1.44043
			l0.05273,0.53809l-1.625,1.38281l0.00977,0.11426l1.74512-0.17188l0.04395,0.44238l-3.98535,0.39063L104.58398,286.84375z
			 M106.44922,286.85938l-0.02734-0.28027c-0.05469-0.5498-0.34961-0.85254-0.81445-0.80762
			c-0.22168,0.02246-0.43555,0.10938-0.55469,0.375c-0.08398,0.18848-0.07617,0.39258-0.05762,0.58398L105.02148,287
			L106.44922,286.85938z"/>
		<path fill="#A3A3A3" d="M108.32422,283.95313l-4.16797-0.94922l3.47266-1.30469l-3.26953-1.79102l4.26172-0.33594
			l-0.03125,0.45508l-2.80273,0.18945l2.85352,1.55664l-3.03613,1.1416l2.75098,0.58301L108.32422,283.95313z"/>
		<path fill="#A3A3A3" d="M106.85059,278.13281c-1.15527-0.30762-1.7627-1.43262-1.46582-2.54688
			c0.29688-1.11328,1.38281-1.78711,2.53809-1.48047c1.14844,0.30664,1.7627,1.42773,1.46582,2.54688
			C109.08984,277.77246,107.99902,278.43848,106.85059,278.13281z M106.9668,277.69238
			c0.88867,0.23535,1.7832-0.27832,2.01563-1.14844c0.23145-0.87012-0.28906-1.76074-1.17773-1.99707
			c-0.88672-0.23633-1.7832,0.27734-2.01367,1.14746C105.55859,276.56445,106.08008,277.45508,106.9668,277.69238z"/>
		<path fill="#A3A3A3" d="M110.24512,273.65234l-3.76758-1.79492l4.29688-1.41016l-2.80176-1.33594l0.19141-0.40039l3.77734,1.7998
			l-4.29688,1.41016l2.79102,1.33105L110.24512,273.65234z"/>
		<path fill="#A3A3A3" d="M109.41504,266.73926l3.3623,2.16504l-0.24023,0.37305l-3.3623-2.16602L109.41504,266.73926z"/>
		<path fill="#A3A3A3" d="M113.08691,263.38477c-0.17676,0.01758-0.41504,0.07031-0.61816,0.16797
			c-0.20801,0.10059-0.40918,0.25195-0.55762,0.43262c-0.58594,0.71191-0.44629,1.71289,0.2666,2.29785
			c0.83789,0.68945,1.81836,0.35547,2.2832-0.20898c0.1709-0.20898,0.27734-0.46191,0.32715-0.69238
			c0.05762-0.24805,0.04492-0.46875,0.03516-0.56934l0.42578,0.34961c-0.03613,0.54492-0.27441,0.94727-0.46484,1.17773
			c-0.75293,0.91699-2.00684,1.02637-2.90039,0.29199c-0.9209-0.75684-1.03906-2.01074-0.27832-2.93652
			c0.15234-0.18555,0.46875-0.52148,1.05566-0.66016L113.08691,263.38477z"/>
		<path fill="#A3A3A3" d="M116.22949,261.84961c-0.71582-0.95508-0.49512-2.21484,0.42676-2.90527
			c0.92383-0.69043,2.19336-0.54492,2.9082,0.41113c0.71289,0.95215,0.5,2.21289-0.42773,2.90625
			S116.94043,262.80176,116.22949,261.84961z M116.59375,261.57813c0.55078,0.73438,1.57031,0.88672,2.29102,0.34766
			c0.72168-0.54004,0.86426-1.56055,0.31445-2.29688c-0.54883-0.73535-1.57031-0.88672-2.29102-0.34766
			S116.04492,260.8418,116.59375,261.57813z"/>
		<path fill="#A3A3A3" d="M121.84766,256.75293c-0.09863-0.07031-0.23438-0.13379-0.34766-0.15723
			c-0.09668-0.01563-0.26074-0.01758-0.46289,0.08789c-0.35059,0.18555-0.48047,0.53125-0.30762,0.86133
			c0.07324,0.1377,0.15234,0.19824,0.2959,0.23828c0.16211,0.05078,0.3252,0.03906,0.48926,0.02734l0.41895-0.03027
			c0.25391-0.01855,0.49609-0.02441,0.72363,0.04688c0.27539,0.08496,0.45898,0.25293,0.59277,0.50879
			c0.34375,0.6543,0.08984,1.34375-0.54785,1.67969c-0.23438,0.12305-0.55176,0.22852-0.92188,0.11816
			c-0.26465-0.07715-0.49902-0.2666-0.65918-0.4541l0.32617-0.30664c0.125,0.17188,0.29395,0.28516,0.45117,0.33887
			c0.23438,0.07324,0.43164,0.02344,0.61328-0.07129c0.4834-0.25391,0.5293-0.7207,0.34277-1.07617
			c-0.08301-0.16016-0.2041-0.27246-0.39355-0.32227c-0.15137-0.04199-0.32324-0.0332-0.55371-0.02051l-0.39746,0.01855
			c-0.17188,0.00879-0.38574,0.02637-0.62695-0.04297c-0.23242-0.06836-0.40918-0.18555-0.54883-0.45117
			c-0.28809-0.54688-0.06055-1.13574,0.5127-1.4375c0.21777-0.11523,0.41602-0.16406,0.65332-0.13867
			c0.19336,0.01953,0.3916,0.09863,0.55176,0.21094L121.84766,256.75293z"/>
		<path fill="#A3A3A3" d="M126.63281,254.94922c-0.16211-0.07617-0.39258-0.15234-0.61621-0.17578
			c-0.23047-0.01953-0.48145,0.00586-0.70313,0.08496c-0.86914,0.30859-1.26465,1.23828-0.95508,2.1084
			c0.36426,1.02246,1.37695,1.24023,2.06543,0.99609c0.25391-0.08984,0.47754-0.25195,0.63867-0.42383
			c0.17676-0.18359,0.2793-0.37891,0.32227-0.4707l0.18555,0.51953c-0.3125,0.44824-0.72363,0.6709-1.00488,0.77051
			c-1.11914,0.39746-2.25098-0.15332-2.6377-1.24512c-0.40039-1.12402,0.14453-2.25977,1.27441-2.66016
			c0.22559-0.08008,0.6709-0.20703,1.24512-0.02344L126.63281,254.94922z"/>
		<path fill="#A3A3A3" d="M128.91016,257.06738c0.1582-0.03613,0.32422,0.06738,0.35938,0.22559
			c0.03711,0.15625-0.06641,0.32227-0.22461,0.3584s-0.32324-0.06738-0.35938-0.22461
			C128.65039,257.26953,128.75293,257.10352,128.91016,257.06738z"/>
	</g>
	<g>
		<circle fill="none" cx="183.01788" cy="44.24549" r="14.57799"/>
		
			<path fill="#A3A3A3" stroke="#A3A3A3" stroke-width="0.25" stroke-linecap="round" stroke-linejoin="round" stroke-miterlimit="10" d="
			M166.24805,35.74022l3.34863,1.72266l0.53027-1.03223l0.39258,0.20215l-0.74414,1.44727l-3.74121-1.92383L166.24805,35.74022z"/>
		
			<path fill="#A3A3A3" stroke="#A3A3A3" stroke-width="0.25" stroke-linecap="round" stroke-linejoin="round" stroke-miterlimit="10" d="
			M169.2168,32.07812l-1.04492,1.35742l0.98828,0.76074l1.01367-1.31641l0.34863,0.26953l-1.01465,1.31641l1.29199,0.99512
			l1.0459-1.35645l0.34961,0.26855l-1.33008,1.72559l-3.32715-2.5625l1.3291-1.72656L169.2168,32.07812z"/>
		
			<path fill="#A3A3A3" stroke="#A3A3A3" stroke-width="0.25" stroke-linecap="round" stroke-linejoin="round" stroke-miterlimit="10" d="
			M170.10156,30.52245l2.96387,1.70703l-1.1416-3.22363l0.39648-0.33105l1.54297,4.51465l-4.1582-2.33691L170.10156,30.52245z"/>
		
			<path fill="#A3A3A3" stroke="#A3A3A3" stroke-width="0.25" stroke-linecap="round" stroke-linejoin="round" stroke-miterlimit="10" d="
			M175.77051,27.31737l-1.52832,0.77832l0.56641,1.1123l1.4834-0.75488l0.2002,0.39258l-1.4834,0.75586l0.74023,1.45508
			l1.52832-0.77832l0.20117,0.39453l-1.94531,0.98926l-1.90625-3.74805l1.94336-0.98926L175.77051,27.31737z"/>
		
			<path fill="#A3A3A3" stroke="#A3A3A3" stroke-width="0.25" stroke-linecap="round" stroke-linejoin="round" stroke-miterlimit="10" d="
			M177.54785,26.24706l1.07031,3.60156l1.11035-0.33008l0.125,0.42285l-1.55664,0.46191l-1.19531-4.02441L177.54785,26.24706z"/>
		
			<path fill="#A3A3A3" stroke="#A3A3A3" stroke-width="0.25" stroke-linecap="round" stroke-linejoin="round" stroke-miterlimit="10" d="
			M182.82813,27.35644l1.97949,0.0918l-0.03027,0.66504l-1.97949-0.0918L182.82813,27.35644z"/>
		
			<path fill="#A3A3A3" stroke="#A3A3A3" stroke-width="0.25" stroke-linecap="round" stroke-linejoin="round" stroke-miterlimit="10" d="
			M190.83496,29.46483l1.5625,0.79395l-0.0459,0.08984c-0.21094,0.41602-0.5625,0.80273-0.96094,1.00391
			c-0.19043,0.09473-0.87695,0.4043-1.7373-0.0332c-1.11328-0.56543-1.51465-1.83594-0.96094-2.92676
			s1.82324-1.51465,2.94043-0.94629c0.36035,0.18262,0.73633,0.48633,0.95898,0.95313
			c0.10352,0.21387,0.17578,0.46289,0.20801,0.66406l-0.45215,0.12402c-0.03027-0.20703-0.08398-0.4043-0.15723-0.56738
			c-0.10547-0.23828-0.30176-0.5498-0.75098-0.77734c-0.9043-0.45996-1.88086-0.09961-2.32227,0.77148
			c-0.51953,1.02441,0.0332,1.95508,0.74219,2.31445c0.5,0.25391,1.06055,0.2207,1.46582-0.04688
			c0.12793-0.08398,0.29199-0.22852,0.42285-0.45801l-1.11328-0.56445L190.83496,29.46483z"/>
		
			<path fill="#A3A3A3" stroke="#A3A3A3" stroke-width="0.25" stroke-linecap="round" stroke-linejoin="round" stroke-miterlimit="10" d="
			M194.4873,33.3662l-1.30176-1.22754l-1.17969,0.51758l-0.375-0.35449l4.42773-1.87891l-1.65039,4.49707l-0.37598-0.35449
			L194.4873,33.3662z M194.65625,32.92089l0.64063-1.70898l-1.67676,0.73145L194.65625,32.92089z"/>
		
			<path fill="#A3A3A3" stroke="#A3A3A3" stroke-width="0.25" stroke-linecap="round" stroke-linejoin="round" stroke-miterlimit="10" d="
			M198.21289,33.93944l-3.08789,2.14941l-0.26758-0.38281l3.08887-2.15039l-0.58301-0.83691l0.36133-0.25293l1.43359,2.05859
			l-0.3623,0.25195L198.21289,33.93944z"/>
		
			<path fill="#A3A3A3" stroke="#A3A3A3" stroke-width="0.25" stroke-linecap="round" stroke-linejoin="round" stroke-miterlimit="10" d="
			M200.29883,37.96581l-0.68555-1.57031l-1.14258,0.5l0.66602,1.52246l-0.4043,0.17676l-0.66504-1.52344l-1.49512,0.65234
			l0.68555,1.57031l-0.4043,0.17578l-0.87109-1.99707l3.84961-1.68066l0.87109,1.99707L200.29883,37.96581z"/>
	</g>
	<g>
		<circle fill="none" cx="183.01788" cy="44.24549" r="13.74777"/>
		
			<path fill="#A3A3A3" stroke="#A3A3A3" stroke-width="0.25" stroke-linecap="round" stroke-linejoin="round" stroke-miterlimit="10" d="
			M175.6582,57.02538l-2.03613,3.40332l-0.37793-0.22607l2.03613-3.40381L175.6582,57.02538z"/>
		
			<path fill="#A3A3A3" stroke="#A3A3A3" stroke-width="0.25" stroke-linecap="round" stroke-linejoin="round" stroke-miterlimit="10" d="
			M175.52734,61.49022l1.29004-3.92285l1.92285,4.04102l0.95898-2.91748l0.41797,0.13721l-1.29297,3.93311l-1.92383-4.04004
			l-0.95508,2.90527L175.52734,61.49022z"/>
		
			<path fill="#A3A3A3" stroke="#A3A3A3" stroke-width="0.25" stroke-linecap="round" stroke-linejoin="round" stroke-miterlimit="10" d="
			M182.10938,58.97216c0.39844,0.02051,0.72852,0.08545,0.98242,0.33105c0.27832,0.26514,0.33105,0.61963,0.31836,0.86865
			c-0.0293,0.55859-0.41016,1.09229-1.3125,1.04541l-0.38574-0.021l-0.09082,1.72168l-0.43945-0.02295l0.20898-3.96143
			L182.10938,58.97216z M181.73438,60.78026l0.36133,0.01904c0.52344,0.02734,0.85156-0.21631,0.87598-0.6748
			c0.0332-0.62891-0.55176-0.71973-0.83691-0.73486l-0.32617-0.0166L181.73438,60.78026z"/>
		
			<path fill="#A3A3A3" stroke="#A3A3A3" stroke-width="0.25" stroke-linecap="round" stroke-linejoin="round" stroke-miterlimit="10" d="
			M185.21094,61.31835c0.06055,0.32715,0.12695,0.68359,0.48633,0.89063c0.18164,0.104,0.46777,0.14258,0.68359,0.10205
			c0.2168-0.04004,0.46875-0.17822,0.60156-0.34229c0.26172-0.32031,0.19531-0.67676,0.13477-1.00488l-0.44531-2.39209
			l0.43359-0.08057l0.46582,2.50977c0.06152,0.32666,0.08496,0.64941-0.07129,0.98145
			c-0.17383,0.36523-0.5459,0.64648-1.04297,0.7373c-0.49609,0.09229-0.94434-0.03564-1.23828-0.31396
			c-0.26465-0.25391-0.3584-0.5625-0.41895-0.88965l-0.4668-2.50977l0.43262-0.08057L185.21094,61.31835z"/>
		
			<path fill="#A3A3A3" stroke="#A3A3A3" stroke-width="0.25" stroke-linecap="round" stroke-linejoin="round" stroke-miterlimit="10" d="
			M189.36719,58.03417l1.43945,3.24072l-0.40039,0.1792l-1.44141-3.24023l-0.87891,0.38965l-0.16992-0.37891l2.16016-0.96094
			l0.16992,0.37988L189.36719,58.03417z"/>
	</g>
	<g>
		<polyline fill="none" stroke="#A3A3A3" stroke-width="0.5" stroke-miterlimit="10" points="107.61954,214.0126 
			107.61954,216.18576 114.16327,216.18576 114.16327,214.0126 		"/>
		
			<line fill="none" stroke="#A3A3A3" stroke-width="0.5" stroke-miterlimit="10" x1="109.25549" y1="212.44751" x2="109.25549" y2="216.18581"/>
		
			<line fill="none" stroke="#A3A3A3" stroke-width="0.5" stroke-miterlimit="10" x1="110.8914" y1="210.31331" x2="110.8914" y2="216.18582"/>
		
			<line fill="none" stroke="#A3A3A3" stroke-width="0.5" stroke-miterlimit="10" x1="112.52733" y1="212.44751" x2="112.52733" y2="216.18581"/>
	</g>
	<g>
		<polyline fill="none" stroke="#A3A3A3" stroke-width="0.5" stroke-miterlimit="10" points="159.67365,161.56908 
			159.67365,163.74223 166.21738,163.74223 166.21738,161.56908 		"/>
		
			<line fill="none" stroke="#A3A3A3" stroke-width="0.5" stroke-miterlimit="10" x1="161.30959" y1="160.00398" x2="161.30959" y2="163.74229"/>
		
			<line fill="none" stroke="#A3A3A3" stroke-width="0.5" stroke-miterlimit="10" x1="162.9455" y1="157.86978" x2="162.9455" y2="163.74229"/>
		
			<line fill="none" stroke="#A3A3A3" stroke-width="0.5" stroke-miterlimit="10" x1="164.58144" y1="160.00398" x2="164.58144" y2="163.74229"/>
	</g>
	<g>
		
			<line fill="none" stroke="#A3A3A3" stroke-width="0.5" stroke-miterlimit="10" x1="207.2468" y1="163.74223" x2="213.79053" y2="163.74223"/>
		
			<line fill="none" stroke="#A3A3A3" stroke-width="0.5" stroke-miterlimit="10" x1="208.88274" y1="162.50398" x2="208.88274" y2="163.74229"/>
		
			<line fill="none" stroke="#A3A3A3" stroke-width="0.5" stroke-miterlimit="10" x1="210.51865" y1="157.86978" x2="210.51865" y2="163.74229"/>
		
			<line fill="none" stroke="#A3A3A3" stroke-width="0.5" stroke-miterlimit="10" x1="212.15459" y1="162.50398" x2="212.15459" y2="163.74229"/>
	</g>
	<g>
		<polyline fill="none" stroke="#A3A3A3" stroke-width="0.5" stroke-miterlimit="10" points="155.41797,213.03954 
			155.41797,215.66342 163.59764,215.66342 163.59764,213.03954 		"/>
		
			<line fill="none" stroke="#A3A3A3" stroke-width="0.5" stroke-miterlimit="10" x1="156.8125" y1="211.51251" x2="156.8125" y2="215.57919"/>
		
			<line fill="none" stroke="#A3A3A3" stroke-width="0.5" stroke-miterlimit="10" x1="158.27499" y1="213.03954" x2="158.27499" y2="215.66342"/>
		
			<line fill="none" stroke="#A3A3A3" stroke-width="0.5" stroke-miterlimit="10" x1="159.50781" y1="212.17386" x2="159.50781" y2="215.66342"/>
		
			<line fill="none" stroke="#A3A3A3" stroke-width="0.5" stroke-miterlimit="10" x1="159.50781" y1="210.15393" x2="159.50781" y2="215.66342"/>
		
			<line fill="none" stroke="#A3A3A3" stroke-width="0.5" stroke-miterlimit="10" x1="160.9375" y1="213.03954" x2="160.9375" y2="215.66342"/>
		
			<line fill="none" stroke="#A3A3A3" stroke-width="0.5" stroke-miterlimit="10" x1="162.34375" y1="211.59674" x2="162.34375" y2="215.66342"/>
	</g>
	<g>
		<polyline fill="none" stroke="#A3A3A3" stroke-width="0.5" stroke-miterlimit="10" points="80.20314,117.07244 
			80.20314,119.24559 86.74686,119.24559 86.74686,117.07244 		"/>
		
			<line fill="none" stroke="#A3A3A3" stroke-width="0.5" stroke-miterlimit="10" x1="81.83907" y1="115.50734" x2="81.83907" y2="119.24564"/>
		
			<line fill="none" stroke="#A3A3A3" stroke-width="0.5" stroke-miterlimit="10" x1="83.47498" y1="113.37315" x2="83.47498" y2="119.24565"/>
		
			<line fill="none" stroke="#A3A3A3" stroke-width="0.5" stroke-miterlimit="10" x1="85.11092" y1="115.50734" x2="85.11092" y2="119.24564"/>
	</g>
	<g>
		<polyline fill="none" stroke="#A3A3A3" stroke-width="0.5" stroke-miterlimit="10" points="56.50118,157.42838 
			56.50118,163.30083 63.0449,163.30083 63.0449,161.57385 		"/>
		
			<line fill="none" stroke="#A3A3A3" stroke-width="0.5" stroke-miterlimit="10" x1="58.13712" y1="158.60001" x2="58.13712" y2="163.30089"/>
		
			<line fill="none" stroke="#A3A3A3" stroke-width="0.5" stroke-miterlimit="10" x1="59.77303" y1="159.425" x2="59.77303" y2="163.30089"/>
		
			<line fill="none" stroke="#A3A3A3" stroke-width="0.5" stroke-miterlimit="10" x1="61.40896" y1="160.45625" x2="61.40896" y2="163.30089"/>
	</g>
	<g>
		<polyline fill="none" stroke="#A3A3A3" stroke-width="0.5" stroke-miterlimit="10" points="110.27187,157.42838 
			110.27187,163.30083 103.72813,163.30083 103.72813,161.57385 		"/>
		
			<line fill="none" stroke="#A3A3A3" stroke-width="0.5" stroke-miterlimit="10" x1="108.63593" y1="158.60001" x2="108.63593" y2="163.30089"/>
		
			<line fill="none" stroke="#A3A3A3" stroke-width="0.5" stroke-miterlimit="10" x1="107.00002" y1="159.425" x2="107.00002" y2="163.30089"/>
		
			<line fill="none" stroke="#A3A3A3" stroke-width="0.5" stroke-miterlimit="10" x1="105.36407" y1="160.45625" x2="105.36407" y2="163.30089"/>
	</g>
	<g>
		<circle fill="none" cx="134.71875" cy="43.99999" r="14.57799"/>
		
			<path fill="#A3A3A3" stroke="#A3A3A3" stroke-width="0.25" stroke-linecap="round" stroke-linejoin="round" stroke-miterlimit="10" d="
			M123.45605,29.49169l2.34863,2.93262l-0.36523,0.2915l-2.34668-2.93311l-0.7959,0.63672l-0.27539-0.34326l1.95605-1.56494
			l0.27441,0.34326L123.45605,29.49169z"/>
		
			<path fill="#A3A3A3" stroke="#A3A3A3" stroke-width="0.25" stroke-linecap="round" stroke-linejoin="round" stroke-miterlimit="10" d="
			M125.91992,27.36815c0.25391-0.12793,0.63867-0.30176,1.0166-0.25293c0.29199,0.03467,0.62891,0.2251,0.83105,0.625
			c0.29005,0.57227,0.12695,1.18408-0.4209,1.51074l2.03809,1.07178l-0.50586,0.25635l-1.9707-1.06396l-0.10645,0.05469
			l0.83008,1.64014l-0.41602,0.21094l-1.89746-3.74902L125.91992,27.36815z M126.61328,29.19823l0.26465-0.13379
			c0.5166-0.26123,0.7002-0.66553,0.47949-1.10303c-0.10547-0.2085-0.27246-0.38574-0.57617-0.3999
			c-0.2168-0.01074-0.41406,0.07422-0.59375,0.16553l-0.25391,0.12793L126.61328,29.19823z"/>
		
			<path fill="#A3A3A3" stroke="#A3A3A3" stroke-width="0.25" stroke-linecap="round" stroke-linejoin="round" stroke-miterlimit="10" d="
			M129.48047,25.92968l1.2168,4.02197L130.25,30.08642l-1.21484-4.02295L129.48047,25.92968z"/>
		
			<path fill="#A3A3A3" stroke="#A3A3A3" stroke-width="0.25" stroke-linecap="round" stroke-linejoin="round" stroke-miterlimit="10" d="
			M133.82422,27.30272l1.74805-0.12061l0.00781,0.10059c0.03125,0.46484-0.07129,0.97754-0.31055,1.35498
			c-0.11426,0.17822-0.54492,0.79492-1.50781,0.8623c-1.24414,0.08594-2.24023-0.79932-2.3252-2.01855
			c-0.08398-1.21973,0.78613-2.2334,2.03809-2.32178c0.40234-0.02783,0.88086,0.04102,1.31055,0.32764
			c0.19922,0.13037,0.38867,0.30762,0.51953,0.46289l-0.32422,0.33789c-0.13086-0.16211-0.28027-0.30273-0.42578-0.40723
			c-0.21289-0.14893-0.54102-0.31543-1.04297-0.28076c-1.0127,0.0708-1.66406,0.87939-1.59668,1.85352
			c0.0791,1.14551,1.03027,1.66064,1.82324,1.60596c0.55957-0.03857,1.02344-0.35547,1.23438-0.79346
			c0.06641-0.1377,0.13281-0.34521,0.12793-0.60938l-1.24512,0.08691L133.82422,27.30272z"/>
		
			<path fill="#A3A3A3" stroke="#A3A3A3" stroke-width="0.25" stroke-linecap="round" stroke-linejoin="round" stroke-miterlimit="10" d="
			M139.24414,27.89745l1.69336,0.44092l-0.02441,0.09863c-0.11816,0.44971-0.37891,0.90234-0.72559,1.18311
			c-0.16406,0.1333-0.76953,0.58105-1.70117,0.33887c-1.20703-0.31494-1.86914-1.46973-1.56152-2.65234
			c0.30762-1.18164,1.45605-1.86621,2.66895-1.55078c0.38965,0.10205,0.82129,0.31836,1.13867,0.72607
			c0.14648,0.18799,0.26953,0.41455,0.34375,0.604l-0.41504,0.21777c-0.07324-0.19434-0.16895-0.37695-0.27441-0.52051
			c-0.1543-0.20898-0.41113-0.47217-0.89844-0.59814c-0.98145-0.25586-1.85547,0.30371-2.10156,1.24902
			c-0.28906,1.10791,0.44727,1.89941,1.2168,2.09961c0.54199,0.14111,1.08301-0.01074,1.4209-0.35889
			c0.10645-0.10938,0.23535-0.28418,0.31543-0.53711l-1.20703-0.31348L139.24414,27.89745z"/>
		
			<path fill="#A3A3A3" stroke="#A3A3A3" stroke-width="0.25" stroke-linecap="round" stroke-linejoin="round" stroke-miterlimit="10" d="
			M144.95313,28.70214l-1.48242-0.85889l-0.62695,1.07813l1.43945,0.83496l-0.2207,0.38135l-1.43945-0.83398l-0.81836,1.41162
			l1.48242,0.85889l-0.2207,0.38184l-1.88672-1.09424l2.10742-3.63428l1.88672,1.09326L144.95313,28.70214z"/>
		
			<path fill="#A3A3A3" stroke="#A3A3A3" stroke-width="0.25" stroke-linecap="round" stroke-linejoin="round" stroke-miterlimit="10" d="
			M147.17188,29.90136c0.20898,0.19287,0.50781,0.49268,0.59375,0.86377c0.07031,0.28711,0.00977,0.66943-0.29297,0.99854
			c-0.43555,0.47314-1.06641,0.53564-1.56641,0.13721l-0.28711,2.2876l-0.41797-0.38428l0.30469-2.22217l-0.08887-0.07959
			l-1.24707,1.354l-0.34375-0.31543l2.84961-3.09619L147.17188,29.90136z M145.69922,31.1953l0.21875,0.20068
			c0.42578,0.39209,0.86914,0.42383,1.20313,0.06152c0.15723-0.17188,0.26367-0.39014,0.17188-0.68115
			c-0.06641-0.20752-0.2168-0.36182-0.36426-0.49854l-0.20898-0.19287L145.69922,31.1953z"/>
	</g>
	<g>
		<g>
			
				<path fill="#A3A3A3" stroke="#A3A3A3" stroke-width="0.25" stroke-linecap="round" stroke-linejoin="round" stroke-miterlimit="10" d="
				M127.11914,56.91308l-2.23633,3.55322l-0.39453-0.24756l2.2373-3.55371L127.11914,56.91308z"/>
			
				<path fill="#A3A3A3" stroke="#A3A3A3" stroke-width="0.25" stroke-linecap="round" stroke-linejoin="round" stroke-miterlimit="10" d="
				M126.86719,61.62694l1.41992-4.14551l1.98828,4.3125l1.05664-3.08301l0.44141,0.15088l-1.42383,4.15869l-1.98828-4.31348
				l-1.05273,3.07178L126.86719,61.62694z"/>
			
				<path fill="#A3A3A3" stroke="#A3A3A3" stroke-width="0.25" stroke-linecap="round" stroke-linejoin="round" stroke-miterlimit="10" d="
				M133.84766,59.02782c0.42188,0.02393,0.77148,0.09277,1.04102,0.354c0.29395,0.28076,0.34961,0.65674,0.33398,0.92139
				c-0.03125,0.59131-0.43555,1.15527-1.39258,1.104l-0.4082-0.02246l-0.10059,1.82471l-0.46582-0.02588l0.23047-4.19824
				L133.84766,59.02782z M133.44531,60.94384l0.38477,0.021c0.55371,0.02979,0.90234-0.22852,0.92871-0.71289
				c0.03711-0.66748-0.58301-0.76416-0.88477-0.78076l-0.34668-0.01904L133.44531,60.94384z"/>
			
				<path fill="#A3A3A3" stroke="#A3A3A3" stroke-width="0.25" stroke-linecap="round" stroke-linejoin="round" stroke-miterlimit="10" d="
				M137.1543,61.50683c0.06836,0.34668,0.14258,0.72363,0.52344,0.93799c0.19434,0.10791,0.49609,0.146,0.72461,0.10059
				c0.22949-0.04443,0.49609-0.19238,0.63379-0.36768c0.27246-0.34131,0.19922-0.71777,0.13184-1.06396l-0.49414-2.52539
				l0.45703-0.08936l0.51855,2.64893c0.06738,0.34619,0.0957,0.68652-0.06641,1.03857
				c-0.18066,0.38867-0.57129,0.68896-1.0957,0.7915c-0.52441,0.10205-0.99902-0.02881-1.3125-0.3208
				c-0.28223-0.26465-0.38574-0.59131-0.45215-0.93652l-0.51758-2.64941l0.45605-0.08936L137.1543,61.50683z"/>
			
				<path fill="#A3A3A3" stroke="#A3A3A3" stroke-width="0.25" stroke-linecap="round" stroke-linejoin="round" stroke-miterlimit="10" d="
				M141.47949,57.96435l1.60059,3.40088l-0.4209,0.19873l-1.60059-3.3999l-0.92383,0.43408l-0.1875-0.39893l2.26758-1.06738
				l0.1875,0.39893L141.47949,57.96435z"/>
		</g>
	</g>
	<path fill="#A3A3A3" d="M135.06387,94.36927c-12.35632,0-22.37324,10.01691-22.37324,22.3726s10.01691,22.37197,22.37324,22.37197
		s22.37067-10.01627,22.37067-22.37197S147.4202,94.36927,135.06387,94.36927z M122.56647,104.7235
		c1.64426,0,2.40611,1.28642,2.91401,2.12779c0.18726,0.31808,0.50021,0.84779,0.64642,0.84779
		c0.14108,0,0.45916-0.53484,0.64642-0.84779c0.5079-0.84137,1.27488-2.12779,2.91401-2.12779
		c1.634,0,2.40099,1.28642,2.90375,2.12779c0.1924,0.31808,0.50534,0.84779,0.64642,0.84779
		c0.14621,0,0.46429-0.53484,0.65155-0.84779c0.5079-0.84137,1.28514-2.12779,2.91914-2.12779
		c1.64426,0,2.41124,1.27617,2.92427,2.12331c0.19751,0.33796,0.5002,0.85227,0.65668,0.85227
		c0.14621,0,0.45915-0.51431,0.66693-0.85227c0.50278-0.84714,1.27489-2.12331,2.91402-2.12331
		c1.64938,0,2.41637,1.27617,2.92427,2.12331c0.20778,0.33796,0.51559,0.85227,0.66693,0.85227
		c0.73108,0,1.31593,0.58998,1.31593,1.31592c0,0.73171-0.58485,1.31657-1.31593,1.31657
		c-1.63913,0-2.40611-1.28065-2.92171-2.12331c-0.2206-0.36297-0.50276-0.85226-0.66949-0.85226
		c-0.15135,0-0.45917,0.50982-0.66695,0.85226c-0.50789,0.84779-1.28,2.12331-2.914,2.12331
		c-1.64427,0-2.41124-1.28065-2.92427-2.12331c-0.19753-0.34245-0.51047-0.85226-0.65668-0.85226
		c-0.14108,0-0.45404,0.50982-0.65668,0.85226c-0.5079,0.84779-1.27489,2.12331-2.91402,2.12331
		c-1.634,0-2.40099-1.28578-2.90375-2.12843c-0.19238-0.32257-0.50534-0.8465-0.64642-0.8465
		c-0.14621,0-0.45915,0.52906-0.65155,0.85162c-0.50789,0.84779-1.28001,2.12395-2.90887,2.12395
		c-1.63913,0-2.40098-1.2813-2.90888-2.12395c-0.19238-0.32256-0.51046-0.85162-0.65154-0.85162V107.356
		c-0.73107,0-1.31593-0.59512-1.31593-1.31657C121.25054,105.31348,121.8354,104.7235,122.56647,104.7235z M147.56128,130.25764
		c-2.76523,0-4.14015-1.97195-5.24573-3.5508c-1.07993-1.5532-1.75456-2.42535-3.091-2.42535
		c-1.32619,0-2.00851,0.87215-3.08588,2.42535c-1.10558,1.58399-2.48306,3.5508-5.24573,3.5508
		c-2.76523,0-4.13503-1.97195-5.24061-3.5508c-1.07993-1.5532-1.75456-2.42535-3.08587-2.42535l0,0
		c-0.73107,0-1.31593-0.58999-1.31593-1.31143c0-0.72145,0.58485-1.31657,1.31593-1.31657c2.76266,0,4.14015,1.9726,5.24573,3.55594
		c1.07736,1.54358,1.74944,2.41573,3.08075,2.41573c1.32617,0,2.00595-0.86767,3.08588-2.42086
		c1.10558-1.58334,2.47537-3.55081,5.24573-3.55081c2.77292,0,4.14528,1.9726,5.24829,3.55594
		c1.07993,1.54358,1.75713,2.41573,3.08844,2.41573c0.73108,0,1.31593,0.58485,1.31593,1.31593
		C148.87721,129.66766,148.29236,130.25764,147.56128,130.25764z M147.57668,120.02974c-2.02904,0-2.97044-1.68402-3.6579-2.90952
		c-1.24924-2.19897-1.48779-2.19897-2.72676,0c-0.69772,1.2255-1.62888,2.90952-3.6579,2.90952
		c-2.02647,0-2.96532-1.68402-3.65021-2.90952c-1.23128-2.19897-1.4724-2.19897-2.70367,0
		c-0.68745,1.2255-1.62373,2.90952-3.64764,2.90952c-2.0162,0-2.95505-1.68915-3.63482-2.91465
		c-0.54381-0.96835-0.8978-1.55897-1.33131-1.55897c-0.73107,0-1.31593-0.59447-1.30566-1.31593
		c0-0.72594,0.58485-1.31592,1.31593-1.31592c2.01107,0,2.94992,1.68402,3.62968,2.90952c1.04915,1.89116,1.42366,2.27465,2.68827,0
		c0.68747-1.23063,1.62375-2.90952,3.64764-2.90952c2.0162,0,2.96019,1.68402,3.64508,2.90952
		c1.2364,2.21437,1.48265,2.18359,2.71906,0c0.68491-1.23063,1.62888-2.90952,3.65021-2.90952
		c2.02904,0,2.96275,1.68402,3.65279,2.90503c0.62076,1.10943,0.94653,1.56795,1.36722,1.56795
		c0.73106,0,1.31592,0.59512,1.31592,1.31657C148.89259,119.43463,148.30774,120.02974,147.57668,120.02974z"/>
</g>
</svg>
