<?xml version="1.0" encoding="utf-8"?>
<!-- Generator: Adobe Illustrator 24.0.2, SVG Export Plug-In . SVG Version: 6.00 Build 0)  -->
<svg version="1.0" id="Layer_1" xmlns="http://www.w3.org/2000/svg" xmlns:xlink="http://www.w3.org/1999/xlink" x="0px" y="0px"
	 width="270px" height="380px" viewBox="0 0 270 380" enable-background="new 0 0 270 380" xml:space="preserve">
<g id="_x38_">
	<rect y="-0.00002" fill="none" width="270" height="380"/>
	<g>
		<circle fill="#262424" stroke="#606266" stroke-width="0.75" stroke-miterlimit="10" cx="83.5" cy="145.5" r="34.93385"/>
		
			<line fill="none" stroke="#606266" stroke-width="0.75" stroke-miterlimit="10" x1="83.5" y1="145.5" x2="58.79808" y2="170.20192"/>
		
			<line fill="none" stroke="#606266" stroke-width="0.5" stroke-miterlimit="10" x1="83.5" y1="110.56613" x2="83.5" y2="145.61636"/>
		
			<line fill="none" stroke="#606266" stroke-width="0.75" stroke-miterlimit="10" x1="83.5" y1="145.5" x2="108.20195" y2="170.20195"/>
		<circle fill="#262424" stroke="#606266" stroke-width="0.75" stroke-miterlimit="10" cx="83.5" cy="145.5" r="23.5"/>
	</g>
	<g>
		<circle fill="#262424" stroke="#606266" stroke-width="0.5" stroke-miterlimit="10" cx="186.44551" cy="145.5" r="34.93385"/>
		<circle fill="#262424" stroke="#606266" stroke-width="0.75" stroke-miterlimit="10" cx="186.44551" cy="145.5" r="34.93385"/>
		
			<line fill="none" stroke="#606266" stroke-width="0.75" stroke-miterlimit="10" x1="186.44551" y1="145.5" x2="161.74948" y2="170.19603"/>
		
			<line fill="none" stroke="#606266" stroke-width="0.75" stroke-miterlimit="10" x1="186.44551" y1="145.5" x2="211.14154" y2="170.19603"/>
		<circle fill="#262424" stroke="#606266" stroke-width="0.75" stroke-miterlimit="10" cx="186.44551" cy="145.5" r="23.5"/>
	</g>
	<g>
		<circle fill="#262424" stroke="#606266" stroke-width="0.5" stroke-miterlimit="10" cx="135" cy="198.5" r="34.93385"/>
		
			<line fill="none" stroke="#606266" stroke-width="0.75" stroke-miterlimit="10" x1="135" y1="198.5" x2="110.59309" y2="222.90691"/>
		
			<line fill="none" stroke="#606266" stroke-width="0.75" stroke-miterlimit="10" x1="135" y1="198.5" x2="102.75625" y2="183.27499"/>
		
			<line fill="none" stroke="#606266" stroke-width="0.75" stroke-miterlimit="10" x1="135" y1="198.5" x2="101.0528" y2="206.77617"/>
		
			<line fill="none" stroke="#606266" stroke-width="0.75" stroke-miterlimit="10" x1="135" y1="198.5" x2="121.84523" y2="163.98309"/>
		
			<line fill="none" stroke="#606266" stroke-width="0.75" stroke-miterlimit="10" x1="135" y1="198.5" x2="159.70186" y2="223.20186"/>
		<circle fill="#262424" stroke="#606266" stroke-width="0.75" stroke-miterlimit="10" cx="135" cy="198.5" r="23.5"/>
	</g>
	<g>
		<circle fill="#262424" stroke="#606266" stroke-width="0.5" stroke-miterlimit="10" cx="135" cy="283.5" r="34.93385"/>
		
			<line fill="none" stroke="#606266" stroke-width="0.75" stroke-miterlimit="10" x1="135" y1="283.5" x2="110.30396" y2="308.19604"/>
		
			<line fill="none" stroke="#606266" stroke-width="0.75" stroke-miterlimit="10" x1="135" y1="283.5" x2="159.69603" y2="308.19604"/>
		<line fill="none" stroke="#606266" stroke-width="0.5" stroke-miterlimit="10" x1="135" y1="248.56616" x2="135" y2="283.5"/>
		<circle fill="#262424" stroke="#606266" stroke-width="0.75" stroke-miterlimit="10" cx="135" cy="283.5" r="23.5"/>
	</g>
	<g>
		<circle fill="none" cx="199.5" cy="351.03378" r="14.578"/>
		
			<path fill="#A3A3A3" stroke="#A3A3A3" stroke-width="0.25" stroke-linecap="round" stroke-linejoin="round" stroke-miterlimit="10" d="
			M181.58008,345.23096L185,345.3042l-2.55176-2.2793l0.19043-0.48193l3.52344,3.21924l-4.77148-0.05078L181.58008,345.23096z"/>
		
			<path fill="#A3A3A3" stroke="#A3A3A3" stroke-width="0.25" stroke-linecap="round" stroke-linejoin="round" stroke-miterlimit="10" d="
			M184.96094,342.54248c-0.99414-0.76855-1.12402-2.10498-0.38281-3.06348c0.74023-0.95703,2.06641-1.16797,3.05957-0.3999
			c0.9873,0.76367,1.12695,2.09961,0.38281,3.06201C187.27539,343.10498,185.94824,343.30518,184.96094,342.54248z
			 M185.25391,342.1626c0.76367,0.58936,1.83789,0.45752,2.41699-0.29199c0.57813-0.74756,0.43652-1.82178-0.32715-2.41211
			s-1.83789-0.45703-2.41602,0.29053C184.34766,340.49854,184.49023,341.57129,185.25391,342.1626z"/>
		
			<path fill="#A3A3A3" stroke="#A3A3A3" stroke-width="0.25" stroke-linecap="round" stroke-linejoin="round" stroke-miterlimit="10" d="
			M190.5957,335.42041c-0.18457-0.03125-0.43945-0.04346-0.67285-0.00146c-0.2373,0.0459-0.48535,0.14404-0.68652,0.28516
			c-0.79004,0.56152-0.92383,1.61377-0.36328,2.40576c0.66016,0.92969,1.74707,0.86133,2.37402,0.4165
			c0.23145-0.16455,0.41016-0.3916,0.52441-0.61084c0.125-0.23633,0.17285-0.46289,0.19141-0.56836l0.33496,0.47266
			c-0.1875,0.5415-0.53906,0.88477-0.7959,1.06641c-1.01758,0.72119-2.31934,0.48633-3.02246-0.50439
			c-0.72559-1.02246-0.49902-2.32617,0.52832-3.0542c0.20508-0.14697,0.61914-0.40186,1.25195-0.37988L190.5957,335.42041z"/>
		
			<path fill="#A3A3A3" stroke="#A3A3A3" stroke-width="0.25" stroke-linecap="round" stroke-linejoin="round" stroke-miterlimit="10" d="
			M194.96875,335.87158l-1.68262,0.61035l-0.06934,1.28613l-0.48633,0.17578l0.31641-4.80078l3.27441,3.49707l-0.48535,0.17773
			L194.96875,335.87158z M194.64648,335.51855l-1.2373-1.34033l-0.10059,1.82666L194.64648,335.51855z"/>
		
			<path fill="#A3A3A3" stroke="#A3A3A3" stroke-width="0.25" stroke-linecap="round" stroke-linejoin="round" stroke-miterlimit="10" d="
			M196.80469,332.41992l0.51367,3.72266l1.14746-0.15771l0.05957,0.43555l-1.6084,0.22217l-0.57324-4.15918L196.80469,332.41992z"/>
		
			<path fill="#A3A3A3" stroke="#A3A3A3" stroke-width="0.25" stroke-linecap="round" stroke-linejoin="round" stroke-miterlimit="10" d="
			M205.31445,334.03076c-0.09766-0.16016-0.25781-0.35986-0.44238-0.50781c-0.19141-0.14893-0.42773-0.27002-0.66699-0.32715
			c-0.94434-0.22461-1.82422,0.36816-2.04883,1.31201c-0.26563,1.10938,0.50293,1.88232,1.25098,2.06055
			c0.27637,0.06592,0.56348,0.05078,0.80566-0.0083c0.25977-0.06104,0.46289-0.1748,0.55273-0.23096l-0.13379,0.56445
			c-0.53125,0.21582-1.02051,0.17676-1.32715,0.10449c-1.21387-0.28955-1.89551-1.42383-1.61328-2.60742
			c0.29102-1.21924,1.41992-1.90918,2.64648-1.6167c0.24512,0.05859,0.70996,0.20117,1.11133,0.69238L205.31445,334.03076z"/>
		
			<path fill="#A3A3A3" stroke="#A3A3A3" stroke-width="0.25" stroke-linecap="round" stroke-linejoin="round" stroke-miterlimit="10" d="
			M206.10742,335.5332c0.63867-1.0791,1.94727-1.37305,2.98828-0.75781c1.04102,0.61572,1.41406,1.90479,0.77539,2.98486
			c-0.63477,1.07324-1.94141,1.37695-2.9873,0.75781C205.83594,337.89844,205.47266,336.60742,206.10742,335.5332z
			 M206.52051,335.77686c-0.49121,0.83057-0.22559,1.88037,0.58691,2.36084c0.81445,0.48193,1.86133,0.2085,2.35156-0.62109
			c0.49121-0.82959,0.22559-1.87988-0.58691-2.36084C208.05859,334.67432,207.01074,334.94775,206.52051,335.77686z"/>
		
			<path fill="#A3A3A3" stroke="#A3A3A3" stroke-width="0.25" stroke-linecap="round" stroke-linejoin="round" stroke-miterlimit="10" d="
			M212.78711,337.73486c0.19629,0.20361,0.47461,0.52197,0.53906,0.896c0.05176,0.29053-0.03125,0.66797-0.35449,0.97705
			c-0.46289,0.44434-1.0957,0.4668-1.56738,0.03906l-0.42871,2.26123l-0.3916-0.40869l0.44043-2.19482l-0.08301-0.08496
			l-1.32617,1.27148l-0.32227-0.33545l3.02832-2.90723L212.78711,337.73486z M211.24023,338.93213l0.20508,0.2124
			c0.40137,0.41797,0.84082,0.47656,1.19531,0.13574c0.16797-0.16211,0.28711-0.37305,0.21289-0.66748
			c-0.05273-0.21094-0.19141-0.37305-0.33105-0.51953l-0.19629-0.20361L211.24023,338.93213z"/>
		
			<path fill="#A3A3A3" stroke="#A3A3A3" stroke-width="0.25" stroke-linecap="round" stroke-linejoin="round" stroke-miterlimit="10" d="
			M215.02344,340.32324l0.43164,0.7417c0.21094,0.3667,0.47461,0.90674,0.35352,1.58887
			c-0.08594,0.49463-0.38184,1.05225-1.03613,1.43262c-0.7627,0.44385-1.3916,0.3042-1.7666,0.17334
			c-0.47754-0.16846-0.81641-0.43848-1.19336-1.08838l-0.42676-0.73584L215.02344,340.32324z M212.00195,342.61865l0.20508,0.35303
			c0.16797,0.28955,0.43164,0.66846,0.93262,0.85254c0.3877,0.13965,0.87402,0.14844,1.3916-0.15186
			c0.87305-0.50732,1.08594-1.44678,0.55078-2.36963l-0.20605-0.354L212.00195,342.61865z"/>
		
			<path fill="#A3A3A3" stroke="#A3A3A3" stroke-width="0.25" stroke-linecap="round" stroke-linejoin="round" stroke-miterlimit="10" d="
			M216.96289,346.77686c0.09375-0.08594,0.18848-0.21094,0.23438-0.32324c0.03809-0.0957,0.0752-0.26416,0.00879-0.49365
			c-0.11523-0.39941-0.44434-0.60596-0.81934-0.49805c-0.1582,0.04541-0.23633,0.11377-0.30664,0.25195
			c-0.08691,0.15723-0.10938,0.32715-0.13281,0.49854l-0.05664,0.43555c-0.03516,0.26611-0.08203,0.51514-0.20117,0.73291
			c-0.14648,0.26563-0.3584,0.41846-0.64844,0.50244c-0.74414,0.21484-1.40039-0.19189-1.60938-0.91846
			c-0.07715-0.26611-0.11914-0.61475,0.07227-0.97266c0.13672-0.25537,0.37988-0.45654,0.60547-0.58154l0.24805,0.40186
			c-0.20313,0.09033-0.35742,0.24023-0.44531,0.38965c-0.125,0.22705-0.11523,0.44092-0.05566,0.64648
			c0.15918,0.55078,0.62793,0.69727,1.0332,0.57959c0.18066-0.05225,0.32324-0.15186,0.41406-0.33594
			c0.07617-0.146,0.10254-0.32373,0.13867-0.56396l0.06445-0.4126c0.02734-0.17773,0.05371-0.40137,0.17676-0.63525
			c0.11914-0.22363,0.27734-0.37988,0.58008-0.46826c0.62305-0.17969,1.17871,0.17773,1.36719,0.83057
			c0.07227,0.24854,0.08203,0.46338,0.00586,0.70068c-0.06152,0.19434-0.18457,0.38135-0.33398,0.52295L216.96289,346.77686z"/>
	</g>
	<g>
		
			<ellipse transform="matrix(0.08248 -0.99659 0.99659 0.08248 7.76543 241.42732)" fill="none" cx="134.99962" cy="116.49633" rx="25.57993" ry="25.57996"/>
		<path fill="#A3A3A3" stroke="#A3A3A3" stroke-width="0.25" stroke-miterlimit="10" d="M105.46582,109.85398L109.25,109.521
			l-3.0918-2.20752l0.15039-0.55322l4.2793,3.125l-5.27344,0.52295L105.46582,109.85398z"/>
		<path fill="#A3A3A3" stroke="#A3A3A3" stroke-width="0.25" stroke-miterlimit="10" d="M106.90332,105.33055l4.34668,1.69775
			l-0.1875,0.48242l-4.34766-1.69775L106.90332,105.33055z"/>
		<path fill="#A3A3A3" stroke="#A3A3A3" stroke-width="0.25" stroke-miterlimit="10" d="M107.66406,103.57372l4.23633,1.96777
			l-0.21875,0.47021l-4.23633-1.96777L107.66406,103.57372z"/>
		<path fill="#A3A3A3" stroke="#A3A3A3" stroke-width="0.25" stroke-miterlimit="10" d="M108.56445,101.84129l4.09375,2.23193
			l-0.24609,0.4541l-4.0957-2.23096L108.56445,101.84129z"/>
		<path fill="#A3A3A3" stroke="#A3A3A3" stroke-width="0.25" stroke-miterlimit="10" d="M112.79883,102.60447
			c0.10156-0.15967,0.32324-0.21045,0.48242-0.10986c0.16016,0.10059,0.21094,0.32324,0.11133,0.48193
			c-0.10156,0.16016-0.32324,0.21094-0.4834,0.11035C112.75,102.98631,112.69824,102.76563,112.79883,102.60447z"/>
		<path fill="#A3A3A3" stroke="#A3A3A3" stroke-width="0.25" stroke-miterlimit="10" d="M111.45996,97.48728l3.54395,1.37207
			l-1.80078-3.34521l0.38086-0.43018l2.45898,4.69482l-4.96289-1.86084L111.45996,97.48728z"/>
		<path fill="#A3A3A3" stroke="#A3A3A3" stroke-width="0.25" stroke-miterlimit="10" d="M115.75195,96.17283
			c-0.86621-1.09229-0.65137-2.56689,0.40137-3.40283c1.05176-0.83496,2.53809-0.70996,3.40332,0.38135
			c0.86133,1.08545,0.6582,2.56201-0.40039,3.40234C118.09863,97.39256,116.61426,97.25829,115.75195,96.17283z M116.16895,95.84178
			c0.66699,0.83887,1.86035,0.98047,2.68262,0.32813c0.82227-0.65381,0.95508-1.84912,0.28906-2.68799
			c-0.66602-0.83838-1.86035-0.98145-2.68359-0.32764C115.63477,93.80663,115.50293,95.00195,116.16895,95.84178z"/>
		<path fill="#A3A3A3" stroke="#A3A3A3" stroke-width="0.25" stroke-miterlimit="10" d="M119.47461,90.41258l2.625,2.62646
			l-0.29395-4.00684l2.86621,2.77588l-0.28027-3.74902l0.51855-0.24951l0.35449,5.28418l-2.85449-2.78125l0.28906,4.00977
			l-3.74219-3.6626L119.47461,90.41258z"/>
		<path fill="#A3A3A3" stroke="#A3A3A3" stroke-width="0.25" stroke-miterlimit="10" d="M128.6709,87.41844l-1.83887,0.48633
			l0.35352,1.3374l1.78516-0.47168l0.125,0.47412l-1.78516,0.47217l0.46289,1.75146l1.83984-0.48779l0.125,0.47461l-2.33984,0.61719
			l-1.19238-4.50879l2.33887-0.61914L128.6709,87.41844z"/>
		<path fill="#A3A3A3" stroke="#A3A3A3" stroke-width="0.25" stroke-miterlimit="10" d="M130.37109,86.62889l0.62109,4.13623
			l1.27539-0.19141l0.07227,0.48486l-1.78711,0.26904l-0.69434-4.62158L130.37109,86.62889z"/>
		<path fill="#A3A3A3" stroke="#A3A3A3" stroke-width="0.25" stroke-miterlimit="10" d="M137.08594,89.68456l-1.98633-0.07715
			l-0.61133,1.29395l-0.57422-0.02393l2.33984-4.80469l1.90039,4.97119l-0.57422-0.02197L137.08594,89.68456z M136.90234,89.18748
			l-0.70898-1.89844l-0.87109,1.83643L136.90234,89.18748z"/>
		<path fill="#A3A3A3" stroke="#A3A3A3" stroke-width="0.25" stroke-miterlimit="10" d="M138.59082,91.10545l1.07129-4.74414
			l2.70996,4.521l0.7959-3.52979l0.50586,0.11426l-1.07422,4.7583l-2.71094-4.52197l-0.79297,3.51563L138.59082,91.10545z"/>
		<path fill="#A3A3A3" stroke="#A3A3A3" stroke-width="0.25" stroke-miterlimit="10" d="M145.40625,88.06834l0.87598,0.37354
			c0.43066,0.18555,1.02344,0.49219,1.36816,1.17969c0.25195,0.49658,0.35938,1.18994,0.02832,1.9624
			c-0.38574,0.90088-1.03613,1.19385-1.45801,1.32422c-0.53613,0.16797-1.01758,0.15186-1.7832-0.17627l-0.86816-0.37158
			L145.40625,88.06834z M144.23828,92.11375l0.41797,0.17822c0.3418,0.14697,0.82813,0.30908,1.39453,0.1416
			c0.43848-0.13281,0.87695-0.44727,1.13867-1.05859c0.44141-1.03076,0.00684-2.00781-1.08008-2.47412l-0.41895-0.17822
			L144.23828,92.11375z"/>
		<path fill="#A3A3A3" stroke="#A3A3A3" stroke-width="0.25" stroke-miterlimit="10" d="M152.63281,93.07273
			c0.02148-0.13965,0.01758-0.31445-0.02051-0.44238c-0.0332-0.10986-0.11816-0.28223-0.33496-0.43604
			c-0.37695-0.26563-0.80664-0.21777-1.05664,0.13672c-0.10547,0.14844-0.12598,0.26221-0.0918,0.43262
			c0.0332,0.1958,0.13184,0.3584,0.23047,0.52295l0.25293,0.41895c0.1543,0.25488,0.28711,0.50342,0.33301,0.77588
			c0.05762,0.33105-0.01953,0.61133-0.21387,0.88525c-0.49707,0.70361-1.34863,0.80469-2.03418,0.31982
			c-0.25195-0.17871-0.5293-0.45215-0.61133-0.89502c-0.05859-0.31689,0.0127-0.66064,0.12305-0.92432l0.49219,0.17578
			c-0.11328,0.22021-0.14258,0.45654-0.11426,0.64746c0.04785,0.2832,0.2041,0.46289,0.39941,0.59863
			c0.51953,0.36816,1.02734,0.1709,1.29883-0.21191c0.12109-0.17139,0.1748-0.35693,0.12695-0.5791
			c-0.03711-0.18018-0.13672-0.35303-0.27148-0.58545l-0.23047-0.40332c-0.09961-0.17432-0.23145-0.38721-0.28613-0.67383
			c-0.05273-0.27783-0.02441-0.52295,0.17773-0.80908c0.41602-0.58887,1.14746-0.66309,1.76367-0.22754
			c0.23438,0.16553,0.39063,0.34473,0.49023,0.60449c0.08105,0.21094,0.10449,0.45898,0.07324,0.68555L152.63281,93.07273z"/>
		<path fill="#A3A3A3" stroke="#A3A3A3" stroke-width="0.25" stroke-miterlimit="10" d="M155.33789,94.12156
			c0.3457,0.31738,0.59766,0.62305,0.64551,1.03711c0.05566,0.44824-0.16113,0.80957-0.36035,1.02686
			c-0.44336,0.48584-1.1875,0.68799-1.97363-0.0293l-0.33496-0.30811l-1.37012,1.49951l-0.38184-0.3501l3.14941-3.44727
			L155.33789,94.12156z M153.64453,95.4868l0.31445,0.2876c0.45508,0.41602,0.9375,0.43848,1.30078,0.04102
			c0.5-0.54834,0.03613-1.06689-0.21191-1.29346l-0.28418-0.25977L153.64453,95.4868z"/>
		<path fill="#A3A3A3" stroke="#A3A3A3" stroke-width="0.25" stroke-miterlimit="10" d="M158.51563,98.22118l-1.23828-1.44629
			l-1.05273,0.89941l1.20117,1.40527l-0.37305,0.31885l-1.20117-1.40527l-1.37793,1.17822l1.2373,1.44775l-0.37207,0.31738
			l-1.57324-1.84082l3.54785-3.03369l1.57324,1.84033L158.51563,98.22118z"/>
		<path fill="#A3A3A3" stroke="#A3A3A3" stroke-width="0.25" stroke-miterlimit="10" d="M160.63281,101.31883l-1.04492-1.59082
			l-1.1582,0.76172l1.01465,1.54395l-0.40918,0.26953l-1.01563-1.54492l-1.51563,0.99561l1.04492,1.59131l-0.4082,0.26953
			l-1.33105-2.0249l3.90332-2.56445l1.33008,2.0249L160.63281,101.31883z"/>
		<path fill="#A3A3A3" stroke="#A3A3A3" stroke-width="0.25" stroke-miterlimit="10" d="M162.34082,105.9951
			c0.07129-0.19531,0.1377-0.47168,0.13867-0.73535c-0.00098-0.26953-0.05762-0.55957-0.17285-0.80762
			c-0.45117-0.98047-1.57617-1.34082-2.55469-0.88818c-1.15234,0.53174-1.29883,1.73389-0.93945,2.50977
			c0.13086,0.28711,0.34375,0.52832,0.56055,0.69775c0.23242,0.18604,0.4707,0.28516,0.58203,0.3252l-0.58398,0.271
			c-0.55566-0.31543-0.85742-0.77002-1.00391-1.0874c-0.58203-1.25928-0.06055-2.63672,1.16797-3.20313
			c1.26563-0.5835,2.64453-0.0708,3.23242,1.20166c0.11719,0.25439,0.31152,0.75879,0.1582,1.44629L162.34082,105.9951z"/>
		<path fill="#A3A3A3" stroke="#A3A3A3" stroke-width="0.25" stroke-miterlimit="10" d="M162.08203,108.01707l0.61523,2.31152
			l1.83203-0.48877l0.13379,0.5l-4.50879,1.20264l-0.13281-0.50049l2.20313-0.58691l-0.61621-2.3125l-2.2041,0.58838l-0.13281-0.5
			l4.50781-1.20361l0.13379,0.50146L162.08203,108.01707z"/>
	</g>
	<g>
		<circle fill="none" cx="83.5" cy="145.5" r="28.59473"/>
		<path fill="#A3A3A3" stroke="#A3A3A3" stroke-width="0.25" stroke-linejoin="round" stroke-miterlimit="10" d="
			M71.74414,169.79395c0.00293-0.16064-0.02832-0.3584-0.08984-0.49951c-0.05371-0.11914-0.1748-0.30078-0.44336-0.44336
			c-0.4668-0.24805-0.94531-0.13037-1.17773,0.30859c-0.09766,0.18359-0.10352,0.31592-0.04004,0.50342
			c0.06543,0.21582,0.20215,0.3877,0.33691,0.55957l0.34766,0.43701c0.21191,0.2666,0.39941,0.5293,0.49219,0.83105
			c0.11328,0.36768,0.06543,0.69678-0.11523,1.03564c-0.45996,0.86816-1.41016,1.1084-2.25879,0.6582
			c-0.31152-0.16504-0.66602-0.43408-0.82324-0.92529c-0.11328-0.34961-0.08203-0.75,0.00391-1.06689l0.58496,0.12891
			c-0.09668,0.26611-0.09473,0.53857-0.03613,0.75049c0.0957,0.31445,0.2998,0.49365,0.54004,0.62207
			c0.64355,0.34033,1.19043,0.04248,1.44238-0.43115c0.11133-0.21191,0.14551-0.43018,0.05859-0.67529
			c-0.06641-0.19824-0.20605-0.38037-0.39258-0.625l-0.32031-0.42188c-0.13867-0.18311-0.31934-0.40479-0.42188-0.72314
			c-0.10059-0.30615-0.10547-0.58936,0.08301-0.94287c0.38574-0.72754,1.20215-0.91943,1.96582-0.51416
			c0.28906,0.15283,0.49316,0.33398,0.64355,0.61182c0.12402,0.22998,0.18457,0.50586,0.18262,0.76709L71.74414,169.79395z"/>
		<path fill="#A3A3A3" stroke="#A3A3A3" stroke-width="0.25" stroke-linejoin="round" stroke-miterlimit="10" d="
			M75.09375,170.01367c0.50879,0.1709,0.91211,0.37402,1.1543,0.78467c0.26465,0.44238,0.20508,0.92139,0.09766,1.23877
			c-0.23828,0.71338-0.92285,1.26855-2.0752,0.88135l-0.49316-0.16602l-0.73828,2.19971l-0.56152-0.18896l1.69824-5.05762
			L75.09375,170.01367z M73.95508,172.22119l0.46289,0.15674c0.66797,0.22363,1.18164,0.02393,1.37793-0.55908
			c0.26953-0.8042-0.45508-1.13184-0.81934-1.25342l-0.41797-0.14063L73.95508,172.22119z"/>
		<path fill="#A3A3A3" stroke="#A3A3A3" stroke-width="0.25" stroke-linejoin="round" stroke-miterlimit="10" d="
			M80.67578,171.86133l-2.14648-0.35303l-0.25586,1.56348l2.08398,0.34131l-0.0918,0.55225l-2.08301-0.34082l-0.33496,2.04297
			l2.14648,0.35205l-0.08984,0.55225l-2.73047-0.44727l0.86328-5.26367l2.73047,0.44824L80.67578,171.86133z"/>
		<path fill="#A3A3A3" stroke="#A3A3A3" stroke-width="0.25" stroke-linejoin="round" stroke-miterlimit="10" d="M86.2666,172.51367
			c-0.17188-0.16406-0.43262-0.3584-0.70801-0.47949c-0.2832-0.12158-0.61328-0.19336-0.92578-0.18604
			c-1.23242,0.02979-2.11914,1.04443-2.08984,2.27686c0.03516,1.44775,1.22852,2.14697,2.20508,2.12354
			c0.36035-0.00781,0.70898-0.12109,0.98633-0.27197c0.2998-0.15967,0.51172-0.36475,0.60547-0.46338l0.01758,0.7373
			c-0.58203,0.4375-1.19531,0.54736-1.5957,0.55859c-1.58398,0.03809-2.78906-1.13379-2.82617-2.67725
			c-0.03906-1.59229,1.12402-2.80469,2.72363-2.84473c0.32129-0.00732,0.9375,0.01709,1.58887,0.48926L86.2666,172.51367z"/>
		<path fill="#A3A3A3" stroke="#A3A3A3" stroke-width="0.25" stroke-linejoin="round" stroke-miterlimit="10" d="
			M88.28418,170.94775l0.9209,5.26074l-0.58398,0.10205l-0.9209-5.26074L88.28418,170.94775z"/>
		<path fill="#A3A3A3" stroke="#A3A3A3" stroke-width="0.25" stroke-linejoin="round" stroke-miterlimit="10" d="M92.87402,170.2832
			l-2.07813,0.65186l0.47363,1.51367l2.01758-0.63281l0.16797,0.53418l-2.01758,0.63232l0.62109,1.979l2.07715-0.65186
			l0.16797,0.53564l-2.64355,0.82764l-1.59668-5.09424l2.64355-0.8291L92.87402,170.2832z"/>
		<path fill="#A3A3A3" stroke="#A3A3A3" stroke-width="0.25" stroke-linejoin="round" stroke-miterlimit="10" d="M96.6543,169.05078
			c-0.12891-0.09521-0.30859-0.18213-0.45898-0.21436c-0.12891-0.02295-0.34668-0.02783-0.61719,0.11035
			c-0.4707,0.23975-0.64844,0.69873-0.42285,1.13965c0.09473,0.18457,0.19824,0.26709,0.38867,0.32227
			c0.21484,0.06885,0.43359,0.05713,0.65137,0.04443l0.55664-0.03369c0.33984-0.02051,0.66211-0.02441,0.96289,0.07373
			c0.36523,0.11865,0.60742,0.34473,0.78125,0.68652c0.44824,0.87598,0.09863,1.79053-0.75586,2.22607
			c-0.3125,0.16162-0.7373,0.29736-1.22852,0.14355c-0.35156-0.10645-0.66016-0.36133-0.87109-0.61426l0.44043-0.40332
			c0.16309,0.23047,0.38574,0.38574,0.59375,0.45947c0.31152,0.09961,0.57617,0.0376,0.81738-0.0874
			c0.64844-0.33008,0.71875-0.94873,0.47461-1.42578c-0.10938-0.21436-0.26758-0.36572-0.51855-0.43604
			c-0.2002-0.05859-0.42969-0.04932-0.7373-0.03662l-0.5293,0.02002c-0.22852,0.00928-0.51367,0.0293-0.83301-0.06836
			c-0.30859-0.09326-0.54199-0.25293-0.72363-0.6084c-0.375-0.7334-0.06445-1.51172,0.70508-1.90381
			c0.29102-0.1499,0.55664-0.21289,0.87109-0.17725c0.25781,0.03125,0.51953,0.13965,0.73145,0.2915L96.6543,169.05078z"/>
	</g>
	<g>
		<circle fill="none" cx="186.44551" cy="145.5" r="28.59473"/>
		<path fill="#A3A3A3" stroke="#A3A3A3" stroke-width="0.25" stroke-linejoin="round" stroke-miterlimit="10" d="
			M169.58203,165.25781l-1.25586,4.15869l3.65723-2.34277l0.52344,0.39502l-5.1377,3.21289l1.68848-5.81934L169.58203,165.25781z"/>
		<path fill="#A3A3A3" stroke="#A3A3A3" stroke-width="0.25" stroke-linejoin="round" stroke-miterlimit="10" d="
			M171.95996,170.31885c0.66602-1.44629,2.28125-1.98926,3.67676-1.34766c1.39648,0.64258,2.03516,2.22266,1.37012,3.66992
			c-0.66309,1.43896-2.27441,1.99365-3.67676,1.34668C171.92578,173.34326,171.29785,171.75977,171.95996,170.31885z
			 M172.51367,170.57422c-0.5127,1.11182-0.04102,2.40381,1.05078,2.90527c1.08984,0.50195,2.37793,0.01904,2.88867-1.09277
			c0.5127-1.11377,0.04102-2.4043-1.0498-2.90625C174.3125,168.979,173.02539,169.46045,172.51367,170.57422z"/>
		<path fill="#A3A3A3" stroke="#A3A3A3" stroke-width="0.25" stroke-linejoin="round" stroke-miterlimit="10" d="
			M179.13477,170.57666l0.73828,4.17432l2.34375-3.94092l0.86719,4.46924l2.18848-3.69189l0.64746,0.10742l-3.12207,5.17529
			l-0.85254-4.46875l-2.35156,3.94092l-1.10645-5.87207L179.13477,170.57666z"/>
		<path fill="#A3A3A3" stroke="#A3A3A3" stroke-width="0.25" stroke-linejoin="round" stroke-miterlimit="10" d="
			M186.73828,174.76465l1.75977-0.07422l0.02441,0.59229l-1.75977,0.07324L186.73828,174.76465z"/>
		<path fill="#A3A3A3" stroke="#A3A3A3" stroke-width="0.25" stroke-linejoin="round" stroke-miterlimit="10" d="
			M189.60938,171.40039l2.32031,3.55176l0.60742-4.54932l2.55664,3.77344l0.56348-4.25781l0.6377-0.15625l-0.83984,5.99072
			l-2.54102-3.77783l-0.61523,4.55176l-3.32715-4.97119L189.60938,171.40039z"/>
		<path fill="#A3A3A3" stroke="#A3A3A3" stroke-width="0.25" stroke-linejoin="round" stroke-miterlimit="10" d="
			M197.83301,168.77637c0.32129-0.16406,0.80859-0.3877,1.29004-0.32715c0.37109,0.04248,0.80078,0.28271,1.05957,0.78906
			c0.37109,0.72607,0.16797,1.50537-0.52637,1.92334l2.59766,1.35107l-0.6416,0.32715l-2.51172-1.34033l-0.13477,0.06934
			l1.06445,2.08105l-0.52734,0.27051l-2.43262-4.75391L197.83301,168.77637z M198.72461,171.09863l0.33496-0.17188
			c0.65527-0.33447,0.8877-0.84814,0.60254-1.40479c-0.13477-0.26465-0.34863-0.4873-0.73438-0.50537
			c-0.27637-0.01172-0.52637,0.09766-0.75391,0.21582l-0.32031,0.16309L198.72461,171.09863z"/>
		<path fill="#A3A3A3" stroke="#A3A3A3" stroke-width="0.25" stroke-linejoin="round" stroke-miterlimit="10" d="
			M200.86621,167.09766l0.8584-0.66748c0.42383-0.33105,1.05762-0.75293,1.93652-0.71875
			c0.6377,0.02246,1.38965,0.29834,1.97949,1.05615c0.68848,0.88379,0.62207,1.69727,0.52051,2.19189
			c-0.12988,0.62891-0.41113,1.1001-1.16113,1.68701l-0.85352,0.66309L200.86621,167.09766z M204.26953,170.50391l0.41016-0.31934
			c0.33496-0.26074,0.7666-0.65869,0.91211-1.31885c0.1084-0.51074,0.03613-1.125-0.43066-1.72412
			c-0.78711-1.01025-2.00586-1.11572-3.07324-0.28516l-0.41016,0.31934L204.26953,170.50391z"/>
	</g>
	<g>
		<circle fill="none" cx="135" cy="198.5" r="28.59473"/>
		
			<path fill="#A3A3A3" stroke="#A3A3A3" stroke-width="0.25" stroke-linecap="round" stroke-linejoin="round" stroke-miterlimit="10" d="
			M123.35938,227.65137l2.44238-5.15039l0.69238,4.89795l3.27538-3.73682l-0.79492,5.64258l-0.58301-0.17139l0.56543-3.70166
			l-2.85352,3.26172l-0.60645-4.28076l-1.55371,3.41016L123.35938,227.65137z"/>
		
			<path fill="#A3A3A3" stroke="#A3A3A3" stroke-width="0.25" stroke-linecap="round" stroke-linejoin="round" stroke-miterlimit="10" d="
			M130.88867,226.91992c0.07031-1.59033,1.36133-2.7002,2.89648-2.63086c1.53418,0.06885,2.7207,1.29053,2.64941,2.88037
			c-0.07129,1.5835-1.35449,2.70215-2.89746,2.63281C131.99414,229.73242,130.81641,228.50244,130.88867,226.91992z
			 M131.49512,226.94775c-0.05469,1.22314,0.86816,2.24121,2.06738,2.29541c1.19824,0.05371,2.20898-0.87744,2.26465-2.10059
			s-0.86816-2.24072-2.06738-2.29541C132.56055,224.79346,131.55078,225.7251,131.49512,226.94775z"/>
		
			<path fill="#A3A3A3" stroke="#A3A3A3" stroke-width="0.25" stroke-linecap="round" stroke-linejoin="round" stroke-miterlimit="10" d="
			M137.30176,224.3584l1.0752-0.17334c0.5293-0.08545,1.28809-0.15137,2.04199,0.30273
			c0.54688,0.3252,1.07324,0.9292,1.22656,1.87793c0.17871,1.10498-0.27051,1.78613-0.59863,2.17041
			c-0.41504,0.48877-0.88867,0.76758-1.82813,0.91943l-1.06738,0.1709L137.30176,224.3584z M138.64648,228.97998l0.51367-0.08252
			c0.41797-0.06787,0.98828-0.20801,1.43359-0.71729c0.33984-0.39551,0.57227-0.96826,0.45117-1.71875
			c-0.20313-1.26416-1.2207-1.94287-2.55566-1.72705l-0.5127,0.08252L138.64648,228.97998z"/>
		
			<path fill="#A3A3A3" stroke="#A3A3A3" stroke-width="0.25" stroke-linecap="round" stroke-linejoin="round" stroke-miterlimit="10" d="
			M144.84277,223.10889l-2.06543,0.68799l0.5,1.50342l2.00586-0.66699l0.17578,0.53125l-2.00391,0.66748l0.6543,1.9668
			l2.06543-0.68799l0.17676,0.53174l-2.62695,0.87402l-1.68555-5.06494l2.62695-0.87402L144.84277,223.10889z"/>
	</g>
	<g>
		<circle fill="none" cx="135" cy="283.5" r="28.59473"/>
		
			<path fill="#A3A3A3" stroke="#A3A3A3" stroke-width="0.25" stroke-linecap="round" stroke-linejoin="round" stroke-miterlimit="10" d="
			M117.6709,309.67383l3.43262-4.54932l-0.3125,4.93604l3.96484-2.99658l-1.91992,5.36523l-0.53711-0.28564l1.30273-3.51123
			l-3.45313,2.61572l0.27148-4.31299l-2.21289,3.0249L117.6709,309.67383z"/>
		
			<path fill="#A3A3A3" stroke="#A3A3A3" stroke-width="0.25" stroke-linecap="round" stroke-linejoin="round" stroke-miterlimit="10" d="
			M127.42578,308.27979l-1.61328,5.0874l-0.56445-0.17871l1.61328-5.0874L127.42578,308.27979z"/>
		
			<path fill="#A3A3A3" stroke="#A3A3A3" stroke-width="0.25" stroke-linecap="round" stroke-linejoin="round" stroke-miterlimit="10" d="
			M129.7207,311.49268l-0.96484-2.78711l0.66309,0.11621l0.74023,2.17041l1.46777-1.78223l0.66211,0.11719l-1.88965,2.28467
			l1.04395,2.98877l-0.66309-0.11621l-0.82617-2.37305l-1.60254,1.9458l-0.66211-0.11719L129.7207,311.49268z"/>
		
			<path fill="#A3A3A3" stroke="#A3A3A3" stroke-width="0.25" stroke-linecap="round" stroke-linejoin="round" stroke-miterlimit="10" d="
			M135.90332,312.21533c-0.2207-1.57666,0.8457-2.9043,2.36621-3.11719c1.51953-0.21289,2.91016,0.77246,3.12988,2.34814
			c0.21973,1.56787-0.83691,2.90234-2.36621,3.11621C137.50391,314.77686,136.12305,313.7832,135.90332,312.21533z
			 M136.50488,312.13086c0.16895,1.21143,1.2627,2.04297,2.4502,1.87695c1.18848-0.16602,2.01172-1.26611,1.84277-2.47705
			c-0.16895-1.21143-1.2627-2.04395-2.45117-1.87793C137.1582,309.81787,136.33594,310.91846,136.50488,312.13086z"/>
		
			<path fill="#A3A3A3" stroke="#A3A3A3" stroke-width="0.25" stroke-linecap="round" stroke-linejoin="round" stroke-miterlimit="10" d="
			M144.00879,311.27246c0.15723,0.41992,0.3291,0.87695,0.85254,1.06543c0.26563,0.09619,0.65332,0.07959,0.93164-0.02344
			c0.27734-0.10449,0.58008-0.3457,0.7168-0.59326c0.27148-0.4873,0.09961-0.94434-0.05664-1.36377l-1.14844-3.06592
			l0.55469-0.20801l1.2041,3.21582c0.15723,0.41895,0.26465,0.84082,0.13477,1.31787
			c-0.14551,0.52393-0.57129,0.98389-1.20996,1.22217c-0.63672,0.2373-1.25977,0.17285-1.71387-0.12842
			c-0.41113-0.27295-0.60645-0.66113-0.76465-1.08105l-1.2041-3.21582l0.55566-0.2085L144.00879,311.27246z"/>
		
			<path fill="#A3A3A3" stroke="#A3A3A3" stroke-width="0.25" stroke-linecap="round" stroke-linejoin="round" stroke-miterlimit="10" d="
			M148.77148,306.08643l2.44727,4.10596l-0.50781,0.30322l-2.44922-4.10645l-1.11328,0.66455l-0.28711-0.48096l2.73633-1.63135
			l0.28809,0.48096L148.77148,306.08643z"/>
	</g>
	<g>
		<circle fill="none" cx="135" cy="283.44943" r="28.59473"/>
		<path fill="#A3A3A3" d="M142.45996,253.7832l0.22949,3.24902l1.9375-2.61719l0.47266,0.1377l-2.74414,3.62012l-0.36816-4.52734
			L142.45996,253.7832z"/>
		<path fill="#A3A3A3" d="M145.46289,256.79199c0.51758-1.07617,1.73438-1.46191,2.77246-0.96289
			c1.03809,0.49805,1.49707,1.68945,0.97949,2.76465c-0.51367,1.07031-1.72852,1.46484-2.77148,0.96484
			C145.40039,259.05762,144.94922,257.8623,145.46289,256.79199z M145.875,256.98926c-0.39746,0.82813-0.06055,1.80078,0.75,2.19141
			c0.81055,0.38867,1.78223,0.04297,2.17969-0.78223c0.39746-0.82813,0.05957-1.80273-0.75-2.19141
			C147.24219,255.81738,146.27148,256.16309,145.875,256.98926z"/>
		<path fill="#A3A3A3" d="M153.53906,260.22363c-0.0293-0.17578-0.09863-0.41016-0.20898-0.60645
			c-0.11523-0.2002-0.28027-0.39063-0.4707-0.52734c-0.75195-0.53613-1.74023-0.32813-2.27734,0.42383
			c-0.63086,0.88379-0.23047,1.83984,0.36523,2.26563c0.2207,0.15625,0.48047,0.24609,0.71387,0.28027
			c0.25098,0.04004,0.4707,0.01074,0.57129-0.00488l-0.32129,0.44824c-0.5459,0.00098-0.96387-0.20801-1.20801-0.38281
			c-0.96582-0.68945-1.16113-1.93359-0.48828-2.87598c0.69336-0.97168,1.93555-1.17578,2.91309-0.47852
			c0.19434,0.13965,0.55371,0.43262,0.73145,1.00879L153.53906,260.22363z"/>
		<path fill="#A3A3A3" d="M154.94141,264.23535l-1.2207-1.19141l-1.13281,0.47168l-0.35156-0.34473l4.25391-1.71484
			l-1.65039,4.25977l-0.35156-0.34473L154.94141,264.23535z M155.11133,263.81348l0.63867-1.61719l-1.61035,0.66797
			L155.11133,263.81348z"/>
		<path fill="#A3A3A3" d="M158.79883,264.29102l-2.79785,2.2373l0.69043,0.86328l-0.32813,0.26172l-0.9668-1.20898l3.125-2.49902
			L158.79883,264.29102z"/>
		<path fill="#A3A3A3" d="M162.10352,271.27148c0.05469-0.16992,0.09961-0.40918,0.0918-0.63379
			c-0.01172-0.23145-0.07129-0.47754-0.17871-0.68555c-0.4248-0.82129-1.39941-1.08789-2.2207-0.66309
			c-0.96484,0.49805-1.0459,1.5332-0.70898,2.18359c0.12402,0.23926,0.31445,0.43945,0.50684,0.57617
			c0.20508,0.15039,0.41406,0.22461,0.51074,0.25586l-0.49121,0.25391c-0.48633-0.24805-0.76172-0.62598-0.90039-0.89258
			c-0.54492-1.05566-0.15039-2.25391,0.87891-2.78516c1.06055-0.54785,2.26074-0.16211,2.8125,0.90527
			c0.10938,0.21387,0.29492,0.6377,0.18945,1.23145L162.10352,271.27148z"/>
		<path fill="#A3A3A3" d="M161.60547,272.87207c1.13867-0.3623,2.25586,0.25879,2.60547,1.3584
			c0.34766,1.09863-0.20508,2.25195-1.34473,2.61328c-1.13379,0.35938-2.25488-0.25488-2.60449-1.36035
			C159.91016,274.38086,160.47266,273.23145,161.60547,272.87207z M161.74414,273.30664
			c-0.87695,0.27734-1.35547,1.19238-1.08203,2.05078c0.27148,0.85938,1.19043,1.3291,2.06543,1.05176
			c0.87598-0.27832,1.35449-1.19238,1.08203-2.05078S162.61914,273.02832,161.74414,273.30664z"/>
		<path fill="#A3A3A3" d="M165.17188,278.59961c0.04004,0.2666,0.08008,0.66602-0.07715,0.99316
			c-0.12012,0.25391-0.39258,0.5-0.81348,0.5625c-0.60547,0.08887-1.10938-0.24121-1.23828-0.83398l-1.58203,1.51855
			l-0.07813-0.53418l1.55273-1.45898l-0.0166-0.11426l-1.73145,0.25781l-0.06641-0.44043l3.95703-0.58594L165.17188,278.59961z
			 M163.31055,278.6748l0.04102,0.2793c0.08105,0.54492,0.39063,0.83203,0.85254,0.76465
			c0.21973-0.0332,0.42871-0.13086,0.53418-0.40039c0.0752-0.19434,0.05664-0.39746,0.0293-0.58691l-0.04004-0.2666
			L163.31055,278.6748z"/>
		<path fill="#A3A3A3" d="M165.54492,281.83496l0.00586,0.81445c0.00293,0.40234-0.03516,0.97168-0.45605,1.47754
			c-0.30371,0.36914-0.80957,0.69043-1.5293,0.69629c-0.83984,0.00684-1.29199-0.40332-1.54004-0.68945
			c-0.31445-0.36426-0.4668-0.74609-0.47363-1.45898l-0.00586-0.80957L165.54492,281.83496z M161.96875,282.30566l0.00293,0.38965
			c0.00293,0.31836,0.04199,0.75488,0.36816,1.1416c0.25488,0.29883,0.65234,0.53516,1.22266,0.53125
			c0.95801-0.00781,1.57617-0.68359,1.56836-1.69727l-0.00195-0.38867L161.96875,282.30566z"/>
		<path fill="#A3A3A3" d="M164.40625,288.16016c0.11328-0.03906,0.24414-0.11328,0.32813-0.19238
			c0.07031-0.06934,0.16602-0.20313,0.19727-0.42969c0.05078-0.3916-0.15625-0.69824-0.52539-0.74707
			c-0.1543-0.02148-0.24902,0.00879-0.36426,0.10254c-0.13574,0.10352-0.21973,0.24414-0.30566,0.38379l-0.2168,0.3584
			c-0.13281,0.21973-0.26758,0.41895-0.45703,0.5625c-0.22852,0.17578-0.47266,0.22852-0.75781,0.19043
			c-0.73242-0.09863-1.14844-0.7041-1.05273-1.41797c0.03516-0.26172,0.13184-0.58203,0.43652-0.81934
			c0.21582-0.1709,0.50586-0.25488,0.75098-0.27539l0.0625,0.44336c-0.21289,0.00195-0.4043,0.07422-0.53809,0.1709
			c-0.19531,0.14941-0.26953,0.33984-0.2959,0.54199c-0.07227,0.54102,0.28027,0.84863,0.67871,0.90234
			c0.17871,0.02344,0.34082-0.00977,0.49121-0.13477c0.12109-0.09863,0.21387-0.24414,0.33594-0.44043l0.21484-0.33398
			c0.0918-0.14551,0.20117-0.33105,0.39844-0.48633c0.18848-0.15039,0.38672-0.22656,0.68359-0.1875
			c0.61328,0.08203,0.96094,0.60645,0.87598,1.24805c-0.03223,0.24512-0.10645,0.43359-0.26367,0.61426
			c-0.12793,0.14551-0.30762,0.26172-0.49121,0.32813L164.40625,288.16016z"/>
	</g>
	<g>
		<circle fill="none" cx="135" cy="283.5" r="28.59473"/>
		<path fill="#A3A3A3" d="M111.99414,269.93359l-3.06738-2.97998l3.64551,0.69287l-1.86133-3.23047l3.81543,1.92871
			l-0.26172,0.37305l-2.49316-1.2959l1.62598,2.81494l-3.1875-0.604l2.04688,1.92871L111.99414,269.93359z"/>
		<path fill="#A3A3A3" d="M113.76855,264.19238c-0.82324-0.86572-0.75293-2.1416,0.08203-2.93555s2.11328-0.80029,2.93555,0.06543
			c0.81836,0.86035,0.75781,2.13721-0.08203,2.93506S114.58691,265.05371,113.76855,264.19238z M114.09863,263.87793
			c0.63281,0.66553,1.66309,0.69482,2.31641,0.0752c0.65137-0.62012,0.67285-1.65137,0.04102-2.31689
			c-0.63281-0.66504-1.66406-0.69531-2.31641-0.0752C113.4873,262.18164,113.46582,263.21289,114.09863,263.87793z"/>
		<path fill="#A3A3A3" d="M118.55176,260.60352c0.18555,0.2793,0.38867,0.58398,0.80273,0.63281
			c0.21094,0.02539,0.49023-0.05225,0.67578-0.17578c0.18359-0.12305,0.36328-0.35059,0.42188-0.55469
			c0.11523-0.40137-0.08691-0.70605-0.27344-0.98535l-1.3584-2.04248l0.37012-0.24561l1.4248,2.1416
			c0.18652,0.28027,0.33496,0.56934,0.32129,0.93896c-0.0166,0.40771-0.25,0.81494-0.67383,1.09717
			c-0.42383,0.2832-0.89063,0.33984-1.27344,0.19873c-0.3457-0.13037-0.55469-0.37988-0.74121-0.65967l-1.4248-2.14258
			l0.36914-0.24561L118.55176,260.60352z"/>
		<path fill="#A3A3A3" d="M121.93262,256.2666l1.56836,3.22168l-0.39941,0.19434l-1.56836-3.22168l-0.87402,0.42578
			l-0.18359-0.37695l2.14648-1.0459l0.18457,0.37744L121.93262,256.2666z"/>
		<path fill="#A3A3A3" d="M124.89941,256.29688l1.94922-0.64795l-0.51367-1.54346l0.42188-0.14063l1.2627,3.80078l-0.42188,0.14014
			l-0.61719-1.85742l-1.94824,0.64697l0.61719,1.8584l-0.42188,0.14014l-1.2627-3.80127l0.4209-0.14014L124.89941,256.29688z"/>
	</g>
	<g>
		<circle fill="none" cx="83.5" cy="145.44514" r="28.59473"/>
		<path fill="#A3A3A3" d="M93.97852,117.63572c-0.08203-0.1582-0.2207-0.3584-0.38672-0.51172
			c-0.17188-0.15332-0.3877-0.28418-0.61133-0.35449c-0.88086-0.27539-1.75586,0.22949-2.03125,1.11035
			c-0.3252,1.03516,0.35254,1.82031,1.05078,2.03906c0.25781,0.08105,0.5332,0.08496,0.76563,0.04395
			c0.25098-0.04004,0.45117-0.13477,0.54102-0.18262l-0.16504,0.52734c-0.51855,0.16992-0.98145,0.10059-1.2666,0.0127
			c-1.13281-0.35645-1.70605-1.47754-1.35938-2.58203c0.35645-1.13965,1.47461-1.71973,2.61914-1.36035
			c0.22852,0.07129,0.66113,0.23828,1.00977,0.73145L93.97852,117.63572z"/>
		<path fill="#A3A3A3" d="M95.54102,119.11913l1.83594,0.9209l0.73047-1.45508l0.39648,0.19922l-1.7959,3.58301l-0.39746-0.2002
			l0.87793-1.75l-1.83691-0.92188l-0.87695,1.75098l-0.39844-0.19922l1.79688-3.58203l0.39648,0.19922L95.54102,119.11913z"/>
		<path fill="#A3A3A3" d="M100.45508,120.02439l-2.20215,3.3457l-0.37207-0.24316l2.20313-3.34766L100.45508,120.02439z"/>
		<path fill="#A3A3A3" d="M102.50195,121.52439c0.31445,0.25098,0.5459,0.49902,0.60938,0.85059
			c0.07227,0.38086-0.09375,0.70215-0.25195,0.89844c-0.35254,0.44043-0.97852,0.65332-1.68945,0.08301l-0.30469-0.24414
			l-1.08984,1.35645l-0.3457-0.27734l2.50586-3.12305L102.50195,121.52439z M101.12891,122.78416l0.28516,0.22949
			c0.41211,0.33008,0.82617,0.32422,1.11523-0.03711c0.39844-0.49609-0.02734-0.91504-0.25195-1.09473l-0.25781-0.20703
			L101.12891,122.78416z"/>
		<path fill="#A3A3A3" d="M101.69141,125.98631l3.57422-2.3418l-1.4707,3.40527l3.55664-1.1123l-2.71289,3.30079l-0.30566-0.33691
			l1.80762-2.14846l-3.09961,0.97266l1.2832-2.97754l-2.32715,1.57617L101.69141,125.98631z"/>
		<path fill="#A3A3A3" d="M106.85547,129.78906c-0.28516,0.17871-0.5957,0.37305-0.65625,0.78613
			c-0.03125,0.20996,0.03906,0.49121,0.15625,0.67969s0.33984,0.37598,0.54297,0.44043
			c0.39844,0.12695,0.70898-0.06738,0.99414-0.24512l2.08301-1.30078l0.23535,0.37793l-2.18555,1.36328
			c-0.28516,0.17773-0.5791,0.31836-0.94824,0.29395c-0.40723-0.02832-0.80859-0.27344-1.07813-0.70605
			c-0.27051-0.43359-0.31445-0.90039-0.16113-1.2793c0.14063-0.34277,0.39453-0.54395,0.68066-0.72266l2.18457-1.36426
			l0.23535,0.37695L106.85547,129.78906z"/>
		<path fill="#A3A3A3" d="M107.4248,133.78027l3.86035-1.58008l-1.8457,4.12695l2.87109-1.17578l0.16797,0.41113l-3.87012,1.58496
			l1.84473-4.12695l-2.85938,1.16992L107.4248,133.78027z"/>
		<path fill="#A3A3A3" d="M111.45801,138.27051l2.05566,1.27148l0.13574,0.58398l-2.23926-1.40137l-1.64453,2.36328l-0.13867-0.5957
			l1.41895-2.00977l-0.1377-0.08496l-1.67676,0.38867l-0.10059-0.43262l3.89844-0.90332l0.09961,0.43164L111.45801,138.27051z"/>
		<path fill="#A3A3A3" d="M113.21094,143.23242c0.10156-0.06641,0.21289-0.16699,0.27441-0.26465
			c0.05176-0.08203,0.11426-0.23535,0.09277-0.45996c-0.04102-0.39453-0.3125-0.64355-0.68359-0.60742
			c-0.1543,0.01563-0.24023,0.06738-0.33008,0.18457c-0.10742,0.13086-0.1582,0.28809-0.20898,0.44336l-0.12793,0.39941
			c-0.07715,0.24219-0.16309,0.46777-0.31348,0.65234c-0.18164,0.22266-0.40625,0.33008-0.69336,0.35938
			c-0.73242,0.07422-1.27734-0.41895-1.35059-1.13477c-0.02637-0.2627-0.00586-0.59668,0.23535-0.89746
			c0.16992-0.2168,0.43262-0.36328,0.66602-0.44238l0.16211,0.41797c-0.20508,0.05078-0.375,0.16406-0.48242,0.29004
			c-0.15527,0.19141-0.18359,0.3916-0.16211,0.59473c0.05469,0.54395,0.46875,0.76074,0.86816,0.7207
			c0.17871-0.01855,0.3291-0.08789,0.44629-0.24414c0.0957-0.125,0.15039-0.28711,0.22559-0.50586l0.12988-0.375
			c0.05664-0.16211,0.12012-0.36816,0.27539-0.56348c0.14844-0.19043,0.32422-0.31152,0.62207-0.34082
			c0.61426-0.0625,1.07324,0.36719,1.13965,1.01074c0.02344,0.24512-0.00391,0.44727-0.11523,0.65723
			c-0.08984,0.17285-0.23828,0.3252-0.40137,0.43262L113.21094,143.23242z"/>
	</g>
	<g>
		<circle fill="none" cx="83.5" cy="145.49571" r="28.59473"/>
		<path fill="#A3A3A3" d="M57.21289,129.84473l0.44922-0.68262c0.2207-0.33594,0.56934-0.78906,1.20215-0.97559
			c0.45703-0.1377,1.05762-0.12305,1.66016,0.27295c0.70117,0.46191,0.84961,1.05518,0.89648,1.43066
			c0.06055,0.47754-0.02637,0.88086-0.41797,1.47754l-0.44531,0.67627L57.21289,129.84473z M60.4502,131.44238l0.21484-0.3252
			c0.1748-0.2666,0.38477-0.65234,0.33008-1.15527c-0.04688-0.39014-0.24512-0.80859-0.72168-1.12158
			c-0.80273-0.52783-1.69336-0.31006-2.25098,0.5376l-0.21387,0.32617L60.4502,131.44238z"/>
		<path fill="#A3A3A3" d="M63.52246,126.28709l-1.1377,1.26611l0.51758,1.11037l-0.3291,0.36572l-1.88574-4.17043l4.31543,1.46826
			l-0.3291,0.36523L63.52246,126.28709z M63.09473,126.13572l-1.63867-0.57129l0.73242,1.57861L63.09473,126.13572z"/>
		<path fill="#A3A3A3" d="M63.43359,122.42283l2.34473,2.7124l0.83496-0.72314l0.27539,0.31787l-1.17188,1.01318l-2.61816-3.0293
			L63.43359,122.42283z"/>
		<path fill="#A3A3A3" d="M67.3457,120.00684l-1.34375,0.92432l0.67285,0.97852l1.30469-0.89844l0.23828,0.3457l-1.30469,0.89844
			l0.88086,1.27979l1.34375-0.92578l0.23828,0.34668l-1.70898,1.17627l-2.26855-3.29443l1.70898-1.17676L67.3457,120.00684z"/>
		<path fill="#A3A3A3" d="M69.7207,120.12354l0.73828-2.30566l0.53516-0.27344l-0.81934,2.51611l2.69434,1.02539l-0.5459,0.27881
			l-2.2959-0.89209l-0.0498,0.15332l0.78418,1.53613l-0.39648,0.20166l-1.82129-3.56885l0.39648-0.20117L69.7207,120.12354z"/>
		<path fill="#A3A3A3" d="M74.11328,117.21581c-0.08789-0.08301-0.21191-0.16504-0.32129-0.20215
			c-0.09473-0.03027-0.25586-0.05469-0.46973,0.02344c-0.37207,0.13428-0.54785,0.45898-0.4209,0.80859
			c0.05273,0.14648,0.12207,0.2168,0.25879,0.27539c0.15332,0.07227,0.31738,0.08398,0.47949,0.09473l0.41895,0.02734
			c0.25488,0.0166,0.49316,0.04395,0.70801,0.14453c0.26172,0.12207,0.41992,0.31348,0.51855,0.58447
			c0.25,0.69287-0.09473,1.34131-0.77148,1.58594c-0.24805,0.08936-0.57617,0.15137-0.92773-0.00879
			c-0.25098-0.11279-0.45801-0.33154-0.59082-0.53857l0.36621-0.25977c0.09863,0.18652,0.25098,0.32422,0.39941,0.39746
			c0.22168,0.10449,0.42383,0.08301,0.61621,0.01318c0.5127-0.18555,0.62207-0.64014,0.48535-1.01709
			c-0.06055-0.16895-0.16406-0.29785-0.34473-0.37305c-0.14453-0.06299-0.31543-0.07715-0.54492-0.09619l-0.39551-0.03516
			c-0.1709-0.01465-0.38574-0.02637-0.61426-0.12842c-0.21973-0.09863-0.37891-0.23926-0.48145-0.52051
			c-0.20996-0.58105,0.09473-1.13135,0.70313-1.35156c0.23145-0.08301,0.43359-0.10547,0.66504-0.04785
			c0.18848,0.0459,0.37305,0.15039,0.5166,0.28369L74.11328,117.21581z"/>
	</g>
	<g>
		<circle fill="none" cx="135.25" cy="198.37961" r="28.59473"/>
		<path fill="#A3A3A3" d="M129.7793,168.25977l0.62207,3.52734l1.08789-0.19238l0.07227,0.41406l-1.52344,0.26855l-0.69629-3.94043
			L129.7793,168.25977z"/>
		<path fill="#A3A3A3" d="M133.01074,167.85254c0.40234-0.02637,0.74023-0.00098,1.02637,0.21484
			c0.30957,0.23242,0.40527,0.58008,0.42285,0.83203c0.03809,0.56348-0.27832,1.14453-1.19043,1.20508l-0.38867,0.02637
			l0.11621,1.7373l-0.44336,0.03027l-0.26855-3.99707L133.01074,167.85254z M132.85156,169.71094l0.36621-0.02441
			c0.52832-0.03516,0.82715-0.31934,0.79688-0.78125c-0.04297-0.63574-0.63965-0.65527-0.92773-0.63672l-0.3291,0.02246
			L132.85156,169.71094z"/>
		<path fill="#A3A3A3" d="M138.88281,168.84473c-0.11816-0.13379-0.2998-0.29688-0.49707-0.40723
			c-0.20313-0.11035-0.44434-0.1875-0.67871-0.20313c-0.92188-0.06445-1.65723,0.63086-1.72168,1.55469
			c-0.07422,1.08496,0.76953,1.69043,1.50098,1.74121c0.26855,0.01953,0.53711-0.04102,0.75488-0.13379
			c0.23535-0.09863,0.4082-0.23633,0.48438-0.30371l-0.03809,0.55176c-0.46484,0.28613-0.93164,0.32617-1.23145,0.30566
			c-1.18652-0.08203-2.00488-1.04199-1.9248-2.19922c0.08203-1.19238,1.03711-2.01758,2.23535-1.93457
			c0.23926,0.0166,0.69922,0.0791,1.15332,0.47754L138.88281,168.84473z"/>
		<path fill="#A3A3A3" d="M142.85156,168.66113l0.03516,3.18359l2.21973-2.63477l0.0957,3.41992l2.07422-2.46777l0.46582,0.1582
			l-2.94727,3.45215l-0.08398-3.41504l-2.22461,2.63184l-0.10156-4.48633L142.85156,168.66113z"/>
		<path fill="#A3A3A3" d="M147.92969,172.68848c0.60645-1.03027,1.85254-1.3125,2.8457-0.72754s1.34961,1.8125,0.74414,2.8418
			c-0.60449,1.02344-1.84863,1.31445-2.8457,0.72656C147.6748,174.94141,147.32715,173.71191,147.92969,172.68848z
			 M148.32324,172.91895c-0.4668,0.79199-0.21191,1.79102,0.56348,2.24805s1.77246,0.19531,2.23926-0.5957
			c0.4668-0.79199,0.21191-1.79199-0.56348-2.24805C149.78711,171.86621,148.78906,172.12793,148.32324,172.91895z"/>
		<path fill="#A3A3A3" d="M154.40918,174.56543c0.20898,0.17188,0.50586,0.44141,0.60742,0.79004
			c0.08105,0.26855,0.04395,0.63477-0.22754,0.96289c-0.39063,0.47168-0.9873,0.5625-1.48047,0.20898l-0.1582,2.18848
			l-0.41602-0.34375l0.17676-2.12695l-0.08789-0.07227l-1.11523,1.35059l-0.34277-0.2832l2.54883-3.08398L154.40918,174.56543z
			 M153.07617,175.86816l0.2168,0.17969c0.42578,0.35059,0.84766,0.3584,1.14551-0.00293
			c0.1416-0.1709,0.23242-0.38379,0.12988-0.65625c-0.07422-0.19336-0.22266-0.33203-0.37207-0.4541l-0.20801-0.17188
			L153.07617,175.86816z"/>
		<path fill="#A3A3A3" d="M156.83887,176.71289l0.55176,0.60156c0.27051,0.2959,0.625,0.74414,0.65137,1.4043
			c0.02148,0.47656-0.13965,1.05566-0.66992,1.54199c-0.61914,0.56738-1.23145,0.56543-1.60742,0.51953
			c-0.47754-0.05957-0.84668-0.24121-1.33008-0.76758l-0.54688-0.59668L156.83887,176.71289z M154.49805,179.45898l0.26367,0.28809
			c0.21484,0.2334,0.53711,0.5332,1.03809,0.60156c0.38965,0.05078,0.84375-0.04004,1.26367-0.4248
			c0.70898-0.64844,0.71484-1.56445,0.0293-2.31348l-0.2627-0.28711L154.49805,179.45898z"/>
		<path fill="#A3A3A3" d="M160.21582,182.18164c0.05957-0.10547,0.10742-0.24707,0.11719-0.3623
			c0.00488-0.09863-0.0127-0.26172-0.1416-0.44922c-0.22168-0.32715-0.58105-0.41602-0.88867-0.20605
			c-0.12891,0.08789-0.17871,0.17285-0.20117,0.32031c-0.03223,0.16602-0.00293,0.32715,0.02832,0.48828l0.07813,0.41211
			c0.04688,0.25,0.08008,0.48926,0.03613,0.72266c-0.05371,0.2832-0.19922,0.48438-0.4375,0.64648
			c-0.60938,0.41699-1.32324,0.24316-1.72852-0.35059c-0.14941-0.21777-0.29102-0.52051-0.22266-0.90039
			c0.0459-0.27246,0.20703-0.52637,0.37305-0.70703l0.34277,0.28906c-0.15625,0.14355-0.25,0.32422-0.28516,0.48535
			c-0.0459,0.24219,0.02637,0.43262,0.1416,0.60059c0.30762,0.45117,0.77539,0.44434,1.10742,0.21777
			c0.14844-0.10156,0.24707-0.23438,0.27539-0.42773c0.02344-0.15527-0.00391-0.32422-0.04297-0.55176l-0.06543-0.3916
			c-0.02832-0.16895-0.07031-0.38086-0.02832-0.62695c0.04004-0.23828,0.13574-0.42773,0.38379-0.59668
			c0.51074-0.34863,1.11816-0.19141,1.48438,0.34375c0.13867,0.20313,0.21094,0.39355,0.21387,0.63184
			c0.00195,0.19434-0.05371,0.40039-0.14648,0.57227L160.21582,182.18164z"/>
		<path fill="#A3A3A3" d="M163.25781,186.18066c0.08691,0.2041,0.22656,0.58105,0.12598,0.94336
			c-0.04004,0.15234-0.1748,0.46387-0.62305,0.65332c-0.18066,0.07715-0.51855,0.1748-0.87695-0.05762
			c0.08984,0.56738-0.27832,0.94434-0.63184,1.09473c-0.35254,0.14941-0.71484,0.09473-0.9541-0.03906
			c-0.35547-0.19434-0.50879-0.52637-0.61719-0.78027l-0.3877-0.91797l3.68359-1.55957L163.25781,186.18066z M159.85254,187.32227
			l0.19824,0.46973c0.10059,0.23828,0.21582,0.46289,0.42871,0.58105c0.16602,0.09863,0.39063,0.12109,0.61133,0.02734
			c0.29199-0.12402,0.39063-0.36719,0.4082-0.54395c0.01855-0.1709-0.03027-0.37793-0.1543-0.6709l-0.17773-0.41895
			L159.85254,187.32227z M161.53223,186.61133l0.13086,0.30957c0.09082,0.21582,0.34961,0.7041,0.91895,0.46387
			c0.60742-0.25684,0.36523-0.8584,0.31738-0.97461l-0.13574-0.32031L161.53223,186.61133z"/>
		<path fill="#A3A3A3" d="M162.22852,192.1748l-0.43164-1.64746l-1.21094-0.17871l-0.12402-0.47559l4.51953,0.71973
			l-3.59961,2.79492l-0.12598-0.47461L162.22852,192.1748z M162.59082,191.90039l1.37891-1.05469l-1.72168-0.25684
			L162.59082,191.90039z"/>
		<path fill="#A3A3A3" d="M161.52637,194.21973l4.15332-0.36523l-2.98438,3.39551l3.0918-0.27246l0.03809,0.44238l-4.16699,0.36719
			l2.98535-3.39551l-3.0791,0.27051L161.52637,194.21973z"/>
		<path fill="#A3A3A3" d="M164.05566,199.68066l1.59082,1.8252l-0.04297,0.59863l-1.72852-2.00293l-2.27246,1.77637l0.04492-0.61133
			l1.95117-1.50488l-0.10547-0.12109l-1.71973-0.12402l0.03125-0.44336l3.99707,0.28809l-0.03223,0.44238L164.05566,199.68066z"/>
		<path fill="#A3A3A3" d="M164.27148,204.94434c0.11621-0.03223,0.25098-0.09668,0.33887-0.1709
			c0.07422-0.06543,0.17969-0.19043,0.22363-0.41406c0.07617-0.3877-0.11035-0.70605-0.47461-0.7793
			c-0.15234-0.03027-0.24902-0.00684-0.36914,0.0791c-0.1416,0.09473-0.23633,0.22852-0.33008,0.3623l-0.23926,0.34375
			c-0.14551,0.20898-0.29395,0.40039-0.49121,0.53223c-0.23926,0.16016-0.48535,0.19629-0.76758,0.14063
			c-0.72266-0.14355-1.09961-0.77441-0.95801-1.48047c0.05176-0.25879,0.16797-0.57129,0.4873-0.78906
			c0.22656-0.15723,0.51953-0.2207,0.76563-0.22656l0.0332,0.44629c-0.21094-0.01074-0.40625,0.04688-0.5459,0.13574
			c-0.2041,0.13672-0.29004,0.32129-0.33105,0.52148c-0.10645,0.53418,0.22656,0.86328,0.62109,0.94141
			c0.1748,0.03613,0.33887,0.01367,0.49707-0.10254c0.12793-0.08984,0.22852-0.22949,0.36328-0.41602l0.23535-0.32031
			c0.10156-0.13867,0.22168-0.31641,0.42676-0.45898c0.19922-0.13672,0.40137-0.20117,0.69434-0.14258
			c0.60645,0.12012,0.91992,0.66602,0.79297,1.30078c-0.04785,0.24121-0.13281,0.42578-0.30176,0.59375
			c-0.1377,0.1377-0.32227,0.24121-0.51074,0.2959L164.27148,204.94434z"/>
	</g>
	<g>
		<circle fill="none" cx="135.25" cy="198.37961" r="28.59473"/>
		<path fill="#A3A3A3" d="M105.45898,198.32568c-0.10742,0.05615-0.22559,0.14893-0.29492,0.24072
			c-0.05957,0.07861-0.13379,0.22412-0.12891,0.45215c0.00879,0.39551,0.26074,0.66602,0.63281,0.65771
			c0.15527-0.00342,0.24512-0.04639,0.34375-0.15723c0.11816-0.12256,0.18066-0.27393,0.24219-0.42529l0.16016-0.38721
			c0.09668-0.23584,0.2002-0.45459,0.36426-0.62598c0.19922-0.2085,0.43164-0.29736,0.71875-0.30322
			c0.73828-0.0166,1.24121,0.51855,1.25684,1.23828c0.00586,0.26318-0.04102,0.59375-0.30469,0.87598
			c-0.1875,0.20215-0.45996,0.32813-0.69922,0.38672l-0.12891-0.42871c0.20898-0.03418,0.38672-0.13428,0.50391-0.25098
			c0.16992-0.17773,0.21387-0.37646,0.20898-0.58008c-0.01172-0.5459-0.40625-0.79492-0.80859-0.78613
			c-0.17969,0.00391-0.33398,0.06104-0.46289,0.20801c-0.10547,0.11621-0.17383,0.27344-0.26563,0.48535l-0.15918,0.36377
			c-0.06934,0.15771-0.14844,0.35693-0.31934,0.54102c-0.16406,0.17676-0.34766,0.2832-0.64648,0.29053
			c-0.61816,0.0127-1.04199-0.45215-1.05664-1.09961c-0.00488-0.24561,0.03906-0.44434,0.16602-0.64551
			c0.10449-0.16406,0.26367-0.30518,0.43457-0.39941L105.45898,198.32568z"/>
		<path fill="#A3A3A3" d="M107.8457,194.30615l-0.20313,1.69141l1.06348,0.60986l-0.05859,0.48926l-3.94531-2.32666l4.37598-1.28369
			l-0.05762,0.48828L107.8457,194.30615z M107.40723,194.42871l-1.66992,0.47656l1.50977,0.86914L107.40723,194.42871z"/>
		<path fill="#A3A3A3" d="M109.19238,192.79785l-3.84766-1.86475l3.67871-0.48779l-2.7832-2.48193l4.22852,0.63232l-0.13184,0.43652
			l-2.77344-0.44824l2.42773,2.16211l-3.21484,0.42725l2.54785,1.18848L109.19238,192.79785z"/>
	</g>
	<g>
		<circle fill="none" cx="135.25" cy="198.37961" r="28.59473"/>
		<path fill="#A3A3A3" d="M111.28711,216.76367l0.87598,1.06641l0.91504-0.75195l-0.84766-1.0293l0.32422-0.26563l0.84766,1.0293
			l1.53027-1.25879l0.28223,0.34277l-3.09375,2.54395l-1.1582-1.41016L111.28711,216.76367z"/>
		<path fill="#A3A3A3" d="M111.78125,214.84766c-1.02539,0.60938-2.25195,0.25879-2.8418-0.73047
			c-0.58789-0.98828-0.31055-2.23438,0.71387-2.84375c1.01855-0.60742,2.24902-0.26465,2.84082,0.72949
			S112.80078,214.24023,111.78125,214.84766z M111.54688,214.45605c0.78906-0.46973,1.04688-1.46582,0.58594-2.23828
			c-0.45898-0.77344-1.45898-1.02148-2.24609-0.55371c-0.78809,0.46973-1.04492,1.4668-0.58594,2.23828
			C109.75977,214.67578,110.75977,214.9248,111.54688,214.45605z"/>
		<path fill="#A3A3A3" d="M106.97363,210.06836c-0.09668-0.25195-0.22363-0.63379-0.13965-0.9873
			c0.0625-0.27441,0.27344-0.57324,0.67188-0.72559c0.57227-0.21875,1.13477-0.00488,1.39063,0.54688l1.21484-1.82715
			l0.19336,0.50391l-1.2002,1.76367l0.04004,0.10645l1.63574-0.62695l0.15918,0.41504l-3.73633,1.43066L106.97363,210.06836z
			 M108.77539,209.58984l-0.10156-0.2627c-0.19727-0.51563-0.56055-0.72949-0.99805-0.5625
			c-0.20703,0.08105-0.39063,0.22168-0.43555,0.50781c-0.03125,0.2041,0.03125,0.39941,0.09961,0.57813l0.09766,0.25195
			L108.77539,209.58984z"/>
		<path fill="#A3A3A3" d="M109.21484,205.99609c-0.0459-0.1543,0.04785-0.3252,0.20313-0.37109
			c0.15625-0.04492,0.32617,0.04883,0.37207,0.2041s-0.04785,0.32617-0.2041,0.37109
			C109.42969,206.24609,109.25977,206.15234,109.21484,205.99609z"/>
	</g>
	<g>
		<circle fill="none" cx="135.25" cy="198.37961" r="28.59473"/>
		<path fill="#A3A3A3" d="M112.20605,178.29785l2.69141,2.36035l0.72754-0.83057l0.31543,0.27686l-1.01953,1.16406l-3.00781-2.63672
			L112.20605,178.29785z"/>
		<path fill="#A3A3A3" d="M114.46289,175.96582c0.2959-0.27148,0.57617-0.46387,0.93262-0.47461
			c0.3877-0.01318,0.67969,0.19922,0.85059,0.38379c0.38184,0.41602,0.49902,1.06641-0.17285,1.68359l-0.28711,0.26465
			l1.17773,1.28125l-0.32617,0.2998l-2.70996-2.94629L114.46289,175.96582z M115.50195,177.51367l0.26953-0.24707
			c0.38867-0.35791,0.44434-0.76758,0.13184-1.10791c-0.43066-0.46826-0.90918-0.11084-1.12109,0.08447l-0.24316,0.22266
			L115.50195,177.51367z"/>
		<path fill="#A3A3A3" d="M119.65527,173.05664c-0.17383-0.03125-0.41797-0.04395-0.64063-0.00684
			c-0.22754,0.04102-0.46289,0.1333-0.65625,0.2666c-0.75977,0.5293-0.89453,1.53125-0.36621,2.29004
			c0.62109,0.8916,1.6582,0.83496,2.25879,0.4165c0.22266-0.1543,0.39453-0.36914,0.50586-0.57764
			c0.12109-0.22461,0.16895-0.44043,0.18652-0.54102l0.31543,0.45361c-0.18262,0.51514-0.52051,0.83887-0.76758,1.01025
			c-0.97461,0.67969-2.21484,0.44531-2.87695-0.50537c-0.68262-0.98096-0.45703-2.22168,0.5293-2.90771
			c0.19727-0.13721,0.59375-0.37695,1.19727-0.35059L119.65527,173.05664z"/>
	</g>
	<g>
		<circle fill="none" cx="183.01788" cy="44.24548" r="14.57799"/>
		
			<path fill="#A3A3A3" stroke="#A3A3A3" stroke-width="0.25" stroke-linecap="round" stroke-linejoin="round" stroke-miterlimit="10" d="
			M166.24805,35.74021l3.34863,1.72266l0.53027-1.03223l0.39258,0.20215l-0.74414,1.44727l-3.74121-1.92383L166.24805,35.74021z"/>
		
			<path fill="#A3A3A3" stroke="#A3A3A3" stroke-width="0.25" stroke-linecap="round" stroke-linejoin="round" stroke-miterlimit="10" d="
			M169.2168,32.07811l-1.04492,1.35742l0.98828,0.76074l1.01367-1.31641l0.34863,0.26953l-1.01465,1.31641l1.29199,0.99512
			l1.0459-1.35645l0.34961,0.26855l-1.33008,1.72559l-3.32715-2.5625l1.3291-1.72656L169.2168,32.07811z"/>
		
			<path fill="#A3A3A3" stroke="#A3A3A3" stroke-width="0.25" stroke-linecap="round" stroke-linejoin="round" stroke-miterlimit="10" d="
			M170.10156,30.52244l2.96387,1.70703l-1.1416-3.22363l0.39648-0.33105l1.54297,4.51465l-4.1582-2.33691L170.10156,30.52244z"/>
		
			<path fill="#A3A3A3" stroke="#A3A3A3" stroke-width="0.25" stroke-linecap="round" stroke-linejoin="round" stroke-miterlimit="10" d="
			M175.77051,27.31736l-1.52832,0.77832l0.56641,1.1123l1.4834-0.75488l0.2002,0.39258l-1.4834,0.75586l0.74023,1.45508
			l1.52832-0.77832l0.20117,0.39453l-1.94531,0.98926l-1.90625-3.74805l1.94336-0.98926L175.77051,27.31736z"/>
		
			<path fill="#A3A3A3" stroke="#A3A3A3" stroke-width="0.25" stroke-linecap="round" stroke-linejoin="round" stroke-miterlimit="10" d="
			M177.54785,26.24705l1.07031,3.60156l1.11035-0.33008l0.125,0.42285l-1.55664,0.46191l-1.19531-4.02441L177.54785,26.24705z"/>
		
			<path fill="#A3A3A3" stroke="#A3A3A3" stroke-width="0.25" stroke-linecap="round" stroke-linejoin="round" stroke-miterlimit="10" d="
			M182.82813,27.35643l1.97949,0.0918l-0.03027,0.66504l-1.97949-0.0918L182.82813,27.35643z"/>
		
			<path fill="#A3A3A3" stroke="#A3A3A3" stroke-width="0.25" stroke-linecap="round" stroke-linejoin="round" stroke-miterlimit="10" d="
			M190.83496,29.46482l1.5625,0.79395l-0.0459,0.08984c-0.21094,0.41602-0.5625,0.80273-0.96094,1.00391
			c-0.19043,0.09473-0.87695,0.4043-1.7373-0.0332c-1.11328-0.56543-1.51465-1.83594-0.96094-2.92676
			s1.82324-1.51465,2.94043-0.94629c0.36035,0.18262,0.73633,0.48633,0.95898,0.95313
			c0.10352,0.21387,0.17578,0.46289,0.20801,0.66406l-0.45215,0.12402c-0.03027-0.20703-0.08398-0.4043-0.15723-0.56738
			c-0.10547-0.23828-0.30176-0.5498-0.75098-0.77734c-0.9043-0.45996-1.88086-0.09961-2.32227,0.77148
			c-0.51953,1.02441,0.0332,1.95508,0.74219,2.31445c0.5,0.25391,1.06055,0.2207,1.46582-0.04688
			c0.12793-0.08398,0.29199-0.22852,0.42285-0.45801l-1.11328-0.56445L190.83496,29.46482z"/>
		
			<path fill="#A3A3A3" stroke="#A3A3A3" stroke-width="0.25" stroke-linecap="round" stroke-linejoin="round" stroke-miterlimit="10" d="
			M194.4873,33.36619l-1.30176-1.22754l-1.17969,0.51758l-0.375-0.35449l4.42773-1.87891l-1.65039,4.49707l-0.37598-0.35449
			L194.4873,33.36619z M194.65625,32.92088l0.64063-1.70898l-1.67676,0.73145L194.65625,32.92088z"/>
		
			<path fill="#A3A3A3" stroke="#A3A3A3" stroke-width="0.25" stroke-linecap="round" stroke-linejoin="round" stroke-miterlimit="10" d="
			M198.21289,33.93943l-3.08789,2.14941l-0.26758-0.38281l3.08887-2.15039l-0.58301-0.83691l0.36133-0.25293l1.43359,2.05859
			l-0.3623,0.25195L198.21289,33.93943z"/>
		
			<path fill="#A3A3A3" stroke="#A3A3A3" stroke-width="0.25" stroke-linecap="round" stroke-linejoin="round" stroke-miterlimit="10" d="
			M200.29883,37.9658l-0.68555-1.57031l-1.14258,0.5l0.66602,1.52246l-0.4043,0.17676l-0.66504-1.52344l-1.49512,0.65234
			l0.68555,1.57031l-0.4043,0.17578l-0.87109-1.99707l3.84961-1.68066l0.87109,1.99707L200.29883,37.9658z"/>
	</g>
	<g>
		<circle fill="none" cx="183.01788" cy="44.24548" r="13.74777"/>
		
			<path fill="#A3A3A3" stroke="#A3A3A3" stroke-width="0.25" stroke-linecap="round" stroke-linejoin="round" stroke-miterlimit="10" d="
			M175.6582,57.02537l-2.03613,3.40332l-0.37793-0.22607l2.03613-3.40381L175.6582,57.02537z"/>
		
			<path fill="#A3A3A3" stroke="#A3A3A3" stroke-width="0.25" stroke-linecap="round" stroke-linejoin="round" stroke-miterlimit="10" d="
			M175.52734,61.49021l1.29004-3.92285l1.92285,4.04102l0.95898-2.91748l0.41797,0.13721l-1.29297,3.93311l-1.92383-4.04004
			l-0.95508,2.90527L175.52734,61.49021z"/>
		
			<path fill="#A3A3A3" stroke="#A3A3A3" stroke-width="0.25" stroke-linecap="round" stroke-linejoin="round" stroke-miterlimit="10" d="
			M182.10938,58.97215c0.39844,0.02051,0.72852,0.08545,0.98242,0.33105c0.27832,0.26514,0.33105,0.61963,0.31836,0.86865
			c-0.0293,0.55859-0.41016,1.09229-1.3125,1.04541l-0.38574-0.021l-0.09082,1.72168l-0.43945-0.02295l0.20898-3.96143
			L182.10938,58.97215z M181.73438,60.78025l0.36133,0.01904c0.52344,0.02734,0.85156-0.21631,0.87598-0.6748
			c0.0332-0.62891-0.55176-0.71973-0.83691-0.73486l-0.32617-0.0166L181.73438,60.78025z"/>
		
			<path fill="#A3A3A3" stroke="#A3A3A3" stroke-width="0.25" stroke-linecap="round" stroke-linejoin="round" stroke-miterlimit="10" d="
			M185.21094,61.31834c0.06055,0.32715,0.12695,0.68359,0.48633,0.89063c0.18164,0.104,0.46777,0.14258,0.68359,0.10205
			c0.2168-0.04004,0.46875-0.17822,0.60156-0.34229c0.26172-0.32031,0.19531-0.67676,0.13477-1.00488l-0.44531-2.39209
			l0.43359-0.08057l0.46582,2.50977c0.06152,0.32666,0.08496,0.64941-0.07129,0.98145
			c-0.17383,0.36523-0.5459,0.64648-1.04297,0.7373c-0.49609,0.09229-0.94434-0.03564-1.23828-0.31396
			c-0.26465-0.25391-0.3584-0.5625-0.41895-0.88965l-0.4668-2.50977l0.43262-0.08057L185.21094,61.31834z"/>
		
			<path fill="#A3A3A3" stroke="#A3A3A3" stroke-width="0.25" stroke-linecap="round" stroke-linejoin="round" stroke-miterlimit="10" d="
			M189.36719,58.03416l1.43945,3.24072l-0.40039,0.1792l-1.44141-3.24023l-0.87891,0.38965l-0.16992-0.37891l2.16016-0.96094
			l0.16992,0.37988L189.36719,58.03416z"/>
	</g>
	<g>
		<circle fill="none" cx="134.71875" cy="43.99998" r="14.57799"/>
		
			<path fill="#A3A3A3" stroke="#A3A3A3" stroke-width="0.25" stroke-linecap="round" stroke-linejoin="round" stroke-miterlimit="10" d="
			M116.42773,42.61033l3.75,0.22412l-0.02832,0.46484l-3.74902-0.2251l-0.06152,1.01758l-0.44043-0.02588l0.15039-2.50049
			l0.43945,0.02734L116.42773,42.61033z"/>
		
			<path fill="#A3A3A3" stroke="#A3A3A3" stroke-width="0.25" stroke-linecap="round" stroke-linejoin="round" stroke-miterlimit="10" d="
			M116.48047,39.45945c0.07227-0.27295,0.20117-0.67676,0.48828-0.9248c0.22266-0.19434,0.58887-0.31836,1.02148-0.20215
			c0.61914,0.1665,0.9668,0.69629,0.84375,1.32178l2.16016-0.80127l-0.14746,0.54688l-2.1084,0.75781l-0.03125,0.11572
			l1.77734,0.47754l-0.12109,0.4502l-4.05859-1.09131L116.48047,39.45945z M118.30566,40.16551l0.07715-0.28613
			c0.15039-0.55908-0.02734-0.9668-0.50195-1.09375c-0.22559-0.06055-0.46875-0.0542-0.68359,0.16309
			c-0.15234,0.15381-0.21875,0.35742-0.27148,0.55273l-0.07422,0.27393L118.30566,40.16551z"/>
		
			<path fill="#A3A3A3" stroke="#A3A3A3" stroke-width="0.25" stroke-linecap="round" stroke-linejoin="round" stroke-miterlimit="10" d="
			M117.72461,35.97215l3.81836,1.74365l-0.19336,0.42383l-3.81836-1.74414L117.72461,35.97215z"/>
		
			<path fill="#A3A3A3" stroke="#A3A3A3" stroke-width="0.25" stroke-linecap="round" stroke-linejoin="round" stroke-miterlimit="10" d="
			M121.54688,33.71385l1.04883-1.40186l0.08105,0.06104c0.37402,0.2793,0.69336,0.69238,0.82324,1.11914
			c0.06055,0.20264,0.24512,0.93213-0.33203,1.7041c-0.74805,0.99805-2.06836,1.17432-3.0459,0.44238
			c-0.97949-0.7334-1.17871-2.05518-0.42676-3.05859c0.24219-0.32275,0.60547-0.64063,1.10352-0.78027
			c0.22852-0.06299,0.48633-0.09082,0.68945-0.08887l0.04492,0.46631c-0.20898-0.00635-0.41211,0.01416-0.58594,0.05664
			c-0.25195,0.06396-0.59277,0.20166-0.89453,0.60547c-0.6084,0.81201-0.4209,1.83398,0.36035,2.41992
			c0.91895,0.68701,1.93066,0.30322,2.40527-0.33301c0.33594-0.44775,0.40039-1.00635,0.20605-1.45215
			c-0.06055-0.13916-0.17285-0.3252-0.37793-0.49463l-0.74707,0.99902L121.54688,33.71385z"/>
		
			<path fill="#A3A3A3" stroke="#A3A3A3" stroke-width="0.25" stroke-linecap="round" stroke-linejoin="round" stroke-miterlimit="10" d="
			M125.375,30.13182l1.43262-1.00928l0.05762,0.08252c0.26953,0.38135,0.44727,0.87354,0.4375,1.32031
			c-0.00586,0.21094-0.05469,0.96387-0.84375,1.51904c-1.01953,0.71777-2.33203,0.47754-3.03516-0.52197
			c-0.70508-1-0.48438-2.31934,0.54102-3.04199c0.33008-0.23193,0.77441-0.42285,1.29102-0.40039
			c0.23828,0.00879,0.49121,0.0625,0.68359,0.12695l-0.10156,0.4585c-0.19629-0.0708-0.39648-0.11475-0.57617-0.12744
			c-0.25879-0.01709-0.625,0.00977-1.03809,0.2998c-0.8291,0.58447-0.96777,1.61475-0.4043,2.41406
			c0.66016,0.9375,1.74121,0.88574,2.3916,0.42725c0.45801-0.32324,0.69141-0.83398,0.64453-1.31787
			c-0.01563-0.15137-0.06445-0.36377-0.20605-0.5874l-1.02051,0.71875L125.375,30.13182z"/>
		
			<path fill="#A3A3A3" stroke="#A3A3A3" stroke-width="0.25" stroke-linecap="round" stroke-linejoin="round" stroke-miterlimit="10" d="
			M129.48633,26.3491l-1.60742,0.59326l0.43164,1.16895l1.56055-0.57422l0.15234,0.4126l-1.56055,0.5752l0.56641,1.52979
			l1.60547-0.59277l0.15234,0.41309l-2.04297,0.75488l-1.45313-3.93945l2.04298-0.75537L129.48633,26.3491z"/>
		
			<path fill="#A3A3A3" stroke="#A3A3A3" stroke-width="0.25" stroke-linecap="round" stroke-linejoin="round" stroke-miterlimit="10" d="
			M131.68945,25.43064c0.28125-0.04004,0.70117-0.08105,1.04297,0.08594c0.26563,0.12793,0.52344,0.41553,0.58594,0.85742
			c0.0918,0.63574-0.25977,1.16406-0.88281,1.29639l1.58691,1.66846l-0.56152,0.08105l-1.52539-1.63916l-0.11719,0.01709
			l0.25977,1.81934l-0.46094,0.06641l-0.59375-4.15771L131.68945,25.43064z M131.75977,27.3867l0.29297-0.04199
			c0.57227-0.08203,0.87695-0.40527,0.80664-0.8916c-0.0332-0.22998-0.13477-0.45166-0.41797-0.56396
			c-0.20117-0.08008-0.41602-0.06152-0.61523-0.0332l-0.2793,0.03955L131.75977,27.3867z"/>
		
			<path fill="#A3A3A3" stroke="#A3A3A3" stroke-width="0.25" stroke-linecap="round" stroke-linejoin="round" stroke-miterlimit="10" d="
			M137.4541,27.3325l1.93066,0.43652l-0.14648,0.64893l-1.93066-0.43604L137.4541,27.3325z"/>
		
			<path fill="#A3A3A3" stroke="#A3A3A3" stroke-width="0.25" stroke-linecap="round" stroke-linejoin="round" stroke-miterlimit="10" d="
			M144.64258,27.83836l-1.125,3.14502l3.14453-1.78174l-1.15332,3.39844l2.94043-1.67041l0.40039,0.3252l-4.1582,2.32178
			l1.16309-3.39111l-3.14941,1.77832l1.53711-4.45117L144.64258,27.83836z"/>
		
			<path fill="#A3A3A3" stroke="#A3A3A3" stroke-width="0.25" stroke-linecap="round" stroke-linejoin="round" stroke-miterlimit="10" d="
			M148.01563,33.67039c1.08398-0.63135,2.36914-0.25244,2.98047,0.7915c0.61133,1.04346,0.30859,2.35107-0.77246,2.98291
			c-1.07715,0.63037-2.36621,0.26025-2.97949-0.78955C146.63086,35.60643,146.93945,34.30076,148.01563,33.67039z
			 M148.25781,34.08445c-0.83203,0.48682-1.11035,1.53223-0.63281,2.34814c0.47656,0.81641,1.52539,1.08643,2.35742,0.59912
			c0.83203-0.48584,1.11035-1.53223,0.63281-2.34814C150.13867,33.86814,149.08984,33.59764,148.25781,34.08445z"/>
		
			<path fill="#A3A3A3" stroke="#A3A3A3" stroke-width="0.25" stroke-linecap="round" stroke-linejoin="round" stroke-miterlimit="10" d="
			M152.79297,38.86277c0.07129,0.27441,0.15918,0.68896,0.03125,1.04639c-0.09766,0.27881-0.35449,0.56787-0.78711,0.67969
			c-0.62207,0.16211-1.18555-0.12793-1.3877-0.73291l-1.48145,1.76514l-0.14258-0.5498l1.45898-1.69922l-0.0293-0.11523
			l-1.78125,0.46143l-0.11719-0.45117l4.06641-1.05566L152.79297,38.86277z M150.85645,39.15232l0.0752,0.28564
			c0.14453,0.56104,0.5,0.82666,0.97656,0.70361c0.22461-0.05859,0.43359-0.18506,0.51367-0.479
			c0.05566-0.20947,0.01367-0.41943-0.03711-0.61475l-0.07031-0.27441L150.85645,39.15232z"/>
		
			<path fill="#A3A3A3" stroke="#A3A3A3" stroke-width="0.25" stroke-linecap="round" stroke-linejoin="round" stroke-miterlimit="10" d="
			M153.47168,42.22605l0.0127,0.85693c0.00781,0.42236-0.02734,1.02148-0.4668,1.55859
			c-0.31543,0.38916-0.8457,0.73193-1.60156,0.74414c-0.88281,0.01318-1.36133-0.41357-1.625-0.71289
			c-0.33398-0.37842-0.49805-0.7793-0.50977-1.52881l-0.01367-0.85107L153.47168,42.22605z M149.7168,42.75291l0.00586,0.40918
			c0.00586,0.33398,0.05078,0.79346,0.39746,1.19727c0.26953,0.31104,0.68945,0.55615,1.28809,0.54688
			c1.00781-0.01514,1.65234-0.73193,1.63477-1.79688l-0.00586-0.40869L149.7168,42.75291z"/>
	</g>
	<g>
		<g>
			
				<path fill="#A3A3A3" stroke="#A3A3A3" stroke-width="0.25" stroke-linecap="round" stroke-linejoin="round" stroke-miterlimit="10" d="
				M127.11914,56.91307l-2.23633,3.55322l-0.39453-0.24756l2.2373-3.55371L127.11914,56.91307z"/>
			
				<path fill="#A3A3A3" stroke="#A3A3A3" stroke-width="0.25" stroke-linecap="round" stroke-linejoin="round" stroke-miterlimit="10" d="
				M126.86719,61.62693l1.41992-4.14551l1.98828,4.3125l1.05664-3.08301l0.44141,0.15088l-1.42383,4.15869l-1.98828-4.31348
				l-1.05273,3.07178L126.86719,61.62693z"/>
			
				<path fill="#A3A3A3" stroke="#A3A3A3" stroke-width="0.25" stroke-linecap="round" stroke-linejoin="round" stroke-miterlimit="10" d="
				M133.84766,59.02781c0.42188,0.02393,0.77148,0.09277,1.04102,0.354c0.29395,0.28076,0.34961,0.65674,0.33398,0.92139
				c-0.03125,0.59131-0.43555,1.15527-1.39258,1.104l-0.4082-0.02246l-0.10059,1.82471l-0.46582-0.02588l0.23047-4.19824
				L133.84766,59.02781z M133.44531,60.94383l0.38477,0.021c0.55371,0.02979,0.90234-0.22852,0.92871-0.71289
				c0.03711-0.66748-0.58301-0.76416-0.88477-0.78076l-0.34668-0.01904L133.44531,60.94383z"/>
			
				<path fill="#A3A3A3" stroke="#A3A3A3" stroke-width="0.25" stroke-linecap="round" stroke-linejoin="round" stroke-miterlimit="10" d="
				M137.1543,61.50682c0.06836,0.34668,0.14258,0.72363,0.52344,0.93799c0.19434,0.10791,0.49609,0.146,0.72461,0.10059
				c0.22949-0.04443,0.49609-0.19238,0.63379-0.36768c0.27246-0.34131,0.19922-0.71777,0.13184-1.06396l-0.49414-2.52539
				l0.45703-0.08936l0.51855,2.64893c0.06738,0.34619,0.0957,0.68652-0.06641,1.03857
				c-0.18066,0.38867-0.57129,0.68896-1.0957,0.7915c-0.52441,0.10205-0.99902-0.02881-1.3125-0.3208
				c-0.28223-0.26465-0.38574-0.59131-0.45215-0.93652l-0.51758-2.64941l0.45605-0.08936L137.1543,61.50682z"/>
			
				<path fill="#A3A3A3" stroke="#A3A3A3" stroke-width="0.25" stroke-linecap="round" stroke-linejoin="round" stroke-miterlimit="10" d="
				M141.47949,57.96434l1.60059,3.40088l-0.4209,0.19873l-1.60059-3.3999l-0.92383,0.43408l-0.1875-0.39893l2.26758-1.06738
				l0.1875,0.39893L141.47949,57.96434z"/>
		</g>
	</g>
	<g>
		<rect x="132.56422" y="122.19772" fill="#A3A3A3" width="5.01611" height="1.71924"/>
		<path fill="#A3A3A3" d="M135.05702,108.19585c-6.14948,0-11.13468,2.72119-11.13468,6.07809
			c0,3.35685,4.98521,6.07804,11.13468,6.07804c6.14969,0,11.13489-2.72119,11.13489-6.07804
			C146.19191,110.91705,141.20671,108.19585,135.05702,108.19585z M129.2065,116.41792c-1.22041,0-2.20962-0.9893-2.20962-2.2097
			s0.9892-2.20975,2.20962-2.20975c1.2204,0,2.20979,0.98935,2.20979,2.20975S130.4269,116.41792,129.2065,116.41792z
			 M140.27048,116.41792c-1.2204,0-2.20961-0.9893-2.20961-2.2097s0.98921-2.20975,2.20961-2.20975
			c1.22041,0,2.20981,0.98935,2.20981,2.20975S141.49089,116.41792,140.27048,116.41792z"/>
		<path fill="#A3A3A3" d="M135.07732,94.31524c-12.38563,0-22.42615,10.04063-22.42615,22.42629
			s10.04052,22.42632,22.42615,22.42632c12.38582,0,22.42633-10.04062,22.42633-22.42631S147.46313,94.31524,135.07732,94.31524z
			 M148.24634,118.94115c-1.22729,2.96485-3.8934,5.38252-7.31848,6.69302v5.45815H129.161v-5.45629
			c-3.42725-1.31006-6.09552-3.72866-7.32361-6.69489h-2.76929v-6.53824h2.46582c1.54653-4.93745,7.00793-8.58615,13.50797-8.58615
			c6.50002,0,11.96141,3.6487,13.50815,8.58615h2.49121v6.53824C151.04124,118.94115,148.24634,118.94115,148.24634,118.94115z"/>
	</g>
</g>
<g>
	
		<path fill="#A3A3A3" stroke="#A3A3A3" stroke-width="0.25" stroke-linecap="round" stroke-linejoin="round" stroke-miterlimit="10" d="
		M61.68125,339.62122l-1.55762-4.20898l3.13867,2.30371l-0.30078-3.90039l2.74023,3.55273l-0.41699,0.2334l-1.77441-2.35352
		l0.26758,3.40039l-2.74414-2.01367l1.06445,2.75293L61.68125,339.62122z"/>
	
		<path fill="#A3A3A3" stroke="#A3A3A3" stroke-width="0.25" stroke-linecap="round" stroke-linejoin="round" stroke-miterlimit="10" d="
		M66.10215,335.07727c-0.18945-1.24023,0.63672-2.2959,1.83203-2.47949c1.19629-0.18164,2.30078,0.5791,2.49023,1.81934
		c0.1875,1.2334-0.63086,2.29395-1.83398,2.47852C67.38926,337.07922,66.28965,336.31067,66.10215,335.07727z M66.57481,335.005
		c0.14648,0.95215,1.01563,1.59668,1.94922,1.4541c0.93555-0.1416,1.57227-1.01758,1.42676-1.96973
		c-0.14551-0.95313-1.01465-1.59766-1.9502-1.4541C67.06699,333.17688,66.43027,334.05188,66.57481,335.005z"/>
	
		<path fill="#A3A3A3" stroke="#A3A3A3" stroke-width="0.25" stroke-linecap="round" stroke-linejoin="round" stroke-miterlimit="10" d="
		M72.32969,335.05676c-0.05566,0.34863-0.11426,0.72852,0.1709,1.05957c0.14648,0.1709,0.41797,0.30859,0.64844,0.34473
		s0.53125-0.01172,0.72168-0.12891c0.37402-0.22852,0.43359-0.6084,0.48828-0.95605l0.40137-2.54688l0.45898,0.07227
		l-0.41895,2.6709c-0.05469,0.34961-0.14551,0.67871-0.41797,0.95508c-0.30371,0.30273-0.77246,0.45313-1.30273,0.36914
		c-0.52832-0.08301-0.93066-0.36914-1.12598-0.75c-0.1748-0.34766-0.15918-0.68945-0.10449-1.03711l0.41895-2.67188l0.46191,0.07227
		L72.32969,335.05676z"/>
	
		<path fill="#A3A3A3" stroke="#A3A3A3" stroke-width="0.25" stroke-linecap="round" stroke-linejoin="round" stroke-miterlimit="10" d="
		M78.09824,334.38977l-1.45508,3.47266l-0.43066-0.18164l1.45605-3.47168l-0.94238-0.39453l0.1709-0.40723l2.31445,0.9707
		l-0.16992,0.40625L78.09824,334.38977z"/>
	
		<path fill="#A3A3A3" stroke="#A3A3A3" stroke-width="0.25" stroke-linecap="round" stroke-linejoin="round" stroke-miterlimit="10" d="
		M80.06895,336.84094l1.73438,1.28027l1.01465-1.37305l0.37598,0.27637l-2.49707,3.38184l-0.37598-0.27734l1.2207-1.65234
		l-1.73438-1.28125l-1.2207,1.65332l-0.375-0.27637l2.49609-3.38281l0.37695,0.27734L80.06895,336.84094z"/>
</g>
</svg>
