<?xml version="1.0" encoding="utf-8"?>
<!-- Generator: Adobe Illustrator 24.0.2, SVG Export Plug-In . SVG Version: 6.00 Build 0)  -->
<svg version="1.0" id="Layer_1" xmlns="http://www.w3.org/2000/svg" xmlns:xlink="http://www.w3.org/1999/xlink" x="0px" y="0px"
	 width="270px" height="380px" viewBox="0 0 270 380" enable-background="new 0 0 270 380" xml:space="preserve">
<g id="_x31_">
	<rect y="-0.00001" fill="none" width="270" height="380"/>
	<g>
		<circle fill="#262424" stroke="#606266" stroke-width="0.75" stroke-miterlimit="10" cx="83.5" cy="145.5" r="34.93385"/>
		
			<line fill="none" stroke="#606266" stroke-width="0.75" stroke-miterlimit="10" x1="83.5" y1="145.5" x2="58.79808" y2="170.20192"/>
		
			<line fill="none" stroke="#606266" stroke-width="0.5" stroke-miterlimit="10" x1="83.5" y1="145.5" x2="50.8044" y2="157.82994"/>
		
			<line fill="none" stroke="#606266" stroke-width="0.5" stroke-miterlimit="10" x1="83.5" y1="145.5" x2="76.40031" y2="111.28811"/>
		
			<line fill="none" stroke="#606266" stroke-width="0.5" stroke-miterlimit="10" x1="83.5" y1="145.5" x2="90.59969" y2="111.28811"/>
		
			<line fill="none" stroke="#606266" stroke-width="0.5" stroke-miterlimit="10" x1="83.5" y1="145.5" x2="48.66492" y2="143.03194"/>
		
			<line fill="none" stroke="#606266" stroke-width="0.5" stroke-miterlimit="10" x1="83.5" y1="145.5" x2="52.46234" y2="129.33446"/>
		
			<line fill="none" stroke="#606266" stroke-width="0.5" stroke-miterlimit="10" x1="83.5" y1="145.5" x2="116.19561" y2="157.82996"/>
		
			<line fill="none" stroke="#606266" stroke-width="0.75" stroke-miterlimit="10" x1="83.5" y1="145.5" x2="108.20195" y2="170.20195"/>
		<circle fill="#262424" stroke="#606266" stroke-width="0.75" stroke-miterlimit="10" cx="83.5" cy="145.5" r="23.5"/>
	</g>
	<g>
		<circle fill="#262424" stroke="#606266" stroke-width="0.5" stroke-miterlimit="10" cx="186.44551" cy="145.5" r="34.93385"/>
		<circle fill="#262424" stroke="#606266" stroke-width="0.75" stroke-miterlimit="10" cx="186.44551" cy="145.5" r="34.93385"/>
		
			<line fill="none" stroke="#606266" stroke-width="0.5" stroke-miterlimit="10" x1="186.44551" y1="145.5" x2="221.37935" y2="143.02493"/>
		
			<line fill="none" stroke="#606266" stroke-width="0.5" stroke-miterlimit="10" x1="186.44551" y1="145.5" x2="217.37407" y2="129.0912"/>
		
			<line fill="none" stroke="#606266" stroke-width="0.5" stroke-miterlimit="10" x1="186.44551" y1="145.5" x2="154.08533" y2="157.70346"/>
		
			<line fill="none" stroke="#606266" stroke-width="0.5" stroke-miterlimit="10" x1="186.44551" y1="145.5" x2="179.34586" y2="111.28825"/>
		
			<line fill="none" stroke="#606266" stroke-width="0.5" stroke-miterlimit="10" x1="186.44551" y1="145.5" x2="193.54517" y2="111.28825"/>
		
			<line fill="none" stroke="#606266" stroke-width="0.5" stroke-miterlimit="10" x1="186.44551" y1="145.5" x2="218.80569" y2="157.70346"/>
		
			<line fill="none" stroke="#606266" stroke-width="0.75" stroke-miterlimit="10" x1="186.44551" y1="145.5" x2="161.74948" y2="170.19603"/>
		
			<line fill="none" stroke="#606266" stroke-width="0.75" stroke-miterlimit="10" x1="186.44551" y1="145.5" x2="211.14154" y2="170.19603"/>
		<circle fill="#262424" stroke="#606266" stroke-width="0.75" stroke-miterlimit="10" cx="186.44551" cy="145.5" r="23.5"/>
	</g>
	<g>
		<circle fill="#262424" stroke="#606266" stroke-width="0.5" stroke-miterlimit="10" cx="135" cy="198.5" r="34.93385"/>
		
			<line fill="none" stroke="#606266" stroke-width="0.75" stroke-miterlimit="10" x1="135" y1="198.5" x2="110.59309" y2="222.90691"/>
		
			<line fill="none" stroke="#606266" stroke-width="0.5" stroke-miterlimit="10" x1="135" y1="198.5" x2="102.63982" y2="210.70346"/>
		
			<line fill="none" stroke="#606266" stroke-width="0.5" stroke-miterlimit="10" x1="135" y1="198.5" x2="127.90034" y2="164.28827"/>
		
			<line fill="none" stroke="#606266" stroke-width="0.5" stroke-miterlimit="10" x1="135" y1="198.5" x2="142.09966" y2="164.28824"/>
		
			<line fill="none" stroke="#606266" stroke-width="0.5" stroke-miterlimit="10" x1="135" y1="198.5" x2="167.69551" y2="210.82991"/>
		
			<line fill="none" stroke="#606266" stroke-width="0.75" stroke-miterlimit="10" x1="135" y1="198.5" x2="159.70186" y2="223.20186"/>
		<circle fill="#262424" stroke="#606266" stroke-width="0.75" stroke-miterlimit="10" cx="135" cy="198.5" r="23.5"/>
	</g>
	<g>
		<circle fill="#262424" stroke="#606266" stroke-width="0.5" stroke-miterlimit="10" cx="135" cy="283.5" r="34.93385"/>
		
			<line fill="none" stroke="#606266" stroke-width="0.75" stroke-miterlimit="10" x1="135" y1="283.5" x2="110.30396" y2="308.19604"/>
		
			<line fill="none" stroke="#606266" stroke-width="0.75" stroke-miterlimit="10" x1="135" y1="283.5" x2="159.69603" y2="308.19604"/>
		<line fill="none" stroke="#606266" stroke-width="0.5" stroke-miterlimit="10" x1="135" y1="248.56616" x2="135" y2="283.5"/>
		<circle fill="#262424" stroke="#606266" stroke-width="0.75" stroke-miterlimit="10" cx="135" cy="283.5" r="23.5"/>
	</g>
	<g>
		<polyline fill="none" stroke="#A3A3A3" stroke-width="0.75" stroke-linecap="square" points="59.5,140.09242 54.76602,140.09242 
			54.76602,135.84044 53.40902,135.84044 53.40902,140.09242 		"/>
	</g>
	<g>
		<polyline fill="none" stroke="#A3A3A3" stroke-width="0.75" stroke-linecap="square" points="108.16483,159.00717 
			107.13184,159.00717 107.13184,163.25916 105.51349,163.25916 105.51349,159.00717 104.4805,159.00717 104.4805,163.25916 		"/>
		<polyline fill="none" stroke="#A3A3A3" stroke-width="0.75" stroke-linecap="square" points="108.16483,159.00717 
			108.16483,163.25916 110.60181,163.25916 		"/>
	</g>
	<g>
		<polyline fill="none" stroke="#A3A3A3" stroke-width="0.75" stroke-linecap="square" points="80.7644,118.22253 
			80.7644,113.97055 83.7814,113.97055 83.7814,118.22253 		"/>
	</g>
	<g>
		<circle fill="none" cx="71" cy="351" r="14.578"/>
		
			<path fill="#A3A3A3" stroke="#A3A3A3" stroke-width="0.25" stroke-linecap="round" stroke-linejoin="round" stroke-miterlimit="10" d="
			M53.98047,345.19727c-0.125,0.02344-0.27246,0.07861-0.37109,0.14893c-0.08398,0.06152-0.20508,0.18311-0.27148,0.41211
			c-0.11621,0.39941,0.05078,0.74902,0.42578,0.85938c0.1582,0.04541,0.25977,0.02979,0.39453-0.0498
			c0.15625-0.08545,0.26758-0.2168,0.37695-0.34912l0.2832-0.33838c0.16992-0.20557,0.34375-0.39063,0.56152-0.51221
			c0.26563-0.14453,0.52637-0.16016,0.81641-0.07715c0.74414,0.21729,1.0791,0.91113,0.86816,1.6377
			c-0.07715,0.2666-0.22754,0.5835-0.58203,0.78125c-0.25,0.14307-0.56445,0.18359-0.82227,0.16846l0.00586-0.47168
			c0.2207,0.03125,0.42969-0.01221,0.58398-0.0918c0.22656-0.12451,0.33398-0.31006,0.39453-0.51611
			c0.15918-0.5498-0.1582-0.92383-0.56445-1.04248c-0.18164-0.05225-0.35352-0.04395-0.5293,0.06152
			c-0.14258,0.08447-0.25977,0.22021-0.41797,0.4043l-0.27539,0.31299c-0.11914,0.13623-0.26172,0.31152-0.49023,0.44189
			c-0.21973,0.12598-0.4375,0.17432-0.74023,0.08643c-0.62305-0.18164-0.90039-0.78027-0.71094-1.43408
			c0.07227-0.24756,0.17773-0.43262,0.37012-0.59473c0.15625-0.13037,0.36035-0.22314,0.56152-0.26221L53.98047,345.19727z"/>
		
			<path fill="#A3A3A3" stroke="#A3A3A3" stroke-width="0.25" stroke-linecap="round" stroke-linejoin="round" stroke-miterlimit="10" d="
			M59.03906,342.00928c0.00781,0.21289,0.00879,0.71094-0.3457,1.27637c-0.64063,1.02539-1.94336,1.36328-3,0.70313
			c-1.06348-0.66406-1.32617-1.97949-0.68555-3.00488c0.6377-1.02002,1.9375-1.36768,3.00098-0.70264
			c0.65137,0.40723,0.87402,0.95459,0.96387,1.29932l0.86523-0.18604l-0.32031,0.5127L59.03906,342.00928z M58.50586,341.68359
			c-0.06055-0.22314-0.22656-0.66895-0.75-0.99658c-0.81836-0.51123-1.87695-0.26514-2.37402,0.53027
			c-0.50098,0.80078-0.25293,1.85498,0.56543,2.36572c0.81641,0.51074,1.87305,0.271,2.37305-0.53076
			c0.13965-0.22363,0.26758-0.54639,0.25879-0.93701l-1.4248,0.30566l0.32031-0.51172L58.50586,341.68359z"/>
		
			<path fill="#A3A3A3" stroke="#A3A3A3" stroke-width="0.25" stroke-linecap="round" stroke-linejoin="round" stroke-miterlimit="10" d="
			M59.62695,339.38086c0.23047,0.2666,0.48242,0.55664,0.91992,0.55322c0.22266-0.00146,0.50391-0.12012,0.67969-0.27197
			c0.17578-0.15332,0.33398-0.41357,0.36719-0.63379c0.06641-0.43311-0.18359-0.72314-0.41406-0.98975l-1.68555-1.94678
			l0.35352-0.3042l1.76563,2.0415c0.23145,0.26758,0.42383,0.54785,0.45898,0.93457
			c0.03613,0.42676-0.15234,0.88184-0.55762,1.23047c-0.40332,0.35059-0.88184,0.47266-1.29883,0.37598
			c-0.37695-0.09033-0.62793-0.32275-0.8584-0.58887l-1.7666-2.04248l0.35254-0.30518L59.62695,339.38086z"/>
		
			<path fill="#A3A3A3" stroke="#A3A3A3" stroke-width="0.25" stroke-linecap="round" stroke-linejoin="round" stroke-miterlimit="10" d="
			M65.00195,336.35498l-1.61328,0.7749l0.05957,1.28564l-0.46582,0.22314l-0.16211-4.80469l3.60156,3.15186l-0.46484,0.22412
			L65.00195,336.35498z M64.64648,336.03662l-1.36426-1.20947l0.08105,1.82666L64.64648,336.03662z"/>
		
			<path fill="#A3A3A3" stroke="#A3A3A3" stroke-width="0.25" stroke-linecap="round" stroke-linejoin="round" stroke-miterlimit="10" d="
			M66.78027,332.66455c0.27734-0.05762,0.69434-0.125,1.04785,0.01953c0.27344,0.11133,0.54883,0.38184,0.63867,0.82031
			c0.13086,0.62842-0.18555,1.17725-0.7998,1.3501l1.69043,1.56592l-0.55469,0.11621l-1.62793-1.54102l-0.11621,0.0249
			l0.37402,1.80029l-0.45605,0.09473l-0.85547-4.11426L66.78027,332.66455z M66.97266,334.6123l0.29102-0.06006
			c0.56738-0.11816,0.84961-0.45947,0.75-0.94043c-0.04785-0.229-0.16309-0.44336-0.45313-0.53662
			c-0.20703-0.06689-0.41992-0.03564-0.61621,0.00586l-0.27734,0.05762L66.97266,334.6123z"/>
		
			<path fill="#A3A3A3" stroke="#A3A3A3" stroke-width="0.25" stroke-linecap="round" stroke-linejoin="round" stroke-miterlimit="10" d="
			M72.25488,332.63037l-1.71191-0.00244l-0.00195,1.24756l1.66211,0.00098v0.44092l-1.66211-0.00195l-0.00195,1.63037
			l1.71094,0.00146v0.44189l-2.17773-0.00391l0.00488-4.19824l2.17871,0.00342L72.25488,332.63037z"/>
		
			<path fill="#A3A3A3" stroke="#A3A3A3" stroke-width="0.25" stroke-linecap="round" stroke-linejoin="round" stroke-miterlimit="10" d="
			M76.06055,334.88623l1.85059,0.70605l-0.2373,0.62256l-1.84961-0.70605L76.06055,334.88623z"/>
		
			<path fill="#A3A3A3" stroke="#A3A3A3" stroke-width="0.25" stroke-linecap="round" stroke-linejoin="round" stroke-miterlimit="10" d="
			M83.65527,338.2251c0.03418-0.12207,0.0498-0.27881,0.03027-0.39795c-0.01758-0.10107-0.07422-0.26416-0.25098-0.42529
			c-0.30762-0.2793-0.69531-0.28418-0.95801,0.00488c-0.11035,0.12109-0.1416,0.22119-0.12891,0.37646
			c0.00781,0.17725,0.07813,0.33447,0.14648,0.4917l0.17969,0.40186c0.10938,0.24414,0.20117,0.48145,0.21289,0.73047
			c0.01367,0.30176-0.08594,0.54248-0.29004,0.76563c-0.52051,0.57227-1.29199,0.56836-1.85059,0.05957
			c-0.20508-0.18604-0.42285-0.46143-0.44531-0.86475c-0.01855-0.28955,0.08301-0.58838,0.21094-0.81201l0.41992,0.21143
			c-0.125,0.18408-0.17773,0.39111-0.1748,0.56494c0.0127,0.25879,0.13184,0.43555,0.29004,0.5791
			c0.42383,0.38672,0.90039,0.26563,1.18359-0.0459c0.12695-0.14014,0.19531-0.29932,0.17773-0.50342
			c-0.0127-0.16406-0.08398-0.33008-0.17773-0.55322l-0.16016-0.38379c-0.07031-0.16699-0.16602-0.37207-0.18164-0.63379
			c-0.0166-0.25293,0.03516-0.46924,0.24805-0.70215c0.43555-0.48047,1.0957-0.46631,1.59863-0.0083
			c0.19141,0.1748,0.31152,0.35107,0.37109,0.59375c0.0498,0.19775,0.04199,0.42041-0.01074,0.62012L83.65527,338.2251z"/>
		
			<path fill="#A3A3A3" stroke="#A3A3A3" stroke-width="0.25" stroke-linecap="round" stroke-linejoin="round" stroke-miterlimit="10" d="
			M84.59375,342.93506l-0.99805-1.48389l-1.2627,0.24316l-0.28809-0.42871l4.73047-0.85254l-2.60059,4.01855l-0.28809-0.42773
			L84.59375,342.93506z M84.8584,342.5376l1.00195-1.52295l-1.7959,0.34229L84.8584,342.5376z"/>
		
			<path fill="#A3A3A3" stroke="#A3A3A3" stroke-width="0.25" stroke-linecap="round" stroke-linejoin="round" stroke-miterlimit="10" d="
			M88.34375,343.34961l-2.71484,1.94727l3.59961,0.32275l-2.88281,2.13867l3.36914,0.29932l0.14453,0.49609l-4.74023-0.45703
			l2.88477-2.12744l-3.60156-0.32861l3.79688-2.7876L88.34375,343.34961z"/>
	</g>
	<g>
		<circle fill="none" cx="199.5" cy="351.03378" r="14.578"/>
		
			<path fill="#A3A3A3" stroke="#A3A3A3" stroke-width="0.25" stroke-linecap="round" stroke-linejoin="round" stroke-miterlimit="10" d="
			M185.26465,341.50635l1.30762-1.71436l-1.35938-1.03662l0.2832-0.37207l3.3457,2.55078l-0.2832,0.37158l-1.63477-1.24707
			l-1.30762,1.71582l1.63574,1.24707l-0.2832,0.37158l-3.34668-2.55029l0.2832-0.37207L185.26465,341.50635z"/>
		
			<path fill="#A3A3A3" stroke="#A3A3A3" stroke-width="0.25" stroke-linecap="round" stroke-linejoin="round" stroke-miterlimit="10" d="
			M190.68262,337.89941l-1.4248,1.08496l0.31641,1.24805l-0.41113,0.31299l-1.12793-4.67725l4.16797,2.36426l-0.41211,0.31299
			L190.68262,337.89941z M190.26953,337.65967l-1.58105-0.9126l0.44824,1.7749L190.26953,337.65967z"/>
		
			<path fill="#A3A3A3" stroke="#A3A3A3" stroke-width="0.25" stroke-linecap="round" stroke-linejoin="round" stroke-miterlimit="10" d="
			M191.65527,333.93018c0.25977-0.11426,0.6543-0.26514,1.02832-0.19531c0.29102,0.05176,0.61523,0.26074,0.79395,0.67139
			c0.25684,0.58789,0.05957,1.18945-0.50586,1.48389l1.97461,1.18652l-0.51953,0.22559l-1.90723-1.17334l-0.10938,0.04834
			l0.73535,1.68555l-0.42676,0.18652l-1.68066-3.84961L191.65527,333.93018z M192.24414,335.79688l0.27051-0.11914
			c0.53125-0.23145,0.7373-0.62402,0.54102-1.07471c-0.09277-0.21338-0.25-0.39844-0.55176-0.43115
			c-0.2168-0.02295-0.41797,0.05176-0.60352,0.13232l-0.25977,0.11328L192.24414,335.79688z"/>
		
			<path fill="#A3A3A3" stroke="#A3A3A3" stroke-width="0.25" stroke-linecap="round" stroke-linejoin="round" stroke-miterlimit="10" d="
			M194.87305,332.74316l0.84277-0.14551c0.41504-0.07129,1.0127-0.12988,1.60938,0.22021
			c0.43262,0.25098,0.85254,0.72119,0.98145,1.46582c0.15039,0.86719-0.19727,1.40723-0.45117,1.7124
			c-0.32227,0.38867-0.69336,0.61182-1.43164,0.73926l-0.83594,0.14502L194.87305,332.74316z M195.9707,336.36621l0.40332-0.06934
			c0.3291-0.05664,0.77539-0.17188,1.12012-0.57666c0.26563-0.31396,0.44336-0.76611,0.34082-1.35547
			c-0.1709-0.99268-0.97754-1.51758-2.02539-1.33643l-0.40332,0.07031L195.9707,336.36621z"/>
		
			<path fill="#A3A3A3" stroke="#A3A3A3" stroke-width="0.25" stroke-linecap="round" stroke-linejoin="round" stroke-miterlimit="10" d="
			M204.35059,333.6958c-0.03027-0.12451-0.09375-0.26855-0.16797-0.36328c-0.06641-0.08008-0.19434-0.19482-0.42871-0.24951
			c-0.40527-0.09375-0.74609,0.09229-0.83496,0.47363c-0.03711,0.15967-0.01563,0.26221,0.07031,0.3916
			c0.09473,0.15186,0.23242,0.25537,0.37012,0.3584l0.35352,0.26367c0.21484,0.15967,0.41016,0.32178,0.54297,0.53369
			c0.16016,0.25781,0.18945,0.5166,0.12109,0.81201c-0.17578,0.75586-0.85156,1.12939-1.58984,0.95752
			c-0.26953-0.06201-0.59473-0.19727-0.8125-0.53857c-0.15723-0.24316-0.21387-0.55518-0.21289-0.81299l0.47168-0.02002
			c-0.01953,0.22217,0.03613,0.42871,0.12402,0.57861c0.13672,0.22021,0.32813,0.31592,0.53711,0.36475
			c0.55859,0.12988,0.91602-0.20801,1.01172-0.61963c0.04297-0.18359,0.02539-0.35742-0.0918-0.52637
			c-0.08984-0.1377-0.2334-0.24854-0.42578-0.396l-0.32813-0.25781c-0.14258-0.11182-0.3252-0.24463-0.46777-0.46533
			c-0.13867-0.21436-0.19824-0.42871-0.12598-0.73584c0.14648-0.63281,0.73047-0.94287,1.39453-0.78857
			c0.25195,0.05908,0.44238,0.15479,0.61328,0.33643c0.14063,0.14941,0.24316,0.34814,0.29395,0.54736L204.35059,333.6958z"/>
		
			<path fill="#A3A3A3" stroke="#A3A3A3" stroke-width="0.25" stroke-linecap="round" stroke-linejoin="round" stroke-miterlimit="10" d="
			M206.27637,336.07764l-0.22559-2.75586l0.49023,0.23193l0.16699,2.15576l1.7832-1.23584l0.48926,0.23193l-2.28223,1.5708
			l-0.77344,1.63574l-0.42188-0.19873L206.27637,336.07764z"/>
		
			<path fill="#A3A3A3" stroke="#A3A3A3" stroke-width="0.25" stroke-linecap="round" stroke-linejoin="round" stroke-miterlimit="10" d="
			M207.63379,338.76221l2.86426-3.31396l0.2334,4.7417l2.12988-2.46436l0.35352,0.3042l-2.87305,3.32324l-0.23242-4.74072
			l-2.12305,2.4541L207.63379,338.76221z"/>
		
			<path fill="#A3A3A3" stroke="#A3A3A3" stroke-width="0.25" stroke-linecap="round" stroke-linejoin="round" stroke-miterlimit="10" d="
			M215.51855,342.9209c0.04199-0.18262,0.06641-0.4375,0.03711-0.67236c-0.03223-0.23975-0.11719-0.49219-0.24902-0.70117
			c-0.51953-0.82031-1.56445-1.00928-2.38477-0.49072c-0.96484,0.60938-0.9541,1.69971-0.54297,2.3501
			c0.15137,0.23975,0.36914,0.43164,0.58301,0.55664c0.22949,0.13867,0.4541,0.19775,0.55762,0.22119l-0.49023,0.31006
			c-0.53125-0.21582-0.85547-0.58545-1.02344-0.85107c-0.66699-1.05615-0.36328-2.34473,0.66504-2.99512
			c1.06152-0.67139,2.35156-0.37646,3.02637,0.68994c0.13477,0.21387,0.36719,0.64111,0.31152,1.27246L215.51855,342.9209z"/>
	</g>
	<g>
		
			<ellipse transform="matrix(0.08248 -0.99659 0.99659 0.08248 7.76603 241.4274)" fill="none" cx="135" cy="116.49604" rx="25.58" ry="25.58002"/>
		<path fill="#A3A3A3" stroke="#A3A3A3" stroke-width="0.25" stroke-miterlimit="10" d="M111.37988,97.58984l3.67285,2.89111
			l-0.32129,0.40771l-3.67188-2.8916L111.37988,97.58984z"/>
		<path fill="#A3A3A3" stroke="#A3A3A3" stroke-width="0.25" stroke-miterlimit="10" d="M115.44336,99.0454
			c0.125-0.14063,0.35352-0.15332,0.49414-0.02783c0.14063,0.12646,0.1543,0.35352,0.02734,0.49512
			c-0.125,0.14111-0.35254,0.15381-0.49414,0.02832C115.33008,99.41405,115.31641,99.187,115.44336,99.0454z"/>
		<path fill="#A3A3A3" stroke="#A3A3A3" stroke-width="0.25" stroke-miterlimit="10" d="M118.41113,92.36376
			c-0.20605-0.0249-0.48926-0.02295-0.74609,0.03662c-0.26074,0.06396-0.53027,0.18652-0.74512,0.35547
			c-0.8457,0.66846-0.93359,1.8418-0.2666,2.68848c0.78516,0.99365,1.9873,0.85645,2.65625,0.32861
			c0.24707-0.19678,0.43262-0.4585,0.54688-0.7085c0.12598-0.26855,0.16602-0.52295,0.18066-0.6416l0.39844,0.50488
			c-0.17676,0.6123-0.54688,1.0127-0.82227,1.229c-1.08789,0.85742-2.54492,0.67041-3.38086-0.38867
			c-0.86328-1.09326-0.68555-2.55225,0.41211-3.41846c0.21973-0.17334,0.66406-0.479,1.36914-0.49072L118.41113,92.36376z"/>
		<path fill="#A3A3A3" stroke="#A3A3A3" stroke-width="0.25" stroke-miterlimit="10" d="M119.42969,90.55175l2.13867,3.59131
			l1.10742-0.65918l0.25098,0.4209l-1.55176,0.92432l-2.39063-4.0127L119.42969,90.55175z"/>
		<path fill="#A3A3A3" stroke="#A3A3A3" stroke-width="0.25" stroke-miterlimit="10" d="M125.24414,91.40479l-1.82422,0.78809
			l0.00781,1.42871l-0.52539,0.22852l0.03125-5.34229l3.86035,3.66016l-0.52637,0.22754L125.24414,91.40479z M124.86328,91.03613
			l-1.45996-1.40576l0.00879,2.03271L124.86328,91.03613z"/>
		<path fill="#A3A3A3" stroke="#A3A3A3" stroke-width="0.25" stroke-miterlimit="10" d="M128.24023,87.94042
			c-0.09375-0.10498-0.23145-0.21387-0.35547-0.26855c-0.10547-0.04297-0.29102-0.08789-0.54883-0.01953
			c-0.44629,0.11963-0.68359,0.48047-0.57129,0.89941c0.04785,0.17725,0.12207,0.26514,0.27441,0.34766
			c0.17188,0.1001,0.36133,0.12793,0.54883,0.15723l0.48438,0.07422c0.29492,0.04443,0.57031,0.10107,0.81055,0.23975
			c0.29297,0.16846,0.45703,0.40723,0.54395,0.73242c0.22266,0.83154-0.24512,1.55176-1.05664,1.76855
			c-0.29785,0.07861-0.68652,0.11816-1.0791-0.10352c-0.28125-0.15576-0.5-0.43115-0.63281-0.68506l0.45117-0.2666
			c0.09668,0.22803,0.25977,0.40186,0.42383,0.50342c0.24902,0.14307,0.48633,0.13721,0.7168,0.07617
			c0.61621-0.16455,0.78906-0.68213,0.66797-1.13623c-0.05469-0.20264-0.16211-0.36182-0.36426-0.46826
			c-0.16113-0.08643-0.3584-0.12061-0.62402-0.16553l-0.45703-0.08154c-0.19727-0.03271-0.44629-0.06836-0.70117-0.21094
			c-0.24805-0.13672-0.41797-0.31592-0.50977-0.6543c-0.18555-0.69629,0.22363-1.30615,0.95508-1.50146
			c0.27734-0.07373,0.51465-0.07959,0.77734,0.00879c0.21581,0.07275,0.41991,0.21338,0.57423,0.3833L128.24023,87.94042z"/>
		<path fill="#A3A3A3" stroke="#A3A3A3" stroke-width="0.25" stroke-miterlimit="10" d="M132.00586,87.31054
			c-0.07813-0.11523-0.20117-0.2417-0.31641-0.31055c-0.09961-0.05713-0.27734-0.12549-0.54102-0.09082
			c-0.45703,0.06104-0.73828,0.38867-0.68164,0.81738c0.02344,0.18115,0.08594,0.27783,0.22656,0.37988
			c0.15723,0.12012,0.34082,0.17334,0.52344,0.22754l0.4707,0.13428c0.28516,0.08252,0.55273,0.17383,0.77148,0.34277
			c0.26758,0.2041,0.40039,0.4624,0.44531,0.79395c0.1123,0.854-0.44336,1.50586-1.27539,1.61719
			c-0.30469,0.04004-0.69531,0.02881-1.05469-0.24121c-0.25879-0.19141-0.43945-0.49268-0.53906-0.76123l0.48047-0.20508
			c0.06738,0.23828,0.20508,0.43115,0.35547,0.55176c0.22852,0.17529,0.46484,0.2002,0.70117,0.16895
			c0.63086-0.08398,0.86914-0.57422,0.80664-1.03906c-0.02734-0.20801-0.11328-0.37988-0.30078-0.51123
			c-0.14746-0.10596-0.33887-0.1665-0.5957-0.24561l-0.44336-0.1377c-0.19141-0.06006-0.43164-0.12598-0.66699-0.30029
			c-0.22754-0.16748-0.37402-0.3667-0.41992-0.71387c-0.09473-0.71387,0.38965-1.26416,1.13965-1.36426
			c0.2832-0.0376,0.51953-0.0127,0.76953,0.10938c0.20313,0.10059,0.38672,0.26563,0.51855,0.4541L132.00586,87.31054z"/>
		<path fill="#A3A3A3" stroke="#A3A3A3" stroke-width="0.25" stroke-miterlimit="10" d="M134.27539,86.25438l0.1582,4.66455
			l-0.51758,0.01709l-0.1582-4.66455L134.27539,86.25438z"/>
		<path fill="#A3A3A3" stroke="#A3A3A3" stroke-width="0.25" stroke-miterlimit="10" d="M139.34863,87.5332
			c-0.13379-0.15869-0.34277-0.35107-0.57129-0.48291c-0.23438-0.13135-0.51465-0.2251-0.78711-0.24805
			c-1.07324-0.08838-1.93945,0.70996-2.02832,1.78418c-0.10449,1.26221,0.86816,1.98193,1.71875,2.05225
			c0.31348,0.02588,0.62793-0.03955,0.88184-0.14502c0.27637-0.11035,0.47852-0.26953,0.56934-0.34619l-0.05371,0.64209
			c-0.5459,0.32666-1.08984,0.36572-1.43848,0.33691c-1.37988-0.11426-2.31934-1.24414-2.20801-2.59082
			c0.11523-1.38721,1.24023-2.3335,2.63477-2.21777c0.27832,0.02295,0.8125,0.10303,1.33496,0.57422L139.34863,87.5332z"/>
		<path fill="#A3A3A3" stroke="#A3A3A3" stroke-width="0.25" stroke-miterlimit="10" d="M142.95508,87.17479l-0.06152,3.71143
			l2.67188-2.99756l0.00098,3.98877l2.49609-2.80811l0.53906,0.19922l-3.54688,3.92773l0.0127-3.9834l-2.67969,2.99463
			l0.02832-5.2334L142.95508,87.17479z"/>
		<path fill="#A3A3A3" stroke="#A3A3A3" stroke-width="0.25" stroke-miterlimit="10" d="M149.85938,94.05761l-1.69531-1.03613
			l-1.16309,0.82959l-0.48926-0.30029l4.38379-3.0498l-0.76855,5.26221l-0.48828-0.29932L149.85938,94.05761z M149.94141,93.53417
			l0.30664-2.00244l-1.6543,1.17725L149.94141,93.53417z"/>
		<path fill="#A3A3A3" stroke="#A3A3A3" stroke-width="0.25" stroke-miterlimit="10" d="M153.19434,92.29395l-1.24805,3.58838
			l3.28223-1.91553l0.44336,0.36426l-4.60547,2.62207l1.68555-5.02441L153.19434,92.29395z"/>
		<path fill="#A3A3A3" stroke="#A3A3A3" stroke-width="0.25" stroke-miterlimit="10" d="M157.74414,97.25195l-1.29492-1.39648
			l-1.0166,0.94385l1.25684,1.35449l-0.35938,0.33398l-1.25684-1.35547l-1.3291,1.2334l1.29492,1.39648l-0.35938,0.33398
			l-1.64648-1.77686l3.42285-3.17676l1.64746,1.77734L157.74414,97.25195z"/>
		<path fill="#A3A3A3" stroke="#A3A3A3" stroke-width="0.25" stroke-miterlimit="10" d="M159.44238,100.2627
			c0.06641-0.12402,0.12012-0.29102,0.12793-0.42529c0.00391-0.11572-0.01855-0.3042-0.17188-0.52148
			c-0.26758-0.37744-0.6875-0.47461-1.04199-0.22363c-0.14941,0.10498-0.20605,0.20654-0.23047,0.37793
			c-0.03418,0.19482,0.00488,0.38232,0.04297,0.56982l0.09863,0.47949c0.06055,0.29199,0.10352,0.57031,0.05762,0.84424
			c-0.05762,0.33057-0.22363,0.56885-0.49707,0.76318c-0.7041,0.49756-1.54102,0.30908-2.02539-0.37646
			c-0.17871-0.25195-0.34961-0.60205-0.2793-1.04736c0.0498-0.31787,0.23242-0.61914,0.42383-0.83203l0.40625,0.33057
			c-0.18066,0.16992-0.28711,0.38281-0.32422,0.57324c-0.04883,0.28369,0.03906,0.50439,0.17676,0.69775
			c0.36816,0.52051,0.91309,0.50391,1.2959,0.23242c0.17188-0.12207,0.28516-0.27832,0.3125-0.50488
			c0.02637-0.18164-0.00977-0.37793-0.06055-0.64307l-0.08203-0.45654c-0.03711-0.19727-0.08984-0.44287-0.04688-0.73193
			c0.04297-0.2793,0.15234-0.50098,0.4375-0.70361c0.58789-0.41699,1.30273-0.24414,1.74023,0.37305
			c0.16602,0.23486,0.25293,0.45508,0.26172,0.73291c0.00586,0.22705-0.05566,0.46729-0.16016,0.67139L159.44238,100.2627z"/>
	</g>
	<path fill="#A3A3A3" d="M143.78345,116.13632c0,0.72153-0.59148,1.3131-1.317,1.3131c-0.7216,0-1.31306-0.59157-1.31306-1.3131
		v-1.19083l-13.07146,5.56763c-0.16562,0.07497-0.33911,0.11047-0.51262,0.11047c-0.25236,0-0.50865-0.07497-0.72552-0.21684
		c-0.37066-0.2485-0.59148-0.65859-0.59148-1.10022v-3.18213c0-0.7255,0.59148-1.31297,1.31699-1.31297
		c0.7216,0,1.31306,0.58747,1.31306,1.31297v1.19083l13.07146-5.57161c0.40219-0.17352,0.87932-0.13405,1.23814,0.11047
		c0.37067,0.2444,0.59148,0.6545,0.59148,1.09613V116.13632z M143.78345,130.15013c0,0.72562-0.59148,1.31706-1.317,1.31706
		h-7.45647c-0.72552,0-1.317-0.59145-1.317-1.31706v-5.0472h-4.81061v1.86507c0,0.72562-0.59146,1.3131-1.31306,1.3131
		c-0.72552,0-1.31699-0.58748-1.31699-1.3131v-3.17815c0-0.7255,0.59148-1.31297,1.31699-1.31297h7.44067
		c0.7216,0,1.31306,0.58747,1.31306,1.31297v5.04733h4.83034v-1.86917c0-0.72549,0.59146-1.31297,1.31306-1.31297
		c0.72552,0,1.317,0.58748,1.317,1.31297V130.15013z M126.7176,105.50562l3.72231-3.17816
		c0.49289-0.41792,1.21054-0.41792,1.70343,0l6.6008,5.63479l2.87057-2.45663c0.5481-0.46136,1.37616-0.40614,1.85327,0.14981
		c0.46924,0.54813,0.40614,1.38012-0.14983,1.85328l-3.71837,3.18213c-0.24841,0.21299-0.55203,0.31551-0.85565,0.31551
		c-0.29968,0-0.6033-0.10252-0.85173-0.31551l-6.6008-5.63082l-2.87057,2.44869c-0.54415,0.47327-1.37221,0.41804-1.85327-0.14982
		C126.09853,106.81075,126.16163,105.97876,126.7176,105.50562 M135.01788,94.38596c-12.34198,0-22.35358,10.00775-22.35358,22.3536
		c0,12.34995,10.0116,22.35757,22.35358,22.35757c12.35381,0,22.35356-10.00763,22.35356-22.35758
		C157.37144,104.39371,147.37169,94.38596,135.01788,94.38596"/>
	<g>
		<circle fill="none" cx="83.5" cy="145.5" r="28.59473"/>
		<path fill="#A3A3A3" stroke="#A3A3A3" stroke-width="0.25" stroke-linejoin="round" stroke-miterlimit="10" d="
			M71.34375,169.59326c0.00586-0.15918-0.02246-0.3584-0.08105-0.50049c-0.05176-0.12061-0.16992-0.30371-0.43652-0.4502
			c-0.46289-0.25586-0.94238-0.14551-1.18262,0.28809c-0.10059,0.18311-0.1084,0.31494-0.04785,0.50244
			c0.0625,0.21875,0.19434,0.3916,0.32813,0.56543l0.33984,0.44336c0.20703,0.27002,0.39063,0.53516,0.47852,0.83936
			c0.10645,0.36865,0.05371,0.69727-0.13184,1.0332c-0.47559,0.86182-1.42871,1.08447-2.27051,0.62061
			c-0.30762-0.16943-0.6582-0.44482-0.80664-0.93799c-0.10742-0.35059-0.07031-0.75098,0.02148-1.06641l0.58203,0.13818
			c-0.09961,0.26367-0.10449,0.53613-0.04883,0.75c0.0918,0.31494,0.29102,0.49902,0.53027,0.62939
			c0.6377,0.35205,1.18945,0.06348,1.44824-0.40625c0.11523-0.21045,0.15332-0.42725,0.07031-0.6748
			c-0.06348-0.19824-0.19922-0.38379-0.38281-0.63086l-0.3125-0.42773c-0.13574-0.18457-0.3125-0.40967-0.41113-0.729
			c-0.09473-0.30859-0.09473-0.59082,0.09863-0.94043c0.39844-0.72168,1.21777-0.90039,1.97461-0.4834
			c0.28711,0.1582,0.48828,0.3418,0.63379,0.62305c0.12012,0.23047,0.17676,0.50879,0.16895,0.76953L71.34375,169.59326z"/>
		<path fill="#A3A3A3" stroke="#A3A3A3" stroke-width="0.25" stroke-linejoin="round" stroke-miterlimit="10" d="M76.13672,175.5083
			c-0.25879,0.08105-0.86914,0.24756-1.68066,0.00391c-1.47168-0.44238-2.31934-1.92627-1.8623-3.44336
			c0.45898-1.52393,1.98242-2.28516,3.45313-1.84277c1.46387,0.44141,2.32227,1.91943,1.86328,3.44336
			c-0.28223,0.93457-0.87891,1.39014-1.27148,1.61475l0.51758,1l-0.73535-0.22217L76.13672,175.5083z M76.35742,174.74756
			c0.25391-0.14893,0.74414-0.50244,0.9707-1.25244c0.35254-1.17334-0.30078-2.38867-1.44238-2.73291
			c-1.14941-0.34619-2.35742,0.30908-2.70996,1.48242c-0.35352,1.1709,0.29199,2.38574,1.44141,2.73145
			c0.32227,0.09668,0.75781,0.14453,1.23633,0.00488l-0.85156-1.64355l0.73535,0.22119L76.35742,174.74756z"/>
		<path fill="#A3A3A3" stroke="#A3A3A3" stroke-width="0.25" stroke-linejoin="round" stroke-miterlimit="10" d="
			M80.35254,174.53564c-0.02734,0.44824-0.05566,0.93555,0.34473,1.32031c0.20508,0.19727,0.56641,0.33936,0.86133,0.35693
			c0.29492,0.01807,0.66992-0.08008,0.89648-0.25049c0.44531-0.33398,0.47559-0.82129,0.50195-1.26953l0.19824-3.26758
			l0.59082,0.03564l-0.20703,3.42725c-0.02734,0.44824-0.10156,0.87646-0.41309,1.25879
			c-0.34668,0.41992-0.92188,0.66602-1.60059,0.625c-0.67969-0.04102-1.22266-0.354-1.51563-0.81299
			c-0.26367-0.4165-0.28516-0.85205-0.25879-1.29834l0.20801-3.4292l0.59082,0.03564L80.35254,174.53564z"/>
		<path fill="#A3A3A3" stroke="#A3A3A3" stroke-width="0.25" stroke-linejoin="round" stroke-miterlimit="10" d="
			M88.83984,174.76514l-2.24805,0.32373l-0.41895,1.57959l-0.64941,0.09229l1.63477-5.88232l3.16211,5.19238l-0.64844,0.09424
			L88.83984,174.76514z M88.53125,174.24463l-1.19043-1.98633l-0.59863,2.24219L88.53125,174.24463z"/>
		<path fill="#A3A3A3" stroke="#A3A3A3" stroke-width="0.25" stroke-linejoin="round" stroke-miterlimit="10" d="
			M91.38379,170.17529c0.34082-0.11621,0.85547-0.26563,1.32129-0.13721c0.3623,0.09668,0.75098,0.396,0.93359,0.93359
			c0.26172,0.77197-0.05273,1.51221-0.79883,1.82568l2.37109,1.70996l-0.68164,0.23096l-2.28711-1.68848l-0.14453,0.04932
			l0.75098,2.21143L92.28809,175.5l-1.71484-5.05029L91.38379,170.17529z M91.92773,172.59912l0.35547-0.12158
			c0.69727-0.23486,1.00098-0.70996,0.80078-1.30127c-0.0957-0.2793-0.27441-0.53125-0.6543-0.60498
			c-0.27051-0.05176-0.5332,0.02002-0.77539,0.10303l-0.34082,0.11523L91.92773,172.59912z"/>
		<path fill="#A3A3A3" stroke="#A3A3A3" stroke-width="0.25" stroke-linejoin="round" stroke-miterlimit="10" d="
			M97.38086,168.07764l-1.91406,1.03223l0.75098,1.39404l1.85742-1.00342l0.2666,0.49365l-1.8584,1.00244l0.9834,1.82227
			l1.91406-1.03271l0.26563,0.49268l-2.43457,1.31348l-2.53223-4.69434l2.43457-1.31299L97.38086,168.07764z"/>
	</g>
	
		<line fill="none" stroke="#A3A3A3" stroke-width="0.75" stroke-linecap="square" x1="83.7814" y1="118.22253" x2="86.7984" y2="118.22253"/>
	<g>
		<path fill="#A3A3A3" d="M54.98047,162.49512c0-1.00684,0.74414-1.75098,1.75977-1.75098s1.75879,0.74414,1.75879,1.75098
			c0,1.00781-0.75195,1.74316-1.75879,1.74316C55.73242,164.23828,54.98047,163.50293,54.98047,162.49512z M55.57227,162.49512
			c0,0.81543,0.57617,1.23145,1.16797,1.23145c0.59961,0,1.16699-0.42383,1.16699-1.23145
			c0-0.81543-0.55957-1.23926-1.16699-1.23926S55.57227,161.6875,55.57227,162.49512z"/>
		<path fill="#A3A3A3" d="M59.97266,161.35156v2.79102h-0.57617v-2.79102h-0.32031v-0.52734h0.32031v-1.44727
			c0-0.30371,0.02344-0.6875,0.32031-0.93555c0.16016-0.13574,0.39941-0.21582,0.66309-0.21582
			c0.20801,0,0.34375,0.04785,0.4082,0.07227v0.55957c-0.12012-0.04785-0.25586-0.07227-0.37598-0.07227
			c-0.12793,0-0.2793,0.03223-0.36719,0.17578c-0.07227,0.12012-0.07227,0.30371-0.07227,0.48047v1.38281h0.81543v0.52734H59.97266z
			"/>
		<path fill="#A3A3A3" d="M62.05273,161.35156v2.79102h-0.57617v-2.79102h-0.32031v-0.52734h0.32031v-1.44727
			c0-0.30371,0.02344-0.6875,0.32031-0.93555c0.16016-0.13574,0.39941-0.21582,0.66309-0.21582
			c0.20801,0,0.34375,0.04785,0.4082,0.07227v0.55957c-0.12012-0.04785-0.25586-0.07227-0.37598-0.07227
			c-0.12793,0-0.2793,0.03223-0.36719,0.17578c-0.07227,0.12012-0.07227,0.30371-0.07227,0.48047v1.38281h0.81543v0.52734H62.05273z
			"/>
	</g>
	<g>
		<circle fill="none" cx="186.44551" cy="145.5" r="28.59473"/>
		<path fill="#A3A3A3" stroke="#A3A3A3" stroke-width="0.25" stroke-linejoin="round" stroke-miterlimit="10" d="
			M180.74023,171.87061c-0.03418-0.15625-0.11133-0.34082-0.2041-0.46436c-0.08105-0.10303-0.24121-0.25098-0.53613-0.32617
			c-0.51172-0.13037-0.94922,0.09766-1.07227,0.5791c-0.05078,0.20068-0.02637,0.33154,0.08008,0.49902
			c0.11523,0.19385,0.28711,0.32861,0.45996,0.46387l0.44141,0.34326c0.26855,0.20801,0.5127,0.41943,0.6748,0.69189
			c0.19629,0.32959,0.22852,0.66064,0.13379,1.0332c-0.24316,0.95459-1.11035,1.41162-2.04199,1.17432
			c-0.34082-0.08691-0.75-0.26514-1.01758-0.70508c-0.19336-0.31348-0.25781-0.70996-0.24805-1.03809l0.59766-0.0127
			c-0.03027,0.28125,0.03418,0.5459,0.14258,0.73779c0.16797,0.28271,0.4082,0.41016,0.67188,0.47705
			c0.70703,0.1792,1.16797-0.24023,1.2998-0.75977c0.05957-0.23291,0.04004-0.45264-0.10254-0.67041
			c-0.11133-0.17725-0.28906-0.32227-0.5293-0.51514l-0.41016-0.33496c-0.17871-0.14502-0.40723-0.31836-0.58203-0.60205
			c-0.16992-0.27441-0.24121-0.54932-0.14258-0.93701c0.20313-0.79883,0.95215-1.17822,1.79004-0.96533
			c0.31836,0.08105,0.55859,0.2085,0.77051,0.44385c0.1748,0.19287,0.2998,0.44727,0.35938,0.70166L180.74023,171.87061z"/>
		<path fill="#A3A3A3" stroke="#A3A3A3" stroke-width="0.25" stroke-linejoin="round" stroke-miterlimit="10" d="
			M185.7334,175.24561l-2.27051-0.13672l-0.72949,1.46387l-0.65527-0.03955l2.79102-5.43799l2.05176,5.72998l-0.65527-0.03906
			L185.7334,175.24561z M185.53516,174.67334l-0.76563-2.18799l-1.04004,2.07764L185.53516,174.67334z"/>
		<path fill="#A3A3A3" stroke="#A3A3A3" stroke-width="0.25" stroke-linejoin="round" stroke-miterlimit="10" d="
			M187.82227,171.54102l2.07813,3.70068l0.91211-4.49951l2.29785,3.93799l0.84863-4.21191l0.64551-0.11377l-1.23926,5.92334
			l-2.28223-3.94238l-0.91895,4.50146l-2.98828-5.18213L187.82227,171.54102z"/>
	</g>
	
		<line fill="none" stroke="#A3A3A3" stroke-width="0.75" stroke-linecap="square" x1="162.26285" y1="158.39166" x2="165.28485" y2="162.36566"/>
	
		<line fill="none" stroke="#A3A3A3" stroke-width="0.75" stroke-linecap="square" x1="184.55577" y1="113.47055" x2="190.58977" y2="117.72253"/>
	
		<line fill="none" stroke="#A3A3A3" stroke-width="0.75" stroke-linecap="square" x1="212.27858" y1="137.47469" x2="216.95558" y2="140.09767"/>
	<g>
		<path fill="#A3A3A3" d="M206.07813,162.49512c0-1.00684,0.74316-1.75098,1.75781-1.75098
			c1.01563,0,1.75977,0.74414,1.75977,1.75098c0,1.00781-0.75195,1.74316-1.75977,1.74316
			C206.8291,164.23828,206.07813,163.50293,206.07813,162.49512z M206.66895,162.49512c0,0.81543,0.57617,1.23145,1.16699,1.23145
			c0.59961,0,1.16797-0.42383,1.16797-1.23145c0-0.81543-0.55957-1.23926-1.16797-1.23926
			C207.22852,161.25586,206.66895,161.6875,206.66895,162.49512z"/>
		<path fill="#A3A3A3" d="M211.06836,161.35156v2.79102h-0.5752v-2.79102h-0.31934v-0.52734h0.31934v-1.44727
			c0-0.30371,0.02441-0.6875,0.31934-0.93555c0.16016-0.13574,0.40039-0.21582,0.66406-0.21582
			c0.20801,0,0.34375,0.04785,0.4082,0.07227v0.55957c-0.12012-0.04785-0.25586-0.07227-0.37598-0.07227
			c-0.12793,0-0.28027,0.03223-0.36816,0.17578c-0.07227,0.12012-0.07227,0.30371-0.07227,0.48047v1.38281h0.81641v0.52734
			H211.06836z"/>
		<path fill="#A3A3A3" d="M213.14844,161.35156v2.79102h-0.5752v-2.79102h-0.31934v-0.52734h0.31934v-1.44727
			c0-0.30371,0.02441-0.6875,0.31934-0.93555c0.16016-0.13574,0.40039-0.21582,0.66406-0.21582
			c0.20801,0,0.34375,0.04785,0.4082,0.07227v0.55957c-0.12012-0.04785-0.25586-0.07227-0.37598-0.07227
			c-0.12793,0-0.28027,0.03223-0.36816,0.17578c-0.07227,0.12012-0.07227,0.30371-0.07227,0.48047v1.38281h0.81641v0.52734
			H213.14844z"/>
	</g>
	<g>
		<circle fill="none" cx="135" cy="198.5" r="28.59473"/>
		
			<path fill="#A3A3A3" stroke="#A3A3A3" stroke-width="0.25" stroke-linecap="round" stroke-linejoin="round" stroke-miterlimit="10" d="
			M120.51367,221.27051c0.02344-0.15967,0.01465-0.35986-0.0293-0.50684c-0.04102-0.125-0.14063-0.31885-0.39063-0.4917
			c-0.43555-0.29736-0.9248-0.23535-1.20508,0.17334c-0.11816,0.1709-0.13965,0.30176-0.09766,0.49561
			c0.04102,0.22314,0.15625,0.4082,0.27148,0.59424l0.29492,0.47412c0.18066,0.28955,0.33594,0.56982,0.39453,0.88184
			c0.07031,0.37793-0.01465,0.69922-0.23242,1.01563c-0.55664,0.81152-1.52734,0.93994-2.31836,0.39648
			c-0.29102-0.19922-0.61328-0.50781-0.71289-1.01318c-0.07227-0.35986,0.00391-0.75342,0.12598-1.05811l0.56543,0.19385
			c-0.12598,0.25293-0.15625,0.52344-0.12109,0.74121c0.05957,0.32275,0.24121,0.52441,0.46484,0.6792
			c0.60059,0.41162,1.17871,0.17725,1.48242-0.26416c0.13477-0.19824,0.19336-0.41016,0.13477-0.66406
			c-0.04297-0.20459-0.16016-0.40039-0.31836-0.66455l-0.26953-0.45752c-0.11719-0.1958-0.27148-0.43799-0.33789-0.76563
			c-0.06445-0.31543-0.03711-0.59717,0.19043-0.92725c0.46582-0.67871,1.2998-0.77637,2.01074-0.28662
			c0.27148,0.18506,0.45313,0.38672,0.57031,0.68164c0.09668,0.24072,0.12695,0.52393,0.09375,0.78223L120.51367,221.27051z"/>
		
			<path fill="#A3A3A3" stroke="#A3A3A3" stroke-width="0.25" stroke-linecap="round" stroke-linejoin="round" stroke-miterlimit="10" d="
			M123.44336,225.93066l-2.06152-0.9624l-1.2168,1.09375l-0.59473-0.27832l4.59375-4.03125l-0.19727,6.0835l-0.5957-0.27734
			L123.44336,225.93066z M123.46875,225.32373l0.0918-2.31592l-1.73047,1.55176L123.46875,225.32373z"/>
		
			<path fill="#A3A3A3" stroke="#A3A3A3" stroke-width="0.25" stroke-linecap="round" stroke-linejoin="round" stroke-miterlimit="10" d="
			M126.20313,223.07959l0.48828,4.20801l2.57227-3.79248l0.59961,4.51172l2.4043-3.55225l0.63867,0.14404l-3.42285,4.97803
			l-0.58496-4.50977l-2.58008,3.7915l-0.75488-5.9248L126.20313,223.07959z"/>
		
			<path fill="#A3A3A3" stroke="#A3A3A3" stroke-width="0.25" stroke-linecap="round" stroke-linejoin="round" stroke-miterlimit="10" d="
			M136.57813,224.91064l0.24316,4.77051l-0.59082,0.03076l-0.24414-4.77051l-1.29492,0.06543l-0.02832-0.55859l3.18066-0.16211
			l0.02832,0.55957L136.57813,224.91064z"/>
		
			<path fill="#A3A3A3" stroke="#A3A3A3" stroke-width="0.25" stroke-linecap="round" stroke-linejoin="round" stroke-miterlimit="10" d="
			M139.69141,227.31836c0.09082,0.4375,0.19043,0.91504,0.67969,1.18164c0.24805,0.13574,0.63281,0.17725,0.92188,0.1167
			c0.28906-0.06104,0.625-0.25342,0.79883-0.47705c0.34082-0.43799,0.24121-0.91553,0.15039-1.35352l-0.66797-3.2002
			l0.57813-0.12109l0.70117,3.35645c0.0918,0.43896,0.13281,0.87109-0.06738,1.3208
			c-0.22363,0.49609-0.71387,0.88281-1.37988,1.02295c-0.66406,0.1377-1.26855-0.021-1.67188-0.38623
			c-0.36328-0.33203-0.49805-0.74609-0.58984-1.18262l-0.70117-3.35645l0.58008-0.12158L139.69141,227.31836z"/>
		
			<path fill="#A3A3A3" stroke="#A3A3A3" stroke-width="0.25" stroke-linecap="round" stroke-linejoin="round" stroke-miterlimit="10" d="
			M145.2998,228.0835l-2.21582-5.10254l5.55566,2.34277l-1.64941-3.7959l0.54395-0.23584l2.22168,5.11816l-5.55469-2.34326
			l1.6416,3.78125L145.2998,228.0835z"/>
		
			<path fill="#A3A3A3" stroke="#A3A3A3" stroke-width="0.25" stroke-linecap="round" stroke-linejoin="round" stroke-miterlimit="10" d="
			M151.04492,219.59277l-1.80273,1.2168l0.88379,1.31299l1.75098-1.18018l0.31348,0.46436l-1.75098,1.1792l1.15723,1.71777
			l1.80469-1.21436l0.3125,0.46289l-2.29492,1.54639l-2.98145-4.42334l2.29492-1.54688L151.04492,219.59277z"/>
	</g>
	<g>
		<path fill="#A3A3A3" d="M106.57715,214.96582h1.19531v0.40186h-1.19531V214.96582z"/>
		<path fill="#A3A3A3" d="M108.31543,216.32373l1.32031-1.52637c0.09277-0.10889,0.33691-0.39648,0.42285-0.52686
			c0.16406-0.23389,0.20117-0.40771,0.20117-0.5542c0-0.40723-0.29297-0.70605-0.72266-0.70605
			c-0.25391,0-0.4668,0.11377-0.60156,0.32031c-0.07129,0.10889-0.11523,0.24463-0.12012,0.4292h-0.40137
			c0.01563-0.36377,0.12891-0.58643,0.27148-0.74951c0.15137-0.17383,0.40625-0.36963,0.85742-0.36963
			c0.64063,0,1.11914,0.45654,1.11914,1.08105c0,0.24463-0.07031,0.46729-0.28711,0.77686
			c-0.15234,0.21191-0.34766,0.43457-0.49512,0.60303l-0.75488,0.85303h1.53125v0.36914H108.31543z"/>
		<path fill="#A3A3A3" d="M113.22656,215.27002h0.44531v0.36914h-0.44531v0.68457h-0.40234v-0.68457h-1.85742l2.25977-3.13965
			C113.22657,212.49951,113.22657,215.27002,113.22656,215.27002z M112.82422,215.27002v-1.60254l-1.14648,1.60254H112.82422z"/>
	</g>
	<g>
		<path fill="#A3A3A3" d="M133.79004,171.54102c-0.23926-0.34766-0.36426-0.81445-0.36426-1.33105
			c0-0.51563,0.125-0.98242,0.36426-1.33008c0.27734-0.40234,0.6416-0.54395,0.92871-0.54395
			c0.28809,0,0.65234,0.1416,0.92969,0.54395c0.23828,0.34766,0.36328,0.81445,0.36328,1.33008
			c0,0.5166-0.125,0.9834-0.36328,1.33105c-0.27734,0.40234-0.6416,0.54395-0.92969,0.54395
			C134.43164,172.08496,134.06738,171.94336,133.79004,171.54102z M134.09375,169.10742
			c-0.19531,0.30957-0.26563,0.72266-0.26563,1.10254c0,0.38086,0.07031,0.79395,0.26563,1.10352
			c0.19043,0.30371,0.44043,0.40137,0.625,0.40137c0.18555,0,0.43457-0.09766,0.625-0.40137
			c0.19531-0.30957,0.26563-0.72266,0.26563-1.10352c0-0.37988-0.07031-0.79297-0.26563-1.10254
			c-0.19043-0.30371-0.43945-0.40137-0.625-0.40137C134.53418,168.70605,134.28418,168.80371,134.09375,169.10742z"/>
	</g>
	<g>
		<circle fill="none" cx="135" cy="283.5" r="28.59473"/>
		
			<path fill="#A3A3A3" stroke="#A3A3A3" stroke-width="0.25" stroke-linecap="round" stroke-linejoin="round" stroke-miterlimit="10" d="
			M117.6709,309.67383l3.43262-4.54932l-0.3125,4.93604l3.96484-2.99658l-1.91992,5.36523l-0.53711-0.28564l1.30273-3.51123
			l-3.45313,2.61572l0.27148-4.31299l-2.21289,3.0249L117.6709,309.67383z"/>
		
			<path fill="#A3A3A3" stroke="#A3A3A3" stroke-width="0.25" stroke-linecap="round" stroke-linejoin="round" stroke-miterlimit="10" d="
			M127.42578,308.27979l-1.61328,5.0874l-0.56445-0.17871l1.61328-5.0874L127.42578,308.27979z"/>
		
			<path fill="#A3A3A3" stroke="#A3A3A3" stroke-width="0.25" stroke-linecap="round" stroke-linejoin="round" stroke-miterlimit="10" d="
			M129.7207,311.49268l-0.96484-2.78711l0.66309,0.11621l0.74023,2.17041l1.46777-1.78223l0.66211,0.11719l-1.88965,2.28467
			l1.04395,2.98877l-0.66309-0.11621l-0.82617-2.37305l-1.60254,1.9458l-0.66211-0.11719L129.7207,311.49268z"/>
		
			<path fill="#A3A3A3" stroke="#A3A3A3" stroke-width="0.25" stroke-linecap="round" stroke-linejoin="round" stroke-miterlimit="10" d="
			M135.90332,312.21533c-0.2207-1.57666,0.8457-2.9043,2.36621-3.11719c1.51953-0.21289,2.91016,0.77246,3.12988,2.34814
			c0.21973,1.56787-0.83691,2.90234-2.36621,3.11621C137.50391,314.77686,136.12305,313.7832,135.90332,312.21533z
			 M136.50488,312.13086c0.16895,1.21143,1.2627,2.04297,2.4502,1.87695c1.18848-0.16602,2.01172-1.26611,1.84277-2.47705
			c-0.16895-1.21143-1.2627-2.04395-2.45117-1.87793C137.1582,309.81787,136.33594,310.91846,136.50488,312.13086z"/>
		
			<path fill="#A3A3A3" stroke="#A3A3A3" stroke-width="0.25" stroke-linecap="round" stroke-linejoin="round" stroke-miterlimit="10" d="
			M144.00879,311.27246c0.15723,0.41992,0.3291,0.87695,0.85254,1.06543c0.26563,0.09619,0.65332,0.07959,0.93164-0.02344
			c0.27734-0.10449,0.58008-0.3457,0.7168-0.59326c0.27148-0.4873,0.09961-0.94434-0.05664-1.36377l-1.14844-3.06592
			l0.55469-0.20801l1.2041,3.21582c0.15723,0.41895,0.26465,0.84082,0.13477,1.31787
			c-0.14551,0.52393-0.57129,0.98389-1.20996,1.22217c-0.63672,0.2373-1.25977,0.17285-1.71387-0.12842
			c-0.41113-0.27295-0.60645-0.66113-0.76465-1.08105l-1.2041-3.21582l0.55566-0.2085L144.00879,311.27246z"/>
		
			<path fill="#A3A3A3" stroke="#A3A3A3" stroke-width="0.25" stroke-linecap="round" stroke-linejoin="round" stroke-miterlimit="10" d="
			M148.77148,306.08643l2.44727,4.10596l-0.50781,0.30322l-2.44922-4.10645l-1.11328,0.66455l-0.28711-0.48096l2.73633-1.63135
			l0.28809,0.48096L148.77148,306.08643z"/>
	</g>
	<g>
		<circle fill="none" cx="135" cy="283.44943" r="28.59473"/>
		<path fill="#A3A3A3" d="M143.63867,255.79688l1.93555,0.67871l0.53906-1.5332l0.41797,0.14746l-1.32422,3.77344l-0.41797-0.14648
			l0.64648-1.8457l-1.93457-0.67871l-0.64746,1.84473l-0.41992-0.14648l1.3252-3.77441l0.41895,0.14648L143.63867,255.79688z"/>
		<path fill="#A3A3A3" d="M148.8877,259.46191l-1.50098-0.80859l-0.95898,0.76465l-0.43164-0.2334l3.61328-2.81836l-0.41211,4.54492
			l-0.43359-0.2334L148.8877,259.46191z M148.93359,259.00977l0.16895-1.73047l-1.3623,1.08594L148.93359,259.00977z"/>
		<path fill="#A3A3A3" d="M152.79883,258.59473c0.21777,0.15918,0.53125,0.41211,0.65234,0.75391
			c0.0957,0.26367,0.07813,0.63086-0.17383,0.97363c-0.3623,0.49219-0.95313,0.61719-1.46484,0.29199l-0.03516,2.19238
			l-0.43457-0.32031l0.05762-2.13086l-0.09277-0.06738l-1.03711,1.41016l-0.35742-0.26367l2.37012-3.2207L152.79883,258.59473z
			 M151.54297,259.96875l0.22656,0.16797c0.44434,0.32617,0.86523,0.30859,1.14355-0.06836
			c0.13184-0.17773,0.20996-0.39551,0.09082-0.66113c-0.08398-0.18848-0.24023-0.31934-0.39453-0.43262l-0.21875-0.16016
			L151.54297,259.96875z"/>
		<path fill="#A3A3A3" d="M155.35156,260.59766l0.58398,0.56836c0.28809,0.28027,0.66699,0.70801,0.73047,1.36523
			c0.04883,0.47461-0.07813,1.06055-0.58008,1.57617c-0.58594,0.60156-1.19629,0.63477-1.57422,0.61133
			c-0.48047-0.03223-0.85938-0.19238-1.37109-0.69043l-0.58008-0.56543L155.35156,260.59766z M153.17188,263.47266l0.2793,0.27148
			c0.22754,0.22168,0.56641,0.50098,1.07031,0.54102c0.39258,0.02832,0.83984-0.08691,1.23633-0.49512
			c0.66992-0.68848,0.62402-1.60352-0.10156-2.31055l-0.2793-0.27246L153.17188,263.47266z"/>
		<path fill="#A3A3A3" d="M160.22461,267.5918c0.05859-0.10449,0.10938-0.24609,0.11914-0.36035
			c0.00586-0.09863-0.00879-0.26074-0.13477-0.4502c-0.21973-0.33008-0.57715-0.42383-0.88672-0.2168
			c-0.12988,0.08691-0.18164,0.17188-0.20605,0.31836c-0.0332,0.16602-0.00488,0.32715,0.02344,0.48828l0.07324,0.41309
			c0.04492,0.25,0.0752,0.49023,0.0293,0.72266c-0.05762,0.2832-0.20508,0.48242-0.44531,0.64258
			c-0.61328,0.40918-1.32422,0.22754-1.72461-0.37012c-0.14648-0.2207-0.28418-0.52441-0.21289-0.90332
			c0.05078-0.27148,0.21289-0.52441,0.38281-0.70215l0.33887,0.29297c-0.15723,0.14063-0.25391,0.32031-0.29004,0.48145
			c-0.04883,0.24219,0.02051,0.43262,0.13379,0.60254c0.30371,0.4541,0.77051,0.45215,1.10449,0.22949
			c0.15039-0.10059,0.25-0.23145,0.2793-0.4248c0.02734-0.1543,0-0.32422-0.03711-0.55078l-0.05859-0.39355
			c-0.02734-0.16992-0.06836-0.38086-0.02148-0.62695c0.04199-0.2373,0.14063-0.42578,0.39063-0.59277
			c0.51367-0.3418,1.11914-0.17773,1.47949,0.36133c0.13574,0.20508,0.20605,0.39551,0.20605,0.63379
			c0,0.19434-0.05762,0.39941-0.15234,0.57031L160.22461,267.5918z"/>
		<path fill="#A3A3A3" d="M160.23633,270.64844l1.45898-2.19141l0.22852,0.46191l-1.14746,1.70801l2.06055,0.12988l0.22949,0.46289
			l-2.63281-0.17383l-1.54199,0.7666l-0.19629-0.39844L160.23633,270.64844z"/>
		<path fill="#A3A3A3" d="M159.81445,273.77148l3.97754-1.24707l-2.18652,3.9541l2.95898-0.92773l0.13281,0.42383l-3.98926,1.25098
			l2.18652-3.9541l-2.94727,0.92383L159.81445,273.77148z"/>
		<path fill="#A3A3A3" d="M164.63965,281.06641c0.1084-0.1416,0.23145-0.35254,0.29785-0.56641
			c0.06836-0.22168,0.09375-0.47266,0.0625-0.70508c-0.12402-0.91602-0.95313-1.49414-1.86914-1.37012
			c-1.07617,0.14648-1.49805,1.09375-1.40039,1.81934c0.03613,0.26758,0.14941,0.51855,0.28516,0.71289
			c0.14355,0.21094,0.31348,0.35059,0.39453,0.41211l-0.54785,0.0752c-0.37402-0.39746-0.50781-0.8457-0.54785-1.14355
			c-0.16016-1.17676,0.61328-2.17188,1.76172-2.32813c1.18262-0.16016,2.18262,0.60547,2.34375,1.79492
			c0.03223,0.23828,0.06445,0.7002-0.23242,1.22461L164.63965,281.06641z"/>
	</g>
	
		<line fill="none" stroke="#A3A3A3" stroke-width="0.75" stroke-linecap="square" x1="184.53789" y1="117.47704" x2="184.53789" y2="113.22504"/>
	
		<line fill="none" stroke="#A3A3A3" stroke-width="0.75" stroke-linecap="square" x1="213.2607" y1="135.10318" x2="213.2607" y2="137.22919"/>
	
		<line fill="none" stroke="#A3A3A3" stroke-width="0.75" stroke-linecap="square" x1="211.9037" y1="135.10318" x2="213.2607" y2="135.10318"/>
	
		<line fill="none" stroke="#A3A3A3" stroke-width="0.75" stroke-linecap="square" x1="210.9037" y1="139.35516" x2="210.9037" y2="135.10318"/>
	<g>
		<path fill="#A3A3A3" d="M155.12305,214.33545h0.98242v-0.93408h0.3916v0.93408h0.9834v0.3584h-0.9834v0.93457h-0.3916v-0.93457
			h-0.98242V214.33545z"/>
		<path fill="#A3A3A3" d="M157.93066,216.32373l1.32031-1.52637c0.09277-0.10889,0.33691-0.39648,0.42285-0.52686
			c0.16406-0.23389,0.20117-0.40771,0.20117-0.5542c0-0.40723-0.29297-0.70605-0.72266-0.70605
			c-0.25488,0-0.4668,0.11377-0.60254,0.32031c-0.07031,0.10889-0.11426,0.24463-0.11914,0.4292h-0.40234
			c0.0166-0.36377,0.13086-0.58643,0.27246-0.74951c0.15137-0.17383,0.40625-0.36963,0.85742-0.36963
			c0.64063,0,1.11914,0.45654,1.11914,1.08105c0,0.24463-0.07031,0.46729-0.28711,0.77686
			c-0.15234,0.21191-0.34766,0.43457-0.49512,0.60303l-0.75488,0.85303h1.53125v0.36914H157.93066z"/>
		<path fill="#A3A3A3" d="M162.8418,215.27002h0.44531v0.36914h-0.44531v0.68457h-0.40234v-0.68457h-1.85742l2.25977-3.13965
			V215.27002z M162.43945,215.27002v-1.60254l-1.14648,1.60254H162.43945z"/>
	</g>
	<g>
		<circle fill="none" cx="135" cy="283.5" r="28.59473"/>
		<path fill="#A3A3A3" d="M105.19531,284.46143c-0.10449,0.06055-0.21875,0.15674-0.28516,0.25146
			c-0.05664,0.08105-0.12598,0.22949-0.1123,0.45654c0.02344,0.39551,0.28418,0.65674,0.65527,0.63477
			c0.15625-0.00928,0.24414-0.05615,0.33984-0.16992c0.11133-0.12695,0.16895-0.28027,0.22656-0.43408l0.14453-0.39258
			c0.08789-0.23926,0.18359-0.46143,0.3418-0.63867c0.19141-0.21533,0.41992-0.31299,0.70801-0.32959
			c0.73633-0.04297,1.25879,0.47266,1.30078,1.19189c0.01465,0.2627-0.01953,0.5957-0.27246,0.88721
			c-0.17969,0.2085-0.44922,0.34424-0.68555,0.41211l-0.14453-0.42383c0.20703-0.04248,0.38281-0.14844,0.49512-0.26953
			c0.16309-0.18359,0.2002-0.38428,0.1875-0.5874c-0.03125-0.54541-0.43652-0.78027-0.83691-0.75635
			c-0.17871,0.01074-0.33203,0.07324-0.45508,0.22461c-0.10059,0.12012-0.16406,0.27979-0.24805,0.49512l-0.14648,0.36865
			c-0.0625,0.16064-0.13477,0.36279-0.29785,0.55225c-0.1582,0.18359-0.33789,0.2959-0.63672,0.31396
			c-0.61719,0.03564-1.05762-0.41309-1.09473-1.05957c-0.01465-0.24561,0.02148-0.44629,0.14063-0.65186
			c0.09961-0.16748,0.25391-0.31445,0.42188-0.41504L105.19531,284.46143z"/>
		<path fill="#A3A3A3" d="M108.36523,279.59131c0.0957,0.17822,0.30664,0.60449,0.24219,1.23779
			c-0.11621,1.14746-1.08887,1.98438-2.27246,1.86426c-1.18848-0.12061-1.96777-1.13574-1.85059-2.28271
			c0.11523-1.14209,1.08203-1.98535,2.27246-1.86426c0.72852,0.07422,1.14844,0.44873,1.37012,0.70605l0.66406-0.52393
			l-0.05859,0.57373L108.36523,279.59131z M107.77246,279.53662c-0.14648-0.16553-0.47656-0.47656-1.0625-0.53662
			c-0.91406-0.09229-1.71777,0.5625-1.80762,1.45313c-0.09082,0.89648,0.56445,1.69336,1.47949,1.78613
			c0.91406,0.09326,1.7168-0.55664,1.80762-1.45264c0.02539-0.25146-0.00195-0.58008-0.17383-0.91113l-1.08984,0.86133
			l0.05859-0.57324L107.77246,279.53662z"/>
		<path fill="#A3A3A3" d="M107.63672,276.8457c0.32324,0.09131,0.67578,0.19043,1.02148-0.04199
			c0.17578-0.11816,0.33789-0.35938,0.39844-0.57324c0.06055-0.21338,0.04883-0.50293-0.04004-0.69629
			c-0.17285-0.37891-0.52539-0.47852-0.84863-0.56982l-2.36035-0.66602l0.12109-0.42627l2.47461,0.69775
			c0.32324,0.09131,0.62598,0.21436,0.85547,0.50342c0.25195,0.3208,0.33984,0.78125,0.20117,1.27148
			c-0.1377,0.49023-0.4541,0.8374-0.83691,0.97852c-0.3457,0.12646-0.66797,0.07324-0.99023-0.01758l-2.47656-0.69922
			l0.12109-0.42676L107.63672,276.8457z"/>
		<path fill="#A3A3A3" d="M110.13574,271.2417l-0.70996,1.54883l0.82422,0.90674l-0.20508,0.44727L107,270.72119l4.56055,0.11768
			l-0.20508,0.44727L110.13574,271.2417z M109.68066,271.22461l-1.73633-0.05713l1.1709,1.28955L109.68066,271.22461z"/>
		<path fill="#A3A3A3" d="M108.99414,267.39453c0.14453-0.22852,0.375-0.55859,0.70801-0.70313
			c0.25684-0.11377,0.62598-0.12207,0.98633,0.10596c0.5166,0.32715,0.68262,0.90869,0.39258,1.44287l2.19336-0.11719
			l-0.29004,0.45654l-2.13281,0.0918l-0.06152,0.0957l1.48145,0.93896l-0.23828,0.375l-3.38379-2.14404L108.99414,267.39453z
			 M110.45508,268.55469l0.15137-0.23779c0.2959-0.4668,0.24902-0.88672-0.14551-1.13818
			c-0.18945-0.11914-0.41113-0.18164-0.66895-0.04639c-0.18164,0.09766-0.30078,0.26416-0.40527,0.42627l-0.14258,0.22803
			L110.45508,268.55469z"/>
		<path fill="#A3A3A3" d="M112.46973,263.41406l-1.03906,1.2583l0.91504,0.75635l1.00977-1.22119l0.32324,0.26758l-1.00781,1.22168
			l1.19824,0.98975l1.03906-1.25928l0.32422,0.26807l-1.32227,1.60059l-3.08594-2.54834l1.32227-1.60156L112.46973,263.41406z"/>
		<path fill="#A3A3A3" d="M114.87598,263.90625l0.94141-0.92285l0.31055,0.31641l-0.94141,0.92334L114.87598,263.90625z"/>
		<path fill="#A3A3A3" d="M118.88477,258.43164c-0.10352-0.05859-0.24609-0.10693-0.36133-0.1167
			c-0.09766-0.00586-0.26172,0.01074-0.4502,0.13867c-0.32813,0.22217-0.41895,0.58105-0.20996,0.88965
			c0.08789,0.12891,0.17383,0.18018,0.32031,0.2041c0.16699,0.03223,0.32813,0.00195,0.48828-0.02734l0.41309-0.07666
			c0.25098-0.04688,0.49121-0.07861,0.72461-0.03369c0.28418,0.0542,0.4834,0.20117,0.64551,0.43945
			c0.41504,0.61133,0.23926,1.32617-0.35742,1.73047c-0.21875,0.14795-0.52246,0.28906-0.90234,0.22021
			c-0.27246-0.04834-0.52637-0.20947-0.70605-0.37842l0.29004-0.3418c0.14355,0.15723,0.32422,0.25293,0.48535,0.2876
			c0.24219,0.04688,0.43262-0.02441,0.60254-0.13916c0.45215-0.30664,0.44629-0.7749,0.2207-1.10742
			c-0.10156-0.14941-0.2334-0.24805-0.42676-0.27686c-0.15527-0.02539-0.32422,0.00293-0.55273,0.04102l-0.39258,0.0625
			c-0.16895,0.02832-0.38086,0.07031-0.62793,0.02734c-0.23828-0.04199-0.42773-0.13818-0.5957-0.38721
			c-0.34766-0.51221-0.1875-1.12109,0.34961-1.48486c0.2041-0.13818,0.39551-0.20996,0.63281-0.21191
			c0.19531-0.00098,0.40137,0.05566,0.57324,0.14893L118.88477,258.43164z"/>
		<path fill="#A3A3A3" d="M123.57227,258.26025l-1.53125,0.74561l0.06152,1.22412l-0.44238,0.21484l-0.17871-4.5752l3.44727,2.98438
			l-0.44238,0.21533L123.57227,258.26025z M123.23145,257.95898l-1.30469-1.14551l0.08594,1.73877L123.23145,257.95898z"/>
		<path fill="#A3A3A3" d="M124.32813,254.76123l1.83789,2.59521l0.32813-3.42432l2.01953,2.75537l0.30273-3.20557l0.47363-0.13477
			l-0.46191,4.51025l-2.00781-2.75879l-0.33398,3.42627l-2.63086-3.62842L124.32813,254.76123z"/>
	</g>
	
		<line fill="none" stroke="#A3A3A3" stroke-width="0.75" stroke-linecap="square" x1="159.23297" y1="162.12016" x2="162.24496" y2="158.14616"/>
	<g>
		<circle fill="none" cx="183.01788" cy="44.24549" r="14.57799"/>
		
			<path fill="#A3A3A3" stroke="#A3A3A3" stroke-width="0.25" stroke-linecap="round" stroke-linejoin="round" stroke-miterlimit="10" d="
			M166.24805,35.74022l3.34863,1.72266l0.53027-1.03223l0.39258,0.20215l-0.74414,1.44727l-3.74121-1.92383L166.24805,35.74022z"/>
		
			<path fill="#A3A3A3" stroke="#A3A3A3" stroke-width="0.25" stroke-linecap="round" stroke-linejoin="round" stroke-miterlimit="10" d="
			M169.2168,32.07812l-1.04492,1.35742l0.98828,0.76074l1.01367-1.31641l0.34863,0.26953l-1.01465,1.31641l1.29199,0.99512
			l1.0459-1.35645l0.34961,0.26855l-1.33008,1.72559l-3.32715-2.5625l1.3291-1.72656L169.2168,32.07812z"/>
		
			<path fill="#A3A3A3" stroke="#A3A3A3" stroke-width="0.25" stroke-linecap="round" stroke-linejoin="round" stroke-miterlimit="10" d="
			M170.10156,30.52245l2.96387,1.70703l-1.1416-3.22363l0.39648-0.33105l1.54297,4.51465l-4.1582-2.33691L170.10156,30.52245z"/>
		
			<path fill="#A3A3A3" stroke="#A3A3A3" stroke-width="0.25" stroke-linecap="round" stroke-linejoin="round" stroke-miterlimit="10" d="
			M175.77051,27.31737l-1.52832,0.77832l0.56641,1.1123l1.4834-0.75488l0.2002,0.39258l-1.4834,0.75586l0.74023,1.45508
			l1.52832-0.77832l0.20117,0.39453l-1.94531,0.98926l-1.90625-3.74805l1.94336-0.98926L175.77051,27.31737z"/>
		
			<path fill="#A3A3A3" stroke="#A3A3A3" stroke-width="0.25" stroke-linecap="round" stroke-linejoin="round" stroke-miterlimit="10" d="
			M177.54785,26.24706l1.07031,3.60156l1.11035-0.33008l0.125,0.42285l-1.55664,0.46191l-1.19531-4.02441L177.54785,26.24706z"/>
		
			<path fill="#A3A3A3" stroke="#A3A3A3" stroke-width="0.25" stroke-linecap="round" stroke-linejoin="round" stroke-miterlimit="10" d="
			M182.82813,27.35644l1.97949,0.0918l-0.03027,0.66504l-1.97949-0.0918L182.82813,27.35644z"/>
		
			<path fill="#A3A3A3" stroke="#A3A3A3" stroke-width="0.25" stroke-linecap="round" stroke-linejoin="round" stroke-miterlimit="10" d="
			M190.83496,29.46483l1.5625,0.79395l-0.0459,0.08984c-0.21094,0.41602-0.5625,0.80273-0.96094,1.00391
			c-0.19043,0.09473-0.87695,0.4043-1.7373-0.0332c-1.11328-0.56543-1.51465-1.83594-0.96094-2.92676
			s1.82324-1.51465,2.94043-0.94629c0.36035,0.18262,0.73633,0.48633,0.95898,0.95313
			c0.10352,0.21387,0.17578,0.46289,0.20801,0.66406l-0.45215,0.12402c-0.03027-0.20703-0.08398-0.4043-0.15723-0.56738
			c-0.10547-0.23828-0.30176-0.5498-0.75098-0.77734c-0.9043-0.45996-1.88086-0.09961-2.32227,0.77148
			c-0.51953,1.02441,0.0332,1.95508,0.74219,2.31445c0.5,0.25391,1.06055,0.2207,1.46582-0.04688
			c0.12793-0.08398,0.29199-0.22852,0.42285-0.45801l-1.11328-0.56445L190.83496,29.46483z"/>
		
			<path fill="#A3A3A3" stroke="#A3A3A3" stroke-width="0.25" stroke-linecap="round" stroke-linejoin="round" stroke-miterlimit="10" d="
			M194.4873,33.3662l-1.30176-1.22754l-1.17969,0.51758l-0.375-0.35449l4.42773-1.87891l-1.65039,4.49707l-0.37598-0.35449
			L194.4873,33.3662z M194.65625,32.92089l0.64063-1.70898l-1.67676,0.73145L194.65625,32.92089z"/>
		
			<path fill="#A3A3A3" stroke="#A3A3A3" stroke-width="0.25" stroke-linecap="round" stroke-linejoin="round" stroke-miterlimit="10" d="
			M198.21289,33.93944l-3.08789,2.14941l-0.26758-0.38281l3.08887-2.15039l-0.58301-0.83691l0.36133-0.25293l1.43359,2.05859
			l-0.3623,0.25195L198.21289,33.93944z"/>
		
			<path fill="#A3A3A3" stroke="#A3A3A3" stroke-width="0.25" stroke-linecap="round" stroke-linejoin="round" stroke-miterlimit="10" d="
			M200.29883,37.96581l-0.68555-1.57031l-1.14258,0.5l0.66602,1.52246l-0.4043,0.17676l-0.66504-1.52344l-1.49512,0.65234
			l0.68555,1.57031l-0.4043,0.17578l-0.87109-1.99707l3.84961-1.68066l0.87109,1.99707L200.29883,37.96581z"/>
	</g>
	<g>
		<circle fill="none" cx="183.01788" cy="44.24549" r="13.74777"/>
		
			<path fill="#A3A3A3" stroke="#A3A3A3" stroke-width="0.25" stroke-linecap="round" stroke-linejoin="round" stroke-miterlimit="10" d="
			M175.6582,57.02538l-2.03613,3.40332l-0.37793-0.22607l2.03613-3.40381L175.6582,57.02538z"/>
		
			<path fill="#A3A3A3" stroke="#A3A3A3" stroke-width="0.25" stroke-linecap="round" stroke-linejoin="round" stroke-miterlimit="10" d="
			M175.52734,61.49022l1.29004-3.92285l1.92285,4.04102l0.95898-2.91748l0.41797,0.13721l-1.29297,3.93311l-1.92383-4.04004
			l-0.95508,2.90527L175.52734,61.49022z"/>
		
			<path fill="#A3A3A3" stroke="#A3A3A3" stroke-width="0.25" stroke-linecap="round" stroke-linejoin="round" stroke-miterlimit="10" d="
			M182.10938,58.97216c0.39844,0.02051,0.72852,0.08545,0.98242,0.33105c0.27832,0.26514,0.33105,0.61963,0.31836,0.86865
			c-0.0293,0.55859-0.41016,1.09229-1.3125,1.04541l-0.38574-0.021l-0.09082,1.72168l-0.43945-0.02295l0.20898-3.96143
			L182.10938,58.97216z M181.73438,60.78026l0.36133,0.01904c0.52344,0.02734,0.85156-0.21631,0.87598-0.6748
			c0.0332-0.62891-0.55176-0.71973-0.83691-0.73486l-0.32617-0.0166L181.73438,60.78026z"/>
		
			<path fill="#A3A3A3" stroke="#A3A3A3" stroke-width="0.25" stroke-linecap="round" stroke-linejoin="round" stroke-miterlimit="10" d="
			M185.21094,61.31835c0.06055,0.32715,0.12695,0.68359,0.48633,0.89063c0.18164,0.104,0.46777,0.14258,0.68359,0.10205
			c0.2168-0.04004,0.46875-0.17822,0.60156-0.34229c0.26172-0.32031,0.19531-0.67676,0.13477-1.00488l-0.44531-2.39209
			l0.43359-0.08057l0.46582,2.50977c0.06152,0.32666,0.08496,0.64941-0.07129,0.98145
			c-0.17383,0.36523-0.5459,0.64648-1.04297,0.7373c-0.49609,0.09229-0.94434-0.03564-1.23828-0.31396
			c-0.26465-0.25391-0.3584-0.5625-0.41895-0.88965l-0.4668-2.50977l0.43262-0.08057L185.21094,61.31835z"/>
		
			<path fill="#A3A3A3" stroke="#A3A3A3" stroke-width="0.25" stroke-linecap="round" stroke-linejoin="round" stroke-miterlimit="10" d="
			M189.36719,58.03417l1.43945,3.24072l-0.40039,0.1792l-1.44141-3.24023l-0.87891,0.38965l-0.16992-0.37891l2.16016-0.96094
			l0.16992,0.37988L189.36719,58.03417z"/>
	</g>
	<g>
		<circle fill="none" cx="134.71875" cy="43.99999" r="14.57799"/>
		
			<path fill="#A3A3A3" stroke="#A3A3A3" stroke-width="0.25" stroke-linecap="round" stroke-linejoin="round" stroke-miterlimit="10" d="
			M123.45605,29.49169l2.34863,2.93262l-0.36523,0.2915l-2.34668-2.93311l-0.7959,0.63672l-0.27539-0.34326l1.95605-1.56494
			l0.27441,0.34326L123.45605,29.49169z"/>
		
			<path fill="#A3A3A3" stroke="#A3A3A3" stroke-width="0.25" stroke-linecap="round" stroke-linejoin="round" stroke-miterlimit="10" d="
			M125.91992,27.36815c0.25391-0.12793,0.63867-0.30176,1.0166-0.25293c0.29199,0.03467,0.62891,0.2251,0.83105,0.625
			c0.29005,0.57227,0.12695,1.18408-0.4209,1.51074l2.03809,1.07178l-0.50586,0.25635l-1.9707-1.06396l-0.10645,0.05469
			l0.83008,1.64014l-0.41602,0.21094l-1.89746-3.74902L125.91992,27.36815z M126.61328,29.19823l0.26465-0.13379
			c0.5166-0.26123,0.7002-0.66553,0.47949-1.10303c-0.10547-0.2085-0.27246-0.38574-0.57617-0.3999
			c-0.2168-0.01074-0.41406,0.07422-0.59375,0.16553l-0.25391,0.12793L126.61328,29.19823z"/>
		
			<path fill="#A3A3A3" stroke="#A3A3A3" stroke-width="0.25" stroke-linecap="round" stroke-linejoin="round" stroke-miterlimit="10" d="
			M129.48047,25.92968l1.2168,4.02197L130.25,30.08642l-1.21484-4.02295L129.48047,25.92968z"/>
		
			<path fill="#A3A3A3" stroke="#A3A3A3" stroke-width="0.25" stroke-linecap="round" stroke-linejoin="round" stroke-miterlimit="10" d="
			M133.82422,27.30272l1.74805-0.12061l0.00781,0.10059c0.03125,0.46484-0.07129,0.97754-0.31055,1.35498
			c-0.11426,0.17822-0.54492,0.79492-1.50781,0.8623c-1.24414,0.08594-2.24023-0.79932-2.3252-2.01855
			c-0.08398-1.21973,0.78613-2.2334,2.03809-2.32178c0.40234-0.02783,0.88086,0.04102,1.31055,0.32764
			c0.19922,0.13037,0.38867,0.30762,0.51953,0.46289l-0.32422,0.33789c-0.13086-0.16211-0.28027-0.30273-0.42578-0.40723
			c-0.21289-0.14893-0.54102-0.31543-1.04297-0.28076c-1.0127,0.0708-1.66406,0.87939-1.59668,1.85352
			c0.0791,1.14551,1.03027,1.66064,1.82324,1.60596c0.55957-0.03857,1.02344-0.35547,1.23438-0.79346
			c0.06641-0.1377,0.13281-0.34521,0.12793-0.60938l-1.24512,0.08691L133.82422,27.30272z"/>
		
			<path fill="#A3A3A3" stroke="#A3A3A3" stroke-width="0.25" stroke-linecap="round" stroke-linejoin="round" stroke-miterlimit="10" d="
			M139.24414,27.89745l1.69336,0.44092l-0.02441,0.09863c-0.11816,0.44971-0.37891,0.90234-0.72559,1.18311
			c-0.16406,0.1333-0.76953,0.58105-1.70117,0.33887c-1.20703-0.31494-1.86914-1.46973-1.56152-2.65234
			c0.30762-1.18164,1.45605-1.86621,2.66895-1.55078c0.38965,0.10205,0.82129,0.31836,1.13867,0.72607
			c0.14648,0.18799,0.26953,0.41455,0.34375,0.604l-0.41504,0.21777c-0.07324-0.19434-0.16895-0.37695-0.27441-0.52051
			c-0.1543-0.20898-0.41113-0.47217-0.89844-0.59814c-0.98145-0.25586-1.85547,0.30371-2.10156,1.24902
			c-0.28906,1.10791,0.44727,1.89941,1.2168,2.09961c0.54199,0.14111,1.08301-0.01074,1.4209-0.35889
			c0.10645-0.10938,0.23535-0.28418,0.31543-0.53711l-1.20703-0.31348L139.24414,27.89745z"/>
		
			<path fill="#A3A3A3" stroke="#A3A3A3" stroke-width="0.25" stroke-linecap="round" stroke-linejoin="round" stroke-miterlimit="10" d="
			M144.95313,28.70214l-1.48242-0.85889l-0.62695,1.07813l1.43945,0.83496l-0.2207,0.38135l-1.43945-0.83398l-0.81836,1.41162
			l1.48242,0.85889l-0.2207,0.38184l-1.88672-1.09424l2.10742-3.63428l1.88672,1.09326L144.95313,28.70214z"/>
		
			<path fill="#A3A3A3" stroke="#A3A3A3" stroke-width="0.25" stroke-linecap="round" stroke-linejoin="round" stroke-miterlimit="10" d="
			M147.17188,29.90136c0.20898,0.19287,0.50781,0.49268,0.59375,0.86377c0.07031,0.28711,0.00977,0.66943-0.29297,0.99854
			c-0.43555,0.47314-1.06641,0.53564-1.56641,0.13721l-0.28711,2.2876l-0.41797-0.38428l0.30469-2.22217l-0.08887-0.07959
			l-1.24707,1.354l-0.34375-0.31543l2.84961-3.09619L147.17188,29.90136z M145.69922,31.1953l0.21875,0.20068
			c0.42578,0.39209,0.86914,0.42383,1.20313,0.06152c0.15723-0.17188,0.26367-0.39014,0.17188-0.68115
			c-0.06641-0.20752-0.2168-0.36182-0.36426-0.49854l-0.20898-0.19287L145.69922,31.1953z"/>
	</g>
	<g>
		<g>
			
				<path fill="#A3A3A3" stroke="#A3A3A3" stroke-width="0.25" stroke-linecap="round" stroke-linejoin="round" stroke-miterlimit="10" d="
				M127.11914,56.91308l-2.23633,3.55322l-0.39453-0.24756l2.2373-3.55371L127.11914,56.91308z"/>
			
				<path fill="#A3A3A3" stroke="#A3A3A3" stroke-width="0.25" stroke-linecap="round" stroke-linejoin="round" stroke-miterlimit="10" d="
				M126.86719,61.62694l1.41992-4.14551l1.98828,4.3125l1.05664-3.08301l0.44141,0.15088l-1.42383,4.15869l-1.98828-4.31348
				l-1.05273,3.07178L126.86719,61.62694z"/>
			
				<path fill="#A3A3A3" stroke="#A3A3A3" stroke-width="0.25" stroke-linecap="round" stroke-linejoin="round" stroke-miterlimit="10" d="
				M133.84766,59.02782c0.42188,0.02393,0.77148,0.09277,1.04102,0.354c0.29395,0.28076,0.34961,0.65674,0.33398,0.92139
				c-0.03125,0.59131-0.43555,1.15527-1.39258,1.104l-0.4082-0.02246l-0.10059,1.82471l-0.46582-0.02588l0.23047-4.19824
				L133.84766,59.02782z M133.44531,60.94384l0.38477,0.021c0.55371,0.02979,0.90234-0.22852,0.92871-0.71289
				c0.03711-0.66748-0.58301-0.76416-0.88477-0.78076l-0.34668-0.01904L133.44531,60.94384z"/>
			
				<path fill="#A3A3A3" stroke="#A3A3A3" stroke-width="0.25" stroke-linecap="round" stroke-linejoin="round" stroke-miterlimit="10" d="
				M137.1543,61.50683c0.06836,0.34668,0.14258,0.72363,0.52344,0.93799c0.19434,0.10791,0.49609,0.146,0.72461,0.10059
				c0.22949-0.04443,0.49609-0.19238,0.63379-0.36768c0.27246-0.34131,0.19922-0.71777,0.13184-1.06396l-0.49414-2.52539
				l0.45703-0.08936l0.51855,2.64893c0.06738,0.34619,0.0957,0.68652-0.06641,1.03857
				c-0.18066,0.38867-0.57129,0.68896-1.0957,0.7915c-0.52441,0.10205-0.99902-0.02881-1.3125-0.3208
				c-0.28223-0.26465-0.38574-0.59131-0.45215-0.93652l-0.51758-2.64941l0.45605-0.08936L137.1543,61.50683z"/>
			
				<path fill="#A3A3A3" stroke="#A3A3A3" stroke-width="0.25" stroke-linecap="round" stroke-linejoin="round" stroke-miterlimit="10" d="
				M141.47949,57.96435l1.60059,3.40088l-0.4209,0.19873l-1.60059-3.3999l-0.92383,0.43408l-0.1875-0.39893l2.26758-1.06738
				l0.1875,0.39893L141.47949,57.96435z"/>
		</g>
	</g>
</g>
</svg>
