<?xml version="1.0" encoding="utf-8"?>
<!-- Generator: Adobe Illustrator 24.0.2, SVG Export Plug-In . SVG Version: 6.00 Build 0)  -->
<svg version="1.0" id="Layer_1" xmlns="http://www.w3.org/2000/svg" xmlns:xlink="http://www.w3.org/1999/xlink" x="0px" y="0px"
	 width="270px" height="380px" viewBox="0 0 270 380" enable-background="new 0 0 270 380" xml:space="preserve">
<g id="_x34_">
	<g>
		<circle fill="#262424" stroke="#606266" stroke-width="0.5" stroke-miterlimit="10" cx="135" cy="198.5" r="34.93385"/>
		
			<line fill="none" stroke="#606266" stroke-width="0.75" stroke-miterlimit="10" x1="135" y1="198.5" x2="110.59309" y2="222.90691"/>
		
			<line fill="none" stroke="#606266" stroke-width="0.5" stroke-miterlimit="10" x1="135" y1="198.5" x2="102.63982" y2="210.70346"/>
		
			<line fill="none" stroke="#606266" stroke-width="0.75" stroke-miterlimit="10" x1="134.97266" y1="198.5" x2="100.10973" y2="200.23425"/>
		
			<line fill="none" stroke="#606266" stroke-width="0.5" stroke-miterlimit="10" x1="134.97266" y1="198.5" x2="102.84383" y2="184.82704"/>
		
			<line fill="none" stroke="#606266" stroke-width="0.5" stroke-miterlimit="10" x1="135" y1="198.5" x2="127.90034" y2="164.28827"/>
		
			<line fill="none" stroke="#606266" stroke-width="0.5" stroke-miterlimit="10" x1="135" y1="198.5" x2="142.09966" y2="164.28824"/>
		
			<line fill="none" stroke="#606266" stroke-width="0.5" stroke-miterlimit="10" x1="135" y1="198.5" x2="167.69551" y2="210.82991"/>
		
			<line fill="none" stroke="#606266" stroke-width="0.75" stroke-miterlimit="10" x1="135" y1="198.5" x2="159.70186" y2="223.20186"/>
		<circle fill="#262424" stroke="#606266" stroke-width="0.75" stroke-miterlimit="10" cx="135" cy="198.5" r="23.5"/>
	</g>
	<g>
		<path fill="#A3A3A3" d="M108.41797,216.26367c0.21582,0,0.40039,0.18408,0.40039,0.3999s-0.18457,0.3999-0.40039,0.3999
			s-0.40039-0.18408-0.40039-0.3999S108.20215,216.26367,108.41797,216.26367z"/>
		<path fill="#A3A3A3" d="M113.16016,212.19385h-1.71094l-0.34375,1.15137c0.10352-0.02393,0.20801-0.03174,0.33594-0.03174
			c1.07129,0,1.75977,0.80762,1.75977,1.84668c0,1.19141-0.89648,1.91895-1.94336,1.91895
			c-0.43164,0-0.83203-0.11963-1.19141-0.41553c-0.16797-0.14404-0.33594-0.32764-0.46387-0.54346l0.47168-0.33594
			c0.08789,0.17578,0.19922,0.30371,0.35938,0.43164c0.22461,0.18408,0.49609,0.31982,0.86328,0.31982
			c0.75195,0,1.3125-0.61572,1.3125-1.36719c0-0.76758-0.55273-1.31152-1.3125-1.31152c-0.19141,0-0.55078,0.03223-1.03125,0.36816
			l0.77539-2.57471h2.11914v0.54346H113.16016z"/>
	</g>
	<g>
		<path fill="#A3A3A3" d="M160.49219,215.51221c0,0.83154-0.54297,1.56689-1.63086,1.56689
			c-1.08691,0-1.63086-0.73535-1.63086-1.56689c0-0.57568,0.26367-1.06348,0.80762-1.30322
			c-0.42383-0.24805-0.64746-0.67188-0.64746-1.16748c0-0.75928,0.51172-1.479,1.4707-1.479
			c0.95996,0,1.47168,0.71973,1.47168,1.479c0,0.49561-0.22363,0.91943-0.64746,1.16748
			C160.22852,214.44873,160.49219,214.93652,160.49219,215.51221z M159.90039,215.49609c0-0.59961-0.43164-1.01514-1.03906-1.01514
			s-1.03906,0.41553-1.03906,1.01514c0,0.60791,0.42383,1.03955,1.03906,1.03955S159.90039,216.104,159.90039,215.49609z
			 M159.77344,213.0498c0-0.58398-0.42383-0.94385-0.91211-0.94385c-0.4873,0-0.91113,0.35986-0.91113,0.94385
			c0,0.52734,0.3916,0.91943,0.91113,0.91943S159.77344,213.57715,159.77344,213.0498z"/>
	</g>
	<g>
		<path fill="#A3A3A3" d="M133.37891,172.6582l1.94238-2.24658c0.13574-0.16016,0.49512-0.58398,0.62402-0.77588
			c0.23926-0.34375,0.29492-0.59961,0.29492-0.81543c0-0.59961-0.43164-1.03955-1.0625-1.03955
			c-0.37598,0-0.6875,0.16797-0.8877,0.47168c-0.10449,0.16016-0.16797,0.35986-0.17676,0.63184h-0.59082
			c0.02441-0.53564,0.19141-0.86377,0.39941-1.10352c0.22461-0.25586,0.59961-0.54346,1.26367-0.54346
			c0.94336,0,1.64648,0.67139,1.64648,1.59082c0,0.35986-0.10352,0.68799-0.42383,1.14355
			c-0.22363,0.31201-0.51172,0.63965-0.72656,0.8877l-1.11133,1.25488h2.25391v0.54395H133.37891z"/>
	</g>
	<g>
		<path fill="#A3A3A3" d="M105.78906,190.75488h-0.89648l0.3125-0.55957h1.17578v5.33301h-0.5918
			C105.78907,195.52832,105.78907,190.75488,105.78906,190.75488z"/>
	</g>
	<rect y="-0.00001" fill="none" width="270" height="380"/>
	<g>
		<circle fill="#262424" stroke="#606266" stroke-width="0.75" stroke-miterlimit="10" cx="83.5" cy="145.5" r="34.93385"/>
		
			<line fill="none" stroke="#606266" stroke-width="0.75" stroke-miterlimit="10" x1="83.5" y1="145.5" x2="58.79808" y2="170.20192"/>
		
			<line fill="none" stroke="#606266" stroke-width="0.5" stroke-miterlimit="10" x1="83.5" y1="145.5" x2="50.8044" y2="157.82994"/>
		
			<line fill="none" stroke="#606266" stroke-width="0.5" stroke-miterlimit="10" x1="83.5" y1="145.5" x2="116.19559" y2="157.82994"/>
		
			<line fill="none" stroke="#606266" stroke-width="0.75" stroke-miterlimit="10" x1="83.5" y1="145.5" x2="108.20195" y2="170.20195"/>
		<circle fill="#262424" stroke="#606266" stroke-width="0.75" stroke-miterlimit="10" cx="83.5" cy="145.5" r="23.5"/>
	</g>
	<g>
		<circle fill="#262424" stroke="#606266" stroke-width="0.5" stroke-miterlimit="10" cx="186.44551" cy="145.5" r="34.93385"/>
		<circle fill="#262424" stroke="#606266" stroke-width="0.75" stroke-miterlimit="10" cx="186.44551" cy="145.5" r="34.93385"/>
		
			<line fill="none" stroke="#606266" stroke-width="0.5" stroke-miterlimit="10" x1="186.44551" y1="145.5" x2="154.08533" y2="157.70346"/>
		
			<line fill="none" stroke="#606266" stroke-width="0.5" stroke-miterlimit="10" x1="186.44551" y1="145.5" x2="218.80569" y2="157.70346"/>
		
			<line fill="none" stroke="#606266" stroke-width="0.5" stroke-miterlimit="10" x1="186.44551" y1="145.88486" x2="179.34586" y2="111.67311"/>
		
			<line fill="none" stroke="#606266" stroke-width="0.75" stroke-miterlimit="10" x1="186.2397" y1="145.5" x2="153.05998" y2="135.18626"/>
		
			<line fill="none" stroke="#606266" stroke-width="0.5" stroke-miterlimit="10" x1="186.2397" y1="145.5" x2="160.15132" y2="122.50034"/>
		
			<line fill="none" stroke="#606266" stroke-width="0.5" stroke-miterlimit="10" x1="186.44551" y1="145.88486" x2="193.54517" y2="111.6731"/>
		
			<line fill="none" stroke="#606266" stroke-width="0.75" stroke-miterlimit="10" x1="186.44551" y1="145.5" x2="161.74948" y2="170.19603"/>
		
			<line fill="none" stroke="#606266" stroke-width="0.75" stroke-miterlimit="10" x1="186.44551" y1="145.5" x2="211.14154" y2="170.19603"/>
		<circle fill="#262424" stroke="#606266" stroke-width="0.75" stroke-miterlimit="10" cx="186.44551" cy="145.5" r="23.5"/>
	</g>
	<g>
		<circle fill="#262424" stroke="#606266" stroke-width="0.5" stroke-miterlimit="10" cx="135" cy="283.5" r="34.93385"/>
		
			<line fill="none" stroke="#606266" stroke-width="0.75" stroke-miterlimit="10" x1="135" y1="283.5" x2="110.30396" y2="308.19604"/>
		
			<line fill="none" stroke="#606266" stroke-width="0.75" stroke-miterlimit="10" x1="135" y1="283.5" x2="159.69603" y2="308.19604"/>
		<line fill="none" stroke="#606266" stroke-width="0.5" stroke-miterlimit="10" x1="135" y1="248.56616" x2="135" y2="283.5"/>
		<circle fill="#262424" stroke="#606266" stroke-width="0.75" stroke-miterlimit="10" cx="135" cy="283.5" r="23.5"/>
	</g>
	<g>
		<circle fill="none" cx="71" cy="351" r="14.578"/>
		
			<path fill="#A3A3A3" stroke="#A3A3A3" stroke-width="0.25" stroke-linecap="round" stroke-linejoin="round" stroke-miterlimit="10" d="
			M52.63672,350.22949l0.03125,1.44727l1.24023-0.02539l-0.0293-1.39844l0.44141-0.00879l0.02832,1.39893l2.0791-0.04395
			l0.00977,0.46533l-4.20117,0.08838l-0.04102-1.91504L52.63672,350.22949z"/>
		
			<path fill="#A3A3A3" stroke="#A3A3A3" stroke-width="0.25" stroke-linecap="round" stroke-linejoin="round" stroke-miterlimit="10" d="
			M54.27539,349.14746c-1.2168-0.29736-1.87891-1.46436-1.5918-2.63818c0.28711-1.1748,1.41211-1.90576,2.62891-1.60742
			c1.21094,0.29492,1.88086,1.45703,1.5918,2.63721C56.61621,348.71973,55.4873,349.44287,54.27539,349.14746z M54.38965,348.68213
			c0.93555,0.229,1.8623-0.3291,2.08691-1.24707c0.22461-0.91748-0.3418-1.83984-1.27734-2.06885
			c-0.93555-0.22803-1.86328,0.33008-2.08691,1.24756C52.8877,347.53174,53.45313,348.45361,54.38965,348.68213z"/>
		
			<path fill="#A3A3A3" stroke="#A3A3A3" stroke-width="0.25" stroke-linecap="round" stroke-linejoin="round" stroke-miterlimit="10" d="
			M54.43359,342.11572c0.13867-0.24707,0.36133-0.60547,0.70215-0.77588c0.2627-0.13379,0.64746-0.16309,1.03809,0.05518
			c0.55957,0.31494,0.76367,0.91309,0.49219,1.48828l2.28711-0.24561l-0.27637,0.49512l-2.22754,0.21387l-0.05859,0.10449
			l1.60254,0.89844l-0.22754,0.40771l-3.66113-2.0542L54.43359,342.11572z M56.02832,343.24854l0.14551-0.25879
			c0.2832-0.50439,0.21094-0.94189-0.21777-1.18262c-0.20313-0.11328-0.44043-0.16748-0.7002-0.01025
			c-0.1875,0.11182-0.30273,0.29297-0.40039,0.46875l-0.13867,0.24609L56.02832,343.24854z"/>
		
			<path fill="#A3A3A3" stroke="#A3A3A3" stroke-width="0.25" stroke-linecap="round" stroke-linejoin="round" stroke-miterlimit="10" d="
			M59.13477,342.18506l-2.61133-3.6499l3.63477,1.396l-1.31836-3.68359l3.58008,2.70557l-0.34082,0.33496l-2.33105-1.80371
			l1.15234,3.21045l-3.17773-1.21924l1.75195,2.37402L59.13477,342.18506z"/>
		
			<path fill="#A3A3A3" stroke="#A3A3A3" stroke-width="0.25" stroke-linecap="round" stroke-linejoin="round" stroke-miterlimit="10" d="
			M64.71484,336.48096l-1.5957,0.80322l0.08203,1.28271l-0.46094,0.23242l-0.25195-4.79834l3.6582,3.0835l-0.46094,0.23193
			L64.71484,336.48096z M64.35352,336.16895l-1.38477-1.18408l0.11523,1.82275L64.35352,336.16895z"/>
		
			<path fill="#A3A3A3" stroke="#A3A3A3" stroke-width="0.25" stroke-linecap="round" stroke-linejoin="round" stroke-miterlimit="10" d="
			M66.60352,336.93799l-0.76563-4.30811l3.82422,2.80518l-0.57031-3.20557l0.45898-0.08057l0.76758,4.32129l-3.82422-2.80615
			l0.56836,3.19287L66.60352,336.93799z"/>
		
			<path fill="#A3A3A3" stroke="#A3A3A3" stroke-width="0.25" stroke-linecap="round" stroke-linejoin="round" stroke-miterlimit="10" d="
			M72.5957,332.69336l-0.2793,3.75391l-0.46484-0.03369l0.2793-3.75439l-1.01953-0.07666l0.0332-0.44043l2.50293,0.18701
			l-0.03223,0.43994L72.5957,332.69336z"/>
		
			<path fill="#A3A3A3" stroke="#A3A3A3" stroke-width="0.25" stroke-linecap="round" stroke-linejoin="round" stroke-miterlimit="10" d="
			M79.03906,336.3374l1.55176,0.81396l-0.04688,0.08984c-0.21777,0.41309-0.5752,0.79541-0.97656,0.99023
			c-0.19043,0.09229-0.88184,0.39111-1.73535-0.05762c-1.10547-0.58008-1.49023-1.85742-0.91992-2.94092
			c0.56836-1.08301,1.84375-1.48828,2.95508-0.90527c0.35645,0.1875,0.72852,0.49658,0.94531,0.96729
			c0.09961,0.21533,0.16797,0.46533,0.19727,0.6665l-0.45313,0.11768c-0.02734-0.20605-0.08008-0.4043-0.15039-0.57031
			c-0.10156-0.23926-0.29297-0.55322-0.74023-0.78711c-0.89844-0.47217-1.87891-0.125-2.33301,0.73975
			c-0.53418,1.01611,0.00488,1.95508,0.70996,2.32471c0.49609,0.26074,1.05762,0.23584,1.4668-0.02637
			c0.12891-0.08301,0.29492-0.22266,0.42969-0.45166l-1.10547-0.58105L79.03906,336.3374z"/>
		
			<path fill="#A3A3A3" stroke="#A3A3A3" stroke-width="0.25" stroke-linecap="round" stroke-linejoin="round" stroke-miterlimit="10" d="
			M83.49609,336.94092c0.20898,0.19287,0.50586,0.49365,0.5918,0.86523c0.06836,0.28711,0.00781,0.66895-0.29688,0.99854
			c-0.4375,0.47168-1.06836,0.53125-1.56641,0.13135l-0.2959,2.28711l-0.41699-0.38574l0.3125-2.22217l-0.08789-0.08105
			l-1.25195,1.35205l-0.3418-0.31787l2.8584-3.08643L83.49609,336.94092z M82.01953,338.22852l0.2168,0.20264
			c0.42578,0.39404,0.86914,0.42578,1.20313,0.06543c0.15918-0.17139,0.2666-0.39014,0.17578-0.68115
			c-0.06641-0.20801-0.21484-0.3623-0.36328-0.49902l-0.20898-0.19336L82.01953,338.22852z"/>
		
			<path fill="#A3A3A3" stroke="#A3A3A3" stroke-width="0.25" stroke-linecap="round" stroke-linejoin="round" stroke-miterlimit="10" d="
			M84.62891,343l-0.98926-1.48828l-1.26465,0.23486l-0.28711-0.42969l4.73633-0.82715l-2.62305,4.00439l-0.28613-0.42969
			L84.62891,343z M84.89453,342.60449l1.00977-1.51904l-1.79688,0.3335L84.89453,342.60449z"/>
		
			<path fill="#A3A3A3" stroke="#A3A3A3" stroke-width="0.25" stroke-linecap="round" stroke-linejoin="round" stroke-miterlimit="10" d="
			M88.4082,343.92139l-3.875,1.62256l-0.17969-0.43018l3.875-1.62158L88.4082,343.92139z"/>
		
			<path fill="#A3A3A3" stroke="#A3A3A3" stroke-width="0.25" stroke-linecap="round" stroke-linejoin="round" stroke-miterlimit="10" d="
			M85.00391,346.50781l4.30859-0.77539l-2.79688,3.83154l3.2041-0.57764l0.08301,0.45801l-4.32031,0.7793l2.79688-3.83154
			l-3.19238,0.57373L85.00391,346.50781z"/>
		
			<path fill="#A3A3A3" stroke="#A3A3A3" stroke-width="0.25" stroke-linecap="round" stroke-linejoin="round" stroke-miterlimit="10" d="
			M88.81348,353.33789c0.11816-0.04736,0.25098-0.13086,0.33496-0.21777c0.07031-0.07666,0.16504-0.21973,0.18555-0.4585
			c0.03516-0.41455-0.19629-0.72607-0.58594-0.75928c-0.16309-0.01416-0.26172,0.02148-0.37793,0.125
			c-0.13574,0.11523-0.21875,0.26514-0.30176,0.41699l-0.21094,0.38623c-0.12793,0.23535-0.26074,0.45215-0.45117,0.6123
			c-0.23242,0.19531-0.48438,0.26221-0.78711,0.23535c-0.77148-0.06641-1.2373-0.68311-1.17188-1.43652
			c0.02344-0.27686,0.11035-0.6167,0.41797-0.88037c0.21875-0.19092,0.51855-0.2915,0.77539-0.32666l0.08594,0.46484
			c-0.22266,0.01221-0.41992,0.09521-0.55566,0.20459c-0.19824,0.1665-0.26563,0.36914-0.28418,0.58203
			c-0.0498,0.57227,0.33496,0.87744,0.75586,0.91406c0.1875,0.01611,0.35645-0.02588,0.50781-0.16504
			c0.12305-0.10986,0.21289-0.2666,0.33203-0.47754l0.20898-0.36133c0.08984-0.15723,0.19531-0.35645,0.39453-0.52881
			c0.19043-0.16699,0.39453-0.25732,0.70898-0.22949c0.64648,0.05615,1.03711,0.59033,0.97852,1.26807
			c-0.02344,0.25684-0.09082,0.45947-0.24707,0.65625c-0.12793,0.15869-0.30957,0.28906-0.5,0.36768L88.81348,353.33789z"/>
	</g>
	<g>
		<circle fill="none" cx="199.5" cy="351.03378" r="14.578"/>
		
			<path fill="#A3A3A3" stroke="#A3A3A3" stroke-width="0.25" stroke-linecap="round" stroke-linejoin="round" stroke-miterlimit="10" d="
			M188.05078,337.18506c-0.18652,0.00049-0.43945,0.0332-0.66309,0.11426c-0.22656,0.08447-0.45313,0.22412-0.62598,0.39844
			c-0.68359,0.68848-0.63477,1.74902,0.05371,2.43213c0.80957,0.8042,1.86816,0.55029,2.41016,0.00439
			c0.2002-0.20117,0.33691-0.45605,0.41211-0.69141c0.08301-0.25439,0.0918-0.48633,0.09082-0.59326l0.41211,0.40771
			c-0.0918,0.56592-0.37988,0.96484-0.60156,1.1875c-0.87891,0.88574-2.20215,0.87695-3.06641,0.02051
			c-0.88867-0.88232-0.88965-2.20557-0.00195-3.10059c0.17773-0.17871,0.54102-0.50146,1.16895-0.58789L188.05078,337.18506z"/>
		
			<path fill="#A3A3A3" stroke="#A3A3A3" stroke-width="0.25" stroke-linecap="round" stroke-linejoin="round" stroke-miterlimit="10" d="
			M191.04492,338.56152l1.90527-1.16309l0.22949,0.37744l-2.57227,1.56934l-0.00098-4.40869l-1.70605,1.04004l-0.23047-0.37598
			l2.375-1.44873V338.56152z"/>
		
			<path fill="#A3A3A3" stroke="#A3A3A3" stroke-width="0.25" stroke-linecap="round" stroke-linejoin="round" stroke-miterlimit="10" d="
			M197.2832,332.76904l-1.42578,0.25586l0.2207,1.2207l1.375-0.24756l0.0791,0.43408l-1.37598,0.24854l0.36914,2.04492
			l-0.45898,0.08301l-0.74512-4.13379l1.88379-0.34082L197.2832,332.76904z"/>
		
			<path fill="#A3A3A3" stroke="#A3A3A3" stroke-width="0.25" stroke-linecap="round" stroke-linejoin="round" stroke-miterlimit="10" d="
			M199.20117,332.22412l0.11719,4.19824l-0.4668,0.0127l-0.11719-4.19824L199.20117,332.22412z"/>
		
			<path fill="#A3A3A3" stroke="#A3A3A3" stroke-width="0.25" stroke-linecap="round" stroke-linejoin="round" stroke-miterlimit="10" d="
			M201.38672,332.31738l-0.39844,3.73779l1.15137,0.12305l-0.04688,0.4375l-1.61621-0.17236l0.44727-4.17627L201.38672,332.31738z"
			/>
		
			<path fill="#A3A3A3" stroke="#A3A3A3" stroke-width="0.25" stroke-linecap="round" stroke-linejoin="round" stroke-miterlimit="10" d="
			M204.6875,333.41162l-1.02246,3.6167l-0.44824-0.12695l1.02246-3.61719l-0.98145-0.27734l0.11914-0.42432l2.41211,0.68213
			l-0.11914,0.42334L204.6875,333.41162z"/>
		
			<path fill="#A3A3A3" stroke="#A3A3A3" stroke-width="0.25" stroke-linecap="round" stroke-linejoin="round" stroke-miterlimit="10" d="
			M208.87207,335.1875l-1.5293-0.77637l-0.56543,1.11328l1.48438,0.75342l-0.19922,0.39307l-1.48438-0.75244l-0.73828,1.45508
			l1.52832,0.77734l-0.19922,0.39404l-1.94531-0.98828l1.90332-3.75049l1.94531,0.9873L208.87207,335.1875z"/>
		
			<path fill="#A3A3A3" stroke="#A3A3A3" stroke-width="0.25" stroke-linecap="round" stroke-linejoin="round" stroke-miterlimit="10" d="
			M211.04492,336.18652c0.21973,0.17871,0.53516,0.45898,0.64453,0.82471c0.08789,0.28271,0.05176,0.6665-0.23047,1.01465
			c-0.40527,0.49805-1.03125,0.59863-1.55273,0.23242l-0.14648,2.2998l-0.44141-0.35742l0.16797-2.23486l-0.09375-0.07666
			l-1.15918,1.42969l-0.3623-0.29443l2.65039-3.26318L211.04492,336.18652z M209.65625,337.56641l0.22852,0.18799
			c0.45117,0.36426,0.89453,0.36816,1.20508-0.01367c0.14648-0.18066,0.23926-0.40527,0.12988-0.68896
			c-0.0791-0.20264-0.23828-0.34863-0.39453-0.47461l-0.21973-0.17871L209.65625,337.56641z"/>
		
			<path fill="#A3A3A3" stroke="#A3A3A3" stroke-width="0.25" stroke-linecap="round" stroke-linejoin="round" stroke-miterlimit="10" d="
			M214.03906,340.43945c0.05273-0.11475,0.09277-0.26758,0.09277-0.38867c-0.00195-0.10303-0.03223-0.27246-0.18164-0.46045
			c-0.25879-0.32471-0.64258-0.39111-0.94824-0.14746c-0.12793,0.10254-0.17383,0.19727-0.1875,0.35156
			c-0.01953,0.17725,0.02441,0.34424,0.06836,0.51074l0.11328,0.42529c0.07031,0.2583,0.12305,0.50684,0.0957,0.75537
			c-0.03516,0.30078-0.17188,0.52441-0.4082,0.71289c-0.60645,0.4834-1.36816,0.35742-1.83984-0.23438
			c-0.17383-0.21631-0.3457-0.52344-0.30469-0.92627c0.02734-0.28857,0.17578-0.56836,0.33789-0.77002l0.38184,0.27686
			c-0.15332,0.16162-0.2373,0.35791-0.26172,0.53125c-0.0293,0.25635,0.06152,0.4502,0.19531,0.61768
			c0.3584,0.44824,0.84668,0.40479,1.17676,0.1416c0.14844-0.11719,0.24023-0.26514,0.25586-0.46875
			c0.01367-0.16455-0.0293-0.34082-0.08887-0.57617l-0.09766-0.40576c-0.04297-0.17529-0.10449-0.39307-0.0791-0.65527
			c0.02441-0.25293,0.11035-0.45801,0.35742-0.6543c0.50684-0.40576,1.1582-0.28809,1.58203,0.24512
			c0.16211,0.20166,0.25195,0.39648,0.27344,0.64551c0.01758,0.2041-0.02539,0.42285-0.10938,0.61035L214.03906,340.43945z"/>
	</g>
	<g>
		
			<ellipse transform="matrix(0.08248 -0.99659 0.99659 0.08248 7.76603 241.4274)" fill="none" cx="135" cy="116.49604" rx="25.58" ry="25.58002"/>
		<path fill="#A3A3A3" stroke="#A3A3A3" stroke-width="0.25" stroke-miterlimit="10" d="M105.36914,110.44727l4.58008,0.90137
			l-0.09961,0.50781l-4.58008-0.90088L105.36914,110.44727z"/>
		<path fill="#A3A3A3" stroke="#A3A3A3" stroke-width="0.25" stroke-miterlimit="10" d="M105.70117,108.88964l3.79297-0.20752
			l-3.01758-2.30811l0.16992-0.5498l4.17285,3.26709l-5.28809,0.34717L105.70117,108.88964z"/>
		<path fill="#A3A3A3" stroke="#A3A3A3" stroke-width="0.25" stroke-miterlimit="10" d="M110.70703,106.69188
			c0.07129-0.1748,0.28027-0.26367,0.45508-0.19287c0.17578,0.0708,0.26367,0.28027,0.19336,0.45508
			c-0.07031,0.17627-0.28125,0.26416-0.45508,0.19287C110.72461,107.07714,110.63672,106.86718,110.70703,106.69188z"/>
		<path fill="#A3A3A3" stroke="#A3A3A3" stroke-width="0.25" stroke-miterlimit="10" d="M111.76563,101.04052l1.05859-1.63232
			l0.09375,0.06201c0.43359,0.28125,0.82031,0.71484,0.99512,1.17822c0.08203,0.21973,0.34277,1.01465-0.24023,1.91309
			c-0.75391,1.16211-2.2041,1.45605-3.34277,0.71777c-1.13965-0.73877-1.45898-2.18848-0.70117-3.35742
			c0.24414-0.37549,0.62305-0.75537,1.16406-0.9458c0.25-0.08838,0.5332-0.13867,0.75781-0.15088l0.08398,0.5127
			c-0.23145,0.00928-0.45605,0.04639-0.64453,0.10791c-0.27539,0.08789-0.64063,0.26807-0.94629,0.73779
			c-0.6123,0.94531-0.3291,2.06348,0.58105,2.65381c1.06934,0.69287,2.16113,0.19189,2.64063-0.54785
			c0.33887-0.52246,0.36816-1.14648,0.11914-1.62354c-0.07813-0.15137-0.21582-0.34961-0.45508-0.52051l-0.75391,1.16211
			L111.76563,101.04052z"/>
		<path fill="#A3A3A3" stroke="#A3A3A3" stroke-width="0.25" stroke-miterlimit="10" d="M112.37109,96.45361
			c0.21191-0.23291,0.54297-0.56592,0.9541-0.66455c0.31836-0.08008,0.74316-0.0166,1.11035,0.31738
			c0.52832,0.47998,0.60156,1.18066,0.16309,1.73682l2.54199,0.30469l-0.42383,0.46533l-2.46875-0.32227l-0.08887,0.09912
			l1.5127,1.37354l-0.34766,0.38379l-3.45703-3.13965L112.37109,96.45361z M113.81738,98.07909l0.2207-0.24316
			c0.43262-0.47754,0.46387-0.96875,0.05957-1.33594c-0.19141-0.17383-0.43555-0.29199-0.75781-0.18652
			c-0.22852,0.0752-0.39844,0.2417-0.5498,0.40723l-0.21191,0.23389L113.81738,98.07909z"/>
		<path fill="#A3A3A3" stroke="#A3A3A3" stroke-width="0.25" stroke-miterlimit="10" d="M118.75586,95.06347l-1.53711,1.26025
			l0.40137,1.37256l-0.44336,0.36279l-1.44043-5.14355l4.71973,2.45557l-0.44434,0.36377L118.75586,95.06347z M118.28809,94.81298
			l-1.79102-0.94727l0.56836,1.95068L118.28809,94.81298z"/>
		<path fill="#A3A3A3" stroke="#A3A3A3" stroke-width="0.25" stroke-miterlimit="10" d="M120.84082,95.1162l-2.35254-4.25537
			l5.02734,1.57568l-1.75-3.16455l0.45313-0.25049l2.36035,4.26758l-5.02832-1.57666l1.74219,3.15283L120.84082,95.1162z"/>
		<path fill="#A3A3A3" stroke="#A3A3A3" stroke-width="0.25" stroke-miterlimit="10" d="M125.34082,90.86913
			c0.12207,0.37256,0.25586,0.77832,0.70703,0.96045c0.23047,0.09424,0.56934,0.09375,0.81543,0.01318
			c0.24512-0.08105,0.51855-0.28174,0.64746-0.49365c0.25488-0.41602,0.12012-0.82129-0.00195-1.19482l-0.89551-2.71924
			l0.49219-0.16162l0.93945,2.85254c0.12305,0.37305,0.20117,0.74561,0.07031,1.15674
			c-0.14453,0.45264-0.5332,0.83984-1.09961,1.02539c-0.56445,0.18604-1.10742,0.10645-1.49414-0.1709
			c-0.34766-0.25391-0.50586-0.60156-0.62891-0.97314l-0.93945-2.854l0.49219-0.16162L125.34082,90.86913z"/>
		<path fill="#A3A3A3" stroke="#A3A3A3" stroke-width="0.25" stroke-miterlimit="10" d="M129.23242,86.82909l0.77344,4.10889
			l1.2666-0.23779l0.09082,0.48145l-1.77539,0.33496l-0.86426-4.5918L129.23242,86.82909z"/>
		<path fill="#A3A3A3" stroke="#A3A3A3" stroke-width="0.25" stroke-miterlimit="10" d="M134.4082,89.61669l-1.98438,0.11865
			l-0.48047,1.34766l-0.57324,0.03467l1.85449-5.01367l2.38086,4.76123l-0.57324,0.03369L134.4082,89.61669z M134.17773,89.14063
			l-0.89453-1.82031l-0.68555,1.91455L134.17773,89.14063z"/>
		<path fill="#A3A3A3" stroke="#A3A3A3" stroke-width="0.25" stroke-miterlimit="10" d="M137.22559,86.3496
			c0.31445,0.02637,0.7793,0.08789,1.10742,0.35498c0.25684,0.20361,0.46387,0.58105,0.4209,1.07568
			c-0.06152,0.71191-0.57422,1.19434-1.28223,1.18213l1.2998,2.20557l-0.62793-0.05371l-1.24023-2.1582l-0.13281-0.01172
			l-0.1748,2.03662l-0.5166-0.04443l0.40039-4.65137L137.22559,86.3496z M136.81055,88.48339l0.32715,0.02881
			c0.6416,0.05615,1.05176-0.21777,1.09863-0.76221c0.02246-0.2583-0.0332-0.52344-0.31055-0.71533
			c-0.19922-0.13672-0.43555-0.17041-0.6582-0.18994l-0.31445-0.02637L136.81055,88.48339z"/>
		<path fill="#A3A3A3" stroke="#A3A3A3" stroke-width="0.25" stroke-miterlimit="10" d="M145.82031,88.76318l-1.52441-0.52197
			l-0.44727,1.30518l1.46973,0.50439l-0.1582,0.46289l-1.4707-0.50439l-0.75,2.18652l-0.49023-0.16846l1.51563-4.4165
			l2.01367,0.69043L145.82031,88.76318z"/>
		<path fill="#A3A3A3" stroke="#A3A3A3" stroke-width="0.25" stroke-miterlimit="10" d="M146.06055,90.77636
			c0.6582-1.22607,2.09766-1.61377,3.28125-0.97705c1.18359,0.63525,1.65625,2.04834,0.99707,3.2749
			c-0.65527,1.2207-2.09277,1.6167-3.28223,0.97852C145.86719,93.41405,145.4043,91.99755,146.06055,90.77636z M146.5293,91.0288
			c-0.50781,0.94238-0.16602,2.0957,0.75977,2.59229c0.9248,0.49707,2.07422,0.14502,2.58008-0.79834
			c0.50781-0.94336,0.16602-2.0957-0.75977-2.59229C148.18555,89.73339,147.03516,90.08544,146.5293,91.0288z"/>
		<path fill="#A3A3A3" stroke="#A3A3A3" stroke-width="0.25" stroke-miterlimit="10" d="M153.25781,92.39354
			c0.24805,0.19287,0.60547,0.49707,0.7373,0.90039c0.10449,0.31055,0.07227,0.73828-0.23242,1.13135
			c-0.4375,0.56396-1.13086,0.69092-1.71973,0.29639l-0.10547,2.55859l-0.49902-0.38672l0.13184-2.48633l-0.10547-0.08203
			l-1.25391,1.61523l-0.41016-0.31787l2.86523-3.68945L153.25781,92.39354z M151.74805,93.96093l0.25977,0.20117
			c0.50977,0.39502,1.00195,0.3877,1.33691-0.04297c0.15918-0.20557,0.25684-0.45752,0.12793-0.76953
			c-0.09277-0.22363-0.27246-0.38037-0.44922-0.51758l-0.24902-0.19287L151.74805,93.96093z"/>
		<path fill="#A3A3A3" stroke="#A3A3A3" stroke-width="0.25" stroke-miterlimit="10" d="M152.3125,97.51073l4.17871-2.72266
			l-1.72559,3.96973l4.1543-1.28809l-3.17578,3.84473l-0.35547-0.39453l2.11523-2.50195l-3.62109,1.12646l1.50684-3.47021
			l-2.71973,1.83154L152.3125,97.51073z"/>
		<path fill="#A3A3A3" stroke="#A3A3A3" stroke-width="0.25" stroke-miterlimit="10" d="M158.63477,103.61718l-1.01855-1.70508
			l-1.41699,0.19336l-0.29297-0.49316l5.29883-0.66211l-3.12598,4.30273l-0.29395-0.49268L158.63477,103.61718z
			 M158.95117,103.19238l1.20117-1.63086l-2.01172,0.27344L158.95117,103.19238z"/>
		<path fill="#A3A3A3" stroke="#A3A3A3" stroke-width="0.25" stroke-miterlimit="10" d="M158.26563,105.65624l4.55859-1.6958
			l-2.30664,4.74072l3.39258-1.26123l0.17969,0.48633l-4.57227,1.69971l2.30664-4.74072l-3.37793,1.25635L158.26563,105.65624z"/>
		<path fill="#A3A3A3" stroke="#A3A3A3" stroke-width="0.25" stroke-miterlimit="10" d="M164.21875,110.8496l-4.09375,0.82617
			l-0.10156-0.50684l4.09277-0.82617l-0.22461-1.11133l0.47949-0.09668l0.55176,2.72949l-0.48047,0.0957L164.21875,110.8496z"/>
	</g>
	<g>
		<circle fill="none" cx="83.5" cy="145.5" r="28.59473"/>
		<path fill="#A3A3A3" stroke="#A3A3A3" stroke-width="0.25" stroke-linejoin="round" stroke-miterlimit="10" d="M75.8457,170.88525
			l-1.73047-0.62402l-0.5332,1.48242l1.66992,0.60156l-0.18945,0.52588l-1.66992-0.60059l-0.89355,2.48389l-0.55762-0.2002
			l1.80664-5.01904l2.28711,0.82227L75.8457,170.88525z"/>
		<path fill="#A3A3A3" stroke="#A3A3A3" stroke-width="0.25" stroke-linejoin="round" stroke-miterlimit="10" d="
			M78.25586,170.87793c0.35449,0.06641,0.87695,0.18701,1.2207,0.52832c0.26758,0.26172,0.46094,0.71191,0.35645,1.271
			c-0.14941,0.80225-0.78613,1.29346-1.59082,1.20166l1.23047,2.6543l-0.70801-0.13232l-1.16895-2.59375l-0.14844-0.02832
			l-0.42969,2.29639l-0.58105-0.1084l0.97754-5.24658L78.25586,170.87793z M77.54297,173.25928l0.37012,0.06885
			c0.72363,0.13574,1.2207-0.13037,1.33496-0.74316c0.05469-0.29102,0.02246-0.59814-0.27344-0.84961
			c-0.21094-0.17627-0.47461-0.24219-0.72656-0.28955l-0.35352-0.06592L77.54297,173.25928z"/>
		<path fill="#A3A3A3" stroke="#A3A3A3" stroke-width="0.25" stroke-linejoin="round" stroke-miterlimit="10" d="
			M84.48633,171.98486l-2.17383-0.03809l-0.0293,1.5835l2.11133,0.03711l-0.00977,0.56006l-2.11133-0.03711l-0.03711,2.07031
			l2.1748,0.03906l-0.01074,0.55957l-2.76563-0.05029l0.0957-5.3335l2.7666,0.05127L84.48633,171.98486z"/>
		<path fill="#A3A3A3" stroke="#A3A3A3" stroke-width="0.25" stroke-linejoin="round" stroke-miterlimit="10" d="
			M90.81055,175.50439c-0.19141,0.19092-0.65625,0.62061-1.48926,0.77783c-1.50879,0.28467-2.94434-0.64111-3.23926-2.19678
			c-0.29492-1.56348,0.70703-2.93994,2.21582-3.22559c1.50098-0.28369,2.94238,0.63232,3.23828,2.19678
			c0.18066,0.95703-0.13867,1.6377-0.38379,2.01758l0.91992,0.64746l-0.75391,0.14307L90.81055,175.50439z M90.65625,174.72754
			c0.15625-0.24902,0.42773-0.78809,0.2832-1.55908c-0.22754-1.20117-1.36719-1.97998-2.53906-1.7583
			c-1.17773,0.22119-1.94727,1.36133-1.7207,2.5625c0.22656,1.20264,1.35938,1.98193,2.53809,1.75928
			c0.3291-0.06201,0.73926-0.22119,1.09668-0.56543l-1.51074-1.06592l0.75488-0.14209L90.65625,174.72754z"/>
		<path fill="#A3A3A3" stroke="#A3A3A3" stroke-width="0.25" stroke-linejoin="round" stroke-miterlimit="10" d="
			M94.17969,174.08301c0.20313-0.0752,0.43945,0.03271,0.51563,0.23584c0.07422,0.20264-0.0332,0.43896-0.23535,0.51416
			s-0.43945-0.0332-0.51465-0.23535C93.87012,174.396,93.97852,174.15869,94.17969,174.08301z"/>
	</g>
	<g>
		<circle fill="none" cx="186.44551" cy="145.5" r="28.59473"/>
		<path fill="#A3A3A3" stroke="#A3A3A3" stroke-width="0.25" stroke-linejoin="round" stroke-miterlimit="10" d="
			M177.50977,170.96631c-0.01367-0.15967-0.06738-0.35254-0.14453-0.48584c-0.06641-0.11279-0.20703-0.27979-0.49023-0.39209
			c-0.49121-0.19336-0.9541-0.02295-1.13574,0.43945c-0.07715,0.19385-0.06836,0.32568,0.01563,0.50439
			c0.08984,0.2085,0.24414,0.36279,0.39746,0.51855l0.39453,0.39697c0.24121,0.24072,0.45605,0.48047,0.58301,0.77002
			c0.15332,0.35303,0.14355,0.68408,0.00293,1.0415c-0.36133,0.91602-1.2793,1.25977-2.17285,0.90771
			c-0.32715-0.12939-0.70996-0.35693-0.9209-0.82666c-0.15234-0.33545-0.16602-0.7373-0.11621-1.06055l0.59473,0.06201
			c-0.06445,0.27588-0.0332,0.54541,0.04883,0.75049c0.13086,0.30127,0.35352,0.45654,0.60645,0.55615
			c0.67773,0.26807,1.18848-0.09082,1.38477-0.58936c0.08789-0.22314,0.09668-0.44336-0.0166-0.67725
			c-0.08984-0.18994-0.24805-0.35596-0.46094-0.57764l-0.36523-0.38379c-0.1582-0.16602-0.36328-0.3667-0.50098-0.6709
			c-0.13379-0.29395-0.16895-0.57324-0.02344-0.94678c0.30176-0.7666,1.09277-1.04883,1.89746-0.73193
			c0.30469,0.12061,0.52734,0.27637,0.70898,0.53711c0.14746,0.21387,0.24023,0.48096,0.26563,0.74121L177.50977,170.96631z"/>
		<path fill="#A3A3A3" stroke="#A3A3A3" stroke-width="0.25" stroke-linejoin="round" stroke-miterlimit="10" d="
			M180.02051,172.86572l2.69434,0.49023l0.38867-2.13477l0.58203,0.10693l-0.95605,5.25342l-0.58301-0.10645l0.4668-2.56738
			l-2.69336-0.49121l-0.46777,2.56836l-0.58301-0.10596l0.95703-5.25439l0.58398,0.10645L180.02051,172.86572z"/>
		<path fill="#A3A3A3" stroke="#A3A3A3" stroke-width="0.25" stroke-linejoin="round" stroke-miterlimit="10" d="
			M188.35352,175.18799l-2.27148,0.06445l-0.59766,1.52148l-0.65625,0.01855l2.29883-5.65918l2.54785,5.52246l-0.65527,0.01855
			L188.35352,175.18799z M188.10547,174.63525l-0.95508-2.10938l-0.85254,2.16016L188.10547,174.63525z"/>
		<path fill="#A3A3A3" stroke="#A3A3A3" stroke-width="0.25" stroke-linejoin="round" stroke-miterlimit="10" d="
			M191.54297,170.88428c0.52539-0.1084,0.97754-0.13623,1.39453,0.09668c0.45117,0.25098,0.64063,0.69336,0.70898,1.02197
			c0.15234,0.73779-0.15918,1.56299-1.35059,1.80859l-0.51074,0.10596l0.4707,2.27393l-0.58008,0.11963l-1.08203-5.22998
			L191.54297,170.88428z M191.67188,173.36865l0.47852-0.09912c0.68945-0.14209,1.03516-0.57373,0.91016-1.17773
			c-0.17188-0.83057-0.96484-0.74854-1.34082-0.6709l-0.43164,0.08838L191.67188,173.36865z"/>
		<path fill="#A3A3A3" stroke="#A3A3A3" stroke-width="0.25" stroke-linejoin="round" stroke-miterlimit="10" d="
			M197.28418,169.68115l-2.03418,0.77588l0.56445,1.47998l1.97461-0.75293l0.19922,0.52393l-1.97363,0.75195l0.73828,1.93652
			l2.03418-0.7749l0.19922,0.52246l-2.58691,0.98633l-1.90137-4.98584l2.58594-0.98633L197.28418,169.68115z"/>
	</g>
	<g>
		<circle fill="none" cx="135" cy="198.5" r="28.59473"/>
		
			<path fill="#A3A3A3" stroke="#A3A3A3" stroke-width="0.25" stroke-linecap="round" stroke-linejoin="round" stroke-miterlimit="10" d="
			M119.00391,218.90186c0.28711,0.2168,0.70117,0.55762,0.85742,1.01514c0.12305,0.354,0.09473,0.84375-0.24805,1.29688
			c-0.49023,0.65088-1.2793,0.80811-1.95801,0.36572l-0.08105,2.92383l-0.5752-0.43311l0.11035-2.84229l-0.12109-0.09131
			l-1.40625,1.86377l-0.47266-0.35645l3.21094-4.2583L119.00391,218.90186z M117.30469,220.71533l0.30078,0.22607
			c0.58789,0.44336,1.15039,0.42627,1.52637-0.0708c0.17773-0.23682,0.28613-0.52686,0.13379-0.88184
			c-0.10938-0.25293-0.31738-0.42871-0.52148-0.5835l-0.28809-0.21631L117.30469,220.71533z"/>
		
			<path fill="#A3A3A3" stroke="#A3A3A3" stroke-width="0.25" stroke-linecap="round" stroke-linejoin="round" stroke-miterlimit="10" d="
			M122.23242,225.3877l-2.01465-1.05029l-1.2627,1.0376l-0.58203-0.30322l4.76367-3.82275l-0.46484,6.06299l-0.58203-0.30225
			L122.23242,225.3877z M122.28516,224.78369l0.19336-2.30762l-1.7959,1.47168L122.28516,224.78369z"/>
		
			<path fill="#A3A3A3" stroke="#A3A3A3" stroke-width="0.25" stroke-linecap="round" stroke-linejoin="round" stroke-miterlimit="10" d="
			M126.41602,223.5459l-1.59766,4.5l-0.55859-0.19824l1.59766-4.49902l-1.2207-0.43457l0.1875-0.52734l3,1.06543l-0.1875,0.52734
			L126.41602,223.5459z"/>
		
			<path fill="#A3A3A3" stroke="#A3A3A3" stroke-width="0.25" stroke-linecap="round" stroke-linejoin="round" stroke-miterlimit="10" d="
			M129.11914,223.74365l-1.2627,5.17871l-0.5752-0.14014l1.26367-5.17871L129.11914,223.74365z"/>
		
			<path fill="#A3A3A3" stroke="#A3A3A3" stroke-width="0.25" stroke-linecap="round" stroke-linejoin="round" stroke-miterlimit="10" d="
			M129.7373,226.73047c0.13672-1.58545,1.47168-2.64404,3.00293-2.51172c1.5293,0.13184,2.66406,1.40137,2.52832,2.9873
			c-0.13574,1.57861-1.46387,2.64502-3.00195,2.51172C130.72852,229.58594,129.60156,228.30811,129.7373,226.73047z
			 M130.34375,226.78223c-0.10547,1.22021,0.77539,2.27539,1.9707,2.37793s2.24316-0.78711,2.34863-2.00586
			c0.10449-1.21924-0.77637-2.27441-1.97168-2.37793C131.49609,224.67383,130.44824,225.56348,130.34375,226.78223z"/>
		
			<path fill="#A3A3A3" stroke="#A3A3A3" stroke-width="0.25" stroke-linecap="round" stroke-linejoin="round" stroke-miterlimit="10" d="
			M136.33984,227.71631l1.75586-0.13672l0.0459,0.59033l-1.75586,0.13721L136.33984,227.71631z"/>
		
			<path fill="#A3A3A3" stroke="#A3A3A3" stroke-width="0.25" stroke-linecap="round" stroke-linejoin="round" stroke-miterlimit="10" d="
			M141.30273,224.23486l-1.80762,0.34082l0.29199,1.54834l1.74414-0.32959l0.10449,0.55029l-1.74512,0.32959l0.49023,2.59326
			l-0.58203,0.10986l-0.98926-5.24121l2.38867-0.45166L141.30273,224.23486z"/>
		
			<path fill="#A3A3A3" stroke="#A3A3A3" stroke-width="0.25" stroke-linecap="round" stroke-linejoin="round" stroke-miterlimit="10" d="
			M142.68848,223.23096l1.51855,5.11572l-0.56836,0.16846l-1.51758-5.11475L142.68848,223.23096z"/>
		
			<path fill="#A3A3A3" stroke="#A3A3A3" stroke-width="0.25" stroke-linecap="round" stroke-linejoin="round" stroke-miterlimit="10" d="
			M144.5,222.58887l1.78125,4.43457l1.36719-0.5498l0.20898,0.52002l-1.91602,0.77051l-1.99023-4.95557L144.5,222.58887z"/>
		
			<path fill="#A3A3A3" stroke="#A3A3A3" stroke-width="0.25" stroke-linecap="round" stroke-linejoin="round" stroke-miterlimit="10" d="
			M147.79688,221.66162l2.26758,4.20166l-0.52148,0.28076l-2.2666-4.20117l-1.14063,0.61426l-0.26563-0.49268l2.80078-1.51025
			l0.2666,0.49219L147.79688,221.66162z"/>
		
			<path fill="#A3A3A3" stroke="#A3A3A3" stroke-width="0.25" stroke-linecap="round" stroke-linejoin="round" stroke-miterlimit="10" d="
			M149.88867,219.68799c0.29102-0.21191,0.73828-0.50977,1.22168-0.52637c0.375-0.01611,0.83594,0.15283,1.17188,0.6123
			c0.48145,0.65869,0.40332,1.45898-0.2168,1.98193l2.77832,0.92383l-0.58203,0.42627l-2.69141-0.92871l-0.12305,0.09033
			l1.37988,1.88672l-0.47754,0.3501l-3.15234-4.31055L149.88867,219.68799z M151.13574,221.84082l0.30371-0.22266
			c0.59375-0.43457,0.74219-0.979,0.37305-1.48291c-0.17383-0.23926-0.41992-0.42627-0.80469-0.38184
			c-0.27441,0.03125-0.50391,0.1792-0.71094,0.33057l-0.29102,0.21289L151.13574,221.84082z"/>
	</g>
	<g>
		<circle fill="none" cx="135" cy="283.5" r="28.59473"/>
		
			<path fill="#A3A3A3" stroke="#A3A3A3" stroke-width="0.25" stroke-linecap="round" stroke-linejoin="round" stroke-miterlimit="10" d="
			M117.6709,309.67383l3.43262-4.54932l-0.3125,4.93604l3.96484-2.99658l-1.91992,5.36523l-0.53711-0.28564l1.30273-3.51123
			l-3.45313,2.61572l0.27148-4.31299l-2.21289,3.0249L117.6709,309.67383z"/>
		
			<path fill="#A3A3A3" stroke="#A3A3A3" stroke-width="0.25" stroke-linecap="round" stroke-linejoin="round" stroke-miterlimit="10" d="
			M127.42578,308.27979l-1.61328,5.0874l-0.56445-0.17871l1.61328-5.0874L127.42578,308.27979z"/>
		
			<path fill="#A3A3A3" stroke="#A3A3A3" stroke-width="0.25" stroke-linecap="round" stroke-linejoin="round" stroke-miterlimit="10" d="
			M129.7207,311.49268l-0.96484-2.78711l0.66309,0.11621l0.74023,2.17041l1.46777-1.78223l0.66211,0.11719l-1.88965,2.28467
			l1.04395,2.98877l-0.66309-0.11621l-0.82617-2.37305l-1.60254,1.9458l-0.66211-0.11719L129.7207,311.49268z"/>
		
			<path fill="#A3A3A3" stroke="#A3A3A3" stroke-width="0.25" stroke-linecap="round" stroke-linejoin="round" stroke-miterlimit="10" d="
			M135.90332,312.21533c-0.2207-1.57666,0.8457-2.9043,2.36621-3.11719c1.51953-0.21289,2.91016,0.77246,3.12988,2.34814
			c0.21973,1.56787-0.83691,2.90234-2.36621,3.11621C137.50391,314.77686,136.12305,313.7832,135.90332,312.21533z
			 M136.50488,312.13086c0.16895,1.21143,1.2627,2.04297,2.4502,1.87695c1.18848-0.16602,2.01172-1.26611,1.84277-2.47705
			c-0.16895-1.21143-1.2627-2.04395-2.45117-1.87793C137.1582,309.81787,136.33594,310.91846,136.50488,312.13086z"/>
		
			<path fill="#A3A3A3" stroke="#A3A3A3" stroke-width="0.25" stroke-linecap="round" stroke-linejoin="round" stroke-miterlimit="10" d="
			M144.00879,311.27246c0.15723,0.41992,0.3291,0.87695,0.85254,1.06543c0.26563,0.09619,0.65332,0.07959,0.93164-0.02344
			c0.27734-0.10449,0.58008-0.3457,0.7168-0.59326c0.27148-0.4873,0.09961-0.94434-0.05664-1.36377l-1.14844-3.06592
			l0.55469-0.20801l1.2041,3.21582c0.15723,0.41895,0.26465,0.84082,0.13477,1.31787
			c-0.14551,0.52393-0.57129,0.98389-1.20996,1.22217c-0.63672,0.2373-1.25977,0.17285-1.71387-0.12842
			c-0.41113-0.27295-0.60645-0.66113-0.76465-1.08105l-1.2041-3.21582l0.55566-0.2085L144.00879,311.27246z"/>
		
			<path fill="#A3A3A3" stroke="#A3A3A3" stroke-width="0.25" stroke-linecap="round" stroke-linejoin="round" stroke-miterlimit="10" d="
			M148.77148,306.08643l2.44727,4.10596l-0.50781,0.30322l-2.44922-4.10645l-1.11328,0.66455l-0.28711-0.48096l2.73633-1.63135
			l0.28809,0.48096L148.77148,306.08643z"/>
	</g>
	<g>
		<circle fill="none" cx="135" cy="283.44943" r="28.59473"/>
		<path fill="#A3A3A3" d="M145.38672,255.61426c-0.08203-0.1582-0.2207-0.3584-0.3877-0.50977
			c-0.17285-0.15332-0.38867-0.28418-0.6123-0.35449c-0.88281-0.27344-1.75586,0.23535-2.0293,1.11719
			c-0.32227,1.03711,0.35742,1.82031,1.05664,2.03711c0.25781,0.08008,0.5332,0.08398,0.76563,0.04297
			c0.25195-0.04199,0.4502-0.13672,0.54102-0.18457l-0.16309,0.52734c-0.51953,0.17188-0.98145,0.10449-1.26758,0.01563
			c-1.13477-0.35254-1.70996-1.47363-1.36719-2.5791c0.35449-1.14063,1.47168-1.72363,2.61719-1.36816
			c0.22949,0.07129,0.66113,0.2373,1.01074,0.72852L145.38672,255.61426z"/>
		<path fill="#A3A3A3" d="M145.90234,258.77637l1.91992,0.90723l-0.17969,0.37988l-2.5918-1.22559l3.50391-2.30273l-1.71875-0.81348
			l0.18066-0.37988l2.39063,1.13184L145.90234,258.77637z"/>
		<path fill="#A3A3A3" d="M153.7168,259.80176l-1.11133-0.81641l-0.7002,0.95313l1.07422,0.78809l-0.24805,0.33789l-1.07324-0.78711
			l-1.17188,1.59668l-0.35742-0.2627l2.36621-3.22656l1.46973,1.07813L153.7168,259.80176z"/>
		<path fill="#A3A3A3" d="M155.50977,260.78516l-2.66406,2.99219l-0.33105-0.29492l2.66309-2.99316L155.50977,260.78516z"/>
		<path fill="#A3A3A3" d="M157.11719,262.35547l-2.60059,2.46484l0.76074,0.80078l-0.30566,0.28906l-1.06543-1.12402
			l2.90625-2.75293L157.11719,262.35547z"/>
		<path fill="#A3A3A3" d="M158.98145,265.17773l-2.83496,2.19629l-0.27246-0.35059l2.83594-2.19727l-0.59668-0.76953
			l0.33203-0.25781l1.46484,1.89063l-0.33203,0.25781L158.98145,265.17773z"/>
		<path fill="#A3A3A3" d="M161.40723,268.85449l-0.84473-1.39746l-1.01758,0.61523l0.82031,1.35645l-0.35938,0.21777
			l-0.82129-1.35645l-1.33105,0.80469l0.8457,1.39746l-0.35938,0.21875l-1.0752-1.7793l3.42676-2.07227l1.07617,1.77734
			L161.40723,268.85449z"/>
		<path fill="#A3A3A3" d="M162.78711,270.70703c0.11035,0.24512,0.25781,0.62012,0.19531,0.97656
			c-0.04785,0.27734-0.24316,0.58789-0.63086,0.7627c-0.55664,0.25-1.13281,0.06836-1.41797-0.46777l-1.11035,1.8916
			l-0.21973-0.49219l1.09766-1.82715l-0.0459-0.10449l-1.59766,0.71777l-0.18164-0.40527l3.64746-1.63672L162.78711,270.70703z
			 M161.01563,271.28516l0.11523,0.25684c0.22559,0.50293,0.60156,0.69629,1.02832,0.50391
			c0.20215-0.08984,0.37793-0.24121,0.40527-0.53027c0.01953-0.20508-0.05273-0.39648-0.13184-0.57129l-0.10938-0.24609
			L161.01563,271.28516z"/>
	</g>
	<g>
		<circle fill="none" cx="135" cy="283.5" r="28.59473"/>
		<path fill="#A3A3A3" d="M109.87012,300.31055l0.80664,1.12012l0.95996-0.69043l-0.7793-1.08203l0.34082-0.24512l0.77832,1.08105
			l1.6084-1.1582l0.25879,0.36133l-3.24805,2.33984l-1.06738-1.48047L109.87012,300.31055z"/>
		<path fill="#A3A3A3" d="M110.47949,298.42676c-1.0625,0.54492-2.26758,0.11719-2.79395-0.9082s-0.1709-2.25293,0.89063-2.79785
			c1.05762-0.54297,2.26563-0.125,2.79492,0.90625C111.90039,296.65723,111.53711,297.88281,110.47949,298.42676z
			 M110.27051,298.02051c0.81738-0.41992,1.1377-1.40039,0.72656-2.20215c-0.41113-0.80078-1.39551-1.1123-2.21289-0.69238
			c-0.81641,0.41895-1.13574,1.39941-0.72461,2.20117C108.4707,298.12793,109.45313,298.43945,110.27051,298.02051z"/>
		<path fill="#A3A3A3" d="M106.01367,293.39258c-0.08398-0.25586-0.19141-0.64453-0.0918-0.99219
			c0.07617-0.27148,0.30371-0.56055,0.70898-0.69238c0.58105-0.19043,1.13379,0.05176,1.3623,0.61523l1.30371-1.76465
			l0.16797,0.51367l-1.28711,1.70117l0.03613,0.10938l1.66504-0.54492l0.1377,0.42188l-3.80371,1.24316L106.01367,293.39258z
			 M107.83691,293.00586L107.75,292.7373c-0.17188-0.52441-0.52539-0.75684-0.9707-0.61133
			c-0.21094,0.06934-0.40039,0.2002-0.45996,0.48535c-0.04102,0.20313,0.01074,0.40039,0.07129,0.58301l0.08398,0.25586
			L107.83691,293.00586z"/>
		<path fill="#A3A3A3" d="M109.03516,289.76074l-4.27344-0.01953l3.10449-2.02832l-3.58008-1.03516l4.08496-1.25684l0.06836,0.45117
			l-2.69336,0.79395l3.12305,0.89844l-2.71289,1.77539l2.81055-0.03027L109.03516,289.76074z"/>
		<path fill="#A3A3A3" d="M107.29688,281.99805l-0.04297,1.70215l1.11523,0.50781l-0.0127,0.49121l-4.14258-1.94336l4.23242-1.68848
			l-0.01172,0.49121L107.29688,281.99805z M106.87207,282.16211l-1.61621,0.63184l1.58301,0.72266L106.87207,282.16211z"/>
		<path fill="#A3A3A3" d="M108.53906,280.22559l-4.09473-0.78711l3.7998-2.44727l-3.04688-0.58496l0.08398-0.4375l4.1084,0.78906
			l-3.80176,2.44824l3.03516,0.58301L108.53906,280.22559z"/>
		<path fill="#A3A3A3" d="M106.58105,273.33691l3.37988,1.1875l-0.14746,0.41895l-3.37988-1.1875l-0.32227,0.91699l-0.39648-0.13965
			l0.79102-2.25293l0.39648,0.13867L106.58105,273.33691z"/>
		<path fill="#A3A3A3" d="M110.78711,268.27539l0.87402-1.41895l0.08105,0.05078c0.37793,0.23242,0.7168,0.59668,0.87598,0.98926
			c0.0752,0.1875,0.31348,0.8623-0.16699,1.64355c-0.62305,1.01074-1.85938,1.29102-2.84961,0.68066
			c-0.98926-0.61035-1.29102-1.8457-0.66602-2.86035c0.20117-0.32715,0.51855-0.65918,0.97852-0.83398
			c0.21094-0.08105,0.45313-0.12891,0.64551-0.14453l0.08203,0.43848c-0.19727,0.01172-0.38965,0.04883-0.55078,0.10449
			c-0.2334,0.08105-0.54297,0.24121-0.79492,0.64941c-0.50586,0.82227-0.24121,1.77539,0.5498,2.2627
			c0.92871,0.57129,1.85449,0.12012,2.25098-0.52246c0.28027-0.4541,0.29199-0.98828,0.07031-1.39355
			c-0.07031-0.12598-0.19238-0.29395-0.40137-0.43555l-0.62207,1.01074L110.78711,268.27539z"/>
		<path fill="#A3A3A3" d="M111.4707,263.95508c0.17578-0.20703,0.4502-0.50098,0.80078-0.59668
			c0.27051-0.07715,0.63672-0.03223,0.96094,0.24316c0.4668,0.39844,0.54688,0.99707,0.18555,1.48633l2.1875,0.19336
			l-0.35059,0.41016l-2.12598-0.21094l-0.07324,0.08691l1.33398,1.13867l-0.29004,0.33789l-3.04688-2.60059L111.4707,263.95508z
			 M112.75391,265.30957l0.18262-0.21387c0.3584-0.41992,0.37207-0.84375,0.0166-1.14746
			c-0.16895-0.14453-0.38086-0.23828-0.6543-0.14063c-0.19531,0.07129-0.33691,0.21875-0.46191,0.36523l-0.1748,0.20508
			L112.75391,265.30957z"/>
		<path fill="#A3A3A3" d="M117.21973,262.24023l-1.27441,1.13281l0.39063,1.16113l-0.36719,0.32715l-1.41016-4.3584l4.12793,1.94238
			l-0.36816,0.32715L117.21973,262.24023z M116.81055,262.04199l-1.56641-0.75098l0.55273,1.65137L116.81055,262.04199z"/>
		<path fill="#A3A3A3" d="M117.52148,258.41016l2.3125,3.26465l-0.36133,0.25586l-2.3125-3.26367L117.52148,258.41016z"/>
		<path fill="#A3A3A3" d="M120.96484,260.86328l-1.9502-3.68164l4.28223,1.42773l-1.44922-2.7373l0.3916-0.20801l1.95508,3.69141
			l-4.2832-1.42773l1.44434,2.72754L120.96484,260.86328z"/>
		<path fill="#A3A3A3" d="M125.99414,255.10449c-0.08691-0.08398-0.21094-0.16895-0.32031-0.20703
			c-0.09277-0.03125-0.25488-0.05859-0.46973,0.01465c-0.375,0.12891-0.55664,0.45215-0.43652,0.80469
			c0.05078,0.14746,0.12012,0.21875,0.25586,0.28027c0.15234,0.07422,0.31641,0.08789,0.47949,0.10156l0.41797,0.03418
			c0.25488,0.02148,0.49414,0.05273,0.70801,0.15723c0.25879,0.12695,0.41504,0.32129,0.50879,0.59375
			c0.23926,0.69824-0.11816,1.3418-0.79883,1.57617c-0.25,0.08496-0.5791,0.1416-0.92871-0.02441
			c-0.25-0.11719-0.4541-0.33984-0.58398-0.54883l0.37109-0.25391c0.0957,0.18848,0.24609,0.32813,0.39258,0.4043
			c0.22168,0.1084,0.4248,0.08984,0.61719,0.02344c0.51758-0.17773,0.63477-0.63086,0.50488-1.01172
			c-0.05957-0.16992-0.16113-0.2998-0.33984-0.37891c-0.14355-0.06445-0.31445-0.08203-0.54395-0.10449l-0.39551-0.04297
			c-0.1709-0.0166-0.38574-0.03223-0.6123-0.13867c-0.21973-0.10254-0.37695-0.24512-0.47461-0.52832
			c-0.2002-0.58496,0.11328-1.13086,0.72656-1.3418c0.2334-0.08008,0.43652-0.09961,0.66699-0.03906
			c0.18848,0.04883,0.37207,0.1582,0.5127,0.29395L125.99414,255.10449z"/>
	</g>
	<g>
		<circle fill="none" cx="183.01788" cy="44.24549" r="14.57799"/>
		
			<path fill="#A3A3A3" stroke="#A3A3A3" stroke-width="0.25" stroke-linecap="round" stroke-linejoin="round" stroke-miterlimit="10" d="
			M166.24805,35.74022l3.34863,1.72266l0.53027-1.03223l0.39258,0.20215l-0.74414,1.44727l-3.74121-1.92383L166.24805,35.74022z"/>
		
			<path fill="#A3A3A3" stroke="#A3A3A3" stroke-width="0.25" stroke-linecap="round" stroke-linejoin="round" stroke-miterlimit="10" d="
			M169.2168,32.07812l-1.04492,1.35742l0.98828,0.76074l1.01367-1.31641l0.34863,0.26953l-1.01465,1.31641l1.29199,0.99512
			l1.0459-1.35645l0.34961,0.26855l-1.33008,1.72559l-3.32715-2.5625l1.3291-1.72656L169.2168,32.07812z"/>
		
			<path fill="#A3A3A3" stroke="#A3A3A3" stroke-width="0.25" stroke-linecap="round" stroke-linejoin="round" stroke-miterlimit="10" d="
			M170.10156,30.52245l2.96387,1.70703l-1.1416-3.22363l0.39648-0.33105l1.54297,4.51465l-4.1582-2.33691L170.10156,30.52245z"/>
		
			<path fill="#A3A3A3" stroke="#A3A3A3" stroke-width="0.25" stroke-linecap="round" stroke-linejoin="round" stroke-miterlimit="10" d="
			M175.77051,27.31737l-1.52832,0.77832l0.56641,1.1123l1.4834-0.75488l0.2002,0.39258l-1.4834,0.75586l0.74023,1.45508
			l1.52832-0.77832l0.20117,0.39453l-1.94531,0.98926l-1.90625-3.74805l1.94336-0.98926L175.77051,27.31737z"/>
		
			<path fill="#A3A3A3" stroke="#A3A3A3" stroke-width="0.25" stroke-linecap="round" stroke-linejoin="round" stroke-miterlimit="10" d="
			M177.54785,26.24706l1.07031,3.60156l1.11035-0.33008l0.125,0.42285l-1.55664,0.46191l-1.19531-4.02441L177.54785,26.24706z"/>
		
			<path fill="#A3A3A3" stroke="#A3A3A3" stroke-width="0.25" stroke-linecap="round" stroke-linejoin="round" stroke-miterlimit="10" d="
			M182.82813,27.35644l1.97949,0.0918l-0.03027,0.66504l-1.97949-0.0918L182.82813,27.35644z"/>
		
			<path fill="#A3A3A3" stroke="#A3A3A3" stroke-width="0.25" stroke-linecap="round" stroke-linejoin="round" stroke-miterlimit="10" d="
			M190.83496,29.46483l1.5625,0.79395l-0.0459,0.08984c-0.21094,0.41602-0.5625,0.80273-0.96094,1.00391
			c-0.19043,0.09473-0.87695,0.4043-1.7373-0.0332c-1.11328-0.56543-1.51465-1.83594-0.96094-2.92676
			s1.82324-1.51465,2.94043-0.94629c0.36035,0.18262,0.73633,0.48633,0.95898,0.95313
			c0.10352,0.21387,0.17578,0.46289,0.20801,0.66406l-0.45215,0.12402c-0.03027-0.20703-0.08398-0.4043-0.15723-0.56738
			c-0.10547-0.23828-0.30176-0.5498-0.75098-0.77734c-0.9043-0.45996-1.88086-0.09961-2.32227,0.77148
			c-0.51953,1.02441,0.0332,1.95508,0.74219,2.31445c0.5,0.25391,1.06055,0.2207,1.46582-0.04688
			c0.12793-0.08398,0.29199-0.22852,0.42285-0.45801l-1.11328-0.56445L190.83496,29.46483z"/>
		
			<path fill="#A3A3A3" stroke="#A3A3A3" stroke-width="0.25" stroke-linecap="round" stroke-linejoin="round" stroke-miterlimit="10" d="
			M194.4873,33.3662l-1.30176-1.22754l-1.17969,0.51758l-0.375-0.35449l4.42773-1.87891l-1.65039,4.49707l-0.37598-0.35449
			L194.4873,33.3662z M194.65625,32.92089l0.64063-1.70898l-1.67676,0.73145L194.65625,32.92089z"/>
		
			<path fill="#A3A3A3" stroke="#A3A3A3" stroke-width="0.25" stroke-linecap="round" stroke-linejoin="round" stroke-miterlimit="10" d="
			M198.21289,33.93944l-3.08789,2.14941l-0.26758-0.38281l3.08887-2.15039l-0.58301-0.83691l0.36133-0.25293l1.43359,2.05859
			l-0.3623,0.25195L198.21289,33.93944z"/>
		
			<path fill="#A3A3A3" stroke="#A3A3A3" stroke-width="0.25" stroke-linecap="round" stroke-linejoin="round" stroke-miterlimit="10" d="
			M200.29883,37.96581l-0.68555-1.57031l-1.14258,0.5l0.66602,1.52246l-0.4043,0.17676l-0.66504-1.52344l-1.49512,0.65234
			l0.68555,1.57031l-0.4043,0.17578l-0.87109-1.99707l3.84961-1.68066l0.87109,1.99707L200.29883,37.96581z"/>
	</g>
	<g>
		<circle fill="none" cx="183.01788" cy="44.24549" r="13.74777"/>
		
			<path fill="#A3A3A3" stroke="#A3A3A3" stroke-width="0.25" stroke-linecap="round" stroke-linejoin="round" stroke-miterlimit="10" d="
			M175.6582,57.02538l-2.03613,3.40332l-0.37793-0.22607l2.03613-3.40381L175.6582,57.02538z"/>
		
			<path fill="#A3A3A3" stroke="#A3A3A3" stroke-width="0.25" stroke-linecap="round" stroke-linejoin="round" stroke-miterlimit="10" d="
			M175.52734,61.49022l1.29004-3.92285l1.92285,4.04102l0.95898-2.91748l0.41797,0.13721l-1.29297,3.93311l-1.92383-4.04004
			l-0.95508,2.90527L175.52734,61.49022z"/>
		
			<path fill="#A3A3A3" stroke="#A3A3A3" stroke-width="0.25" stroke-linecap="round" stroke-linejoin="round" stroke-miterlimit="10" d="
			M182.10938,58.97216c0.39844,0.02051,0.72852,0.08545,0.98242,0.33105c0.27832,0.26514,0.33105,0.61963,0.31836,0.86865
			c-0.0293,0.55859-0.41016,1.09229-1.3125,1.04541l-0.38574-0.021l-0.09082,1.72168l-0.43945-0.02295l0.20898-3.96143
			L182.10938,58.97216z M181.73438,60.78026l0.36133,0.01904c0.52344,0.02734,0.85156-0.21631,0.87598-0.6748
			c0.0332-0.62891-0.55176-0.71973-0.83691-0.73486l-0.32617-0.0166L181.73438,60.78026z"/>
		
			<path fill="#A3A3A3" stroke="#A3A3A3" stroke-width="0.25" stroke-linecap="round" stroke-linejoin="round" stroke-miterlimit="10" d="
			M185.21094,61.31835c0.06055,0.32715,0.12695,0.68359,0.48633,0.89063c0.18164,0.104,0.46777,0.14258,0.68359,0.10205
			c0.2168-0.04004,0.46875-0.17822,0.60156-0.34229c0.26172-0.32031,0.19531-0.67676,0.13477-1.00488l-0.44531-2.39209
			l0.43359-0.08057l0.46582,2.50977c0.06152,0.32666,0.08496,0.64941-0.07129,0.98145
			c-0.17383,0.36523-0.5459,0.64648-1.04297,0.7373c-0.49609,0.09229-0.94434-0.03564-1.23828-0.31396
			c-0.26465-0.25391-0.3584-0.5625-0.41895-0.88965l-0.4668-2.50977l0.43262-0.08057L185.21094,61.31835z"/>
		
			<path fill="#A3A3A3" stroke="#A3A3A3" stroke-width="0.25" stroke-linecap="round" stroke-linejoin="round" stroke-miterlimit="10" d="
			M189.36719,58.03417l1.43945,3.24072l-0.40039,0.1792l-1.44141-3.24023l-0.87891,0.38965l-0.16992-0.37891l2.16016-0.96094
			l0.16992,0.37988L189.36719,58.03417z"/>
	</g>
	<path fill="#A3A3A3" d="M135.05772,94.42655c-12.32486,0-22.31627,9.99013-22.31627,22.31499
		c0,12.3236,9.99141,22.31499,22.31627,22.31499c12.32231,0,22.31372-9.99141,22.31372-22.31499
		C157.37144,104.41668,147.38004,94.42655,135.05772,94.42655z M150.31734,122.72487
		c-0.28145,0.02814-0.58849,0.0435-0.92111,0.0435c-3.09081,0-8.08524-1.35351-9.64087-6.71381
		c-1.75009-6.04346-4.51852-5.92065-4.54411-5.91297c-0.2968,0.01024-3.4183,0.11258-5.09164,6.01276
		c-1.56587,5.50359-7.40465,6.68823-10.24983,6.5731c-0.69595-0.03326-1.22813-0.61919-1.19743-1.31258
		c0.02559-0.69338,0.59872-1.21278,1.31001-1.19999c0.18422-0.01791,6.30444,0.20981,7.72192-4.7488
		c2.21577-7.82937,6.95432-7.83704,7.39954-7.82937c-0.05118-0.01536,4.64645-0.62431,7.06689,7.71679
		c1.58124,5.4473,7.6554,4.89464,7.90102,4.86906c0.66525-0.07676,1.31001,0.43752,1.37654,1.12579
		C151.51477,122.03917,151.00816,122.65579,150.31734,122.72487z"/>
	<path fill="none" stroke="#A3A3A3" stroke-width="0.5" stroke-miterlimit="10" d="M54.23553,161.21533
		c1.42355,0.59235,1.61123-1.77737,2.66922-1.77737s-0.07351,4.43253,1.22063,4.43253s0.38395-6.80226,1.67222-6.80226
		c1.28867,0,0.7718,5.39786,1.87553,5.39786c1.10334,0,0.88713-1.64328,1.63742-1.25075"/>
	<path fill="none" stroke="#A3A3A3" stroke-width="0.5" stroke-miterlimit="10" d="M104.28297,160.70801
		c0.04535-0.73778,0.05356,0.89966,0.29324,1.49042c0.31239,0.547,0.32059-2.82051,0.7714-3.22089
		c0.50045-0.35852,0.50866,5.52414,1.09239,5.73605c0.60876,0.1693,0.61697-8.47095,1.25388-8.49324
		c0.6369,0.02072,0.64511,8.66331,1.25465,8.49559c0.58529-0.21034,0.5935-6.10005,1.09551-5.74231
		c0.45393,0.40115,0.46214,3.77568,0.77689,3.22676c0.24084-0.59195,0.24905-2.23212,0.2944-1.49239"/>
	<g>
		<path fill="none" stroke="#A3A3A3" stroke-width="0.5" stroke-miterlimit="10" d="M155.82674,133.01823
			c2.26711,0,2.26711-5.10472,4.53423-5.10472c2.26787,0,2.26787,5.10472,4.53574,5.10472"/>
	</g>
	<g>
		<path fill="none" stroke="#A3A3A3" stroke-width="0.5" stroke-miterlimit="10" d="M182.89569,119.0484
			c1.77461,0,0.76099-5.10471,1.30438-5.10471c3.10153,0,4.02005,5.10471,5.79527,5.10471"/>
	</g>
	<g>
		<path fill="none" stroke="#A3A3A3" stroke-width="0.5" stroke-miterlimit="10" d="M215.40929,162.04929h-4.18456
			c-0.72903,0-1.10625-5.10472-2.37994-5.10472c-0.22316,0,0.1931,5.10472-0.53568,5.10472h-1.02237"/>
	</g>
	<g>
		<path fill="none" stroke="#A3A3A3" stroke-width="0.5" stroke-miterlimit="10" d="M166.77771,162.15314h-2.82959
			c-0.82719,0-0.82719-5.10472-1.6544-5.10472c-0.82692,0-0.82692,5.10472-1.65384,5.10472h-2.86369"/>
	</g>
	<g>
		<circle fill="none" cx="134.71875" cy="43.99999" r="14.57799"/>
		
			<path fill="#A3A3A3" stroke="#A3A3A3" stroke-width="0.25" stroke-linecap="round" stroke-linejoin="round" stroke-miterlimit="10" d="
			M123.45605,29.49169l2.34863,2.93262l-0.36523,0.2915l-2.34668-2.93311l-0.7959,0.63672l-0.27539-0.34326l1.95605-1.56494
			l0.27441,0.34326L123.45605,29.49169z"/>
		
			<path fill="#A3A3A3" stroke="#A3A3A3" stroke-width="0.25" stroke-linecap="round" stroke-linejoin="round" stroke-miterlimit="10" d="
			M125.91992,27.36815c0.25391-0.12793,0.63867-0.30176,1.0166-0.25293c0.29199,0.03467,0.62891,0.2251,0.83105,0.625
			c0.29005,0.57227,0.12695,1.18408-0.4209,1.51074l2.03809,1.07178l-0.50586,0.25635l-1.9707-1.06396l-0.10645,0.05469
			l0.83008,1.64014l-0.41602,0.21094l-1.89746-3.74902L125.91992,27.36815z M126.61328,29.19823l0.26465-0.13379
			c0.5166-0.26123,0.7002-0.66553,0.47949-1.10303c-0.10547-0.2085-0.27246-0.38574-0.57617-0.3999
			c-0.2168-0.01074-0.41406,0.07422-0.59375,0.16553l-0.25391,0.12793L126.61328,29.19823z"/>
		
			<path fill="#A3A3A3" stroke="#A3A3A3" stroke-width="0.25" stroke-linecap="round" stroke-linejoin="round" stroke-miterlimit="10" d="
			M129.48047,25.92968l1.2168,4.02197L130.25,30.08642l-1.21484-4.02295L129.48047,25.92968z"/>
		
			<path fill="#A3A3A3" stroke="#A3A3A3" stroke-width="0.25" stroke-linecap="round" stroke-linejoin="round" stroke-miterlimit="10" d="
			M133.82422,27.30272l1.74805-0.12061l0.00781,0.10059c0.03125,0.46484-0.07129,0.97754-0.31055,1.35498
			c-0.11426,0.17822-0.54492,0.79492-1.50781,0.8623c-1.24414,0.08594-2.24023-0.79932-2.3252-2.01855
			c-0.08398-1.21973,0.78613-2.2334,2.03809-2.32178c0.40234-0.02783,0.88086,0.04102,1.31055,0.32764
			c0.19922,0.13037,0.38867,0.30762,0.51953,0.46289l-0.32422,0.33789c-0.13086-0.16211-0.28027-0.30273-0.42578-0.40723
			c-0.21289-0.14893-0.54102-0.31543-1.04297-0.28076c-1.0127,0.0708-1.66406,0.87939-1.59668,1.85352
			c0.0791,1.14551,1.03027,1.66064,1.82324,1.60596c0.55957-0.03857,1.02344-0.35547,1.23438-0.79346
			c0.06641-0.1377,0.13281-0.34521,0.12793-0.60938l-1.24512,0.08691L133.82422,27.30272z"/>
		
			<path fill="#A3A3A3" stroke="#A3A3A3" stroke-width="0.25" stroke-linecap="round" stroke-linejoin="round" stroke-miterlimit="10" d="
			M139.24414,27.89745l1.69336,0.44092l-0.02441,0.09863c-0.11816,0.44971-0.37891,0.90234-0.72559,1.18311
			c-0.16406,0.1333-0.76953,0.58105-1.70117,0.33887c-1.20703-0.31494-1.86914-1.46973-1.56152-2.65234
			c0.30762-1.18164,1.45605-1.86621,2.66895-1.55078c0.38965,0.10205,0.82129,0.31836,1.13867,0.72607
			c0.14648,0.18799,0.26953,0.41455,0.34375,0.604l-0.41504,0.21777c-0.07324-0.19434-0.16895-0.37695-0.27441-0.52051
			c-0.1543-0.20898-0.41113-0.47217-0.89844-0.59814c-0.98145-0.25586-1.85547,0.30371-2.10156,1.24902
			c-0.28906,1.10791,0.44727,1.89941,1.2168,2.09961c0.54199,0.14111,1.08301-0.01074,1.4209-0.35889
			c0.10645-0.10938,0.23535-0.28418,0.31543-0.53711l-1.20703-0.31348L139.24414,27.89745z"/>
		
			<path fill="#A3A3A3" stroke="#A3A3A3" stroke-width="0.25" stroke-linecap="round" stroke-linejoin="round" stroke-miterlimit="10" d="
			M144.95313,28.70214l-1.48242-0.85889l-0.62695,1.07813l1.43945,0.83496l-0.2207,0.38135l-1.43945-0.83398l-0.81836,1.41162
			l1.48242,0.85889l-0.2207,0.38184l-1.88672-1.09424l2.10742-3.63428l1.88672,1.09326L144.95313,28.70214z"/>
		
			<path fill="#A3A3A3" stroke="#A3A3A3" stroke-width="0.25" stroke-linecap="round" stroke-linejoin="round" stroke-miterlimit="10" d="
			M147.17188,29.90136c0.20898,0.19287,0.50781,0.49268,0.59375,0.86377c0.07031,0.28711,0.00977,0.66943-0.29297,0.99854
			c-0.43555,0.47314-1.06641,0.53564-1.56641,0.13721l-0.28711,2.2876l-0.41797-0.38428l0.30469-2.22217l-0.08887-0.07959
			l-1.24707,1.354l-0.34375-0.31543l2.84961-3.09619L147.17188,29.90136z M145.69922,31.1953l0.21875,0.20068
			c0.42578,0.39209,0.86914,0.42383,1.20313,0.06152c0.15723-0.17188,0.26367-0.39014,0.17188-0.68115
			c-0.06641-0.20752-0.2168-0.36182-0.36426-0.49854l-0.20898-0.19287L145.69922,31.1953z"/>
	</g>
	<g>
		<g>
			
				<path fill="#A3A3A3" stroke="#A3A3A3" stroke-width="0.25" stroke-linecap="round" stroke-linejoin="round" stroke-miterlimit="10" d="
				M127.11914,56.91308l-2.23633,3.55322l-0.39453-0.24756l2.2373-3.55371L127.11914,56.91308z"/>
			
				<path fill="#A3A3A3" stroke="#A3A3A3" stroke-width="0.25" stroke-linecap="round" stroke-linejoin="round" stroke-miterlimit="10" d="
				M126.86719,61.62694l1.41992-4.14551l1.98828,4.3125l1.05664-3.08301l0.44141,0.15088l-1.42383,4.15869l-1.98828-4.31348
				l-1.05273,3.07178L126.86719,61.62694z"/>
			
				<path fill="#A3A3A3" stroke="#A3A3A3" stroke-width="0.25" stroke-linecap="round" stroke-linejoin="round" stroke-miterlimit="10" d="
				M133.84766,59.02782c0.42188,0.02393,0.77148,0.09277,1.04102,0.354c0.29395,0.28076,0.34961,0.65674,0.33398,0.92139
				c-0.03125,0.59131-0.43555,1.15527-1.39258,1.104l-0.4082-0.02246l-0.10059,1.82471l-0.46582-0.02588l0.23047-4.19824
				L133.84766,59.02782z M133.44531,60.94384l0.38477,0.021c0.55371,0.02979,0.90234-0.22852,0.92871-0.71289
				c0.03711-0.66748-0.58301-0.76416-0.88477-0.78076l-0.34668-0.01904L133.44531,60.94384z"/>
			
				<path fill="#A3A3A3" stroke="#A3A3A3" stroke-width="0.25" stroke-linecap="round" stroke-linejoin="round" stroke-miterlimit="10" d="
				M137.1543,61.50683c0.06836,0.34668,0.14258,0.72363,0.52344,0.93799c0.19434,0.10791,0.49609,0.146,0.72461,0.10059
				c0.22949-0.04443,0.49609-0.19238,0.63379-0.36768c0.27246-0.34131,0.19922-0.71777,0.13184-1.06396l-0.49414-2.52539
				l0.45703-0.08936l0.51855,2.64893c0.06738,0.34619,0.0957,0.68652-0.06641,1.03857
				c-0.18066,0.38867-0.57129,0.68896-1.0957,0.7915c-0.52441,0.10205-0.99902-0.02881-1.3125-0.3208
				c-0.28223-0.26465-0.38574-0.59131-0.45215-0.93652l-0.51758-2.64941l0.45605-0.08936L137.1543,61.50683z"/>
			
				<path fill="#A3A3A3" stroke="#A3A3A3" stroke-width="0.25" stroke-linecap="round" stroke-linejoin="round" stroke-miterlimit="10" d="
				M141.47949,57.96435l1.60059,3.40088l-0.4209,0.19873l-1.60059-3.3999l-0.92383,0.43408l-0.1875-0.39893l2.26758-1.06738
				l0.1875,0.39893L141.47949,57.96435z"/>
		</g>
	</g>
</g>
</svg>
