<?xml version="1.0" encoding="utf-8"?>
<!-- Generator: Adobe Illustrator 24.0.2, SVG Export Plug-In . SVG Version: 6.00 Build 0)  -->
<svg version="1.0" id="Layer_1" xmlns="http://www.w3.org/2000/svg" xmlns:xlink="http://www.w3.org/1999/xlink" x="0px" y="0px"
	 width="270px" height="380px" viewBox="0 0 270 380" enable-background="new 0 0 270 380" xml:space="preserve">
<g id="_x31_0">
	<rect y="-0.00001" fill="none" width="270" height="380"/>
	<g>
		<circle fill="#262424" stroke="#606266" stroke-width="0.5" stroke-miterlimit="10" cx="83.47665" cy="145.47665" r="34.93385"/>
		
			<line fill="none" stroke="#606266" stroke-width="0.75" stroke-miterlimit="10" x1="83.47665" y1="145.47665" x2="59.06974" y2="169.88356"/>
		
			<line fill="none" stroke="#606266" stroke-width="0.5" stroke-miterlimit="10" x1="83.47665" y1="145.47665" x2="51.11647" y2="157.6801"/>
		
			<line fill="none" stroke="#606266" stroke-width="0.5" stroke-miterlimit="10" x1="83.47665" y1="145.47665" x2="116.17216" y2="157.80656"/>
		
			<line fill="none" stroke="#606266" stroke-width="0.75" stroke-miterlimit="10" x1="83.47665" y1="145.47665" x2="108.1785" y2="170.17851"/>
		<circle fill="#262424" stroke="#606266" stroke-width="0.75" stroke-miterlimit="10" cx="83.47665" cy="145.47665" r="23.5"/>
	</g>
	<g>
		<circle fill="#262424" stroke="#606266" stroke-width="0.5" stroke-miterlimit="10" cx="186.5" cy="145.44551" r="34.93385"/>
		
			<line fill="none" stroke="#606266" stroke-width="0.75" stroke-miterlimit="10" x1="186.5" y1="145.44551" x2="162.09309" y2="169.85242"/>
		
			<line fill="none" stroke="#606266" stroke-width="0.5" stroke-miterlimit="10" x1="186.5" y1="145.44551" x2="154.13982" y2="157.64897"/>
		
			<line fill="none" stroke="#606266" stroke-width="0.5" stroke-miterlimit="10" x1="186.5" y1="145.44551" x2="219.19551" y2="157.77542"/>
		
			<line fill="none" stroke="#606266" stroke-width="0.75" stroke-miterlimit="10" x1="186.5" y1="145.44551" x2="211.20186" y2="170.14737"/>
		<circle fill="#262424" stroke="#606266" stroke-width="0.75" stroke-miterlimit="10" cx="186.5" cy="145.44551" r="23.5"/>
	</g>
	<g>
		<circle fill="#262424" stroke="#606266" stroke-width="0.5" stroke-miterlimit="10" cx="134.79781" cy="198.29781" r="34.93385"/>
		
			<line fill="none" stroke="#606266" stroke-width="0.75" stroke-miterlimit="10" x1="134.79781" y1="198.29781" x2="110.39089" y2="222.70471"/>
		
			<line fill="none" stroke="#606266" stroke-width="0.5" stroke-miterlimit="10" x1="134.79781" y1="198.29781" x2="102.43762" y2="210.50125"/>
		
			<line fill="none" stroke="#606266" stroke-width="0.5" stroke-miterlimit="10" x1="134.79781" y1="198.29781" x2="127.69814" y2="164.08606"/>
		
			<line fill="none" stroke="#606266" stroke-width="0.5" stroke-miterlimit="10" x1="134.79781" y1="198.29781" x2="141.89746" y2="164.08604"/>
		
			<line fill="none" stroke="#606266" stroke-width="0.5" stroke-miterlimit="10" x1="134.79781" y1="198.29781" x2="167.49332" y2="210.62772"/>
		
			<line fill="none" stroke="#606266" stroke-width="0.75" stroke-miterlimit="10" x1="134.79781" y1="198.29781" x2="159.49966" y2="222.99966"/>
		<circle fill="#262424" stroke="#606266" stroke-width="0.75" stroke-miterlimit="10" cx="134.79781" cy="198.29781" r="23.5"/>
	</g>
	<g>
		<circle fill="#262424" stroke="#606266" stroke-width="0.5" stroke-miterlimit="10" cx="135" cy="283.5" r="34.93385"/>
		
			<line fill="none" stroke="#606266" stroke-width="0.75" stroke-miterlimit="10" x1="135" y1="283.5" x2="110.30396" y2="308.19604"/>
		
			<line fill="none" stroke="#606266" stroke-width="0.75" stroke-miterlimit="10" x1="135" y1="283.5" x2="159.69603" y2="308.19604"/>
		<line fill="none" stroke="#606266" stroke-width="0.5" stroke-miterlimit="10" x1="135" y1="248.56616" x2="135" y2="283.5"/>
		<circle fill="#262424" stroke="#606266" stroke-width="0.75" stroke-miterlimit="10" cx="135" cy="283.5" r="23.5"/>
	</g>
	<g>
		<circle fill="none" cx="71" cy="351" r="14.578"/>
		
			<path fill="#A3A3A3" stroke="#A3A3A3" stroke-width="0.25" stroke-linecap="round" stroke-linejoin="round" stroke-miterlimit="10" d="
			M52.66113,346.71875l3.41309-0.21484l-2.73438-2.05518l0.14844-0.49512l3.78125,2.90723l-4.75586,0.35303L52.66113,346.71875z"/>
		
			<path fill="#A3A3A3" stroke="#A3A3A3" stroke-width="0.25" stroke-linecap="round" stroke-linejoin="round" stroke-miterlimit="10" d="
			M57.75781,342.36816l-0.88867,1.55029l0.77734,1.0249l-0.25586,0.44824l-2.85938-3.86279l4.75391,0.55273l-0.25586,0.44824
			L57.75781,342.36816z M57.28516,342.30664l-1.80859-0.22266l1.10156,1.45801L57.28516,342.30664z"/>
		
			<path fill="#A3A3A3" stroke="#A3A3A3" stroke-width="0.25" stroke-linecap="round" stroke-linejoin="round" stroke-miterlimit="10" d="
			M57.10742,338.33252c0.19434-0.20605,0.49805-0.49854,0.86914-0.58105c0.28711-0.06592,0.66797-0.00049,0.99219,0.30713
			c0.46582,0.44092,0.51953,1.0708,0.11426,1.56299l2.27832,0.31885l-0.38867,0.41162l-2.21289-0.33545l-0.08203,0.08789
			l1.33496,1.26221l-0.31934,0.33838l-3.04883-2.8833L57.10742,338.33252z M58.37695,339.81836l0.20313-0.21436
			c0.39746-0.4209,0.43359-0.86182,0.07813-1.19971c-0.16992-0.15967-0.38672-0.26904-0.67773-0.18066
			c-0.20703,0.06299-0.36328,0.21045-0.50195,0.35596l-0.19434,0.20557L58.37695,339.81836z"/>
		
			<path fill="#A3A3A3" stroke="#A3A3A3" stroke-width="0.25" stroke-linecap="round" stroke-linejoin="round" stroke-miterlimit="10" d="
			M59.84766,335.85547l2.53711,3.34521l-0.37109,0.28125l-2.53711-3.3457L59.84766,335.85547z"/>
		
			<path fill="#A3A3A3" stroke="#A3A3A3" stroke-width="0.25" stroke-linecap="round" stroke-linejoin="round" stroke-miterlimit="10" d="
			M64.83203,336.43164l-1.60742,0.79102l0.07227,1.28662l-0.46484,0.22803l-0.20996-4.80859l3.6377,3.12012l-0.46289,0.22803
			L64.83203,336.43164z M64.47266,336.11621l-1.37695-1.19824l0.09863,1.82813L64.47266,336.11621z"/>
		
			<path fill="#A3A3A3" stroke="#A3A3A3" stroke-width="0.25" stroke-linecap="round" stroke-linejoin="round" stroke-miterlimit="10" d="
			M66.62305,332.69287c0.22852-0.04834,0.64453-0.11963,0.99902,0.0542c0.15137,0.0708,0.44629,0.27051,0.55566,0.76953
			c0.04297,0.2041,0.07813,0.5708-0.23047,0.89697c0.60352,0.01563,0.92188,0.46924,1.00781,0.86426
			c0.08594,0.39355-0.04102,0.75781-0.22559,0.97852c-0.27051,0.33057-0.64355,0.42432-0.92676,0.48633l-1.02344,0.22314
			l-0.89648-4.11084L66.62305,332.69287z M66.73242,334.56152l0.3457-0.0752c0.24023-0.05225,0.79688-0.22607,0.6582-0.85938
			c-0.14844-0.6792-0.81641-0.54541-0.94531-0.51758l-0.35742,0.07813L66.73242,334.56152z M67.14063,336.43457l0.52539-0.11377
			c0.26367-0.05762,0.51953-0.13232,0.68359-0.33057c0.13379-0.15137,0.2002-0.37842,0.14648-0.625
			c-0.07031-0.32715-0.30371-0.47607-0.48242-0.52783c-0.17383-0.05273-0.39648-0.04248-0.72363,0.02832l-0.46777,0.10205
			L67.14063,336.43457z"/>
		
			<path fill="#A3A3A3" stroke="#A3A3A3" stroke-width="0.25" stroke-linecap="round" stroke-linejoin="round" stroke-miterlimit="10" d="
			M70.42773,332.19727l0.0957,3.75879l1.1582-0.0293l0.01172,0.43945l-1.625,0.04199l-0.10742-4.19922L70.42773,332.19727z"/>
		
			<path fill="#A3A3A3" stroke="#A3A3A3" stroke-width="0.25" stroke-linecap="round" stroke-linejoin="round" stroke-miterlimit="10" d="
			M75.10156,333.05371l-1.68945-0.27051l-0.19727,1.22949l1.64063,0.26367l-0.07031,0.43408l-1.63965-0.26172l-0.25781,1.60889
			l1.68945,0.26953l-0.06934,0.43457l-2.15039-0.34424l0.66406-4.14258l2.14941,0.34375L75.10156,333.05371z"/>
		
			<path fill="#A3A3A3" stroke="#A3A3A3" stroke-width="0.25" stroke-linecap="round" stroke-linejoin="round" stroke-miterlimit="10" d="
			M80.97656,335.54834l-1.25977-0.71582l-0.61328,1.0791l1.2168,0.69092l-0.21777,0.38379l-1.21582-0.69092l-1.02734,1.80615
			l-0.4043-0.23047l2.07422-3.65234l1.66504,0.94629L80.97656,335.54834z"/>
		
			<path fill="#A3A3A3" stroke="#A3A3A3" stroke-width="0.25" stroke-linecap="round" stroke-linejoin="round" stroke-miterlimit="10" d="
			M82.78516,336.35205l-2.5957,3.2998l-0.36621-0.28809l2.5957-3.29883L82.78516,336.35205z"/>
		
			<path fill="#A3A3A3" stroke="#A3A3A3" stroke-width="0.25" stroke-linecap="round" stroke-linejoin="round" stroke-miterlimit="10" d="
			M84.44238,337.85303l-2.70996,2.61084l0.80469,0.83594l-0.31641,0.30566l-1.12891-1.17188l3.02734-2.9165L84.44238,337.85303z"/>
		
			<path fill="#A3A3A3" stroke="#A3A3A3" stroke-width="0.25" stroke-linecap="round" stroke-linejoin="round" stroke-miterlimit="10" d="
			M86.25391,340.78223l-3.09766,2.13281l-0.26563-0.38379l3.09961-2.13281l-0.5791-0.84033l0.3623-0.25098l1.42188,2.06641
			l-0.3623,0.25L86.25391,340.78223z"/>
		
			<path fill="#A3A3A3" stroke="#A3A3A3" stroke-width="0.25" stroke-linecap="round" stroke-linejoin="round" stroke-miterlimit="10" d="
			M88.32227,344.82227l-0.67676-1.57373L86.5,343.7417l0.65723,1.52832l-0.40527,0.1748l-0.6582-1.52832l-1.49805,0.64502
			l0.67676,1.57373l-0.40527,0.1748l-0.86133-2.00244l3.86035-1.66162l0.8623,2.00244L88.32227,344.82227z"/>
		
			<path fill="#A3A3A3" stroke="#A3A3A3" stroke-width="0.25" stroke-linecap="round" stroke-linejoin="round" stroke-miterlimit="10" d="
			M89.34766,346.97949c0.05469,0.27783,0.11719,0.69434-0.0332,1.04492c-0.11328,0.27246-0.38672,0.54395-0.82617,0.62988
			c-0.62891,0.12354-1.17383-0.2002-1.33789-0.81592l-1.58594,1.66992l-0.10742-0.55664l1.55762-1.60645l-0.02246-0.1167
			l-1.80273,0.35254l-0.08984-0.45703l4.11914-0.80518L89.34766,346.97949z M87.39941,347.14893l0.05762,0.29004
			c0.10938,0.56787,0.44824,0.854,0.92969,0.76074c0.22852-0.04492,0.44434-0.1582,0.54199-0.4458
			c0.06738-0.20557,0.04004-0.41797,0.00098-0.61621l-0.05469-0.27686L87.39941,347.14893z"/>
	</g>
	<g>
		<circle fill="none" cx="199.5" cy="351.03378" r="14.578"/>
		
			<path fill="#A3A3A3" stroke="#A3A3A3" stroke-width="0.25" stroke-linecap="round" stroke-linejoin="round" stroke-miterlimit="10" d="
			M184.15234,340.94922l3.17383,2.02148l-0.25,0.39355l-3.1748-2.02051l-0.54785,0.85986l-0.37207-0.2373l1.34668-2.11426
			l0.37305,0.23633L184.15234,340.94922z"/>
		
			<path fill="#A3A3A3" stroke="#A3A3A3" stroke-width="0.25" stroke-linecap="round" stroke-linejoin="round" stroke-miterlimit="10" d="
			M185.33008,338.43311l2.9043,1.65234l-1.21289-3.40479l3.14844,1.72314l-1.13672-3.18555l0.38867-0.33887l1.56934,4.49854
			l-3.13965-1.73193l1.20703,3.40918l-4.11914-2.28223L185.33008,338.43311z"/>
		
			<path fill="#A3A3A3" stroke="#A3A3A3" stroke-width="0.25" stroke-linecap="round" stroke-linejoin="round" stroke-miterlimit="10" d="
			M191.3457,334.08057l1.86816,3.76172l-0.41699,0.20703l-1.86719-3.76123L191.3457,334.08057z"/>
		
			<path fill="#A3A3A3" stroke="#A3A3A3" stroke-width="0.25" stroke-linecap="round" stroke-linejoin="round" stroke-miterlimit="10" d="
			M194.14258,337.31104l-1.05957-4.25098l4.01172,2.54102l-0.78809-3.1626l0.45313-0.11279l1.0625,4.26465l-4.01172-2.54248
			l0.78516,3.15137L194.14258,337.31104z"/>
		
			<path fill="#A3A3A3" stroke="#A3A3A3" stroke-width="0.25" stroke-linecap="round" stroke-linejoin="round" stroke-miterlimit="10" d="
			M202.53125,332.45947c0.41699,0.07031,0.75684,0.17969,0.99609,0.46924c0.25977,0.31299,0.27148,0.69238,0.22754,0.95313
			c-0.09863,0.58496-0.56445,1.10059-1.50879,0.93994l-0.4043-0.06738l-0.30664,1.80225l-0.45996-0.07813l0.7041-4.14697
			L202.53125,332.45947z M201.91504,334.31836l0.37988,0.06445c0.54688,0.09229,0.92285-0.125,1.00391-0.60303
			c0.1123-0.65918-0.49219-0.82617-0.79102-0.87744l-0.3418-0.05713L201.91504,334.31836z"/>
		
			<path fill="#A3A3A3" stroke="#A3A3A3" stroke-width="0.25" stroke-linecap="round" stroke-linejoin="round" stroke-miterlimit="10" d="
			M207.27734,334.35205l-1.59473-0.62451l-0.45508,1.16162l1.54785,0.60596l-0.16016,0.41064l-1.54883-0.60742l-0.59375,1.52051
			l1.59473,0.62451l-0.16113,0.41064l-2.0293-0.79492l1.53223-3.91113l2.02832,0.79395L207.27734,334.35205z"/>
		
			<path fill="#A3A3A3" stroke="#A3A3A3" stroke-width="0.25" stroke-linecap="round" stroke-linejoin="round" stroke-miterlimit="10" d="
			M209.22266,338.56299l-1.47168-1.02197l-1.09082,0.68652l-0.42383-0.29492l4.10352-2.51807l-0.96387,4.69775l-0.4248-0.29492
			L209.22266,338.56299z M209.32422,338.0957l0.38086-1.78564l-1.55176,0.97314L209.32422,338.0957z"/>
		
			<path fill="#A3A3A3" stroke="#A3A3A3" stroke-width="0.25" stroke-linecap="round" stroke-linejoin="round" stroke-miterlimit="10" d="
			M211.83203,339.31104l2.53125,0.1748l0.41211,0.47607l-2.76563-0.20508l-0.36914,2.99805l-0.41992-0.48486l0.33301-2.55908
			l-0.16895-0.01221l-1.36621,1.18164l-0.30566-0.35254l3.17578-2.74561l0.30469,0.35156L211.83203,339.31104z"/>
		
			<path fill="#A3A3A3" stroke="#A3A3A3" stroke-width="0.25" stroke-linecap="round" stroke-linejoin="round" stroke-miterlimit="10" d="
			M215.63965,343.12012c0.07324-0.10352,0.1377-0.24707,0.15918-0.36572c0.0166-0.10205,0.0166-0.27295-0.09766-0.48389
			c-0.19824-0.36523-0.56445-0.49609-0.90625-0.31006c-0.14453,0.07813-0.20508,0.16211-0.24609,0.3125
			c-0.05078,0.17041-0.03613,0.34229-0.02148,0.51318l0.03711,0.4375c0.02344,0.2666,0.03223,0.521-0.03906,0.76025
			c-0.08594,0.28955-0.25879,0.48438-0.52441,0.62842c-0.68066,0.36963-1.40723,0.11279-1.76758-0.55078
			c-0.13184-0.24316-0.24805-0.57471-0.13672-0.96387c0.07715-0.27832,0.27246-0.52734,0.46582-0.69775l0.32617,0.33789
			c-0.17773,0.13232-0.29492,0.31201-0.34863,0.47705c-0.07324,0.24707-0.01855,0.45313,0.08301,0.64209
			c0.27344,0.50342,0.76172,0.54492,1.13281,0.34375c0.16602-0.08984,0.2832-0.21729,0.33203-0.41748
			c0.04297-0.15771,0.03125-0.33789,0.01465-0.57959l-0.02637-0.41602c-0.01172-0.17969-0.0332-0.4043,0.03711-0.65723
			c0.06836-0.24414,0.1875-0.43262,0.46484-0.58105c0.56934-0.31006,1.1875-0.08008,1.5127,0.5166
			c0.12402,0.22656,0.17871,0.43311,0.15527,0.68213c-0.01758,0.20313-0.09766,0.41064-0.21289,0.58105L215.63965,343.12012z"/>
	</g>
	<g>
		
			<ellipse transform="matrix(0.08248 -0.99659 0.99659 0.08248 7.76603 241.4274)" fill="none" cx="135" cy="116.49604" rx="25.58" ry="25.58002"/>
		<path fill="#A3A3A3" stroke="#A3A3A3" stroke-width="0.25" stroke-miterlimit="10" d="M112.69727,99.61572l-2.54688-0.38818
			l0.35938-0.46484l1.97852,0.31152l-0.7793-1.85938l0.35938-0.46387l0.99707,2.38916l2.7334,0.40967l-0.35938,0.46387
			l-2.16992-0.32568l0.85156,2.0293l-0.35938,0.46436L112.69727,99.61572z"/>
		<path fill="#A3A3A3" stroke="#A3A3A3" stroke-width="0.25" stroke-miterlimit="10" d="M115.91602,98.5664
			c0.12891-0.13721,0.35742-0.14502,0.49414-0.01514c0.13867,0.12891,0.14551,0.35693,0.01563,0.49463
			c-0.12891,0.1377-0.35645,0.14453-0.49414,0.01563C115.79395,98.93212,115.78711,98.70409,115.91602,98.5664z"/>
		<path fill="#A3A3A3" stroke="#A3A3A3" stroke-width="0.25" stroke-miterlimit="10" d="M117.50586,92.42577l-1.26172,0.99707
			l0.85547,1.08154l1.2168-0.96338l0.30469,0.38379l-1.21875,0.96289l1.43164,1.80957l-0.4043,0.32129l-2.89453-3.65869
			l1.66797-1.31738L117.50586,92.42577z"/>
		<path fill="#A3A3A3" stroke="#A3A3A3" stroke-width="0.25" stroke-miterlimit="10" d="M118.65039,91.0703l2.56348,3.90234
			l-0.43262,0.28467l-2.56445-3.90381L118.65039,91.0703z"/>
		<path fill="#A3A3A3" stroke="#A3A3A3" stroke-width="0.25" stroke-miterlimit="10" d="M120.34766,90.05322l2.01367,3.66504
			l1.12891-0.62158l0.23633,0.43018l-1.58398,0.86963l-2.24902-4.09424L120.34766,90.05322z"/>
		<path fill="#A3A3A3" stroke="#A3A3A3" stroke-width="0.25" stroke-miterlimit="10" d="M123.54883,89.04688l1.64063,3.84814
			l-0.47656,0.20313l-1.64063-3.84815l-1.04395,0.4458l-0.19238-0.45117l2.56543-1.09375l0.19238,0.45117L123.54883,89.04688z"/>
		<path fill="#A3A3A3" stroke="#A3A3A3" stroke-width="0.25" stroke-miterlimit="10" d="M127.94922,87.58104l-1.8291,0.53125
			l0.38672,1.33203l1.77637-0.51514l0.13574,0.46973l-1.77539,0.51563l0.50488,1.74316l1.83008-0.53174l0.13672,0.4707
			l-2.32715,0.67529l-1.30176-4.48633l2.32617-0.67529L127.94922,87.58104z"/>
		<path fill="#A3A3A3" stroke="#A3A3A3" stroke-width="0.25" stroke-miterlimit="10" d="M129.9082,86.70995
			c0.31055-0.0498,0.77637-0.10107,1.15918,0.0791c0.29785,0.1377,0.58691,0.45313,0.66504,0.94434
			c0.10938,0.7041-0.27148,1.29443-0.96289,1.45215l1.78809,1.82959l-0.62207,0.09619l-1.71875-1.79639l-0.13086,0.02002
			l0.31641,2.01758l-0.51172,0.08008l-0.72266-4.60742L129.9082,86.70995z M130.01465,88.87988l0.3252-0.05127
			c0.63477-0.09961,0.9668-0.46338,0.88281-1.00293c-0.04102-0.25439-0.15625-0.49805-0.47266-0.61963
			c-0.22559-0.08447-0.46191-0.06152-0.68359-0.02686l-0.31055,0.04932L130.01465,88.87988z"/>
		<path fill="#A3A3A3" stroke="#A3A3A3" stroke-width="0.25" stroke-miterlimit="10" d="M135.5166,86.73681l-1.9043,0.0542
			l0.04004,1.38623l1.84766-0.0542l0.01465,0.49072l-1.84766,0.05322l0.05176,1.81299l1.9043-0.05518l0.01465,0.49072
			l-2.42285,0.06885l-0.13477-4.66797l2.42188-0.07031L135.5166,86.73681z"/>
		<path fill="#A3A3A3" stroke="#A3A3A3" stroke-width="0.25" stroke-miterlimit="10" d="M136.9668,86.28954l0.94531,0.11035
			c0.4668,0.05566,1.12109,0.18213,1.64746,0.74365c0.38184,0.40576,0.68066,1.03906,0.58398,1.87451
			c-0.11523,0.97217-0.65625,1.43799-1.02344,1.68359c-0.4668,0.31201-0.93262,0.43408-1.76074,0.33643l-0.9375-0.11035
			L136.9668,86.28954z M136.99316,90.50048l0.45215,0.0542c0.36914,0.04297,0.88086,0.06104,1.37695-0.26172
			c0.38184-0.25049,0.71484-0.67725,0.79199-1.33887c0.13086-1.11133-0.56348-1.92627-1.73828-2.06543l-0.45215-0.05225
			L136.99316,90.50048z"/>
		<path fill="#A3A3A3" stroke="#A3A3A3" stroke-width="0.25" stroke-miterlimit="10" d="M142.10059,91.85253l1.72363-4.5459
			l2.0498,4.85498l1.2832-3.38086l0.4834,0.18311l-1.72852,4.55859l-2.0498-4.85498l-1.27832,3.36914L142.10059,91.85253z"/>
		<path fill="#A3A3A3" stroke="#A3A3A3" stroke-width="0.25" stroke-miterlimit="10" d="M147.92285,91.65868
			c0.74707-1.17676,2.21191-1.45703,3.34668-0.73584c1.13574,0.7207,1.50391,2.1665,0.75586,3.34326
			c-0.74414,1.16992-2.20703,1.46045-3.34766,0.73633C147.53711,94.27686,147.17871,92.83007,147.92285,91.65868z
			 M148.37207,91.9453c-0.5752,0.90283-0.31738,2.07959,0.56934,2.64307c0.88672,0.56299,2.05957,0.29736,2.63477-0.60791
			c0.57422-0.90381,0.31836-2.07959-0.56836-2.64307S148.94629,91.04003,148.37207,91.9453z"/>
		<path fill="#A3A3A3" stroke="#A3A3A3" stroke-width="0.25" stroke-miterlimit="10" d="M154.71289,93.56688l-3.01172,3.57324
			l-0.39648-0.33447l3.01172-3.57324L154.71289,93.56688z"/>
		<path fill="#A3A3A3" stroke="#A3A3A3" stroke-width="0.25" stroke-miterlimit="10" d="M156.67969,96.7412
			c0.0459-0.13232,0.07324-0.30615,0.06055-0.44043c-0.01367-0.11328-0.06543-0.29736-0.25-0.48779
			c-0.32324-0.33154-0.75391-0.36279-1.06445-0.05957c-0.13086,0.12598-0.17188,0.23584-0.16895,0.4082
			c-0.00293,0.19824,0.06348,0.37646,0.13086,0.55664l0.1709,0.45801c0.10547,0.27832,0.19141,0.54639,0.1875,0.82373
			c-0.00488,0.3374-0.13184,0.59766-0.37305,0.83203c-0.61719,0.60059-1.47363,0.54395-2.05859-0.05811
			c-0.21484-0.2207-0.43945-0.5415-0.4375-0.99219c0-0.32129,0.13281-0.64648,0.29004-0.88623l0.45215,0.26318
			c-0.15234,0.1958-0.22363,0.42236-0.23242,0.61572c-0.00293,0.2876,0.11719,0.49219,0.2832,0.66211
			c0.44434,0.45654,0.98047,0.35498,1.31738,0.02881c0.14941-0.14697,0.2373-0.31787,0.22949-0.54736
			c-0.00195-0.18164-0.06836-0.37207-0.16016-0.62549l-0.15137-0.4375c-0.06641-0.18896-0.1582-0.42285-0.1582-0.71484
			c-0.00098-0.28223,0.07129-0.51904,0.32227-0.76367c0.5166-0.50146,1.24902-0.44238,1.77637,0.09912
			c0.19922,0.20557,0.32031,0.41113,0.37109,0.68408c0.04102,0.22314,0.01855,0.4707-0.05371,0.6875L156.67969,96.7412z"/>
		<path fill="#A3A3A3" stroke="#A3A3A3" stroke-width="0.25" stroke-miterlimit="10" d="M159.69629,99.85888l-1.13379-1.52637
			l-1.11133,0.8252l1.09961,1.48193l-0.39258,0.29199l-1.09961-1.48242l-1.4541,1.08057l1.13379,1.52539l-0.39258,0.29248
			l-1.44336-1.94189l3.74414-2.78125l1.44141,1.94287L159.69629,99.85888z"/>
	</g>
	<g>
		<circle fill="none" cx="83.5" cy="145.5" r="28.59473"/>
		<path fill="#A3A3A3" stroke="#A3A3A3" stroke-width="0.25" stroke-linejoin="round" stroke-miterlimit="10" d="M70.5625,174.0459
			l1.9043-5.22314l2.41406,5.51953l1.41602-3.88428l0.55664,0.20264l-1.91016,5.23828l-2.41406-5.521l-1.41016,3.87061
			L70.5625,174.0459z"/>
		<path fill="#A3A3A3" stroke="#A3A3A3" stroke-width="0.25" stroke-linejoin="round" stroke-miterlimit="10" d="
			M77.77539,173.64355c0.16016-1.58301,1.51172-2.61914,3.03906-2.46338c1.52734,0.15527,2.6416,1.44238,2.48047,3.02637
			c-0.16016,1.57471-1.50391,2.61816-3.03906,2.46191C78.71973,176.51318,77.61523,175.21826,77.77539,173.64355z
			 M78.37891,173.70557c-0.12305,1.21631,0.74023,2.28516,1.93359,2.40576c1.19238,0.12158,2.25391-0.74951,2.37793-1.9668
			s-0.73926-2.28564-1.93262-2.40723S78.50293,172.48779,78.37891,173.70557z"/>
		<path fill="#A3A3A3" stroke="#A3A3A3" stroke-width="0.25" stroke-linejoin="round" stroke-miterlimit="10" d="
			M85.60938,171.30762l0.38477,5.32617l-0.59082,0.04248l-0.38477-5.3252L85.60938,171.30762z"/>
		<path fill="#A3A3A3" stroke="#A3A3A3" stroke-width="0.25" stroke-linejoin="round" stroke-miterlimit="10" d="M89.9668,171.68359
			c-0.09961-0.12549-0.24902-0.25781-0.38672-0.32861c-0.11719-0.05566-0.32715-0.11816-0.625-0.05713
			c-0.51563,0.1084-0.80859,0.50439-0.70703,0.98926c0.04297,0.2041,0.12109,0.30957,0.29102,0.4126
			c0.1875,0.12451,0.40234,0.16992,0.61523,0.21484l0.54688,0.11475c0.33203,0.06934,0.64355,0.15137,0.9082,0.32422
			c0.32227,0.21143,0.49512,0.49316,0.57422,0.86816c0.2002,0.96289-0.37793,1.75293-1.31641,1.94922
			c-0.34473,0.07178-0.79004,0.0918-1.22266-0.18652c-0.31055-0.1958-0.54297-0.52246-0.67773-0.8208l0.53027-0.27441
			c0.0957,0.26611,0.27051,0.47461,0.45215,0.6001c0.27344,0.17871,0.54492,0.18799,0.81152,0.13281
			c0.71191-0.14893,0.94141-0.72803,0.83301-1.25195c-0.0498-0.23486-0.16211-0.42383-0.38574-0.55713
			c-0.17871-0.10938-0.40137-0.16016-0.70215-0.22852l-0.51465-0.12158c-0.22266-0.05078-0.50391-0.10693-0.78613-0.28418
			c-0.27344-0.17285-0.45605-0.38721-0.53809-0.77881c-0.16797-0.80615,0.33691-1.47461,1.18262-1.65039
			c0.32031-0.06689,0.5918-0.05957,0.88574,0.05957c0.24121,0.09619,0.46582,0.271,0.62988,0.47266L89.9668,171.68359z"/>
		<path fill="#A3A3A3" stroke="#A3A3A3" stroke-width="0.25" stroke-linejoin="round" stroke-miterlimit="10" d="
			M94.57129,169.58203l-2.02734,0.79102l0.57617,1.47607l1.96777-0.76807l0.20313,0.521l-1.9668,0.76904l0.75391,1.92969
			l2.02734-0.79102l0.20313,0.52148l-2.5791,1.00732l-1.94043-4.97168l2.57813-1.00684L94.57129,169.58203z"/>
	</g>
	<g>
		<circle fill="none" cx="186.44551" cy="145.5" r="28.59473"/>
		<path fill="#A3A3A3" stroke="#A3A3A3" stroke-width="0.25" stroke-linejoin="round" stroke-miterlimit="10" d="
			M175.84961,169.16943c0.33008,0.14014,0.81445,0.37207,1.07617,0.7793c0.20605,0.31348,0.29688,0.7959,0.07422,1.31836
			c-0.31836,0.75098-1.04688,1.09424-1.8125,0.82959l0.62793,2.8584l-0.66309-0.28125l-0.58105-2.78662l-0.13965-0.06006
			l-0.91406,2.1499l-0.54492-0.23145l2.08789-4.91064L175.84961,169.16943z M174.63867,171.34131l0.3457,0.14746
			c0.67773,0.28711,1.2207,0.13672,1.46484-0.43896c0.11523-0.27148,0.15039-0.57861-0.08398-0.88672
			c-0.16699-0.21924-0.41211-0.34131-0.64648-0.44043l-0.33203-0.14111L174.63867,171.34131z"/>
		<path fill="#A3A3A3" stroke="#A3A3A3" stroke-width="0.25" stroke-linejoin="round" stroke-miterlimit="10" d="
			M181.68555,171.60352l-2.11328-0.50928l-0.37109,1.53809l2.05176,0.49512l-0.13086,0.54346l-2.05176-0.49365l-0.48438,2.01318
			l2.11328,0.5083l-0.13086,0.54443l-2.68848-0.64746l1.24902-5.18311l2.6875,0.64746L181.68555,171.60352z"/>
		<path fill="#A3A3A3" stroke="#A3A3A3" stroke-width="0.25" stroke-linejoin="round" stroke-miterlimit="10" d="
			M185.57324,172.48047c-0.0625-0.14893-0.1709-0.31641-0.28516-0.41992c-0.09863-0.08691-0.28223-0.2041-0.58691-0.22363
			c-0.52637-0.03467-0.91504,0.26758-0.94824,0.76221c-0.01367,0.20703,0.03418,0.33105,0.16895,0.47607
			c0.14844,0.17041,0.34277,0.27148,0.53613,0.37354l0.49609,0.25635c0.30176,0.15625,0.58008,0.31885,0.78906,0.55811
			c0.25293,0.28906,0.34375,0.60791,0.31836,0.99121c-0.06543,0.98145-0.83594,1.58789-1.79199,1.52441
			c-0.35156-0.02393-0.78613-0.12451-1.12988-0.50928c-0.24609-0.27295-0.38086-0.6499-0.43164-0.97363l0.58496-0.12207
			c0.02148,0.28223,0.13281,0.53125,0.27441,0.70068c0.21582,0.24609,0.47461,0.32764,0.74609,0.34521
			c0.72656,0.04932,1.10449-0.44678,1.13965-0.98193c0.01563-0.23926-0.04199-0.45215-0.22168-0.63965
			c-0.14258-0.1543-0.34277-0.26416-0.61426-0.41016l-0.46387-0.25586c-0.20117-0.10889-0.45703-0.23926-0.68066-0.48633
			c-0.2168-0.23828-0.33594-0.49414-0.30957-0.89355c0.05469-0.82227,0.72168-1.33154,1.58398-1.27393
			c0.32715,0.02246,0.58691,0.10303,0.83789,0.29688c0.20605,0.15771,0.37598,0.38574,0.47949,0.625L185.57324,172.48047z"/>
		<path fill="#A3A3A3" stroke="#A3A3A3" stroke-width="0.25" stroke-linejoin="round" stroke-miterlimit="10" d="
			M187.74316,174.23145c-0.24707-1.57178,0.79492-2.91797,2.31152-3.15625c1.51758-0.23926,2.92285,0.7207,3.16992,2.29346
			c0.24707,1.56396-0.78711,2.91602-2.31055,3.15723C189.38867,176.76514,187.99023,175.79541,187.74316,174.23145z
			 M188.34375,174.13721c0.19043,1.2085,1.29785,2.02148,2.48242,1.83545c1.18555-0.18701,1.98926-1.30029,1.79883-2.50977
			s-1.29785-2.02148-2.48242-1.83545C188.95703,171.81445,188.15332,172.9292,188.34375,174.13721z"/>
		<path fill="#A3A3A3" stroke="#A3A3A3" stroke-width="0.25" stroke-linejoin="round" stroke-miterlimit="10" d="
			M196.07227,175.32373l-2.10156-5.14307l5.49609,2.46045l-1.56348-3.82471l0.54785-0.22314l2.10742,5.15723l-5.49609-2.46191
			l1.55664,3.81201L196.07227,175.32373z"/>
	</g>
	<g>
		<circle fill="none" cx="135" cy="198.5" r="28.59473"/>
		
			<path fill="#A3A3A3" stroke="#A3A3A3" stroke-width="0.25" stroke-linecap="round" stroke-linejoin="round" stroke-miterlimit="10" d="
			M128.37305,224.17188l-1.75391-0.55273l-0.47266,1.50195l1.69238,0.53467l-0.16895,0.53369l-1.69336-0.53418l-0.79199,2.51709
			l-0.56445-0.17773l1.60254-5.0874l2.31837,0.73047L128.37305,224.17188z"/>
		
			<path fill="#A3A3A3" stroke="#A3A3A3" stroke-width="0.25" stroke-linecap="round" stroke-linejoin="round" stroke-miterlimit="10" d="
			M130.07715,223.94238l-1.07324,5.22705l-0.5791-0.11963l1.07324-5.22656L130.07715,223.94238z"/>
		
			<path fill="#A3A3A3" stroke="#A3A3A3" stroke-width="0.25" stroke-linecap="round" stroke-linejoin="round" stroke-miterlimit="10" d="
			M131.95605,224.23193l-0.52148,4.74316l1.46191,0.16113l-0.06055,0.55664l-2.05078-0.22607l0.58203-5.29932L131.95605,224.23193z"
			/>
		
			<path fill="#A3A3A3" stroke="#A3A3A3" stroke-width="0.25" stroke-linecap="round" stroke-linejoin="round" stroke-miterlimit="10" d="
			M135.29688,224.95361l0.01563,4.7793l-0.5918,0.00293l-0.01563-4.7793l-1.29688,0.00391l-0.00195-0.56055l3.18555-0.01123
			l0.00195,0.56055L135.29688,224.95361z"/>
		
			<path fill="#A3A3A3" stroke="#A3A3A3" stroke-width="0.25" stroke-linecap="round" stroke-linejoin="round" stroke-miterlimit="10" d="
			M140.0332,224.50781l-2.1543,0.30225l0.21973,1.56787l2.09082-0.29248l0.07715,0.55469l-2.09082,0.29248l0.28613,2.05029
			l2.1543-0.30127l0.07715,0.55469l-2.74023,0.38379l-0.7373-5.28271l2.73926-0.38379L140.0332,224.50781z"/>
		
			<path fill="#A3A3A3" stroke="#A3A3A3" stroke-width="0.25" stroke-linecap="round" stroke-linejoin="round" stroke-miterlimit="10" d="
			M141.67871,223.52197c0.34668-0.09814,0.86816-0.22363,1.32715-0.07227c0.35742,0.11475,0.73242,0.43164,0.8877,0.97754
			c0.22559,0.78516-0.12598,1.51025-0.8877,1.78662l2.28809,1.82568l-0.69238,0.19873l-2.20508-1.80127l-0.14648,0.04297
			l0.64258,2.24658l-0.56836,0.1626l-1.46875-5.13184L141.67871,223.52197z M142.10547,225.97119l0.36133-0.10254
			c0.70703-0.20264,1.03418-0.66162,0.86133-1.26318c-0.08008-0.28369-0.24609-0.54346-0.62305-0.63623
			c-0.26758-0.06445-0.5332-0.00635-0.78027,0.06445l-0.3457,0.1001L142.10547,225.97119z"/>
	</g>
	<g>
		<circle fill="none" cx="135" cy="283.5" r="28.59473"/>
		
			<path fill="#A3A3A3" stroke="#A3A3A3" stroke-width="0.25" stroke-linecap="round" stroke-linejoin="round" stroke-miterlimit="10" d="
			M117.6709,309.67383l3.43262-4.54932l-0.3125,4.93604l3.96484-2.99658l-1.91992,5.36523l-0.53711-0.28564l1.30273-3.51123
			l-3.45313,2.61572l0.27148-4.31299l-2.21289,3.0249L117.6709,309.67383z"/>
		
			<path fill="#A3A3A3" stroke="#A3A3A3" stroke-width="0.25" stroke-linecap="round" stroke-linejoin="round" stroke-miterlimit="10" d="
			M127.42578,308.27979l-1.61328,5.0874l-0.56445-0.17871l1.61328-5.0874L127.42578,308.27979z"/>
		
			<path fill="#A3A3A3" stroke="#A3A3A3" stroke-width="0.25" stroke-linecap="round" stroke-linejoin="round" stroke-miterlimit="10" d="
			M129.7207,311.49268l-0.96484-2.78711l0.66309,0.11621l0.74023,2.17041l1.46777-1.78223l0.66211,0.11719l-1.88965,2.28467
			l1.04395,2.98877l-0.66309-0.11621l-0.82617-2.37305l-1.60254,1.9458l-0.66211-0.11719L129.7207,311.49268z"/>
		
			<path fill="#A3A3A3" stroke="#A3A3A3" stroke-width="0.25" stroke-linecap="round" stroke-linejoin="round" stroke-miterlimit="10" d="
			M135.90332,312.21533c-0.2207-1.57666,0.8457-2.9043,2.36621-3.11719c1.51953-0.21289,2.91016,0.77246,3.12988,2.34814
			c0.21973,1.56787-0.83691,2.90234-2.36621,3.11621C137.50391,314.77686,136.12305,313.7832,135.90332,312.21533z
			 M136.50488,312.13086c0.16895,1.21143,1.2627,2.04297,2.4502,1.87695c1.18848-0.16602,2.01172-1.26611,1.84277-2.47705
			c-0.16895-1.21143-1.2627-2.04395-2.45117-1.87793C137.1582,309.81787,136.33594,310.91846,136.50488,312.13086z"/>
		
			<path fill="#A3A3A3" stroke="#A3A3A3" stroke-width="0.25" stroke-linecap="round" stroke-linejoin="round" stroke-miterlimit="10" d="
			M144.00879,311.27246c0.15723,0.41992,0.3291,0.87695,0.85254,1.06543c0.26563,0.09619,0.65332,0.07959,0.93164-0.02344
			c0.27734-0.10449,0.58008-0.3457,0.7168-0.59326c0.27148-0.4873,0.09961-0.94434-0.05664-1.36377l-1.14844-3.06592
			l0.55469-0.20801l1.2041,3.21582c0.15723,0.41895,0.26465,0.84082,0.13477,1.31787
			c-0.14551,0.52393-0.57129,0.98389-1.20996,1.22217c-0.63672,0.2373-1.25977,0.17285-1.71387-0.12842
			c-0.41113-0.27295-0.60645-0.66113-0.76465-1.08105l-1.2041-3.21582l0.55566-0.2085L144.00879,311.27246z"/>
		
			<path fill="#A3A3A3" stroke="#A3A3A3" stroke-width="0.25" stroke-linecap="round" stroke-linejoin="round" stroke-miterlimit="10" d="
			M148.77148,306.08643l2.44727,4.10596l-0.50781,0.30322l-2.44922-4.10645l-1.11328,0.66455l-0.28711-0.48096l2.73633-1.63135
			l0.28809,0.48096L148.77148,306.08643z"/>
	</g>
	<g>
		<circle fill="none" cx="135" cy="283.44943" r="28.59473"/>
		<path fill="#A3A3A3" d="M143.25586,254.45313l-0.95801,3.45313l-0.42773-0.11914l0.95801-3.45313l-0.9375-0.25879l0.1123-0.40625
			l2.30371,0.63867l-0.11328,0.40527L143.25586,254.45313z"/>
		<path fill="#A3A3A3" d="M145.79883,254.75391l-0.3125,3.16797l2.49414-2.37402l-0.2793,3.4082l2.33105-2.22559l0.44629,0.20801
			l-3.30664,3.1084l0.28906-3.40332l-2.49805,2.37305l0.38965-4.46973L145.79883,254.75391z"/>
		<path fill="#A3A3A3" d="M152.02832,258.07324l-2.20898,3.33789l-0.37012-0.24512l2.20898-3.33887L152.02832,258.07324z"/>
		<path fill="#A3A3A3" d="M150.98047,262.16895l2.73047-3.15234l0.21777,4.51465l2.03125-2.34473l0.33594,0.29102l-2.73926,3.16113
			l-0.2168-4.51563l-2.02344,2.33691L150.98047,262.16895z"/>
		<path fill="#A3A3A3" d="M159.41211,265.08398c0.23926,0.32227,0.40234,0.62012,0.375,0.97656
			c-0.02539,0.38672-0.2666,0.65527-0.46875,0.80566c-0.45215,0.33789-1.11035,0.38672-1.65527-0.34375l-0.2334-0.31348
			l-1.39453,1.04004l-0.26563-0.35547l3.20801-2.39063L159.41211,265.08398z M157.7666,265.95898l0.21875,0.29297
			c0.31543,0.42285,0.7168,0.51953,1.08691,0.24414c0.50977-0.37988,0.20313-0.8916,0.03125-1.12305l-0.19727-0.26367
			L157.7666,265.95898z"/>
		<path fill="#A3A3A3" d="M161.70703,269.45801l-0.8125-1.41406l-1.0293,0.58984l0.78711,1.37402l-0.36328,0.20801l-0.78711-1.37305
			l-1.34766,0.77344l0.8125,1.41309l-0.36426,0.20801l-1.03223-1.79785l3.46875-1.98926l1.03125,1.79883L161.70703,269.45801z"/>
		<path fill="#A3A3A3" d="M160.99414,273.87695l-0.6416-1.58008l-1.22754-0.02051l-0.18555-0.45508l4.58301,0.12793
			l-3.21289,3.24316l-0.18457-0.45703L160.99414,273.87695z M161.31836,273.55859l1.23242-1.22754l-1.74414-0.03027
			L161.31836,273.55859z"/>
		<path fill="#A3A3A3" d="M162.85645,275.94043l2.06543,1.25098l0.1416,0.58203l-2.25098-1.37891l-1.62109,2.37793l-0.14258-0.59473
			l1.39746-2.02148l-0.1377-0.08398l-1.67188,0.40527l-0.10352-0.43164l3.88477-0.93945l0.10449,0.43066L162.85645,275.94043z"/>
		<path fill="#A3A3A3" d="M164.66309,280.88281c0.10059-0.06445,0.20996-0.16797,0.27246-0.2666
			c0.05078-0.08301,0.1123-0.23438,0.08594-0.46094c-0.04297-0.39355-0.31836-0.63965-0.6875-0.59961
			c-0.1543,0.01758-0.23926,0.06934-0.32813,0.18848c-0.10645,0.13184-0.15527,0.28809-0.2041,0.44434l-0.12402,0.39941
			c-0.07617,0.24414-0.15918,0.46973-0.30664,0.65625c-0.18164,0.22461-0.4043,0.33496-0.68945,0.36621
			c-0.7334,0.08105-1.28125-0.40625-1.36133-1.12109c-0.0293-0.2627-0.01172-0.59668,0.22559-0.90039
			c0.16895-0.21777,0.42969-0.36719,0.66211-0.44727l0.16699,0.41602c-0.20508,0.05176-0.37402,0.16797-0.48047,0.29395
			c-0.15332,0.19336-0.17969,0.39453-0.15625,0.59668c0.05957,0.54297,0.47461,0.75488,0.875,0.71094
			c0.17773-0.01953,0.32715-0.09082,0.44238-0.24805c0.09473-0.125,0.14941-0.28809,0.22168-0.50684l0.12598-0.37598
			c0.05566-0.16309,0.11621-0.36914,0.26953-0.56738c0.14746-0.19141,0.32031-0.3125,0.61816-0.3457
			c0.61426-0.06836,1.07715,0.35547,1.14844,1c0.02734,0.24512,0.00195,0.44629-0.10742,0.65723
			c-0.08984,0.17285-0.23438,0.32813-0.39746,0.43555L164.66309,280.88281z"/>
		<path fill="#A3A3A3" d="M165.46973,285.87402c-0.02246,0.21973-0.08203,0.61816-0.3457,0.88574
			c-0.1084,0.11621-0.37793,0.32227-0.86133,0.27148c-0.19629-0.02148-0.53809-0.09863-0.73926-0.47559
			c-0.19531,0.54102-0.69922,0.69336-1.08203,0.65332c-0.38086-0.04004-0.67188-0.26367-0.81641-0.49609
			c-0.2168-0.3418-0.19141-0.70801-0.16211-0.98242l0.10352-0.99023l3.97852,0.41797L165.46973,285.87402z M161.9375,285.22656
			l-0.05273,0.50684c-0.02637,0.25684-0.03516,0.50879,0.09375,0.71484c0.09668,0.16797,0.2832,0.29492,0.52148,0.32031
			c0.31641,0.0332,0.52051-0.13379,0.62012-0.2793c0.09863-0.13965,0.15625-0.34473,0.18945-0.66113l0.04785-0.45313
			L161.9375,285.22656z M163.75098,285.41699l-0.03418,0.33203c-0.02539,0.2334-0.03516,0.78809,0.5791,0.85156
			c0.65625,0.06934,0.73535-0.57324,0.74902-0.69922l0.03711-0.34668L163.75098,285.41699z"/>
		<path fill="#A3A3A3" d="M164.89453,289.81152c-0.08398,0.39355-0.20215,0.71094-0.4873,0.92578
			c-0.30762,0.23438-0.66895,0.23047-0.91504,0.17773c-0.55078-0.11914-1.02148-0.58105-0.83008-1.47168l0.08105-0.38184
			l-1.7002-0.36523l0.09375-0.43359l3.91016,0.83887L164.89453,289.81152z M163.1543,289.14941l-0.07715,0.3584
			c-0.11035,0.51563,0.08105,0.88086,0.53125,0.97852c0.62207,0.13379,0.80469-0.43457,0.86523-0.71582l0.06934-0.32129
			L163.1543,289.14941z"/>
	</g>
	<g>
		<circle fill="none" cx="135" cy="283.5" r="28.59473"/>
		<path fill="#A3A3A3" d="M105.94531,293.15918l2.61523-1.94287l-3.25-0.22314l-0.13867-0.47217l4.5293,0.36182l-3.61719,2.74951
			L105.94531,293.15918z"/>
		<path fill="#A3A3A3" d="M107.44824,286.81494l0.26074,1.68408l1.18848,0.30225l0.07617,0.48584l-4.42773-1.17725l3.87012-2.4165
			l0.0752,0.48633L107.44824,286.81494z M107.05957,287.05127l-1.48047,0.91064l1.68848,0.42969L107.05957,287.05127z"/>
		<path fill="#A3A3A3" d="M104.39551,284.20215c-0.00293-0.27002,0.00977-0.6709,0.20898-0.97461
			c0.15332-0.23535,0.45703-0.44287,0.88281-0.44824c0.61133-0.00781,1.06641,0.3877,1.11523,0.99219l1.77148-1.29443
			l0.00586,0.53955l-1.73438,1.24023l0.00195,0.11377l1.75098-0.02246l0.00488,0.44336l-3.99902,0.05225L104.39551,284.20215z
			 M106.25098,284.37598l-0.00293-0.28125c-0.00781-0.55176-0.27539-0.87842-0.74316-0.87305
			c-0.22168,0.00391-0.44336,0.07227-0.58398,0.32617c-0.09961,0.18164-0.1084,0.38525-0.10645,0.57715l0.00391,0.27002
			L106.25098,284.37598z"/>
		<path fill="#A3A3A3" d="M104.53027,280.58691l3.98145,0.34863l-0.03906,0.44141l-3.98047-0.34863L104.53027,280.58691z"/>
		<path fill="#A3A3A3" d="M107.9834,277.14893l-0.33789,1.67139l1.01074,0.69629l-0.09766,0.48242l-3.74902-2.64209l4.47168-0.92578
			l-0.09668,0.4834L107.9834,277.14893z M107.53711,277.23584l-1.70508,0.34082l1.43555,0.98926L107.53711,277.23584z"/>
		<path fill="#A3A3A3" d="M106.04395,273.57617c0.07422-0.20947,0.22559-0.58154,0.54395-0.78027
			c0.13281-0.08643,0.44238-0.22363,0.89941-0.06152c0.18652,0.06592,0.5,0.22266,0.60742,0.63574
			c0.31641-0.479,0.84277-0.50781,1.2041-0.37939s0.59082,0.41357,0.67676,0.67236c0.13086,0.38379,0.01953,0.73242-0.07324,0.99219
			l-0.33301,0.9375l-3.7666-1.33984L106.04395,273.57617z M107.60645,274.42383l0.1123-0.31641
			c0.07813-0.21973,0.2168-0.75537-0.36426-0.96289c-0.62109-0.2207-0.84863,0.38574-0.8916,0.50391l-0.11621,0.32715
			L107.60645,274.42383z M109.32227,275.03369l0.1709-0.47949c0.08594-0.24365,0.15332-0.48633,0.07715-0.71631
			c-0.05566-0.18506-0.20508-0.35303-0.43164-0.43359c-0.2998-0.10645-0.53711,0.00586-0.66699,0.125
			c-0.12988,0.11328-0.23438,0.29883-0.34082,0.59766l-0.15234,0.42969L109.32227,275.03369z"/>
		<path fill="#A3A3A3" d="M107.46289,270.13135l3.21387,1.57275l0.48438-0.99072l0.37695,0.18457l-0.67969,1.38916l-3.59082-1.75684
			L107.46289,270.13135z"/>
		<path fill="#A3A3A3" d="M110.08984,266.38086l-0.86914,1.38086l1.00586,0.63281l0.84375-1.34033l0.35449,0.22314l-0.84277,1.34082
			l1.31543,0.82764l0.86914-1.38086l0.35547,0.22363l-1.10547,1.75732l-3.3877-2.13281l1.10547-1.75684L110.08984,266.38086z"/>
		<path fill="#A3A3A3" d="M113.62695,262.12402l-0.93945,1.00977l0.86523,0.80469l0.90625-0.97461l0.30762,0.28613l-0.90625,0.97461
			l1.44922,1.34766l-0.30273,0.3252l-2.92969-2.72412l1.24219-1.33545L113.62695,262.12402z"/>
		<path fill="#A3A3A3" d="M114.81152,260.45801l2.66309,2.9917l-0.33203,0.2959l-2.66309-2.99268L114.81152,260.45801z"/>
		<path fill="#A3A3A3" d="M116.55859,259.04297l2.14551,2.86914l0.88379-0.66162l0.25098,0.33691l-1.23926,0.92725l-2.39746-3.20605
			L116.55859,259.04297z"/>
		<path fill="#A3A3A3" d="M119.57715,257.51953l1.85156,3.07129l-0.37988,0.22949l-1.85254-3.07227l-0.83398,0.50342
			l-0.2168-0.35986l2.04785-1.23535l0.21777,0.35986L119.57715,257.51953z"/>
		<path fill="#A3A3A3" d="M123.51074,255.53711l-1.48633,0.67773l0.49219,1.08203l1.44336-0.6582l0.17383,0.38281l-1.44238,0.6582
			l0.64551,1.41504l1.48633-0.67773l0.17383,0.38379l-1.89063,0.86035l-1.66113-3.64453l1.89063-0.8623L123.51074,255.53711z"/>
		<path fill="#A3A3A3" d="M125.51074,254.38232c0.25684-0.08154,0.64648-0.18457,0.99316-0.08154
			c0.26953,0.07959,0.55566,0.31006,0.68457,0.71582c0.18359,0.58252-0.06445,1.13281-0.62891,1.35449l1.74902,1.32178
			l-0.51465,0.16162l-1.6875-1.30371l-0.10742,0.03516l0.52539,1.66895l-0.42188,0.13379l-1.20313-3.81299L125.51074,254.38232z
			 M125.87891,256.20801l0.26953-0.08496c0.52637-0.16504,0.76074-0.51563,0.62012-0.96143
			c-0.06641-0.2124-0.19629-0.40381-0.47949-0.46533c-0.20215-0.04248-0.40039,0.00684-0.58301,0.06494l-0.25781,0.08057
			L125.87891,256.20801z"/>
	</g>
	<g>
		<circle fill="none" cx="183.01788" cy="44.24549" r="14.57799"/>
		
			<path fill="#A3A3A3" stroke="#A3A3A3" stroke-width="0.25" stroke-linecap="round" stroke-linejoin="round" stroke-miterlimit="10" d="
			M166.24805,35.74022l3.34863,1.72266l0.53027-1.03223l0.39258,0.20215l-0.74414,1.44727l-3.74121-1.92383L166.24805,35.74022z"/>
		
			<path fill="#A3A3A3" stroke="#A3A3A3" stroke-width="0.25" stroke-linecap="round" stroke-linejoin="round" stroke-miterlimit="10" d="
			M169.2168,32.07812l-1.04492,1.35742l0.98828,0.76074l1.01367-1.31641l0.34863,0.26953l-1.01465,1.31641l1.29199,0.99512
			l1.0459-1.35645l0.34961,0.26855l-1.33008,1.72559l-3.32715-2.5625l1.3291-1.72656L169.2168,32.07812z"/>
		
			<path fill="#A3A3A3" stroke="#A3A3A3" stroke-width="0.25" stroke-linecap="round" stroke-linejoin="round" stroke-miterlimit="10" d="
			M170.10156,30.52245l2.96387,1.70703l-1.1416-3.22363l0.39648-0.33105l1.54297,4.51465l-4.1582-2.33691L170.10156,30.52245z"/>
		
			<path fill="#A3A3A3" stroke="#A3A3A3" stroke-width="0.25" stroke-linecap="round" stroke-linejoin="round" stroke-miterlimit="10" d="
			M175.77051,27.31737l-1.52832,0.77832l0.56641,1.1123l1.4834-0.75488l0.2002,0.39258l-1.4834,0.75586l0.74023,1.45508
			l1.52832-0.77832l0.20117,0.39453l-1.94531,0.98926l-1.90625-3.74805l1.94336-0.98926L175.77051,27.31737z"/>
		
			<path fill="#A3A3A3" stroke="#A3A3A3" stroke-width="0.25" stroke-linecap="round" stroke-linejoin="round" stroke-miterlimit="10" d="
			M177.54785,26.24706l1.07031,3.60156l1.11035-0.33008l0.125,0.42285l-1.55664,0.46191l-1.19531-4.02441L177.54785,26.24706z"/>
		
			<path fill="#A3A3A3" stroke="#A3A3A3" stroke-width="0.25" stroke-linecap="round" stroke-linejoin="round" stroke-miterlimit="10" d="
			M182.82813,27.35644l1.97949,0.0918l-0.03027,0.66504l-1.97949-0.0918L182.82813,27.35644z"/>
		
			<path fill="#A3A3A3" stroke="#A3A3A3" stroke-width="0.25" stroke-linecap="round" stroke-linejoin="round" stroke-miterlimit="10" d="
			M190.83496,29.46483l1.5625,0.79395l-0.0459,0.08984c-0.21094,0.41602-0.5625,0.80273-0.96094,1.00391
			c-0.19043,0.09473-0.87695,0.4043-1.7373-0.0332c-1.11328-0.56543-1.51465-1.83594-0.96094-2.92676
			s1.82324-1.51465,2.94043-0.94629c0.36035,0.18262,0.73633,0.48633,0.95898,0.95313
			c0.10352,0.21387,0.17578,0.46289,0.20801,0.66406l-0.45215,0.12402c-0.03027-0.20703-0.08398-0.4043-0.15723-0.56738
			c-0.10547-0.23828-0.30176-0.5498-0.75098-0.77734c-0.9043-0.45996-1.88086-0.09961-2.32227,0.77148
			c-0.51953,1.02441,0.0332,1.95508,0.74219,2.31445c0.5,0.25391,1.06055,0.2207,1.46582-0.04688
			c0.12793-0.08398,0.29199-0.22852,0.42285-0.45801l-1.11328-0.56445L190.83496,29.46483z"/>
		
			<path fill="#A3A3A3" stroke="#A3A3A3" stroke-width="0.25" stroke-linecap="round" stroke-linejoin="round" stroke-miterlimit="10" d="
			M194.4873,33.3662l-1.30176-1.22754l-1.17969,0.51758l-0.375-0.35449l4.42773-1.87891l-1.65039,4.49707l-0.37598-0.35449
			L194.4873,33.3662z M194.65625,32.92089l0.64063-1.70898l-1.67676,0.73145L194.65625,32.92089z"/>
		
			<path fill="#A3A3A3" stroke="#A3A3A3" stroke-width="0.25" stroke-linecap="round" stroke-linejoin="round" stroke-miterlimit="10" d="
			M198.21289,33.93944l-3.08789,2.14941l-0.26758-0.38281l3.08887-2.15039l-0.58301-0.83691l0.36133-0.25293l1.43359,2.05859
			l-0.3623,0.25195L198.21289,33.93944z"/>
		
			<path fill="#A3A3A3" stroke="#A3A3A3" stroke-width="0.25" stroke-linecap="round" stroke-linejoin="round" stroke-miterlimit="10" d="
			M200.29883,37.96581l-0.68555-1.57031l-1.14258,0.5l0.66602,1.52246l-0.4043,0.17676l-0.66504-1.52344l-1.49512,0.65234
			l0.68555,1.57031l-0.4043,0.17578l-0.87109-1.99707l3.84961-1.68066l0.87109,1.99707L200.29883,37.96581z"/>
	</g>
	<g>
		<circle fill="none" cx="183.01788" cy="44.24549" r="13.74777"/>
		
			<path fill="#A3A3A3" stroke="#A3A3A3" stroke-width="0.25" stroke-linecap="round" stroke-linejoin="round" stroke-miterlimit="10" d="
			M175.6582,57.02538l-2.03613,3.40332l-0.37793-0.22607l2.03613-3.40381L175.6582,57.02538z"/>
		
			<path fill="#A3A3A3" stroke="#A3A3A3" stroke-width="0.25" stroke-linecap="round" stroke-linejoin="round" stroke-miterlimit="10" d="
			M175.52734,61.49022l1.29004-3.92285l1.92285,4.04102l0.95898-2.91748l0.41797,0.13721l-1.29297,3.93311l-1.92383-4.04004
			l-0.95508,2.90527L175.52734,61.49022z"/>
		
			<path fill="#A3A3A3" stroke="#A3A3A3" stroke-width="0.25" stroke-linecap="round" stroke-linejoin="round" stroke-miterlimit="10" d="
			M182.10938,58.97216c0.39844,0.02051,0.72852,0.08545,0.98242,0.33105c0.27832,0.26514,0.33105,0.61963,0.31836,0.86865
			c-0.0293,0.55859-0.41016,1.09229-1.3125,1.04541l-0.38574-0.021l-0.09082,1.72168l-0.43945-0.02295l0.20898-3.96143
			L182.10938,58.97216z M181.73438,60.78026l0.36133,0.01904c0.52344,0.02734,0.85156-0.21631,0.87598-0.6748
			c0.0332-0.62891-0.55176-0.71973-0.83691-0.73486l-0.32617-0.0166L181.73438,60.78026z"/>
		
			<path fill="#A3A3A3" stroke="#A3A3A3" stroke-width="0.25" stroke-linecap="round" stroke-linejoin="round" stroke-miterlimit="10" d="
			M185.21094,61.31835c0.06055,0.32715,0.12695,0.68359,0.48633,0.89063c0.18164,0.104,0.46777,0.14258,0.68359,0.10205
			c0.2168-0.04004,0.46875-0.17822,0.60156-0.34229c0.26172-0.32031,0.19531-0.67676,0.13477-1.00488l-0.44531-2.39209
			l0.43359-0.08057l0.46582,2.50977c0.06152,0.32666,0.08496,0.64941-0.07129,0.98145
			c-0.17383,0.36523-0.5459,0.64648-1.04297,0.7373c-0.49609,0.09229-0.94434-0.03564-1.23828-0.31396
			c-0.26465-0.25391-0.3584-0.5625-0.41895-0.88965l-0.4668-2.50977l0.43262-0.08057L185.21094,61.31835z"/>
		
			<path fill="#A3A3A3" stroke="#A3A3A3" stroke-width="0.25" stroke-linecap="round" stroke-linejoin="round" stroke-miterlimit="10" d="
			M189.36719,58.03417l1.43945,3.24072l-0.40039,0.1792l-1.44141-3.24023l-0.87891,0.38965l-0.16992-0.37891l2.16016-0.96094
			l0.16992,0.37988L189.36719,58.03417z"/>
	</g>
	<g>
		<circle fill="none" cx="134.71875" cy="43.99999" r="14.57799"/>
		
			<path fill="#A3A3A3" stroke="#A3A3A3" stroke-width="0.25" stroke-linecap="round" stroke-linejoin="round" stroke-miterlimit="10" d="
			M116.45703,42.22997l3.74805,0.30664l-0.03711,0.46484l-3.74902-0.30713l-0.08301,1.0166l-0.43945-0.03564l0.20508-2.49805
			l0.43945,0.03516L116.45703,42.22997z"/>
		
			<path fill="#A3A3A3" stroke="#A3A3A3" stroke-width="0.25" stroke-linecap="round" stroke-linejoin="round" stroke-miterlimit="10" d="
			M116.57813,39.07226c0.0791-0.27246,0.21484-0.67188,0.50879-0.91406c0.22559-0.19043,0.59473-0.30615,1.02441-0.18164
			c0.61719,0.17969,0.95215,0.7168,0.81641,1.34033l2.17578-0.75781l-0.1582,0.54443l-2.12402,0.71338l-0.03223,0.11523
			l1.76563,0.51318l-0.13086,0.44824l-4.0332-1.17383L116.57813,39.07226z M118.38965,39.81591l0.08301-0.28467
			c0.16113-0.55615-0.00781-0.96533-0.48047-1.10352c-0.22363-0.06445-0.4668-0.06299-0.68555,0.14844
			c-0.15625,0.15137-0.22754,0.35352-0.28418,0.54688l-0.0791,0.27246L118.38965,39.81591z"/>
		
			<path fill="#A3A3A3" stroke="#A3A3A3" stroke-width="0.25" stroke-linecap="round" stroke-linejoin="round" stroke-miterlimit="10" d="
			M117.88477,35.64159l3.7832,1.81836l-0.20117,0.41943l-3.7832-1.81885L117.88477,35.64159z"/>
		
			<path fill="#A3A3A3" stroke="#A3A3A3" stroke-width="0.25" stroke-linecap="round" stroke-linejoin="round" stroke-miterlimit="10" d="
			M121.7627,33.44433l1.07813-1.37891l0.0791,0.06299c0.36719,0.28516,0.67871,0.70508,0.79883,1.13428
			c0.05664,0.20361,0.22656,0.93604-0.36621,1.69531c-0.76758,0.98145-2.09082,1.13086-3.05176,0.37891
			c-0.96289-0.75244-1.13477-2.07666-0.36328-3.06299c0.24805-0.31787,0.61816-0.62793,1.11914-0.75684
			c0.22949-0.05811,0.48633-0.08154,0.68945-0.07422l0.03516,0.46631c-0.20801-0.01074-0.41211,0.00488-0.58691,0.04443
			c-0.25293,0.05859-0.5957,0.18945-0.90527,0.58691c-0.62402,0.79785-0.45898,1.82227,0.31055,2.42383
			c0.90234,0.70557,1.9209,0.34277,2.41016-0.28271c0.34375-0.44189,0.41992-0.99854,0.23438-1.4458
			c-0.05762-0.14063-0.16602-0.3291-0.36719-0.50244l-0.76758,0.98193L121.7627,33.44433z"/>
		
			<path fill="#A3A3A3" stroke="#A3A3A3" stroke-width="0.25" stroke-linecap="round" stroke-linejoin="round" stroke-miterlimit="10" d="
			M125.64844,29.95067l1.45117-0.98096l0.05664,0.0835c0.26172,0.38574,0.42969,0.88184,0.41113,1.32813
			c-0.00879,0.21143-0.07324,0.96143-0.87207,1.50195c-1.03516,0.69922-2.34082,0.43213-3.02539-0.58105
			c-0.68555-1.01416-0.43945-2.32813,0.59961-3.02979c0.33496-0.22656,0.7832-0.4082,1.29883-0.37598
			c0.23828,0.01465,0.49023,0.07178,0.68164,0.14111l-0.11133,0.45508c-0.19336-0.07373-0.39453-0.12158-0.57227-0.13867
			c-0.25879-0.02246-0.62695-0.00293-1.04395,0.2793c-0.84082,0.56836-0.99902,1.59619-0.45215,2.40625
			c0.64258,0.94971,1.72461,0.91943,2.38281,0.4751c0.46484-0.31494,0.70801-0.8208,0.66992-1.30566
			c-0.01074-0.15234-0.05664-0.36475-0.19336-0.59131l-1.03516,0.69873L125.64844,29.95067z"/>
		
			<path fill="#A3A3A3" stroke="#A3A3A3" stroke-width="0.25" stroke-linecap="round" stroke-linejoin="round" stroke-miterlimit="10" d="
			M129.87109,26.24511l-1.61914,0.55566l0.4043,1.17725l1.57227-0.53906l0.14258,0.41553l-1.57031,0.54102l0.5293,1.5415
			l1.61816-0.55811l0.14355,0.41748l-2.05859,0.7085l-1.36426-3.96924l2.05859-0.70801L129.87109,26.24511z"/>
		
			<path fill="#A3A3A3" stroke="#A3A3A3" stroke-width="0.25" stroke-linecap="round" stroke-linejoin="round" stroke-miterlimit="10" d="
			M132.04883,25.37108c0.28223-0.03516,0.70313-0.06738,1.04297,0.10596c0.26367,0.1333,0.51563,0.42676,0.57031,0.87061
			c0.0791,0.6377-0.2832,1.15967-0.90918,1.28076l1.55566,1.70166l-0.5625,0.06885L132.25,27.72899l-0.11816,0.01416
			l0.22461,1.82813l-0.46289,0.05664l-0.51465-4.17432L132.04883,25.37108z M132.08008,27.33007l0.29492-0.03613
			c0.57617-0.07031,0.88574-0.38818,0.82617-0.87598c-0.0293-0.23193-0.12598-0.45459-0.40723-0.57275
			c-0.2002-0.08398-0.41504-0.0708-0.61621-0.04639l-0.28125,0.03516L132.08008,27.33007z"/>
		
			<path fill="#A3A3A3" stroke="#A3A3A3" stroke-width="0.25" stroke-linecap="round" stroke-linejoin="round" stroke-miterlimit="10" d="
			M137.78516,27.39062l1.91992,0.47363l-0.15918,0.64648l-1.9209-0.47461L137.78516,27.39062z"/>
		
			<path fill="#A3A3A3" stroke="#A3A3A3" stroke-width="0.25" stroke-linecap="round" stroke-linejoin="round" stroke-miterlimit="10" d="
			M145.2832,28.44433c0.34766,0.24023,0.60938,0.48242,0.70313,0.84521c0.10352,0.39258-0.0459,0.7417-0.19629,0.95947
			c-0.33691,0.48682-0.97559,0.75732-1.7627,0.21338l-0.33594-0.23291l-1.03906,1.50146l-0.38281-0.26465l2.38867-3.45508
			L145.2832,28.44433z M143.94141,29.86669l0.31641,0.21777c0.45508,0.31592,0.8877,0.27734,1.16309-0.12109
			c0.37988-0.54932-0.09668-0.95605-0.34668-1.12744l-0.28418-0.19678L143.94141,29.86669z"/>
		
			<path fill="#A3A3A3" stroke="#A3A3A3" stroke-width="0.25" stroke-linecap="round" stroke-linejoin="round" stroke-miterlimit="10" d="
			M148.7998,32.15673l-1.18652-1.23975l-0.90137,0.86328l1.15137,1.20313l-0.31836,0.30469l-1.15234-1.20215l-1.17969,1.12891
			l1.18652,1.23877l-0.31836,0.30566l-1.50879-1.57666l3.03809-2.90869l1.50879,1.57666L148.7998,32.15673z"/>
		
			<path fill="#A3A3A3" stroke="#A3A3A3" stroke-width="0.25" stroke-linecap="round" stroke-linejoin="round" stroke-miterlimit="10" d="
			M150.51367,33.79442c0.14844,0.2417,0.35449,0.61182,0.33789,0.9917c-0.00977,0.29541-0.17188,0.64746-0.55273,0.88232
			c-0.54688,0.3374-1.17188,0.22705-1.54297-0.29199l-0.89746,2.12402l-0.29785-0.48291l0.89453-2.05664l-0.0625-0.10107
			l-1.56738,0.9668l-0.24512-0.39697l3.57813-2.20996L150.51367,33.79442z M148.74609,34.64159l0.15527,0.25195
			c0.30469,0.49316,0.72363,0.64307,1.1416,0.38477c0.19824-0.12354,0.36133-0.30371,0.35059-0.60889
			c-0.00879-0.21777-0.11035-0.40674-0.21582-0.57861l-0.14941-0.2417L148.74609,34.64159z"/>
		
			<path fill="#A3A3A3" stroke="#A3A3A3" stroke-width="0.25" stroke-linecap="round" stroke-linejoin="round" stroke-miterlimit="10" d="
			M152.25,40.14843c0.08594-0.1665,0.17383-0.40625,0.20508-0.64209c0.02832-0.24072,0.00977-0.50586-0.06641-0.74023
			c-0.29688-0.92578-1.26074-1.37109-2.18555-1.07373c-1.08691,0.34863-1.35059,1.40771-1.11523,2.13965
			c0.08594,0.27002,0.25,0.50977,0.42578,0.68457c0.1875,0.19141,0.38867,0.30566,0.48438,0.35449l-0.55273,0.17773
			c-0.46094-0.3418-0.68164-0.78223-0.77832-1.08203c-0.38086-1.18896,0.23633-2.36182,1.39551-2.7334
			c1.19531-0.38379,2.37109,0.22607,2.75684,1.42773c0.07715,0.24023,0.19531,0.71191-0.0166,1.31006L152.25,40.14843z"/>
		
			<path fill="#A3A3A3" stroke="#A3A3A3" stroke-width="0.25" stroke-linecap="round" stroke-linejoin="round" stroke-miterlimit="10" d="
			M150.86328,42.30175c-0.35156,0.01367-0.73633,0.0293-1.00488,0.37402c-0.1377,0.17529-0.22168,0.46777-0.21191,0.70117
			c0.00977,0.23242,0.11523,0.51758,0.26758,0.68262c0.2959,0.32031,0.67969,0.30615,1.03125,0.2915l2.57227-0.10205
			l0.01855,0.46484l-2.69824,0.10791c-0.35156,0.01367-0.69336-0.01025-1.01563-0.22314
			c-0.35742-0.23779-0.59375-0.66992-0.61523-1.2041c-0.02148-0.53467,0.18066-0.98389,0.5166-1.24902
			c0.30469-0.23877,0.64355-0.28955,0.99512-0.3042l2.69824-0.1084l0.01855,0.46484L150.86328,42.30175z"/>
	</g>
	<g>
		<g>
			
				<path fill="#A3A3A3" stroke="#A3A3A3" stroke-width="0.25" stroke-linecap="round" stroke-linejoin="round" stroke-miterlimit="10" d="
				M127.11914,56.91308l-2.23633,3.55322l-0.39453-0.24756l2.2373-3.55371L127.11914,56.91308z"/>
			
				<path fill="#A3A3A3" stroke="#A3A3A3" stroke-width="0.25" stroke-linecap="round" stroke-linejoin="round" stroke-miterlimit="10" d="
				M126.86719,61.62694l1.41992-4.14551l1.98828,4.3125l1.05664-3.08301l0.44141,0.15088l-1.42383,4.15869l-1.98828-4.31348
				l-1.05273,3.07178L126.86719,61.62694z"/>
			
				<path fill="#A3A3A3" stroke="#A3A3A3" stroke-width="0.25" stroke-linecap="round" stroke-linejoin="round" stroke-miterlimit="10" d="
				M133.84766,59.02782c0.42188,0.02393,0.77148,0.09277,1.04102,0.354c0.29395,0.28076,0.34961,0.65674,0.33398,0.92139
				c-0.03125,0.59131-0.43555,1.15527-1.39258,1.104l-0.4082-0.02246l-0.10059,1.82471l-0.46582-0.02588l0.23047-4.19824
				L133.84766,59.02782z M133.44531,60.94384l0.38477,0.021c0.55371,0.02979,0.90234-0.22852,0.92871-0.71289
				c0.03711-0.66748-0.58301-0.76416-0.88477-0.78076l-0.34668-0.01904L133.44531,60.94384z"/>
			
				<path fill="#A3A3A3" stroke="#A3A3A3" stroke-width="0.25" stroke-linecap="round" stroke-linejoin="round" stroke-miterlimit="10" d="
				M137.1543,61.50683c0.06836,0.34668,0.14258,0.72363,0.52344,0.93799c0.19434,0.10791,0.49609,0.146,0.72461,0.10059
				c0.22949-0.04443,0.49609-0.19238,0.63379-0.36768c0.27246-0.34131,0.19922-0.71777,0.13184-1.06396l-0.49414-2.52539
				l0.45703-0.08936l0.51855,2.64893c0.06738,0.34619,0.0957,0.68652-0.06641,1.03857
				c-0.18066,0.38867-0.57129,0.68896-1.0957,0.7915c-0.52441,0.10205-0.99902-0.02881-1.3125-0.3208
				c-0.28223-0.26465-0.38574-0.59131-0.45215-0.93652l-0.51758-2.64941l0.45605-0.08936L137.1543,61.50683z"/>
			
				<path fill="#A3A3A3" stroke="#A3A3A3" stroke-width="0.25" stroke-linecap="round" stroke-linejoin="round" stroke-miterlimit="10" d="
				M141.47949,57.96435l1.60059,3.40088l-0.4209,0.19873l-1.60059-3.3999l-0.92383,0.43408l-0.1875-0.39893l2.26758-1.06738
				l0.1875,0.39893L141.47949,57.96435z"/>
		</g>
	</g>
	<g>
		<circle id="circle8474_1_" fill="#A3A3A3" cx="108.00267" cy="158.76486" r="0.33984"/>
		<circle id="circle8476_1_" fill="#A3A3A3" cx="109.90251" cy="160.08487" r="0.33984"/>
		<circle id="circle8478_1_" fill="#A3A3A3" cx="106.33803" cy="159.5751" r="0.33984"/>
		<circle id="circle8480_1_" fill="#A3A3A3" cx="110.99883" cy="160.8231" r="0.33984"/>
		<circle id="circle8482_1_" fill="#A3A3A3" cx="105.43372" cy="161.13606" r="0.33984"/>
		<circle id="circle8484_1_" fill="#A3A3A3" cx="106.42443" cy="162.57607" r="0.33984"/>
		<circle id="circle8486_1_" fill="#A3A3A3" cx="109.19212" cy="162.85352" r="0.31776"/>
		<circle id="circle8488_1_" fill="#A3A3A3" cx="106.867" cy="160.91815" r="0.44736"/>
		<circle id="circle8490_1_" fill="#A3A3A3" cx="108.29163" cy="160.02248" r="0.44736"/>
		<circle id="circle8492_1_" fill="#A3A3A3" cx="107.84427" cy="161.81383" r="0.44736"/>
		<circle id="circle8494_1_" fill="#A3A3A3" cx="108.99915" cy="161.36551" r="0.44736"/>
		<circle id="circle8496_1_" fill="#A3A3A3" cx="110.09932" cy="161.68518" r="0.44736"/>
	</g>
	<g>
		<circle id="circle8488_2_" fill="#A3A3A3" cx="57.42376" cy="161.69383" r="0.44736"/>
		<circle id="circle8490_2_" fill="#A3A3A3" cx="58.8484" cy="160.79816" r="0.44736"/>
		<circle id="circle8494_2_" fill="#A3A3A3" cx="59.55592" cy="162.14119" r="0.44736"/>
	</g>
	<path fill="#A3A3A3" d="M135.05598,94.52962c-12.37519,0-22.40482,10.03091-22.40482,22.40609
		c0,12.37454,10.02962,22.4061,22.40482,22.4061s22.40738-10.03156,22.40738-22.4061
		C157.46336,104.56053,147.43117,94.52962,135.05598,94.52962z M146.89423,121.60756
		c-0.69365,0.16185-1.3616-0.23379-1.54144-0.90431l-1.12524-4.30318l-1.60823,10.72327
		c-0.09248,0.62428-0.52409,1.05589-1.26912,1.07388c-0.63713-0.01028-1.16122-0.48814-1.23315-1.12012l-1.3873-12.22104
		l-1.31535,9.64427c-0.08221,0.60116-0.58061,1.05845-1.1869,1.09185c-0.65254-0.03854-1.15094-0.37508-1.29482-0.96083
		l-0.96597-3.93581l-1.40784,8.65006c-0.10277,0.61143-0.63199,1.06102-1.24857,1.06102c-0.01028,0-0.02055-0.00258-0.03084-0.00258
		c-0.63199-0.01541-1.15607-0.49326-1.22287-1.12268l-1.562-14.00141l-1.18176,9.21267
		c-0.07707,0.5806-0.53951,1.03533-1.12525,1.09442c-0.51895,0.08991-1.13039-0.29031-1.3205-0.84522l-2.60503-7.57617
		c-0.23122-0.66025,0.12331-1.37959,0.781-1.60567c0.6731-0.23122,1.37701,0.12589,1.6031,0.78356l0.84779,2.4663l1.83945-14.29427
		c0.08221-0.62942,0.61658-1.10213,1.25372-1.10213c0.00513,0,0.00513,0,0.01027,0c0.64227,0.00771,1.17149,0.48812,1.24342,1.12525
		l1.70586,15.30649l0.91974-5.66222c0.09761-0.59345,0.60115-1.03533,1.19717-1.05845c0.02055,0,0.03596-0.00257,0.05139-0.00257
		c0.5806,0,1.08928,0.39564,1.22801,0.9634l0.8632,3.51191l1.78293-13.08939c0.08734-0.62685,0.6217-1.09442,1.25369-1.09442
		c0.00514,0,0.01028,0,0.01543,0.00257c0.63712,0.00513,1.16635,0.48555,1.23828,1.12011l1.44896,12.73743l1.09955-7.33468
		c0.08736-0.59346,0.58061-1.04047,1.18178-1.07388c0.54465,0.01285,1.13553,0.35967,1.28967,0.94285l2.6821,10.25828
		C147.97324,120.73922,147.56732,121.43031,146.89423,121.60756z"/>
	<g>
		<path fill="none" stroke="#A3A3A3" stroke-width="0.5" stroke-linecap="round" stroke-miterlimit="10" d="M106.29532,213.67021
			h0.74838c1.10632,0,1.22231-2.9465,1.78858-2.9465s1.24898,5.28185,3.70724,5.28185"/>
	</g>
	<g>
		<path fill="none" stroke="#A3A3A3" stroke-width="0.5" stroke-linecap="round" stroke-miterlimit="10" d="M206.8779,161.87941
			h0.74838c1.10632,0,1.22231-2.9465,1.78857-2.9465c0.56628,0,1.24898,5.28185,3.70724,5.28185"/>
	</g>
	<g>
		<path fill="none" stroke="#A3A3A3" stroke-width="0.5" stroke-linecap="round" stroke-miterlimit="10" d="M158.94223,161.87941
			h0.74838c1.10632,0,1.39311,0,1.95938,0c0.56628,0,1.07817,2.33534,3.53645,2.33534"/>
	</g>
	<g>
		<path fill="none" stroke="#A3A3A3" stroke-width="0.5" stroke-linecap="round" stroke-miterlimit="10" d="M161.98842,213.67021
			h-0.74838c-1.10632,0-1.22231-2.9465-1.78859-2.9465c-0.56627,0-1.24896,5.28185-3.70723,5.28185"/>
	</g>
	<g>
		<path fill="none" stroke="#A3A3A3" stroke-width="0.5" stroke-linecap="round" stroke-miterlimit="10" d="M131.24982,171.64081
			c2.27377,0,2.40602-5.28162,3.37163-5.28162"/>
		<path fill="none" stroke="#A3A3A3" stroke-width="0.5" stroke-linecap="round" stroke-miterlimit="10" d="M134.62144,166.35919
			c0.96562,0,1.24919,5.28162,3.70724,5.28162"/>
		<path fill="none" stroke="#A3A3A3" stroke-width="0.5" stroke-linecap="round" stroke-miterlimit="10" d="M131.24982,171.64081
			c2.27377,0,2.40602-5.28162,3.37163-5.28162c0.96562,0,1.24919,5.28162,3.70724,5.28162"/>
	</g>
	<g>
		<path fill="none" stroke="#A3A3A3" stroke-width="0.5" stroke-linecap="round" stroke-miterlimit="10" d="M102.64507,203.24477
			c1.69373,0,1.79224-5.28163,2.51152-5.28163"/>
		<path fill="none" stroke="#A3A3A3" stroke-width="0.5" stroke-linecap="round" stroke-miterlimit="10" d="M105.15659,197.96313
			c0.71928,0,0.93051,5.28163,2.76151,5.28163"/>
		<path fill="none" stroke="#A3A3A3" stroke-width="0.5" stroke-linecap="round" stroke-miterlimit="10" d="M102.64507,203.24477
			c1.69373,0,1.79224-5.28163,2.51152-5.28163c0.4164,0,0.66254,1.77008,1.15123,3.26079
			c0.35547,1.08432,0.83926,2.02084,1.61028,2.02084"/>
	</g>
	<g>
		<path fill="none" stroke="#A3A3A3" stroke-width="0.5" stroke-linecap="round" stroke-miterlimit="10" d="M107.363,197.96313
			c0.71928,0,0.93052,5.28163,2.76151,5.28163"/>
		<path fill="none" stroke="#A3A3A3" stroke-width="0.5" stroke-linecap="round" stroke-miterlimit="10" d="M106.30804,201.22379
			c0.43022-1.49069,0.63858-3.26065,1.05496-3.26065c0.71928,0,0.93052,5.28163,2.76151,5.28163"/>
	</g>
	<g>
		<path fill="none" stroke="#A3A3A3" stroke-width="0.5" stroke-linecap="round" stroke-miterlimit="10" d="M159.85791,203.24477
			c1.69373,0,1.79224-5.28163,2.51154-5.28163"/>
		<path fill="none" stroke="#A3A3A3" stroke-width="0.5" stroke-linecap="round" stroke-miterlimit="10" d="M159.85791,203.24477
			c1.69373,0,1.79224-5.28163,2.51154-5.28163c0.41641,0,0.66255,1.77022,1.15128,3.26097"/>
	</g>
	<g>
		<path fill="none" stroke="#A3A3A3" stroke-width="0.5" stroke-linecap="round" stroke-miterlimit="10" d="M162.06433,203.24477
			c1.69373,0,1.79224-5.28163,2.51152-5.28163"/>
		<path fill="none" stroke="#A3A3A3" stroke-width="0.5" stroke-linecap="round" stroke-miterlimit="10" d="M164.57585,197.96313
			c0.71928,0,0.93053,5.28163,2.76152,5.28163"/>
		<path fill="none" stroke="#A3A3A3" stroke-width="0.5" stroke-linecap="round" stroke-miterlimit="10" d="M162.06433,203.24477
			c1.69373,0,1.79224-5.28163,2.51152-5.28163s0.93053,5.28163,2.76152,5.28163"/>
	</g>
</g>
</svg>
