<?xml version="1.0" encoding="utf-8"?>
<!-- Generator: Adobe Illustrator 24.0.2, SVG Export Plug-In . SVG Version: 6.00 Build 0)  -->
<svg version="1.0" id="Layer_1" xmlns="http://www.w3.org/2000/svg" xmlns:xlink="http://www.w3.org/1999/xlink" x="0px" y="0px"
	 width="270px" height="380px" viewBox="0 0 270 380" enable-background="new 0 0 270 380" xml:space="preserve">
<g id="_x31_1">
	<rect y="-0.00001" fill="none" width="270" height="380"/>
	<g>
		<circle fill="#262424" stroke="#606266" stroke-width="0.5" stroke-miterlimit="10" cx="83.47665" cy="145.47665" r="34.93385"/>
		
			<line fill="none" stroke="#606266" stroke-width="0.75" stroke-miterlimit="10" x1="83.47665" y1="145.47665" x2="59.06974" y2="169.88356"/>
		
			<line fill="none" stroke="#606266" stroke-width="0.5" stroke-miterlimit="10" x1="83.47665" y1="145.47665" x2="51.11647" y2="157.6801"/>
		
			<line fill="none" stroke="#606266" stroke-width="0.5" stroke-miterlimit="10" x1="83.47665" y1="145.47665" x2="116.17216" y2="157.80656"/>
		
			<line fill="none" stroke="#606266" stroke-width="0.75" stroke-miterlimit="10" x1="83.47665" y1="145.47665" x2="108.1785" y2="170.17851"/>
		<circle fill="#262424" stroke="#606266" stroke-width="0.75" stroke-miterlimit="10" cx="83.47665" cy="145.47665" r="23.5"/>
	</g>
	<g>
		<circle fill="#262424" stroke="#606266" stroke-width="0.5" stroke-miterlimit="10" cx="186.5" cy="145.44551" r="34.93385"/>
		
			<line fill="none" stroke="#606266" stroke-width="0.75" stroke-miterlimit="10" x1="186.5" y1="145.44551" x2="162.09309" y2="169.85242"/>
		
			<line fill="none" stroke="#606266" stroke-width="0.5" stroke-miterlimit="10" x1="186.5" y1="145.44551" x2="186.44551" y2="109.4939"/>
		
			<line fill="none" stroke="#606266" stroke-width="0.75" stroke-miterlimit="10" x1="186.5" y1="145.44551" x2="211.20186" y2="170.14737"/>
		<circle fill="#262424" stroke="#606266" stroke-width="0.75" stroke-miterlimit="10" cx="186.5" cy="145.44551" r="23.5"/>
	</g>
	<g>
		<circle fill="#262424" stroke="#606266" stroke-width="0.5" stroke-miterlimit="10" cx="135" cy="283.5" r="34.93385"/>
		
			<line fill="none" stroke="#606266" stroke-width="0.75" stroke-miterlimit="10" x1="135" y1="283.5" x2="110.30396" y2="308.19604"/>
		
			<line fill="none" stroke="#606266" stroke-width="0.75" stroke-miterlimit="10" x1="135" y1="283.5" x2="159.69603" y2="308.19604"/>
		<line fill="none" stroke="#606266" stroke-width="0.5" stroke-miterlimit="10" x1="135" y1="248.56616" x2="135" y2="283.5"/>
		<circle fill="#262424" stroke="#606266" stroke-width="0.75" stroke-miterlimit="10" cx="135" cy="283.5" r="23.5"/>
	</g>
	<g>
		<circle fill="none" cx="71" cy="351" r="14.578"/>
		
			<path fill="#A3A3A3" stroke="#A3A3A3" stroke-width="0.25" stroke-linecap="round" stroke-linejoin="round" stroke-miterlimit="10" d="
			M53.58594,345.0835l-0.38281,1.3999l1.19922,0.32715l0.36914-1.35107l0.42578,0.1167l-0.36914,1.35107l2.00781,0.5498
			l-0.12305,0.4502l-4.05859-1.11035l0.50586-1.85107L53.58594,345.0835z"/>
		
			<path fill="#A3A3A3" stroke="#A3A3A3" stroke-width="0.25" stroke-linecap="round" stroke-linejoin="round" stroke-miterlimit="10" d="
			M53.93164,343.12451l3.83594,1.71094l-0.18945,0.42676l-3.83594-1.71143L53.93164,343.12451z"/>
		
			<path fill="#A3A3A3" stroke="#A3A3A3" stroke-width="0.25" stroke-linecap="round" stroke-linejoin="round" stroke-miterlimit="10" d="
			M54.97266,341.16895l3.19727,1.98291l0.61035-0.98535l0.375,0.23242l-0.85645,1.38135l-3.57227-2.21387L54.97266,341.16895z"/>
		
			<path fill="#A3A3A3" stroke="#A3A3A3" stroke-width="0.25" stroke-linecap="round" stroke-linejoin="round" stroke-miterlimit="10" d="
			M57.36426,338.69678l2.8291,2.47998l-0.30664,0.35107l-2.83008-2.47998l-0.67188,0.76758l-0.33203-0.29102l1.65332-1.88623
			l0.33105,0.29004L57.36426,338.69678z"/>
		
			<path fill="#A3A3A3" stroke="#A3A3A3" stroke-width="0.25" stroke-linecap="round" stroke-linejoin="round" stroke-miterlimit="10" d="
			M60.79688,335.68018l-1.35938,1.04297l0.75879,0.98926l1.31934-1.01123l0.26855,0.34961l-1.31934,1.01123l0.99219,1.29492
			l1.35938-1.04248l0.26758,0.34961l-1.72852,1.32715l-2.55566-3.33496l1.72949-1.32617L60.79688,335.68018z"/>
		
			<path fill="#A3A3A3" stroke="#A3A3A3" stroke-width="0.25" stroke-linecap="round" stroke-linejoin="round" stroke-miterlimit="10" d="
			M62.61719,334.15332c0.25586-0.12061,0.64453-0.28369,1.02148-0.2251c0.29199,0.04297,0.62305,0.2417,0.81445,0.64502
			c0.27539,0.58154,0.0957,1.18896-0.46094,1.50195l2.01172,1.125l-0.5127,0.24268l-1.94336-1.11475l-0.1084,0.05029l0.78711,1.6626
			l-0.41992,0.19971l-1.79883-3.79834L62.61719,334.15332z M63.26172,336.00244l0.26758-0.12744
			c0.52344-0.24805,0.71875-0.64551,0.50781-1.09082c-0.09961-0.21045-0.26172-0.3916-0.56641-0.41406
			c-0.2168-0.01709-0.41504,0.06396-0.59766,0.15088l-0.25586,0.12061L63.26172,336.00244z"/>
		
			<path fill="#A3A3A3" stroke="#A3A3A3" stroke-width="0.25" stroke-linecap="round" stroke-linejoin="round" stroke-miterlimit="10" d="
			M67.94336,332.83838l-1.66992,0.39502l0.28711,1.21484l1.62109-0.38184l0.10059,0.4292l-1.62012,0.38184l0.375,1.59082
			l1.66992-0.39404l0.10156,0.4292l-2.12402,0.50098l-0.96582-4.09375l2.12305-0.50244L67.94336,332.83838z"/>
		
			<path fill="#A3A3A3" stroke="#A3A3A3" stroke-width="0.25" stroke-linecap="round" stroke-linejoin="round" stroke-miterlimit="10" d="
			M69.60547,332.18555l0.85547,0.00049c0.42188,0.00098,1.01953,0.04688,1.54883,0.49414
			c0.38281,0.32129,0.71582,0.85596,0.71484,1.61182c-0.00098,0.88184-0.43555,1.35303-0.73828,1.61133
			c-0.38477,0.32617-0.78711,0.4834-1.53711,0.48193l-0.84961-0.00049L69.60547,332.18555z M70.06641,335.94434l0.40918,0.00098
			c0.33301,0.00049,0.79395-0.03711,1.20215-0.37646c0.31641-0.26318,0.56836-0.67969,0.56836-1.27686
			c0.00195-1.00781-0.70313-1.66309-1.7666-1.66455h-0.40918L70.06641,335.94434z"/>
		
			<path fill="#A3A3A3" stroke="#A3A3A3" stroke-width="0.25" stroke-linecap="round" stroke-linejoin="round" stroke-miterlimit="10" d="
			M75.69336,337.03809l1.91797-3.93359l1.43945,4.51953l1.42578-2.92725l0.41895,0.2041l-1.92285,3.94482l-1.43945-4.51855
			l-1.41992,2.91504L75.69336,337.03809z"/>
		
			<path fill="#A3A3A3" stroke="#A3A3A3" stroke-width="0.25" stroke-linecap="round" stroke-linejoin="round" stroke-miterlimit="10" d="
			M81.13379,337.54932c0.87988-0.89258,2.22168-0.86182,3.08301-0.01318c0.86133,0.84961,0.91016,2.18896,0.03125,3.08252
			c-0.875,0.88818-2.2168,0.86621-3.08203,0.01318C80.2998,339.77783,80.25781,338.4375,81.13379,337.54932z M81.47461,337.88574
			c-0.67578,0.68652-0.67188,1.76807,0,2.43213c0.67383,0.66309,1.75586,0.65137,2.43164-0.03564
			c0.67676-0.68701,0.67383-1.76807,0-2.43213C83.23438,337.18701,82.15137,337.19873,81.47461,337.88574z"/>
		
			<path fill="#A3A3A3" stroke="#A3A3A3" stroke-width="0.25" stroke-linecap="round" stroke-linejoin="round" stroke-miterlimit="10" d="
			M86.91309,340.9917l-3.53223,2.27783l-0.25195-0.39258l3.53125-2.27686L86.91309,340.9917z"/>
		
			<path fill="#A3A3A3" stroke="#A3A3A3" stroke-width="0.25" stroke-linecap="round" stroke-linejoin="round" stroke-miterlimit="10" d="
			M87.81641,344.64355c0.08203-0.09668,0.16016-0.2334,0.19336-0.34961c0.02539-0.10059,0.04102-0.271-0.05273-0.49219
			c-0.16309-0.38135-0.51367-0.5459-0.87305-0.39258c-0.15039,0.06396-0.2207,0.1416-0.27539,0.28809
			c-0.06445,0.16602-0.06641,0.3374-0.06836,0.50879l-0.00391,0.44092c-0.00195,0.26807-0.01758,0.521-0.10938,0.75244
			c-0.11328,0.28027-0.30469,0.45801-0.58203,0.57666c-0.71289,0.30469-1.41211-0.01953-1.70898-0.71436
			c-0.10938-0.25439-0.19336-0.59521-0.04688-0.97266c0.10352-0.27002,0.32031-0.5,0.5293-0.65088l0.29492,0.36719
			c-0.19141,0.11572-0.3252,0.28271-0.39453,0.44189c-0.0957,0.23975-0.06055,0.4502,0.02441,0.64746
			c0.22461,0.52783,0.70801,0.61475,1.09668,0.44922c0.17188-0.07373,0.30078-0.19092,0.36914-0.38379
			c0.05664-0.15576,0.0625-0.33496,0.06836-0.57764l0.01367-0.4165c0.00488-0.18018,0.00391-0.40674,0.09766-0.65186
			c0.08984-0.23682,0.22852-0.41211,0.51758-0.53564c0.5957-0.25488,1.19141,0.03125,1.45898,0.65625
			c0.10156,0.2373,0.13672,0.44873,0.09082,0.69385c-0.03711,0.20166-0.1377,0.40137-0.26758,0.55908L87.81641,344.64355z"/>
		
			<path fill="#A3A3A3" stroke="#A3A3A3" stroke-width="0.25" stroke-linecap="round" stroke-linejoin="round" stroke-miterlimit="10" d="
			M89.23438,348.69531l-0.32031-1.68408l-1.22656,0.23389l0.31152,1.63379l-0.43359,0.08252l-0.31152-1.63477l-1.60352,0.30566
			l0.32031,1.68311l-0.43359,0.08301l-0.40723-2.14307l4.12988-0.78467l0.4082,2.14307L89.23438,348.69531z"/>
	</g>
	<g>
		<circle fill="none" cx="199.5" cy="351.03378" r="14.578"/>
		
			<path fill="#A3A3A3" stroke="#A3A3A3" stroke-width="0.25" stroke-linecap="round" stroke-linejoin="round" stroke-miterlimit="10" d="
			M184.03418,340.34375c0.16504-0.22998,0.42676-0.5625,0.78418-0.69141c0.27734-0.10498,0.66211-0.09082,1.02539,0.1709
			c0.52148,0.375,0.6582,0.99414,0.32227,1.53564l2.30371,0.0127l-0.33105,0.45947l-2.23828-0.03711l-0.07031,0.09766
			l1.49219,1.07324l-0.27246,0.37891l-3.40918-2.45361L184.03418,340.34375z M185.49219,341.64941l0.17285-0.24023
			c0.33887-0.47119,0.31543-0.91406-0.08301-1.20117c-0.18945-0.13525-0.41797-0.21582-0.69531-0.08838
			c-0.19727,0.09082-0.33301,0.25684-0.45117,0.41943l-0.16504,0.23096L185.49219,341.64941z"/>
		
			<path fill="#A3A3A3" stroke="#A3A3A3" stroke-width="0.25" stroke-linecap="round" stroke-linejoin="round" stroke-miterlimit="10" d="
			M189.91211,338.45654l-1.35547,1.16699l0.38867,1.22559l-0.3916,0.33691l-1.40137-4.59912l4.2959,2.11182l-0.3916,0.33691
			L189.91211,338.45654z M189.48633,338.2417l-1.62988-0.81543l0.55078,1.74268L189.48633,338.2417z"/>
		
			<path fill="#A3A3A3" stroke="#A3A3A3" stroke-width="0.25" stroke-linecap="round" stroke-linejoin="round" stroke-miterlimit="10" d="
			M189.86914,334.68945l2.25586,2.45947l-0.11133-3.60986l2.46777,2.60254l-0.1084-3.37793l0.47461-0.20313l0.11719,4.75732
			l-2.45703-2.60645l0.10547,3.61133l-3.21973-3.43066L189.86914,334.68945z"/>
		
			<path fill="#A3A3A3" stroke="#A3A3A3" stroke-width="0.25" stroke-linecap="round" stroke-linejoin="round" stroke-miterlimit="10" d="
			M199.24512,336.30615l0.47559-4.35254l2.88379,3.76904l0.35352-3.23682l0.46387,0.04932l-0.47754,4.36523l-2.88184-3.76904
			l-0.35352,3.2251L199.24512,336.30615z"/>
		
			<path fill="#A3A3A3" stroke="#A3A3A3" stroke-width="0.25" stroke-linecap="round" stroke-linejoin="round" stroke-miterlimit="10" d="
			M204.5166,334.94678c0.52637-1.13672,1.79785-1.56055,2.89551-1.05176c1.0957,0.5083,1.5957,1.75195,1.06836,2.88867
			c-0.52441,1.13135-1.79297,1.5625-2.89453,1.05273C204.48242,337.32568,203.99219,336.07813,204.5166,334.94678z
			 M204.95117,335.14795c-0.40527,0.87451-0.03711,1.8916,0.81934,2.2876c0.85645,0.39746,1.87012,0.02051,2.27539-0.85254
			c0.40527-0.87451,0.03711-1.89111-0.82031-2.2876C206.36914,333.89697,205.35547,334.27393,204.95117,335.14795z"/>
		
			<path fill="#A3A3A3" stroke="#A3A3A3" stroke-width="0.25" stroke-linecap="round" stroke-linejoin="round" stroke-miterlimit="10" d="
			M211.11719,336.24121l-2.5625,3.33594l-0.37012-0.28369l2.5625-3.3374L211.11719,336.24121z"/>
		
			<path fill="#A3A3A3" stroke="#A3A3A3" stroke-width="0.25" stroke-linecap="round" stroke-linejoin="round" stroke-miterlimit="10" d="
			M213.17969,339.36084c0.04395-0.11816,0.07227-0.27393,0.0625-0.39404c-0.00977-0.10254-0.05273-0.26904-0.21582-0.44385
			c-0.28223-0.3042-0.66895-0.34082-0.9541-0.0752c-0.12012,0.11182-0.15918,0.20898-0.16016,0.36426
			c-0.00586,0.17773,0.05078,0.34082,0.10547,0.50244l0.14648,0.41553c0.08887,0.25195,0.16016,0.49463,0.15137,0.74512
			c-0.01074,0.30127-0.13086,0.53418-0.35156,0.73975c-0.56641,0.52734-1.33496,0.45996-1.84863-0.09277
			c-0.18945-0.20313-0.38379-0.49561-0.37305-0.90088c0.00586-0.28955,0.13086-0.5791,0.27734-0.79102l0.40039,0.24561
			c-0.13867,0.17334-0.20898,0.37646-0.21875,0.54932c-0.00977,0.25781,0.09375,0.44336,0.24023,0.60107
			c0.38965,0.41895,0.87402,0.3374,1.18262,0.05127c0.1377-0.12793,0.21973-0.28174,0.21777-0.4873
			c0.00195-0.16309-0.05469-0.33545-0.13086-0.56494l-0.12793-0.39648c-0.05664-0.17236-0.13379-0.38379-0.12891-0.646
			c0.00488-0.25439,0.0752-0.46484,0.30566-0.67969c0.47461-0.44141,1.13086-0.37305,1.59375,0.12402
			c0.17578,0.18945,0.28125,0.37549,0.32031,0.62158c0.0332,0.20117,0.00781,0.42334-0.0625,0.61768L213.17969,339.36084z"/>
		
			<path fill="#A3A3A3" stroke="#A3A3A3" stroke-width="0.25" stroke-linecap="round" stroke-linejoin="round" stroke-miterlimit="10" d="
			M215.90625,342.71143l-0.87305-1.47412l-1.07324,0.63574l0.84766,1.43115l-0.37988,0.22363l-0.84668-1.43018l-1.4043,0.83057
			l0.87305,1.47412l-0.37891,0.22559l-1.11035-1.87549l3.61523-2.1416l1.10938,1.87598L215.90625,342.71143z"/>
	</g>
	<g>
		
			<ellipse transform="matrix(0.08248 -0.99659 0.99659 0.08248 7.76603 241.4274)" fill="none" cx="135" cy="116.49604" rx="25.58" ry="25.58002"/>
		<path fill="#A3A3A3" stroke="#A3A3A3" stroke-width="0.25" stroke-miterlimit="10" d="M112.16602,100.33984l-2.55859-0.30908
			l0.34473-0.47607l1.98926,0.24951l-0.83887-1.83545l0.34668-0.4751l1.07031,2.35938l2.74609,0.3252l-0.34375,0.4751
			l-2.18066-0.25928l0.91406,2.00391l-0.34473,0.47461L112.16602,100.33984z"/>
		<path fill="#A3A3A3" stroke="#A3A3A3" stroke-width="0.25" stroke-miterlimit="10" d="M112.53711,96.27782l3.49219,3.09375
			l-0.34277,0.38623l-3.49121-3.09277L112.53711,96.27782z"/>
		<path fill="#A3A3A3" stroke="#A3A3A3" stroke-width="0.25" stroke-miterlimit="10" d="M116.49023,97.97265
			c0.13477-0.13379,0.36133-0.13379,0.49512,0c0.13379,0.1333,0.13379,0.36133,0.00098,0.49512
			c-0.13477,0.13428-0.3623,0.13379-0.49609-0.00049C116.35742,98.33397,116.35742,98.10693,116.49023,97.97265z"/>
		<path fill="#A3A3A3" stroke="#A3A3A3" stroke-width="0.25" stroke-miterlimit="10" d="M118.27637,91.87548l-1.29395,0.95947
			l0.82031,1.1084l1.25-0.92627l0.29199,0.39453l-1.24902,0.92529l1.37598,1.85791l-0.41699,0.30811l-2.78125-3.75342
			l1.70996-1.26855L118.27637,91.87548z"/>
		<path fill="#A3A3A3" stroke="#A3A3A3" stroke-width="0.25" stroke-miterlimit="10" d="M119.47559,90.56395l2.43066,3.98047
			l-0.44141,0.26953l-2.43164-3.98047L119.47559,90.56395z"/>
		<path fill="#A3A3A3" stroke="#A3A3A3" stroke-width="0.25" stroke-miterlimit="10" d="M121.20605,89.59813l1.89258,3.72559
			l1.14746-0.58301l0.22266,0.43701l-1.61035,0.81738l-2.11426-4.1626L121.20605,89.59813z"/>
		<path fill="#A3A3A3" stroke="#A3A3A3" stroke-width="0.25" stroke-miterlimit="10" d="M124.44043,88.69921l1.51855,3.89063
			l-0.4834,0.18799L123.958,88.8872l-1.05566,0.41162l-0.17773-0.45654l2.59375-1.01074l0.17773,0.45508L124.44043,88.69921z"/>
		<path fill="#A3A3A3" stroke="#A3A3A3" stroke-width="0.25" stroke-miterlimit="10" d="M128.85938,87.37402l-1.84473,0.47412
			l0.34473,1.34229l1.79102-0.46045l0.12207,0.47559l-1.79004,0.45947l0.45117,1.75684l1.84375-0.47412l0.12305,0.47461
			l-2.34668,0.60352l-1.16309-4.52441l2.3457-0.60303L128.85938,87.37402z"/>
		<path fill="#A3A3A3" stroke="#A3A3A3" stroke-width="0.25" stroke-miterlimit="10" d="M130.79297,86.56981
			c0.31348-0.04297,0.78125-0.08447,1.16016,0.10303c0.29492,0.14355,0.58008,0.46484,0.64746,0.95801
			c0.09668,0.70801-0.29785,1.29199-0.99121,1.43652l1.75293,1.86621l-0.62402,0.08545l-1.68555-1.83398l-0.13281,0.01807
			l0.27734,2.02734l-0.5127,0.07031l-0.63281-4.62939L130.79297,86.56981z M130.85742,88.74609l0.32617-0.04492
			c0.63867-0.08691,0.97852-0.44531,0.90527-0.98633c-0.03516-0.25732-0.14648-0.50342-0.46094-0.62988
			c-0.22461-0.08984-0.46191-0.07178-0.68457-0.04102l-0.3125,0.04297L130.85742,88.74609z"/>
		<path fill="#A3A3A3" stroke="#A3A3A3" stroke-width="0.25" stroke-miterlimit="10" d="M136.45117,86.76708l-1.90234-0.00342
			l-0.00195,1.38477l1.84668,0.00293l-0.00098,0.49072l-1.84668-0.00391l-0.00293,1.81152l1.90234,0.00342l-0.00195,0.49072
			l-2.41992-0.00537l0.00879-4.66602l2.4209,0.00488L136.45117,86.76708z"/>
		<path fill="#A3A3A3" stroke="#A3A3A3" stroke-width="0.25" stroke-miterlimit="10" d="M137.95313,86.37109l0.94141,0.14258
			c0.46289,0.0708,1.11328,0.21973,1.62012,0.7998c0.36914,0.41602,0.64551,1.06006,0.52051,1.89111
			c-0.14844,0.96875-0.70508,1.41602-1.08008,1.64844c-0.47656,0.2959-0.94531,0.40137-1.76953,0.27686l-0.93457-0.14209
			L137.95313,86.37109z M137.83691,90.58056l0.4502,0.06836c0.36719,0.05566,0.87793,0.0918,1.38477-0.21338
			c0.39063-0.23828,0.73633-0.65283,0.83691-1.31104c0.16797-1.10742-0.49805-1.94531-1.66699-2.12256l-0.4502-0.06934
			L137.83691,90.58056z"/>
		<path fill="#A3A3A3" stroke="#A3A3A3" stroke-width="0.25" stroke-miterlimit="10" d="M142.89844,92.09618l1.87012-4.48877
			l1.8916,4.91943l1.3916-3.33936l0.47754,0.19873l-1.87598,4.50195l-1.8916-4.91943l-1.38574,3.32617L142.89844,92.09618z"/>
		<path fill="#A3A3A3" stroke="#A3A3A3" stroke-width="0.25" stroke-miterlimit="10" d="M148.69922,92.08154
			c0.78418-1.1499,2.25586-1.38379,3.36523-0.62646c1.11035,0.75635,1.43066,2.21191,0.64648,3.36328
			c-0.78125,1.14355-2.25,1.38623-3.36523,0.62549S147.91895,93.22655,148.69922,92.08154z M149.13867,92.38134
			c-0.60352,0.88477-0.38477,2.06689,0.48242,2.65869c0.86719,0.58936,2.04688,0.3623,2.65039-0.52246
			s0.38477-2.06592-0.48242-2.65771C150.92188,91.26854,149.74219,91.49755,149.13867,92.38134z"/>
		<path fill="#A3A3A3" stroke="#A3A3A3" stroke-width="0.25" stroke-miterlimit="10" d="M155.45801,94.23534l-3.12793,3.46582
			l-0.38477-0.34766l3.12793-3.46484L155.45801,94.23534z"/>
		<path fill="#A3A3A3" stroke="#A3A3A3" stroke-width="0.25" stroke-miterlimit="10" d="M157.29492,97.43945
			c0.05078-0.13086,0.08398-0.30322,0.0752-0.43701c-0.00977-0.11475-0.05566-0.30029-0.23535-0.49658
			c-0.31055-0.3418-0.74023-0.38623-1.06055-0.09473c-0.13477,0.12256-0.17969,0.22998-0.18262,0.40381
			c-0.00879,0.19727,0.05176,0.37842,0.1123,0.56006l0.15625,0.46338c0.09668,0.28174,0.17383,0.55322,0.16016,0.83008
			c-0.01563,0.33594-0.15137,0.59326-0.39941,0.81934c-0.6377,0.57959-1.49023,0.49561-2.05664-0.12549
			c-0.20801-0.22754-0.4209-0.55566-0.4043-1.00537c0.00977-0.32227,0.1543-0.64307,0.31934-0.87793l0.44238,0.27832
			c-0.1582,0.19189-0.2373,0.4165-0.25195,0.6084c-0.0127,0.28662,0.10059,0.49512,0.26074,0.67188
			c0.42969,0.47021,0.96875,0.38672,1.31641,0.07031c0.15527-0.1416,0.24707-0.31006,0.24805-0.53809
			c0.00293-0.18408-0.05664-0.375-0.13867-0.63135l-0.13867-0.44336c-0.06055-0.18945-0.14355-0.42627-0.13477-0.71875
			c0.00781-0.28223,0.08887-0.51709,0.34766-0.75244c0.5332-0.48584,1.2627-0.40186,1.77148,0.15674
			c0.19336,0.21143,0.30762,0.4209,0.34961,0.6958c0.03418,0.22412,0.00195,0.4707-0.07617,0.68506L157.29492,97.43945z"/>
		<path fill="#A3A3A3" stroke="#A3A3A3" stroke-width="0.25" stroke-miterlimit="10" d="M160.2168,100.64159l-1.08691-1.56152
			l-1.13672,0.79199l1.05566,1.51563l-0.40234,0.28076l-1.05566-1.51611l-1.48633,1.03516l1.08789,1.56299l-0.40234,0.2793
			l-1.38379-1.98633l3.83008-2.66797l1.38281,1.98682L160.2168,100.64159z"/>
	</g>
	<g>
		<circle fill="none" cx="83.5" cy="145.5" r="28.59473"/>
		<path fill="#A3A3A3" stroke="#A3A3A3" stroke-width="0.25" stroke-linejoin="round" stroke-miterlimit="10" d="
			M69.23926,167.21484l0.9502,0.53223c0.4668,0.26221,1.10254,0.68262,1.41113,1.50732
			c0.22754,0.59473,0.26465,1.39502-0.20605,2.23242c-0.54688,0.97705-1.32227,1.23145-1.81738,1.32959
			c-0.62891,0.12451-1.17383,0.04834-2.00488-0.41699l-0.94141-0.52686L69.23926,167.21484z M67.41992,171.67188l0.4541,0.25439
			c0.37012,0.20752,0.90332,0.45166,1.56836,0.32861c0.5127-0.09814,1.05078-0.40186,1.42285-1.06494
			c0.625-1.11621,0.25-2.28076-0.92969-2.94189l-0.45313-0.25488L67.41992,171.67188z"/>
		<path fill="#A3A3A3" stroke="#A3A3A3" stroke-width="0.25" stroke-linejoin="round" stroke-miterlimit="10" d="
			M76.46777,171.06396l-2.06348-0.69727l-0.50684,1.50195l2.00293,0.67578l-0.17969,0.53076l-2.00195-0.67627l-0.66406,1.96436
			l2.0625,0.69727l-0.17871,0.53076l-2.62402-0.88623l1.70898-5.05908l2.62402,0.88623L76.46777,171.06396z"/>
		<path fill="#A3A3A3" stroke="#A3A3A3" stroke-width="0.25" stroke-linejoin="round" stroke-miterlimit="10" d="
			M77.28125,176.21436l0.68164-5.52197l3.59766,4.84033l0.50684-4.10693l0.58789,0.07275l-0.68457,5.53711l-3.5957-4.84033
			l-0.50488,4.09082L77.28125,176.21436z"/>
		<path fill="#A3A3A3" stroke="#A3A3A3" stroke-width="0.25" stroke-linejoin="round" stroke-miterlimit="10" d="
			M86.75391,172.27148c-0.08398-0.13721-0.2168-0.2876-0.34473-0.37207c-0.11035-0.0708-0.31055-0.1582-0.61426-0.13184
			c-0.52539,0.04541-0.86426,0.40381-0.82227,0.89746c0.01758,0.20703,0.08398,0.32178,0.23926,0.44531
			c0.17285,0.14551,0.37988,0.21631,0.58691,0.28613l0.5293,0.18018c0.32227,0.10938,0.62109,0.22754,0.86328,0.43262
			c0.29492,0.24658,0.43359,0.54883,0.46582,0.93115c0.08496,0.98096-0.58496,1.69629-1.54199,1.77832
			c-0.35059,0.0293-0.7959-0.00439-1.19238-0.33154c-0.28418-0.23193-0.47559-0.58496-0.5752-0.89844l0.56055-0.20898
			c0.06445,0.27637,0.21191,0.50439,0.37695,0.65039c0.25098,0.21143,0.51953,0.25391,0.79004,0.22949
			c0.72559-0.06152,1.02441-0.60986,0.97852-1.14355c-0.02051-0.23926-0.11035-0.43945-0.31641-0.59961
			c-0.16406-0.13037-0.37988-0.20801-0.66895-0.31152l-0.49805-0.18213c-0.21484-0.07764-0.48828-0.16797-0.74707-0.37842
			c-0.25-0.20313-0.40723-0.43848-0.44043-0.83691c-0.07031-0.82129,0.51172-1.42578,1.37305-1.49902
			c0.32715-0.02734,0.5957,0.01318,0.87305,0.1665c0.22852,0.125,0.42969,0.32422,0.56836,0.54492L86.75391,172.27148z"/>
		<path fill="#A3A3A3" stroke="#A3A3A3" stroke-width="0.25" stroke-linejoin="round" stroke-miterlimit="10" d="
			M89.40723,170.71143l1.16016,5.20996l-0.57813,0.12939l-1.15918-5.21045L89.40723,170.71143z"/>
		<path fill="#A3A3A3" stroke="#A3A3A3" stroke-width="0.25" stroke-linejoin="round" stroke-miterlimit="10" d="
			M92.63477,170.33057l1.59766,4.50342l-0.55859,0.19824l-1.59766-4.50391l-1.2207,0.43311l-0.1875-0.52832l3.00195-1.06396
			l0.1875,0.52734L92.63477,170.33057z"/>
		<path fill="#A3A3A3" stroke="#A3A3A3" stroke-width="0.25" stroke-linejoin="round" stroke-miterlimit="10" d="
			M97.33789,170.91992l-3.00977-1.79785l0.60059-0.33496l2.34766,1.4165l0.03906-2.74902l0.59961-0.33594l-0.06055,3.51318
			l1.11816,2.00293l-0.5166,0.28809L97.33789,170.91992z"/>
	</g>
	<g>
		<circle fill="none" cx="186.44551" cy="145.5" r="28.59473"/>
		<path fill="#A3A3A3" stroke="#A3A3A3" stroke-width="0.25" stroke-linejoin="round" stroke-miterlimit="10" d="
			M178.94922,170.94775l-1.73535-0.6123l-0.52441,1.48682l1.67578,0.59033l-0.18652,0.52832l-1.6748-0.59082l-0.87695,2.48926
			l-0.55859-0.19629l1.77344-5.03174l2.29297,0.80908L178.94922,170.94775z"/>
		<path fill="#A3A3A3" stroke="#A3A3A3" stroke-width="0.25" stroke-linejoin="round" stroke-miterlimit="10" d="
			M181.19043,170.89697l-1.1416,5.20898l-0.57813-0.12646l1.14258-5.20898L181.19043,170.89697z"/>
		<path fill="#A3A3A3" stroke="#A3A3A3" stroke-width="0.25" stroke-linejoin="round" stroke-miterlimit="10" d="
			M183.63086,171.27344l-0.47559,4.75098l1.46387,0.146l-0.05566,0.55762l-2.05273-0.20557l0.53125-5.30859L183.63086,171.27344z"/>
		<path fill="#A3A3A3" stroke="#A3A3A3" stroke-width="0.25" stroke-linejoin="round" stroke-miterlimit="10" d="
			M187.52148,171.95752l0.15234,4.77246l-0.59082,0.01904l-0.15332-4.77197l-1.29492,0.04102l-0.01758-0.55908l3.18164-0.10205
			l0.01758,0.55957L187.52148,171.95752z"/>
		<path fill="#A3A3A3" stroke="#A3A3A3" stroke-width="0.25" stroke-linejoin="round" stroke-miterlimit="10" d="
			M192.82422,171.23584l-2.13965,0.40039l0.29102,1.55762l2.07715-0.38818l0.10352,0.5498l-2.07715,0.38867l0.38086,2.03711
			l2.13965-0.39941l0.10254,0.55127l-2.72168,0.50781l-0.98145-5.24658l2.72168-0.50879L192.82422,171.23584z"/>
		<path fill="#A3A3A3" stroke="#A3A3A3" stroke-width="0.25" stroke-linejoin="round" stroke-miterlimit="10" d="
			M194.91797,169.99121c0.33789-0.12451,0.84961-0.28613,1.31934-0.16748c0.36426,0.08887,0.75977,0.37842,0.95605,0.9126
			c0.2793,0.76611-0.01855,1.51367-0.75781,1.84424l2.41211,1.65674l-0.67773,0.24756l-2.32715-1.63623l-0.14355,0.05127
			l0.80273,2.19434l-0.55664,0.20459l-1.83105-5.01416L194.91797,169.99121z M195.51953,172.40381l0.35254-0.12891
			c0.69141-0.25293,0.9834-0.73438,0.76953-1.3208c-0.10156-0.27832-0.28613-0.52637-0.66699-0.5918
			c-0.27246-0.04492-0.5332,0.03369-0.77441,0.12207l-0.33789,0.12256L195.51953,172.40381z"/>
	</g>
	<g>
		<circle fill="none" cx="135" cy="283.5" r="28.59473"/>
		
			<path fill="#A3A3A3" stroke="#A3A3A3" stroke-width="0.25" stroke-linecap="round" stroke-linejoin="round" stroke-miterlimit="10" d="
			M117.6709,309.67383l3.43262-4.54932l-0.3125,4.93604l3.96484-2.99658l-1.91992,5.36523l-0.53711-0.28564l1.30273-3.51123
			l-3.45313,2.61572l0.27148-4.31299l-2.21289,3.0249L117.6709,309.67383z"/>
		
			<path fill="#A3A3A3" stroke="#A3A3A3" stroke-width="0.25" stroke-linecap="round" stroke-linejoin="round" stroke-miterlimit="10" d="
			M127.42578,308.27979l-1.61328,5.0874l-0.56445-0.17871l1.61328-5.0874L127.42578,308.27979z"/>
		
			<path fill="#A3A3A3" stroke="#A3A3A3" stroke-width="0.25" stroke-linecap="round" stroke-linejoin="round" stroke-miterlimit="10" d="
			M129.7207,311.49268l-0.96484-2.78711l0.66309,0.11621l0.74023,2.17041l1.46777-1.78223l0.66211,0.11719l-1.88965,2.28467
			l1.04395,2.98877l-0.66309-0.11621l-0.82617-2.37305l-1.60254,1.9458l-0.66211-0.11719L129.7207,311.49268z"/>
		
			<path fill="#A3A3A3" stroke="#A3A3A3" stroke-width="0.25" stroke-linecap="round" stroke-linejoin="round" stroke-miterlimit="10" d="
			M135.90332,312.21533c-0.2207-1.57666,0.8457-2.9043,2.36621-3.11719c1.51953-0.21289,2.91016,0.77246,3.12988,2.34814
			c0.21973,1.56787-0.83691,2.90234-2.36621,3.11621C137.50391,314.77686,136.12305,313.7832,135.90332,312.21533z
			 M136.50488,312.13086c0.16895,1.21143,1.2627,2.04297,2.4502,1.87695c1.18848-0.16602,2.01172-1.26611,1.84277-2.47705
			c-0.16895-1.21143-1.2627-2.04395-2.45117-1.87793C137.1582,309.81787,136.33594,310.91846,136.50488,312.13086z"/>
		
			<path fill="#A3A3A3" stroke="#A3A3A3" stroke-width="0.25" stroke-linecap="round" stroke-linejoin="round" stroke-miterlimit="10" d="
			M144.00879,311.27246c0.15723,0.41992,0.3291,0.87695,0.85254,1.06543c0.26563,0.09619,0.65332,0.07959,0.93164-0.02344
			c0.27734-0.10449,0.58008-0.3457,0.7168-0.59326c0.27148-0.4873,0.09961-0.94434-0.05664-1.36377l-1.14844-3.06592
			l0.55469-0.20801l1.2041,3.21582c0.15723,0.41895,0.26465,0.84082,0.13477,1.31787
			c-0.14551,0.52393-0.57129,0.98389-1.20996,1.22217c-0.63672,0.2373-1.25977,0.17285-1.71387-0.12842
			c-0.41113-0.27295-0.60645-0.66113-0.76465-1.08105l-1.2041-3.21582l0.55566-0.2085L144.00879,311.27246z"/>
		
			<path fill="#A3A3A3" stroke="#A3A3A3" stroke-width="0.25" stroke-linecap="round" stroke-linejoin="round" stroke-miterlimit="10" d="
			M148.77148,306.08643l2.44727,4.10596l-0.50781,0.30322l-2.44922-4.10645l-1.11328,0.66455l-0.28711-0.48096l2.73633-1.63135
			l0.28809,0.48096L148.77148,306.08643z"/>
	</g>
	<g>
		<circle fill="none" cx="135" cy="283.44943" r="28.59473"/>
		<path fill="#A3A3A3" d="M143.04688,253.96191c0.25977,0.07422,0.6416,0.20313,0.87305,0.48145
			c0.18164,0.21387,0.29492,0.56445,0.17773,0.97363c-0.16895,0.58691-0.67871,0.91016-1.27344,0.7832l0.73145,2.06836
			l-0.51855-0.14746l-0.68945-2.01953l-0.10938-0.03027l-0.48047,1.68262l-0.42773-0.12207l1.09961-3.8457L143.04688,253.96191z
			 M142.34766,255.68945l0.27051,0.07813c0.53027,0.15234,0.9209-0.01172,1.04883-0.46191
			c0.06152-0.21289,0.05957-0.44434-0.14355-0.65137c-0.14453-0.14844-0.33789-0.21582-0.52344-0.26855l-0.25781-0.07422
			L142.34766,255.68945z"/>
		<path fill="#A3A3A3" d="M146.99609,258.47852l-1.55664-0.69141l-0.89648,0.83594l-0.44922-0.2002l3.38477-3.08496l-0.0625,4.56055
			l-0.44922-0.19922L146.99609,258.47852z M147.00781,258.02344l0.03613-1.73535l-1.27441,1.18457L147.00781,258.02344z"/>
		<path fill="#A3A3A3" d="M150.13867,256.79883l-0.80273,3.07617l2.83008-1.95313l-0.80762,3.31836l2.64648-1.83105l0.4082,0.27441
			l-3.74707,2.55078l0.81641-3.3125l-2.83398,1.94922l1.08203-4.34766L150.13867,256.79883z"/>
		<path fill="#A3A3A3" d="M154.05566,264.87793l3.18066-2.70801l-0.46777,4.50391l2.36621-2.01465l0.28711,0.33887l-3.18945,2.71582
			l0.46875-4.50293l-2.35742,2.00586L154.05566,264.87793z"/>
		<path fill="#A3A3A3" d="M158.72754,267.44727c1.03418-0.59375,2.25684-0.22266,2.8291,0.77539
			c0.57227,0.99902,0.27539,2.23926-0.75977,2.83398c-1.0293,0.59082-2.25195,0.22852-2.82813-0.77539
			C157.39355,269.27832,157.69824,268.03809,158.72754,267.44727z M158.95508,267.84277
			c-0.79688,0.45605-1.07031,1.4502-0.62207,2.22949c0.44727,0.7793,1.44238,1.04492,2.2373,0.58789
			c0.7959-0.45605,1.06934-1.44824,0.62207-2.22852S159.75,267.38574,158.95508,267.84277z"/>
		<path fill="#A3A3A3" d="M163.3418,272.0166l-3.70215,1.52734l-0.1709-0.40918l3.70313-1.53027L163.3418,272.0166z"/>
		<path fill="#A3A3A3" d="M163.74316,275.68945c0.08887-0.08203,0.17676-0.20215,0.2207-0.30957
			c0.03613-0.0918,0.06934-0.25195,0.00488-0.4707c-0.11328-0.37793-0.42773-0.57324-0.7832-0.4668
			c-0.15039,0.04492-0.22461,0.11035-0.29102,0.24316c-0.08008,0.14844-0.10156,0.31055-0.12109,0.47363l-0.05176,0.41602
			c-0.03223,0.25293-0.07324,0.49023-0.18652,0.69824c-0.13672,0.25391-0.33594,0.40039-0.61328,0.4834
			c-0.70605,0.20898-1.33203-0.17383-1.53711-0.8623c-0.0752-0.25293-0.11719-0.58398,0.0625-0.9248
			c0.12695-0.24414,0.35742-0.4375,0.57227-0.55762l0.2373,0.37891c-0.19238,0.08789-0.33691,0.23145-0.41992,0.375
			c-0.11816,0.21582-0.10645,0.41895-0.04785,0.61426c0.1543,0.52246,0.60156,0.65918,0.98633,0.54492
			c0.17188-0.05176,0.30664-0.14844,0.3916-0.32324c0.07129-0.13965,0.0957-0.30957,0.12793-0.53809l0.05762-0.39258
			c0.02441-0.16895,0.04883-0.38379,0.16504-0.60547c0.11035-0.21484,0.25977-0.36426,0.54688-0.4502
			c0.5918-0.17676,1.12305,0.16016,1.30664,0.78027c0.07031,0.23535,0.08105,0.43945,0.01172,0.66602
			c-0.05762,0.18555-0.17383,0.36523-0.31445,0.5L163.74316,275.68945z"/>
		<path fill="#A3A3A3" d="M164.92969,279.69824l-0.26367-1.6123l-1.17383,0.19336l0.25684,1.5625l-0.41504,0.06836l-0.25586-1.56348
			l-1.53516,0.25098l0.26465,1.6123l-0.41504,0.06738l-0.33594-2.04883l3.95117-0.64844l0.33594,2.0498L164.92969,279.69824z"/>
	</g>
	<g>
		<circle fill="none" cx="135" cy="283.5" r="28.59473"/>
		<path fill="#A3A3A3" d="M105.7627,291.0625l0.39551,1.32324l1.13184-0.33887l-0.38086-1.27686l0.40234-0.12061l0.38184,1.27734
			l1.89746-0.56689l0.12695,0.42529l-3.83594,1.14648l-0.52148-1.74854L105.7627,291.0625z"/>
		<path fill="#A3A3A3" d="M104.9375,289.22217l3.9209-0.78662l0.08789,0.43555l-3.92188,0.78564L104.9375,289.22217z"/>
		<path fill="#A3A3A3" d="M104.5918,286.98828l3.55957-0.39941l-0.12305-1.09766l0.41699-0.04736l0.17285,1.53857l-3.97656,0.44775
			L104.5918,286.98828z"/>
		<path fill="#A3A3A3" d="M104.80762,283.59766l3.58398-0.03809l0.00391,0.44336l-3.58301,0.03809l0.00977,0.97266l-0.41992,0.00488
			l-0.02539-2.38965l0.4209-0.00439L104.80762,283.59766z"/>
		<path fill="#A3A3A3" d="M105.09766,279.20654l-0.16992,1.62109l1.17969,0.12354l0.16504-1.57227l0.41797,0.04346l-0.16504,1.57275
			l1.54395,0.16211l0.16895-1.62109l0.41699,0.04395l-0.21582,2.06152l-3.97559-0.41699l0.2168-2.06201L105.09766,279.20654z"/>
		<path fill="#A3A3A3" d="M105.11328,276.88672c0.06055-0.26318,0.16992-0.64941,0.43555-0.896
			c0.20605-0.19189,0.5498-0.3208,0.96387-0.22412c0.5957,0.13867,0.94141,0.63135,0.8457,1.23047l2.02734-0.83105l-0.12305,0.52441
			l-1.98047,0.78809l-0.02539,0.11084l1.7041,0.39746l-0.10059,0.43213l-3.89258-0.90771L105.11328,276.88672z M106.87207,277.49902
			l0.06348-0.27393c0.12598-0.53613-0.05664-0.91797-0.51172-1.02393c-0.21582-0.0498-0.44727-0.03613-0.64453,0.17578
			c-0.13965,0.15234-0.19727,0.34766-0.24121,0.53467l-0.06152,0.26318L106.87207,277.49902z"/>
		<path fill="#A3A3A3" d="M107.06055,271.97852l-0.56543,1.53467l1.11816,0.41064l0.54688-1.48926l0.39551,0.14551l-0.54883,1.48926
			l1.46094,0.5376l0.56543-1.53467l0.39453,0.146l-0.71777,1.95166l-3.7627-1.38525l0.71875-1.95117L107.06055,271.97852z"/>
		<path fill="#A3A3A3" d="M107.35156,270.29004l0.38281-0.71973c0.18945-0.35449,0.49414-0.83691,1.10645-1.08203
			c0.44141-0.17822,1.04102-0.21875,1.67578,0.11816c0.74023,0.39453,0.94336,0.97168,1.02441,1.34082
			c0.10352,0.46973,0.05566,0.87842-0.2793,1.50781l-0.38086,0.71436L107.35156,270.29004z M110.71973,271.58057l0.18164-0.34375
			c0.15039-0.28027,0.32422-0.68359,0.22168-1.1792c-0.08105-0.38379-0.31836-0.78076-0.82129-1.04883
			c-0.8457-0.45068-1.71191-0.15137-2.18848,0.74316l-0.18262,0.34375L110.71973,271.58057z"/>
		<path fill="#A3A3A3" d="M113.95313,267.10107l-3.11719-2.76807l4.51563-0.16016l-2.31836-2.06055l0.29492-0.33203l3.125,2.77686
			l-4.51465,0.16113l2.30957,2.05225L113.95313,267.10107z"/>
		<path fill="#A3A3A3" d="M115.85156,262.12109c-0.73047-0.94434-0.53027-2.20459,0.38086-2.90918
			c0.91113-0.7041,2.18164-0.58008,2.91113,0.36426c0.72656,0.93896,0.53516,2.20117-0.38086,2.90918
			C117.84766,263.19336,116.57715,263.06055,115.85156,262.12109z M116.21191,261.84229
			c0.56055,0.72559,1.58203,0.86084,2.29492,0.31104c0.71094-0.5498,0.83789-1.57324,0.27734-2.29883
			c-0.56152-0.72559-1.58398-0.86084-2.29492-0.31055C115.77734,260.09375,115.65137,261.11719,116.21191,261.84229z"/>
		<path fill="#A3A3A3" d="M119.75684,256.93945l2.0127,3.45459l-0.38379,0.22266l-2.0127-3.45361L119.75684,256.93945z"/>
		<path fill="#A3A3A3" d="M123.33203,256.0332c-0.09375-0.07617-0.22559-0.14844-0.33691-0.17676
			c-0.09668-0.02295-0.25977-0.03467-0.4668,0.05957c-0.36133,0.16406-0.51172,0.50195-0.3584,0.84082
			c0.06445,0.14258,0.13965,0.20703,0.28027,0.25586c0.15918,0.05957,0.32324,0.05859,0.4873,0.05615l0.41895-0.00537
			c0.25586-0.00293,0.49805,0.00537,0.71973,0.08984c0.27051,0.10156,0.44336,0.28076,0.5625,0.54297
			c0.30566,0.67285,0.00977,1.34668-0.64648,1.64355c-0.24121,0.10938-0.56445,0.19678-0.92676,0.06348
			c-0.25977-0.09277-0.4834-0.29492-0.63184-0.4917l0.34473-0.28711c0.11328,0.17871,0.27539,0.30322,0.42871,0.36523
			c0.23047,0.0874,0.43066,0.04932,0.61621-0.03467c0.49805-0.22607,0.57324-0.6875,0.40723-1.05371
			c-0.0752-0.16504-0.18848-0.28418-0.37402-0.34473c-0.14844-0.05273-0.32031-0.05371-0.55176-0.05469l-0.39746-0.00391
			c-0.17188-0.00195-0.38672,0.00391-0.62305-0.08008c-0.22754-0.08203-0.39844-0.20996-0.52148-0.4834
			c-0.25488-0.56348,0.00586-1.13672,0.59668-1.40332c0.22461-0.10205,0.4248-0.13965,0.66016-0.10156
			c0.19238,0.03223,0.38477,0.12305,0.53906,0.24414L123.33203,256.0332z"/>
		<path fill="#A3A3A3" d="M127.13086,254.31445l-1.55566,0.48633l0.35352,1.1333l1.51172-0.47217l0.125,0.40039l-1.51172,0.47168
			l0.46289,1.48291l1.55762-0.48633l0.125,0.3999l-1.98047,0.61865l-1.19238-3.81689l1.97949-0.61865L127.13086,254.31445z"/>
	</g>
	<g>
		<circle fill="none" cx="183.01788" cy="44.24549" r="14.57799"/>
		
			<path fill="#A3A3A3" stroke="#A3A3A3" stroke-width="0.25" stroke-linecap="round" stroke-linejoin="round" stroke-miterlimit="10" d="
			M166.24805,35.74022l3.34863,1.72266l0.53027-1.03223l0.39258,0.20215l-0.74414,1.44727l-3.74121-1.92383L166.24805,35.74022z"/>
		
			<path fill="#A3A3A3" stroke="#A3A3A3" stroke-width="0.25" stroke-linecap="round" stroke-linejoin="round" stroke-miterlimit="10" d="
			M169.2168,32.07812l-1.04492,1.35742l0.98828,0.76074l1.01367-1.31641l0.34863,0.26953l-1.01465,1.31641l1.29199,0.99512
			l1.0459-1.35645l0.34961,0.26855l-1.33008,1.72559l-3.32715-2.5625l1.3291-1.72656L169.2168,32.07812z"/>
		
			<path fill="#A3A3A3" stroke="#A3A3A3" stroke-width="0.25" stroke-linecap="round" stroke-linejoin="round" stroke-miterlimit="10" d="
			M170.10156,30.52245l2.96387,1.70703l-1.1416-3.22363l0.39648-0.33105l1.54297,4.51465l-4.1582-2.33691L170.10156,30.52245z"/>
		
			<path fill="#A3A3A3" stroke="#A3A3A3" stroke-width="0.25" stroke-linecap="round" stroke-linejoin="round" stroke-miterlimit="10" d="
			M175.77051,27.31737l-1.52832,0.77832l0.56641,1.1123l1.4834-0.75488l0.2002,0.39258l-1.4834,0.75586l0.74023,1.45508
			l1.52832-0.77832l0.20117,0.39453l-1.94531,0.98926l-1.90625-3.74805l1.94336-0.98926L175.77051,27.31737z"/>
		
			<path fill="#A3A3A3" stroke="#A3A3A3" stroke-width="0.25" stroke-linecap="round" stroke-linejoin="round" stroke-miterlimit="10" d="
			M177.54785,26.24706l1.07031,3.60156l1.11035-0.33008l0.125,0.42285l-1.55664,0.46191l-1.19531-4.02441L177.54785,26.24706z"/>
		
			<path fill="#A3A3A3" stroke="#A3A3A3" stroke-width="0.25" stroke-linecap="round" stroke-linejoin="round" stroke-miterlimit="10" d="
			M182.82813,27.35644l1.97949,0.0918l-0.03027,0.66504l-1.97949-0.0918L182.82813,27.35644z"/>
		
			<path fill="#A3A3A3" stroke="#A3A3A3" stroke-width="0.25" stroke-linecap="round" stroke-linejoin="round" stroke-miterlimit="10" d="
			M190.83496,29.46483l1.5625,0.79395l-0.0459,0.08984c-0.21094,0.41602-0.5625,0.80273-0.96094,1.00391
			c-0.19043,0.09473-0.87695,0.4043-1.7373-0.0332c-1.11328-0.56543-1.51465-1.83594-0.96094-2.92676
			s1.82324-1.51465,2.94043-0.94629c0.36035,0.18262,0.73633,0.48633,0.95898,0.95313
			c0.10352,0.21387,0.17578,0.46289,0.20801,0.66406l-0.45215,0.12402c-0.03027-0.20703-0.08398-0.4043-0.15723-0.56738
			c-0.10547-0.23828-0.30176-0.5498-0.75098-0.77734c-0.9043-0.45996-1.88086-0.09961-2.32227,0.77148
			c-0.51953,1.02441,0.0332,1.95508,0.74219,2.31445c0.5,0.25391,1.06055,0.2207,1.46582-0.04688
			c0.12793-0.08398,0.29199-0.22852,0.42285-0.45801l-1.11328-0.56445L190.83496,29.46483z"/>
		
			<path fill="#A3A3A3" stroke="#A3A3A3" stroke-width="0.25" stroke-linecap="round" stroke-linejoin="round" stroke-miterlimit="10" d="
			M194.4873,33.3662l-1.30176-1.22754l-1.17969,0.51758l-0.375-0.35449l4.42773-1.87891l-1.65039,4.49707l-0.37598-0.35449
			L194.4873,33.3662z M194.65625,32.92089l0.64063-1.70898l-1.67676,0.73145L194.65625,32.92089z"/>
		
			<path fill="#A3A3A3" stroke="#A3A3A3" stroke-width="0.25" stroke-linecap="round" stroke-linejoin="round" stroke-miterlimit="10" d="
			M198.21289,33.93944l-3.08789,2.14941l-0.26758-0.38281l3.08887-2.15039l-0.58301-0.83691l0.36133-0.25293l1.43359,2.05859
			l-0.3623,0.25195L198.21289,33.93944z"/>
		
			<path fill="#A3A3A3" stroke="#A3A3A3" stroke-width="0.25" stroke-linecap="round" stroke-linejoin="round" stroke-miterlimit="10" d="
			M200.29883,37.96581l-0.68555-1.57031l-1.14258,0.5l0.66602,1.52246l-0.4043,0.17676l-0.66504-1.52344l-1.49512,0.65234
			l0.68555,1.57031l-0.4043,0.17578l-0.87109-1.99707l3.84961-1.68066l0.87109,1.99707L200.29883,37.96581z"/>
	</g>
	<g>
		<circle fill="none" cx="183.01788" cy="44.24549" r="13.74777"/>
		
			<path fill="#A3A3A3" stroke="#A3A3A3" stroke-width="0.25" stroke-linecap="round" stroke-linejoin="round" stroke-miterlimit="10" d="
			M175.6582,57.02538l-2.03613,3.40332l-0.37793-0.22607l2.03613-3.40381L175.6582,57.02538z"/>
		
			<path fill="#A3A3A3" stroke="#A3A3A3" stroke-width="0.25" stroke-linecap="round" stroke-linejoin="round" stroke-miterlimit="10" d="
			M175.52734,61.49022l1.29004-3.92285l1.92285,4.04102l0.95898-2.91748l0.41797,0.13721l-1.29297,3.93311l-1.92383-4.04004
			l-0.95508,2.90527L175.52734,61.49022z"/>
		
			<path fill="#A3A3A3" stroke="#A3A3A3" stroke-width="0.25" stroke-linecap="round" stroke-linejoin="round" stroke-miterlimit="10" d="
			M182.10938,58.97216c0.39844,0.02051,0.72852,0.08545,0.98242,0.33105c0.27832,0.26514,0.33105,0.61963,0.31836,0.86865
			c-0.0293,0.55859-0.41016,1.09229-1.3125,1.04541l-0.38574-0.021l-0.09082,1.72168l-0.43945-0.02295l0.20898-3.96143
			L182.10938,58.97216z M181.73438,60.78026l0.36133,0.01904c0.52344,0.02734,0.85156-0.21631,0.87598-0.6748
			c0.0332-0.62891-0.55176-0.71973-0.83691-0.73486l-0.32617-0.0166L181.73438,60.78026z"/>
		
			<path fill="#A3A3A3" stroke="#A3A3A3" stroke-width="0.25" stroke-linecap="round" stroke-linejoin="round" stroke-miterlimit="10" d="
			M185.21094,61.31835c0.06055,0.32715,0.12695,0.68359,0.48633,0.89063c0.18164,0.104,0.46777,0.14258,0.68359,0.10205
			c0.2168-0.04004,0.46875-0.17822,0.60156-0.34229c0.26172-0.32031,0.19531-0.67676,0.13477-1.00488l-0.44531-2.39209
			l0.43359-0.08057l0.46582,2.50977c0.06152,0.32666,0.08496,0.64941-0.07129,0.98145
			c-0.17383,0.36523-0.5459,0.64648-1.04297,0.7373c-0.49609,0.09229-0.94434-0.03564-1.23828-0.31396
			c-0.26465-0.25391-0.3584-0.5625-0.41895-0.88965l-0.4668-2.50977l0.43262-0.08057L185.21094,61.31835z"/>
		
			<path fill="#A3A3A3" stroke="#A3A3A3" stroke-width="0.25" stroke-linecap="round" stroke-linejoin="round" stroke-miterlimit="10" d="
			M189.36719,58.03417l1.43945,3.24072l-0.40039,0.1792l-1.44141-3.24023l-0.87891,0.38965l-0.16992-0.37891l2.16016-0.96094
			l0.16992,0.37988L189.36719,58.03417z"/>
	</g>
	<g>
		<circle fill="none" cx="134.71875" cy="43.99999" r="14.57799"/>
		
			<path fill="#A3A3A3" stroke="#A3A3A3" stroke-width="0.25" stroke-linecap="round" stroke-linejoin="round" stroke-miterlimit="10" d="
			M116.39258,44.84667l3.75586-0.23291l0.0293,0.46484l-3.75586,0.23389l0.0625,1.01855l-0.43945,0.02734l-0.15625-2.50439
			l0.44141-0.02734L116.39258,44.84667z"/>
		
			<path fill="#A3A3A3" stroke="#A3A3A3" stroke-width="0.25" stroke-linecap="round" stroke-linejoin="round" stroke-miterlimit="10" d="
			M116.06934,41.71532c0.03906-0.27979,0.11621-0.69482,0.37207-0.97656c0.19531-0.2207,0.54297-0.38818,0.98535-0.32617
			c0.63574,0.08789,1.04492,0.5708,1.00098,1.20654l2.04102-1.06201l-0.07813,0.56152l-1.99609,1.01074l-0.01758,0.11865
			l1.82031,0.25391l-0.06445,0.46143l-4.15625-0.58057L116.06934,41.71532z M117.9668,42.18993l0.04102-0.29248
			c0.08008-0.57373-0.14648-0.95361-0.63281-1.02295c-0.23047-0.03223-0.4707,0.00439-0.65723,0.24561
			c-0.13184,0.17188-0.17285,0.38184-0.20215,0.58105l-0.03906,0.28125L117.9668,42.18993z"/>
		
			<path fill="#A3A3A3" stroke="#A3A3A3" stroke-width="0.25" stroke-linecap="round" stroke-linejoin="round" stroke-miterlimit="10" d="
			M116.86328,38.11669l4.01074,1.25732l-0.13965,0.44482l-4.01074-1.2583L116.86328,38.11669z"/>
		
			<path fill="#A3A3A3" stroke="#A3A3A3" stroke-width="0.25" stroke-linecap="round" stroke-linejoin="round" stroke-miterlimit="10" d="
			M120.38672,35.41112l0.86914-1.51855l0.08594,0.0498c0.4043,0.23145,0.77344,0.60205,0.95313,1.00977
			c0.08398,0.19336,0.35938,0.89453-0.12012,1.73096c-0.62012,1.08057-1.90723,1.41699-2.9668,0.80908
			c-1.05957-0.60596-1.41895-1.89258-0.7959-2.979c0.2002-0.3501,0.52246-0.70947,0.99902-0.90771
			c0.21973-0.0918,0.46973-0.15088,0.67285-0.17334l0.09961,0.45654c-0.20605,0.02002-0.40625,0.06445-0.57422,0.12842
			c-0.24121,0.09375-0.56055,0.27295-0.8125,0.70947c-0.50293,0.87988-0.19141,1.86914,0.6543,2.35498
			c0.99414,0.56836,1.95117,0.06494,2.34473-0.62354c0.27832-0.48633,0.27246-1.04785,0.02637-1.46533
			c-0.07813-0.12988-0.21094-0.30225-0.43457-0.44336l-0.62012,1.08057L120.38672,35.41112z"/>
		
			<path fill="#A3A3A3" stroke="#A3A3A3" stroke-width="0.25" stroke-linecap="round" stroke-linejoin="round" stroke-miterlimit="10" d="
			M123.74023,31.39257l1.29688-1.17529l0.06641,0.07471c0.31348,0.34375,0.54883,0.81055,0.5957,1.25342
			c0.02051,0.20947,0.06445,0.96045-0.64844,1.6084c-0.92188,0.83691-2.25,0.75977-3.07031-0.14307
			c-0.82227-0.9043-0.7666-2.23828,0.16016-3.07959c0.29883-0.271,0.71484-0.51367,1.23047-0.55615
			c0.23633-0.01953,0.49414,0.00195,0.69238,0.0415l-0.04492,0.46631c-0.20215-0.04541-0.40723-0.06396-0.58496-0.05469
			c-0.25977,0.01367-0.61914,0.08594-0.99219,0.42432c-0.75,0.68066-0.75977,1.71924-0.10352,2.44092
			c0.77051,0.84766,1.83496,0.66211,2.42188,0.12939c0.41406-0.37646,0.58203-0.91113,0.47656-1.38525
			c-0.0332-0.14746-0.1084-0.35156-0.27637-0.55566l-0.92285,0.8374L123.74023,31.39257z"/>
		
			<path fill="#A3A3A3" stroke="#A3A3A3" stroke-width="0.25" stroke-linecap="round" stroke-linejoin="round" stroke-miterlimit="10" d="
			M127.39063,27.10546l-1.52344,0.78613l0.57128,1.1084l1.47949-0.76221l0.20117,0.3916l-1.47852,0.76367l0.74805,1.4502
			l1.52345-0.78662l0.20215,0.39258l-1.9375,1L125.25,27.71239l1.9375-0.99854L127.39063,27.10546z"/>
		
			<path fill="#A3A3A3" stroke="#A3A3A3" stroke-width="0.25" stroke-linecap="round" stroke-linejoin="round" stroke-miterlimit="10" d="
			M129.46094,25.93505c0.27344-0.07471,0.68555-0.1665,1.04492-0.04102c0.2793,0.09277,0.57031,0.34717,0.6875,0.77783
			c0.16602,0.62012-0.11719,1.18604-0.71875,1.39453l1.77734,1.46289l-0.54688,0.14746l-1.71289-1.44092l-0.11523,0.03174
			l0.47852,1.77441l-0.44922,0.12158l-1.0957-4.05322L129.46094,25.93505z M129.76758,27.86522l0.28516-0.07568
			c0.55957-0.15137,0.82227-0.50977,0.69336-0.9834c-0.06055-0.2251-0.1875-0.43164-0.48242-0.5083
			c-0.21094-0.05469-0.41992-0.01123-0.61523,0.04199l-0.27344,0.07373L129.76758,27.86522z"/>
		
			<path fill="#A3A3A3" stroke="#A3A3A3" stroke-width="0.25" stroke-linecap="round" stroke-linejoin="round" stroke-miterlimit="10" d="
			M135.40039,27.12206l1.9707,0.19434l-0.06445,0.66357l-1.97168-0.19482L135.40039,27.12206z"/>
		
			<path fill="#A3A3A3" stroke="#A3A3A3" stroke-width="0.25" stroke-linecap="round" stroke-linejoin="round" stroke-miterlimit="10" d="
			M143.32031,29.65966l1.51953,0.87305l-0.05078,0.08789c-0.23242,0.40479-0.60352,0.77246-1.01172,0.95264
			c-0.19531,0.08447-0.89648,0.35645-1.73242-0.12402c-1.08203-0.62207-1.41602-1.9126-0.80664-2.97266
			s1.89844-1.41602,2.98633-0.79199c0.34961,0.20215,0.70898,0.52539,0.90625,1.00195
			c0.0918,0.22021,0.15039,0.47217,0.17188,0.6748l-0.45703,0.09961c-0.01953-0.20703-0.06445-0.40771-0.12695-0.57422
			c-0.09375-0.24316-0.27246-0.56396-0.70898-0.81543c-0.88086-0.50684-1.87305-0.19775-2.35938,0.64941
			c-0.57227,0.99463-0.06836,1.95264,0.61914,2.34863c0.48633,0.27979,1.04883,0.27588,1.4668,0.02979
			c0.13184-0.07715,0.30273-0.21191,0.44531-0.43457l-1.08008-0.62207L143.32031,29.65966z"/>
		
			<path fill="#A3A3A3" stroke="#A3A3A3" stroke-width="0.25" stroke-linecap="round" stroke-linejoin="round" stroke-miterlimit="10" d="
			M147.74609,30.43651c0.20117,0.19971,0.48633,0.51172,0.55859,0.88525c0.05762,0.29004-0.01758,0.66943-0.33398,0.98633
			c-0.45508,0.4541-1.08789,0.49023-1.56836,0.07129l-0.38281,2.27344l-0.40137-0.40137l0.39551-2.20654l-0.08398-0.08398
			l-1.30078,1.30176l-0.33008-0.32959l2.9707-2.97412L147.74609,30.43651z M146.22266,31.66698l0.20996,0.20898
			c0.41016,0.40918,0.85059,0.45898,1.19922,0.11084c0.16504-0.16455,0.28027-0.37939,0.2002-0.67334
			c-0.05859-0.20947-0.20117-0.36914-0.34375-0.51172l-0.20117-0.20068L146.22266,31.66698z"/>
		
			<path fill="#A3A3A3" stroke="#A3A3A3" stroke-width="0.25" stroke-linecap="round" stroke-linejoin="round" stroke-miterlimit="10" d="
			M148.65527,36.54247l-0.93262-1.52832l-1.27441,0.18604l-0.26855-0.44141l4.76953-0.64209l-2.78027,3.90479l-0.26855-0.44092
			L148.65527,36.54247z M148.9375,36.15673l1.06934-1.47949l-1.81152,0.26367L148.9375,36.15673z"/>
		
			<path fill="#A3A3A3" stroke="#A3A3A3" stroke-width="0.25" stroke-linecap="round" stroke-linejoin="round" stroke-miterlimit="10" d="
			M152.39746,37.62499l-3.94043,1.46387l-0.16211-0.43652l3.93945-1.46484L152.39746,37.62499z"/>
		
			<path fill="#A3A3A3" stroke="#A3A3A3" stroke-width="0.25" stroke-linecap="round" stroke-linejoin="round" stroke-miterlimit="10" d="
			M148.88867,40.06981l4.33203-0.6084l-2.94141,3.71924l3.22266-0.45313l0.06445,0.46143l-4.3457,0.61035l2.94336-3.71924
			l-3.21094,0.45068L148.88867,40.06981z"/>
		
			<path fill="#A3A3A3" stroke="#A3A3A3" stroke-width="0.25" stroke-linecap="round" stroke-linejoin="round" stroke-miterlimit="10" d="
			M152.42773,47.03075c0.11914-0.04053,0.25586-0.11914,0.34375-0.20361c0.07227-0.07324,0.17285-0.21289,0.20313-0.45068
			c0.05176-0.41357-0.16797-0.73291-0.55566-0.78223c-0.16309-0.02051-0.2627,0.01074-0.38281,0.11084
			c-0.1416,0.1084-0.22949,0.25684-0.31836,0.4043l-0.22559,0.37842c-0.1377,0.23047-0.27832,0.44043-0.47656,0.59424
			c-0.23828,0.18506-0.49414,0.24219-0.79492,0.20459c-0.76953-0.09814-1.20898-0.73193-1.11523-1.48291
			c0.03516-0.27539,0.13477-0.61279,0.45313-0.86475c0.22656-0.18066,0.53027-0.26904,0.78711-0.29395l0.06836,0.46631
			c-0.22266,0.00342-0.42383,0.07959-0.56348,0.18311c-0.2041,0.15771-0.28027,0.35889-0.30762,0.5708
			c-0.07227,0.56982,0.30078,0.89014,0.71973,0.94336c0.1875,0.02393,0.35742-0.01221,0.51465-0.14551
			c0.12695-0.10352,0.22266-0.25781,0.35156-0.46338l0.22168-0.354c0.09668-0.15186,0.20996-0.34766,0.41504-0.5127
			c0.19727-0.15869,0.40527-0.24072,0.71875-0.20068c0.64355,0.08105,1.01367,0.63037,0.92773,1.30518
			c-0.0332,0.25635-0.10938,0.45801-0.27344,0.646c-0.13379,0.15527-0.32031,0.27686-0.51367,0.34863L152.42773,47.03075z"/>
	</g>
	<g>
		<g>
			
				<path fill="#A3A3A3" stroke="#A3A3A3" stroke-width="0.25" stroke-linecap="round" stroke-linejoin="round" stroke-miterlimit="10" d="
				M127.11914,56.91308l-2.23633,3.55322l-0.39453-0.24756l2.2373-3.55371L127.11914,56.91308z"/>
			
				<path fill="#A3A3A3" stroke="#A3A3A3" stroke-width="0.25" stroke-linecap="round" stroke-linejoin="round" stroke-miterlimit="10" d="
				M126.86719,61.62694l1.41992-4.14551l1.98828,4.3125l1.05664-3.08301l0.44141,0.15088l-1.42383,4.15869l-1.98828-4.31348
				l-1.05273,3.07178L126.86719,61.62694z"/>
			
				<path fill="#A3A3A3" stroke="#A3A3A3" stroke-width="0.25" stroke-linecap="round" stroke-linejoin="round" stroke-miterlimit="10" d="
				M133.84766,59.02782c0.42188,0.02393,0.77148,0.09277,1.04102,0.354c0.29395,0.28076,0.34961,0.65674,0.33398,0.92139
				c-0.03125,0.59131-0.43555,1.15527-1.39258,1.104l-0.4082-0.02246l-0.10059,1.82471l-0.46582-0.02588l0.23047-4.19824
				L133.84766,59.02782z M133.44531,60.94384l0.38477,0.021c0.55371,0.02979,0.90234-0.22852,0.92871-0.71289
				c0.03711-0.66748-0.58301-0.76416-0.88477-0.78076l-0.34668-0.01904L133.44531,60.94384z"/>
			
				<path fill="#A3A3A3" stroke="#A3A3A3" stroke-width="0.25" stroke-linecap="round" stroke-linejoin="round" stroke-miterlimit="10" d="
				M137.1543,61.50683c0.06836,0.34668,0.14258,0.72363,0.52344,0.93799c0.19434,0.10791,0.49609,0.146,0.72461,0.10059
				c0.22949-0.04443,0.49609-0.19238,0.63379-0.36768c0.27246-0.34131,0.19922-0.71777,0.13184-1.06396l-0.49414-2.52539
				l0.45703-0.08936l0.51855,2.64893c0.06738,0.34619,0.0957,0.68652-0.06641,1.03857
				c-0.18066,0.38867-0.57129,0.68896-1.0957,0.7915c-0.52441,0.10205-0.99902-0.02881-1.3125-0.3208
				c-0.28223-0.26465-0.38574-0.59131-0.45215-0.93652l-0.51758-2.64941l0.45605-0.08936L137.1543,61.50683z"/>
			
				<path fill="#A3A3A3" stroke="#A3A3A3" stroke-width="0.25" stroke-linecap="round" stroke-linejoin="round" stroke-miterlimit="10" d="
				M141.47949,57.96435l1.60059,3.40088l-0.4209,0.19873l-1.60059-3.3999l-0.92383,0.43408l-0.1875-0.39893l2.26758-1.06738
				l0.1875,0.39893L141.47949,57.96435z"/>
		</g>
	</g>
	<g>
		<circle id="circle8474_3_" fill="#A3A3A3" cx="108.00267" cy="158.76486" r="0.33984"/>
		<circle id="circle8476_3_" fill="#A3A3A3" cx="109.90251" cy="160.08487" r="0.33984"/>
		<circle id="circle8478_3_" fill="#A3A3A3" cx="106.33803" cy="159.5751" r="0.33984"/>
		<circle id="circle8480_3_" fill="#A3A3A3" cx="110.99883" cy="160.8231" r="0.33984"/>
		<circle id="circle8482_3_" fill="#A3A3A3" cx="105.43372" cy="161.13606" r="0.33984"/>
		<circle id="circle8484_3_" fill="#A3A3A3" cx="106.42443" cy="162.57607" r="0.33984"/>
		<circle id="circle8486_3_" fill="#A3A3A3" cx="109.19212" cy="162.85352" r="0.31776"/>
		<circle id="circle8488_6_" fill="#A3A3A3" cx="106.867" cy="160.91815" r="0.44736"/>
		<circle id="circle8490_6_" fill="#A3A3A3" cx="108.29163" cy="160.02248" r="0.44736"/>
		<circle id="circle8492_3_" fill="#A3A3A3" cx="107.84427" cy="161.81383" r="0.44736"/>
		<circle id="circle8494_6_" fill="#A3A3A3" cx="108.99915" cy="161.36551" r="0.44736"/>
		<circle id="circle8496_3_" fill="#A3A3A3" cx="110.09932" cy="161.68518" r="0.44736"/>
	</g>
	<g>
		<circle id="circle8488_5_" fill="#A3A3A3" cx="57.42376" cy="161.69383" r="0.44736"/>
		<circle id="circle8490_5_" fill="#A3A3A3" cx="58.8484" cy="160.79816" r="0.44736"/>
		<circle id="circle8494_5_" fill="#A3A3A3" cx="59.55592" cy="162.14119" r="0.44736"/>
	</g>
	<path fill="#A3A3A3" d="M135.05608,93.93068c-12.46297,0-22.56633,10.10271-22.56633,22.56504
		c0,12.46235,10.10336,22.5657,22.56633,22.5657c12.46039,0,22.56375-10.10336,22.56375-22.5657
		S147.51646,93.93068,135.05608,93.93068z M133.92026,103.93637c0.99611,0,1.80075,0.80594,1.80075,1.80076
		c0,0.99481-0.80464,1.80075-1.80075,1.80075c-0.99352,0-1.80075-0.80594-1.80075-1.80075
		C132.11951,104.74231,132.92674,103.93637,133.92026,103.93637z M120.30853,120.1024c-0.99352,0-1.80075-0.80659-1.80075-1.80075
		c0-0.99417,0.80724-1.80076,1.80075-1.80076c0.99352,0,1.80075,0.80659,1.80075,1.80076
		C122.10928,119.29581,121.30206,120.1024,120.30853,120.1024z M125.10019,108.22998c0.99352,0,1.80076,0.80594,1.80076,1.80075
		c0,0.99416-0.80724,1.80075-1.80076,1.80075c-0.99352,0-1.80075-0.80659-1.80075-1.80075
		C123.29944,109.03592,124.10667,108.22998,125.10019,108.22998z M125.55814,127.73296c-0.99611,0-1.80075-0.80659-1.80075-1.80075
		c0-0.99481,0.80464-1.80076,1.80075-1.80076c0.99352,0,1.80075,0.80595,1.80075,1.80076
		C127.35889,126.92637,126.55166,127.73296,125.55814,127.73296z M127.90223,119.51703c-1.30917,0-2.36996-1.06079-2.36996-2.36996
		c0-1.30917,1.06078-2.37061,2.36996-2.37061c1.30917,0,2.37254,1.06143,2.37254,2.37061
		C130.27477,118.45625,129.2114,119.51703,127.90223,119.51703z M133.08199,124.2634c-1.30917,0-2.37254-1.06143-2.37254-2.3706
		c0-1.30917,1.06337-2.37061,2.37254-2.37061c1.30916,0,2.36995,1.06143,2.36995,2.37061
		C135.45193,123.20197,134.39114,124.2634,133.08199,124.2634z M133.08199,112.4007c0-1.30917,1.06078-2.36996,2.36995-2.36996
		s2.36996,1.06079,2.36996,2.36996s-1.06079,2.37061-2.36996,2.37061S133.08199,113.70985,133.08199,112.4007z M136.83096,119.51703
		c0-1.30917,1.06079-2.36996,2.36995-2.36996c1.30917,0,2.36996,1.06078,2.36996,2.36996s-1.06079,2.37125-2.36996,2.37125
		C137.89175,121.88828,136.83096,120.82619,136.83096,119.51703z M140.2229,129.08612c-0.92883,0-1.68433-0.7542-1.68433-1.68433
		c0-0.93013,0.75549-1.68368,1.68433-1.68368c0.93143,0,1.68433,0.75355,1.68433,1.68368
		C141.90723,128.33192,141.15433,129.08612,140.2229,129.08612z M143.9874,110.9311c0.99353,0,1.80077,0.80594,1.80077,1.80076
		c0,0.99416-0.80724,1.80075-1.80077,1.80075c-0.99352,0-1.80075-0.80659-1.80075-1.80075
		C142.18665,111.73705,142.99388,110.9311,143.9874,110.9311z M145.03008,123.58167c-1.30916,0-2.36995-1.06079-2.36995-2.36996
		s1.06079-2.37125,2.36995-2.37125c1.30917,0,2.36996,1.06208,2.36996,2.37125S146.33925,123.58167,145.03008,123.58167z
		 M149.79587,118.44394c-0.99352,0-1.80075-0.80594-1.80075-1.8001c0-0.99481,0.80724-1.80076,1.80075-1.80076
		c0.99611,0,1.80075,0.80595,1.80075,1.80076C151.59662,117.63802,150.79198,118.44394,149.79587,118.44394z"/>
	<g>
		<circle fill="#262424" stroke="#606266" stroke-width="0.5" stroke-miterlimit="10" cx="135" cy="198.5" r="34.93385"/>
		
			<line fill="none" stroke="#606266" stroke-width="0.75" stroke-miterlimit="10" x1="135" y1="198.5" x2="110.59309" y2="222.90691"/>
		
			<line fill="none" stroke="#606266" stroke-width="0.75" stroke-miterlimit="10" x1="135" y1="198.5" x2="99.53027" y2="197.5625"/>
		
			<line fill="none" stroke="#606266" stroke-width="0.75" stroke-miterlimit="10" x1="135" y1="198.5" x2="159.70186" y2="223.20186"/>
		<circle fill="#262424" stroke="#606266" stroke-width="0.75" stroke-miterlimit="10" cx="135" cy="198.5" r="23.5"/>
	</g>
	<g>
		<circle fill="none" cx="135" cy="198.5" r="28.59473"/>
		
			<path fill="#A3A3A3" stroke="#A3A3A3" stroke-width="0.25" stroke-linecap="round" stroke-linejoin="round" stroke-miterlimit="10" d="
			M127.32617,223.24707c0.51367,0.15625,0.9248,0.34814,1.17871,0.75098c0.27832,0.43506,0.2334,0.91602,0.13574,1.2373
			c-0.21875,0.7207-0.88672,1.2959-2.05078,0.94287l-0.49805-0.15039l-0.67383,2.22119l-0.56641-0.17139l1.54785-5.11133
			L127.32617,223.24707z M126.25391,225.49072l0.4668,0.14209c0.6748,0.20459,1.18359-0.01025,1.36133-0.6001
			c0.24609-0.81201-0.48828-1.11816-0.85645-1.22998l-0.4209-0.12695L126.25391,225.49072z"/>
		
			<path fill="#A3A3A3" stroke="#A3A3A3" stroke-width="0.25" stroke-linecap="round" stroke-linejoin="round" stroke-miterlimit="10" d="
			M130.42871,224.00977l-1,5.23877l-0.58105-0.11035l1-5.23975L130.42871,224.00977z"/>
		
			<path fill="#A3A3A3" stroke="#A3A3A3" stroke-width="0.25" stroke-linecap="round" stroke-linejoin="round" stroke-miterlimit="10" d="
			M132.9541,224.88818l-0.40918,4.75684l-0.58984-0.05078l0.40918-4.75684l-1.29102-0.11182l0.04785-0.55811l3.17188,0.27344
			l-0.04688,0.55811L132.9541,224.88818z"/>
		
			<path fill="#A3A3A3" stroke="#A3A3A3" stroke-width="0.25" stroke-linecap="round" stroke-linejoin="round" stroke-miterlimit="10" d="
			M138.77539,225.39746c-0.17773-0.15771-0.44531-0.34229-0.72461-0.45361c-0.28711-0.11084-0.61914-0.16992-0.93066-0.15088
			c-1.22949,0.07275-2.0791,1.11865-2.00488,2.34717c0.08789,1.44434,1.30566,2.10059,2.2793,2.04102
			c0.3584-0.02246,0.70313-0.14648,0.97461-0.30762c0.29395-0.16992,0.49707-0.38281,0.58789-0.48438l0.04395,0.73438
			c-0.56543,0.4585-1.17383,0.59229-1.57324,0.61621c-1.58008,0.09619-2.82617-1.03027-2.91895-2.5708
			c-0.09668-1.58789,1.02051-2.84082,2.61719-2.93799c0.31934-0.01904,0.93652-0.01709,1.60449,0.43164L138.77539,225.39746z"/>
		
			<path fill="#A3A3A3" stroke="#A3A3A3" stroke-width="0.25" stroke-linecap="round" stroke-linejoin="round" stroke-miterlimit="10" d="
			M140.58789,226.03711l2.65137-0.67041l-0.53223-2.10156l0.57422-0.14453l1.30859,5.17139l-0.57422,0.14453l-0.63867-2.52637
			l-2.65234,0.66992l0.64063,2.52783l-0.57422,0.14551l-1.30859-5.17139l0.57227-0.14551L140.58789,226.03711z"/>
	</g>
	<g>
		<circle fill="none" cx="135.25" cy="198.37961" r="28.59473"/>
		<path fill="#A3A3A3" d="M105.81055,189.98438c0.07617-0.25879,0.20898-0.63867,0.49023-0.86816
			c0.2168-0.17871,0.56836-0.28711,0.97656-0.16406c0.58789,0.17578,0.90234,0.69043,0.76953,1.2832l2.07813-0.70508
			l-0.15625,0.5166l-2.02734,0.66406l-0.0332,0.1084l1.67773,0.50391l-0.12695,0.4248l-3.83398-1.14844L105.81055,189.98438z
			 M107.5293,190.70605l0.08008-0.26953c0.1582-0.5293,0-0.9209-0.44727-1.05566c-0.21289-0.06348-0.44531-0.06543-0.6543,0.13574
			c-0.15039,0.14355-0.2207,0.33496-0.27539,0.51855l-0.07617,0.25879L107.5293,190.70605z"/>
		<path fill="#A3A3A3" d="M110.36914,186.09961l-0.70703,1.54883l0.82617,0.90527l-0.20313,0.44727l-3.04883-3.41602
			l4.55664,0.11035l-0.20313,0.44727L110.36914,186.09961z M109.91602,186.08398l-1.73633-0.05469l1.17383,1.28711
			L109.91602,186.08398z"/>
		<path fill="#A3A3A3" d="M112.20313,184.96973l-3.45508-2.33203l4.45508-0.75586l-2.57031-1.73438l0.24805-0.36816l3.46484,2.33789
			l-4.45508,0.75684l2.56055,1.72656L112.20313,184.96973z"/>
		<path fill="#A3A3A3" d="M112.16211,178.25488l0.5625-0.58887c0.2793-0.29102,0.70313-0.67285,1.35742-0.74219
			c0.47461-0.05273,1.0625,0.07031,1.58203,0.56836c0.60547,0.58008,0.64453,1.18945,0.62305,1.56641
			c-0.02734,0.48047-0.18555,0.86133-0.67773,1.37695l-0.56055,0.58398L112.16211,178.25488z M115.05273,180.40918l0.26953-0.28125
			c0.2207-0.23047,0.49609-0.57129,0.5332-1.07617c0.02344-0.38965-0.0957-0.83789-0.50586-1.23047
			c-0.69336-0.66406-1.60742-0.61035-2.30859,0.12207l-0.26953,0.28125L115.05273,180.40918z"/>
		<path fill="#A3A3A3" d="M116.55078,176.65137c-0.70898-0.95996-0.48047-2.2168,0.44531-2.90137
			c0.92773-0.68457,2.19531-0.53223,2.9043,0.42773c0.70703,0.95703,0.48828,2.21484-0.44531,2.90234
			C118.52344,177.76855,117.25586,177.6084,116.55078,176.65137z M116.91797,176.38086
			c0.54492,0.73828,1.56445,0.89648,2.28711,0.36133c0.72461-0.53516,0.875-1.55371,0.32813-2.29297
			c-0.54492-0.73828-1.5625-0.89648-2.28711-0.3623C116.52148,174.62207,116.37305,175.64258,116.91797,176.38086z"/>
		<path fill="#A3A3A3" d="M121.85352,175.32227l-1.20508-4.10254l2.83203,2.39551l-0.03125-3.72852l2.37305,3.55664
			l-0.41211,0.19531l-1.53125-2.35449l0.0293,3.25l-2.47656-2.09277l0.83398,2.68555L121.85352,175.32227z"/>
	</g>
	<g>
		<circle fill="none" cx="135.25" cy="198.37961" r="28.59473"/>
		<path fill="#A3A3A3" d="M108.47852,213.16406l-0.36133-0.73047c-0.17773-0.35986-0.39258-0.88916-0.23438-1.52832
			c0.11328-0.46338,0.42969-0.97363,1.07324-1.29248c0.75195-0.37158,1.33789-0.19922,1.68555-0.05029
			c0.44043,0.18945,0.74609,0.4668,1.06152,1.10645l0.3584,0.72461L108.47852,213.16406z M111.48926,211.18213l-0.17285-0.34912
			c-0.14063-0.28467-0.36719-0.66113-0.82813-0.8667c-0.35938-0.15723-0.82031-0.19727-1.33008,0.05566
			c-0.86035,0.42432-1.12207,1.30176-0.67285,2.20996l0.17285,0.34912L111.48926,211.18213z"/>
		<path fill="#A3A3A3" d="M106.29688,206.81738l0.51758,1.54688l1.125-0.375l-0.5-1.50195l0.39648-0.13281l0.50195,1.50195
			l1.47266-0.49121l-0.51563-1.54688l0.39648-0.13232l0.65723,1.9668l-3.79297,1.26465l-0.65527-1.9668L106.29688,206.81738z"/>
		<path fill="#A3A3A3" d="M105.69824,204.3042l3.50488-0.73633l0.09082,0.43408l-3.50391,0.73633l0.2002,0.95068l-0.41113,0.08643
			l-0.49121-2.33545l0.41016-0.08643L105.69824,204.3042z"/>
		<path fill="#A3A3A3" d="M108.36523,201.79932c-0.02051-0.16016,0.09766-0.31445,0.25781-0.33545
			c0.16113-0.02051,0.31641,0.09863,0.33691,0.25879c0.02051,0.16113-0.09863,0.31543-0.25879,0.33594
			C108.54004,202.07861,108.38574,201.95996,108.36523,201.79932z"/>
	</g>
	<g>
		<circle fill="none" cx="186.5" cy="145.44551" r="28.59473"/>
		<path fill="#A3A3A3" d="M195.96094,116.34423c0.25586,0.08691,0.63086,0.23242,0.84961,0.52051
			c0.17188,0.22363,0.26758,0.57813,0.13184,0.98047c-0.19531,0.58008-0.71973,0.87793-1.30664,0.72461l0.63477,2.09961
			l-0.51172-0.17188l-0.59473-2.04785l-0.1084-0.03613l-0.55859,1.65918l-0.4209-0.14258l1.27637-3.79004L195.96094,116.34423z
			 M195.18164,118.03759l0.26758,0.08984c0.52344,0.17676,0.91992,0.03223,1.06836-0.41211
			c0.07129-0.20996,0.08008-0.44141-0.11328-0.6582c-0.13867-0.1543-0.32813-0.23047-0.50977-0.29199l-0.25586-0.08594
			L195.18164,118.03759z"/>
		<path fill="#A3A3A3" d="M200.66406,118.75927l-1.4707-0.70801l-0.51367,1.07129l1.42578,0.68555l-0.18164,0.37891
			l-1.42676-0.68652l-0.67285,1.39941l1.46973,0.70801l-0.18164,0.37793l-1.87109-0.89844l1.7334-3.60645l1.87109,0.89941
			L200.66406,118.75927z"/>
		<path fill="#A3A3A3" d="M203.37402,120.84911c0.01465-0.12109,0.00293-0.27051-0.03223-0.37988
			c-0.0332-0.09277-0.11133-0.23828-0.30273-0.36133c-0.33301-0.21582-0.69824-0.16016-0.90137,0.15234
			c-0.08496,0.12988-0.09863,0.22852-0.06348,0.37402c0.03516,0.16602,0.125,0.30176,0.21484,0.43945l0.23047,0.35059
			c0.1416,0.21484,0.26367,0.42285,0.3125,0.65527c0.06055,0.28223,0.00391,0.52539-0.1543,0.76563
			c-0.40234,0.62012-1.12891,0.73535-1.7334,0.34277c-0.22168-0.14355-0.46973-0.37012-0.55371-0.74707
			c-0.06152-0.26758-0.01172-0.56641,0.07422-0.79688l0.42773,0.13477c-0.08984,0.19336-0.10645,0.39648-0.07617,0.55957
			c0.05078,0.24121,0.19141,0.38867,0.3623,0.50098c0.45801,0.29688,0.8877,0.11133,1.10645-0.22754
			c0.09863-0.15039,0.1377-0.31152,0.08984-0.5c-0.03711-0.15332-0.12891-0.29883-0.25293-0.49316l-0.20996-0.33887
			c-0.0918-0.14453-0.21289-0.32324-0.26855-0.56738c-0.05469-0.23633-0.03809-0.44727,0.12402-0.7002
			c0.33789-0.51758,0.96191-0.6084,1.50586-0.25391c0.20703,0.13477,0.3457,0.2832,0.44043,0.50195
			c0.07715,0.17871,0.10449,0.38965,0.08496,0.58496L203.37402,120.84911z"/>
		<path fill="#A3A3A3" d="M204.12793,122.81786c0.80078-0.88574,2.0791-0.91211,2.93457-0.14063
			c0.85645,0.77344,0.95898,2.04883,0.1582,2.93555c-0.79688,0.88184-2.0752,0.91699-2.93555,0.14063
			C203.42578,124.97704,203.33008,123.70165,204.12793,122.81786z M204.4668,123.1245
			c-0.61719,0.68262-0.56836,1.71289,0.10059,2.31738c0.66895,0.60352,1.69824,0.54688,2.31543-0.13477
			c0.61523-0.68262,0.56641-1.71387-0.10156-2.31641C206.11328,122.38622,205.08203,122.44286,204.4668,123.1245z"/>
		<path fill="#A3A3A3" d="M211.44727,127.70068c0.12695,0.18359,0.3418,0.52345,0.31641,0.89845
			c-0.00586,0.15918-0.0752,0.49219-0.47461,0.76953c-0.16309,0.11328-0.47266,0.27734-0.87207,0.12305
			c0.20508,0.53711-0.07813,0.98242-0.39355,1.20215c-0.31543,0.21875-0.68262,0.23926-0.94336,0.15723
			c-0.38867-0.11816-0.60742-0.41211-0.76465-0.63867l-0.56934-0.81836l3.29102-2.28516L211.44727,127.70068z M208.34473,129.51904
			l0.29199,0.41895c0.14648,0.21191,0.30566,0.40918,0.53906,0.48145c0.18262,0.06348,0.40625,0.03906,0.60352-0.09766
			c0.26172-0.18164,0.30859-0.44141,0.28906-0.61816c-0.01758-0.16992-0.10742-0.36426-0.28906-0.625l-0.25977-0.37402
			L208.34473,129.51904z M209.84375,128.47803l0.19336,0.27539c0.13281,0.19238,0.4873,0.62012,0.99609,0.26758
			c0.54199-0.37793,0.18164-0.91699,0.10938-1.02051l-0.19824-0.28614L209.84375,128.47803z"/>
		<path fill="#A3A3A3" d="M211.68555,133.77295l-0.76855-1.52051l-1.22363,0.0791l-0.2207-0.43848l4.57422-0.24707l-2.93555,3.49219
			l-0.22266-0.43848L211.68555,133.77295z M211.98242,133.4292l1.12695-1.32324l-1.73828,0.11133L211.98242,133.4292z"/>
		<path fill="#A3A3A3" d="M211.41406,135.90674l3.98926-1.2334l-2.20508,3.95117l2.96777-0.91699l0.13086,0.4248l-4,1.23633
			l2.2041-3.95117l-2.95605,0.91504L211.41406,135.90674z"/>
		<path fill="#A3A3A3" d="M216.67773,140.0835l0.10547,0.80859c0.05273,0.39746,0.08496,0.96875-0.27148,1.52344
			c-0.25586,0.40137-0.71875,0.78125-1.43262,0.87598c-0.83203,0.1084-1.33105-0.24316-1.6123-0.49707
			c-0.35547-0.32129-0.55469-0.68262-0.64648-1.38965l-0.10547-0.80176L216.67773,140.0835z M213.18848,140.98877l0.0498,0.38574
			c0.04102,0.31445,0.13477,0.74316,0.50586,1.08789c0.28809,0.26465,0.71191,0.4502,1.27539,0.37793
			c0.95117-0.125,1.48242-0.87207,1.35156-1.875l-0.05078-0.38672L213.18848,140.98877z"/>
		<path fill="#A3A3A3" d="M217.05078,147.59424c-0.0293,0.40137-0.10254,0.7334-0.35547,0.98633
			c-0.27441,0.27539-0.63281,0.32031-0.88477,0.30176c-0.56348-0.04199-1.09375-0.4375-1.02637-1.34766l0.02832-0.38867
			l-1.73633-0.13086l0.03223-0.44238l3.99609,0.29688L217.05078,147.59424z M215.23242,147.17725l-0.02734,0.36426
			c-0.03906,0.52637,0.20117,0.86426,0.66211,0.89941c0.63574,0.04688,0.73926-0.54199,0.76074-0.8291l0.02441-0.3291
			L215.23242,147.17725z"/>
		<path fill="#A3A3A3" d="M213.54395,151.70654l0.33301-1.67383l-1.01465-0.69043l0.09668-0.48438l3.75879,2.62793l-4.46875,0.94238
			l0.0957-0.48242L213.54395,151.70654z M213.99023,151.61768l1.70508-0.34766l-1.43945-0.9834L213.99023,151.61768z"/>
		<path fill="#A3A3A3" d="M214.42285,155.9585c0.12012-0.01367,0.2627-0.06055,0.36035-0.12207
			c0.08203-0.05273,0.20313-0.16309,0.27832-0.37891c0.12988-0.37402-0.01074-0.71484-0.3623-0.83691
			c-0.14746-0.05176-0.24609-0.04102-0.37793,0.02734c-0.15234,0.0752-0.26465,0.19434-0.37598,0.31445l-0.28516,0.30566
			c-0.17188,0.1875-0.3457,0.35645-0.55859,0.45898c-0.25977,0.125-0.50781,0.12793-0.78027,0.03418
			c-0.69629-0.24316-0.98047-0.91992-0.74414-1.59961c0.08691-0.24805,0.24609-0.54199,0.59082-0.71387
			c0.24707-0.12402,0.54688-0.14648,0.79102-0.11816l-0.0293,0.44727c-0.20801-0.04102-0.4082-0.01074-0.55957,0.05762
			c-0.22168,0.10742-0.33105,0.27832-0.39844,0.47168c-0.17969,0.51465,0.10352,0.88672,0.48242,1.01855
			c0.16992,0.05859,0.33496,0.05957,0.50684-0.0332c0.13965-0.07129,0.25879-0.19531,0.41797-0.3623l0.27734-0.28418
			c0.11914-0.12402,0.26367-0.28223,0.48633-0.39551c0.21582-0.1084,0.4248-0.14355,0.70801-0.0459
			c0.58301,0.2041,0.81738,0.78711,0.60449,1.39844c-0.08008,0.23145-0.19141,0.40234-0.38086,0.5459
			c-0.15527,0.11719-0.35254,0.19434-0.54688,0.22168L214.42285,155.9585z"/>
		<path fill="#A3A3A3" d="M212.90625,159.36084c0.12109,0,0.26855-0.02832,0.37305-0.07715
			c0.08789-0.04297,0.22168-0.13672,0.32227-0.3418c0.17578-0.35645,0.07715-0.71289-0.25586-0.87695
			c-0.14063-0.06934-0.24023-0.07129-0.37891-0.01953c-0.16113,0.05469-0.28711,0.15918-0.41211,0.26563l-0.32129,0.26953
			c-0.19434,0.16504-0.3877,0.31055-0.6123,0.38672c-0.27344,0.09277-0.52051,0.06445-0.7793-0.0625
			c-0.66211-0.32715-0.86133-1.03516-0.54297-1.68164c0.11719-0.23633,0.3125-0.50781,0.67676-0.63672
			c0.25977-0.09277,0.56055-0.07715,0.7998-0.02051l-0.08398,0.44141c-0.20117-0.06641-0.40527-0.05957-0.5625-0.00977
			c-0.23438,0.07813-0.36523,0.23438-0.45508,0.41797c-0.24219,0.48926-0.00684,0.89355,0.35352,1.07227
			c0.16211,0.07813,0.32617,0.09961,0.50781,0.0293c0.14844-0.05469,0.28125-0.16309,0.46094-0.30859l0.30957-0.24902
			c0.13379-0.1084,0.29688-0.24805,0.53223-0.33203c0.22852-0.08203,0.43945-0.0918,0.70898,0.04199
			c0.55469,0.27344,0.7168,0.88184,0.42871,1.46289c-0.1084,0.22168-0.23926,0.37793-0.44531,0.49707
			c-0.16895,0.09668-0.375,0.14844-0.57129,0.15234L212.90625,159.36084z"/>
	</g>
	<g>
		<circle fill="none" cx="186.5" cy="145.44551" r="28.59473"/>
		<path fill="#A3A3A3" d="M158.45605,157.75684c-0.10352-0.24854-0.24219-0.62598-0.16797-0.98145
			c0.05371-0.27637,0.25781-0.58203,0.65137-0.74512c0.56445-0.23535,1.13477-0.03662,1.40527,0.50586l1.16211-1.85938
			l0.20703,0.49756l-1.14941,1.79639l0.04395,0.10547l1.61719-0.67285l0.16992,0.41016l-3.69336,1.53613L158.45605,157.75684z
			 M160.24316,157.22852l-0.1084-0.26074c-0.21191-0.50928-0.58203-0.71191-1.01465-0.53271
			c-0.2041,0.08545-0.38379,0.23193-0.41992,0.51904c-0.02539,0.20508,0.04199,0.39844,0.11523,0.5752l0.10449,0.25
			L160.24316,157.22852z"/>
		<path fill="#A3A3A3" d="M157.13867,152.64697l0.4502,1.56885l1.1416-0.32764l-0.43652-1.52295l0.40332-0.11572l0.4375,1.52295
			l1.49414-0.42871l-0.4502-1.56836l0.4043-0.11621l0.57227,1.99609l-3.84766,1.10303l-0.57324-1.99512L157.13867,152.64697z"/>
		<path fill="#A3A3A3" d="M156.37305,151.11426l2.85254-1.57031l-3.18848-0.66016l-0.07324-0.48633l4.43555,0.96973l-3.95215,2.2334
			L156.37305,151.11426z"/>
		<path fill="#A3A3A3" d="M156.25977,144.90137l0.03418,1.63281l1.1875-0.02539l-0.03223-1.58301l0.41992-0.00879l0.0332,1.58301
			l1.55371-0.03223l-0.03418-1.63184l0.41992-0.00879l0.04395,2.07617l-4.00293,0.0835l-0.04297-2.07666L156.25977,144.90137z"/>
		<path fill="#A3A3A3" d="M155.99609,142.60449c0.02832-0.26758,0.08789-0.66602,0.32129-0.94238
			c0.17969-0.21631,0.50391-0.38721,0.92773-0.34326c0.60742,0.06396,1.01367,0.51025,0.99121,1.1167l1.90918-1.07715
			l-0.05664,0.53613l-1.86719,1.02734l-0.01172,0.11328l1.74023,0.18213l-0.0459,0.44092l-3.97559-0.41602L155.99609,142.60449z
			 M157.81641,142.99365l0.0293-0.27979c0.05762-0.54785-0.16992-0.90332-0.63477-0.95215
			c-0.2207-0.02344-0.44824,0.01855-0.61719,0.25488c-0.12012,0.16846-0.15332,0.36914-0.17285,0.55957l-0.02832,0.26855
			L157.81641,142.99365z"/>
		<path fill="#A3A3A3" d="M156.60938,138.69629c0.05078-0.2168,0.16211-0.604,0.45801-0.83691
			c0.12305-0.09961,0.41602-0.271,0.88965-0.1582c0.19336,0.04639,0.52246,0.16797,0.67383,0.56836
			c0.26367-0.51172,0.78418-0.59766,1.15723-0.50928c0.37402,0.08887,0.63379,0.34912,0.74805,0.59814
			c0.17188,0.36816,0.09766,0.72656,0.03418,0.99609l-0.23145,0.96973l-3.89648-0.92773L156.60938,138.69629z M158.25684,139.37158
			l0.07813-0.32666c0.05469-0.22803,0.13477-0.77734-0.46582-0.91992c-0.64355-0.15332-0.80469,0.4751-0.83398,0.59863
			l-0.08105,0.33789L158.25684,139.37158z M160.0332,139.79395l0.11816-0.49658c0.05957-0.25146,0.10059-0.50049-0.00098-0.72217
			c-0.0752-0.17871-0.24219-0.3291-0.47559-0.38525c-0.31055-0.07275-0.53516,0.06445-0.65234,0.19678
			c-0.11621,0.12695-0.2002,0.32324-0.27344,0.63281l-0.10645,0.44434L160.0332,139.79395z"/>
		<path fill="#A3A3A3" d="M161.80859,132.72754l-0.73145,1.53711l0.81055,0.91699l-0.21094,0.44336l-2.99023-3.46191
			l4.55176,0.18408l-0.21191,0.44287L161.80859,132.72754z M161.35547,132.7041l-1.73242-0.08203l1.15137,1.30518
			L161.35547,132.7041z"/>
		<path fill="#A3A3A3" d="M160.62012,129.04443l3.02051,1.92627l0.59375-0.93018l0.35352,0.2251l-0.83203,1.30566l-3.375-2.15186
			L160.62012,129.04443z"/>
		<path fill="#A3A3A3" d="M162.2998,126.64452l2.82617,2.20997l0.68164-0.8711l0.33105,0.25977l-0.95508,1.21973l-3.15723-2.46876
			L162.2998,126.64452z"/>
		<path fill="#A3A3A3" d="M165.96582,122.70604c0.29883-0.26855,0.58105-0.45703,0.93848-0.46289
			c0.38672-0.00781,0.67676,0.20703,0.84473,0.39453c0.37598,0.42041,0.48438,1.07129-0.19434,1.68066l-0.29102,0.25977
			l1.16016,1.29541l-0.33008,0.29639l-2.66895-2.98047L165.96582,122.70604z M166.9834,124.26563l0.27344-0.24414
			c0.39258-0.35254,0.45313-0.76123,0.14551-1.10547c-0.42383-0.47266-0.90723-0.12158-1.12109,0.07031l-0.24512,0.21973
			L166.9834,124.26563z"/>
		<path fill="#A3A3A3" d="M171.37793,122.15624l-1.4043,0.96777l0.24609,1.20215l-0.40527,0.28027l-0.86523-4.50146l3.86035,2.43506
			l-0.40527,0.2793L171.37793,122.15624z M170.99609,121.90917l-1.46387-0.9375l0.34766,1.70801L170.99609,121.90917z"/>
		<path fill="#A3A3A3" d="M173.68457,118.48925c-0.09668-0.07227-0.23145-0.13867-0.34375-0.16211
			c-0.09766-0.01855-0.26172-0.02344-0.46484,0.0791c-0.35449,0.17969-0.49023,0.52344-0.32129,0.85645
			c0.07031,0.13916,0.14844,0.2002,0.29102,0.24268c0.16113,0.05322,0.3252,0.04492,0.48926,0.03564l0.41895-0.02344
			c0.25488-0.01465,0.49609-0.01514,0.72266,0.05908c0.27441,0.09033,0.45508,0.26123,0.58496,0.51904
			c0.33301,0.65918,0.06738,1.34521-0.57617,1.66992c-0.23535,0.11914-0.55469,0.2207-0.92383,0.104
			c-0.26367-0.08252-0.49512-0.2749-0.65137-0.46436l0.33203-0.30273c0.12207,0.17383,0.28809,0.29102,0.44434,0.34717
			c0.23438,0.07666,0.43262,0.03027,0.61523-0.06201c0.4873-0.24658,0.54199-0.71094,0.36035-1.07031
			c-0.08105-0.16113-0.19922-0.27539-0.38867-0.3291c-0.14941-0.04443-0.32227-0.03906-0.55273-0.0293l-0.39746,0.01172
			c-0.17188,0.00635-0.38672,0.02148-0.62695-0.05371c-0.23047-0.07129-0.40527-0.19141-0.54102-0.45898
			c-0.2793-0.55273-0.04297-1.13672,0.53613-1.42969c0.21973-0.11035,0.41895-0.15723,0.65527-0.12891
			c0.19336,0.02393,0.38965,0.10547,0.54883,0.22119L173.68457,118.48925z"/>
		<path fill="#A3A3A3" d="M177.15332,117.11132c-0.08789-0.08301-0.21191-0.16553-0.32129-0.20361
			c-0.09375-0.03076-0.25488-0.05518-0.46973,0.02197c-0.37305,0.13281-0.5498,0.45654-0.4248,0.80713
			c0.05273,0.146,0.12207,0.21729,0.25879,0.27637c0.15234,0.07275,0.31641,0.08545,0.47949,0.09619l0.41797,0.0293
			c0.25488,0.01758,0.49316,0.0459,0.70801,0.14746c0.26074,0.12305,0.41797,0.31543,0.51563,0.58643
			c0.24805,0.69385-0.10059,1.34131-0.77832,1.5835c-0.24805,0.08789-0.57715,0.14844-0.92676-0.01318
			c-0.25098-0.11377-0.45703-0.3335-0.58887-0.54053l0.36719-0.25879c0.09863,0.1875,0.24902,0.3252,0.39746,0.39941
			c0.2207,0.10547,0.42383,0.08447,0.61621,0.01563c0.5127-0.18359,0.625-0.6377,0.49023-1.01514
			c-0.06055-0.16992-0.16406-0.29834-0.34375-0.37451c-0.14355-0.06348-0.31543-0.07861-0.54395-0.09814l-0.39551-0.03711
			c-0.1709-0.01563-0.38574-0.02783-0.61426-0.13135c-0.21973-0.09961-0.37793-0.24023-0.47949-0.52148
			c-0.20703-0.58203,0.09961-1.13086,0.70898-1.34912c0.23145-0.08252,0.43457-0.104,0.66504-0.04541
			c0.18848,0.04688,0.37207,0.15234,0.51563,0.28564L177.15332,117.11132z"/>
	</g>
</g>
</svg>
