<?xml version="1.0" encoding="utf-8"?>
<!-- Generator: Adobe Illustrator 24.0.2, SVG Export Plug-In . SVG Version: 6.00 Build 0)  -->
<svg version="1.0" id="Layer_1" xmlns="http://www.w3.org/2000/svg" xmlns:xlink="http://www.w3.org/1999/xlink" x="0px" y="0px"
	 width="270px" height="380px" viewBox="0 0 270 380" enable-background="new 0 0 270 380" xml:space="preserve">
<g id="_x31_4">
	<rect y="-0.00001" fill="none" width="270" height="380"/>
	<g>
		<circle fill="#262424" stroke="#606266" stroke-width="0.5" stroke-miterlimit="10" cx="83.47665" cy="145.47665" r="34.93385"/>
		
			<line fill="none" stroke="#606266" stroke-width="0.75" stroke-miterlimit="10" x1="83.47665" y1="145.47665" x2="59.06974" y2="169.88356"/>
		
			<line fill="none" stroke="#606266" stroke-width="0.75" stroke-miterlimit="10" x1="83.47665" y1="145.47665" x2="108.1785" y2="170.17851"/>
		<circle fill="#262424" stroke="#606266" stroke-width="0.75" stroke-miterlimit="10" cx="83.47665" cy="145.47665" r="23.5"/>
	</g>
	<g>
		<circle fill="#262424" stroke="#606266" stroke-width="0.5" stroke-miterlimit="10" cx="186.5" cy="145.44551" r="34.93385"/>
		
			<line fill="none" stroke="#606266" stroke-width="0.75" stroke-miterlimit="10" x1="186.5" y1="145.44551" x2="162.09309" y2="169.85242"/>
		
			<line fill="none" stroke="#606266" stroke-width="0.75" stroke-miterlimit="10" x1="186.5" y1="145.44551" x2="211.20186" y2="170.14737"/>
		<circle fill="#262424" stroke="#606266" stroke-width="0.75" stroke-miterlimit="10" cx="186.5" cy="145.44551" r="23.5"/>
	</g>
	<g>
		<circle fill="#262424" stroke="#606266" stroke-width="0.5" stroke-miterlimit="10" cx="135" cy="283.5" r="34.93385"/>
		
			<line fill="none" stroke="#606266" stroke-width="0.75" stroke-miterlimit="10" x1="135" y1="283.5" x2="110.30396" y2="308.19604"/>
		
			<line fill="none" stroke="#606266" stroke-width="0.75" stroke-miterlimit="10" x1="135" y1="283.5" x2="159.69603" y2="308.19604"/>
		<line fill="none" stroke="#606266" stroke-width="0.5" stroke-miterlimit="10" x1="135" y1="248.56616" x2="135" y2="283.5"/>
		<circle fill="#262424" stroke="#606266" stroke-width="0.75" stroke-miterlimit="10" cx="135" cy="283.5" r="23.5"/>
	</g>
	<g>
		<circle fill="none" cx="71" cy="351" r="14.578"/>
		
			<path fill="#A3A3A3" stroke="#A3A3A3" stroke-width="0.25" stroke-linecap="round" stroke-linejoin="round" stroke-miterlimit="10" d="
			M63.04688,333.88525l0.80273-0.30078c0.39648-0.14844,0.97266-0.31592,1.625-0.08301
			c0.47363,0.1665,0.97461,0.55127,1.23926,1.26025c0.30957,0.8252,0.06738,1.4209-0.125,1.77002
			c-0.24512,0.44141-0.56738,0.72998-1.27051,0.99414l-0.79688,0.29834L63.04688,333.88525z M64.80273,337.24658l0.38477-0.14404
			c0.3125-0.11572,0.73047-0.31299,0.99512-0.77588c0.20215-0.35889,0.29199-0.83691,0.08301-1.39697
			c-0.35352-0.94482-1.24414-1.3125-2.24316-0.93896l-0.38379,0.14404L64.80273,337.24658z"/>
		
			<path fill="#A3A3A3" stroke="#A3A3A3" stroke-width="0.25" stroke-linecap="round" stroke-linejoin="round" stroke-miterlimit="10" d="
			M68.59961,332.33594c0.28125-0.03125,0.7041-0.05762,1.04102,0.12207c0.26172,0.13672,0.50879,0.43311,0.55664,0.87744
			c0.07031,0.63965-0.29883,1.15527-0.92773,1.2666l1.53125,1.72412l-0.56445,0.06055l-1.46973-1.69092l-0.11914,0.01221
			l0.19824,1.82959l-0.46387,0.05078l-0.45215-4.17969L68.59961,332.33594z M68.60254,334.29492l0.29492-0.03174
			c0.57617-0.0625,0.8916-0.37598,0.83887-0.86426c-0.02539-0.23193-0.12012-0.45605-0.40039-0.57861
			c-0.19922-0.08691-0.41309-0.0752-0.61328-0.0542l-0.28223,0.03027L68.60254,334.29492z"/>
		
			<path fill="#A3A3A3" stroke="#A3A3A3" stroke-width="0.25" stroke-linecap="round" stroke-linejoin="round" stroke-miterlimit="10" d="
			M72.38281,332.23877l-0.25098,4.18994l-0.46484-0.02734l0.25098-4.19043L72.38281,332.23877z"/>
		
			<path fill="#A3A3A3" stroke="#A3A3A3" stroke-width="0.25" stroke-linecap="round" stroke-linejoin="round" stroke-miterlimit="10" d="
			M74.39941,332.46387l0.37207,3.39355l1.92383-2.82031l0.5,0.125l-2.72656,3.9043l-0.57031-4.72852L74.39941,332.46387z"/>
		
			<path fill="#A3A3A3" stroke="#A3A3A3" stroke-width="0.25" stroke-linecap="round" stroke-linejoin="round" stroke-miterlimit="10" d="
			M80.44727,335.19824l-1.52637-0.78418l-0.57129,1.11084l1.48145,0.76172l-0.20215,0.39209l-1.48047-0.76123l-0.74805,1.45264
			l1.52539,0.78516l-0.20117,0.39209l-1.94141-0.99707l1.9248-3.74268l1.94043,0.99854L80.44727,335.19824z"/>
	</g>
	<g>
		<circle fill="none" cx="199.5" cy="351.03378" r="14.578"/>
		
			<path fill="#A3A3A3" stroke="#A3A3A3" stroke-width="0.25" stroke-linecap="round" stroke-linejoin="round" stroke-miterlimit="10" d="
			M184.38184,339.85693c0.25293-0.33838,0.50488-0.59033,0.87109-0.67041c0.39746-0.08838,0.74023,0.0752,0.95215,0.23291
			c0.47266,0.35547,0.7207,1.00439,0.14551,1.77002l-0.24512,0.32813l1.46289,1.0957l-0.2793,0.37256l-3.36426-2.51855
			L184.38184,339.85693z M185.75195,341.25293l0.23047-0.30713c0.33203-0.44385,0.31055-0.87695-0.07813-1.16797
			c-0.53418-0.40039-0.95898,0.06104-1.13867,0.30322l-0.20898,0.27734L185.75195,341.25293z"/>
		
			<path fill="#A3A3A3" stroke="#A3A3A3" stroke-width="0.25" stroke-linecap="round" stroke-linejoin="round" stroke-miterlimit="10" d="
			M186.55273,337.39307l2.93555,3.00488l-0.33301,0.32617l-2.93652-3.00635L186.55273,337.39307z"/>
		
			<path fill="#A3A3A3" stroke="#A3A3A3" stroke-width="0.25" stroke-linecap="round" stroke-linejoin="round" stroke-miterlimit="10" d="
			M188.99805,335.96191l2.19336,3.05713l-0.37891,0.27197l-2.19336-3.05713l-0.8291,0.59473l-0.25684-0.35742l2.03711-1.46191
			l0.25781,0.35742L188.99805,335.96191z"/>
		
			<path fill="#A3A3A3" stroke="#A3A3A3" stroke-width="0.25" stroke-linecap="round" stroke-linejoin="round" stroke-miterlimit="10" d="
			M194.01953,333.91699c-0.1748-0.06885-0.42188-0.13379-0.6582-0.14209c-0.24316-0.00537-0.50586,0.03857-0.73047,0.13672
			c-0.89258,0.38428-1.24316,1.38574-0.85938,2.27637c0.45117,1.04688,1.5293,1.20801,2.23438,0.90381
			c0.26074-0.11084,0.48242-0.29639,0.64063-0.4873c0.17383-0.20459,0.26758-0.41748,0.30664-0.51611l0.22852,0.5332
			c-0.2959,0.49072-0.71094,0.75195-1.00195,0.87646c-1.14551,0.49219-2.37012-0.00879-2.85059-1.12646
			c-0.49609-1.15234-0.00293-2.37988,1.15527-2.87793c0.23145-0.09863,0.69043-0.26221,1.30469-0.10889L194.01953,333.91699z"/>
		
			<path fill="#A3A3A3" stroke="#A3A3A3" stroke-width="0.25" stroke-linecap="round" stroke-linejoin="round" stroke-miterlimit="10" d="
			M196.14063,334.22754l2.13281-0.28857l-0.22852-1.69092l0.46094-0.0625l0.56445,4.16016l-0.46191,0.0625l-0.27441-2.03369
			l-2.13477,0.28955l0.27539,2.03369l-0.46094,0.0625l-0.56348-4.16016l0.46191-0.0625L196.14063,334.22754z"/>
		
			<path fill="#A3A3A3" stroke="#A3A3A3" stroke-width="0.25" stroke-linecap="round" stroke-linejoin="round" stroke-miterlimit="10" d="
			M202.18555,336.48193l2.14258-3.94824l0.33398,3.88379l2.73828-2.80127l-0.86621,4.40771l-0.45215-0.16064l0.60352-2.88867
			l-2.38477,2.44531l-0.29492-3.39453l-1.36914,2.61621L202.18555,336.48193z"/>
		
			<path fill="#A3A3A3" stroke="#A3A3A3" stroke-width="0.25" stroke-linecap="round" stroke-linejoin="round" stroke-miterlimit="10" d="
			M208.32227,336.68408c0.79102-0.97363,2.12891-1.07129,3.06836-0.30908c0.93945,0.7627,1.11719,2.09326,0.32715,3.06689
			c-0.78711,0.96777-2.12402,1.07471-3.06836,0.30811C207.70508,338.98438,207.53613,337.65332,208.32227,336.68408z
			 M208.69434,336.98633c-0.6084,0.74805-0.50098,1.8252,0.2334,2.42188c0.73438,0.5957,1.80957,0.479,2.41797-0.26904
			c0.60742-0.74805,0.5-1.82568-0.23242-2.42139C210.37891,336.12158,209.30273,336.23828,208.69434,336.98633z"/>
		
			<path fill="#A3A3A3" stroke="#A3A3A3" stroke-width="0.25" stroke-linecap="round" stroke-linejoin="round" stroke-miterlimit="10" d="
			M214.27148,339.31934l0.47852,0.71045c0.23535,0.35059,0.5332,0.87207,0.45703,1.55957
			c-0.05176,0.49805-0.30957,1.07324-0.9375,1.49561c-0.73047,0.49219-1.36523,0.39551-1.74805,0.2876
			c-0.48633-0.13477-0.8418-0.38184-1.25977-1.00293l-0.47461-0.70557L214.27148,339.31934z M211.41211,341.80469l0.22852,0.33838
			c0.1875,0.27734,0.47461,0.63818,0.98535,0.7876c0.39551,0.11475,0.87988,0.09033,1.37695-0.2417
			c0.83691-0.56348,0.98535-1.51367,0.3916-2.396l-0.22852-0.34033L211.41211,341.80469z"/>
	</g>
	<g>
		
			<ellipse transform="matrix(0.08248 -0.99659 0.99659 0.08248 7.76603 241.4274)" fill="none" cx="135" cy="116.49604" rx="25.58" ry="25.58002"/>
		<path fill="#A3A3A3" stroke="#A3A3A3" stroke-width="0.25" stroke-miterlimit="10" d="M107.65918,110.51757l-2.47559,0.71436
			l0.13184-0.57324l1.92676-0.54639l-1.48633-1.36182l0.13086-0.57178l1.90723,1.75293l2.65527-0.77393l-0.13281,0.57324
			l-2.10742,0.61182l1.62305,1.48682l-0.13184,0.57275L107.65918,110.51757z"/>
		<path fill="#A3A3A3" stroke="#A3A3A3" stroke-width="0.25" stroke-miterlimit="10" d="M106.41699,106.62109l4.4248,1.49414
			l-0.16504,0.49072l-4.42578-1.49414L106.41699,106.62109z"/>
		<path fill="#A3A3A3" stroke="#A3A3A3" stroke-width="0.25" stroke-miterlimit="10" d="M106.94922,105.13184l3.78711,0.28906
			l-2.68945-2.68115l0.23926-0.52148l3.71094,3.78027l-5.28711-0.34424L106.94922,105.13184z"/>
		<path fill="#A3A3A3" stroke="#A3A3A3" stroke-width="0.25" stroke-miterlimit="10" d="M112.20313,103.60155
			c0.09375-0.16504,0.3125-0.2251,0.47656-0.13232c0.16504,0.09424,0.22461,0.31396,0.13281,0.47754
			c-0.09375,0.16504-0.31348,0.2251-0.47852,0.13135C112.16992,103.98486,112.10938,103.76563,112.20313,103.60155z"/>
		<path fill="#A3A3A3" stroke="#A3A3A3" stroke-width="0.25" stroke-miterlimit="10" d="M114.85645,98.68505l-1.2627,1.5376
			l0.66211,1.26807l-0.36523,0.44385l-2.41699-4.77002l5.1123,1.49072l-0.36523,0.44434L114.85645,98.68505z M114.34961,98.53075
			l-1.94336-0.58203l0.9375,1.80469L114.34961,98.53075z"/>
		<path fill="#A3A3A3" stroke="#A3A3A3" stroke-width="0.25" stroke-miterlimit="10" d="M116.90527,98.33104l-3.1416-3.71094
			l5.24023,0.55908l-2.33691-2.76074l0.39551-0.3335l3.15039,3.7207l-5.24023-0.55908l2.32813,2.75L116.90527,98.33104z"/>
		<path fill="#A3A3A3" stroke="#A3A3A3" stroke-width="0.25" stroke-miterlimit="10" d="M122.50488,92.67919l-1.72656,0.99072
			l0.16895,1.42139l-0.49805,0.28662l-0.57227-5.32031l4.25586,3.20703l-0.49805,0.28516L122.50488,92.67919z M122.08398,92.35448
			l-1.6123-1.23145l0.23828,2.01953L122.08398,92.35448z"/>
		<path fill="#A3A3A3" stroke="#A3A3A3" stroke-width="0.25" stroke-miterlimit="10" d="M123.31641,88.61815l1.59766,3.8623
			l1.18945-0.49316l0.1875,0.4541l-1.66895,0.68945l-1.78418-4.31494L123.31641,88.61815z"/>
		<path fill="#A3A3A3" stroke="#A3A3A3" stroke-width="0.25" stroke-miterlimit="10" d="M125.71484,90.08837
			c-0.34473-1.34912,0.45508-2.6084,1.75684-2.93994c1.30273-0.33203,2.60645,0.38965,2.9502,1.74023
			c0.34277,1.34277-0.44824,2.60596-1.75781,2.93994C127.35547,92.16259,126.05664,91.43114,125.71484,90.08837z
			 M126.23047,89.95654c0.26367,1.03809,1.2959,1.65723,2.3125,1.39844c1.01855-0.26025,1.62891-1.29639,1.36328-2.33447
			c-0.26367-1.03809-1.2959-1.65723-2.3125-1.39697C126.5752,87.88231,125.96484,88.91943,126.23047,89.95654z"/>
		<path fill="#A3A3A3" stroke="#A3A3A3" stroke-width="0.25" stroke-miterlimit="10" d="M134.01758,88.61376l1.94531-0.09424
			l0.00586,0.11133c0.02539,0.51855-0.10156,1.08545-0.37598,1.49854c-0.13086,0.19629-0.62402,0.87305-1.69531,0.9248
			c-1.38574,0.06787-2.47266-0.93896-2.53809-2.29639c-0.06641-1.3584,0.92383-2.46484,2.31738-2.5332
			c0.44824-0.02197,0.97852,0.06445,1.4502,0.39307c0.21777,0.1499,0.42383,0.35059,0.56543,0.52588l-0.36816,0.36865
			c-0.1416-0.18311-0.30371-0.34277-0.46387-0.46094c-0.2334-0.17236-0.59277-0.36426-1.15234-0.3374
			c-1.12793,0.05566-1.87012,0.94043-1.81738,2.0249c0.0625,1.27441,1.10938,1.86816,1.99023,1.82568
			c0.62305-0.03076,1.14648-0.37256,1.38965-0.854c0.07715-0.15088,0.15723-0.37939,0.15625-0.67383l-1.38574,0.06689
			L134.01758,88.61376z"/>
		<path fill="#A3A3A3" stroke="#A3A3A3" stroke-width="0.25" stroke-miterlimit="10" d="M140.05176,86.68847
			c0.25488,0.04639,0.71191,0.15088,1.00098,0.48145c0.125,0.13623,0.3418,0.46777,0.23926,1.02539
			c-0.04102,0.22656-0.16211,0.61719-0.61816,0.81885c0.61133,0.27588,0.74316,0.875,0.66309,1.31592
			c-0.08105,0.44092-0.36621,0.75879-0.64941,0.90625c-0.41797,0.22168-0.83984,0.15918-1.15625,0.10254l-1.14355-0.2085
			l0.83887-4.59229L140.05176,86.68847z M138.98633,90.74072l0.58398,0.10742c0.29688,0.05322,0.58984,0.08545,0.84082-0.04639
			c0.20313-0.09766,0.36816-0.30322,0.41895-0.57861c0.06641-0.36377-0.1084-0.61621-0.26953-0.74512
			c-0.1543-0.12793-0.3877-0.21387-0.75293-0.27979l-0.52246-0.0957L138.98633,90.74072z M139.36719,88.64745l0.38574,0.07031
			c0.26855,0.04932,0.91211,0.10938,1.04199-0.59912c0.13672-0.75781-0.60352-0.90674-0.74805-0.93311l-0.39941-0.07324
			L139.36719,88.64745z"/>
		<path fill="#A3A3A3" stroke="#A3A3A3" stroke-width="0.25" stroke-miterlimit="10" d="M144.71484,91.41503l-1.88086-0.6499
			l-0.95996,1.0625l-0.54395-0.18799l3.63281-3.92773l0.38281,5.31348l-0.54297-0.18701L144.71484,91.41503z M144.68359,90.88477
			l-0.13184-2.02539l-1.36621,1.5083L144.68359,90.88477z"/>
		<path fill="#A3A3A3" stroke="#A3A3A3" stroke-width="0.25" stroke-miterlimit="10" d="M149.26074,90.87938
			c0.00195-0.14111-0.02734-0.31396-0.08105-0.43701c-0.04883-0.10449-0.15625-0.2627-0.39258-0.38574
			c-0.41016-0.21289-0.82813-0.10596-1.02734,0.2793c-0.08496,0.16162-0.08984,0.27734-0.0332,0.44092
			c0.05957,0.18896,0.17969,0.33789,0.29883,0.48682l0.30859,0.38086c0.1875,0.23193,0.35352,0.45947,0.4375,0.72363
			c0.10156,0.32178,0.0625,0.60986-0.09277,0.90723c-0.39746,0.76465-1.22754,0.98096-1.97363,0.59375
			c-0.27344-0.14209-0.58594-0.37598-0.72656-0.80371c-0.10156-0.30566-0.07813-0.65625-0.00488-0.93359l0.5127,0.10791
			c-0.08203,0.23291-0.08008,0.47266-0.02637,0.65723c0.08691,0.27393,0.2666,0.43066,0.47754,0.54053
			c0.56641,0.29346,1.04297,0.02832,1.25977-0.38818c0.0957-0.18604,0.12402-0.37793,0.0459-0.59131
			c-0.05957-0.17383-0.18262-0.33154-0.34863-0.54443l-0.2832-0.36768c-0.12207-0.15869-0.28125-0.35254-0.375-0.62939
			c-0.08984-0.26758-0.0957-0.51465,0.06543-0.82666c0.33301-0.63867,1.0459-0.81348,1.71777-0.46484
			c0.25488,0.13281,0.43457,0.28955,0.56836,0.53174c0.10938,0.19873,0.16602,0.44092,0.16602,0.67041L149.26074,90.87938z"/>
		<path fill="#A3A3A3" stroke="#A3A3A3" stroke-width="0.25" stroke-miterlimit="10" d="M152.47656,92.95702
			c0.02148-0.13965,0.01563-0.31396-0.02344-0.44336c-0.03418-0.10889-0.11914-0.27979-0.33789-0.43262
			c-0.37891-0.26416-0.80762-0.2124-1.05664,0.14258c-0.10352,0.14941-0.12305,0.26318-0.08789,0.43311
			c0.03418,0.1958,0.13379,0.3584,0.2334,0.52197l0.25488,0.41748c0.15625,0.25391,0.29102,0.50195,0.33887,0.7749
			c0.05957,0.33057-0.0166,0.61133-0.20898,0.88623c-0.49316,0.70654-1.34473,0.81299-2.03223,0.33252
			c-0.25391-0.17676-0.5332-0.44971-0.61719-0.8916c-0.06152-0.31641,0.00781-0.65967,0.11719-0.92676l0.49316,0.17432
			c-0.11133,0.22021-0.13965,0.45752-0.11035,0.64844c0.0498,0.2832,0.20703,0.46045,0.40234,0.59717
			c0.52344,0.36475,1.03027,0.16357,1.29883-0.2207c0.12012-0.17188,0.17285-0.35791,0.12305-0.58057
			c-0.03711-0.18018-0.1377-0.35205-0.27539-0.58398l-0.23242-0.40088c-0.10156-0.17432-0.23438-0.38574-0.29004-0.67334
			c-0.05469-0.27686-0.02832-0.52295,0.17285-0.80957c0.41211-0.59229,1.14258-0.67188,1.76367-0.23877
			c0.23438,0.16406,0.3916,0.3418,0.49219,0.60107c0.08398,0.21094,0.10742,0.45898,0.07813,0.68555L152.47656,92.95702z"/>
		<path fill="#A3A3A3" stroke="#A3A3A3" stroke-width="0.25" stroke-miterlimit="10" d="M156.00781,94.69335l0.65039,0.69482
			c0.32031,0.3418,0.73828,0.86084,0.77832,1.62988c0.03125,0.55518-0.14941,1.23291-0.7627,1.80664
			c-0.71484,0.66943-1.42773,0.67627-1.86719,0.62646c-0.55664-0.06201-0.99121-0.26904-1.56055-0.87695l-0.64551-0.68994
			L156.00781,94.69335z M153.3125,97.92822l0.31055,0.33057c0.25391,0.27148,0.63281,0.61523,1.2207,0.68945
			c0.45313,0.0542,0.98242-0.05664,1.4668-0.51172c0.81738-0.76563,0.8125-1.83545,0.00391-2.69824l-0.31055-0.33203
			L153.3125,97.92822z"/>
		<path fill="#A3A3A3" stroke="#A3A3A3" stroke-width="0.25" stroke-miterlimit="10" d="M159.67773,99.01563
			c0.17969,0.25977,0.42871,0.65771,0.43164,1.08057c0.00488,0.32813-0.1543,0.72705-0.5625,1.0083
			c-0.58789,0.40527-1.28516,0.31738-1.72656-0.23682l-0.875,2.40381l-0.35742-0.51855l0.87598-2.32715l-0.07617-0.10986
			l-1.68164,1.15967l-0.29395-0.42578l3.8418-2.64941L159.67773,99.01563z M157.76758,100.0537l0.1875,0.27051
			c0.36523,0.52979,0.83691,0.67139,1.28613,0.36133c0.21289-0.14648,0.38184-0.35645,0.35449-0.69385
			c-0.02148-0.24023-0.14453-0.44287-0.27246-0.62793l-0.17871-0.25977L157.76758,100.0537z"/>
		<path fill="#A3A3A3" stroke="#A3A3A3" stroke-width="0.25" stroke-miterlimit="10" d="M159.12891,103.48975
			c-0.35254,0.17236-0.7373,0.35986-0.85742,0.83008c-0.0625,0.2417-0.01563,0.57764,0.09766,0.80957
			c0.11328,0.23389,0.34961,0.47803,0.57715,0.57715c0.44629,0.1958,0.83008,0.0083,1.18262-0.16309l2.57617-1.25537
			l0.22754,0.46582l-2.70215,1.31738c-0.35352,0.17188-0.71094,0.29932-1.13672,0.22607
			c-0.46875-0.08301-0.9043-0.4165-1.16602-0.95264c-0.25977-0.53516-0.25488-1.08398-0.03125-1.50439
			c0.20508-0.37988,0.52637-0.58301,0.87891-0.75586l2.70313-1.31592l0.22656,0.4668L159.12891,103.48975z"/>
		<path fill="#A3A3A3" stroke="#A3A3A3" stroke-width="0.25" stroke-miterlimit="10" d="M159.10547,107.54736l4.96875-0.48584
			l-3.36719,2.72656l4.2832,0.77686l-4.59766,1.94531l-0.13281-0.51465l3.03516-1.24365l-3.73633-0.67334l2.94141-2.38477
			l-3.26172,0.36865L159.10547,107.54736z"/>
	</g>
	<g>
		<circle fill="none" cx="83.5" cy="145.5" r="28.59473"/>
		<path fill="#A3A3A3" stroke="#A3A3A3" stroke-width="0.25" stroke-linejoin="round" stroke-miterlimit="10" d="M72.01172,168.7373
			c0.26758,0.12695,0.74219,0.37793,0.96289,0.82666c0.09668,0.18848,0.23926,0.61719-0.03809,1.20313
			c-0.11328,0.23877-0.3623,0.63379-0.9248,0.72168c0.59277,0.4834,0.5625,1.18604,0.34277,1.64893
			c-0.21875,0.46289-0.62793,0.729-0.9834,0.80811c-0.52734,0.12207-0.97461-0.07178-1.30762-0.22852l-1.2002-0.56885
			l2.28125-4.82129L72.01172,168.7373z M69.6377,172.89502l0.61426,0.29102c0.31152,0.14697,0.625,0.26953,0.94141,0.19775
			c0.25391-0.04785,0.49609-0.2251,0.63281-0.51416c0.18164-0.3833,0.06348-0.71289-0.07617-0.90381
			c-0.13281-0.18604-0.36523-0.34961-0.74902-0.52979l-0.54883-0.26074L69.6377,172.89502z M70.67773,170.69824l0.4043,0.19141
			c0.2832,0.13428,0.97461,0.39063,1.32715-0.35449c0.37598-0.79443-0.39746-1.17822-0.5498-1.25098l-0.41895-0.19727
			L70.67773,170.69824z"/>
		<path fill="#A3A3A3" stroke="#A3A3A3" stroke-width="0.25" stroke-linejoin="round" stroke-miterlimit="10" d="
			M76.17871,170.36182c0.34668,0.09424,0.85742,0.25879,1.1709,0.62793c0.24609,0.28271,0.40039,0.74756,0.25,1.29541
			c-0.21484,0.7876-0.89063,1.22412-1.68457,1.06445l1.00488,2.74756l-0.69336-0.19043l-0.94922-2.68213l-0.14648-0.03955
			l-0.61719,2.25293l-0.57227-0.1582l1.41211-5.14404L76.17871,170.36182z M75.26953,172.67627l0.36328,0.09912
			c0.70996,0.19385,1.22656-0.02881,1.39258-0.63086c0.07813-0.28516,0.07227-0.59473-0.20215-0.86768
			c-0.19531-0.19482-0.45215-0.28223-0.7002-0.35059l-0.34766-0.09521L75.26953,172.67627z"/>
		<path fill="#A3A3A3" stroke="#A3A3A3" stroke-width="0.25" stroke-linejoin="round" stroke-miterlimit="10" d="M80.26563,171.2085
			l-0.7168,5.28564l-0.58594-0.0791l0.7168-5.28613L80.26563,171.2085z"/>
		<path fill="#A3A3A3" stroke="#A3A3A3" stroke-width="0.25" stroke-linejoin="round" stroke-miterlimit="10" d="
			M84.84473,174.02979l2.22168-0.07568l0.00391,0.12744c0.01953,0.59229-0.13379,1.23633-0.4541,1.7041
			c-0.15332,0.2207-0.72754,0.98389-1.9502,1.02539c-1.58203,0.05371-2.80469-1.11328-2.85742-2.6626
			c-0.05273-1.55078,1.09766-2.79785,2.6875-2.85254c0.51172-0.01709,1.11523,0.0918,1.64844,0.47266
			c0.24609,0.17578,0.47852,0.4082,0.63672,0.61084l-0.42578,0.41504c-0.16016-0.21143-0.3418-0.39648-0.52246-0.53516
			c-0.2627-0.19873-0.6709-0.42529-1.30957-0.40332c-1.28711,0.04297-2.14941,1.03955-2.10742,2.2793
			c0.04883,1.4541,1.23242,2.15088,2.24023,2.11621c0.71094-0.02393,1.31445-0.40381,1.59961-0.9502
			c0.08984-0.1709,0.18555-0.43018,0.19043-0.7666l-1.58301,0.05371L84.84473,174.02979z"/>
		<path fill="#A3A3A3" stroke="#A3A3A3" stroke-width="0.25" stroke-linejoin="round" stroke-miterlimit="10" d="
			M89.37109,172.97949l2.64355-0.6958l-0.55176-2.09521l0.57129-0.15039l1.3584,5.15527l-0.57129,0.15039l-0.66406-2.51953
			l-2.64355,0.69678l0.66406,2.51953l-0.57227,0.15137l-1.3584-5.15527l0.57227-0.15039L89.37109,172.97949z"/>
		<path fill="#A3A3A3" stroke="#A3A3A3" stroke-width="0.25" stroke-linejoin="round" stroke-miterlimit="10" d="
			M95.04492,169.31104l2.0332,4.3208l-0.53613,0.25293l-2.03418-4.32178l-1.17188,0.55176l-0.23926-0.50684l2.88184-1.35547
			l0.23828,0.50684L95.04492,169.31104z"/>
	</g>
	<g>
		<circle fill="none" cx="186.44551" cy="145.5" r="28.59473"/>
		<path fill="#A3A3A3" stroke="#A3A3A3" stroke-width="0.25" stroke-linejoin="round" stroke-miterlimit="10" d="
			M175.70215,169.17236l1.02051,0.37988c0.50195,0.18604,1.19531,0.50391,1.62695,1.27051
			c0.31543,0.55273,0.47656,1.33789,0.1416,2.23828c-0.39063,1.0498-1.11719,1.41992-1.5918,1.59375
			c-0.60254,0.22021-1.15137,0.22949-2.04395-0.10352l-1.01367-0.375L175.70215,169.17236z M174.59277,173.85742l0.4873,0.18115
			c0.39746,0.14746,0.96191,0.30664,1.60059,0.08252c0.49121-0.17627,0.97559-0.56006,1.24023-1.27197
			c0.44629-1.2002-0.10352-2.29248-1.37109-2.76318l-0.4873-0.18164L174.59277,173.85742z"/>
		<path fill="#A3A3A3" stroke="#A3A3A3" stroke-width="0.25" stroke-linejoin="round" stroke-miterlimit="10" d="
			M183.43359,171.8584l-2.14355-0.36621l-0.2666,1.56104l2.08008,0.35547l-0.09375,0.55225l-2.08008-0.35645l-0.34961,2.04102
			l2.14453,0.36621l-0.09473,0.55225l-2.72754-0.46533l0.89844-5.2583l2.72754,0.4668L183.43359,171.8584z"/>
		<path fill="#A3A3A3" stroke="#A3A3A3" stroke-width="0.25" stroke-linejoin="round" stroke-miterlimit="10" d="
			M188.99805,172.55615c-0.16992-0.16504-0.42969-0.36035-0.7041-0.48389c-0.28223-0.12256-0.61035-0.19727-0.92285-0.19287
			c-1.23047,0.02148-2.125,1.02686-2.10547,2.25928c0.02441,1.44629,1.21191,2.1543,2.1875,2.13818
			c0.35938-0.00488,0.70898-0.11523,0.98633-0.26465c0.30176-0.15723,0.51465-0.35938,0.60938-0.45752l0.01172,0.73633
			c-0.58398,0.43262-1.19922,0.53857-1.59863,0.5459c-1.58301,0.02637-2.77832-1.15283-2.80371-2.69678
			c-0.02734-1.58984,1.14453-2.79443,2.74414-2.82129c0.31934-0.00439,0.93555,0.0249,1.58398,0.50293L188.99805,172.55615z"/>
		<path fill="#A3A3A3" stroke="#A3A3A3" stroke-width="0.25" stroke-linejoin="round" stroke-miterlimit="10" d="
			M194.06543,174.27637l-2.21875,0.49463l-0.29785,1.60742l-0.64063,0.14355l1.18164-5.99658l3.55273,4.94092l-0.64063,0.14258
			L194.06543,174.27637z M193.7168,173.77881l-1.33984-1.89063l-0.42578,2.28516L193.7168,173.77881z"/>
		<path fill="#A3A3A3" stroke="#A3A3A3" stroke-width="0.25" stroke-linejoin="round" stroke-miterlimit="10" d="
			M197.20313,172.37988l-2.78027-2.14209l0.63672-0.26172l2.16699,1.68506l0.36133-2.73047l0.63672-0.26221l-0.47461,3.48633
			l0.87598,2.12207l-0.5459,0.22607L197.20313,172.37988z"/>
	</g>
	<g>
		<circle fill="none" cx="135" cy="283.5" r="28.59473"/>
		
			<path fill="#A3A3A3" stroke="#A3A3A3" stroke-width="0.25" stroke-linecap="round" stroke-linejoin="round" stroke-miterlimit="10" d="
			M117.6709,309.67383l3.43262-4.54932l-0.3125,4.93604l3.96484-2.99658l-1.91992,5.36523l-0.53711-0.28564l1.30273-3.51123
			l-3.45313,2.61572l0.27148-4.31299l-2.21289,3.0249L117.6709,309.67383z"/>
		
			<path fill="#A3A3A3" stroke="#A3A3A3" stroke-width="0.25" stroke-linecap="round" stroke-linejoin="round" stroke-miterlimit="10" d="
			M127.42578,308.27979l-1.61328,5.0874l-0.56445-0.17871l1.61328-5.0874L127.42578,308.27979z"/>
		
			<path fill="#A3A3A3" stroke="#A3A3A3" stroke-width="0.25" stroke-linecap="round" stroke-linejoin="round" stroke-miterlimit="10" d="
			M129.7207,311.49268l-0.96484-2.78711l0.66309,0.11621l0.74023,2.17041l1.46777-1.78223l0.66211,0.11719l-1.88965,2.28467
			l1.04395,2.98877l-0.66309-0.11621l-0.82617-2.37305l-1.60254,1.9458l-0.66211-0.11719L129.7207,311.49268z"/>
		
			<path fill="#A3A3A3" stroke="#A3A3A3" stroke-width="0.25" stroke-linecap="round" stroke-linejoin="round" stroke-miterlimit="10" d="
			M135.90332,312.21533c-0.2207-1.57666,0.8457-2.9043,2.36621-3.11719c1.51953-0.21289,2.91016,0.77246,3.12988,2.34814
			c0.21973,1.56787-0.83691,2.90234-2.36621,3.11621C137.50391,314.77686,136.12305,313.7832,135.90332,312.21533z
			 M136.50488,312.13086c0.16895,1.21143,1.2627,2.04297,2.4502,1.87695c1.18848-0.16602,2.01172-1.26611,1.84277-2.47705
			c-0.16895-1.21143-1.2627-2.04395-2.45117-1.87793C137.1582,309.81787,136.33594,310.91846,136.50488,312.13086z"/>
		
			<path fill="#A3A3A3" stroke="#A3A3A3" stroke-width="0.25" stroke-linecap="round" stroke-linejoin="round" stroke-miterlimit="10" d="
			M144.00879,311.27246c0.15723,0.41992,0.3291,0.87695,0.85254,1.06543c0.26563,0.09619,0.65332,0.07959,0.93164-0.02344
			c0.27734-0.10449,0.58008-0.3457,0.7168-0.59326c0.27148-0.4873,0.09961-0.94434-0.05664-1.36377l-1.14844-3.06592
			l0.55469-0.20801l1.2041,3.21582c0.15723,0.41895,0.26465,0.84082,0.13477,1.31787
			c-0.14551,0.52393-0.57129,0.98389-1.20996,1.22217c-0.63672,0.2373-1.25977,0.17285-1.71387-0.12842
			c-0.41113-0.27295-0.60645-0.66113-0.76465-1.08105l-1.2041-3.21582l0.55566-0.2085L144.00879,311.27246z"/>
		
			<path fill="#A3A3A3" stroke="#A3A3A3" stroke-width="0.25" stroke-linecap="round" stroke-linejoin="round" stroke-miterlimit="10" d="
			M148.77148,306.08643l2.44727,4.10596l-0.50781,0.30322l-2.44922-4.10645l-1.11328,0.66455l-0.28711-0.48096l2.73633-1.63135
			l0.28809,0.48096L148.77148,306.08643z"/>
	</g>
	<g>
		<circle fill="none" cx="135" cy="283.44943" r="28.59473"/>
		<path fill="#A3A3A3" d="M143.12305,253.97852c0.38672,0.1084,0.69922,0.24512,0.89551,0.54395
			c0.21582,0.32227,0.18945,0.68262,0.12109,0.92578c-0.15137,0.54492-0.64355,0.9873-1.52246,0.74023l-0.37695-0.10547
			l-0.46875,1.67773l-0.42871-0.12012l1.08105-3.8584L143.12305,253.97852z M142.35352,255.67773l0.35352,0.09961
			c0.50781,0.14258,0.88672-0.02734,1.01172-0.47168c0.17188-0.61328-0.38477-0.83203-0.66309-0.90918l-0.31836-0.08887
			L142.35352,255.67773z"/>
		<path fill="#A3A3A3" d="M146.19336,255.00488l-1.4375,3.73438l-0.41406-0.16016l1.4375-3.7334L146.19336,255.00488z"/>
		<path fill="#A3A3A3" d="M148.55859,256.53125l-1.59375,3.2041l-0.39648-0.19727l1.59375-3.2041l-0.87012-0.43359l0.18652-0.375
			l2.13672,1.0625l-0.18652,0.37598L148.55859,256.53125z"/>
		<path fill="#A3A3A3" d="M152.76563,259.61719c-0.03516-0.17383-0.11133-0.40527-0.22852-0.59961
			c-0.12207-0.19629-0.29395-0.38184-0.48926-0.5127c-0.77051-0.51172-1.75293-0.27051-2.26563,0.49902
			c-0.60254,0.90723-0.16895,1.85059,0.44043,2.25684c0.22559,0.14941,0.48828,0.23145,0.72461,0.25684
			c0.25293,0.03223,0.4707-0.00391,0.57031-0.02344l-0.30566,0.45996c-0.5459,0.01953-0.97168-0.17773-1.22168-0.34375
			c-0.99023-0.6582-1.22656-1.89746-0.58496-2.86426c0.66211-0.99414,1.90039-1.24023,2.90039-0.57324
			c0.2002,0.13184,0.56934,0.41309,0.7666,0.98438L152.76563,259.61719z"/>
		<path fill="#A3A3A3" d="M153.83008,261.46191l1.50977,1.3916l1.10352-1.19629l0.32617,0.30078l-2.71484,2.94531l-0.32715-0.30176
			l1.32715-1.43848l-1.50977-1.39258l-1.32715,1.43945l-0.32715-0.30273l2.71582-2.94434l0.32715,0.30078L153.83008,261.46191z"/>
		<path fill="#A3A3A3" d="M156.06836,267.14648l3.90234-1.74707l-1.99219,3.13086l3.68945-0.53613l-3.20313,2.83203
			l-0.24902-0.38281l2.12598-1.83496l-3.21582,0.46973l1.73926-2.73633l-2.54688,1.18652L156.06836,267.14648z"/>
		<path fill="#A3A3A3" d="M160.74219,270.9248c1.10938-0.44336,2.26953,0.09668,2.69727,1.16602
			c0.42773,1.07129-0.04102,2.26074-1.15039,2.7041c-1.10449,0.44141-2.26758-0.08984-2.69727-1.16504
			C159.16211,272.55273,159.63867,271.36621,160.74219,270.9248z M160.91211,271.34863
			c-0.85352,0.34082-1.26465,1.28809-0.92969,2.125c0.33398,0.83594,1.28418,1.23828,2.13672,0.89746
			c0.85352-0.34082,1.26465-1.28809,0.92969-2.12402C162.71484,271.41113,161.76563,271.00781,160.91211,271.34863z"/>
		<path fill="#A3A3A3" d="M164.61133,275.75293l0.16992,0.79785c0.08398,0.39355,0.16211,0.96094-0.15039,1.54297
			c-0.22266,0.42285-0.65625,0.83984-1.36035,0.99023c-0.82129,0.1748-1.34863-0.13672-1.64941-0.36719
			c-0.38281-0.29297-0.60938-0.6377-0.75781-1.33594l-0.16895-0.79297L164.61133,275.75293z M161.19727,276.93457l0.08203,0.38184
			c0.06641,0.31055,0.19238,0.73242,0.5918,1.0459c0.30859,0.24219,0.74609,0.39355,1.30469,0.27539
			c0.93945-0.20117,1.41016-0.98828,1.19727-1.98145l-0.08008-0.38086L161.19727,276.93457z"/>
	</g>
	<g>
		<circle fill="none" cx="135" cy="283.5" r="28.59473"/>
		<path fill="#A3A3A3" d="M112.57129,262.60254l0.58203-0.57178c0.28613-0.28174,0.7207-0.65088,1.37891-0.70068
			c0.47461-0.03857,1.05859,0.10205,1.5625,0.61426c0.58984,0.59863,0.60938,1.20947,0.57715,1.58545
			c-0.04199,0.47998-0.20996,0.85547-0.71973,1.35596l-0.57617,0.56738L112.57129,262.60254z M115.39844,264.84326l0.27637-0.27393
			c0.22754-0.22266,0.51367-0.55518,0.56445-1.05957c0.03711-0.38965-0.06836-0.83984-0.46875-1.24561
			c-0.67285-0.68311-1.58789-0.65771-2.31055,0.05322l-0.27832,0.27344L115.39844,264.84326z"/>
		<path fill="#A3A3A3" d="M116.54395,259.05078c0.2168-0.16016,0.55176-0.38379,0.91504-0.39648
			c0.28027-0.01318,0.62695,0.11182,0.87891,0.45605c0.36328,0.49365,0.30566,1.09424-0.1582,1.4873l2.08496,0.6875
			l-0.43555,0.32031l-2.01953-0.69092l-0.0918,0.06738l1.03809,1.4126l-0.35742,0.26318l-2.37207-3.22607L116.54395,259.05078z
			 M117.48242,260.66309l0.22754-0.16797c0.44531-0.32617,0.55469-0.73438,0.27734-1.11182
			c-0.13086-0.1792-0.31641-0.31934-0.60547-0.28613c-0.20508,0.02441-0.37695,0.13623-0.53125,0.25l-0.21777,0.15967
			L117.48242,260.66309z"/>
		<path fill="#A3A3A3" d="M119.54785,257.05371l2.04102,3.44336l-0.38184,0.22656l-2.04102-3.44336L119.54785,257.05371z"/>
		<path fill="#A3A3A3" d="M121.17871,256.14111l2.30176,2.30811l-0.24805-3.24951l0.44727-0.20605l0.29688,4.53662l-3.24512-3.18408
			L121.17871,256.14111z"/>
		<path fill="#A3A3A3" d="M127.13086,254.31445l-1.55566,0.48633l0.35352,1.1333l1.51172-0.47217l0.125,0.40039l-1.51172,0.47168
			l0.46289,1.48291l1.55762-0.48633l0.125,0.3999l-1.98047,0.61865l-1.19238-3.81689l1.97949-0.61865L127.13086,254.31445z"/>
	</g>
	<g>
		<circle fill="none" cx="183.01788" cy="44.24549" r="14.57799"/>
		
			<path fill="#A3A3A3" stroke="#A3A3A3" stroke-width="0.25" stroke-linecap="round" stroke-linejoin="round" stroke-miterlimit="10" d="
			M174.80371,30.72362l-1.47363,1.01855l0.25977,1.2627l-0.42578,0.29297L172.25,28.57128l4.05859,2.55371l-0.42578,0.29395
			L174.80371,30.72362z M174.40234,30.46386l-1.53906-0.9834l0.36621,1.79395L174.40234,30.46386z"/>
		
			<path fill="#A3A3A3" stroke="#A3A3A3" stroke-width="0.25" stroke-linecap="round" stroke-linejoin="round" stroke-miterlimit="10" d="
			M178.75586,26.78417c-0.16797-0.08105-0.41016-0.16309-0.64648-0.18848c-0.24023-0.02246-0.50488,0.00391-0.73633,0.08496
			c-0.91602,0.31836-1.33691,1.29395-1.01758,2.20996c0.37598,1.07617,1.43945,1.31152,2.16406,1.05859
			c0.26758-0.09375,0.50293-0.26172,0.67383-0.44141c0.18555-0.19336,0.29492-0.39746,0.3418-0.49219l0.19043,0.5459
			c-0.33008,0.46875-0.7627,0.7002-1.05957,0.80371c-1.17773,0.41211-2.36328-0.17578-2.76367-1.32227
			c-0.41406-1.18457,0.16504-2.37402,1.35352-2.78809c0.23828-0.08398,0.70703-0.21484,1.30957-0.01758L178.75586,26.78417z"/>
		
			<path fill="#A3A3A3" stroke="#A3A3A3" stroke-width="0.25" stroke-linecap="round" stroke-linejoin="round" stroke-miterlimit="10" d="
			M183.77148,26.28808c-0.13965-0.12402-0.34961-0.26953-0.56934-0.35938c-0.22559-0.08984-0.4873-0.1377-0.7334-0.12305
			c-0.96875,0.05176-1.64355,0.87207-1.59082,1.84082c0.0625,1.13965,1.01855,1.66211,1.78809,1.62109
			c0.28223-0.01563,0.55469-0.11328,0.76953-0.23926c0.23242-0.13184,0.39258-0.2998,0.46484-0.37891l0.03223,0.5791
			c-0.44824,0.35938-0.92871,0.46191-1.24316,0.47949c-1.24609,0.06738-2.22461-0.8252-2.29004-2.04199
			c-0.06934-1.25195,0.81836-2.23438,2.07715-2.30371c0.25195-0.01465,0.73828-0.00879,1.26367,0.34766L183.77148,26.28808z"/>
		
			<path fill="#A3A3A3" stroke="#A3A3A3" stroke-width="0.25" stroke-linecap="round" stroke-linejoin="round" stroke-miterlimit="10" d="
			M187.73438,26.4453l-1.68164-0.3291l-0.24023,1.22461l1.63281,0.31934l-0.08594,0.43262l-1.63281-0.31934l-0.3125,1.60156
			l1.68164,0.3291l-0.08398,0.43457l-2.14063-0.4209l0.80859-4.125l2.13965,0.41992L187.73438,26.4453z"/>
		
			<path fill="#A3A3A3" stroke="#A3A3A3" stroke-width="0.25" stroke-linecap="round" stroke-linejoin="round" stroke-miterlimit="10" d="
			M187.92188,30.35741l1.9834-3.9082l1.36816,4.54785l1.47461-2.90625l0.41699,0.21094l-1.98926,3.91895l-1.36816-4.54785
			l-1.46973,2.89551L187.92188,30.35741z"/>
		
			<path fill="#A3A3A3" stroke="#A3A3A3" stroke-width="0.25" stroke-linecap="round" stroke-linejoin="round" stroke-miterlimit="10" d="
			M195.41211,30.69726l-2.50977,2.80371l-0.34766-0.31152l2.50977-2.80371l-0.76172-0.68066l0.29492-0.33008l1.86914,1.67383
			l-0.29395,0.3291L195.41211,30.69726z"/>
	</g>
	<g>
		<circle fill="none" cx="183.01788" cy="44.24549" r="13.74777"/>
		
			<path fill="#A3A3A3" stroke="#A3A3A3" stroke-width="0.25" stroke-linecap="round" stroke-linejoin="round" stroke-miterlimit="10" d="
			M175.6582,57.02538l-2.03613,3.40332l-0.37793-0.22607l2.03613-3.40381L175.6582,57.02538z"/>
		
			<path fill="#A3A3A3" stroke="#A3A3A3" stroke-width="0.25" stroke-linecap="round" stroke-linejoin="round" stroke-miterlimit="10" d="
			M175.52734,61.49022l1.29004-3.92285l1.92285,4.04102l0.95898-2.91748l0.41797,0.13721l-1.29297,3.93311l-1.92383-4.04004
			l-0.95508,2.90527L175.52734,61.49022z"/>
		
			<path fill="#A3A3A3" stroke="#A3A3A3" stroke-width="0.25" stroke-linecap="round" stroke-linejoin="round" stroke-miterlimit="10" d="
			M182.10938,58.97216c0.39844,0.02051,0.72852,0.08545,0.98242,0.33105c0.27832,0.26514,0.33105,0.61963,0.31836,0.86865
			c-0.0293,0.55859-0.41016,1.09229-1.3125,1.04541l-0.38574-0.021l-0.09082,1.72168l-0.43945-0.02295l0.20898-3.96143
			L182.10938,58.97216z M181.73438,60.78026l0.36133,0.01904c0.52344,0.02734,0.85156-0.21631,0.87598-0.6748
			c0.0332-0.62891-0.55176-0.71973-0.83691-0.73486l-0.32617-0.0166L181.73438,60.78026z"/>
		
			<path fill="#A3A3A3" stroke="#A3A3A3" stroke-width="0.25" stroke-linecap="round" stroke-linejoin="round" stroke-miterlimit="10" d="
			M185.21094,61.31835c0.06055,0.32715,0.12695,0.68359,0.48633,0.89063c0.18164,0.104,0.46777,0.14258,0.68359,0.10205
			c0.2168-0.04004,0.46875-0.17822,0.60156-0.34229c0.26172-0.32031,0.19531-0.67676,0.13477-1.00488l-0.44531-2.39209
			l0.43359-0.08057l0.46582,2.50977c0.06152,0.32666,0.08496,0.64941-0.07129,0.98145
			c-0.17383,0.36523-0.5459,0.64648-1.04297,0.7373c-0.49609,0.09229-0.94434-0.03564-1.23828-0.31396
			c-0.26465-0.25391-0.3584-0.5625-0.41895-0.88965l-0.4668-2.50977l0.43262-0.08057L185.21094,61.31835z"/>
		
			<path fill="#A3A3A3" stroke="#A3A3A3" stroke-width="0.25" stroke-linecap="round" stroke-linejoin="round" stroke-miterlimit="10" d="
			M189.36719,58.03417l1.43945,3.24072l-0.40039,0.1792l-1.44141-3.24023l-0.87891,0.38965l-0.16992-0.37891l2.16016-0.96094
			l0.16992,0.37988L189.36719,58.03417z"/>
	</g>
	<g>
		<circle fill="none" cx="134.71875" cy="43.99999" r="14.57799"/>
		
			<path fill="#A3A3A3" stroke="#A3A3A3" stroke-width="0.25" stroke-linecap="round" stroke-linejoin="round" stroke-miterlimit="10" d="
			M116.45703,42.22997l3.74805,0.30664l-0.03711,0.46484l-3.74902-0.30713l-0.08301,1.0166l-0.43945-0.03564l0.20508-2.49805
			l0.43945,0.03516L116.45703,42.22997z"/>
		
			<path fill="#A3A3A3" stroke="#A3A3A3" stroke-width="0.25" stroke-linecap="round" stroke-linejoin="round" stroke-miterlimit="10" d="
			M116.57813,39.07226c0.0791-0.27246,0.21484-0.67188,0.50879-0.91406c0.22559-0.19043,0.59473-0.30615,1.02441-0.18164
			c0.61719,0.17969,0.95215,0.7168,0.81641,1.34033l2.17578-0.75781l-0.1582,0.54443l-2.12402,0.71338l-0.03223,0.11523
			l1.76563,0.51318l-0.13086,0.44824l-4.0332-1.17383L116.57813,39.07226z M118.38965,39.81591l0.08301-0.28467
			c0.16113-0.55615-0.00781-0.96533-0.48047-1.10352c-0.22363-0.06445-0.4668-0.06299-0.68555,0.14844
			c-0.15625,0.15137-0.22754,0.35352-0.28418,0.54688l-0.0791,0.27246L118.38965,39.81591z"/>
		
			<path fill="#A3A3A3" stroke="#A3A3A3" stroke-width="0.25" stroke-linecap="round" stroke-linejoin="round" stroke-miterlimit="10" d="
			M117.88477,35.64159l3.7832,1.81836l-0.20117,0.41943l-3.7832-1.81885L117.88477,35.64159z"/>
		
			<path fill="#A3A3A3" stroke="#A3A3A3" stroke-width="0.25" stroke-linecap="round" stroke-linejoin="round" stroke-miterlimit="10" d="
			M121.7627,33.44433l1.07813-1.37891l0.0791,0.06299c0.36719,0.28516,0.67871,0.70508,0.79883,1.13428
			c0.05664,0.20361,0.22656,0.93604-0.36621,1.69531c-0.76758,0.98145-2.09082,1.13086-3.05176,0.37891
			c-0.96289-0.75244-1.13477-2.07666-0.36328-3.06299c0.24805-0.31787,0.61816-0.62793,1.11914-0.75684
			c0.22949-0.05811,0.48633-0.08154,0.68945-0.07422l0.03516,0.46631c-0.20801-0.01074-0.41211,0.00488-0.58691,0.04443
			c-0.25293,0.05859-0.5957,0.18945-0.90527,0.58691c-0.62402,0.79785-0.45898,1.82227,0.31055,2.42383
			c0.90234,0.70557,1.9209,0.34277,2.41016-0.28271c0.34375-0.44189,0.41992-0.99854,0.23438-1.4458
			c-0.05762-0.14063-0.16602-0.3291-0.36719-0.50244l-0.76758,0.98193L121.7627,33.44433z"/>
		
			<path fill="#A3A3A3" stroke="#A3A3A3" stroke-width="0.25" stroke-linecap="round" stroke-linejoin="round" stroke-miterlimit="10" d="
			M125.64844,29.95067l1.45117-0.98096l0.05664,0.0835c0.26172,0.38574,0.42969,0.88184,0.41113,1.32813
			c-0.00879,0.21143-0.07324,0.96143-0.87207,1.50195c-1.03516,0.69922-2.34082,0.43213-3.02539-0.58105
			c-0.68555-1.01416-0.43945-2.32813,0.59961-3.02979c0.33496-0.22656,0.7832-0.4082,1.29883-0.37598
			c0.23828,0.01465,0.49023,0.07178,0.68164,0.14111l-0.11133,0.45508c-0.19336-0.07373-0.39453-0.12158-0.57227-0.13867
			c-0.25879-0.02246-0.62695-0.00293-1.04395,0.2793c-0.84082,0.56836-0.99902,1.59619-0.45215,2.40625
			c0.64258,0.94971,1.72461,0.91943,2.38281,0.4751c0.46484-0.31494,0.70801-0.8208,0.66992-1.30566
			c-0.01074-0.15234-0.05664-0.36475-0.19336-0.59131l-1.03516,0.69873L125.64844,29.95067z"/>
		
			<path fill="#A3A3A3" stroke="#A3A3A3" stroke-width="0.25" stroke-linecap="round" stroke-linejoin="round" stroke-miterlimit="10" d="
			M129.87109,26.24511l-1.61914,0.55566l0.4043,1.17725l1.57227-0.53906l0.14258,0.41553l-1.57031,0.54102l0.5293,1.5415
			l1.61816-0.55811l0.14355,0.41748l-2.05859,0.7085l-1.36426-3.96924l2.05859-0.70801L129.87109,26.24511z"/>
		
			<path fill="#A3A3A3" stroke="#A3A3A3" stroke-width="0.25" stroke-linecap="round" stroke-linejoin="round" stroke-miterlimit="10" d="
			M132.04883,25.37108c0.28223-0.03516,0.70313-0.06738,1.04297,0.10596c0.26367,0.1333,0.51563,0.42676,0.57031,0.87061
			c0.0791,0.6377-0.2832,1.15967-0.90918,1.28076l1.55566,1.70166l-0.5625,0.06885L132.25,27.72899l-0.11816,0.01416
			l0.22461,1.82813l-0.46289,0.05664l-0.51465-4.17432L132.04883,25.37108z M132.08008,27.33007l0.29492-0.03613
			c0.57617-0.07031,0.88574-0.38818,0.82617-0.87598c-0.0293-0.23193-0.12598-0.45459-0.40723-0.57275
			c-0.2002-0.08398-0.41504-0.0708-0.61621-0.04639l-0.28125,0.03516L132.08008,27.33007z"/>
		
			<path fill="#A3A3A3" stroke="#A3A3A3" stroke-width="0.25" stroke-linecap="round" stroke-linejoin="round" stroke-miterlimit="10" d="
			M137.78516,27.39062l1.91992,0.47363l-0.15918,0.64648l-1.9209-0.47461L137.78516,27.39062z"/>
		
			<path fill="#A3A3A3" stroke="#A3A3A3" stroke-width="0.25" stroke-linecap="round" stroke-linejoin="round" stroke-miterlimit="10" d="
			M145.2832,28.44433c0.34766,0.24023,0.60938,0.48242,0.70313,0.84521c0.10352,0.39258-0.0459,0.7417-0.19629,0.95947
			c-0.33691,0.48682-0.97559,0.75732-1.7627,0.21338l-0.33594-0.23291l-1.03906,1.50146l-0.38281-0.26465l2.38867-3.45508
			L145.2832,28.44433z M143.94141,29.86669l0.31641,0.21777c0.45508,0.31592,0.8877,0.27734,1.16309-0.12109
			c0.37988-0.54932-0.09668-0.95605-0.34668-1.12744l-0.28418-0.19678L143.94141,29.86669z"/>
		
			<path fill="#A3A3A3" stroke="#A3A3A3" stroke-width="0.25" stroke-linecap="round" stroke-linejoin="round" stroke-miterlimit="10" d="
			M148.7998,32.15673l-1.18652-1.23975l-0.90137,0.86328l1.15137,1.20313l-0.31836,0.30469l-1.15234-1.20215l-1.17969,1.12891
			l1.18652,1.23877l-0.31836,0.30566l-1.50879-1.57666l3.03809-2.90869l1.50879,1.57666L148.7998,32.15673z"/>
		
			<path fill="#A3A3A3" stroke="#A3A3A3" stroke-width="0.25" stroke-linecap="round" stroke-linejoin="round" stroke-miterlimit="10" d="
			M150.51367,33.79442c0.14844,0.2417,0.35449,0.61182,0.33789,0.9917c-0.00977,0.29541-0.17188,0.64746-0.55273,0.88232
			c-0.54688,0.3374-1.17188,0.22705-1.54297-0.29199l-0.89746,2.12402l-0.29785-0.48291l0.89453-2.05664l-0.0625-0.10107
			l-1.56738,0.9668l-0.24512-0.39697l3.57813-2.20996L150.51367,33.79442z M148.74609,34.64159l0.15527,0.25195
			c0.30469,0.49316,0.72363,0.64307,1.1416,0.38477c0.19824-0.12354,0.36133-0.30371,0.35059-0.60889
			c-0.00879-0.21777-0.11035-0.40674-0.21582-0.57861l-0.14941-0.2417L148.74609,34.64159z"/>
		
			<path fill="#A3A3A3" stroke="#A3A3A3" stroke-width="0.25" stroke-linecap="round" stroke-linejoin="round" stroke-miterlimit="10" d="
			M152.25,40.14843c0.08594-0.1665,0.17383-0.40625,0.20508-0.64209c0.02832-0.24072,0.00977-0.50586-0.06641-0.74023
			c-0.29688-0.92578-1.26074-1.37109-2.18555-1.07373c-1.08691,0.34863-1.35059,1.40771-1.11523,2.13965
			c0.08594,0.27002,0.25,0.50977,0.42578,0.68457c0.1875,0.19141,0.38867,0.30566,0.48438,0.35449l-0.55273,0.17773
			c-0.46094-0.3418-0.68164-0.78223-0.77832-1.08203c-0.38086-1.18896,0.23633-2.36182,1.39551-2.7334
			c1.19531-0.38379,2.37109,0.22607,2.75684,1.42773c0.07715,0.24023,0.19531,0.71191-0.0166,1.31006L152.25,40.14843z"/>
		
			<path fill="#A3A3A3" stroke="#A3A3A3" stroke-width="0.25" stroke-linecap="round" stroke-linejoin="round" stroke-miterlimit="10" d="
			M150.86328,42.30175c-0.35156,0.01367-0.73633,0.0293-1.00488,0.37402c-0.1377,0.17529-0.22168,0.46777-0.21191,0.70117
			c0.00977,0.23242,0.11523,0.51758,0.26758,0.68262c0.2959,0.32031,0.67969,0.30615,1.03125,0.2915l2.57227-0.10205
			l0.01855,0.46484l-2.69824,0.10791c-0.35156,0.01367-0.69336-0.01025-1.01563-0.22314
			c-0.35742-0.23779-0.59375-0.66992-0.61523-1.2041c-0.02148-0.53467,0.18066-0.98389,0.5166-1.24902
			c0.30469-0.23877,0.64355-0.28955,0.99512-0.3042l2.69824-0.1084l0.01855,0.46484L150.86328,42.30175z"/>
	</g>
	<g>
		<g>
			
				<path fill="#A3A3A3" stroke="#A3A3A3" stroke-width="0.25" stroke-linecap="round" stroke-linejoin="round" stroke-miterlimit="10" d="
				M127.11914,56.91308l-2.23633,3.55322l-0.39453-0.24756l2.2373-3.55371L127.11914,56.91308z"/>
			
				<path fill="#A3A3A3" stroke="#A3A3A3" stroke-width="0.25" stroke-linecap="round" stroke-linejoin="round" stroke-miterlimit="10" d="
				M126.86719,61.62694l1.41992-4.14551l1.98828,4.3125l1.05664-3.08301l0.44141,0.15088l-1.42383,4.15869l-1.98828-4.31348
				l-1.05273,3.07178L126.86719,61.62694z"/>
			
				<path fill="#A3A3A3" stroke="#A3A3A3" stroke-width="0.25" stroke-linecap="round" stroke-linejoin="round" stroke-miterlimit="10" d="
				M133.84766,59.02782c0.42188,0.02393,0.77148,0.09277,1.04102,0.354c0.29395,0.28076,0.34961,0.65674,0.33398,0.92139
				c-0.03125,0.59131-0.43555,1.15527-1.39258,1.104l-0.4082-0.02246l-0.10059,1.82471l-0.46582-0.02588l0.23047-4.19824
				L133.84766,59.02782z M133.44531,60.94384l0.38477,0.021c0.55371,0.02979,0.90234-0.22852,0.92871-0.71289
				c0.03711-0.66748-0.58301-0.76416-0.88477-0.78076l-0.34668-0.01904L133.44531,60.94384z"/>
			
				<path fill="#A3A3A3" stroke="#A3A3A3" stroke-width="0.25" stroke-linecap="round" stroke-linejoin="round" stroke-miterlimit="10" d="
				M137.1543,61.50683c0.06836,0.34668,0.14258,0.72363,0.52344,0.93799c0.19434,0.10791,0.49609,0.146,0.72461,0.10059
				c0.22949-0.04443,0.49609-0.19238,0.63379-0.36768c0.27246-0.34131,0.19922-0.71777,0.13184-1.06396l-0.49414-2.52539
				l0.45703-0.08936l0.51855,2.64893c0.06738,0.34619,0.0957,0.68652-0.06641,1.03857
				c-0.18066,0.38867-0.57129,0.68896-1.0957,0.7915c-0.52441,0.10205-0.99902-0.02881-1.3125-0.3208
				c-0.28223-0.26465-0.38574-0.59131-0.45215-0.93652l-0.51758-2.64941l0.45605-0.08936L137.1543,61.50683z"/>
			
				<path fill="#A3A3A3" stroke="#A3A3A3" stroke-width="0.25" stroke-linecap="round" stroke-linejoin="round" stroke-miterlimit="10" d="
				M141.47949,57.96435l1.60059,3.40088l-0.4209,0.19873l-1.60059-3.3999l-0.92383,0.43408l-0.1875-0.39893l2.26758-1.06738
				l0.1875,0.39893L141.47949,57.96435z"/>
		</g>
	</g>
	<g>
		<circle fill="#262424" stroke="#606266" stroke-width="0.5" stroke-miterlimit="10" cx="135" cy="198.5" r="34.93385"/>
		
			<line fill="none" stroke="#606266" stroke-width="0.75" stroke-miterlimit="10" x1="135" y1="198.5" x2="110.59309" y2="222.90691"/>
		
			<line fill="none" stroke="#606266" stroke-width="0.75" stroke-miterlimit="10" x1="135" y1="198.5" x2="159.70186" y2="223.20186"/>
		<circle fill="#262424" stroke="#606266" stroke-width="0.75" stroke-miterlimit="10" cx="135" cy="198.5" r="23.5"/>
	</g>
	<g>
		<circle fill="none" cx="135" cy="198.5" r="28.59473"/>
		
			<path fill="#A3A3A3" stroke="#A3A3A3" stroke-width="0.25" stroke-linecap="round" stroke-linejoin="round" stroke-miterlimit="10" d="
			M127.46875,223.875l-1.40625,4.56787l-0.56641-0.1748l1.40625-4.56738l-1.23926-0.38086l0.16406-0.53564l3.0459,0.93701
			l-0.16504,0.53467L127.46875,223.875z"/>
		
			<path fill="#A3A3A3" stroke="#A3A3A3" stroke-width="0.25" stroke-linecap="round" stroke-linejoin="round" stroke-miterlimit="10" d="
			M128.49512,226.47021c0.20801-1.57861,1.59082-2.57617,3.11426-2.37598s2.60156,1.52051,2.39355,3.10107
			c-0.20605,1.57031-1.58105,2.57715-3.11426,2.37598C129.35742,229.36914,128.28906,228.0415,128.49512,226.47021z
			 M129.09766,226.55029c-0.15918,1.21387,0.67383,2.30811,1.86523,2.46484c1.18945,0.15576,2.27734-0.68506,2.4375-1.8999
			c0.16016-1.21387-0.67383-2.30811-1.86426-2.46484S129.25781,225.33545,129.09766,226.55029z"/>
		
			<path fill="#A3A3A3" stroke="#A3A3A3" stroke-width="0.25" stroke-linecap="round" stroke-linejoin="round" stroke-miterlimit="10" d="
			M135.55664,229.81885l-0.52734-5.53418l4.55371,3.9458l-0.3916-4.11621l0.58984-0.05615l0.52734,5.54932l-4.55371-3.9458
			l0.3916,4.10107L135.55664,229.81885z"/>
		
			<path fill="#A3A3A3" stroke="#A3A3A3" stroke-width="0.25" stroke-linecap="round" stroke-linejoin="round" stroke-miterlimit="10" d="
			M143.67188,223.54346l-2.0918,0.59082l0.42871,1.52441l2.03223-0.57324l0.15234,0.53809l-2.03223,0.57373l0.56152,1.99316
			l2.09375-0.59033l0.15234,0.53857l-2.66309,0.75195l-1.44824-5.13477l2.66406-0.75195L143.67188,223.54346z"/>
	</g>
	<g id="g8536_1_" transform="matrix(0.33866666,0,0,0.33866666,-6.6675,182.3825)">
		<g id="circle8524_1_">
			<circle fill="#A3A3A3" cx="418.31531" cy="-194.54625" r="66.44112"/>
		</g>
		<g id="line8528_1_">
			<rect x="388.79199" y="-175.27983" fill="#262424" width="6.94959" height="16.38505"/>
		</g>
		<g id="line8528_2_">
			<rect x="414.85715" y="-181.42525" fill="#262424" width="6.94959" height="16.38505"/>
		</g>
		<g id="line8528_3_">
			<rect x="441.66888" y="-175.27983" fill="#262424" width="6.94959" height="16.38505"/>
		</g>
		<g id="circle8532_1_">
			<path fill="#262424" d="M418.32431-159.92912c-22.56467,0-40.92419-18.36714-40.92419-40.93945
				s18.35953-40.93942,40.92419-40.93942c22.5647,0,40.93942,18.36713,40.93942,40.93942S440.88901-159.92912,418.32431-159.92912z
				 M418.32431-234.31183c-18.4357,0-33.42801,14.99995-33.42801,33.44325s14.99231,33.44327,33.42801,33.44327
				s33.44327-14.99995,33.44327-33.44327S436.76001-234.31183,418.32431-234.31183z"/>
		</g>
		<g id="circle8534_1_">
			<path fill="#262424" d="M418.30908-178.72289c-7.05432,0-12.79834-5.75163-12.79834-12.81357s5.74402-12.80594,12.79834-12.80594
				c7.06955,0,12.81357,5.744,12.81357,12.80594S425.37863-178.72289,418.30908-178.72289z M418.30908-196.84624
				c-2.92532,0-5.30215,2.37683-5.30215,5.30978c0,2.93297,2.37683,5.3174,5.30215,5.3174c2.94058,0,5.31741-2.38443,5.31741-5.3174
				C423.6265-194.46941,421.24966-196.84624,418.30908-196.84624z"/>
		</g>
	</g>
	<g>
		<circle fill="none" cx="135.07129" cy="198.57129" r="28.59473"/>
		<path fill="#A3A3A3" d="M109.88672,181.06445l0.49414-0.64941c0.24316-0.31934,0.62207-0.74609,1.26563-0.88916
			c0.46582-0.10498,1.06348-0.0498,1.63574,0.38721c0.66699,0.50879,0.77441,1.11035,0.7959,1.48828
			c0.02539,0.48047-0.08691,0.87646-0.51953,1.44385l-0.49121,0.64404L109.88672,181.06445z M113.00195,182.88135l0.2373-0.30957
			c0.19238-0.25244,0.42871-0.62256,0.40723-1.12939c-0.01758-0.39063-0.1875-0.82129-0.64063-1.16699
			c-0.7627-0.58203-1.66602-0.42578-2.28125,0.38037l-0.23535,0.31006L113.00195,182.88135z"/>
		<path fill="#A3A3A3" d="M113.29688,177.00977c0.19141-0.18994,0.49023-0.45996,0.8457-0.5249
			c0.27734-0.05322,0.63672,0.021,0.93555,0.32373c0.42969,0.43555,0.45996,1.03711,0.05859,1.49219l2.16016,0.37793
			l-0.38477,0.37939l-2.0957-0.39014l-0.08105,0.08008l1.22949,1.24512l-0.31543,0.31152l-2.80957-2.84473L113.29688,177.00977z
			 M114.45703,178.46582l0.2002-0.19727c0.39355-0.3877,0.44238-0.80664,0.11328-1.13965
			c-0.15527-0.1582-0.3584-0.26953-0.63867-0.19531c-0.19922,0.05469-0.35254,0.18896-0.48926,0.32373l-0.19141,0.18945
			L114.45703,178.46582z"/>
		<path fill="#A3A3A3" d="M115.98242,174.60059l2.50781,3.11816l-0.3457,0.27783l-2.50879-3.11768L115.98242,174.60059z"/>
		<path fill="#A3A3A3" d="M117.48242,173.46143l2.59961,1.95264l-0.70605-3.17383l0.41309-0.2666l0.93652,4.4375l-3.65625-2.68359
			L117.48242,173.46143z"/>
		<path fill="#A3A3A3" d="M123.10254,170.80957l-1.47559,0.69922l0.50977,1.07324l1.43164-0.67822l0.17969,0.37891l-1.43164,0.6792
			l0.66602,1.4043l1.47461-0.69922l0.17969,0.37891l-1.87598,0.88965l-1.71387-3.61621l1.875-0.88965L123.10254,170.80957z"/>
		<path fill="#A3A3A3" d="M128.88672,167.98779l0.37988,0.09131l-1.66602,6.13086l-0.37793-0.0791L128.88672,167.98779z"/>
		<path fill="#A3A3A3" d="M133.67773,167.97461c0.40234-0.0166,0.73926,0.01709,1.01855,0.24023
			c0.30469,0.23975,0.3916,0.59082,0.40137,0.84229c0.02344,0.56348-0.30762,1.13623-1.21875,1.17334l-0.39063,0.01514
			l0.07031,1.73877l-0.44238,0.01855l-0.16406-3.99902L133.67773,167.97461z M133.47168,169.82617l0.36621-0.01416
			c0.52734-0.02197,0.83398-0.29883,0.81445-0.76123c-0.02539-0.63477-0.62207-0.6709-0.90918-0.65869l-0.3291,0.01318
			L133.47168,169.82617z"/>
		<path fill="#A3A3A3" d="M136.94922,168.00195l-0.21875,3.99609l-0.44336-0.0249l0.21875-3.99561L136.94922,168.00195z"/>
		<path fill="#A3A3A3" d="M141.66406,169.53125c-0.10352-0.14551-0.2666-0.32568-0.45117-0.45508
			c-0.19141-0.13037-0.42383-0.23145-0.65332-0.27051c-0.91016-0.15723-1.71094,0.45996-1.86816,1.37012
			c-0.18359,1.07031,0.59277,1.75781,1.31348,1.88184c0.2666,0.0459,0.54004,0.01367,0.76465-0.05664
			c0.24414-0.07373,0.42969-0.19434,0.51172-0.25293l-0.09277,0.54395c-0.49121,0.23779-0.95898,0.23047-1.25488,0.17969
			c-1.16992-0.20166-1.88672-1.23877-1.68945-2.37939c0.20215-1.17627,1.2334-1.89941,2.41602-1.69629
			c0.23633,0.0415,0.68652,0.14893,1.09668,0.59131L141.66406,169.53125z"/>
		<path fill="#A3A3A3" d="M144.23633,169.80273l-1.06934,3.41797l-0.42383-0.13232l1.07031-3.41846l-0.92773-0.29004l0.125-0.40039
			l2.2793,0.71289l-0.12598,0.40088L144.23633,169.80273z"/>
		<path fill="#A3A3A3" d="M146.38281,171.87793l1.86035,0.86133l0.68359-1.47461l0.40234,0.18604l-1.68066,3.63037l-0.40234-0.18652
			l0.82129-1.77393l-1.86133-0.8623l-0.82129,1.7749l-0.40332-0.18701l1.68164-3.62988l0.40234,0.18604L146.38281,171.87793z"/>
		<path fill="#A3A3A3" d="M150.24512,176.61084l3.19531-2.84033l-0.95801,3.58398l3.3584-1.62012l-2.20313,3.66406l-0.35156-0.28857
			l1.47461-2.39111l-2.92578,1.41602l0.83496-3.13379l-2.07227,1.8999L150.24512,176.61084z"/>
		<path fill="#A3A3A3" d="M155.82617,178.79053c0.9248-0.75781,2.19336-0.59375,2.92383,0.29834
			c0.73145,0.89209,0.64355,2.16846-0.28125,2.92627c-0.91992,0.75391-2.18945,0.59912-2.9248-0.29834
			C154.80957,180.82031,154.90625,179.54492,155.82617,178.79053z M156.11523,179.14404
			c-0.70996,0.58252-0.81641,1.60889-0.24512,2.30615s1.59863,0.79492,2.30957,0.21191s0.81641-1.60938,0.24609-2.30664
			C157.85352,178.65869,156.82617,178.56104,156.11523,179.14404z"/>
		<path fill="#A3A3A3" d="M160.96191,182.23438l0.40137,0.70996c0.19824,0.34961,0.44238,0.86621,0.32031,1.51465
			c-0.08594,0.46924-0.37207,0.99707-0.99805,1.35156c-0.73047,0.41406-1.32617,0.27588-1.68359,0.14648
			c-0.45117-0.16504-0.77051-0.4248-1.12305-1.0459l-0.39844-0.7041L160.96191,182.23438z M158.06445,184.38574l0.19336,0.33984
			c0.15625,0.27637,0.40234,0.63965,0.87695,0.81885c0.36719,0.13672,0.83008,0.15088,1.3252-0.13037
			c0.83496-0.47266,1.04688-1.36523,0.54688-2.24707l-0.19238-0.33887L158.06445,184.38574z"/>
	</g>
</g>
</svg>
