<?xml version="1.0" encoding="utf-8"?>
<!-- Generator: Adobe Illustrator 24.0.2, SVG Export Plug-In . SVG Version: 6.00 Build 0)  -->
<svg version="1.0" id="Layer_1" xmlns="http://www.w3.org/2000/svg" xmlns:xlink="http://www.w3.org/1999/xlink" x="0px" y="0px"
	 width="270px" height="380px" viewBox="0 0 270 380" enable-background="new 0 0 270 380" xml:space="preserve">
<g id="_x32_">
	<rect y="-0.00002" fill="none" width="270" height="380"/>
	<g>
		<circle fill="#262424" stroke="#606266" stroke-width="0.75" stroke-miterlimit="10" cx="83.5" cy="145.5" r="34.93385"/>
		
			<line fill="none" stroke="#606266" stroke-width="0.75" stroke-miterlimit="10" x1="83.5" y1="145.5" x2="58.79808" y2="170.20192"/>
		
			<line fill="none" stroke="#606266" stroke-width="0.5" stroke-miterlimit="10" x1="83.5" y1="145.5" x2="50.8044" y2="157.82994"/>
		
			<line fill="none" stroke="#606266" stroke-width="0.5" stroke-miterlimit="10" x1="83.5" y1="145.5" x2="116.19559" y2="157.82994"/>
		
			<line fill="none" stroke="#606266" stroke-width="0.75" stroke-miterlimit="10" x1="83.5" y1="145.5" x2="108.20195" y2="170.20195"/>
		<circle fill="#262424" stroke="#606266" stroke-width="0.75" stroke-miterlimit="10" cx="83.5" cy="145.5" r="23.5"/>
	</g>
	<g>
		<circle fill="#262424" stroke="#606266" stroke-width="0.5" stroke-miterlimit="10" cx="186.44551" cy="145.5" r="34.93385"/>
		<circle fill="#262424" stroke="#606266" stroke-width="0.75" stroke-miterlimit="10" cx="186.44551" cy="145.5" r="34.93385"/>
		
			<line fill="none" stroke="#606266" stroke-width="0.5" stroke-miterlimit="10" x1="186.44551" y1="145.5" x2="154.08533" y2="157.70346"/>
		
			<line fill="none" stroke="#606266" stroke-width="0.5" stroke-miterlimit="10" x1="186.44551" y1="145.5" x2="218.80569" y2="157.70346"/>
		
			<line fill="none" stroke="#606266" stroke-width="0.75" stroke-miterlimit="10" x1="186.44551" y1="145.5" x2="161.74948" y2="170.19603"/>
		
			<line fill="none" stroke="#606266" stroke-width="0.75" stroke-miterlimit="10" x1="186.44551" y1="145.5" x2="211.14154" y2="170.19603"/>
		<circle fill="#262424" stroke="#606266" stroke-width="0.75" stroke-miterlimit="10" cx="186.44551" cy="145.5" r="23.5"/>
	</g>
	<g>
		<circle fill="#262424" stroke="#606266" stroke-width="0.5" stroke-miterlimit="10" cx="135" cy="198.5" r="34.93385"/>
		
			<line fill="none" stroke="#606266" stroke-width="0.75" stroke-miterlimit="10" x1="135" y1="198.5" x2="110.59309" y2="222.90691"/>
		
			<line fill="none" stroke="#606266" stroke-width="0.5" stroke-miterlimit="10" x1="135" y1="198.5" x2="102.63982" y2="210.70346"/>
		
			<line fill="none" stroke="#606266" stroke-width="0.5" stroke-miterlimit="10" x1="135" y1="198.5" x2="127.90034" y2="164.28827"/>
		
			<line fill="none" stroke="#606266" stroke-width="0.5" stroke-miterlimit="10" x1="135" y1="198.5" x2="142.09966" y2="164.28824"/>
		
			<line fill="none" stroke="#606266" stroke-width="0.5" stroke-miterlimit="10" x1="135" y1="198.5" x2="167.69551" y2="210.82991"/>
		
			<line fill="none" stroke="#606266" stroke-width="0.75" stroke-miterlimit="10" x1="135" y1="198.5" x2="159.70186" y2="223.20186"/>
		<circle fill="#262424" stroke="#606266" stroke-width="0.75" stroke-miterlimit="10" cx="135" cy="198.5" r="23.5"/>
	</g>
	<g>
		<circle fill="#262424" stroke="#606266" stroke-width="0.5" stroke-miterlimit="10" cx="135" cy="283.5" r="34.93385"/>
		
			<line fill="none" stroke="#606266" stroke-width="0.75" stroke-miterlimit="10" x1="135" y1="283.5" x2="110.30396" y2="308.19604"/>
		
			<line fill="none" stroke="#606266" stroke-width="0.75" stroke-miterlimit="10" x1="135" y1="283.5" x2="159.69603" y2="308.19604"/>
		<line fill="none" stroke="#606266" stroke-width="0.5" stroke-miterlimit="10" x1="135" y1="248.56616" x2="135" y2="283.5"/>
		<circle fill="#262424" stroke="#606266" stroke-width="0.75" stroke-miterlimit="10" cx="135" cy="283.5" r="23.5"/>
	</g>
	<g>
		<circle fill="none" cx="71" cy="351" r="14.578"/>
		
			<path fill="#A3A3A3" stroke="#A3A3A3" stroke-width="0.25" stroke-linecap="round" stroke-linejoin="round" stroke-miterlimit="10" d="
			M56.65625,339.54004l2.96875,2.30273l-0.28613,0.36914l-2.96973-2.30371l-0.625,0.80566l-0.34766-0.27002l1.53516-1.98047
			l0.34863,0.271L56.65625,339.54004z"/>
		
			<path fill="#A3A3A3" stroke="#A3A3A3" stroke-width="0.25" stroke-linecap="round" stroke-linejoin="round" stroke-miterlimit="10" d="
			M58.21777,337.20752l2.89746,3.03955l-0.33594,0.32129l-2.89844-3.03955L58.21777,337.20752z"/>
		
			<path fill="#A3A3A3" stroke="#A3A3A3" stroke-width="0.25" stroke-linecap="round" stroke-linejoin="round" stroke-miterlimit="10" d="
			M59.62402,335.95068l0.71973-0.46387c0.35547-0.229,0.88184-0.51563,1.56934-0.42676
			c0.49707,0.06152,1.06738,0.33008,1.47754,0.9668c0.47656,0.74072,0.36914,1.37402,0.25391,1.75488
			c-0.14648,0.48291-0.39941,0.83447-1.0293,1.24072l-0.71484,0.46045L59.62402,335.95068z M62.05273,338.85938l0.34473-0.22217
			c0.28027-0.18066,0.64648-0.46143,0.80664-0.96924c0.12207-0.39307,0.1084-0.87891-0.21582-1.38232
			c-0.54688-0.84814-1.49512-1.01611-2.38965-0.43896l-0.34473,0.22266L62.05273,338.85938z"/>
		
			<path fill="#A3A3A3" stroke="#A3A3A3" stroke-width="0.25" stroke-linecap="round" stroke-linejoin="round" stroke-miterlimit="10" d="
			M66.12109,333.24854l-1.61719,0.56006l0.4082,1.17773l1.57031-0.54395l0.14355,0.4165l-1.57031,0.54395l0.5332,1.54102
			l1.61816-0.56104l0.14453,0.4165l-2.05859,0.71289l-1.37402-3.96729l2.05762-0.71387L66.12109,333.24854z"/>
		
			<path fill="#A3A3A3" stroke="#A3A3A3" stroke-width="0.25" stroke-linecap="round" stroke-linejoin="round" stroke-miterlimit="10" d="
			M69.60938,333.05566c-0.07031-0.10596-0.17969-0.21973-0.2832-0.28467c-0.08789-0.05127-0.24805-0.11523-0.48633-0.08691
			c-0.41309,0.05078-0.66992,0.34229-0.62305,0.72998c0.01953,0.1626,0.0752,0.25146,0.2002,0.34375
			c0.13965,0.10986,0.30566,0.16064,0.46973,0.21045l0.42188,0.12695c0.25684,0.07715,0.49609,0.1626,0.69238,0.31689
			c0.23926,0.18701,0.35645,0.41992,0.3916,0.7207c0.09375,0.77002-0.41406,1.35205-1.16602,1.44287
			c-0.27539,0.03369-0.62695,0.01855-0.94824-0.229c-0.23145-0.1748-0.39063-0.44775-0.47754-0.69092l0.43555-0.18018
			c0.05859,0.21631,0.18066,0.3916,0.31445,0.50195c0.2041,0.15967,0.41602,0.18555,0.62891,0.15918
			c0.57031-0.06885,0.79004-0.50781,0.73926-0.92773c-0.02246-0.18701-0.09863-0.34375-0.26465-0.46289
			c-0.13281-0.09863-0.30469-0.15479-0.53613-0.22754l-0.39648-0.13086c-0.17188-0.05518-0.38965-0.11768-0.59863-0.27588
			c-0.20313-0.15479-0.33203-0.33545-0.37012-0.64893c-0.07715-0.64355,0.36426-1.13623,1.04004-1.21826
			c0.25781-0.02979,0.4707-0.00537,0.69336,0.1084c0.18164,0.09131,0.3457,0.24365,0.46289,0.41357L69.60938,333.05566z"/>
		
			<path fill="#A3A3A3" stroke="#A3A3A3" stroke-width="0.25" stroke-linecap="round" stroke-linejoin="round" stroke-miterlimit="10" d="
			M76.47949,333.42676l-1.40723-0.34961l-0.30078,1.20508l1.35938,0.33838l-0.10742,0.42822l-1.3584-0.33789l-0.50293,2.02002
			l-0.45313-0.11377l1.0166-4.08203l1.86035,0.46436L76.47949,333.42676z"/>
		
			<path fill="#A3A3A3" stroke="#A3A3A3" stroke-width="0.25" stroke-linecap="round" stroke-linejoin="round" stroke-miterlimit="10" d="
			M77.09375,335.28711c0.60352-1.10059,1.90234-1.43848,2.96484-0.85693c1.06152,0.58203,1.47559,1.85986,0.87305,2.95947
			c-0.59961,1.09473-1.89648,1.44189-2.96387,0.85742C76.90039,337.66113,76.49414,336.38184,77.09375,335.28711z
			 M77.51367,335.51758c-0.46289,0.8457-0.16406,1.88721,0.66602,2.34229c0.8291,0.45361,1.86816,0.14648,2.33203-0.7002
			c0.46289-0.84619,0.16406-1.8877-0.66602-2.34131C79.01563,334.36377,77.97656,334.67188,77.51367,335.51758z"/>
		
			<path fill="#A3A3A3" stroke="#A3A3A3" stroke-width="0.25" stroke-linecap="round" stroke-linejoin="round" stroke-miterlimit="10" d="
			M83.63379,337.06787l-2.5498,2.77148l0.85352,0.78516l-0.29785,0.32471l-1.19824-1.10059l2.84863-3.09619L83.63379,337.06787z"/>
		
			<path fill="#A3A3A3" stroke="#A3A3A3" stroke-width="0.25" stroke-linecap="round" stroke-linejoin="round" stroke-miterlimit="10" d="
			M85.52441,338.97363l0.49316,0.70117c0.24414,0.34424,0.55273,0.85938,0.49219,1.55029
			c-0.04199,0.49951-0.28711,1.08154-0.90625,1.5166c-0.72168,0.50928-1.35938,0.42529-1.74414,0.32764
			c-0.48926-0.12695-0.85156-0.36523-1.2832-0.97803l-0.49023-0.69678L85.52441,338.97363z M82.7168,341.52246l0.23438,0.33447
			c0.19336,0.27295,0.48828,0.62793,1.00391,0.7666c0.39746,0.10547,0.88281,0.07227,1.37305-0.27295
			c0.82422-0.58105,0.95313-1.53564,0.33984-2.40625l-0.23633-0.33594L82.7168,341.52246z"/>
	</g>
	<g>
		
			<ellipse transform="matrix(0.08248 -0.99659 0.99659 0.08248 7.76543 241.42732)" fill="none" cx="134.99962" cy="116.49633" rx="25.57993" ry="25.57996"/>
		<path fill="#A3A3A3" stroke="#A3A3A3" stroke-width="0.25" stroke-miterlimit="10" d="M106.63086,106.01563l4.39648,1.58887
			l-0.17773,0.48828l-4.39551-1.58887L106.63086,106.01563z"/>
		<path fill="#A3A3A3" stroke="#A3A3A3" stroke-width="0.25" stroke-miterlimit="10" d="M107.35547,104.24217l4.28516,1.85889
			l-0.20605,0.47607l-4.28613-1.85986L107.35547,104.24217z"/>
		<path fill="#A3A3A3" stroke="#A3A3A3" stroke-width="0.25" stroke-miterlimit="10" d="M111.65039,104.62449
			c0.08594-0.16797,0.30273-0.23877,0.4707-0.15186c0.16895,0.08545,0.23926,0.30176,0.15332,0.46973
			c-0.08594,0.16895-0.30176,0.23877-0.4707,0.15332C111.63477,105.00977,111.56445,104.79344,111.65039,104.62449z"/>
		<path fill="#A3A3A3" stroke="#A3A3A3" stroke-width="0.25" stroke-miterlimit="10" d="M109.89941,99.43359l3.48926,1.27051
			l-1.96094-3.50488l3.77051,1.30273l-1.83887-3.27783l0.36523-0.44482l2.55371,4.63721l-3.76074-1.31396l1.95508,3.51172
			l-4.9375-1.7373L109.89941,99.43359z"/>
		<path fill="#A3A3A3" stroke="#A3A3A3" stroke-width="0.25" stroke-miterlimit="10" d="M118.66016,95.13572l-1.53125,1.26758
			l0.4082,1.37061l-0.44238,0.3667l-1.46582-5.13965l4.73242,2.43408l-0.44141,0.36572L118.66016,95.13572z M118.19043,94.88719
			l-1.7959-0.93945l0.57813,1.94824L118.19043,94.88719z"/>
		<path fill="#A3A3A3" stroke="#A3A3A3" stroke-width="0.25" stroke-miterlimit="10" d="M118.08984,91.40769l2.98438,2.34961
			l-0.74121-3.7251l0.48926-0.29932l0.97559,5.20508l-4.19727-3.23047L118.08984,91.40769z"/>
		<path fill="#A3A3A3" stroke="#A3A3A3" stroke-width="0.25" stroke-miterlimit="10" d="M124.23633,88.74268l-1.74219,0.76709
			l0.55859,1.26855l1.69141-0.74463l0.19727,0.44775L123.25,91.22654l0.73047,1.6582l1.74316-0.76611l0.19727,0.44775
			l-2.21582,0.97607l-1.88184-4.27295l2.21582-0.97559L124.23633,88.74268z"/>
		<path fill="#A3A3A3" stroke="#A3A3A3" stroke-width="0.25" stroke-miterlimit="10" d="M127.64648,88.11961
			c-0.0957-0.10352-0.23633-0.2085-0.36133-0.25977c-0.10645-0.0415-0.29297-0.0835-0.54883-0.00879
			c-0.44336,0.12988-0.67383,0.49463-0.55273,0.91211c0.05078,0.17529,0.12793,0.26221,0.28125,0.34033
			c0.17383,0.09619,0.36426,0.12158,0.55371,0.14746l0.48535,0.06299c0.29492,0.0376,0.57227,0.08789,0.81445,0.22217
			c0.2959,0.1626,0.4668,0.39746,0.56055,0.71973c0.23926,0.82715-0.21289,1.55664-1.01953,1.7915
			c-0.2959,0.08643-0.68359,0.1333-1.08105-0.08008c-0.28418-0.15088-0.50879-0.42236-0.64746-0.67285l0.44531-0.2749
			c0.10254,0.22559,0.26758,0.39648,0.43555,0.49316c0.25195,0.13916,0.48828,0.12695,0.71777,0.06152
			c0.6123-0.17676,0.77441-0.69922,0.64355-1.14893c-0.05859-0.20215-0.16992-0.35986-0.375-0.46094
			c-0.16211-0.0835-0.36035-0.11279-0.62695-0.15283l-0.45898-0.07129c-0.19727-0.03027-0.44727-0.05957-0.70605-0.1958
			c-0.24902-0.13232-0.42383-0.30713-0.52148-0.64453c-0.20117-0.69189,0.19629-1.30957,0.92188-1.52051
			c0.27539-0.08105,0.51367-0.09131,0.77832-0.0083c0.2168,0.06885,0.42383,0.20557,0.58203,0.37158L127.64648,88.11961z"/>
		<path fill="#A3A3A3" stroke="#A3A3A3" stroke-width="0.25" stroke-miterlimit="10" d="M130.12402,88.57615l2.37402-0.32422
			l-0.25781-1.88135l0.51367-0.06982l0.63281,4.62891l-0.51367,0.0703l-0.30859-2.2627l-2.37402,0.32422L130.5,91.3252
			l-0.51367,0.06982l-0.63281-4.62891l0.51367-0.07031L130.12402,88.57615z"/>
		<path fill="#A3A3A3" stroke="#A3A3A3" stroke-width="0.25" stroke-miterlimit="10" d="M137.04297,89.68113l-1.98633-0.07275
			l-0.60938,1.29395l-0.57324-0.02197l2.3291-4.80859l1.90918,4.96582l-0.57324-0.02051L137.04297,89.68113z M136.85742,89.18406
			l-0.71387-1.896l-0.86621,1.83789L136.85742,89.18406z"/>
		<path fill="#A3A3A3" stroke="#A3A3A3" stroke-width="0.25" stroke-miterlimit="10" d="M140.27441,86.73289
			c0.46094,0.08398,0.83691,0.20996,1.09766,0.53516c0.28418,0.35107,0.29297,0.77197,0.24023,1.06055
			c-0.11816,0.64795-0.6416,1.21338-1.6875,1.02197l-0.44727-0.08154l-0.36426,1.99756l-0.50977-0.09277l0.83789-4.59277
			L140.27441,86.73289z M139.56445,88.78809l0.4209,0.07666c0.60547,0.10986,1.02539-0.12646,1.12207-0.65625
			c0.13379-0.72949-0.53516-0.92285-0.86621-0.98291l-0.37793-0.06934L139.56445,88.78809z"/>
		<path fill="#A3A3A3" stroke="#A3A3A3" stroke-width="0.25" stroke-miterlimit="10" d="M143.36914,87.44529l-1.24902,4.49805
			l-0.49902-0.13867l1.24805-4.49805L143.36914,87.44529z"/>
		<path fill="#A3A3A3" stroke="#A3A3A3" stroke-width="0.25" stroke-miterlimit="10" d="M143.1377,92.17577l1.91504-4.47314
			l1.8457,4.94043l1.42383-3.32764l0.47656,0.20361l-1.91992,4.48682l-1.8457-4.94141l-1.41895,3.31543L143.1377,92.17577z"/>
		<path fill="#A3A3A3" stroke="#A3A3A3" stroke-width="0.25" stroke-miterlimit="10" d="M151.10938,93.70702l1.60352,1.10107
			l-0.0625,0.0918c-0.29395,0.42676-0.7373,0.80176-1.20508,0.96338c-0.22266,0.07764-1.02344,0.31641-1.90625-0.28955
			c-1.14063-0.7832-1.39648-2.23926-0.62891-3.35889c0.76758-1.11865,2.22461-1.40039,3.37207-0.61182
			c0.36914,0.25244,0.73828,0.64209,0.91504,1.18799c0.08203,0.25098,0.125,0.53516,0.13184,0.76025l-0.51465,0.07031
			c-0.00293-0.23047-0.03516-0.45557-0.08984-0.64697c-0.08203-0.27686-0.25195-0.64746-0.71289-0.96436
			c-0.92773-0.63721-2.05273-0.38232-2.66797,0.51074c-0.71973,1.04932-0.24805,2.1543,0.47852,2.65283
			c0.51367,0.35205,1.13672,0.39844,1.62012,0.1626c0.15234-0.07373,0.35449-0.20752,0.53223-0.44092l-1.14258-0.78516
			L151.10938,93.70702z"/>
		<path fill="#A3A3A3" stroke="#A3A3A3" stroke-width="0.25" stroke-miterlimit="10" d="M154.69141,96.59178
			c1.05859-0.90332,2.53906-0.73975,3.40918,0.28223c0.87012,1.02148,0.7959,2.50879-0.2627,3.41113
			c-1.05371,0.89746-2.53516,0.74414-3.40918-0.28271C153.55371,98.97508,153.6377,97.48924,154.69141,96.59178z
			 M155.03516,96.99609c-0.81348,0.69385-0.91406,1.89014-0.23438,2.68896c0.67969,0.79834,1.87793,0.88916,2.69238,0.1958
			c0.81445-0.69434,0.91504-1.8916,0.23535-2.68994C157.04785,96.39353,155.84961,96.30271,155.03516,96.99609z"/>
		<path fill="#A3A3A3" stroke="#A3A3A3" stroke-width="0.25" stroke-miterlimit="10" d="M160.70898,102.36863
			c0.07617-0.11914,0.14355-0.27979,0.16211-0.41309c0.01367-0.11426,0.00684-0.30469-0.12891-0.5332
			c-0.23438-0.39746-0.64453-0.5293-1.01758-0.30859c-0.15723,0.09229-0.22266,0.18848-0.26172,0.35645
			c-0.04883,0.19238-0.02539,0.38184-0.00391,0.57129l0.05957,0.48535c0.03613,0.29492,0.05566,0.57568-0.0127,0.84375
			c-0.08398,0.32666-0.26953,0.54883-0.55859,0.71973c-0.74023,0.43848-1.55859,0.18311-1.98535-0.54102
			c-0.15723-0.26563-0.29785-0.62891-0.19141-1.06592c0.07617-0.31152,0.28223-0.59717,0.49121-0.79297l0.37695,0.36279
			c-0.19336,0.15527-0.31738,0.35742-0.37109,0.54346c-0.07129,0.27783-0.00195,0.50439,0.11914,0.70996
			c0.32422,0.54834,0.86816,0.57617,1.27246,0.33691c0.18066-0.10596,0.30566-0.25293,0.35254-0.47656
			c0.04102-0.17725,0.02051-0.37695-0.00781-0.64502l-0.04492-0.46143c-0.02051-0.19873-0.05273-0.44727,0.01465-0.73096
			c0.06543-0.27441,0.19238-0.48779,0.49316-0.66504c0.62109-0.36768,1.31738-0.13721,1.70117,0.51416
			c0.14648,0.24658,0.21582,0.47412,0.2002,0.75146c-0.0127,0.22754-0.09277,0.46143-0.21387,0.65527L160.70898,102.36863z"/>
		<path fill="#A3A3A3" stroke="#A3A3A3" stroke-width="0.25" stroke-miterlimit="10" d="M162.84863,107.43359
			c0.08203-0.19043,0.16113-0.46338,0.17676-0.72559c0.01172-0.26953-0.0293-0.56152-0.13086-0.81494
			c-0.40039-1.00049-1.50195-1.41797-2.50195-1.01758c-1.17578,0.47021-1.38379,1.66211-1.06641,2.45361
			c0.11621,0.29346,0.31543,0.54492,0.52344,0.72461c0.22266,0.19824,0.45508,0.30859,0.56348,0.35498l-0.59668,0.23975
			c-0.53711-0.34326-0.81543-0.81201-0.94531-1.13721c-0.51465-1.28516,0.07715-2.62939,1.33008-3.13184
			c1.29297-0.51709,2.64063,0.06445,3.16113,1.36377c0.10449,0.26025,0.27246,0.77295,0.08301,1.45166L162.84863,107.43359z"/>
	</g>
	<g>
		<circle fill="none" cx="83.5" cy="145.5" r="28.59473"/>
		<path fill="#A3A3A3" stroke="#A3A3A3" stroke-width="0.25" stroke-linejoin="round" stroke-miterlimit="10" d="
			M76.99219,171.20166l-1.75684-0.54395l-0.4668,1.50391l1.69531,0.52637l-0.16602,0.53564l-1.69629-0.52734l-0.78125,2.521
			l-0.56543-0.17578l1.58105-5.09473l2.32227,0.72021L76.99219,171.20166z"/>
		<path fill="#A3A3A3" stroke="#A3A3A3" stroke-width="0.25" stroke-linejoin="round" stroke-miterlimit="10" d="M77.88477,173.6626
			c0.1543-1.58496,1.50195-2.62793,3.03223-2.47803c1.5293,0.14893,2.64941,1.43213,2.49512,3.01807
			c-0.15332,1.57715-1.49512,2.62842-3.03223,2.47852C78.8418,176.53027,77.73047,175.23975,77.88477,173.6626z M78.48926,173.72168
			c-0.11816,1.21875,0.75098,2.28516,1.94531,2.40137c1.19434,0.1167,2.25293-0.76025,2.37207-1.979
			s-0.74902-2.28613-1.94434-2.40234C79.66797,171.625,78.6084,172.50293,78.48926,173.72168z"/>
		<path fill="#A3A3A3" stroke="#A3A3A3" stroke-width="0.25" stroke-linejoin="round" stroke-miterlimit="10" d="
			M85.64453,171.30811l0.42578,4.75732l1.4668-0.13086l0.0498,0.55762l-2.05566,0.18408l-0.47559-5.31494L85.64453,171.30811z"/>
		<path fill="#A3A3A3" stroke="#A3A3A3" stroke-width="0.25" stroke-linejoin="round" stroke-miterlimit="10" d="
			M88.27734,171.01318l1.05273-0.27539c0.51953-0.13525,1.26953-0.27441,2.06348,0.10693
			c0.5752,0.271,1.1582,0.82178,1.40137,1.75195c0.2832,1.08447-0.09961,1.80518-0.38867,2.21973
			c-0.36719,0.52588-0.8125,0.84912-1.73438,1.08936l-1.0459,0.27393L88.27734,171.01318z M90.05762,175.4873l0.50293-0.13184
			c0.41113-0.10693,0.96484-0.30029,1.35938-0.8501c0.30176-0.42725,0.47852-1.01904,0.28613-1.75586
			c-0.32422-1.23877-1.40137-1.81836-2.71094-1.47607l-0.50391,0.13184L90.05762,175.4873z"/>
	</g>
	<g>
		<path fill="#A3A3A3" d="M54.98047,162.49512c0-1.00684,0.74414-1.75098,1.75977-1.75098s1.75879,0.74414,1.75879,1.75098
			c0,1.00781-0.75195,1.74316-1.75879,1.74316C55.73242,164.23828,54.98047,163.50293,54.98047,162.49512z M55.57227,162.49512
			c0,0.81543,0.57617,1.23145,1.16797,1.23145c0.59961,0,1.16699-0.42383,1.16699-1.23145
			c0-0.81543-0.55957-1.23926-1.16699-1.23926S55.57227,161.6875,55.57227,162.49512z"/>
		<path fill="#A3A3A3" d="M59.97266,161.35156v2.79102h-0.57617v-2.79102h-0.32031v-0.52734h0.32031v-1.44727
			c0-0.30371,0.02344-0.6875,0.32031-0.93555c0.16016-0.13574,0.39941-0.21582,0.66309-0.21582
			c0.20801,0,0.34375,0.04785,0.4082,0.07227v0.55957c-0.12012-0.04785-0.25586-0.07227-0.37598-0.07227
			c-0.12793,0-0.2793,0.03223-0.36719,0.17578c-0.07227,0.12012-0.07227,0.30371-0.07227,0.48047v1.38281h0.81543v0.52734H59.97266z
			"/>
		<path fill="#A3A3A3" d="M62.05273,161.35156v2.79102h-0.57617v-2.79102h-0.32031v-0.52734h0.32031v-1.44727
			c0-0.30371,0.02344-0.6875,0.32031-0.93555c0.16016-0.13574,0.39941-0.21582,0.66309-0.21582
			c0.20801,0,0.34375,0.04785,0.4082,0.07227v0.55957c-0.12012-0.04785-0.25586-0.07227-0.37598-0.07227
			c-0.12793,0-0.2793,0.03223-0.36719,0.17578c-0.07227,0.12012-0.07227,0.30371-0.07227,0.48047v1.38281h0.81543v0.52734H62.05273z
			"/>
	</g>
	<g>
		<circle fill="none" cx="186.44551" cy="145.5" r="28.59473"/>
		<path fill="#A3A3A3" stroke="#A3A3A3" stroke-width="0.25" stroke-linejoin="round" stroke-miterlimit="10" d="
			M173.51563,172.31445l-2.00684-1.06494l-1.27051,1.0293l-0.58008-0.30664l4.79004-3.79102l-0.50586,6.06152l-0.5791-0.30713
			L173.51563,172.31445z M173.57324,171.71045l0.20898-2.30713l-1.80566,1.45996L173.57324,171.71045z"/>
		<path fill="#A3A3A3" stroke="#A3A3A3" stroke-width="0.25" stroke-linejoin="round" stroke-miterlimit="10" d="
			M179.34277,171.53223c-0.02637-0.15918-0.09277-0.34766-0.17871-0.47461c-0.0752-0.10693-0.22656-0.26367-0.51758-0.35498
			c-0.50488-0.15723-0.95313,0.04639-1.10156,0.52002c-0.0625,0.19922-0.04395,0.32959,0.05273,0.50244
			c0.10547,0.20117,0.26953,0.34424,0.43457,0.48779l0.42188,0.3667c0.25781,0.22314,0.48926,0.44678,0.63574,0.72705
			c0.17969,0.34082,0.19336,0.67334,0.07813,1.03906c-0.29297,0.93994-1.18359,1.34912-2.09961,1.06299
			c-0.33691-0.10498-0.73535-0.30469-0.97949-0.75879c-0.17578-0.32324-0.21875-0.72266-0.19238-1.04883l0.59766,0.01807
			c-0.04492,0.28027,0.00586,0.54736,0.10352,0.74463c0.15234,0.2915,0.38477,0.43164,0.64453,0.5127
			c0.69531,0.21729,1.17969-0.17773,1.33887-0.68896c0.07129-0.22852,0.06543-0.44971-0.06543-0.6748
			c-0.10352-0.18359-0.27246-0.33643-0.50195-0.54248l-0.3916-0.35645c-0.1709-0.1543-0.38965-0.33984-0.54883-0.63232
			c-0.15527-0.28369-0.20996-0.56104-0.09082-0.94336c0.24512-0.78662,1.01367-1.125,1.83887-0.86719
			c0.31348,0.09717,0.5459,0.2373,0.74512,0.48438c0.16406,0.20215,0.27539,0.46338,0.32031,0.72021L179.34277,171.53223z"/>
		<path fill="#A3A3A3" stroke="#A3A3A3" stroke-width="0.25" stroke-linejoin="round" stroke-miterlimit="10" d="
			M182.16602,174.13281l-1.32227-3.25098l0.68164,0.09326l1.02344,2.54785l1.6875-2.1748l0.68164,0.09375l-2.16602,2.77197
			l-0.3125,2.27393l-0.58691-0.08057L182.16602,174.13281z"/>
		<path fill="#A3A3A3" stroke="#A3A3A3" stroke-width="0.25" stroke-linejoin="round" stroke-miterlimit="10" d="
			M185.9043,176.87207l0.44727-5.68652l2.39355,4.33301l1.73145-4.66309l1.26855,5.56104l-0.60645,0.04639l-0.79199-3.6626
			l-1.50488,4.06641l-2.09375-3.78516l-0.2373,3.74316L185.9043,176.87207z"/>
		<path fill="#A3A3A3" stroke="#A3A3A3" stroke-width="0.25" stroke-linejoin="round" stroke-miterlimit="10" d="
			M194.26172,175.88379l-1.06738-5.59766l3.44727,3.54395l0.43945-4.94922l2.68848,5.02393l-0.57129,0.20557l-1.72852-3.32227
			l-0.37793,4.31641l-3.01563-3.09668l0.75781,3.66992L194.26172,175.88379z"/>
		<path fill="#A3A3A3" stroke="#A3A3A3" stroke-width="0.25" stroke-linejoin="round" stroke-miterlimit="10" d="
			M201.80273,171.86768c0.18652-0.10791,0.4375-0.0415,0.54688,0.14453c0.10938,0.18799,0.04199,0.43896-0.14453,0.54785
			c-0.1875,0.10889-0.43848,0.0415-0.54688-0.14404C201.54883,172.22803,201.61523,171.97705,201.80273,171.86768z"/>
	</g>
	<g>
		<circle fill="none" cx="135" cy="198.5" r="28.59473"/>
		
			<path fill="#A3A3A3" stroke="#A3A3A3" stroke-width="0.25" stroke-linecap="round" stroke-linejoin="round" stroke-miterlimit="10" d="
			M127.12695,224.31494c-0.02051-0.15967-0.08203-0.35059-0.16309-0.48047c-0.07227-0.10986-0.21973-0.27002-0.50684-0.36914
			c-0.49902-0.17285-0.9541,0.0166-1.11621,0.48535c-0.06738,0.19678-0.05371,0.32813,0.03809,0.50391
			c0.09863,0.20313,0.25977,0.35205,0.41992,0.50098l0.41016,0.37891c0.25,0.22998,0.47559,0.45996,0.61426,0.74561
			c0.16797,0.34521,0.17285,0.67578,0.04688,1.04004c-0.32129,0.9292-1.22363,1.31104-2.13086,0.99805
			c-0.33301-0.11523-0.72461-0.32666-0.95508-0.78711c-0.16504-0.32764-0.19629-0.72754-0.16016-1.0542l0.59668,0.03711
			c-0.05469,0.27734-0.01172,0.54688,0.08008,0.74658c0.14355,0.29541,0.37207,0.44189,0.62891,0.53076
			c0.68848,0.23682,1.18262-0.14063,1.35742-0.64795c0.07813-0.22656,0.07813-0.44678-0.0459-0.67529
			c-0.09668-0.18652-0.26074-0.3457-0.48438-0.55713l-0.37988-0.36865c-0.16602-0.1582-0.37891-0.35059-0.5293-0.64697
			c-0.14648-0.28857-0.19434-0.56738-0.06348-0.94482c0.26855-0.77832,1.0459-1.09424,1.8623-0.8125
			c0.31055,0.10742,0.53906,0.25391,0.73047,0.50732c0.1582,0.20557,0.26172,0.46924,0.29883,0.72852L127.12695,224.31494z"/>
		
			<path fill="#A3A3A3" stroke="#A3A3A3" stroke-width="0.25" stroke-linecap="round" stroke-linejoin="round" stroke-miterlimit="10" d="
			M129.14844,225.99414l2.70215,0.4375l0.34668-2.1416l0.58398,0.09375l-0.85156,5.27246l-0.58398-0.09521l0.41602-2.57617
			l-2.70313-0.43652l-0.41699,2.57617l-0.58496-0.09521l0.85352-5.271l0.58398,0.09424L129.14844,225.99414z"/>
		
			<path fill="#A3A3A3" stroke="#A3A3A3" stroke-width="0.25" stroke-linecap="round" stroke-linejoin="round" stroke-miterlimit="10" d="
			M136.9082,228.18799l-2.27148,0.06445l-0.59766,1.52148l-0.65625,0.01855l2.29883-5.65918l2.54785,5.52246l-0.65527,0.01855
			L136.9082,228.18799z M136.66016,227.63525l-0.95508-2.10938l-0.85254,2.16016L136.66016,227.63525z"/>
		
			<path fill="#A3A3A3" stroke="#A3A3A3" stroke-width="0.25" stroke-linecap="round" stroke-linejoin="round" stroke-miterlimit="10" d="
			M139.57129,223.99268c0.52637-0.09717,0.97852-0.11572,1.38965,0.12549c0.44629,0.25928,0.62598,0.70557,0.6875,1.03564
			c0.13672,0.73877-0.19238,1.55615-1.3877,1.77734l-0.51074,0.09424l0.4209,2.27979l-0.58105,0.10791l-0.96973-5.24463
			L139.57129,223.99268z M139.64844,226.4751l0.47949-0.08838c0.69141-0.12842,1.04395-0.55127,0.93164-1.15674
			c-0.15332-0.8335-0.94629-0.76855-1.32324-0.69873l-0.43262,0.08008L139.64844,226.4751z"/>
		
			<path fill="#A3A3A3" stroke="#A3A3A3" stroke-width="0.25" stroke-linecap="round" stroke-linejoin="round" stroke-miterlimit="10" d="
			M144.81836,223.11572l-2.06445,0.68799l0.5,1.50391l2.00488-0.66748l0.17676,0.53125l-2.00391,0.66748l0.6543,1.9668
			l2.06445-0.68799l0.17773,0.53174l-2.62695,0.87451l-1.68555-5.06494l2.62695-0.87451L144.81836,223.11572z"/>
	</g>
	<g>
		<circle fill="none" cx="135" cy="283.5" r="28.59473"/>
		
			<path fill="#A3A3A3" stroke="#A3A3A3" stroke-width="0.25" stroke-linecap="round" stroke-linejoin="round" stroke-miterlimit="10" d="
			M117.6709,309.67383l3.43262-4.54932l-0.3125,4.93604l3.96484-2.99658l-1.91992,5.36523l-0.53711-0.28564l1.30273-3.51123
			l-3.45313,2.61572l0.27148-4.31299l-2.21289,3.0249L117.6709,309.67383z"/>
		
			<path fill="#A3A3A3" stroke="#A3A3A3" stroke-width="0.25" stroke-linecap="round" stroke-linejoin="round" stroke-miterlimit="10" d="
			M127.42578,308.27979l-1.61328,5.0874l-0.56445-0.17871l1.61328-5.0874L127.42578,308.27979z"/>
		
			<path fill="#A3A3A3" stroke="#A3A3A3" stroke-width="0.25" stroke-linecap="round" stroke-linejoin="round" stroke-miterlimit="10" d="
			M129.7207,311.49268l-0.96484-2.78711l0.66309,0.11621l0.74023,2.17041l1.46777-1.78223l0.66211,0.11719l-1.88965,2.28467
			l1.04395,2.98877l-0.66309-0.11621l-0.82617-2.37305l-1.60254,1.9458l-0.66211-0.11719L129.7207,311.49268z"/>
		
			<path fill="#A3A3A3" stroke="#A3A3A3" stroke-width="0.25" stroke-linecap="round" stroke-linejoin="round" stroke-miterlimit="10" d="
			M135.90332,312.21533c-0.2207-1.57666,0.8457-2.9043,2.36621-3.11719c1.51953-0.21289,2.91016,0.77246,3.12988,2.34814
			c0.21973,1.56787-0.83691,2.90234-2.36621,3.11621C137.50391,314.77686,136.12305,313.7832,135.90332,312.21533z
			 M136.50488,312.13086c0.16895,1.21143,1.2627,2.04297,2.4502,1.87695c1.18848-0.16602,2.01172-1.26611,1.84277-2.47705
			c-0.16895-1.21143-1.2627-2.04395-2.45117-1.87793C137.1582,309.81787,136.33594,310.91846,136.50488,312.13086z"/>
		
			<path fill="#A3A3A3" stroke="#A3A3A3" stroke-width="0.25" stroke-linecap="round" stroke-linejoin="round" stroke-miterlimit="10" d="
			M144.00879,311.27246c0.15723,0.41992,0.3291,0.87695,0.85254,1.06543c0.26563,0.09619,0.65332,0.07959,0.93164-0.02344
			c0.27734-0.10449,0.58008-0.3457,0.7168-0.59326c0.27148-0.4873,0.09961-0.94434-0.05664-1.36377l-1.14844-3.06592
			l0.55469-0.20801l1.2041,3.21582c0.15723,0.41895,0.26465,0.84082,0.13477,1.31787
			c-0.14551,0.52393-0.57129,0.98389-1.20996,1.22217c-0.63672,0.2373-1.25977,0.17285-1.71387-0.12842
			c-0.41113-0.27295-0.60645-0.66113-0.76465-1.08105l-1.2041-3.21582l0.55566-0.2085L144.00879,311.27246z"/>
		
			<path fill="#A3A3A3" stroke="#A3A3A3" stroke-width="0.25" stroke-linecap="round" stroke-linejoin="round" stroke-miterlimit="10" d="
			M148.77148,306.08643l2.44727,4.10596l-0.50781,0.30322l-2.44922-4.10645l-1.11328,0.66455l-0.28711-0.48096l2.73633-1.63135
			l0.28809,0.48096L148.77148,306.08643z"/>
	</g>
	<g>
		<circle fill="none" cx="135" cy="283.5" r="28.59473"/>
		<path fill="#A3A3A3" d="M105.11816,279.37891l3.5498,0.46533l-0.05664,0.43994l-3.55176-0.46484l-0.12598,0.96338l-0.41504-0.0542
			l0.30957-2.3667l0.41602,0.0542L105.11816,279.37891z"/>
		<path fill="#A3A3A3" d="M105.20703,276.57617l3.9043,0.875l-0.09766,0.43262l-3.9043-0.87549L105.20703,276.57617z"/>
		<path fill="#A3A3A3" d="M105.65137,274.78125l0.26758-0.77002c0.13184-0.37939,0.3584-0.90479,0.92578-1.24072
			c0.40918-0.24512,0.99414-0.37842,1.67383-0.14258c0.79395,0.27539,1.08301,0.81396,1.22168,1.16699
			c0.17383,0.44775,0.18945,0.85938-0.04395,1.5332l-0.2666,0.76514L105.65137,274.78125z M109.17969,275.53662l0.12793-0.36816
			c0.10352-0.30078,0.21289-0.72559,0.03613-1.20068c-0.14063-0.36572-0.43555-0.72217-0.97363-0.90918
			c-0.90723-0.31494-1.7168,0.11523-2.04883,1.07324L106.19336,274.5L109.17969,275.53662z"/>
		<path fill="#A3A3A3" d="M108.66504,268.76074l-0.74316,1.45215l1.05762,0.54102l0.7207-1.40967l0.37402,0.19092l-0.7207,1.41016
			l1.38281,0.70801l0.74316-1.45215l0.37402,0.19092l-0.94531,1.84814l-3.5625-1.82324l0.94629-1.84814L108.66504,268.76074z"/>
		<path fill="#A3A3A3" d="M110.8125,266.09766c-0.11914-0.01611-0.26953-0.00879-0.38086,0.0249
			c-0.09277,0.03027-0.23828,0.10596-0.36719,0.29443c-0.22266,0.32764-0.1748,0.69434,0.13281,0.9043
			c0.12988,0.08789,0.22754,0.10352,0.37207,0.07129c0.16699-0.03174,0.30566-0.11816,0.44531-0.20557l0.35547-0.22266
			c0.21582-0.13623,0.42676-0.25391,0.66113-0.29834c0.2832-0.0542,0.52344,0.0083,0.76172,0.1709
			c0.61133,0.41504,0.71094,1.14453,0.30469,1.73975c-0.14844,0.21777-0.37891,0.46045-0.75781,0.53662
			c-0.27051,0.05566-0.56543-0.00049-0.79492-0.09131l0.14453-0.42432c0.18945,0.09277,0.39258,0.11572,0.55664,0.08887
			c0.24121-0.04639,0.39258-0.18311,0.50781-0.35156c0.30664-0.45215,0.12988-0.88477-0.20215-1.11084
			c-0.14941-0.10205-0.30859-0.14502-0.49902-0.1001c-0.15332,0.03418-0.30078,0.12207-0.49805,0.2417l-0.3418,0.20313
			c-0.14746,0.08887-0.32813,0.20508-0.57422,0.25635c-0.23633,0.04883-0.44824,0.02881-0.69629-0.14063
			c-0.51074-0.34814-0.58691-0.97266-0.22168-1.50928c0.13867-0.20361,0.28906-0.34033,0.50977-0.4292
			c0.18164-0.07324,0.39258-0.09668,0.58789-0.07227L110.8125,266.09766z"/>
		<path fill="#A3A3A3" d="M114.48047,261.36523l-0.97754,0.97363l0.83301,0.83838l0.94531-0.93945l0.29492,0.29785l-0.94336,0.93896
			l1.39551,1.4043l-0.31543,0.3125l-2.82129-2.8374l1.29395-1.28564L114.48047,261.36523z"/>
		<path fill="#A3A3A3" d="M116.43066,261.6709c-0.70605-0.9624-0.47461-2.21924,0.45508-2.90088
			c0.92871-0.68164,2.19727-0.5249,2.90332,0.43799c0.70313,0.95801,0.47949,2.21631-0.4541,2.90137
			C118.40039,262.79395,117.13379,262.62988,116.43066,261.6709z M116.79883,261.40137
			c0.54297,0.74121,1.56152,0.90137,2.28711,0.36914c0.72656-0.53223,0.87891-1.55273,0.33594-2.29297
			c-0.54297-0.73975-1.5625-0.90137-2.28711-0.36865C116.4082,259.64111,116.25586,260.66113,116.79883,261.40137z"/>
		<path fill="#A3A3A3" d="M120.51855,256.55811l1.68262,3.16602l0.97559-0.51855l0.19727,0.37207l-1.36816,0.72705l-1.87891-3.53809
			L120.51855,256.55811z"/>
		<path fill="#A3A3A3" d="M122.80664,255.42334l0.76172-0.29004c0.37598-0.14258,0.92188-0.30664,1.54492-0.08789
			c0.44922,0.15527,0.92871,0.51807,1.18457,1.18994c0.2998,0.78467,0.07227,1.35156-0.1084,1.68408
			c-0.23047,0.42188-0.53613,0.69775-1.20313,0.95215l-0.75586,0.2876L122.80664,255.42334z M124.49609,258.60938l0.36426-0.13867
			c0.2959-0.11328,0.69238-0.30225,0.94043-0.74365c0.19141-0.3418,0.27441-0.79688,0.07129-1.32959
			c-0.34082-0.89551-1.19141-1.23926-2.13672-0.87842l-0.36426,0.13867L124.49609,258.60938z"/>
	</g>
	<g>
		<circle fill="none" cx="183.01788" cy="44.24548" r="14.57799"/>
		
			<path fill="#A3A3A3" stroke="#A3A3A3" stroke-width="0.25" stroke-linecap="round" stroke-linejoin="round" stroke-miterlimit="10" d="
			M166.24805,35.74021l3.34863,1.72266l0.53027-1.03223l0.39258,0.20215l-0.74414,1.44727l-3.74121-1.92383L166.24805,35.74021z"/>
		
			<path fill="#A3A3A3" stroke="#A3A3A3" stroke-width="0.25" stroke-linecap="round" stroke-linejoin="round" stroke-miterlimit="10" d="
			M169.2168,32.07811l-1.04492,1.35742l0.98828,0.76074l1.01367-1.31641l0.34863,0.26953l-1.01465,1.31641l1.29199,0.99512
			l1.0459-1.35645l0.34961,0.26855l-1.33008,1.72559l-3.32715-2.5625l1.3291-1.72656L169.2168,32.07811z"/>
		
			<path fill="#A3A3A3" stroke="#A3A3A3" stroke-width="0.25" stroke-linecap="round" stroke-linejoin="round" stroke-miterlimit="10" d="
			M170.10156,30.52244l2.96387,1.70703l-1.1416-3.22363l0.39648-0.33105l1.54297,4.51465l-4.1582-2.33691L170.10156,30.52244z"/>
		
			<path fill="#A3A3A3" stroke="#A3A3A3" stroke-width="0.25" stroke-linecap="round" stroke-linejoin="round" stroke-miterlimit="10" d="
			M175.77051,27.31736l-1.52832,0.77832l0.56641,1.1123l1.4834-0.75488l0.2002,0.39258l-1.4834,0.75586l0.74023,1.45508
			l1.52832-0.77832l0.20117,0.39453l-1.94531,0.98926l-1.90625-3.74805l1.94336-0.98926L175.77051,27.31736z"/>
		
			<path fill="#A3A3A3" stroke="#A3A3A3" stroke-width="0.25" stroke-linecap="round" stroke-linejoin="round" stroke-miterlimit="10" d="
			M177.54785,26.24705l1.07031,3.60156l1.11035-0.33008l0.125,0.42285l-1.55664,0.46191l-1.19531-4.02441L177.54785,26.24705z"/>
		
			<path fill="#A3A3A3" stroke="#A3A3A3" stroke-width="0.25" stroke-linecap="round" stroke-linejoin="round" stroke-miterlimit="10" d="
			M182.82813,27.35643l1.97949,0.0918l-0.03027,0.66504l-1.97949-0.0918L182.82813,27.35643z"/>
		
			<path fill="#A3A3A3" stroke="#A3A3A3" stroke-width="0.25" stroke-linecap="round" stroke-linejoin="round" stroke-miterlimit="10" d="
			M190.83496,29.46482l1.5625,0.79395l-0.0459,0.08984c-0.21094,0.41602-0.5625,0.80273-0.96094,1.00391
			c-0.19043,0.09473-0.87695,0.4043-1.7373-0.0332c-1.11328-0.56543-1.51465-1.83594-0.96094-2.92676
			s1.82324-1.51465,2.94043-0.94629c0.36035,0.18262,0.73633,0.48633,0.95898,0.95313
			c0.10352,0.21387,0.17578,0.46289,0.20801,0.66406l-0.45215,0.12402c-0.03027-0.20703-0.08398-0.4043-0.15723-0.56738
			c-0.10547-0.23828-0.30176-0.5498-0.75098-0.77734c-0.9043-0.45996-1.88086-0.09961-2.32227,0.77148
			c-0.51953,1.02441,0.0332,1.95508,0.74219,2.31445c0.5,0.25391,1.06055,0.2207,1.46582-0.04688
			c0.12793-0.08398,0.29199-0.22852,0.42285-0.45801l-1.11328-0.56445L190.83496,29.46482z"/>
		
			<path fill="#A3A3A3" stroke="#A3A3A3" stroke-width="0.25" stroke-linecap="round" stroke-linejoin="round" stroke-miterlimit="10" d="
			M194.4873,33.36619l-1.30176-1.22754l-1.17969,0.51758l-0.375-0.35449l4.42773-1.87891l-1.65039,4.49707l-0.37598-0.35449
			L194.4873,33.36619z M194.65625,32.92088l0.64063-1.70898l-1.67676,0.73145L194.65625,32.92088z"/>
		
			<path fill="#A3A3A3" stroke="#A3A3A3" stroke-width="0.25" stroke-linecap="round" stroke-linejoin="round" stroke-miterlimit="10" d="
			M198.21289,33.93943l-3.08789,2.14941l-0.26758-0.38281l3.08887-2.15039l-0.58301-0.83691l0.36133-0.25293l1.43359,2.05859
			l-0.3623,0.25195L198.21289,33.93943z"/>
		
			<path fill="#A3A3A3" stroke="#A3A3A3" stroke-width="0.25" stroke-linecap="round" stroke-linejoin="round" stroke-miterlimit="10" d="
			M200.29883,37.9658l-0.68555-1.57031l-1.14258,0.5l0.66602,1.52246l-0.4043,0.17676l-0.66504-1.52344l-1.49512,0.65234
			l0.68555,1.57031l-0.4043,0.17578l-0.87109-1.99707l3.84961-1.68066l0.87109,1.99707L200.29883,37.9658z"/>
	</g>
	<g>
		<circle fill="none" cx="183.01788" cy="44.24548" r="13.74777"/>
		
			<path fill="#A3A3A3" stroke="#A3A3A3" stroke-width="0.25" stroke-linecap="round" stroke-linejoin="round" stroke-miterlimit="10" d="
			M175.6582,57.02537l-2.03613,3.40332l-0.37793-0.22607l2.03613-3.40381L175.6582,57.02537z"/>
		
			<path fill="#A3A3A3" stroke="#A3A3A3" stroke-width="0.25" stroke-linecap="round" stroke-linejoin="round" stroke-miterlimit="10" d="
			M175.52734,61.49021l1.29004-3.92285l1.92285,4.04102l0.95898-2.91748l0.41797,0.13721l-1.29297,3.93311l-1.92383-4.04004
			l-0.95508,2.90527L175.52734,61.49021z"/>
		
			<path fill="#A3A3A3" stroke="#A3A3A3" stroke-width="0.25" stroke-linecap="round" stroke-linejoin="round" stroke-miterlimit="10" d="
			M182.10938,58.97215c0.39844,0.02051,0.72852,0.08545,0.98242,0.33105c0.27832,0.26514,0.33105,0.61963,0.31836,0.86865
			c-0.0293,0.55859-0.41016,1.09229-1.3125,1.04541l-0.38574-0.021l-0.09082,1.72168l-0.43945-0.02295l0.20898-3.96143
			L182.10938,58.97215z M181.73438,60.78025l0.36133,0.01904c0.52344,0.02734,0.85156-0.21631,0.87598-0.6748
			c0.0332-0.62891-0.55176-0.71973-0.83691-0.73486l-0.32617-0.0166L181.73438,60.78025z"/>
		
			<path fill="#A3A3A3" stroke="#A3A3A3" stroke-width="0.25" stroke-linecap="round" stroke-linejoin="round" stroke-miterlimit="10" d="
			M185.21094,61.31834c0.06055,0.32715,0.12695,0.68359,0.48633,0.89063c0.18164,0.104,0.46777,0.14258,0.68359,0.10205
			c0.2168-0.04004,0.46875-0.17822,0.60156-0.34229c0.26172-0.32031,0.19531-0.67676,0.13477-1.00488l-0.44531-2.39209
			l0.43359-0.08057l0.46582,2.50977c0.06152,0.32666,0.08496,0.64941-0.07129,0.98145
			c-0.17383,0.36523-0.5459,0.64648-1.04297,0.7373c-0.49609,0.09229-0.94434-0.03564-1.23828-0.31396
			c-0.26465-0.25391-0.3584-0.5625-0.41895-0.88965l-0.4668-2.50977l0.43262-0.08057L185.21094,61.31834z"/>
		
			<path fill="#A3A3A3" stroke="#A3A3A3" stroke-width="0.25" stroke-linecap="round" stroke-linejoin="round" stroke-miterlimit="10" d="
			M189.36719,58.03416l1.43945,3.24072l-0.40039,0.1792l-1.44141-3.24023l-0.87891,0.38965l-0.16992-0.37891l2.16016-0.96094
			l0.16992,0.37988L189.36719,58.03416z"/>
	</g>
	<path fill="#A3A3A3" d="M135.0166,94.38799c-12.34618,0-22.35229,10.00868-22.35229,22.35357
		c0,12.34618,10.00612,22.35358,22.35229,22.35358s22.35484-10.0074,22.35484-22.35358
		C157.37144,104.39665,147.36276,94.38799,135.0166,94.38799z M139.50449,126.60542c-0.00513,0-0.02563,0-0.0564,0
		c-0.48697,0-3.98296-0.09227-6.57162-2.58099c-1.76338-1.69417-2.68095-4.06754-2.73734-7.04836
		c-0.0974-5.11071-1.25589-6.83307-1.94278-7.40719c-0.49211-0.41521-0.89707-0.37164-0.94833-0.35627
		c-0.93295,0.02307-1.45068,0.2358-1.89665,0.69971c-1.4353,1.47375-1.63522,4.9236-1.58908,6.12823
		c0.0205,0.69458-0.51774,1.27895-1.21488,1.30459c-0.72791-0.04357-1.27127-0.51517-1.30715-1.20975
		c-0.02051-0.55106-0.13328-5.46441,2.29649-7.97363c0.89706-0.92526,2.05043-1.41993,3.34733-1.44043
		c0.46135-0.06664,1.59933-0.11021,2.77834,0.79198c1.89665,1.45325,2.90649,4.62116,2.99876,9.41662
		c0.12814,7.04324,6.14618,7.18164,6.82281,7.15601c5.75659-0.00256,6.71516-8.05051,6.72542-8.13253
		c0.07689-0.69459,0.69716-1.21488,1.38918-1.11493c0.69202,0.0769,1.18925,0.69971,1.11235,1.39173
		C148.31622,119.81847,145.87621,126.60542,139.50449,126.60542z"/>
	<path fill="none" stroke="#A3A3A3" stroke-width="0.75" stroke-linecap="round" stroke-linejoin="round" d="M132.42606,171.2375
		l2.1142-2.90543c0.28601-0.39305,0.74971-0.39305,1.03572,0l2.06525,2.83815"/>
	<path fill="none" stroke="#A3A3A3" stroke-width="0.75" stroke-linecap="round" stroke-linejoin="round" d="M113.20948,215.98599
		v-2.04651c0-0.3075-0.24951-0.55701-0.55713-0.55701h-1.52734l-0.15088-0.302c-0.19629-0.39307-0.51465-0.39307-0.71094,0
		l-0.15088,0.302h-1.56104c-0.30762,0-0.55713,0.24951-0.55713,0.55701v2.04651"/>
	<path fill="none" stroke="#A3A3A3" stroke-width="0.75" stroke-linecap="round" stroke-linejoin="round" d="M162.32089,215.77606
		l-1.05725-2.90544c-0.14243-0.39139-0.37546-0.39139-0.51787,0.00002l-0.7982,2.19385
		c-0.08795,0.24176-0.42986,0.24176-0.51782,0.00002l-0.79831-2.19386c-0.14243-0.3914-0.37547-0.39139-0.51788,0l-1.05708,2.90543"
		/>
	
		<line fill="none" stroke="#A3A3A3" stroke-width="0.75" stroke-linecap="round" stroke-linejoin="round" x1="163.01236" y1="159.56996" x2="165.62582" y2="163.1615"/>
	
		<line fill="none" stroke="#A3A3A3" stroke-width="0.75" stroke-linecap="round" stroke-linejoin="round" x1="158.77417" y1="163.24988" x2="161.45195" y2="159.56996"/>
	
		<line fill="none" stroke="#A3A3A3" stroke-width="0.75" stroke-linecap="round" stroke-linejoin="round" x1="161.45195" y1="157.98439" x2="161.45195" y2="163.25916"/>
	
		<line fill="none" stroke="#A3A3A3" stroke-width="0.75" stroke-linecap="round" stroke-linejoin="round" x1="163.00218" y1="163.24062" x2="163.00218" y2="157.96584"/>
	
		<line fill="none" stroke="#A3A3A3" stroke-width="0.75" stroke-linecap="round" stroke-linejoin="round" x1="212.29947" y1="159.6153" x2="213.62582" y2="163.28059"/>
	
		<line fill="none" stroke="#A3A3A3" stroke-width="0.75" stroke-linecap="round" stroke-linejoin="round" x1="206.63345" y1="163.37079" x2="210.707" y2="159.6153"/>
	
		<line fill="none" stroke="#A3A3A3" stroke-width="0.75" stroke-linecap="round" stroke-linejoin="round" x1="210.707" y1="157.99715" x2="210.707" y2="163.38025"/>
	
		<line fill="none" stroke="#A3A3A3" stroke-width="0.75" stroke-linecap="round" stroke-linejoin="round" x1="212.28908" y1="163.36133" x2="212.28908" y2="157.97823"/>
	<path fill="none" stroke="#A3A3A3" stroke-width="0.75" stroke-linecap="round" stroke-linejoin="round" d="M112.49635,162.69589
		l-0.80414-2.90544c-0.10832-0.39139-0.28557-0.39137-0.39388,0.00002l-0.60711,2.19386
		c-0.06689,0.24174-0.32694,0.24176-0.39384,0.00002l-0.6072-2.19388c-0.10832-0.39139-0.28558-0.39139-0.39388,0.00002
		l-0.59276,2.142c-0.07177,0.25935-0.35077,0.25937-0.42255,0l-0.59285-2.14203c-0.10832-0.39139-0.28557-0.39137-0.39388,0.00002
		l-0.60711,2.19386c-0.06689,0.24174-0.32694,0.24176-0.39384,0.00002l-0.6072-2.19388
		c-0.10832-0.39139-0.28558-0.39139-0.39388,0.00002l-0.80402,2.90541"/>
	<g>
		<circle fill="none" cx="134.71875" cy="43.99998" r="14.57799"/>
		
			<path fill="#A3A3A3" stroke="#A3A3A3" stroke-width="0.25" stroke-linecap="round" stroke-linejoin="round" stroke-miterlimit="10" d="
			M123.45605,29.49168l2.34863,2.93262l-0.36523,0.2915l-2.34668-2.93311l-0.7959,0.63672l-0.27539-0.34326l1.95605-1.56494
			l0.27441,0.34326L123.45605,29.49168z"/>
		
			<path fill="#A3A3A3" stroke="#A3A3A3" stroke-width="0.25" stroke-linecap="round" stroke-linejoin="round" stroke-miterlimit="10" d="
			M125.91992,27.36814c0.25391-0.12793,0.63867-0.30176,1.0166-0.25293c0.29199,0.03467,0.62891,0.2251,0.83105,0.625
			c0.29005,0.57227,0.12695,1.18408-0.4209,1.51074l2.03809,1.07178l-0.50586,0.25635l-1.9707-1.06396l-0.10645,0.05469
			l0.83008,1.64014l-0.41602,0.21094l-1.89746-3.74902L125.91992,27.36814z M126.61328,29.19822l0.26465-0.13379
			c0.5166-0.26123,0.7002-0.66553,0.47949-1.10303c-0.10547-0.2085-0.27246-0.38574-0.57617-0.3999
			c-0.2168-0.01074-0.41406,0.07422-0.59375,0.16553l-0.25391,0.12793L126.61328,29.19822z"/>
		
			<path fill="#A3A3A3" stroke="#A3A3A3" stroke-width="0.25" stroke-linecap="round" stroke-linejoin="round" stroke-miterlimit="10" d="
			M129.48047,25.92967l1.2168,4.02197L130.25,30.08641l-1.21484-4.02295L129.48047,25.92967z"/>
		
			<path fill="#A3A3A3" stroke="#A3A3A3" stroke-width="0.25" stroke-linecap="round" stroke-linejoin="round" stroke-miterlimit="10" d="
			M133.82422,27.30271l1.74805-0.12061l0.00781,0.10059c0.03125,0.46484-0.07129,0.97754-0.31055,1.35498
			c-0.11426,0.17822-0.54492,0.79492-1.50781,0.8623c-1.24414,0.08594-2.24023-0.79932-2.3252-2.01855
			c-0.08398-1.21973,0.78613-2.2334,2.03809-2.32178c0.40234-0.02783,0.88086,0.04102,1.31055,0.32764
			c0.19922,0.13037,0.38867,0.30762,0.51953,0.46289l-0.32422,0.33789c-0.13086-0.16211-0.28027-0.30273-0.42578-0.40723
			c-0.21289-0.14893-0.54102-0.31543-1.04297-0.28076c-1.0127,0.0708-1.66406,0.87939-1.59668,1.85352
			c0.0791,1.14551,1.03027,1.66064,1.82324,1.60596c0.55957-0.03857,1.02344-0.35547,1.23438-0.79346
			c0.06641-0.1377,0.13281-0.34521,0.12793-0.60938l-1.24512,0.08691L133.82422,27.30271z"/>
		
			<path fill="#A3A3A3" stroke="#A3A3A3" stroke-width="0.25" stroke-linecap="round" stroke-linejoin="round" stroke-miterlimit="10" d="
			M139.24414,27.89744l1.69336,0.44092l-0.02441,0.09863c-0.11816,0.44971-0.37891,0.90234-0.72559,1.18311
			c-0.16406,0.1333-0.76953,0.58105-1.70117,0.33887c-1.20703-0.31494-1.86914-1.46973-1.56152-2.65234
			c0.30762-1.18164,1.45605-1.86621,2.66895-1.55078c0.38965,0.10205,0.82129,0.31836,1.13867,0.72607
			c0.14648,0.18799,0.26953,0.41455,0.34375,0.604l-0.41504,0.21777c-0.07324-0.19434-0.16895-0.37695-0.27441-0.52051
			c-0.1543-0.20898-0.41113-0.47217-0.89844-0.59814c-0.98145-0.25586-1.85547,0.30371-2.10156,1.24902
			c-0.28906,1.10791,0.44727,1.89941,1.2168,2.09961c0.54199,0.14111,1.08301-0.01074,1.4209-0.35889
			c0.10645-0.10938,0.23535-0.28418,0.31543-0.53711l-1.20703-0.31348L139.24414,27.89744z"/>
		
			<path fill="#A3A3A3" stroke="#A3A3A3" stroke-width="0.25" stroke-linecap="round" stroke-linejoin="round" stroke-miterlimit="10" d="
			M144.95313,28.70213l-1.48242-0.85889l-0.62695,1.07813l1.43945,0.83496l-0.2207,0.38135l-1.43945-0.83398l-0.81836,1.41162
			l1.48242,0.85889l-0.2207,0.38184l-1.88672-1.09424l2.10742-3.63428l1.88672,1.09326L144.95313,28.70213z"/>
		
			<path fill="#A3A3A3" stroke="#A3A3A3" stroke-width="0.25" stroke-linecap="round" stroke-linejoin="round" stroke-miterlimit="10" d="
			M147.17188,29.90135c0.20898,0.19287,0.50781,0.49268,0.59375,0.86377c0.07031,0.28711,0.00977,0.66943-0.29297,0.99854
			c-0.43555,0.47314-1.06641,0.53564-1.56641,0.13721l-0.28711,2.2876l-0.41797-0.38428l0.30469-2.22217l-0.08887-0.07959
			l-1.24707,1.354l-0.34375-0.31543l2.84961-3.09619L147.17188,29.90135z M145.69922,31.19529l0.21875,0.20068
			c0.42578,0.39209,0.86914,0.42383,1.20313,0.06152c0.15723-0.17188,0.26367-0.39014,0.17188-0.68115
			c-0.06641-0.20752-0.2168-0.36182-0.36426-0.49854l-0.20898-0.19287L145.69922,31.19529z"/>
	</g>
	<g>
		<g>
			
				<path fill="#A3A3A3" stroke="#A3A3A3" stroke-width="0.25" stroke-linecap="round" stroke-linejoin="round" stroke-miterlimit="10" d="
				M127.11914,56.91307l-2.23633,3.55322l-0.39453-0.24756l2.2373-3.55371L127.11914,56.91307z"/>
			
				<path fill="#A3A3A3" stroke="#A3A3A3" stroke-width="0.25" stroke-linecap="round" stroke-linejoin="round" stroke-miterlimit="10" d="
				M126.86719,61.62693l1.41992-4.14551l1.98828,4.3125l1.05664-3.08301l0.44141,0.15088l-1.42383,4.15869l-1.98828-4.31348
				l-1.05273,3.07178L126.86719,61.62693z"/>
			
				<path fill="#A3A3A3" stroke="#A3A3A3" stroke-width="0.25" stroke-linecap="round" stroke-linejoin="round" stroke-miterlimit="10" d="
				M133.84766,59.02781c0.42188,0.02393,0.77148,0.09277,1.04102,0.354c0.29395,0.28076,0.34961,0.65674,0.33398,0.92139
				c-0.03125,0.59131-0.43555,1.15527-1.39258,1.104l-0.4082-0.02246l-0.10059,1.82471l-0.46582-0.02588l0.23047-4.19824
				L133.84766,59.02781z M133.44531,60.94383l0.38477,0.021c0.55371,0.02979,0.90234-0.22852,0.92871-0.71289
				c0.03711-0.66748-0.58301-0.76416-0.88477-0.78076l-0.34668-0.01904L133.44531,60.94383z"/>
			
				<path fill="#A3A3A3" stroke="#A3A3A3" stroke-width="0.25" stroke-linecap="round" stroke-linejoin="round" stroke-miterlimit="10" d="
				M137.1543,61.50682c0.06836,0.34668,0.14258,0.72363,0.52344,0.93799c0.19434,0.10791,0.49609,0.146,0.72461,0.10059
				c0.22949-0.04443,0.49609-0.19238,0.63379-0.36768c0.27246-0.34131,0.19922-0.71777,0.13184-1.06396l-0.49414-2.52539
				l0.45703-0.08936l0.51855,2.64893c0.06738,0.34619,0.0957,0.68652-0.06641,1.03857
				c-0.18066,0.38867-0.57129,0.68896-1.0957,0.7915c-0.52441,0.10205-0.99902-0.02881-1.3125-0.3208
				c-0.28223-0.26465-0.38574-0.59131-0.45215-0.93652l-0.51758-2.64941l0.45605-0.08936L137.1543,61.50682z"/>
			
				<path fill="#A3A3A3" stroke="#A3A3A3" stroke-width="0.25" stroke-linecap="round" stroke-linejoin="round" stroke-miterlimit="10" d="
				M141.47949,57.96434l1.60059,3.40088l-0.4209,0.19873l-1.60059-3.3999l-0.92383,0.43408l-0.1875-0.39893l2.26758-1.06738
				l0.1875,0.39893L141.47949,57.96434z"/>
		</g>
	</g>
</g>
<g>
	
		<path fill="#A3A3A3" stroke="#A3A3A3" stroke-width="0.25" stroke-linecap="round" stroke-linejoin="round" stroke-miterlimit="10" d="
		M182.68906,342.09387l3.19922,0.9502l-1.94922-3.03906l3.45313,0.96484l-1.82813-2.84082l0.30273-0.41895l2.54297,4.02051
		l-3.44531-0.97363l1.94629,3.04395l-4.52441-1.28906L182.68906,342.09387z"/>
	
		<path fill="#A3A3A3" stroke="#A3A3A3" stroke-width="0.25" stroke-linecap="round" stroke-linejoin="round" stroke-miterlimit="10" d="
		M190.67734,337.91907l-1.43945,1.06836l0.30176,1.25293l-0.41504,0.30762l-1.07422-4.69629l4.14355,2.41797l-0.41504,0.30859
		L190.67734,337.91907z M190.26523,337.67297l-1.57031-0.93164l0.42578,1.78125L190.26523,337.67297z"/>
	
		<path fill="#A3A3A3" stroke="#A3A3A3" stroke-width="0.25" stroke-linecap="round" stroke-linejoin="round" stroke-miterlimit="10" d="
		M191.70175,333.95813c0.26172-0.10938,0.6582-0.25586,1.03223-0.18066c0.28906,0.05469,0.61133,0.26855,0.78516,0.68164
		c0.25,0.5918,0.04395,1.19141-0.52539,1.47852l1.96094,1.21191l-0.52344,0.22168l-1.89355-1.19922l-0.11035,0.0459l0.71484,1.69531
		l-0.42969,0.18066l-1.63184-3.87207L191.70175,333.95813z M192.2662,335.83411l0.27246-0.11523
		c0.53516-0.22461,0.74609-0.61523,0.55664-1.06836c-0.09082-0.21387-0.24609-0.40234-0.54883-0.43945
		c-0.21484-0.02441-0.41797,0.04688-0.60352,0.125l-0.26172,0.11133L192.2662,335.83411z"/>
	
		<path fill="#A3A3A3" stroke="#A3A3A3" stroke-width="0.25" stroke-linecap="round" stroke-linejoin="round" stroke-miterlimit="10" d="
		M195.59726,332.71887c0.41406-0.08105,0.76953-0.09863,1.0957,0.08789c0.35352,0.20117,0.5,0.55176,0.55078,0.81152
		c0.11328,0.58301-0.13965,1.22852-1.08008,1.41309l-0.40234,0.0791l0.34961,1.79492l-0.45703,0.08887l-0.80664-4.12988
		L195.59726,332.71887z M195.67636,334.6759l0.37793-0.07422c0.54492-0.10449,0.81934-0.44141,0.72656-0.91895
		c-0.12891-0.65625-0.75391-0.59863-1.05078-0.54004l-0.33984,0.06641L195.67636,334.6759z"/>
	
		<path fill="#A3A3A3" stroke="#A3A3A3" stroke-width="0.25" stroke-linecap="round" stroke-linejoin="round" stroke-miterlimit="10" d="
		M200.41074,333.19348c-0.05566-0.11328-0.14746-0.24121-0.24121-0.31738c-0.08008-0.06543-0.23047-0.14941-0.4707-0.15332
		c-0.41602-0.00684-0.70898,0.24707-0.71484,0.63867c-0.00391,0.16406,0.03906,0.25879,0.15137,0.36816
		c0.12402,0.12695,0.28027,0.19922,0.43652,0.27148l0.40039,0.18262c0.24414,0.11035,0.46973,0.22852,0.64258,0.40723
		c0.21289,0.21777,0.2959,0.46387,0.29102,0.76758c-0.01172,0.77539-0.59375,1.28223-1.34961,1.27148
		c-0.27734-0.00488-0.62305-0.06738-0.9082-0.35547c-0.20508-0.2041-0.32715-0.49707-0.37988-0.75l0.45605-0.11816
		c0.02734,0.2207,0.12598,0.41113,0.24316,0.53906c0.18066,0.18652,0.3877,0.23926,0.60254,0.24316
		c0.57324,0.00879,0.84961-0.39648,0.85742-0.81934c0.00293-0.18945-0.05176-0.35254-0.20117-0.49414
		c-0.11719-0.11523-0.28027-0.19434-0.49902-0.29785l-0.37598-0.18359c-0.16211-0.07715-0.36914-0.16895-0.55469-0.35449
		c-0.17969-0.17969-0.28516-0.37695-0.2793-0.69141c0.00977-0.64941,0.51465-1.07715,1.19531-1.06641
		c0.25781,0.00488,0.46484,0.05859,0.67188,0.2002c0.16797,0.11621,0.31055,0.28809,0.40234,0.47266L200.41074,333.19348z"/>
	
		<path fill="#A3A3A3" stroke="#A3A3A3" stroke-width="0.25" stroke-linecap="round" stroke-linejoin="round" stroke-miterlimit="10" d="
		M207.10507,334.48352l-1.3457-0.53516l-0.45898,1.15332l1.29883,0.5166l-0.16211,0.41113l-1.30078-0.51758l-0.76758,1.93164
		l-0.43262-0.17188l1.55176-3.9043l1.7793,0.70801L207.10507,334.48352z"/>
	
		<path fill="#A3A3A3" stroke="#A3A3A3" stroke-width="0.25" stroke-linecap="round" stroke-linejoin="round" stroke-miterlimit="10" d="
		M207.48203,336.41711c0.74512-1.00977,2.07813-1.16895,3.05078-0.4502c0.97461,0.71875,1.21289,2.03906,0.46875,3.04883
		c-0.74121,1.00293-2.07227,1.17188-3.05078,0.4502C206.97226,338.74231,206.74179,337.42102,207.48203,336.41711z
		 M207.86874,336.70227c-0.57422,0.77539-0.41602,1.84766,0.34375,2.4082c0.76074,0.56152,1.83105,0.39648,2.40332-0.38086
		c0.57324-0.77539,0.41699-1.84668-0.34473-2.40918C209.51132,335.76086,208.44101,335.92493,207.86874,336.70227z"/>
	
		<path fill="#A3A3A3" stroke="#A3A3A3" stroke-width="0.25" stroke-linecap="round" stroke-linejoin="round" stroke-miterlimit="10" d="
		M213.74277,339.08118l-2.90137,2.39844l0.73926,0.89355l-0.34082,0.28125l-1.03613-1.25293l3.24121-2.68066L213.74277,339.08118z"
		/>
	
		<path fill="#A3A3A3" stroke="#A3A3A3" stroke-width="0.25" stroke-linecap="round" stroke-linejoin="round" stroke-miterlimit="10" d="
		M215.35703,341.22571l0.39258,0.76172c0.19434,0.37598,0.42969,0.92773,0.27441,1.60352
		c-0.10938,0.48926-0.43262,1.03125-1.10449,1.37793c-0.78418,0.4043-1.40332,0.23438-1.77148,0.08398
		c-0.46777-0.19141-0.79297-0.47852-1.13672-1.14453l-0.38965-0.75586L215.35703,341.22571z M212.22812,343.36438l0.1875,0.36426
		c0.15332,0.29688,0.39648,0.68945,0.8877,0.89648c0.37988,0.15918,0.86426,0.19238,1.39746-0.08203
		c0.89551-0.46191,1.1543-1.38965,0.66602-2.33691l-0.1875-0.36426L212.22812,343.36438z"/>
</g>
<g>
	<path fill="#A3A3A3" d="M143.93613,254.21301l-0.11816,3.17871l2.3418-2.52051l-0.07031,3.41602l2.18945-2.36133l0.45703,0.18066
		l-3.10742,3.30176l0.08105-3.41211l-2.34766,2.51953l0.11621-4.48242L143.93613,254.21301z"/>
	<path fill="#A3A3A3" d="M150.1207,260.36926l-1.45215-0.89453l-1.00098,0.70898l-0.41895-0.25781l3.76953-2.60645l-0.67188,4.51465
		l-0.41895-0.25879L150.1207,260.36926z M150.19199,259.92004l0.26855-1.71777l-1.42383,1.00586L150.19199,259.92004z"/>
	<path fill="#A3A3A3" d="M154.09531,259.75208c0.20703,0.17188,0.50488,0.44336,0.60449,0.79102
		c0.08008,0.26953,0.04102,0.63477-0.23145,0.96289c-0.39063,0.46875-0.9873,0.55664-1.47949,0.20215l-0.16602,2.18652
		l-0.41406-0.3457l0.18457-2.12305l-0.08789-0.07422l-1.12012,1.3457l-0.34082-0.2832l2.55859-3.07324L154.09531,259.75208z
		 M152.75839,261.04895l0.2168,0.17969c0.42285,0.35352,0.84668,0.36133,1.14453,0.00195
		c0.1416-0.16992,0.2334-0.38281,0.13184-0.6543c-0.07227-0.19336-0.22168-0.33398-0.36914-0.45605l-0.20801-0.17188
		L152.75839,261.04895z"/>
	<path fill="#A3A3A3" d="M156.96054,262.39661c0.2793,0.28906,0.48047,0.5625,0.5,0.91992
		c0.02539,0.38477-0.17871,0.68359-0.35938,0.85938c-0.4043,0.39258-1.05078,0.5293-1.68555-0.125l-0.27246-0.2793l-1.24609,1.21289
		l-0.30957-0.31836l2.86719-2.78906L156.96054,262.39661z M155.44394,263.47864l0.25488,0.26367
		c0.36914,0.37695,0.7793,0.4209,1.11133,0.09863c0.4541-0.44238,0.08398-0.91113-0.11719-1.11621l-0.23047-0.23633
		L155.44394,263.47864z"/>
	<path fill="#A3A3A3" d="M159.28476,266.45715c0.05371-0.10645,0.09766-0.25,0.10156-0.36523
		c0.00195-0.09961-0.02051-0.26074-0.15625-0.44336c-0.23535-0.31836-0.59668-0.39453-0.89551-0.17383
		c-0.125,0.09277-0.17285,0.17969-0.19043,0.32813c-0.02539,0.16699,0.01074,0.32617,0.04688,0.48633l0.09375,0.4082
		c0.05566,0.24902,0.09766,0.48633,0.0625,0.7207c-0.04297,0.28516-0.18066,0.49219-0.41211,0.66309
		c-0.59277,0.43848-1.3125,0.29199-1.74023-0.28613c-0.15625-0.21289-0.30859-0.50977-0.25586-0.89258
		c0.03711-0.27344,0.1875-0.5332,0.34766-0.71875l0.35254,0.27637c-0.15039,0.14844-0.2373,0.33301-0.2666,0.49512
		c-0.03613,0.24316,0.04297,0.43066,0.16406,0.59473c0.32422,0.43848,0.79102,0.41406,1.11328,0.17578
		c0.14453-0.10742,0.23828-0.24316,0.25781-0.43652c0.01953-0.15625-0.01563-0.32422-0.0625-0.55078l-0.0791-0.38867
		c-0.03516-0.16797-0.08496-0.37695-0.05176-0.625c0.03125-0.24023,0.12012-0.43164,0.36133-0.61035
		c0.49609-0.36621,1.11035-0.23145,1.49609,0.28906c0.14453,0.19824,0.22363,0.38574,0.23633,0.62305
		c0.00879,0.19434-0.03906,0.40137-0.12598,0.57715L159.28476,266.45715z"/>
	<path fill="#A3A3A3" d="M162.53769,271.50012l-0.59277-1.24609l-1.06641,0.50781l0.57031,1.20313l-0.37891,0.17969
		l-0.57129-1.20313l-1.78809,0.84961l-0.19043-0.40039l3.61426-1.71777l0.78223,1.64746L162.53769,271.50012z"/>
	<path fill="#A3A3A3" d="M161.60898,273.25012c1.14355-0.3457,2.25195,0.29297,2.58398,1.39648
		c0.33301,1.10449-0.2373,2.24805-1.38184,2.59375c-1.1377,0.3418-2.25098-0.28711-2.58496-1.39746
		S160.47031,273.59192,161.60898,273.25012z M161.73984,273.68665c-0.87988,0.26563-1.37109,1.17285-1.11133,2.03516
		c0.26074,0.8623,1.17188,1.34668,2.05176,1.08105c0.87891-0.26563,1.37109-1.17188,1.11035-2.03516
		C163.53085,273.9054,162.61972,273.42102,161.73984,273.68665z"/>
	<path fill="#A3A3A3" d="M165.0621,278.78528l-3.54102,0.53516l0.16504,1.0918l-0.41504,0.0625l-0.23047-1.53027l3.95508-0.59863
		L165.0621,278.78528z"/>
	<path fill="#A3A3A3" d="M165.38242,281.32825l0.02148,0.81641c0.01172,0.40137-0.01563,0.97266-0.42773,1.4873
		c-0.2959,0.375-0.79688,0.70605-1.5166,0.72461c-0.83887,0.02246-1.2998-0.37891-1.55371-0.65918
		c-0.32031-0.3584-0.48242-0.73828-0.50098-1.4502l-0.02148-0.81055L165.38242,281.32825z M161.81406,281.86926l0.01074,0.38965
		c0.00879,0.31836,0.05664,0.75488,0.39063,1.13574c0.26074,0.29297,0.66309,0.52246,1.23145,0.50684
		c0.96094-0.02637,1.56543-0.71387,1.53809-1.72754l-0.01074-0.38965L161.81406,281.86926z"/>
</g>
</svg>
