<?xml version="1.0" encoding="utf-8"?>
<!-- Generator: Adobe Illustrator 24.0.2, SVG Export Plug-In . SVG Version: 6.00 Build 0)  -->
<svg version="1.0" id="Layer_1" xmlns="http://www.w3.org/2000/svg" xmlns:xlink="http://www.w3.org/1999/xlink" x="0px" y="0px"
	 width="270px" height="380px" viewBox="0 0 270 380" enable-background="new 0 0 270 380" xml:space="preserve">
<g id="_x31_3">
	<rect y="-0.00001" fill="none" width="270" height="380"/>
	<g>
		<circle fill="#262424" stroke="#606266" stroke-width="0.5" stroke-miterlimit="10" cx="83.47665" cy="145.47665" r="34.93385"/>
		
			<line fill="none" stroke="#606266" stroke-width="0.75" stroke-miterlimit="10" x1="83.47665" y1="145.47665" x2="59.06974" y2="169.88356"/>
		
			<line fill="none" stroke="#606266" stroke-width="0.5" stroke-miterlimit="10" x1="83.47665" y1="145.47665" x2="51.11647" y2="157.6801"/>
		
			<line fill="none" stroke="#606266" stroke-width="0.5" stroke-miterlimit="10" x1="83.47665" y1="145.47665" x2="116.17216" y2="157.80656"/>
		
			<line fill="none" stroke="#606266" stroke-width="0.5" stroke-miterlimit="10" x1="83.47665" y1="145.47665" x2="83.47665" y2="110.5428"/>
		
			<line fill="none" stroke="#606266" stroke-width="0.75" stroke-miterlimit="10" x1="83.47665" y1="145.47665" x2="108.1785" y2="170.17851"/>
		<circle fill="#262424" stroke="#606266" stroke-width="0.75" stroke-miterlimit="10" cx="83.47665" cy="145.47665" r="23.5"/>
	</g>
	<g>
		<circle fill="#262424" stroke="#606266" stroke-width="0.5" stroke-miterlimit="10" cx="186.5" cy="145.44551" r="34.93385"/>
		
			<line fill="none" stroke="#606266" stroke-width="0.75" stroke-miterlimit="10" x1="186.5" y1="145.44551" x2="162.09309" y2="169.85242"/>
		
			<line fill="none" stroke="#606266" stroke-width="0.75" stroke-miterlimit="10" x1="186.5" y1="145.44551" x2="211.20186" y2="170.14737"/>
		<circle fill="#262424" stroke="#606266" stroke-width="0.75" stroke-miterlimit="10" cx="186.5" cy="145.44551" r="23.5"/>
	</g>
	<g>
		<circle fill="#262424" stroke="#606266" stroke-width="0.5" stroke-miterlimit="10" cx="135" cy="283.5" r="34.93385"/>
		
			<line fill="none" stroke="#606266" stroke-width="0.75" stroke-miterlimit="10" x1="135" y1="283.5" x2="110.30396" y2="308.19604"/>
		
			<line fill="none" stroke="#606266" stroke-width="0.75" stroke-miterlimit="10" x1="135" y1="283.5" x2="159.69603" y2="308.19604"/>
		<line fill="none" stroke="#606266" stroke-width="0.5" stroke-miterlimit="10" x1="135" y1="248.56616" x2="135" y2="283.5"/>
		<circle fill="#262424" stroke="#606266" stroke-width="0.75" stroke-miterlimit="10" cx="135" cy="283.5" r="23.5"/>
	</g>
	<g>
		<circle fill="none" cx="71" cy="351" r="14.578"/>
		
			<path fill="#A3A3A3" stroke="#A3A3A3" stroke-width="0.25" stroke-linecap="round" stroke-linejoin="round" stroke-miterlimit="10" d="
			M57.30664,345.43994l-3.4375-2.89063l3.87305,0.45166l-2.19531-3.24512l4.14355,1.73389l-0.24707,0.41113l-2.70898-1.17139
			l1.91602,2.82666l-3.38477-0.39258l2.28906,1.86768L57.30664,345.43994z"/>
		
			<path fill="#A3A3A3" stroke="#A3A3A3" stroke-width="0.25" stroke-linecap="round" stroke-linejoin="round" stroke-miterlimit="10" d="
			M58.72852,339.46436c-0.79688-0.96729-0.62695-2.29736,0.30664-3.06543s2.27148-0.68018,3.06836,0.28809
			c0.79199,0.9624,0.63281,2.29346-0.30664,3.06543C60.85938,340.52588,59.52148,340.42822,58.72852,339.46436z M59.09863,339.16016
			c0.6123,0.74365,1.68848,0.85352,2.41895,0.25244c0.72852-0.6001,0.82813-1.67822,0.21582-2.42139
			c-0.6123-0.74414-1.68848-0.85254-2.41895-0.25244C58.58594,337.33984,58.48633,338.41602,59.09863,339.16016z"/>
		
			<path fill="#A3A3A3" stroke="#A3A3A3" stroke-width="0.25" stroke-linecap="round" stroke-linejoin="round" stroke-miterlimit="10" d="
			M62.52734,334.14258l0.79297-0.3252c0.38965-0.15967,0.95996-0.3457,1.61914-0.13232
			c0.47656,0.15186,0.98926,0.521,1.27539,1.21924c0.33398,0.81641,0.11133,1.41895-0.07031,1.77197
			c-0.23242,0.44922-0.54492,0.74756-1.23828,1.03076l-0.78711,0.32275L62.52734,334.14258z M64.38281,337.44531l0.37891-0.15479
			c0.30859-0.12695,0.7207-0.33545,0.9707-0.80664c0.19141-0.36279,0.26563-0.84375,0.03906-1.39795
			c-0.38086-0.93213-1.2832-1.27148-2.26758-0.86768l-0.37891,0.15479L64.38281,337.44531z"/>
		
			<path fill="#A3A3A3" stroke="#A3A3A3" stroke-width="0.25" stroke-linecap="round" stroke-linejoin="round" stroke-miterlimit="10" d="
			M69.9082,335.21875l-1.77734,0.22363l-0.35254,1.23828l-0.5127,0.06543l1.37109-4.61475l2.41992,4.13867l-0.5127,0.06396
			L69.9082,335.21875z M69.67188,334.80371l-0.91016-1.58203l-0.50391,1.75928L69.67188,334.80371z"/>
		
			<path fill="#A3A3A3" stroke="#A3A3A3" stroke-width="0.25" stroke-linecap="round" stroke-linejoin="round" stroke-miterlimit="10" d="
			M72.44336,332.24121l-0.30664,3.74756l1.15527,0.09521l-0.03613,0.43994l-1.61914-0.13281l0.34277-4.1875L72.44336,332.24121z"/>
		
			<path fill="#A3A3A3" stroke="#A3A3A3" stroke-width="0.25" stroke-linecap="round" stroke-linejoin="round" stroke-miterlimit="10" d="
			M78.47949,333.73779c0.25684,0.11768,0.63379,0.31152,0.83105,0.6377c0.1543,0.25146,0.21484,0.63184,0.02734,1.03955
			c-0.26758,0.58398-0.84961,0.83691-1.44531,0.61084l0.42969,2.26318l-0.51465-0.23486l-0.39453-2.20605l-0.1084-0.05078
			l-0.76758,1.67188l-0.42383-0.19482l1.75391-3.81787L78.47949,333.73779z M77.47754,335.42041l0.26953,0.12305
			c0.52637,0.24219,0.95703,0.13379,1.16211-0.31152c0.09766-0.2124,0.13184-0.45215-0.0459-0.70068
			c-0.12695-0.17676-0.31543-0.27686-0.49902-0.36133l-0.25781-0.11816L77.47754,335.42041z"/>
		
			<path fill="#A3A3A3" stroke="#A3A3A3" stroke-width="0.25" stroke-linecap="round" stroke-linejoin="round" stroke-miterlimit="10" d="
			M82.9043,336.96875l-1.375-1.02295l-0.74414,1.00195l1.33594,0.99268l-0.26367,0.35352l-1.33594-0.99268l-0.97266,1.31006
			l1.375,1.02344l-0.26367,0.35205l-1.75-1.2998l2.50879-3.37305l1.74902,1.30029L82.9043,336.96875z"/>
		
			<path fill="#A3A3A3" stroke="#A3A3A3" stroke-width="0.25" stroke-linecap="round" stroke-linejoin="round" stroke-miterlimit="10" d="
			M85.04297,339.76221c0.04883-0.11768,0.08008-0.271,0.0752-0.39258c-0.00684-0.10254-0.04395-0.27051-0.20215-0.45068
			c-0.27344-0.31396-0.6582-0.36133-0.95215-0.10352c-0.12402,0.10693-0.16504,0.20313-0.1709,0.35791
			c-0.0127,0.17822,0.03906,0.34229,0.09082,0.50586l0.13184,0.42041c0.08203,0.25586,0.14551,0.50098,0.12891,0.74951
			c-0.02051,0.30273-0.14746,0.53027-0.375,0.729c-0.58301,0.50977-1.34961,0.41846-1.84668-0.15039
			c-0.18262-0.20898-0.36816-0.50684-0.34473-0.91113c0.01367-0.28955,0.14941-0.57568,0.30176-0.78369l0.39355,0.25928
			c-0.14551,0.16797-0.2207,0.36865-0.2373,0.54199c-0.0166,0.25732,0.08105,0.44629,0.22266,0.60742
			c0.37793,0.43262,0.86426,0.36719,1.18066,0.08887c0.14258-0.12451,0.22852-0.27441,0.23438-0.48047
			c0.00586-0.16406-0.04492-0.33643-0.11426-0.56885l-0.11621-0.40088c-0.05078-0.17285-0.12109-0.38721-0.10742-0.6499
			c0.01172-0.25391,0.08887-0.46338,0.32617-0.6709c0.48828-0.42676,1.14258-0.33838,1.59082,0.17383
			c0.16895,0.19385,0.26855,0.38379,0.30078,0.63086c0.02637,0.20361-0.00586,0.4248-0.08105,0.61621L85.04297,339.76221z"/>
		
			<path fill="#A3A3A3" stroke="#A3A3A3" stroke-width="0.25" stroke-linecap="round" stroke-linejoin="round" stroke-miterlimit="10" d="
			M85.12891,341.84326c1.13281-0.5376,2.38281-0.04834,2.90039,1.04541c0.51758,1.09326,0.10547,2.36963-1.02832,2.90625
			c-1.12793,0.53418-2.37988,0.0542-2.90137-1.04492C83.58008,343.65039,84.00195,342.37744,85.12891,341.84326z
			 M85.33398,342.27637c-0.87109,0.4126-1.23926,1.43018-0.83496,2.28467c0.40527,0.85352,1.42578,1.21387,2.2959,0.80127
			c0.87305-0.4126,1.24023-1.43066,0.83594-2.28467C87.22656,342.22412,86.20508,341.8623,85.33398,342.27637z"/>
	</g>
	<g>
		<circle fill="none" cx="199.5" cy="351.03378" r="14.578"/>
		
			<path fill="#A3A3A3" stroke="#A3A3A3" stroke-width="0.25" stroke-linecap="round" stroke-linejoin="round" stroke-miterlimit="10" d="
			M190.44922,335.00439l-1.43164,0.93994l0.68457,1.04199l1.38965-0.91309l0.24121,0.36865l-1.38867,0.91309l0.89453,1.3623
			l1.43164-0.94043l0.24121,0.36865l-1.81934,1.19629l-2.30566-3.51025l1.82031-1.19482L190.44922,335.00439z"/>
		
			<path fill="#A3A3A3" stroke="#A3A3A3" stroke-width="0.25" stroke-linecap="round" stroke-linejoin="round" stroke-miterlimit="10" d="
			M193.34863,335.40918l-1.77344-1.50244l0.49609-0.18652l1.37305,1.1748l0.28027-1.79785l0.49609-0.1875l-0.36523,2.30811
			l1.9082,1.6084l-0.49609,0.18506l-1.51367-1.27588l-0.30469,1.9624l-0.49609,0.18652L193.34863,335.40918z"/>
		
			<path fill="#A3A3A3" stroke="#A3A3A3" stroke-width="0.25" stroke-linecap="round" stroke-linejoin="round" stroke-miterlimit="10" d="
			M199.10156,333.06885c-0.14648-0.11621-0.36523-0.24902-0.58984-0.32422c-0.23047-0.07324-0.49609-0.10547-0.74023-0.07764
			c-0.96387,0.11475-1.58594,0.9751-1.47168,1.93945c0.13379,1.1333,1.12207,1.59424,1.88574,1.50391
			c0.28125-0.0332,0.54785-0.14697,0.75293-0.28662c0.22363-0.14648,0.37402-0.32275,0.44043-0.40674l0.06836,0.57617
			c-0.42383,0.38623-0.89746,0.51855-1.20996,0.55518c-1.24023,0.14648-2.27246-0.68457-2.41406-1.89209
			c-0.14746-1.24561,0.67578-2.28369,1.92871-2.43018c0.25-0.0293,0.73633-0.05664,1.28223,0.26709L199.10156,333.06885z"/>
		
			<path fill="#A3A3A3" stroke="#A3A3A3" stroke-width="0.25" stroke-linecap="round" stroke-linejoin="round" stroke-miterlimit="10" d="
			M201.27344,332.30371l-0.34375,4.1875l-0.46387-0.0376l0.34277-4.18848L201.27344,332.30371z"/>
		
			<path fill="#A3A3A3" stroke="#A3A3A3" stroke-width="0.25" stroke-linecap="round" stroke-linejoin="round" stroke-miterlimit="10" d="
			M204.06152,333.23779l-0.89063,3.65186l-0.4541-0.11035l0.89258-3.65234l-0.99121-0.2417l0.10449-0.42822l2.43555,0.59424
			l-0.10547,0.42725L204.06152,333.23779z"/>
		
			<path fill="#A3A3A3" stroke="#A3A3A3" stroke-width="0.25" stroke-linecap="round" stroke-linejoin="round" stroke-miterlimit="10" d="
			M208.44141,334.9502l-1.54688-0.7373l-0.53711,1.12549l1.50195,0.71582l-0.18945,0.39795l-1.50195-0.71631l-0.70215,1.47314
			l1.54688,0.7373l-0.18945,0.39795l-1.96777-0.93701l1.80762-3.79297l1.96777,0.9375L208.44141,334.9502z"/>
		
			<path fill="#A3A3A3" stroke="#A3A3A3" stroke-width="0.25" stroke-linecap="round" stroke-linejoin="round" stroke-miterlimit="10" d="
			M210.75293,335.9585c0.22363,0.17383,0.5459,0.44873,0.66211,0.81152c0.09375,0.28027,0.06543,0.66553-0.20996,1.01904
			c-0.39551,0.50732-1.01953,0.62109-1.54883,0.26514l-0.09961,2.30322l-0.44727-0.34912l0.12109-2.23877l-0.09473-0.07373
			l-1.13184,1.45264l-0.36816-0.28613l2.58398-3.31787L210.75293,335.9585z M209.3916,337.36816l0.2334,0.18115
			c0.45801,0.35693,0.90234,0.35107,1.2041-0.03711c0.14355-0.18359,0.23145-0.41016,0.11621-0.69238
			c-0.08398-0.20068-0.24512-0.34326-0.4043-0.46582l-0.22461-0.17578L209.3916,337.36816z"/>
	</g>
	<g>
		
			<ellipse transform="matrix(0.08248 -0.99659 0.99659 0.08248 7.76603 241.4274)" fill="none" cx="135" cy="116.49604" rx="25.58" ry="25.58002"/>
		<path fill="#A3A3A3" stroke="#A3A3A3" stroke-width="0.25" stroke-miterlimit="10" d="M107.93457,109.37354l-2.50293,0.60938
			l0.15527-0.56689l1.94824-0.46387l-1.42773-1.42432l0.15625-0.56592l1.83008,1.83105l2.68457-0.65918l-0.15527,0.56592
			l-2.13184,0.52295l1.55957,1.5542l-0.15625,0.56592L107.93457,109.37354z"/>
		<path fill="#A3A3A3" stroke="#A3A3A3" stroke-width="0.25" stroke-miterlimit="10" d="M106.86426,105.42236l4.35547,1.67627
			l-0.18555,0.48438l-4.35547-1.67725L106.86426,105.42236z"/>
		<path fill="#A3A3A3" stroke="#A3A3A3" stroke-width="0.25" stroke-miterlimit="10" d="M107.64063,103.6372l4.23438,1.95703
			l-0.2168,0.47021l-4.23535-1.95801L107.64063,103.6372z"/>
		<path fill="#A3A3A3" stroke="#A3A3A3" stroke-width="0.25" stroke-miterlimit="10" d="M108.51855,101.9204l4.10254,2.21973
			l-0.24609,0.4541l-4.10254-2.21875L108.51855,101.9204z"/>
		<path fill="#A3A3A3" stroke="#A3A3A3" stroke-width="0.25" stroke-miterlimit="10" d="M112.75781,102.6704
			c0.09961-0.16113,0.32227-0.21045,0.48242-0.11133c0.16016,0.10059,0.21094,0.32129,0.11133,0.48193
			c-0.10059,0.16113-0.32227,0.2124-0.48242,0.1123C112.70898,103.05175,112.65723,102.83104,112.75781,102.6704z"/>
		<path fill="#A3A3A3" stroke="#A3A3A3" stroke-width="0.25" stroke-miterlimit="10" d="M114.70313,100.75585l-3.03516-3.96143
			l4.0918,1.41748l-1.60156-4.04492l4.07813,2.875l-0.36719,0.38525l-2.6582-1.92041l1.40039,3.52734l-3.57617-1.23926
			l2.03516,2.57471L114.70313,100.75585z"/>
		<path fill="#A3A3A3" stroke="#A3A3A3" stroke-width="0.25" stroke-miterlimit="10" d="M117.39063,94.73779
			c-0.7793-1.1543-0.45313-2.60791,0.66016-3.35889c1.11328-0.75244,2.58301-0.51221,3.3623,0.6416
			c0.77441,1.14795,0.45801,2.60352-0.66113,3.3584S118.16504,95.88524,117.39063,94.73779z M117.83105,94.43945
			c0.59863,0.88672,1.77734,1.12158,2.64746,0.5332c0.86914-0.58691,1.0918-1.76807,0.49414-2.65479
			c-0.59961-0.8877-1.77832-1.12012-2.64746-0.53271C117.45508,92.37157,117.23145,93.55272,117.83105,94.43945z"/>
		<path fill="#A3A3A3" stroke="#A3A3A3" stroke-width="0.25" stroke-miterlimit="10" d="M121.55762,89.37743l0.87402-0.37549
			c0.43066-0.18604,1.06055-0.40186,1.79688-0.1792c0.5332,0.16064,1.10742,0.56055,1.43945,1.33154
			c0.38672,0.8999,0.15039,1.57227-0.04492,1.96875c-0.24902,0.50293-0.59082,0.84033-1.35547,1.16895l-0.86914,0.37256
			L121.55762,89.37743z M123.68164,93.01024l0.41797-0.17969c0.33984-0.146,0.79297-0.38623,1.0625-0.91211
			c0.20508-0.40967,0.2793-0.94385,0.01758-1.5542c-0.44141-1.02832-1.44922-1.38818-2.53516-0.92139l-0.41797,0.1792
			L123.68164,93.01024z"/>
		<path fill="#A3A3A3" stroke="#A3A3A3" stroke-width="0.25" stroke-miterlimit="10" d="M129.49023,90.17772l-1.92773,0.47852
			l-0.22656,1.40967l-0.55664,0.13916l0.9082-5.2627l3.20605,4.24268l-0.55664,0.13818L129.49023,90.17772z M129.17578,89.75145
			l-1.20898-1.62451l-0.3252,2.00537L129.17578,89.75145z"/>
		<path fill="#A3A3A3" stroke="#A3A3A3" stroke-width="0.25" stroke-miterlimit="10" d="M131.43164,86.48145l0.43945,4.1582
			l1.28223-0.13477l0.05176,0.4873l-1.79688,0.18896l-0.49219-4.64502L131.43164,86.48145z"/>
		<path fill="#A3A3A3" stroke="#A3A3A3" stroke-width="0.25" stroke-miterlimit="10" d="M136.35547,86.29443
			c0.31445,0.01807,0.78223,0.06543,1.11816,0.32324c0.2627,0.19678,0.48047,0.56689,0.45215,1.06396
			c-0.04102,0.71338-0.53906,1.21191-1.24805,1.22021l1.36328,2.16846l-0.62891-0.03564l-1.30469-2.12305l-0.13281-0.00781
			l-0.11523,2.04346l-0.51758-0.0293l0.26563-4.66699L136.35547,86.29443z M136.00195,88.44188l0.32813,0.01953
			c0.64453,0.03613,1.0459-0.24951,1.07715-0.79541c0.01465-0.2583-0.04785-0.52246-0.33203-0.70703
			c-0.20313-0.12988-0.43945-0.15771-0.66309-0.1709l-0.31543-0.01758L136.00195,88.44188z"/>
		<path fill="#A3A3A3" stroke="#A3A3A3" stroke-width="0.25" stroke-miterlimit="10" d="M141.84668,87.52831l-1.87012-0.35498
			l-0.25781,1.36133l1.81445,0.34375l-0.0918,0.48193l-1.81445-0.34424l-0.33691,1.78076l1.87012,0.35449l-0.0918,0.48047
			l-2.37891-0.44971l0.86914-4.58643l2.37891,0.45117L141.84668,87.52831z"/>
		<path fill="#A3A3A3" stroke="#A3A3A3" stroke-width="0.25" stroke-miterlimit="10" d="M144.98828,88.93456
			c-0.02148-0.13916-0.07617-0.30566-0.15039-0.41797c-0.06445-0.09521-0.19531-0.23389-0.44727-0.31738
			c-0.43848-0.14502-0.83398,0.02686-0.9707,0.43848c-0.05664,0.17236-0.04297,0.28809,0.03906,0.44043
			c0.08984,0.17725,0.23145,0.30469,0.37305,0.43359l0.36328,0.3252c0.22266,0.19824,0.42285,0.39795,0.54688,0.64551
			c0.15234,0.2998,0.15918,0.58887,0.05371,0.9082c-0.26855,0.81738-1.05371,1.16211-1.85059,0.8999
			c-0.29297-0.09619-0.63867-0.27637-0.8457-0.67627c-0.14941-0.28516-0.18164-0.63525-0.15332-0.91992l0.52246,0.0249
			c-0.04297,0.24268-0.00391,0.47705,0.08008,0.65234c0.12891,0.25586,0.33008,0.38086,0.55566,0.45557
			c0.60547,0.19922,1.0332-0.13818,1.18066-0.58398c0.06445-0.19824,0.0625-0.39111-0.04883-0.58984
			c-0.08691-0.16162-0.2334-0.29834-0.43066-0.48047l-0.33691-0.31787c-0.14648-0.13623-0.33496-0.30225-0.4707-0.56055
			c-0.13086-0.24951-0.17676-0.49268-0.06641-0.8252c0.22461-0.68408,0.90137-0.97021,1.61914-0.7334
			c0.27246,0.08984,0.47461,0.21631,0.64453,0.43408c0.14063,0.17969,0.23438,0.40869,0.26953,0.63428L144.98828,88.93456z"/>
		<path fill="#A3A3A3" stroke="#A3A3A3" stroke-width="0.25" stroke-miterlimit="10" d="M145.98242,90.74218
			c0.65625-1.22998,2.09473-1.62109,3.28125-0.98926c1.18555,0.63232,1.66211,2.04492,1.00684,3.2749
			c-0.65137,1.22266-2.08691,1.62451-3.28027,0.98926C145.79785,93.38085,145.33105,91.96484,145.98242,90.74218z
			 M146.45215,90.99169c-0.50293,0.9458-0.15723,2.09766,0.76855,2.59326c0.92773,0.49316,2.07617,0.13867,2.58008-0.80713
			c0.50391-0.94531,0.1582-2.09814-0.76758-2.59229C148.10547,89.6914,146.95703,90.04736,146.45215,90.99169z"/>
		<path fill="#A3A3A3" stroke="#A3A3A3" stroke-width="0.25" stroke-miterlimit="10" d="M149.75586,95.521l3.10352-3.74023
			l0.36523,5.25635l2.30859-2.78418l0.39941,0.33057l-3.11328,3.75195l-0.36523-5.25488l-2.2998,2.77051L149.75586,95.521z"/>
		<path fill="#A3A3A3" stroke="#A3A3A3" stroke-width="0.25" stroke-miterlimit="10" d="M156.2832,100.03809l-1.27539-1.52686
			l-1.37012,0.41504l-0.36816-0.43994l5.13477-1.49219l-2.41211,4.74805l-0.36914-0.44092L156.2832,100.03809z M156.5293,99.56738
			l0.93164-1.80225l-1.94727,0.58789L156.5293,99.56738z"/>
		<path fill="#A3A3A3" stroke="#A3A3A3" stroke-width="0.25" stroke-miterlimit="10" d="M160.17676,100.63378l-3.51563,2.26025
			l-0.28027-0.43457l3.51563-2.26221l-0.61328-0.95313l0.41211-0.26514l1.50684,2.34326l-0.41211,0.26465L160.17676,100.63378z"/>
		<path fill="#A3A3A3" stroke="#A3A3A3" stroke-width="0.25" stroke-miterlimit="10" d="M159.49609,102.90038
			c1.27051-0.57031,2.64648,0,3.19727,1.22656c0.54883,1.22559,0.06152,2.6333-1.20898,3.20361
			c-1.26465,0.56738-2.64453,0.00537-3.19727-1.22803C157.73438,104.87157,158.23242,103.46679,159.49609,102.90038z
			 M159.71387,103.38524c-0.97754,0.43848-1.40918,1.56006-0.97949,2.51758s1.55469,1.38135,2.53125,0.94287
			c0.97754-0.43848,1.41016-1.56006,0.98047-2.51758C161.81641,103.36913,160.69141,102.94677,159.71387,103.38524z"/>
		<path fill="#A3A3A3" stroke="#A3A3A3" stroke-width="0.25" stroke-miterlimit="10" d="M164.20996,108.61327
			c0.07715,0.30566,0.17285,0.76611,0.02832,1.16406c-0.1084,0.30957-0.39648,0.62842-0.87695,0.75
			c-0.69336,0.17627-1.31738-0.14844-1.53906-0.82129l-1.65527,1.95459l-0.15527-0.61133l1.62988-1.88184l-0.0332-0.12891
			l-1.98047,0.50537L159.5,109.04052l4.52441-1.15186L164.20996,108.61327z M162.05664,108.92382l0.08008,0.32031
			c0.16016,0.62354,0.55371,0.91992,1.08301,0.78516c0.25098-0.06396,0.48242-0.20215,0.57227-0.52881
			c0.06348-0.23291,0.01855-0.46631-0.03613-0.68457l-0.07813-0.30469L162.05664,108.92382z"/>
	</g>
	<g>
		<circle fill="none" cx="83.5" cy="145.5" r="28.59473"/>
		<path fill="#A3A3A3" stroke="#A3A3A3" stroke-width="0.25" stroke-linejoin="round" stroke-miterlimit="10" d="
			M72.58496,169.66455l-1.92871-1.00635l-0.73242,1.40381l1.87109,0.97656l-0.25781,0.49756l-1.87207-0.97656l-0.95801,1.83691
			l1.92969,1.00488l-0.25977,0.49756l-2.45313-1.27979l2.46582-4.73096l2.4541,1.27979L72.58496,169.66455z"/>
		<path fill="#A3A3A3" stroke="#A3A3A3" stroke-width="0.25" stroke-linejoin="round" stroke-miterlimit="10" d="
			M74.34766,172.48193l-0.56152-2.89307l0.63867,0.2085l0.42676,2.25195l1.70313-1.55713l0.63867,0.20947l-2.19141,1.99414
			l0.61133,3.10303l-0.63867-0.20898l-0.4834-2.46338l-1.8584,1.69922l-0.63965-0.2085L74.34766,172.48193z"/>
		<path fill="#A3A3A3" stroke="#A3A3A3" stroke-width="0.25" stroke-linejoin="round" stroke-miterlimit="10" d="M82.0625,172.62354
			c-0.14355-0.18848-0.37207-0.42041-0.625-0.58252c-0.26074-0.16357-0.57617-0.28662-0.88574-0.32715
			c-1.22168-0.16064-2.25684,0.70508-2.41699,1.92822c-0.18945,1.43555,0.88281,2.31055,1.85156,2.43896
			c0.35645,0.04639,0.71973-0.01074,1.01563-0.1167c0.32227-0.11133,0.5625-0.28174,0.66992-0.36426l-0.0957,0.72949
			c-0.64258,0.34326-1.26563,0.35889-1.66211,0.30762c-1.57227-0.20752-2.58203-1.55078-2.38086-3.08301
			c0.20703-1.57959,1.54492-2.59863,3.13086-2.39014c0.31836,0.0415,0.92383,0.16162,1.49512,0.729L82.0625,172.62354z"/>
		<path fill="#A3A3A3" stroke="#A3A3A3" stroke-width="0.25" stroke-linejoin="round" stroke-miterlimit="10" d="
			M84.30957,171.38428l0.12012,5.33789l-0.5918,0.0127l-0.12012-5.33789L84.30957,171.38428z"/>
		<path fill="#A3A3A3" stroke="#A3A3A3" stroke-width="0.25" stroke-linejoin="round" stroke-miterlimit="10" d="
			M87.53711,171.64795l0.67773,4.72607l-0.58594,0.08447l-0.67773-4.72607l-1.2832,0.18457l-0.0791-0.5542l3.14941-0.4541
			l0.08008,0.55469L87.53711,171.64795z"/>
		<path fill="#A3A3A3" stroke="#A3A3A3" stroke-width="0.25" stroke-linejoin="round" stroke-miterlimit="10" d="
			M92.69922,170.35596l-2.08008,0.63525l0.46289,1.51465l2.01758-0.6167l0.16406,0.53613l-2.01855,0.61523l0.60449,1.98096
			l2.08008-0.63525l0.16309,0.53516l-2.64551,0.80859l-1.55664-5.10059l2.64453-0.80811L92.69922,170.35596z"/>
		<path fill="#A3A3A3" stroke="#A3A3A3" stroke-width="0.25" stroke-linejoin="round" stroke-miterlimit="10" d="
			M94.65234,168.87744c0.32227-0.16162,0.8125-0.37988,1.29199-0.31445c0.37207,0.04541,0.79785,0.28955,1.05176,0.79785
			c0.36523,0.72949,0.1543,1.50537-0.54297,1.91797l2.58496,1.37305l-0.64453,0.32129l-2.49902-1.36133l-0.13477,0.06689
			l1.04492,2.09033l-0.5293,0.26416l-2.38867-4.77295L94.65234,168.87744z M95.52344,171.20703l0.33594-0.16895
			c0.6582-0.3291,0.89453-0.84082,0.61523-1.39941c-0.13281-0.26416-0.34375-0.48926-0.73047-0.51123
			c-0.27539-0.01367-0.52539,0.09326-0.75586,0.2085l-0.32031,0.16113L95.52344,171.20703z"/>
	</g>
	<g>
		<circle fill="none" cx="186.44551" cy="145.5" r="28.59473"/>
		<path fill="#A3A3A3" stroke="#A3A3A3" stroke-width="0.25" stroke-linejoin="round" stroke-miterlimit="10" d="
			M176.96973,169.70459l1.03906,0.32471c0.5127,0.15918,1.22168,0.43896,1.69531,1.18213
			c0.34473,0.53467,0.54688,1.31104,0.26074,2.22852c-0.33398,1.07031-1.03906,1.47949-1.50391,1.67773
			c-0.59082,0.25195-1.13867,0.29004-2.04883,0.00684l-1.03125-0.32178L176.96973,169.70459z M176.11328,174.44482l0.49609,0.1543
			c0.40527,0.12695,0.97852,0.25391,1.60352-0.00293c0.48242-0.20313,0.94531-0.61133,1.17188-1.33691
			c0.38086-1.22266-0.22754-2.28516-1.51953-2.68848l-0.49609-0.15479L176.11328,174.44482z"/>
		<path fill="#A3A3A3" stroke="#A3A3A3" stroke-width="0.25" stroke-linejoin="round" stroke-miterlimit="10" d="
			M184.65625,175.21729l-2.2627-0.2168l-0.78125,1.43701l-0.65332-0.06348l2.98047-5.33447l1.84863,5.79883l-0.65332-0.06396
			L184.65625,175.21729z M184.47852,174.63818l-0.6875-2.21387l-1.11328,2.04102L184.47852,174.63818z"/>
		<path fill="#A3A3A3" stroke="#A3A3A3" stroke-width="0.25" stroke-linejoin="round" stroke-miterlimit="10" d="
			M187.75195,176.82568l0.17383-5.69629l2.5957,4.20898l1.50488-4.73535l1.53223,5.48779l-0.60352,0.07666l-0.96484-3.61768
			l-1.30762,4.13037l-2.27051-3.67725l-0.05859,3.74609L187.75195,176.82568z"/>
		<path fill="#A3A3A3" stroke="#A3A3A3" stroke-width="0.25" stroke-linejoin="round" stroke-miterlimit="10" d="
			M195.16016,169.9043c0.50293-0.18311,0.94629-0.2749,1.39063-0.10596c0.4834,0.18262,0.73438,0.59326,0.84961,0.90967
			c0.25684,0.70557,0.06738,1.56641-1.07617,1.98145l-0.48828,0.17725l0.79297,2.18066l-0.55664,0.20264l-1.82227-5.01563
			L195.16016,169.9043z M195.64453,172.34082l0.45898-0.1665c0.66211-0.24072,0.94043-0.71533,0.73047-1.29443
			c-0.29102-0.79736-1.0625-0.60156-1.42285-0.47021l-0.41309,0.1499L195.64453,172.34082z"/>
	</g>
	<g>
		<circle fill="none" cx="135" cy="283.5" r="28.59473"/>
		
			<path fill="#A3A3A3" stroke="#A3A3A3" stroke-width="0.25" stroke-linecap="round" stroke-linejoin="round" stroke-miterlimit="10" d="
			M117.6709,309.67383l3.43262-4.54932l-0.3125,4.93604l3.96484-2.99658l-1.91992,5.36523l-0.53711-0.28564l1.30273-3.51123
			l-3.45313,2.61572l0.27148-4.31299l-2.21289,3.0249L117.6709,309.67383z"/>
		
			<path fill="#A3A3A3" stroke="#A3A3A3" stroke-width="0.25" stroke-linecap="round" stroke-linejoin="round" stroke-miterlimit="10" d="
			M127.42578,308.27979l-1.61328,5.0874l-0.56445-0.17871l1.61328-5.0874L127.42578,308.27979z"/>
		
			<path fill="#A3A3A3" stroke="#A3A3A3" stroke-width="0.25" stroke-linecap="round" stroke-linejoin="round" stroke-miterlimit="10" d="
			M129.7207,311.49268l-0.96484-2.78711l0.66309,0.11621l0.74023,2.17041l1.46777-1.78223l0.66211,0.11719l-1.88965,2.28467
			l1.04395,2.98877l-0.66309-0.11621l-0.82617-2.37305l-1.60254,1.9458l-0.66211-0.11719L129.7207,311.49268z"/>
		
			<path fill="#A3A3A3" stroke="#A3A3A3" stroke-width="0.25" stroke-linecap="round" stroke-linejoin="round" stroke-miterlimit="10" d="
			M135.90332,312.21533c-0.2207-1.57666,0.8457-2.9043,2.36621-3.11719c1.51953-0.21289,2.91016,0.77246,3.12988,2.34814
			c0.21973,1.56787-0.83691,2.90234-2.36621,3.11621C137.50391,314.77686,136.12305,313.7832,135.90332,312.21533z
			 M136.50488,312.13086c0.16895,1.21143,1.2627,2.04297,2.4502,1.87695c1.18848-0.16602,2.01172-1.26611,1.84277-2.47705
			c-0.16895-1.21143-1.2627-2.04395-2.45117-1.87793C137.1582,309.81787,136.33594,310.91846,136.50488,312.13086z"/>
		
			<path fill="#A3A3A3" stroke="#A3A3A3" stroke-width="0.25" stroke-linecap="round" stroke-linejoin="round" stroke-miterlimit="10" d="
			M144.00879,311.27246c0.15723,0.41992,0.3291,0.87695,0.85254,1.06543c0.26563,0.09619,0.65332,0.07959,0.93164-0.02344
			c0.27734-0.10449,0.58008-0.3457,0.7168-0.59326c0.27148-0.4873,0.09961-0.94434-0.05664-1.36377l-1.14844-3.06592
			l0.55469-0.20801l1.2041,3.21582c0.15723,0.41895,0.26465,0.84082,0.13477,1.31787
			c-0.14551,0.52393-0.57129,0.98389-1.20996,1.22217c-0.63672,0.2373-1.25977,0.17285-1.71387-0.12842
			c-0.41113-0.27295-0.60645-0.66113-0.76465-1.08105l-1.2041-3.21582l0.55566-0.2085L144.00879,311.27246z"/>
		
			<path fill="#A3A3A3" stroke="#A3A3A3" stroke-width="0.25" stroke-linecap="round" stroke-linejoin="round" stroke-miterlimit="10" d="
			M148.77148,306.08643l2.44727,4.10596l-0.50781,0.30322l-2.44922-4.10645l-1.11328,0.66455l-0.28711-0.48096l2.73633-1.63135
			l0.28809,0.48096L148.77148,306.08643z"/>
	</g>
	<g>
		<circle fill="none" cx="135" cy="283.44943" r="28.59473"/>
		<path fill="#A3A3A3" d="M144.29785,254.75586l-1.56836-0.44434l-0.32324,1.1416l1.52246,0.43164l-0.11426,0.40234
			l-1.52246-0.43066l-0.42285,1.49316l1.56836,0.44531l-0.11523,0.40332l-1.99512-0.56543l1.08984-3.84668l1.99609,0.56543
			L144.29785,254.75586z"/>
		<path fill="#A3A3A3" d="M145.94629,256.99023l-0.23242-2.19727l0.46387,0.19629l0.17285,1.70996l1.37207-1.05273l0.46484,0.19824
			l-1.7666,1.34668l0.25586,2.35742l-0.46387-0.19629l-0.20117-1.87207l-1.49902,1.14844l-0.46289-0.19727L145.94629,256.99023z"/>
		<path fill="#A3A3A3" d="M151.58301,258.78711c-0.04297-0.17188-0.12988-0.39941-0.25684-0.58691
			c-0.13086-0.18945-0.31055-0.36719-0.51172-0.4873c-0.79297-0.47461-1.76172-0.1875-2.23633,0.60449
			c-0.55664,0.93262-0.08008,1.85352,0.54785,2.22949c0.23145,0.1377,0.49902,0.20605,0.7334,0.22168
			c0.25391,0.01953,0.4707-0.02539,0.56836-0.05078l-0.2832,0.47363c-0.54297,0.04492-0.97656-0.13086-1.23438-0.28418
			c-1.01953-0.60938-1.31348-1.83594-0.71973-2.82813c0.6123-1.02441,1.83594-1.32715,2.86621-0.71094
			c0.20508,0.12207,0.58594,0.38477,0.81055,0.94531L151.58301,258.78711z"/>
		<path fill="#A3A3A3" d="M153.70898,259.29395l-2.42969,3.1748l-0.35156-0.26953l2.42969-3.1748L153.70898,259.29395z"/>
		<path fill="#A3A3A3" d="M155.56641,261.41992l-2.43164,2.63672l-0.32617-0.30176l2.42969-2.63574l-0.71484-0.66016
			l0.28516-0.30859l1.75781,1.62012l-0.28516,0.30859L155.56641,261.41992z"/>
		<path fill="#A3A3A3" d="M158.58203,264.66113l-1.06445-1.2373l-0.90039,0.77539l1.0332,1.2002l-0.31836,0.27441l-1.0332-1.20117
			l-1.17773,1.01465l1.06445,1.23535l-0.31836,0.27441l-1.35352-1.57324l3.0332-2.61035l1.35352,1.57422L158.58203,264.66113z"/>
		<path fill="#A3A3A3" d="M160.25,266.24609c0.14941,0.22559,0.35742,0.57031,0.35254,0.93262
			c-0.00098,0.28125-0.1416,0.62109-0.49707,0.85742c-0.50977,0.33789-1.10742,0.25195-1.47852-0.22852l-0.78516,2.04883
			l-0.29883-0.4502l0.78516-1.98438l-0.06348-0.09473l-1.45996,0.96875l-0.24609-0.36816l3.33594-2.21582L160.25,266.24609z
			 M158.5957,267.10742l0.15527,0.23535c0.30566,0.45996,0.70801,0.58887,1.09863,0.33008
			c0.18457-0.12305,0.33398-0.30078,0.31348-0.5918c-0.01465-0.20605-0.11816-0.38184-0.22363-0.54102l-0.14941-0.22656
			L158.5957,267.10742z"/>
	</g>
	<g>
		<circle fill="none" cx="135" cy="283.5" r="28.59473"/>
		<path fill="#A3A3A3" d="M108.37891,285.54639l-4.22559-0.68994l3.39063-1.51953l-3.37891-1.58643l4.23828-0.60107
			l-0.00293,0.45605l-2.79004,0.36328l2.94922,1.37939l-2.96289,1.32959l2.78516,0.41211L108.37891,285.54639z"/>
		<path fill="#A3A3A3" d="M106.55566,279.81738c-1.16895-0.23828-1.83984-1.32324-1.60938-2.45068s1.27246-1.86279,2.44043-1.62451
			c1.16309,0.2373,1.8418,1.31836,1.61035,2.45166S107.71777,280.05469,106.55566,279.81738z M106.64648,279.37109
			c0.89844,0.18359,1.75977-0.38086,1.93945-1.26123c0.18066-0.88037-0.3916-1.7373-1.29004-1.92139
			c-0.89746-0.18359-1.75977,0.38086-1.93945,1.26123C105.17676,278.33105,105.74805,279.18848,106.64648,279.37109z"/>
		<path fill="#A3A3A3" d="M105.9668,273.68555l0.2959-0.76074c0.14551-0.37549,0.3916-0.8916,0.9707-1.20752
			c0.41895-0.23047,1.00977-0.34229,1.68164-0.08057c0.7832,0.30371,1.05273,0.85303,1.17871,1.21094
			c0.15723,0.4541,0.1582,0.8667-0.10059,1.5332l-0.29297,0.75537L105.9668,273.68555z M109.46973,274.56982l0.14063-0.36377
			c0.11523-0.29688,0.24023-0.71777,0.08008-1.19922c-0.12695-0.37109-0.40918-0.73877-0.94141-0.94531
			c-0.89551-0.34766-1.7207,0.05225-2.08789,0.99854l-0.14063,0.36377L109.46973,274.56982z"/>
		<path fill="#A3A3A3" d="M111.40918,268.875l-0.85156,1.47656l0.73633,0.97998l-0.24609,0.42627l-2.71191-3.69385l4.53125,0.54346
			l-0.24707,0.42578L111.40918,268.875z M110.95801,268.81592l-1.72363-0.21924l1.0459,1.39307L110.95801,268.81592z"/>
		<path fill="#A3A3A3" d="M110.5166,265.10889l2.85645,2.16162l0.66699-0.88135l0.33398,0.25439l-0.93359,1.23438l-3.19141-2.41504
			L110.5166,265.10889z"/>
		<path fill="#A3A3A3" d="M114.04004,261.16406c0.19824-0.18213,0.50586-0.44141,0.86523-0.49414
			c0.27734-0.04346,0.63477,0.04297,0.92285,0.35547c0.41406,0.45117,0.42285,1.05371,0.00684,1.49463l2.14453,0.45264
			l-0.39648,0.36572l-2.08203-0.46338l-0.08301,0.07764l1.18555,1.28711l-0.32617,0.30127l-2.70898-2.94238L114.04004,261.16406z
			 M115.14941,262.66113l0.20703-0.19092c0.40625-0.37305,0.46973-0.79102,0.15332-1.13525
			c-0.15039-0.16309-0.34961-0.28125-0.63184-0.21631c-0.20117,0.04688-0.35938,0.17529-0.5,0.30566l-0.19922,0.18213
			L115.14941,262.66113z"/>
		<path fill="#A3A3A3" d="M118.43164,258.21191l-1.32813,0.94531l0.68848,0.96777l1.28906-0.91797l0.24414,0.34131l-1.29004,0.91748
			l0.90039,1.26563l1.3291-0.9458l0.24316,0.34229l-1.69043,1.20264l-2.31836-3.25781l1.68945-1.20264L118.43164,258.21191z"/>
		<path fill="#A3A3A3" d="M121.54395,256.86523c-0.09766-0.06934-0.2334-0.13281-0.34668-0.15332
			c-0.09766-0.0166-0.26074-0.01758-0.46191,0.09033c-0.34863,0.18652-0.47559,0.53369-0.2998,0.86084
			c0.07324,0.1377,0.15234,0.19678,0.2959,0.23633c0.16211,0.04883,0.32617,0.03613,0.48828,0.02344l0.41797-0.0332
			c0.25391-0.02002,0.49512-0.02734,0.72266,0.0415c0.27539,0.0835,0.46094,0.25049,0.5957,0.50342
			c0.34863,0.65039,0.09961,1.34082-0.53516,1.67969c-0.23145,0.12598-0.54883,0.2334-0.91895,0.12598
			c-0.26465-0.07617-0.50098-0.2627-0.66113-0.44824l0.32422-0.30957c0.125,0.1709,0.29492,0.28369,0.45117,0.33594
			c0.23633,0.07129,0.43262,0.02002,0.6123-0.07617c0.48047-0.25732,0.52441-0.72217,0.33398-1.07666
			c-0.08398-0.15771-0.20508-0.27002-0.39453-0.31885c-0.15137-0.04102-0.32324-0.03125-0.55273-0.01563l-0.39648,0.02051
			c-0.1709,0.01074-0.38574,0.03027-0.62598-0.03857c-0.23242-0.06592-0.41016-0.18115-0.55078-0.4458
			c-0.29199-0.54395-0.07031-1.13184,0.50098-1.43799c0.21582-0.11621,0.41406-0.1665,0.65039-0.14355
			c0.19336,0.01855,0.3916,0.09521,0.55273,0.20703L121.54395,256.86523z"/>
		<path fill="#A3A3A3" d="M123.6582,257.14258c-0.3916-1.12891,0.20117-2.26074,1.29004-2.63818
			c1.08789-0.37744,2.25391,0.146,2.64551,1.27441c0.38867,1.12207-0.19629,2.2583-1.29004,2.63818
			C125.20898,258.79541,124.04688,258.26514,123.6582,257.14258z M124.08887,256.99268
			c0.30078,0.86768,1.22656,1.32178,2.07715,1.02686s1.29688-1.22412,0.99609-2.0918
			c-0.30078-0.86816-1.22559-1.32129-2.07617-1.02637C124.23438,255.19531,123.78809,256.125,124.08887,256.99268z"/>
	</g>
	<g>
		<circle fill="none" cx="183.01788" cy="44.24549" r="14.57799"/>
		
			<path fill="#A3A3A3" stroke="#A3A3A3" stroke-width="0.25" stroke-linecap="round" stroke-linejoin="round" stroke-miterlimit="10" d="
			M174.80371,30.72362l-1.47363,1.01855l0.25977,1.2627l-0.42578,0.29297L172.25,28.57128l4.05859,2.55371l-0.42578,0.29395
			L174.80371,30.72362z M174.40234,30.46386l-1.53906-0.9834l0.36621,1.79395L174.40234,30.46386z"/>
		
			<path fill="#A3A3A3" stroke="#A3A3A3" stroke-width="0.25" stroke-linecap="round" stroke-linejoin="round" stroke-miterlimit="10" d="
			M178.75586,26.78417c-0.16797-0.08105-0.41016-0.16309-0.64648-0.18848c-0.24023-0.02246-0.50488,0.00391-0.73633,0.08496
			c-0.91602,0.31836-1.33691,1.29395-1.01758,2.20996c0.37598,1.07617,1.43945,1.31152,2.16406,1.05859
			c0.26758-0.09375,0.50293-0.26172,0.67383-0.44141c0.18555-0.19336,0.29492-0.39746,0.3418-0.49219l0.19043,0.5459
			c-0.33008,0.46875-0.7627,0.7002-1.05957,0.80371c-1.17773,0.41211-2.36328-0.17578-2.76367-1.32227
			c-0.41406-1.18457,0.16504-2.37402,1.35352-2.78809c0.23828-0.08398,0.70703-0.21484,1.30957-0.01758L178.75586,26.78417z"/>
		
			<path fill="#A3A3A3" stroke="#A3A3A3" stroke-width="0.25" stroke-linecap="round" stroke-linejoin="round" stroke-miterlimit="10" d="
			M183.77148,26.28808c-0.13965-0.12402-0.34961-0.26953-0.56934-0.35938c-0.22559-0.08984-0.4873-0.1377-0.7334-0.12305
			c-0.96875,0.05176-1.64355,0.87207-1.59082,1.84082c0.0625,1.13965,1.01855,1.66211,1.78809,1.62109
			c0.28223-0.01563,0.55469-0.11328,0.76953-0.23926c0.23242-0.13184,0.39258-0.2998,0.46484-0.37891l0.03223,0.5791
			c-0.44824,0.35938-0.92871,0.46191-1.24316,0.47949c-1.24609,0.06738-2.22461-0.8252-2.29004-2.04199
			c-0.06934-1.25195,0.81836-2.23438,2.07715-2.30371c0.25195-0.01465,0.73828-0.00879,1.26367,0.34766L183.77148,26.28808z"/>
		
			<path fill="#A3A3A3" stroke="#A3A3A3" stroke-width="0.25" stroke-linecap="round" stroke-linejoin="round" stroke-miterlimit="10" d="
			M187.73438,26.4453l-1.68164-0.3291l-0.24023,1.22461l1.63281,0.31934l-0.08594,0.43262l-1.63281-0.31934l-0.3125,1.60156
			l1.68164,0.3291l-0.08398,0.43457l-2.14063-0.4209l0.80859-4.125l2.13965,0.41992L187.73438,26.4453z"/>
		
			<path fill="#A3A3A3" stroke="#A3A3A3" stroke-width="0.25" stroke-linecap="round" stroke-linejoin="round" stroke-miterlimit="10" d="
			M187.92188,30.35741l1.9834-3.9082l1.36816,4.54785l1.47461-2.90625l0.41699,0.21094l-1.98926,3.91895l-1.36816-4.54785
			l-1.46973,2.89551L187.92188,30.35741z"/>
		
			<path fill="#A3A3A3" stroke="#A3A3A3" stroke-width="0.25" stroke-linecap="round" stroke-linejoin="round" stroke-miterlimit="10" d="
			M195.41211,30.69726l-2.50977,2.80371l-0.34766-0.31152l2.50977-2.80371l-0.76172-0.68066l0.29492-0.33008l1.86914,1.67383
			l-0.29395,0.3291L195.41211,30.69726z"/>
	</g>
	<g>
		<circle fill="none" cx="183.01788" cy="44.24549" r="13.74777"/>
		
			<path fill="#A3A3A3" stroke="#A3A3A3" stroke-width="0.25" stroke-linecap="round" stroke-linejoin="round" stroke-miterlimit="10" d="
			M175.6582,57.02538l-2.03613,3.40332l-0.37793-0.22607l2.03613-3.40381L175.6582,57.02538z"/>
		
			<path fill="#A3A3A3" stroke="#A3A3A3" stroke-width="0.25" stroke-linecap="round" stroke-linejoin="round" stroke-miterlimit="10" d="
			M175.52734,61.49022l1.29004-3.92285l1.92285,4.04102l0.95898-2.91748l0.41797,0.13721l-1.29297,3.93311l-1.92383-4.04004
			l-0.95508,2.90527L175.52734,61.49022z"/>
		
			<path fill="#A3A3A3" stroke="#A3A3A3" stroke-width="0.25" stroke-linecap="round" stroke-linejoin="round" stroke-miterlimit="10" d="
			M182.10938,58.97216c0.39844,0.02051,0.72852,0.08545,0.98242,0.33105c0.27832,0.26514,0.33105,0.61963,0.31836,0.86865
			c-0.0293,0.55859-0.41016,1.09229-1.3125,1.04541l-0.38574-0.021l-0.09082,1.72168l-0.43945-0.02295l0.20898-3.96143
			L182.10938,58.97216z M181.73438,60.78026l0.36133,0.01904c0.52344,0.02734,0.85156-0.21631,0.87598-0.6748
			c0.0332-0.62891-0.55176-0.71973-0.83691-0.73486l-0.32617-0.0166L181.73438,60.78026z"/>
		
			<path fill="#A3A3A3" stroke="#A3A3A3" stroke-width="0.25" stroke-linecap="round" stroke-linejoin="round" stroke-miterlimit="10" d="
			M185.21094,61.31835c0.06055,0.32715,0.12695,0.68359,0.48633,0.89063c0.18164,0.104,0.46777,0.14258,0.68359,0.10205
			c0.2168-0.04004,0.46875-0.17822,0.60156-0.34229c0.26172-0.32031,0.19531-0.67676,0.13477-1.00488l-0.44531-2.39209
			l0.43359-0.08057l0.46582,2.50977c0.06152,0.32666,0.08496,0.64941-0.07129,0.98145
			c-0.17383,0.36523-0.5459,0.64648-1.04297,0.7373c-0.49609,0.09229-0.94434-0.03564-1.23828-0.31396
			c-0.26465-0.25391-0.3584-0.5625-0.41895-0.88965l-0.4668-2.50977l0.43262-0.08057L185.21094,61.31835z"/>
		
			<path fill="#A3A3A3" stroke="#A3A3A3" stroke-width="0.25" stroke-linecap="round" stroke-linejoin="round" stroke-miterlimit="10" d="
			M189.36719,58.03417l1.43945,3.24072l-0.40039,0.1792l-1.44141-3.24023l-0.87891,0.38965l-0.16992-0.37891l2.16016-0.96094
			l0.16992,0.37988L189.36719,58.03417z"/>
	</g>
	<g>
		<circle fill="none" cx="134.71875" cy="43.99999" r="14.57799"/>
		
			<path fill="#A3A3A3" stroke="#A3A3A3" stroke-width="0.25" stroke-linecap="round" stroke-linejoin="round" stroke-miterlimit="10" d="
			M116.43164,42.52245l3.75098,0.24268l-0.03027,0.46484l-3.75195-0.2417l-0.06543,1.01709l-0.44043-0.02783l0.16211-2.50195
			l0.43945,0.02881L116.43164,42.52245z"/>
		
			<path fill="#A3A3A3" stroke="#A3A3A3" stroke-width="0.25" stroke-linecap="round" stroke-linejoin="round" stroke-miterlimit="10" d="
			M116.49414,39.37255c0.07422-0.27393,0.20508-0.67676,0.49414-0.92432c0.22363-0.19434,0.59082-0.31543,1.02246-0.19824
			c0.62109,0.16943,0.96582,0.70264,0.84082,1.3291l2.16602-0.79492l-0.15039,0.54785l-2.11426,0.74951l-0.03125,0.11572
			l1.77637,0.48633l-0.12305,0.4502l-4.05859-1.11035L116.49414,39.37255z M118.31934,40.08739l0.07813-0.28613
			c0.15332-0.56006-0.02246-0.9668-0.49707-1.09814c-0.22559-0.06006-0.46875-0.05518-0.68457,0.16064
			c-0.15332,0.15381-0.22266,0.35742-0.27637,0.55176l-0.07422,0.27441L118.31934,40.08739z"/>
		
			<path fill="#A3A3A3" stroke="#A3A3A3" stroke-width="0.25" stroke-linecap="round" stroke-linejoin="round" stroke-miterlimit="10" d="
			M117.75195,35.89013l3.82031,1.76416l-0.19629,0.4248l-3.81934-1.76563L117.75195,35.89013z"/>
		
			<path fill="#A3A3A3" stroke="#A3A3A3" stroke-width="0.25" stroke-linecap="round" stroke-linejoin="round" stroke-miterlimit="10" d="
			M121.58887,33.65624l1.05371-1.39844l0.08105,0.06055c0.37207,0.28076,0.69141,0.69531,0.81836,1.12207
			c0.05957,0.20313,0.24316,0.93311-0.33691,1.70264c-0.75098,0.99658-2.07227,1.16748-3.04688,0.43115
			c-0.97656-0.73633-1.16992-2.05664-0.41602-3.05811c0.24219-0.32227,0.60742-0.63916,1.10547-0.77539
			c0.23047-0.06396,0.4873-0.09131,0.68945-0.08789l0.04297,0.46631c-0.20703-0.00635-0.41211,0.01318-0.58594,0.05469
			c-0.25195,0.06299-0.59277,0.19971-0.89648,0.60254c-0.60938,0.80957-0.42578,1.83154,0.35352,2.42041
			c0.91504,0.69043,1.92773,0.30957,2.40625-0.32373c0.33691-0.44727,0.40234-1.00586,0.20996-1.45068
			c-0.05957-0.14063-0.17188-0.32764-0.37598-0.49609l-0.75,0.99561L121.58887,33.65624z"/>
		
			<path fill="#A3A3A3" stroke="#A3A3A3" stroke-width="0.25" stroke-linecap="round" stroke-linejoin="round" stroke-miterlimit="10" d="
			M125.41309,30.10595l1.43262-1.00537l0.05859,0.08252c0.26758,0.38135,0.44336,0.87402,0.43359,1.31934
			c-0.00586,0.21094-0.05664,0.9624-0.8457,1.51514c-1.02051,0.71582-2.33008,0.47266-3.03125-0.52734
			s-0.47852-2.31738,0.54688-3.03711c0.33008-0.23096,0.77441-0.4209,1.29102-0.39746
			c0.2373,0.00977,0.49023,0.06396,0.68164,0.12891l-0.10156,0.45752c-0.19727-0.07178-0.39648-0.11523-0.57422-0.12939
			c-0.25977-0.01709-0.62598,0.00879-1.03906,0.29834c-0.83008,0.58203-0.96973,1.61035-0.4082,2.41016
			c0.65625,0.93799,1.7373,0.8877,2.38672,0.43115c0.45898-0.3208,0.69336-0.83105,0.64648-1.31396
			c-0.01367-0.15137-0.0625-0.36475-0.20313-0.5874l-1.02148,0.71582L125.41309,30.10595z"/>
		
			<path fill="#A3A3A3" stroke="#A3A3A3" stroke-width="0.25" stroke-linecap="round" stroke-linejoin="round" stroke-miterlimit="10" d="
			M129.5918,26.31151l-1.61133,0.58594l0.42578,1.17188l1.56445-0.56689l0.15039,0.41406l-1.56445,0.56689l0.55664,1.53516
			l1.61133-0.58496l0.15234,0.41602l-2.05078,0.74268l-1.43359-3.95117l2.04883-0.74463L129.5918,26.31151z"/>
		
			<path fill="#A3A3A3" stroke="#A3A3A3" stroke-width="0.25" stroke-linecap="round" stroke-linejoin="round" stroke-miterlimit="10" d="
			M131.7793,25.41894c0.28125-0.03906,0.70117-0.07813,1.04199,0.09131c0.26563,0.12842,0.52246,0.41846,0.58301,0.86084
			c0.08789,0.63477-0.26563,1.16113-0.88965,1.29053l1.5791,1.67627l-0.5625,0.07764l-1.5166-1.64551l-0.11816,0.01611
			l0.25098,1.8208l-0.46191,0.06348l-0.57227-4.15918L131.7793,25.41894z M131.83984,27.3745l0.29297-0.04102
			c0.57422-0.0791,0.87891-0.40039,0.8125-0.88672c-0.0332-0.22998-0.13281-0.45166-0.41602-0.56592
			c-0.20117-0.08008-0.41602-0.06348-0.61523-0.03564l-0.28027,0.03809L131.83984,27.3745z"/>
		
			<path fill="#A3A3A3" stroke="#A3A3A3" stroke-width="0.25" stroke-linecap="round" stroke-linejoin="round" stroke-miterlimit="10" d="
			M137.50293,27.33837l1.93164,0.43994l-0.14746,0.64941l-1.93164-0.44043L137.50293,27.33837z"/>
		
			<path fill="#A3A3A3" stroke="#A3A3A3" stroke-width="0.25" stroke-linecap="round" stroke-linejoin="round" stroke-miterlimit="10" d="
			M145.98438,29.44823l-1.41992-0.96045l-0.69922,1.03418l1.37695,0.93164l-0.24609,0.36475l-1.37891-0.93164l-0.91406,1.35205
			l1.41992,0.96045l-0.24707,0.36572l-1.80664-1.22217l2.35547-3.48145l1.80664,1.22119L145.98438,29.44823z"/>
		
			<path fill="#A3A3A3" stroke="#A3A3A3" stroke-width="0.25" stroke-linecap="round" stroke-linejoin="round" stroke-miterlimit="10" d="
			M146.61816,32.18163l0.68164-2.21631l0.36621,0.38135l-0.53809,1.72021l1.75879-0.44922l0.36523,0.38086l-2.25879,0.57275
			l-0.72559,2.38086l-0.36523-0.38184l0.57617-1.88867l-1.91992,0.49121l-0.36523-0.38232L146.61816,32.18163z"/>
		
			<path fill="#A3A3A3" stroke="#A3A3A3" stroke-width="0.25" stroke-linecap="round" stroke-linejoin="round" stroke-miterlimit="10" d="
			M150.97656,36.39501c0.04688-0.18018,0.08008-0.43408,0.05859-0.66943c-0.02539-0.24072-0.10156-0.49463-0.22656-0.70752
			c-0.49219-0.83398-1.52832-1.05615-2.36328-0.56396c-0.98047,0.57861-1.00488,1.66553-0.61523,2.32764
			c0.14453,0.24316,0.35547,0.44043,0.56445,0.57227c0.22461,0.14551,0.44727,0.2124,0.5498,0.23877l-0.49902,0.29395
			c-0.52344-0.23242-0.83398-0.61084-0.99414-0.88232c-0.63281-1.07373-0.28906-2.34912,0.75781-2.96582
			c1.07813-0.63525,2.35742-0.30078,2.99609,0.78418c0.12695,0.21631,0.3457,0.6499,0.27148,1.27832L150.97656,36.39501z"/>
		
			<path fill="#A3A3A3" stroke="#A3A3A3" stroke-width="0.25" stroke-linecap="round" stroke-linejoin="round" stroke-miterlimit="10" d="
			M152.51172,37.95165l-3.96484,1.39404l-0.1543-0.43896l3.96484-1.39551L152.51172,37.95165z"/>
		
			<path fill="#A3A3A3" stroke="#A3A3A3" stroke-width="0.25" stroke-linecap="round" stroke-linejoin="round" stroke-miterlimit="10" d="
			M152.77832,40.76317l-3.69824,0.70264l-0.08594-0.4585l3.69727-0.70313L152.5,39.30126l0.43359-0.08252l0.46875,2.46436
			l-0.43359,0.08301L152.77832,40.76317z"/>
		
			<path fill="#A3A3A3" stroke="#A3A3A3" stroke-width="0.25" stroke-linecap="round" stroke-linejoin="round" stroke-miterlimit="10" d="
			M153.04883,45.3164l0.01074-1.71387l-1.24707-0.00732l-0.00977,1.6626l-0.44141-0.00195l0.00977-1.6626l-1.63086-0.01074
			l-0.00977,1.71387l-0.44141-0.00342l0.01367-2.1792l4.2002,0.02588l-0.0127,2.1792L153.04883,45.3164z"/>
	</g>
	<g>
		<g>
			
				<path fill="#A3A3A3" stroke="#A3A3A3" stroke-width="0.25" stroke-linecap="round" stroke-linejoin="round" stroke-miterlimit="10" d="
				M127.11914,56.91308l-2.23633,3.55322l-0.39453-0.24756l2.2373-3.55371L127.11914,56.91308z"/>
			
				<path fill="#A3A3A3" stroke="#A3A3A3" stroke-width="0.25" stroke-linecap="round" stroke-linejoin="round" stroke-miterlimit="10" d="
				M126.86719,61.62694l1.41992-4.14551l1.98828,4.3125l1.05664-3.08301l0.44141,0.15088l-1.42383,4.15869l-1.98828-4.31348
				l-1.05273,3.07178L126.86719,61.62694z"/>
			
				<path fill="#A3A3A3" stroke="#A3A3A3" stroke-width="0.25" stroke-linecap="round" stroke-linejoin="round" stroke-miterlimit="10" d="
				M133.84766,59.02782c0.42188,0.02393,0.77148,0.09277,1.04102,0.354c0.29395,0.28076,0.34961,0.65674,0.33398,0.92139
				c-0.03125,0.59131-0.43555,1.15527-1.39258,1.104l-0.4082-0.02246l-0.10059,1.82471l-0.46582-0.02588l0.23047-4.19824
				L133.84766,59.02782z M133.44531,60.94384l0.38477,0.021c0.55371,0.02979,0.90234-0.22852,0.92871-0.71289
				c0.03711-0.66748-0.58301-0.76416-0.88477-0.78076l-0.34668-0.01904L133.44531,60.94384z"/>
			
				<path fill="#A3A3A3" stroke="#A3A3A3" stroke-width="0.25" stroke-linecap="round" stroke-linejoin="round" stroke-miterlimit="10" d="
				M137.1543,61.50683c0.06836,0.34668,0.14258,0.72363,0.52344,0.93799c0.19434,0.10791,0.49609,0.146,0.72461,0.10059
				c0.22949-0.04443,0.49609-0.19238,0.63379-0.36768c0.27246-0.34131,0.19922-0.71777,0.13184-1.06396l-0.49414-2.52539
				l0.45703-0.08936l0.51855,2.64893c0.06738,0.34619,0.0957,0.68652-0.06641,1.03857
				c-0.18066,0.38867-0.57129,0.68896-1.0957,0.7915c-0.52441,0.10205-0.99902-0.02881-1.3125-0.3208
				c-0.28223-0.26465-0.38574-0.59131-0.45215-0.93652l-0.51758-2.64941l0.45605-0.08936L137.1543,61.50683z"/>
			
				<path fill="#A3A3A3" stroke="#A3A3A3" stroke-width="0.25" stroke-linecap="round" stroke-linejoin="round" stroke-miterlimit="10" d="
				M141.47949,57.96435l1.60059,3.40088l-0.4209,0.19873l-1.60059-3.3999l-0.92383,0.43408l-0.1875-0.39893l2.26758-1.06738
				l0.1875,0.39893L141.47949,57.96435z"/>
		</g>
	</g>
	<g>
		<circle id="circle8474_5_" fill="#A3A3A3" cx="108.00267" cy="158.76486" r="0.33984"/>
		<circle id="circle8476_5_" fill="#A3A3A3" cx="109.90251" cy="160.08487" r="0.33984"/>
		<circle id="circle8478_5_" fill="#A3A3A3" cx="106.33803" cy="159.5751" r="0.33984"/>
		<circle id="circle8480_5_" fill="#A3A3A3" cx="110.99883" cy="160.8231" r="0.33984"/>
		<circle id="circle8482_5_" fill="#A3A3A3" cx="105.43372" cy="161.13606" r="0.33984"/>
		<circle id="circle8484_5_" fill="#A3A3A3" cx="106.42443" cy="162.57607" r="0.33984"/>
		<circle id="circle8486_5_" fill="#A3A3A3" cx="109.19212" cy="162.85352" r="0.31776"/>
		<circle id="circle8488_10_" fill="#A3A3A3" cx="106.867" cy="160.91815" r="0.44736"/>
		<circle id="circle8490_10_" fill="#A3A3A3" cx="108.29163" cy="160.02248" r="0.44736"/>
		<circle id="circle8492_5_" fill="#A3A3A3" cx="107.84427" cy="161.81383" r="0.44736"/>
		<circle id="circle8494_10_" fill="#A3A3A3" cx="108.99915" cy="161.36551" r="0.44736"/>
		<circle id="circle8496_5_" fill="#A3A3A3" cx="110.09932" cy="161.68518" r="0.44736"/>
	</g>
	<g>
		<circle id="circle8488_9_" fill="#A3A3A3" cx="57.42376" cy="161.69383" r="0.44736"/>
		<circle id="circle8490_9_" fill="#A3A3A3" cx="58.8484" cy="160.79816" r="0.44736"/>
		<circle id="circle8494_9_" fill="#A3A3A3" cx="59.55592" cy="162.14119" r="0.44736"/>
	</g>
	<g>
		<circle fill="#262424" stroke="#606266" stroke-width="0.5" stroke-miterlimit="10" cx="135" cy="198.5" r="34.93385"/>
		
			<line fill="none" stroke="#606266" stroke-width="0.75" stroke-miterlimit="10" x1="135" y1="198.5" x2="110.59309" y2="222.90691"/>
		
			<line fill="none" stroke="#606266" stroke-width="0.75" stroke-miterlimit="10" x1="135" y1="198.5" x2="159.70186" y2="223.20186"/>
		<circle fill="#262424" stroke="#606266" stroke-width="0.75" stroke-miterlimit="10" cx="135" cy="198.5" r="23.5"/>
	</g>
	<g>
		<circle fill="none" cx="135" cy="198.5" r="28.59473"/>
		
			<path fill="#A3A3A3" stroke="#A3A3A3" stroke-width="0.25" stroke-linecap="round" stroke-linejoin="round" stroke-miterlimit="10" d="
			M119.93945,220.89453c0.02539-0.15869,0.02246-0.3584-0.01855-0.50732c-0.03711-0.125-0.13184-0.32275-0.37793-0.50098
			c-0.42773-0.30908-0.91797-0.26025-1.20898,0.14111c-0.12109,0.16846-0.14648,0.29834-0.11035,0.49316
			c0.03613,0.22363,0.14551,0.4126,0.25684,0.6001l0.28223,0.48291c0.17285,0.29297,0.32129,0.5791,0.37207,0.89209
			c0.06055,0.37939-0.03223,0.69775-0.25781,1.00879c-0.57715,0.79736-1.55176,0.90039-2.3291,0.3374
			c-0.28516-0.20703-0.59863-0.52441-0.68555-1.03125c-0.06348-0.36182,0.02246-0.75391,0.15234-1.05518l0.56055,0.20898
			c-0.13184,0.24902-0.16895,0.51904-0.13965,0.73779c0.05078,0.32373,0.22754,0.53076,0.44727,0.69043
			c0.58984,0.42725,1.17383,0.2085,1.48828-0.22559c0.14063-0.19385,0.2041-0.40576,0.15234-0.66016
			c-0.03809-0.20508-0.15039-0.40576-0.30273-0.67432l-0.25684-0.4624c-0.1123-0.19922-0.26074-0.4458-0.31836-0.7749
			c-0.05664-0.31689-0.02051-0.59717,0.21387-0.9209c0.48438-0.66699,1.31934-0.74414,2.01953-0.23633
			c0.26563,0.19141,0.44141,0.39795,0.55176,0.69678c0.09082,0.24268,0.1123,0.52539,0.07324,0.78369L119.93945,220.89453z"/>
		
			<path fill="#A3A3A3" stroke="#A3A3A3" stroke-width="0.25" stroke-linecap="round" stroke-linejoin="round" stroke-miterlimit="10" d="
			M122.53906,221.8584l-2.29688,4.18994l-0.51953-0.28516l2.29688-4.18945l-1.1377-0.62305l0.26953-0.4917l2.79395,1.53076
			l-0.26953,0.49072L122.53906,221.8584z"/>
		
			<path fill="#A3A3A3" stroke="#A3A3A3" stroke-width="0.25" stroke-linecap="round" stroke-linejoin="round" stroke-miterlimit="10" d="
			M125.34277,222.54736c0.33691,0.12793,0.8291,0.34229,1.10645,0.73877c0.21777,0.30518,0.32617,0.78467,0.12402,1.31592
			c-0.29004,0.76221-1.00488,1.13281-1.78027,0.89795l0.73633,2.8335l-0.67383-0.25732l-0.68652-2.7627l-0.1416-0.05518
			l-0.83301,2.18652l-0.55371-0.21191l1.90234-4.99121L125.34277,222.54736z M124.21484,224.76563l0.35156,0.1333
			c0.68848,0.2627,1.22559,0.09082,1.44727-0.49316c0.10547-0.27637,0.12891-0.58447-0.11719-0.88379
			c-0.1748-0.21338-0.42383-0.32568-0.66309-0.41602l-0.33691-0.12842L124.21484,224.76563z"/>
		
			<path fill="#A3A3A3" stroke="#A3A3A3" stroke-width="0.25" stroke-linecap="round" stroke-linejoin="round" stroke-miterlimit="10" d="
			M128.02246,226.86816c-0.08691,0.43994-0.18164,0.91797,0.16504,1.35254c0.17578,0.22217,0.51367,0.41162,0.80371,0.46875
			c0.29004,0.05762,0.6748,0.01025,0.92188-0.12793c0.48535-0.27051,0.5791-0.74951,0.66699-1.18945l0.63184-3.20752
			l0.58105,0.11328l-0.66406,3.36621c-0.08691,0.43945-0.2168,0.854-0.57617,1.18945
			c-0.39941,0.36963-1.00293,0.53662-1.66992,0.40527c-0.66602-0.13184-1.16113-0.51416-1.39063-1.00732
			c-0.20508-0.44873-0.16797-0.88135-0.08105-1.32031l0.66309-3.36572l0.58008,0.11426L128.02246,226.86816z"/>
		
			<path fill="#A3A3A3" stroke="#A3A3A3" stroke-width="0.25" stroke-linecap="round" stroke-linejoin="round" stroke-miterlimit="10" d="
			M136.92969,225.58838c-0.16699-0.16992-0.4209-0.37061-0.69141-0.50098c-0.2793-0.12988-0.60742-0.2124-0.91992-0.21387
			c-1.23145-0.00781-2.15039,0.97754-2.1582,2.21045c-0.00879,1.44727,1.16211,2.18408,2.13867,2.18994
			c0.35938,0.00146,0.71289-0.09912,0.99316-0.2417c0.30469-0.1499,0.52246-0.34814,0.61914-0.44434l-0.00488,0.73584
			c-0.5957,0.41992-1.21094,0.51221-1.61133,0.50928c-1.58398-0.00928-2.75195-1.21729-2.74219-2.76074
			c0.00977-1.59229,1.20996-2.76855,2.80957-2.7583c0.32031,0.00244,0.93555,0.04639,1.57324,0.53711L136.92969,225.58838z"/>
		
			<path fill="#A3A3A3" stroke="#A3A3A3" stroke-width="0.25" stroke-linecap="round" stroke-linejoin="round" stroke-miterlimit="10" d="
			M139.20703,224.62109l0.70605,4.72266l-0.58496,0.08838l-0.70605-4.72266l-1.28223,0.19141l-0.08203-0.55371l3.14844-0.4707
			l0.08203,0.55322L139.20703,224.62109z"/>
		
			<path fill="#A3A3A3" stroke="#A3A3A3" stroke-width="0.25" stroke-linecap="round" stroke-linejoin="round" stroke-miterlimit="10" d="
			M142.5293,226.70947c0.13477,0.42871,0.28027,0.89453,0.79297,1.11133c0.26074,0.11035,0.64844,0.11572,0.93164,0.02686
			c0.2832-0.08838,0.59766-0.31299,0.74902-0.55371c0.29785-0.47021,0.15137-0.93604,0.0166-1.36475l-0.97852-3.12451
			l0.56445-0.17725l1.02734,3.27832c0.13477,0.42627,0.21777,0.85449,0.0625,1.32227
			c-0.17383,0.51611-0.625,0.95068-1.27344,1.15381c-0.65039,0.20361-1.26855,0.10352-1.70605-0.22021
			c-0.39551-0.2959-0.56934-0.69385-0.7041-1.12207l-1.02734-3.27637l0.56641-0.17725L142.5293,226.70947z"/>
		
			<path fill="#A3A3A3" stroke="#A3A3A3" stroke-width="0.25" stroke-linecap="round" stroke-linejoin="round" stroke-miterlimit="10" d="
			M146.38281,221.76709c0.32031-0.16504,0.80859-0.38867,1.28809-0.3291c0.37207,0.04248,0.80078,0.28076,1.05957,0.78613
			c0.37305,0.72656,0.16992,1.50488-0.52344,1.92334l2.59766,1.34668l-0.64063,0.3291l-2.51074-1.3374l-0.13574,0.07031
			l1.06641,2.07666l-0.52637,0.27148l-2.43652-4.74707L146.38281,221.76709z M147.27734,224.08594l0.33398-0.17188
			c0.6543-0.33545,0.88574-0.85059,0.60059-1.4043c-0.13574-0.26416-0.34863-0.48682-0.73535-0.50488
			c-0.27539-0.01074-0.52539,0.09863-0.75195,0.21582l-0.32031,0.16406L147.27734,224.08594z"/>
		
			<path fill="#A3A3A3" stroke="#A3A3A3" stroke-width="0.25" stroke-linecap="round" stroke-linejoin="round" stroke-miterlimit="10" d="
			M151.56348,219.18262l-1.77246,1.2627l0.91895,1.29004l1.7207-1.22461l0.3252,0.45605l-1.7207,1.22412l1.20117,1.68994
			l1.77344-1.2627l0.32422,0.45703l-2.25488,1.60498l-3.0957-4.34863l2.25586-1.60596L151.56348,219.18262z"/>
	</g>
	<g>
		<circle fill="none" cx="83.47665" cy="145.68958" r="28.59473"/>
		<path fill="#A3A3A3" d="M93.02148,116.61279c0.21094,0.07129,0.58594,0.21777,0.78906,0.5332
			c0.08789,0.13184,0.23047,0.43945,0.07422,0.90039c-0.06348,0.1875-0.21484,0.50293-0.62695,0.61719
			c0.4834,0.30957,0.52051,0.83594,0.39746,1.19922c-0.12402,0.36328-0.40527,0.59766-0.66406,0.68555
			c-0.38184,0.13867-0.73242,0.03125-0.99316-0.05762l-0.94434-0.31934l1.28613-3.79004L93.02148,116.61279z M91.60938,119.91552
			l0.48242,0.16406c0.24414,0.08203,0.49023,0.14648,0.71973,0.06641c0.18359-0.05762,0.35059-0.21094,0.42676-0.4375
			c0.10254-0.30176-0.01367-0.53613-0.13477-0.66602c-0.11523-0.12891-0.30273-0.23047-0.60352-0.33203l-0.43164-0.14648
			L91.60938,119.91552z M92.19531,118.18895l0.31836,0.10742c0.2207,0.0752,0.75977,0.20801,0.95898-0.37891
			c0.21191-0.62305-0.39844-0.84375-0.51758-0.88379l-0.33008-0.11133L92.19531,118.18895z"/>
		<path fill="#A3A3A3" d="M96.68945,118.08056c0.24219,0.11914,0.5957,0.3125,0.77441,0.62695
			c0.1416,0.24316,0.19043,0.60742,0.00195,0.99023c-0.26953,0.5498-0.82813,0.77637-1.39063,0.54688l0.35449,2.16504
			l-0.48438-0.23828l-0.32227-2.10938l-0.10156-0.0498L94.75,121.58447l-0.39941-0.19531l1.7627-3.5918L96.68945,118.08056z
			 M95.69531,119.6577l0.25293,0.12402c0.49512,0.24316,0.9082,0.15137,1.11426-0.26953
			c0.09766-0.19824,0.13672-0.42676-0.02637-0.66699c-0.11719-0.1709-0.29395-0.27051-0.4668-0.35547l-0.24316-0.11914
			L95.69531,119.6577z"/>
		<path fill="#A3A3A3" d="M99.84961,119.82372l-2.11719,3.40039l-0.37695-0.23633l2.11719-3.39844L99.84961,119.82372z"/>
		<path fill="#A3A3A3" d="M101.79492,123.70556l1.29102,1.05273l-0.06152,0.07422c-0.28027,0.34375-0.68457,0.63281-1.0957,0.73828
			c-0.19629,0.0498-0.89648,0.19629-1.60645-0.38281c-0.91895-0.75-1.03418-2.01172-0.29883-2.91309
			c0.73438-0.90039,1.99805-1.03711,2.92188-0.2832c0.29785,0.24316,0.58594,0.60156,0.69727,1.08008
			c0.05273,0.21973,0.06836,0.46484,0.05859,0.6582l-0.44531,0.02441c0.01465-0.19824,0.00391-0.39355-0.03125-0.55957
			c-0.0498-0.24219-0.16797-0.57129-0.53906-0.87402c-0.74805-0.61035-1.72656-0.47363-2.31445,0.24707
			c-0.68848,0.84375-0.36328,1.82129,0.2207,2.29883c0.41309,0.33691,0.94141,0.41992,1.37109,0.25195
			c0.13574-0.05078,0.31738-0.15039,0.48633-0.33887l-0.91992-0.74902L101.79492,123.70556z"/>
		<path fill="#A3A3A3" d="M104.65039,125.87354L106,127.4204l1.22559-1.06738l0.29199,0.33398l-3.01855,2.62988l-0.29199-0.33496
			l1.47461-1.28516l-1.34766-1.54688l-1.47461,1.28418l-0.29297-0.33398l3.01953-2.62988l0.29102,0.33496L104.65039,125.87354z"/>
		<path fill="#A3A3A3" d="M108.81934,129.27588l-2.99023,1.97363l-0.24414-0.37012l2.98926-1.97461l-0.53516-0.81055
			l0.34961-0.23243l1.31641,1.99317l-0.34961,0.23242L108.81934,129.27588z"/>
	</g>
	<g>
		<circle fill="none" cx="83.47665" cy="145.68958" r="28.59473"/>
		<path fill="#A3A3A3" d="M58.05859,128.55078l0.48535-0.65577c0.23828-0.32324,0.61133-0.75586,1.25293-0.9082
			c0.46387-0.11182,1.0625-0.06494,1.6416,0.36377c0.67383,0.49902,0.78906,1.09962,0.81641,1.47706
			c0.0332,0.47998-0.07422,0.87744-0.49902,1.45166l-0.48145,0.65039L58.05859,128.55078z M61.2002,130.32324l0.2334-0.31348
			c0.18848-0.25488,0.41895-0.62891,0.39063-1.13477c-0.02344-0.39063-0.19922-0.81885-0.65723-1.15821
			c-0.77148-0.57031-1.67188-0.40137-2.27539,0.41309l-0.23145,0.31396L61.2002,130.32324z"/>
		<path fill="#A3A3A3" d="M64.55176,125.36425l-1.21191,1.20068l0.4541,1.14014l-0.35059,0.34669l-1.64551-4.28028l4.23047,1.71875
			l-0.34863,0.34668L64.55176,125.36425z M64.13184,125.18847l-1.60547-0.66602l0.64063,1.62109L64.13184,125.18847z"/>
		<path fill="#A3A3A3" d="M64.87988,121.3496c0.21484-0.16211,0.54883-0.3877,0.91113-0.40381
			c0.28125-0.01465,0.62793,0.10889,0.88184,0.45068c0.36621,0.49072,0.31348,1.0918-0.14746,1.48828l2.08887,0.67236
			l-0.43359,0.32275l-2.02344-0.67676l-0.0918,0.06934l1.04688,1.40381l-0.35547,0.26563l-2.39258-3.20898L64.87988,121.3496z
			 M65.8291,122.95409l0.22559-0.16846c0.44238-0.33057,0.5498-0.73877,0.26953-1.11475
			c-0.13281-0.17773-0.31836-0.31641-0.60645-0.28027c-0.20508,0.02539-0.37598,0.1377-0.53027,0.25244l-0.21582,0.16162
			L65.8291,122.95409z"/>
		<path fill="#A3A3A3" d="M68.74805,120.80272l0.65332-2.32715l0.52441-0.29199l-0.72656,2.54053l2.72559,0.92578l-0.53516,0.29736
			l-2.32227-0.80713l-0.04492,0.15479l0.83789,1.50439l-0.38867,0.21533l-1.94531-3.49512l0.3877-0.21582L68.74805,120.80272z"/>
	</g>
	<g id="g8522_1_" transform="matrix(0.33866666,0,0,0.33866666,-6.6675,182.3825)">
		<g id="circle8514_1_">
			<circle fill="#A3A3A3" cx="418.48022" cy="-194.54625" r="66.61923"/>
		</g>
		<g id="circle8516_1_">
			<path fill="#262424" d="M418.49246-143.20956c-28.3082,0-51.3306-23.03001-51.3306-51.33821
				c0-28.30055,23.0224-51.33057,51.3306-51.33057s51.33057,23.03001,51.33057,51.33057
				C469.82303-166.23958,446.80066-143.20956,418.49246-143.20956z M418.49246-238.36208
				c-24.16815,0-43.81433,19.65381-43.81433,43.8143c0,24.16814,19.64618,43.82195,43.81433,43.82195
				c24.16812,0,43.81427-19.65381,43.81427-43.82195C462.30673-218.70827,442.66058-238.36208,418.49246-238.36208z"/>
		</g>
		<g id="circle8518_1_">
			<path fill="#262424" d="M418.49246-160.43433c-18.80597,0-34.11346-15.30751-34.11346-34.11345s15.3075-34.1058,34.11346-34.1058
				c18.80591,0,34.11343,15.29987,34.11343,34.1058S437.29837-160.43433,418.49246-160.43433z M418.49246-221.13731
				c-14.66589,0-26.5972,11.92366-26.5972,26.58954s11.9313,26.59718,26.5972,26.59718
				c14.66586,0,26.59717-11.9313,26.59717-26.59718S433.15833-221.13731,418.49246-221.13731z"/>
		</g>
		<g id="circle8520_1_">
			<path fill="#262424" d="M418.49246-177.33064c-9.487,0-17.21716-7.7225-17.21716-17.21713
				c0-9.48698,7.73016-17.20949,17.21716-17.20949c9.48697,0,17.2171,7.7225,17.2171,17.20949
				C435.70956-185.05315,427.97943-177.33064,418.49246-177.33064z M418.49246-204.241c-5.34695,0-9.7009,4.34628-9.7009,9.69322
				c0,5.35458,4.35394,9.70087,9.7009,9.70087c5.34692,0,9.70084-4.34628,9.70084-9.70087
				C428.1933-199.89471,423.83939-204.241,418.49246-204.241z"/>
		</g>
	</g>
</g>
</svg>
