<?xml version="1.0" encoding="utf-8"?>
<!-- Generator: Adobe Illustrator 24.0.2, SVG Export Plug-In . SVG Version: 6.00 Build 0)  -->
<svg version="1.0" id="Layer_1" xmlns="http://www.w3.org/2000/svg" xmlns:xlink="http://www.w3.org/1999/xlink" x="0px" y="0px"
	 width="270px" height="380px" viewBox="0 0 270 380" enable-background="new 0 0 270 380" xml:space="preserve">
<g id="_x31_6">
	<rect y="-0.00001" fill="none" width="270" height="380"/>
	<g>
		<circle fill="#262424" stroke="#606266" stroke-width="0.5" stroke-miterlimit="10" cx="83.47665" cy="145.47665" r="34.93385"/>
		
			<line fill="none" stroke="#606266" stroke-width="0.75" stroke-miterlimit="10" x1="83.47665" y1="145.47665" x2="59.06974" y2="169.88356"/>
		
			<line fill="none" stroke="#606266" stroke-width="0.75" stroke-miterlimit="10" x1="83.47665" y1="145.47665" x2="108.1785" y2="170.17851"/>
		
			<line fill="none" stroke="#606266" stroke-width="0.75" stroke-miterlimit="10" x1="83.47665" y1="145.47665" x2="50.50945" y2="157.04459"/>
		
			<line fill="none" stroke="#606266" stroke-width="0.75" stroke-miterlimit="10" x1="83.47665" y1="145.47665" x2="116.51691" y2="156.82387"/>
		<circle fill="#262424" stroke="#606266" stroke-width="0.75" stroke-miterlimit="10" cx="83.47665" cy="145.47665" r="23.5"/>
	</g>
	<g>
		<circle fill="#262424" stroke="#606266" stroke-width="0.5" stroke-miterlimit="10" cx="186.5" cy="145.44551" r="34.93385"/>
		
			<line fill="none" stroke="#606266" stroke-width="0.75" stroke-miterlimit="10" x1="186.5" y1="145.44551" x2="162.09309" y2="169.85242"/>
		
			<line fill="none" stroke="#606266" stroke-width="0.75" stroke-miterlimit="10" x1="186.5" y1="145.44551" x2="211.20186" y2="170.14737"/>
		<circle fill="#262424" stroke="#606266" stroke-width="0.75" stroke-miterlimit="10" cx="186.5" cy="145.44551" r="23.5"/>
	</g>
	<g>
		<circle fill="#262424" stroke="#606266" stroke-width="0.5" stroke-miterlimit="10" cx="135" cy="283.5" r="34.93385"/>
		
			<line fill="none" stroke="#606266" stroke-width="0.75" stroke-miterlimit="10" x1="135" y1="283.5" x2="110.30396" y2="308.19604"/>
		
			<line fill="none" stroke="#606266" stroke-width="0.75" stroke-miterlimit="10" x1="135" y1="283.5" x2="159.69603" y2="308.19604"/>
		<line fill="none" stroke="#606266" stroke-width="0.5" stroke-miterlimit="10" x1="135" y1="248.56616" x2="135" y2="283.5"/>
		<circle fill="#262424" stroke="#606266" stroke-width="0.75" stroke-miterlimit="10" cx="135" cy="283.5" r="23.5"/>
	</g>
	<g>
		<circle fill="none" cx="71" cy="351" r="14.578"/>
		
			<path fill="#A3A3A3" stroke="#A3A3A3" stroke-width="0.25" stroke-linecap="round" stroke-linejoin="round" stroke-miterlimit="10" d="
			M54.46094,343.02637l3.41113,1.58984l-0.19629,0.42236l-3.41113-1.58887l-0.43066,0.9248l-0.40039-0.18604l1.05957-2.27344
			l0.39941,0.18652L54.46094,343.02637z"/>
		
			<path fill="#A3A3A3" stroke="#A3A3A3" stroke-width="0.25" stroke-linecap="round" stroke-linejoin="round" stroke-miterlimit="10" d="
			M55.74121,340.00977c0.16992-0.22607,0.43848-0.55322,0.79785-0.67578c0.2793-0.09912,0.66406-0.07813,1.02344,0.18994
			c0.51367,0.38428,0.63867,1.00635,0.29297,1.54199l2.30273,0.05664l-0.33984,0.45361l-2.23828-0.0791l-0.07227,0.0957
			l1.47266,1.10254l-0.2793,0.37354l-3.36426-2.51953L55.74121,340.00977z M57.1748,341.34375l0.17676-0.23633
			c0.34863-0.46484,0.33398-0.90869-0.05957-1.20313c-0.18652-0.13916-0.41504-0.22412-0.69434-0.10254
			c-0.19922,0.0874-0.33691,0.25049-0.45801,0.41162l-0.16992,0.22803L57.1748,341.34375z"/>
		
			<path fill="#A3A3A3" stroke="#A3A3A3" stroke-width="0.25" stroke-linecap="round" stroke-linejoin="round" stroke-miterlimit="10" d="
			M61.75098,338.16943l-1.38574,1.12891l0.35742,1.23535l-0.40039,0.32617l-1.2793-4.63086l4.23633,2.22168l-0.40039,0.32568
			L61.75098,338.16943z M61.33105,337.94287l-1.60742-0.85791l0.50488,1.75586L61.33105,337.94287z"/>
		
			<path fill="#A3A3A3" stroke="#A3A3A3" stroke-width="0.25" stroke-linecap="round" stroke-linejoin="round" stroke-miterlimit="10" d="
			M63.82813,338.13379l-1.62891-4.06445l4.31738,1.96875l-1.21191-3.02295l0.43359-0.17432l1.63281,4.07617l-4.31836-1.96875
			l1.20703,3.01123L63.82813,338.13379z"/>
		
			<path fill="#A3A3A3" stroke="#A3A3A3" stroke-width="0.25" stroke-linecap="round" stroke-linejoin="round" stroke-miterlimit="10" d="
			M69.94531,333.03076c-0.06836-0.10742-0.17383-0.22314-0.27539-0.28906c-0.08887-0.05322-0.24805-0.11963-0.48633-0.09473
			c-0.41309,0.04248-0.67578,0.32959-0.63477,0.71777c0.0166,0.16406,0.07031,0.25244,0.19336,0.34717
			c0.13867,0.1123,0.30273,0.16602,0.4668,0.21875l0.41992,0.13379c0.25488,0.08105,0.49219,0.16992,0.68555,0.32813
			c0.23535,0.19043,0.34863,0.42676,0.38086,0.72705c0.07813,0.77148-0.43848,1.34424-1.19043,1.42188
			c-0.27637,0.02881-0.62695,0.00781-0.94434-0.24414c-0.22852-0.17871-0.38281-0.45459-0.46484-0.69971l0.4375-0.17236
			c0.05469,0.2168,0.17383,0.39404,0.30664,0.50684c0.20117,0.16357,0.41211,0.19238,0.625,0.17041
			c0.57129-0.05859,0.79883-0.49512,0.75488-0.91455c-0.01953-0.18799-0.09277-0.34521-0.25684-0.46777
			c-0.13086-0.10059-0.30273-0.15869-0.53125-0.23633l-0.39453-0.13721c-0.17188-0.05811-0.38672-0.12402-0.59375-0.28613
			c-0.2002-0.15771-0.32715-0.34082-0.35938-0.65381c-0.06641-0.64551,0.38379-1.12988,1.06055-1.2002
			c0.25684-0.02637,0.46875,0.00244,0.69043,0.11914c0.18066,0.09473,0.34277,0.25,0.45605,0.42139L69.94531,333.03076z"/>
		
			<path fill="#A3A3A3" stroke="#A3A3A3" stroke-width="0.25" stroke-linecap="round" stroke-linejoin="round" stroke-miterlimit="10" d="
			M72.5957,332.25098l-0.30273,4.19434l-0.46484-0.0332l0.30176-4.19482L72.5957,332.25098z"/>
		
			<path fill="#A3A3A3" stroke="#A3A3A3" stroke-width="0.25" stroke-linecap="round" stroke-linejoin="round" stroke-miterlimit="10" d="
			M76.19336,333.76514c-0.02734-0.12354-0.08789-0.27002-0.16113-0.36572c-0.06348-0.08105-0.19043-0.19824-0.42188-0.25684
			c-0.40332-0.10303-0.74805,0.07617-0.84473,0.45361c-0.04102,0.16016-0.02148,0.26172,0.0625,0.39404
			c0.0918,0.15234,0.22656,0.25879,0.36328,0.36523l0.34668,0.27002c0.21191,0.16602,0.40332,0.33105,0.53027,0.54541
			c0.15527,0.26123,0.17969,0.521,0.10547,0.81348c-0.19141,0.75146-0.875,1.11035-1.60742,0.92383
			c-0.26953-0.06836-0.58984-0.2085-0.80273-0.55518c-0.15039-0.24658-0.20117-0.55908-0.19434-0.81738l0.47168-0.01025
			c-0.02441,0.22119,0.02734,0.43018,0.11133,0.58154c0.13184,0.22266,0.32227,0.32324,0.5293,0.37549
			c0.55469,0.1416,0.91895-0.18848,1.02344-0.59814c0.04688-0.18311,0.03223-0.35498-0.08008-0.52734
			c-0.08789-0.13916-0.22852-0.25391-0.41797-0.40576l-0.32227-0.26416c-0.13965-0.11279-0.32031-0.25098-0.45703-0.47412
			c-0.13477-0.21582-0.18945-0.43115-0.1123-0.7373c0.16016-0.62939,0.75-0.92725,1.40918-0.76025
			c0.25098,0.06396,0.43945,0.16504,0.60742,0.35107c0.13672,0.15137,0.23535,0.35156,0.28223,0.55322L76.19336,333.76514z"/>
		
			<path fill="#A3A3A3" stroke="#A3A3A3" stroke-width="0.25" stroke-linecap="round" stroke-linejoin="round" stroke-miterlimit="10" d="
			M79.06445,334.49902l-1.61719,3.39355l-0.4209-0.2002l1.61816-3.39502l-0.9209-0.43896l0.18945-0.39697l2.2627,1.07764
			l-0.18945,0.39893L79.06445,334.49902z"/>
		
			<path fill="#A3A3A3" stroke="#A3A3A3" stroke-width="0.25" stroke-linecap="round" stroke-linejoin="round" stroke-miterlimit="10" d="
			M80.01465,336.77148c0.80371-0.96289,2.14355-1.04297,3.07129-0.26709c0.92969,0.77441,1.08887,2.10693,0.28516,3.06934
			c-0.80078,0.9585-2.13867,1.04736-3.07227,0.26709C79.36621,339.06152,79.21484,337.72803,80.01465,336.77148z
			 M80.38281,337.07715c-0.61816,0.74121-0.52637,1.82031,0.19922,2.42578c0.72461,0.60645,1.80273,0.50439,2.42188-0.23584
			c0.61719-0.74023,0.52539-1.81836-0.20117-2.4248C82.07813,336.2373,81,336.33789,80.38281,337.07715z"/>
		
			<path fill="#A3A3A3" stroke="#A3A3A3" stroke-width="0.25" stroke-linecap="round" stroke-linejoin="round" stroke-miterlimit="10" d="
			M86.36523,340.15869c0.1582,0.23486,0.37891,0.59473,0.37793,0.97656c0.00098,0.29492-0.14453,0.65283-0.51563,0.90332
			c-0.53223,0.35986-1.16113,0.27441-1.55371-0.22803l-0.80859,2.15869L83.54688,343.5l0.80859-2.09082l-0.06641-0.10059
			l-1.52539,1.03223l-0.26172-0.3877l3.48438-2.35449L86.36523,340.15869z M84.63379,341.07617l0.16602,0.24561
			c0.3252,0.48047,0.74902,0.6123,1.15625,0.33691c0.19336-0.12988,0.34668-0.31836,0.32422-0.62207
			c-0.0166-0.21729-0.12598-0.40137-0.23926-0.56885l-0.1582-0.23438L84.63379,341.07617z"/>
		
			<path fill="#A3A3A3" stroke="#A3A3A3" stroke-width="0.25" stroke-linecap="round" stroke-linejoin="round" stroke-miterlimit="10" d="
			M88.04102,345.27441c0.08594-0.09424,0.16992-0.22705,0.20703-0.34277c0.0293-0.09863,0.05078-0.26904-0.03418-0.49268
			c-0.14941-0.38965-0.49414-0.56738-0.8584-0.42676c-0.1543,0.05859-0.22656,0.13281-0.28516,0.27734
			c-0.07227,0.16309-0.08203,0.33496-0.08984,0.50684l-0.02051,0.43945c-0.01172,0.26758-0.03613,0.51953-0.1377,0.74902
			c-0.12402,0.27637-0.32227,0.44678-0.60449,0.55469c-0.72363,0.27686-1.41211-0.07373-1.68262-0.7793
			c-0.09961-0.25928-0.16992-0.60449-0.00879-0.97559c0.11426-0.2666,0.33887-0.48779,0.55469-0.63135l0.28027,0.37939
			c-0.19531,0.1084-0.33594,0.27002-0.41016,0.42725c-0.10547,0.23535-0.07813,0.44727-0.00098,0.64844
			c0.2041,0.53516,0.68457,0.64209,1.0791,0.49023c0.17578-0.06641,0.30859-0.17822,0.38477-0.36914
			c0.0625-0.15283,0.07422-0.33301,0.08984-0.5752l0.0293-0.41699c0.01172-0.17871,0.01953-0.40479,0.12305-0.64697
			c0.09961-0.23389,0.24414-0.40381,0.53809-0.51563c0.60645-0.2334,1.19043,0.07617,1.43359,0.71143
			c0.09277,0.2417,0.12012,0.45508,0.06543,0.69873c-0.0459,0.19873-0.15234,0.39502-0.29004,0.54932L88.04102,345.27441z"/>
	</g>
	<g>
		<circle fill="none" cx="199.5" cy="351.03378" r="14.578"/>
		
			<path fill="#A3A3A3" stroke="#A3A3A3" stroke-width="0.25" stroke-linecap="round" stroke-linejoin="round" stroke-miterlimit="10" d="
			M184.75391,339.37549c0.17871-0.22021,0.46094-0.53271,0.82617-0.64014c0.28125-0.08643,0.66602-0.04736,1.01074,0.23535
			c0.49609,0.40674,0.59277,1.0332,0.22363,1.55176l2.2959,0.15723l-0.35938,0.43848l-2.23047-0.17871l-0.0752,0.09229
			l1.41992,1.16504l-0.2959,0.36133l-3.24316-2.6626L184.75391,339.37549z M186.12402,340.76904l0.18848-0.22852
			c0.36719-0.44775,0.37109-0.89111-0.00781-1.20264c-0.17969-0.14697-0.40332-0.2417-0.6875-0.13232
			c-0.20215,0.07715-0.34766,0.23438-0.47656,0.39111l-0.17969,0.21826L186.12402,340.76904z"/>
		
			<path fill="#A3A3A3" stroke="#A3A3A3" stroke-width="0.25" stroke-linecap="round" stroke-linejoin="round" stroke-miterlimit="10" d="
			M187.31152,336.71094l2.76563,3.16211l-0.35059,0.30664l-2.7666-3.16211L187.31152,336.71094z"/>
		
			<path fill="#A3A3A3" stroke="#A3A3A3" stroke-width="0.25" stroke-linecap="round" stroke-linejoin="round" stroke-miterlimit="10" d="
			M190.83398,339.12695l-2.10742-3.83105l4.51953,1.42578l-1.56836-2.84961l0.40723-0.22412l2.11426,3.84131l-4.51953-1.42578
			l1.5625,2.83838L190.83398,339.12695z"/>
		
			<path fill="#A3A3A3" stroke="#A3A3A3" stroke-width="0.25" stroke-linecap="round" stroke-linejoin="round" stroke-miterlimit="10" d="
			M196.71582,334.54199l1.72168-0.32275l0.01953,0.09863c0.08398,0.45898,0.04102,0.97998-0.15234,1.38135
			c-0.0918,0.18994-0.44824,0.85352-1.39648,1.03174c-1.22656,0.22998-2.31836-0.53271-2.54395-1.73535
			c-0.22559-1.2002,0.52148-2.30957,1.75391-2.54102c0.39648-0.07471,0.87988-0.06201,1.34082,0.17139
			c0.21289,0.10889,0.4209,0.26074,0.56836,0.3999l-0.28223,0.37354c-0.14941-0.14453-0.31348-0.26807-0.4707-0.35303
			c-0.22852-0.125-0.57324-0.25146-1.06836-0.15869c-0.99707,0.18652-1.55078,1.06689-1.37012,2.02588
			c0.21191,1.12793,1.2168,1.5293,1.99707,1.38232c0.55176-0.10303,0.97559-0.47119,1.13379-0.93018
			c0.0498-0.14404,0.09277-0.35742,0.05664-0.62012l-1.22656,0.22998L196.71582,334.54199z"/>
		
			<path fill="#A3A3A3" stroke="#A3A3A3" stroke-width="0.25" stroke-linecap="round" stroke-linejoin="round" stroke-miterlimit="10" d="
			M201.67578,336.39795l2.00488-4.01172l0.46484,3.86377l2.6377-2.88721l-0.7168,4.42822l-0.45508-0.146l0.50391-2.90332
			l-2.29688,2.52002l-0.4082-3.37744l-1.2793,2.6582L201.67578,336.39795z"/>
		
			<path fill="#A3A3A3" stroke="#A3A3A3" stroke-width="0.25" stroke-linecap="round" stroke-linejoin="round" stroke-miterlimit="10" d="
			M207.82617,336.39063c0.75781-0.99756,2.09082-1.13916,3.05469-0.40771c0.96289,0.73145,1.18359,2.05469,0.42578,3.05176
			c-0.75391,0.99365-2.08691,1.14404-3.05469,0.40918C207.28418,338.70801,207.07129,337.38428,207.82617,336.39063z
			 M208.20703,336.68018c-0.58301,0.76855-0.44043,1.84033,0.31152,2.41211c0.75293,0.57178,1.82422,0.4209,2.40723-0.34668
			c0.58203-0.76855,0.44043-1.84131-0.3125-2.41211C209.86133,335.76221,208.78906,335.91357,208.20703,336.68018z"/>
		
			<path fill="#A3A3A3" stroke="#A3A3A3" stroke-width="0.25" stroke-linecap="round" stroke-linejoin="round" stroke-miterlimit="10" d="
			M213.875,338.83447l0.50195,0.69434c0.24609,0.3418,0.56055,0.85303,0.50781,1.54297c-0.03516,0.5-0.27344,1.0835-0.88477,1.52588
			c-0.71484,0.51611-1.35254,0.44141-1.73828,0.34668c-0.49023-0.11865-0.85352-0.35303-1.29297-0.96143l-0.49805-0.68799
			L213.875,338.83447z M211.10156,341.41357l0.23926,0.33252c0.19531,0.27051,0.49512,0.62109,1.01074,0.75293
			c0.39844,0.1001,0.88281,0.06055,1.36719-0.28955c0.81641-0.58984,0.93457-1.54443,0.31055-2.40674l-0.23926-0.33252
			L211.10156,341.41357z"/>
	</g>
	<g>
		
			<ellipse transform="matrix(0.08248 -0.99659 0.99659 0.08248 7.76603 241.4274)" fill="none" cx="135" cy="116.49604" rx="25.58" ry="25.58002"/>
		<path fill="#A3A3A3" stroke="#A3A3A3" stroke-width="0.25" stroke-miterlimit="10" d="M110.2793,103.39843l-2.5752,0.02197
			l0.28125-0.51514l2.00195-0.00732l-1.06543-1.71094l0.28027-0.5166l1.36426,2.20068l2.76367-0.03027l-0.28125,0.51563
			l-2.19336,0.02295l1.16406,1.86719l-0.28125,0.51514L110.2793,103.39843z"/>
		<path fill="#A3A3A3" stroke="#A3A3A3" stroke-width="0.25" stroke-miterlimit="10" d="M109.90234,99.60741l3.64355,1.06055
			l-2.0791-3.17432l0.33984-0.46045l2.85254,4.4585l-5.09863-1.42383L109.90234,99.60741z"/>
		<path fill="#A3A3A3" stroke="#A3A3A3" stroke-width="0.25" stroke-miterlimit="10" d="M112.86816,95.90868l3.44629,3.1499
			l-0.34961,0.38184l-3.44629-3.14941L112.86816,95.90868z"/>
		<path fill="#A3A3A3" stroke="#A3A3A3" stroke-width="0.25" stroke-miterlimit="10" d="M116.7998,97.66895
			c0.13574-0.13232,0.36426-0.12842,0.49512,0.00732c0.13086,0.13672,0.12695,0.36426-0.00781,0.49561
			c-0.13672,0.13232-0.36426,0.12793-0.49609-0.00879C116.66016,98.02782,116.66406,97.80029,116.7998,97.66895z"/>
		<path fill="#A3A3A3" stroke="#A3A3A3" stroke-width="0.25" stroke-miterlimit="10" d="M120.73438,93.70214l-1.64648,1.11719
			l0.27539,1.40332l-0.47461,0.32227l-0.96875-5.25732l4.48047,2.87451l-0.47559,0.32227L120.73438,93.70214z M120.29102,93.41113
			l-1.69824-1.10742l0.38867,1.99414L120.29102,93.41113z"/>
		<path fill="#A3A3A3" stroke="#A3A3A3" stroke-width="0.25" stroke-miterlimit="10" d="M122.79492,93.94335l-1.96094-4.45264
			l4.86816,2.0249l-1.45801-3.31201l0.47461-0.20801l1.96484,4.46436l-4.86719-2.0249l1.45117,3.29932L122.79492,93.94335z"/>
		<path fill="#A3A3A3" stroke="#A3A3A3" stroke-width="0.25" stroke-miterlimit="10" d="M129.78613,90.11815l-1.93555,0.45654
			l-0.24219,1.40967l-0.55859,0.13232l0.9668-5.25684l3.16113,4.28174l-0.55859,0.13135L129.78613,90.11815z M129.47461,89.68749
			l-1.19141-1.63916l-0.34766,2.00293L129.47461,89.68749z"/>
		<path fill="#A3A3A3" stroke="#A3A3A3" stroke-width="0.25" stroke-miterlimit="10" d="M131.69727,86.45214l0.43945,4.1582
			l1.2832-0.13477l0.05078,0.4873l-1.79688,0.18945l-0.49219-4.64551L131.69727,86.45214z"/>
		<path fill="#A3A3A3" stroke="#A3A3A3" stroke-width="0.25" stroke-miterlimit="10" d="M133.60742,88.54247
			c0.04883-1.39111,1.16797-2.375,2.51074-2.32764c1.34277,0.04639,2.3916,1.10645,2.34277,2.49707
			c-0.04883,1.38477-1.16211,2.375-2.51172,2.32715C134.59961,90.99268,133.55957,89.92772,133.60742,88.54247z M134.13965,88.56152
			c-0.03809,1.06982,0.77832,1.95166,1.82715,1.98926c1.04883,0.03613,1.9248-0.78711,1.96289-1.85693
			c0.03711-1.06982-0.7793-1.95264-1.82813-1.98926S134.17676,87.49169,134.13965,88.56152z"/>
		<path fill="#A3A3A3" stroke="#A3A3A3" stroke-width="0.25" stroke-miterlimit="10" d="M141.98047,89.47948l1.88867,0.4624
			l-0.02637,0.10938c-0.12402,0.50244-0.40625,1.00928-0.78711,1.32715c-0.18066,0.15039-0.84473,0.65625-1.88477,0.40186
			c-1.3457-0.32959-2.09961-1.60254-1.77637-2.92188c0.32227-1.31787,1.58691-2.09619,2.93945-1.76367
			c0.43555,0.10693,0.91797,0.33984,1.27734,0.78906c0.16504,0.20557,0.30469,0.45605,0.39063,0.66504l-0.45703,0.24707
			c-0.08398-0.21436-0.19336-0.41504-0.3125-0.57324c-0.1748-0.22949-0.46484-0.51758-1.00781-0.65186
			c-1.09375-0.26758-2.05664,0.36816-2.31543,1.42236c-0.30371,1.23535,0.52832,2.10254,1.38477,2.31299
			c0.60449,0.14795,1.20313-0.02881,1.57324-0.42139c0.11621-0.12305,0.25781-0.31836,0.3418-0.60107l-1.3457-0.32959
			L141.98047,89.47948z"/>
		<path fill="#A3A3A3" stroke="#A3A3A3" stroke-width="0.25" stroke-miterlimit="10" d="M147.20215,90.89354l2.11719,1.12109
			l0.88867-1.67725l0.45801,0.24268l-2.18555,4.12939l-0.45898-0.24268l1.06836-2.01807l-2.11719-1.12109l-1.06836,2.01807
			l-0.45801-0.2417l2.18555-4.13037l0.45801,0.24316L147.20215,90.89354z"/>
		<path fill="#A3A3A3" stroke="#A3A3A3" stroke-width="0.25" stroke-miterlimit="10" d="M152.41797,91.78905l-2.65234,3.83789
			l-0.42578-0.29443l2.65137-3.83691L152.41797,91.78905z"/>
		<path fill="#A3A3A3" stroke="#A3A3A3" stroke-width="0.25" stroke-miterlimit="10" d="M152.08594,94.10741l1.19922,0.96729
			l-0.32617,0.40283l-1.19922-0.96631L152.08594,94.10741z"/>
		<path fill="#A3A3A3" stroke="#A3A3A3" stroke-width="0.25" stroke-miterlimit="10" d="M154.66211,96.05712l1.6543,1.72803
			l1.37012-1.31055l0.3584,0.37354l-3.37207,3.22803l-0.3584-0.37402l1.64844-1.57813l-1.65527-1.72852l-1.64746,1.57813
			l-0.3584-0.375l3.37207-3.22754l0.35742,0.37354L154.66211,96.05712z"/>
		<path fill="#A3A3A3" stroke="#A3A3A3" stroke-width="0.25" stroke-miterlimit="10" d="M157.8291,102.25097l-1.11621-1.64551
			l-1.40332,0.27539l-0.32324-0.47559l5.25781-0.9668l-2.875,4.47852l-0.32227-0.47412L157.8291,102.25097z M158.12109,101.80859
			l1.10742-1.69824l-1.99609,0.38867L158.12109,101.80859z"/>
		<path fill="#A3A3A3" stroke="#A3A3A3" stroke-width="0.25" stroke-miterlimit="10" d="M161.65332,103.25927l-3.72559,1.89307
			l-0.23438-0.46289l3.72461-1.8916l-0.5127-1.01074l0.43652-0.22217l1.26172,2.48389l-0.4375,0.22119L161.65332,103.25927z"/>
	</g>
	<g>
		<circle fill="none" cx="83.5" cy="145.5" r="28.59473"/>
		<path fill="#A3A3A3" stroke="#A3A3A3" stroke-width="0.25" stroke-linejoin="round" stroke-miterlimit="10" d="
			M75.52051,170.78223l-1.72363-0.64551l-0.55176,1.47607l1.66309,0.62207l-0.19629,0.52441l-1.66309-0.62207l-0.92578,2.47217
			l-0.55371-0.20801l1.87012-4.99609l2.27734,0.85254L75.52051,170.78223z"/>
		<path fill="#A3A3A3" stroke="#A3A3A3" stroke-width="0.25" stroke-linejoin="round" stroke-miterlimit="10" d="M77.76172,170.7749
			l-1.24219,5.18701l-0.5752-0.13916l1.24219-5.18604L77.76172,170.7749z"/>
		<path fill="#A3A3A3" stroke="#A3A3A3" stroke-width="0.25" stroke-linejoin="round" stroke-miterlimit="10" d="
			M80.20508,171.19824l-0.5752,4.7417l1.46094,0.17822l-0.06738,0.55566l-2.0498-0.24902l0.64453-5.29736L80.20508,171.19824z"/>
		<path fill="#A3A3A3" stroke="#A3A3A3" stroke-width="0.25" stroke-linejoin="round" stroke-miterlimit="10" d="
			M84.07129,171.95654l0.06055,4.77393l-0.5918,0.00684l-0.06055-4.77393l-1.2959,0.01709l-0.00684-0.55957l3.18262-0.04102
			l0.00684,0.56006L84.07129,171.95654z"/>
		<path fill="#A3A3A3" stroke="#A3A3A3" stroke-width="0.25" stroke-linejoin="round" stroke-miterlimit="10" d="
			M89.38672,171.33838l-2.14648,0.3584l0.26074,1.56299l2.08398-0.34814l0.09277,0.55176l-2.08398,0.34912l0.3418,2.04346
			l2.14648-0.35742l0.0918,0.55176l-2.73047,0.45654l-0.87988-5.26514l2.73145-0.45605L89.38672,171.33838z"/>
		<path fill="#A3A3A3" stroke="#A3A3A3" stroke-width="0.25" stroke-linejoin="round" stroke-miterlimit="10" d="
			M91.50391,170.13379c0.34082-0.11816,0.85547-0.26953,1.32227-0.14111c0.36328,0.09521,0.75391,0.3916,0.93848,0.93018
			c0.26465,0.771-0.04785,1.51221-0.79395,1.82959l2.38086,1.70313l-0.68164,0.23389l-2.29492-1.68164l-0.14453,0.04932
			l0.75977,2.21045l-0.56055,0.19238l-1.73438-5.04883L91.50391,170.13379z M92.05859,172.55762l0.35547-0.12158
			c0.69629-0.24023,0.99805-0.71582,0.79492-1.30566c-0.0957-0.28076-0.27539-0.53223-0.65625-0.60449
			c-0.27051-0.05127-0.5332,0.02246-0.77539,0.10645l-0.34082,0.11621L92.05859,172.55762z"/>
	</g>
	<g>
		<circle fill="none" cx="186.44551" cy="145.5" r="28.59473"/>
		<path fill="#A3A3A3" stroke="#A3A3A3" stroke-width="0.25" stroke-linejoin="round" stroke-miterlimit="10" d="
			M175.70215,169.17236l1.02051,0.37988c0.50195,0.18604,1.19531,0.50391,1.62695,1.27051
			c0.31543,0.55273,0.47656,1.33789,0.1416,2.23828c-0.39063,1.0498-1.11719,1.41992-1.5918,1.59375
			c-0.60254,0.22021-1.15137,0.22949-2.04395-0.10352l-1.01367-0.375L175.70215,169.17236z M174.59277,173.85742l0.4873,0.18115
			c0.39746,0.14746,0.96191,0.30664,1.60059,0.08252c0.49121-0.17627,0.97559-0.56006,1.24023-1.27197
			c0.44629-1.2002-0.10352-2.29248-1.37109-2.76318l-0.4873-0.18164L174.59277,173.85742z"/>
		<path fill="#A3A3A3" stroke="#A3A3A3" stroke-width="0.25" stroke-linejoin="round" stroke-miterlimit="10" d="
			M183.43359,171.8584l-2.14355-0.36621l-0.2666,1.56104l2.08008,0.35547l-0.09375,0.55225l-2.08008-0.35645l-0.34961,2.04102
			l2.14453,0.36621l-0.09473,0.55225l-2.72754-0.46533l0.89844-5.2583l2.72754,0.4668L183.43359,171.8584z"/>
		<path fill="#A3A3A3" stroke="#A3A3A3" stroke-width="0.25" stroke-linejoin="round" stroke-miterlimit="10" d="
			M188.99805,172.55615c-0.16992-0.16504-0.42969-0.36035-0.7041-0.48389c-0.28223-0.12256-0.61035-0.19727-0.92285-0.19287
			c-1.23047,0.02148-2.125,1.02686-2.10547,2.25928c0.02441,1.44629,1.21191,2.1543,2.1875,2.13818
			c0.35938-0.00488,0.70898-0.11523,0.98633-0.26465c0.30176-0.15723,0.51465-0.35938,0.60938-0.45752l0.01172,0.73633
			c-0.58398,0.43262-1.19922,0.53857-1.59863,0.5459c-1.58301,0.02637-2.77832-1.15283-2.80371-2.69678
			c-0.02734-1.58984,1.14453-2.79443,2.74414-2.82129c0.31934-0.00439,0.93555,0.0249,1.58398,0.50293L188.99805,172.55615z"/>
		<path fill="#A3A3A3" stroke="#A3A3A3" stroke-width="0.25" stroke-linejoin="round" stroke-miterlimit="10" d="
			M194.06543,174.27637l-2.21875,0.49463l-0.29785,1.60742l-0.64063,0.14355l1.18164-5.99658l3.55273,4.94092l-0.64063,0.14258
			L194.06543,174.27637z M193.7168,173.77881l-1.33984-1.89063l-0.42578,2.28516L193.7168,173.77881z"/>
		<path fill="#A3A3A3" stroke="#A3A3A3" stroke-width="0.25" stroke-linejoin="round" stroke-miterlimit="10" d="
			M197.20313,172.37988l-2.78027-2.14209l0.63672-0.26172l2.16699,1.68506l0.36133-2.73047l0.63672-0.26221l-0.47461,3.48633
			l0.87598,2.12207l-0.5459,0.22607L197.20313,172.37988z"/>
	</g>
	<g>
		<circle fill="none" cx="135" cy="283.5" r="28.59473"/>
		
			<path fill="#A3A3A3" stroke="#A3A3A3" stroke-width="0.25" stroke-linecap="round" stroke-linejoin="round" stroke-miterlimit="10" d="
			M117.6709,309.67383l3.43262-4.54932l-0.3125,4.93604l3.96484-2.99658l-1.91992,5.36523l-0.53711-0.28564l1.30273-3.51123
			l-3.45313,2.61572l0.27148-4.31299l-2.21289,3.0249L117.6709,309.67383z"/>
		
			<path fill="#A3A3A3" stroke="#A3A3A3" stroke-width="0.25" stroke-linecap="round" stroke-linejoin="round" stroke-miterlimit="10" d="
			M127.42578,308.27979l-1.61328,5.0874l-0.56445-0.17871l1.61328-5.0874L127.42578,308.27979z"/>
		
			<path fill="#A3A3A3" stroke="#A3A3A3" stroke-width="0.25" stroke-linecap="round" stroke-linejoin="round" stroke-miterlimit="10" d="
			M129.7207,311.49268l-0.96484-2.78711l0.66309,0.11621l0.74023,2.17041l1.46777-1.78223l0.66211,0.11719l-1.88965,2.28467
			l1.04395,2.98877l-0.66309-0.11621l-0.82617-2.37305l-1.60254,1.9458l-0.66211-0.11719L129.7207,311.49268z"/>
		
			<path fill="#A3A3A3" stroke="#A3A3A3" stroke-width="0.25" stroke-linecap="round" stroke-linejoin="round" stroke-miterlimit="10" d="
			M135.90332,312.21533c-0.2207-1.57666,0.8457-2.9043,2.36621-3.11719c1.51953-0.21289,2.91016,0.77246,3.12988,2.34814
			c0.21973,1.56787-0.83691,2.90234-2.36621,3.11621C137.50391,314.77686,136.12305,313.7832,135.90332,312.21533z
			 M136.50488,312.13086c0.16895,1.21143,1.2627,2.04297,2.4502,1.87695c1.18848-0.16602,2.01172-1.26611,1.84277-2.47705
			c-0.16895-1.21143-1.2627-2.04395-2.45117-1.87793C137.1582,309.81787,136.33594,310.91846,136.50488,312.13086z"/>
		
			<path fill="#A3A3A3" stroke="#A3A3A3" stroke-width="0.25" stroke-linecap="round" stroke-linejoin="round" stroke-miterlimit="10" d="
			M144.00879,311.27246c0.15723,0.41992,0.3291,0.87695,0.85254,1.06543c0.26563,0.09619,0.65332,0.07959,0.93164-0.02344
			c0.27734-0.10449,0.58008-0.3457,0.7168-0.59326c0.27148-0.4873,0.09961-0.94434-0.05664-1.36377l-1.14844-3.06592
			l0.55469-0.20801l1.2041,3.21582c0.15723,0.41895,0.26465,0.84082,0.13477,1.31787
			c-0.14551,0.52393-0.57129,0.98389-1.20996,1.22217c-0.63672,0.2373-1.25977,0.17285-1.71387-0.12842
			c-0.41113-0.27295-0.60645-0.66113-0.76465-1.08105l-1.2041-3.21582l0.55566-0.2085L144.00879,311.27246z"/>
		
			<path fill="#A3A3A3" stroke="#A3A3A3" stroke-width="0.25" stroke-linecap="round" stroke-linejoin="round" stroke-miterlimit="10" d="
			M148.77148,306.08643l2.44727,4.10596l-0.50781,0.30322l-2.44922-4.10645l-1.11328,0.66455l-0.28711-0.48096l2.73633-1.63135
			l0.28809,0.48096L148.77148,306.08643z"/>
	</g>
	<g>
		<circle fill="none" cx="135" cy="283.44943" r="28.59473"/>
		<path fill="#A3A3A3" d="M143.04688,253.96191c0.25977,0.07422,0.6416,0.20313,0.87305,0.48145
			c0.18164,0.21387,0.29492,0.56445,0.17773,0.97363c-0.16895,0.58691-0.67871,0.91016-1.27344,0.7832l0.73145,2.06836
			l-0.51855-0.14746l-0.68945-2.01953l-0.10938-0.03027l-0.48047,1.68262l-0.42773-0.12207l1.09961-3.8457L143.04688,253.96191z
			 M142.34766,255.68945l0.27051,0.07813c0.53027,0.15234,0.9209-0.01172,1.04883-0.46191
			c0.06152-0.21289,0.05957-0.44434-0.14355-0.65137c-0.14453-0.14844-0.33789-0.21582-0.52344-0.26855l-0.25781-0.07422
			L142.34766,255.68945z"/>
		<path fill="#A3A3A3" d="M146.47949,255.11816l-1.47656,3.71973l-0.41309-0.16309l1.47754-3.72168L146.47949,255.11816z"/>
		<path fill="#A3A3A3" d="M146.28516,259.33496l2.01953-3.65332l1.14941,4.37598l1.50293-2.7168l0.3877,0.21387l-2.02441,3.66309
			l-1.14941-4.37402l-1.49707,2.70605L146.28516,259.33496z"/>
		<path fill="#A3A3A3" d="M153.32031,261.53223l1.28906,1.05762l-0.06055,0.07324c-0.28125,0.34375-0.6875,0.63184-1.09961,0.73535
			c-0.19434,0.0498-0.89648,0.19629-1.60547-0.38574c-0.91895-0.75195-1.03125-2.01465-0.29395-2.91406
			c0.73633-0.90137,2.00195-1.03516,2.9248-0.2793c0.29785,0.24316,0.58398,0.60352,0.69629,1.08203
			c0.05176,0.21973,0.06738,0.46582,0.05664,0.6582l-0.44434,0.02344c0.01367-0.19727,0.00293-0.39355-0.03125-0.55957
			c-0.04883-0.24219-0.16699-0.57129-0.53906-0.87598c-0.74609-0.61133-1.72559-0.47559-2.31445,0.24414
			c-0.69141,0.84375-0.36914,1.82129,0.21582,2.2998c0.41309,0.33887,0.94043,0.42285,1.37207,0.25684
			c0.13477-0.05273,0.31738-0.15137,0.48633-0.33887l-0.91895-0.75293L153.32031,261.53223z"/>
		<path fill="#A3A3A3" d="M155.25977,266.15137l3.81152-1.92578l-1.84082,3.2168l3.65625-0.70605l-3.06348,2.97461l-0.2666-0.36914
			l2.03613-1.93164l-3.1875,0.61914l1.6084-2.8125l-2.48828,1.30469L155.25977,266.15137z"/>
		<path fill="#A3A3A3" d="M160.09961,269.69238c1.08398-0.49902,2.26758-0.01953,2.74707,1.02734
			c0.47949,1.0459,0.07227,2.25488-1.01172,2.75293c-1.0791,0.49512-2.26465,0.02344-2.74707-1.02832
			S159.02148,270.1875,160.09961,269.69238z M160.28906,270.10547c-0.83301,0.38281-1.19531,1.34668-0.82031,2.16406
			s1.34277,1.17188,2.17578,0.78906c0.83398-0.38281,1.19531-1.34668,0.82031-2.16406
			C162.08984,270.07813,161.12305,269.72363,160.28906,270.10547z"/>
		<path fill="#A3A3A3" d="M164.19629,274.31152l0.20898,0.79004c0.10254,0.3877,0.20801,0.9502-0.0752,1.5459
			c-0.20313,0.43262-0.61523,0.87207-1.3125,1.05566c-0.81152,0.21484-1.35352-0.07129-1.66504-0.28711
			c-0.39551-0.27441-0.63867-0.60742-0.82129-1.29785l-0.20703-0.78418L164.19629,274.31152z M160.84375,275.65625l0.10059,0.37793
			c0.08105,0.30762,0.22754,0.72168,0.64063,1.0166c0.32129,0.22559,0.76563,0.35645,1.31641,0.21094
			c0.92871-0.24512,1.36133-1.05469,1.10254-2.03613l-0.09961-0.37793L160.84375,275.65625z"/>
	</g>
	<g>
		<circle fill="none" cx="135" cy="283.5" r="28.59473"/>
		<path fill="#A3A3A3" d="M104.83594,284.87012l3.58105-0.19336l0.02344,0.44434l-3.58105,0.19238l0.05273,0.97266l-0.41992,0.02197
			l-0.12988-2.3877l0.41992-0.02197L104.83594,284.87012z"/>
		<path fill="#A3A3A3" d="M104.43359,281.84863c0.01758-0.26855,0.06152-0.66797,0.28418-0.9541
			c0.16992-0.22266,0.48926-0.40625,0.91406-0.37939c0.60938,0.04004,1.0332,0.46973,1.03516,1.07666l1.86426-1.15332
			l-0.03418,0.53857l-1.8252,1.10107l-0.00781,0.11377l1.74609,0.11279l-0.02832,0.44336l-3.98926-0.2583L104.43359,281.84863z
			 M106.26855,282.16602l0.01953-0.28076c0.03516-0.55029-0.20703-0.89648-0.67383-0.92627
			c-0.2207-0.01416-0.44727,0.03662-0.60645,0.27832c-0.11328,0.17285-0.1377,0.37598-0.15039,0.56738l-0.01758,0.26953
			L106.26855,282.16602z"/>
		<path fill="#A3A3A3" d="M108.00977,277.02832l-0.34473,1.66992l1.00781,0.69824l-0.09961,0.48242l-3.73535-2.65283
			l4.47168-0.90967l-0.09961,0.48242L108.00977,277.02832z M107.56348,277.11475l-1.70508,0.33447l1.43066,0.99316
			L107.56348,277.11475z"/>
		<path fill="#A3A3A3" d="M109.55469,275.51123l-3.88965-1.51025l4.18164-1.72559l-2.89453-1.12451l0.16211-0.41357l3.89941,1.51465
			l-4.17969,1.72559l2.88184,1.11963L109.55469,275.51123z"/>
		<path fill="#A3A3A3" d="M109.59668,267.8584c-0.12012-0.00781-0.26953,0.00928-0.37695,0.05127
			c-0.08984,0.0376-0.23047,0.12256-0.34375,0.31982c-0.19922,0.34229-0.125,0.70313,0.19629,0.89063
			c0.13477,0.07764,0.2334,0.0874,0.37598,0.04443c0.16406-0.04346,0.29688-0.13965,0.42871-0.23633l0.33691-0.24805
			c0.20605-0.15137,0.4082-0.28369,0.63672-0.34424c0.2793-0.07422,0.52344-0.03027,0.77148,0.11475
			c0.63867,0.37012,0.78906,1.08789,0.42871,1.71045c-0.13184,0.22803-0.34375,0.48633-0.71582,0.58936
			c-0.26563,0.0752-0.56348,0.04053-0.79785-0.03369l0.1123-0.43262c0.19629,0.07861,0.40039,0.08594,0.56055,0.04736
			c0.23828-0.06348,0.37891-0.21045,0.48047-0.38623c0.27344-0.47168,0.06641-0.89063-0.28125-1.09131
			c-0.15527-0.09082-0.31738-0.12158-0.50391-0.06348c-0.15039,0.04443-0.29004,0.14258-0.47852,0.27637l-0.3252,0.22656
			c-0.1416,0.09863-0.3125,0.22754-0.55273,0.2959c-0.23242,0.06641-0.44434,0.06104-0.7041-0.08936
			c-0.53418-0.30957-0.6543-0.92578-0.3291-1.48682c0.12305-0.2124,0.26367-0.35938,0.47754-0.46387
			c0.1748-0.08545,0.38281-0.12402,0.5791-0.11426L109.59668,267.8584z"/>
		<path fill="#A3A3A3" d="M110.34375,265.3457l3.24023,2.3418l-0.25977,0.36035l-3.23926-2.3418L110.34375,265.3457z"/>
		<path fill="#A3A3A3" d="M113.23535,263.07861c-0.11719-0.03125-0.26563-0.04346-0.37891-0.02441
			c-0.09668,0.01855-0.25098,0.07471-0.40234,0.24512c-0.26367,0.29492-0.2627,0.66504,0.01563,0.91211
			c0.11719,0.104,0.21094,0.13232,0.35938,0.11963c0.16992-0.01074,0.31836-0.0791,0.46777-0.14697l0.37988-0.17529
			c0.23242-0.10742,0.45605-0.19727,0.69336-0.21143c0.28711-0.0166,0.51855,0.07568,0.7334,0.26709
			c0.55176,0.48926,0.55762,1.22412,0.0791,1.7627c-0.17578,0.19775-0.43457,0.4082-0.82031,0.43506
			c-0.27539,0.02051-0.56055-0.07275-0.77539-0.19189l0.19629-0.40332c0.17773,0.11768,0.37598,0.16553,0.54102,0.15967
			c0.24609-0.01416,0.41309-0.13086,0.54785-0.2832c0.36328-0.40771,0.24219-0.85938-0.05664-1.12598
			c-0.13574-0.11963-0.28809-0.18408-0.48242-0.16309c-0.15625,0.01367-0.31348,0.08252-0.52539,0.1748l-0.36426,0.15771
			c-0.15723,0.06885-0.35156,0.16113-0.60059,0.18066c-0.24219,0.01807-0.44824-0.0293-0.67188-0.22803
			c-0.46289-0.41016-0.45703-1.04004-0.02734-1.52393c0.16406-0.18359,0.33105-0.2998,0.56152-0.36035
			c0.18848-0.04932,0.40039-0.04541,0.59082,0.00293L113.23535,263.07861z"/>
		<path fill="#A3A3A3" d="M114.98438,260.86719l2.39746,2.66357l-0.33008,0.29736l-2.39648-2.66357l-0.72266,0.65088
			l-0.28125-0.31299l1.77539-1.59766l0.28027,0.31152L114.98438,260.86719z"/>
		<path fill="#A3A3A3" d="M117.34668,260.87012c-0.66406-0.99316-0.37793-2.23877,0.58008-2.87939s2.21777-0.4292,2.88184,0.56348
			c0.66016,0.9873,0.38281,2.23389-0.5791,2.87842C119.2666,262.07617,118.00684,261.85742,117.34668,260.87012z
			 M117.72559,260.61621c0.51074,0.7627,1.52148,0.96777,2.26953,0.46729s0.94434-1.51318,0.43359-2.27588
			c-0.50977-0.76367-1.52051-0.96777-2.26855-0.46777C117.41113,258.84082,117.21582,259.85303,117.72559,260.61621z"/>
		<path fill="#A3A3A3" d="M121.84082,255.83691c0.24609-0.11377,0.61914-0.2666,0.97656-0.20703
			c0.27832,0.04395,0.59277,0.2373,0.77148,0.62402c0.25684,0.55566,0.08105,1.13428-0.45215,1.42676l1.90625,1.09082
			l-0.49023,0.22754l-1.84277-1.08105l-0.10352,0.04736l0.73535,1.59229l-0.40332,0.18652l-1.68066-3.6377L121.84082,255.83691z
			 M122.43945,257.60547l0.25684-0.11816c0.50195-0.23193,0.69043-0.61035,0.49414-1.03613
			c-0.09277-0.20117-0.24609-0.37646-0.53613-0.40088c-0.20605-0.01709-0.39648,0.05713-0.57129,0.13818l-0.24609,0.11328
			L122.43945,257.60547z"/>
		<path fill="#A3A3A3" d="M126.75488,254.8208c-0.08398-0.08643-0.20508-0.17334-0.3125-0.21533
			c-0.09375-0.03418-0.25391-0.06543-0.4707,0.00391c-0.37695,0.11914-0.56641,0.43555-0.45508,0.79004
			c0.04688,0.14893,0.11328,0.22266,0.24707,0.28711c0.15137,0.07813,0.31348,0.09668,0.47656,0.11328l0.41699,0.04492
			c0.25293,0.02734,0.49121,0.06445,0.70117,0.17432c0.25586,0.1333,0.40625,0.33105,0.49316,0.60547
			c0.22169,0.70264-0.15039,1.33643-0.83691,1.55225c-0.25195,0.08008-0.58203,0.12793-0.92578-0.04688
			c-0.24609-0.12354-0.44434-0.35059-0.56738-0.56348l0.37598-0.24414c0.0918,0.19141,0.23633,0.33496,0.38086,0.41406
			c0.21875,0.11328,0.42188,0.10059,0.61621,0.03906c0.52051-0.16406,0.64844-0.61328,0.52832-0.99609
			c-0.05469-0.17188-0.15234-0.30469-0.33008-0.38672c-0.14063-0.06934-0.31055-0.09082-0.54004-0.11914l-0.39355-0.05176
			c-0.16992-0.02148-0.38379-0.04199-0.6084-0.15381c-0.21582-0.10791-0.36914-0.25439-0.45898-0.54053
			c-0.18555-0.58887,0.1416-1.12598,0.75879-1.32031c0.23535-0.07373,0.4375-0.08789,0.66602-0.02051
			c0.18652,0.05371,0.36719,0.16553,0.50488,0.30469L126.75488,254.8208z"/>
	</g>
	<g>
		<circle fill="none" cx="183.01788" cy="44.24549" r="14.57799"/>
		
			<path fill="#A3A3A3" stroke="#A3A3A3" stroke-width="0.25" stroke-linecap="round" stroke-linejoin="round" stroke-miterlimit="10" d="
			M174.80371,30.72362l-1.47363,1.01855l0.25977,1.2627l-0.42578,0.29297L172.25,28.57128l4.05859,2.55371l-0.42578,0.29395
			L174.80371,30.72362z M174.40234,30.46386l-1.53906-0.9834l0.36621,1.79395L174.40234,30.46386z"/>
		
			<path fill="#A3A3A3" stroke="#A3A3A3" stroke-width="0.25" stroke-linecap="round" stroke-linejoin="round" stroke-miterlimit="10" d="
			M178.75586,26.78417c-0.16797-0.08105-0.41016-0.16309-0.64648-0.18848c-0.24023-0.02246-0.50488,0.00391-0.73633,0.08496
			c-0.91602,0.31836-1.33691,1.29395-1.01758,2.20996c0.37598,1.07617,1.43945,1.31152,2.16406,1.05859
			c0.26758-0.09375,0.50293-0.26172,0.67383-0.44141c0.18555-0.19336,0.29492-0.39746,0.3418-0.49219l0.19043,0.5459
			c-0.33008,0.46875-0.7627,0.7002-1.05957,0.80371c-1.17773,0.41211-2.36328-0.17578-2.76367-1.32227
			c-0.41406-1.18457,0.16504-2.37402,1.35352-2.78809c0.23828-0.08398,0.70703-0.21484,1.30957-0.01758L178.75586,26.78417z"/>
		
			<path fill="#A3A3A3" stroke="#A3A3A3" stroke-width="0.25" stroke-linecap="round" stroke-linejoin="round" stroke-miterlimit="10" d="
			M183.77148,26.28808c-0.13965-0.12402-0.34961-0.26953-0.56934-0.35938c-0.22559-0.08984-0.4873-0.1377-0.7334-0.12305
			c-0.96875,0.05176-1.64355,0.87207-1.59082,1.84082c0.0625,1.13965,1.01855,1.66211,1.78809,1.62109
			c0.28223-0.01563,0.55469-0.11328,0.76953-0.23926c0.23242-0.13184,0.39258-0.2998,0.46484-0.37891l0.03223,0.5791
			c-0.44824,0.35938-0.92871,0.46191-1.24316,0.47949c-1.24609,0.06738-2.22461-0.8252-2.29004-2.04199
			c-0.06934-1.25195,0.81836-2.23438,2.07715-2.30371c0.25195-0.01465,0.73828-0.00879,1.26367,0.34766L183.77148,26.28808z"/>
		
			<path fill="#A3A3A3" stroke="#A3A3A3" stroke-width="0.25" stroke-linecap="round" stroke-linejoin="round" stroke-miterlimit="10" d="
			M187.73438,26.4453l-1.68164-0.3291l-0.24023,1.22461l1.63281,0.31934l-0.08594,0.43262l-1.63281-0.31934l-0.3125,1.60156
			l1.68164,0.3291l-0.08398,0.43457l-2.14063-0.4209l0.80859-4.125l2.13965,0.41992L187.73438,26.4453z"/>
		
			<path fill="#A3A3A3" stroke="#A3A3A3" stroke-width="0.25" stroke-linecap="round" stroke-linejoin="round" stroke-miterlimit="10" d="
			M187.92188,30.35741l1.9834-3.9082l1.36816,4.54785l1.47461-2.90625l0.41699,0.21094l-1.98926,3.91895l-1.36816-4.54785
			l-1.46973,2.89551L187.92188,30.35741z"/>
		
			<path fill="#A3A3A3" stroke="#A3A3A3" stroke-width="0.25" stroke-linecap="round" stroke-linejoin="round" stroke-miterlimit="10" d="
			M195.41211,30.69726l-2.50977,2.80371l-0.34766-0.31152l2.50977-2.80371l-0.76172-0.68066l0.29492-0.33008l1.86914,1.67383
			l-0.29395,0.3291L195.41211,30.69726z"/>
	</g>
	<g>
		<circle fill="none" cx="183.01788" cy="44.24549" r="13.74777"/>
		
			<path fill="#A3A3A3" stroke="#A3A3A3" stroke-width="0.25" stroke-linecap="round" stroke-linejoin="round" stroke-miterlimit="10" d="
			M175.6582,57.02538l-2.03613,3.40332l-0.37793-0.22607l2.03613-3.40381L175.6582,57.02538z"/>
		
			<path fill="#A3A3A3" stroke="#A3A3A3" stroke-width="0.25" stroke-linecap="round" stroke-linejoin="round" stroke-miterlimit="10" d="
			M175.52734,61.49022l1.29004-3.92285l1.92285,4.04102l0.95898-2.91748l0.41797,0.13721l-1.29297,3.93311l-1.92383-4.04004
			l-0.95508,2.90527L175.52734,61.49022z"/>
		
			<path fill="#A3A3A3" stroke="#A3A3A3" stroke-width="0.25" stroke-linecap="round" stroke-linejoin="round" stroke-miterlimit="10" d="
			M182.10938,58.97216c0.39844,0.02051,0.72852,0.08545,0.98242,0.33105c0.27832,0.26514,0.33105,0.61963,0.31836,0.86865
			c-0.0293,0.55859-0.41016,1.09229-1.3125,1.04541l-0.38574-0.021l-0.09082,1.72168l-0.43945-0.02295l0.20898-3.96143
			L182.10938,58.97216z M181.73438,60.78026l0.36133,0.01904c0.52344,0.02734,0.85156-0.21631,0.87598-0.6748
			c0.0332-0.62891-0.55176-0.71973-0.83691-0.73486l-0.32617-0.0166L181.73438,60.78026z"/>
		
			<path fill="#A3A3A3" stroke="#A3A3A3" stroke-width="0.25" stroke-linecap="round" stroke-linejoin="round" stroke-miterlimit="10" d="
			M185.21094,61.31835c0.06055,0.32715,0.12695,0.68359,0.48633,0.89063c0.18164,0.104,0.46777,0.14258,0.68359,0.10205
			c0.2168-0.04004,0.46875-0.17822,0.60156-0.34229c0.26172-0.32031,0.19531-0.67676,0.13477-1.00488l-0.44531-2.39209
			l0.43359-0.08057l0.46582,2.50977c0.06152,0.32666,0.08496,0.64941-0.07129,0.98145
			c-0.17383,0.36523-0.5459,0.64648-1.04297,0.7373c-0.49609,0.09229-0.94434-0.03564-1.23828-0.31396
			c-0.26465-0.25391-0.3584-0.5625-0.41895-0.88965l-0.4668-2.50977l0.43262-0.08057L185.21094,61.31835z"/>
		
			<path fill="#A3A3A3" stroke="#A3A3A3" stroke-width="0.25" stroke-linecap="round" stroke-linejoin="round" stroke-miterlimit="10" d="
			M189.36719,58.03417l1.43945,3.24072l-0.40039,0.1792l-1.44141-3.24023l-0.87891,0.38965l-0.16992-0.37891l2.16016-0.96094
			l0.16992,0.37988L189.36719,58.03417z"/>
	</g>
	<g>
		<circle fill="none" cx="134.71875" cy="43.99999" r="14.57799"/>
		
			<path fill="#A3A3A3" stroke="#A3A3A3" stroke-width="0.25" stroke-linecap="round" stroke-linejoin="round" stroke-miterlimit="10" d="
			M116.45703,42.22997l3.74805,0.30664l-0.03711,0.46484l-3.74902-0.30713l-0.08301,1.0166l-0.43945-0.03564l0.20508-2.49805
			l0.43945,0.03516L116.45703,42.22997z"/>
		
			<path fill="#A3A3A3" stroke="#A3A3A3" stroke-width="0.25" stroke-linecap="round" stroke-linejoin="round" stroke-miterlimit="10" d="
			M116.57813,39.07226c0.0791-0.27246,0.21484-0.67188,0.50879-0.91406c0.22559-0.19043,0.59473-0.30615,1.02441-0.18164
			c0.61719,0.17969,0.95215,0.7168,0.81641,1.34033l2.17578-0.75781l-0.1582,0.54443l-2.12402,0.71338l-0.03223,0.11523
			l1.76563,0.51318l-0.13086,0.44824l-4.0332-1.17383L116.57813,39.07226z M118.38965,39.81591l0.08301-0.28467
			c0.16113-0.55615-0.00781-0.96533-0.48047-1.10352c-0.22363-0.06445-0.4668-0.06299-0.68555,0.14844
			c-0.15625,0.15137-0.22754,0.35352-0.28418,0.54688l-0.0791,0.27246L118.38965,39.81591z"/>
		
			<path fill="#A3A3A3" stroke="#A3A3A3" stroke-width="0.25" stroke-linecap="round" stroke-linejoin="round" stroke-miterlimit="10" d="
			M117.88477,35.64159l3.7832,1.81836l-0.20117,0.41943l-3.7832-1.81885L117.88477,35.64159z"/>
		
			<path fill="#A3A3A3" stroke="#A3A3A3" stroke-width="0.25" stroke-linecap="round" stroke-linejoin="round" stroke-miterlimit="10" d="
			M121.7627,33.44433l1.07813-1.37891l0.0791,0.06299c0.36719,0.28516,0.67871,0.70508,0.79883,1.13428
			c0.05664,0.20361,0.22656,0.93604-0.36621,1.69531c-0.76758,0.98145-2.09082,1.13086-3.05176,0.37891
			c-0.96289-0.75244-1.13477-2.07666-0.36328-3.06299c0.24805-0.31787,0.61816-0.62793,1.11914-0.75684
			c0.22949-0.05811,0.48633-0.08154,0.68945-0.07422l0.03516,0.46631c-0.20801-0.01074-0.41211,0.00488-0.58691,0.04443
			c-0.25293,0.05859-0.5957,0.18945-0.90527,0.58691c-0.62402,0.79785-0.45898,1.82227,0.31055,2.42383
			c0.90234,0.70557,1.9209,0.34277,2.41016-0.28271c0.34375-0.44189,0.41992-0.99854,0.23438-1.4458
			c-0.05762-0.14063-0.16602-0.3291-0.36719-0.50244l-0.76758,0.98193L121.7627,33.44433z"/>
		
			<path fill="#A3A3A3" stroke="#A3A3A3" stroke-width="0.25" stroke-linecap="round" stroke-linejoin="round" stroke-miterlimit="10" d="
			M125.64844,29.95067l1.45117-0.98096l0.05664,0.0835c0.26172,0.38574,0.42969,0.88184,0.41113,1.32813
			c-0.00879,0.21143-0.07324,0.96143-0.87207,1.50195c-1.03516,0.69922-2.34082,0.43213-3.02539-0.58105
			c-0.68555-1.01416-0.43945-2.32813,0.59961-3.02979c0.33496-0.22656,0.7832-0.4082,1.29883-0.37598
			c0.23828,0.01465,0.49023,0.07178,0.68164,0.14111l-0.11133,0.45508c-0.19336-0.07373-0.39453-0.12158-0.57227-0.13867
			c-0.25879-0.02246-0.62695-0.00293-1.04395,0.2793c-0.84082,0.56836-0.99902,1.59619-0.45215,2.40625
			c0.64258,0.94971,1.72461,0.91943,2.38281,0.4751c0.46484-0.31494,0.70801-0.8208,0.66992-1.30566
			c-0.01074-0.15234-0.05664-0.36475-0.19336-0.59131l-1.03516,0.69873L125.64844,29.95067z"/>
		
			<path fill="#A3A3A3" stroke="#A3A3A3" stroke-width="0.25" stroke-linecap="round" stroke-linejoin="round" stroke-miterlimit="10" d="
			M129.87109,26.24511l-1.61914,0.55566l0.4043,1.17725l1.57227-0.53906l0.14258,0.41553l-1.57031,0.54102l0.5293,1.5415
			l1.61816-0.55811l0.14355,0.41748l-2.05859,0.7085l-1.36426-3.96924l2.05859-0.70801L129.87109,26.24511z"/>
		
			<path fill="#A3A3A3" stroke="#A3A3A3" stroke-width="0.25" stroke-linecap="round" stroke-linejoin="round" stroke-miterlimit="10" d="
			M132.04883,25.37108c0.28223-0.03516,0.70313-0.06738,1.04297,0.10596c0.26367,0.1333,0.51563,0.42676,0.57031,0.87061
			c0.0791,0.6377-0.2832,1.15967-0.90918,1.28076l1.55566,1.70166l-0.5625,0.06885L132.25,27.72899l-0.11816,0.01416
			l0.22461,1.82813l-0.46289,0.05664l-0.51465-4.17432L132.04883,25.37108z M132.08008,27.33007l0.29492-0.03613
			c0.57617-0.07031,0.88574-0.38818,0.82617-0.87598c-0.0293-0.23193-0.12598-0.45459-0.40723-0.57275
			c-0.2002-0.08398-0.41504-0.0708-0.61621-0.04639l-0.28125,0.03516L132.08008,27.33007z"/>
		
			<path fill="#A3A3A3" stroke="#A3A3A3" stroke-width="0.25" stroke-linecap="round" stroke-linejoin="round" stroke-miterlimit="10" d="
			M137.78516,27.39062l1.91992,0.47363l-0.15918,0.64648l-1.9209-0.47461L137.78516,27.39062z"/>
		
			<path fill="#A3A3A3" stroke="#A3A3A3" stroke-width="0.25" stroke-linecap="round" stroke-linejoin="round" stroke-miterlimit="10" d="
			M145.2832,28.44433c0.34766,0.24023,0.60938,0.48242,0.70313,0.84521c0.10352,0.39258-0.0459,0.7417-0.19629,0.95947
			c-0.33691,0.48682-0.97559,0.75732-1.7627,0.21338l-0.33594-0.23291l-1.03906,1.50146l-0.38281-0.26465l2.38867-3.45508
			L145.2832,28.44433z M143.94141,29.86669l0.31641,0.21777c0.45508,0.31592,0.8877,0.27734,1.16309-0.12109
			c0.37988-0.54932-0.09668-0.95605-0.34668-1.12744l-0.28418-0.19678L143.94141,29.86669z"/>
		
			<path fill="#A3A3A3" stroke="#A3A3A3" stroke-width="0.25" stroke-linecap="round" stroke-linejoin="round" stroke-miterlimit="10" d="
			M148.7998,32.15673l-1.18652-1.23975l-0.90137,0.86328l1.15137,1.20313l-0.31836,0.30469l-1.15234-1.20215l-1.17969,1.12891
			l1.18652,1.23877l-0.31836,0.30566l-1.50879-1.57666l3.03809-2.90869l1.50879,1.57666L148.7998,32.15673z"/>
		
			<path fill="#A3A3A3" stroke="#A3A3A3" stroke-width="0.25" stroke-linecap="round" stroke-linejoin="round" stroke-miterlimit="10" d="
			M150.51367,33.79442c0.14844,0.2417,0.35449,0.61182,0.33789,0.9917c-0.00977,0.29541-0.17188,0.64746-0.55273,0.88232
			c-0.54688,0.3374-1.17188,0.22705-1.54297-0.29199l-0.89746,2.12402l-0.29785-0.48291l0.89453-2.05664l-0.0625-0.10107
			l-1.56738,0.9668l-0.24512-0.39697l3.57813-2.20996L150.51367,33.79442z M148.74609,34.64159l0.15527,0.25195
			c0.30469,0.49316,0.72363,0.64307,1.1416,0.38477c0.19824-0.12354,0.36133-0.30371,0.35059-0.60889
			c-0.00879-0.21777-0.11035-0.40674-0.21582-0.57861l-0.14941-0.2417L148.74609,34.64159z"/>
		
			<path fill="#A3A3A3" stroke="#A3A3A3" stroke-width="0.25" stroke-linecap="round" stroke-linejoin="round" stroke-miterlimit="10" d="
			M152.25,40.14843c0.08594-0.1665,0.17383-0.40625,0.20508-0.64209c0.02832-0.24072,0.00977-0.50586-0.06641-0.74023
			c-0.29688-0.92578-1.26074-1.37109-2.18555-1.07373c-1.08691,0.34863-1.35059,1.40771-1.11523,2.13965
			c0.08594,0.27002,0.25,0.50977,0.42578,0.68457c0.1875,0.19141,0.38867,0.30566,0.48438,0.35449l-0.55273,0.17773
			c-0.46094-0.3418-0.68164-0.78223-0.77832-1.08203c-0.38086-1.18896,0.23633-2.36182,1.39551-2.7334
			c1.19531-0.38379,2.37109,0.22607,2.75684,1.42773c0.07715,0.24023,0.19531,0.71191-0.0166,1.31006L152.25,40.14843z"/>
		
			<path fill="#A3A3A3" stroke="#A3A3A3" stroke-width="0.25" stroke-linecap="round" stroke-linejoin="round" stroke-miterlimit="10" d="
			M150.86328,42.30175c-0.35156,0.01367-0.73633,0.0293-1.00488,0.37402c-0.1377,0.17529-0.22168,0.46777-0.21191,0.70117
			c0.00977,0.23242,0.11523,0.51758,0.26758,0.68262c0.2959,0.32031,0.67969,0.30615,1.03125,0.2915l2.57227-0.10205
			l0.01855,0.46484l-2.69824,0.10791c-0.35156,0.01367-0.69336-0.01025-1.01563-0.22314
			c-0.35742-0.23779-0.59375-0.66992-0.61523-1.2041c-0.02148-0.53467,0.18066-0.98389,0.5166-1.24902
			c0.30469-0.23877,0.64355-0.28955,0.99512-0.3042l2.69824-0.1084l0.01855,0.46484L150.86328,42.30175z"/>
	</g>
	<g>
		<g>
			
				<path fill="#A3A3A3" stroke="#A3A3A3" stroke-width="0.25" stroke-linecap="round" stroke-linejoin="round" stroke-miterlimit="10" d="
				M127.11914,56.91308l-2.23633,3.55322l-0.39453-0.24756l2.2373-3.55371L127.11914,56.91308z"/>
			
				<path fill="#A3A3A3" stroke="#A3A3A3" stroke-width="0.25" stroke-linecap="round" stroke-linejoin="round" stroke-miterlimit="10" d="
				M126.86719,61.62694l1.41992-4.14551l1.98828,4.3125l1.05664-3.08301l0.44141,0.15088l-1.42383,4.15869l-1.98828-4.31348
				l-1.05273,3.07178L126.86719,61.62694z"/>
			
				<path fill="#A3A3A3" stroke="#A3A3A3" stroke-width="0.25" stroke-linecap="round" stroke-linejoin="round" stroke-miterlimit="10" d="
				M133.84766,59.02782c0.42188,0.02393,0.77148,0.09277,1.04102,0.354c0.29395,0.28076,0.34961,0.65674,0.33398,0.92139
				c-0.03125,0.59131-0.43555,1.15527-1.39258,1.104l-0.4082-0.02246l-0.10059,1.82471l-0.46582-0.02588l0.23047-4.19824
				L133.84766,59.02782z M133.44531,60.94384l0.38477,0.021c0.55371,0.02979,0.90234-0.22852,0.92871-0.71289
				c0.03711-0.66748-0.58301-0.76416-0.88477-0.78076l-0.34668-0.01904L133.44531,60.94384z"/>
			
				<path fill="#A3A3A3" stroke="#A3A3A3" stroke-width="0.25" stroke-linecap="round" stroke-linejoin="round" stroke-miterlimit="10" d="
				M137.1543,61.50683c0.06836,0.34668,0.14258,0.72363,0.52344,0.93799c0.19434,0.10791,0.49609,0.146,0.72461,0.10059
				c0.22949-0.04443,0.49609-0.19238,0.63379-0.36768c0.27246-0.34131,0.19922-0.71777,0.13184-1.06396l-0.49414-2.52539
				l0.45703-0.08936l0.51855,2.64893c0.06738,0.34619,0.0957,0.68652-0.06641,1.03857
				c-0.18066,0.38867-0.57129,0.68896-1.0957,0.7915c-0.52441,0.10205-0.99902-0.02881-1.3125-0.3208
				c-0.28223-0.26465-0.38574-0.59131-0.45215-0.93652l-0.51758-2.64941l0.45605-0.08936L137.1543,61.50683z"/>
			
				<path fill="#A3A3A3" stroke="#A3A3A3" stroke-width="0.25" stroke-linecap="round" stroke-linejoin="round" stroke-miterlimit="10" d="
				M141.47949,57.96435l1.60059,3.40088l-0.4209,0.19873l-1.60059-3.3999l-0.92383,0.43408l-0.1875-0.39893l2.26758-1.06738
				l0.1875,0.39893L141.47949,57.96435z"/>
		</g>
	</g>
	<g>
		<circle fill="#262424" stroke="#606266" stroke-width="0.5" stroke-miterlimit="10" cx="135" cy="198.5" r="34.93385"/>
		
			<line fill="none" stroke="#606266" stroke-width="0.75" stroke-miterlimit="10" x1="135" y1="198.5" x2="110.59309" y2="222.90691"/>
		<line fill="none" stroke="#606266" stroke-width="0.75" stroke-miterlimit="10" x1="135" y1="198.5" x2="135" y2="163.56616"/>
		
			<line fill="none" stroke="#606266" stroke-width="0.75" stroke-miterlimit="10" x1="135" y1="198.5" x2="159.70186" y2="223.20186"/>
		<circle fill="#262424" stroke="#606266" stroke-width="0.75" stroke-miterlimit="10" cx="135" cy="198.5" r="23.5"/>
	</g>
	<g>
		<circle fill="none" cx="135" cy="198.5" r="28.59473"/>
		
			<path fill="#A3A3A3" stroke="#A3A3A3" stroke-width="0.25" stroke-linecap="round" stroke-linejoin="round" stroke-miterlimit="10" d="
			M124.03418,223.16406c-0.00098-0.16016-0.03906-0.35693-0.10449-0.49561c-0.05859-0.11768-0.18457-0.29541-0.45703-0.42969
			c-0.47461-0.23145-0.94824-0.09912-1.16602,0.3457c-0.0918,0.18652-0.09375,0.31982-0.02539,0.50488
			c0.07227,0.21387,0.21387,0.37988,0.35547,0.54785l0.36035,0.42578c0.21973,0.25977,0.41504,0.51514,0.51758,0.81494
			c0.125,0.36328,0.08789,0.69189-0.08105,1.0376c-0.43262,0.88281-1.375,1.15039-2.23633,0.72852
			c-0.31641-0.1543-0.67871-0.4126-0.85059-0.89795c-0.12402-0.34521-0.10645-0.74512-0.03027-1.06494l0.58789,0.10986
			c-0.08789,0.26904-0.07813,0.54053-0.01172,0.75049c0.10547,0.31152,0.31445,0.48389,0.55859,0.604
			c0.65332,0.32031,1.19043,0.00488,1.42578-0.47705c0.10547-0.21387,0.13281-0.43359,0.03809-0.67529
			c-0.07324-0.19531-0.21777-0.37402-0.41309-0.61182l-0.33203-0.41113c-0.14453-0.17871-0.33203-0.39453-0.44531-0.70898
			c-0.10938-0.30273-0.12305-0.58447,0.05371-0.94434c0.3623-0.73877,1.17285-0.95605,1.94727-0.57715
			c0.29492,0.14551,0.50293,0.31836,0.66309,0.59229c0.12988,0.22363,0.2002,0.49854,0.20605,0.75977L124.03418,223.16406z"/>
		
			<path fill="#A3A3A3" stroke="#A3A3A3" stroke-width="0.25" stroke-linecap="round" stroke-linejoin="round" stroke-miterlimit="10" d="
			M124.84375,225.36475c0.41602-1.5376,1.91699-2.34277,3.40039-1.94336c1.48242,0.40039,2.37695,1.85107,1.96289,3.38867
			c-0.41309,1.53027-1.90918,2.34473-3.40039,1.94238C125.31543,228.35107,124.43164,226.89502,124.84375,225.36475z
			 M125.43164,225.52295c-0.31836,1.18164,0.36133,2.37695,1.52148,2.68896c1.1582,0.3125,2.34669-0.37793,2.66602-1.56006
			c0.31836-1.18164-0.36133-2.37598-1.52148-2.68945C126.93945,223.65039,125.75,224.34082,125.43164,225.52295z"/>
		
			<path fill="#A3A3A3" stroke="#A3A3A3" stroke-width="0.25" stroke-linecap="round" stroke-linejoin="round" stroke-miterlimit="10" d="
			M132.05859,227.56104c-0.02539,0.4458-0.05176,0.93408,0.35156,1.31543c0.20605,0.19629,0.56641,0.33643,0.8623,0.35254
			c0.2959,0.01563,0.66895-0.0835,0.89453-0.25586c0.44336-0.33594,0.46973-0.82275,0.49512-1.27051l0.17773-3.26611l0.5918,0.03271
			l-0.1875,3.42578c-0.02539,0.44775-0.09668,0.87598-0.40625,1.25977c-0.34375,0.42139-0.91797,0.66992-1.59668,0.6333
			c-0.67871-0.03711-1.22168-0.34814-1.51758-0.80469c-0.26563-0.41455-0.29004-0.84863-0.26563-1.29541l0.1875-3.42578
			l0.59082,0.03174L132.05859,227.56104z"/>
		
			<path fill="#A3A3A3" stroke="#A3A3A3" stroke-width="0.25" stroke-linecap="round" stroke-linejoin="round" stroke-miterlimit="10" d="
			M137.43555,224.28564c0.35938-0.03809,0.89453-0.06982,1.32031,0.15967c0.33203,0.17334,0.64453,0.55029,0.70313,1.11621
			c0.08594,0.81104-0.38477,1.46338-1.18164,1.60352l1.93457,2.19287l-0.71582,0.07568l-1.8584-2.15381l-0.15137,0.0166
			l0.24414,2.32129l-0.58887,0.06201l-0.55566-5.30518L137.43555,224.28564z M137.43164,226.771l0.37305-0.03906
			c0.73242-0.07764,1.13281-0.47363,1.06836-1.09277c-0.03125-0.29443-0.15039-0.58057-0.50391-0.73535
			c-0.25195-0.10986-0.52441-0.09863-0.7793-0.07129l-0.35742,0.03809L137.43164,226.771z"/>
		
			<path fill="#A3A3A3" stroke="#A3A3A3" stroke-width="0.25" stroke-linecap="round" stroke-linejoin="round" stroke-miterlimit="10" d="
			M144.54883,223.92383c-0.20703-0.11523-0.50879-0.23682-0.80566-0.28564c-0.30469-0.04541-0.6416-0.03271-0.94238,0.05371
			c-1.18457,0.33789-1.78906,1.54395-1.44922,2.72949c0.39844,1.39258,1.72949,1.76855,2.66797,1.49951
			c0.3457-0.09912,0.65625-0.29639,0.88672-0.51123c0.25-0.23047,0.40234-0.48242,0.46875-0.6001l0.20215,0.70654
			c-0.45215,0.57178-1.01855,0.83301-1.40332,0.94385c-1.52344,0.43604-2.98438-0.39551-3.41016-1.87939
			c-0.4375-1.53174,0.38281-2.99854,1.92188-3.43848c0.30762-0.08838,0.91113-0.21875,1.66113,0.07422L144.54883,223.92383z"/>
		
			<path fill="#A3A3A3" stroke="#A3A3A3" stroke-width="0.25" stroke-linecap="round" stroke-linejoin="round" stroke-miterlimit="10" d="
			M147.75781,221.72656l-1.96387,0.93799l0.68359,1.42871l1.90527-0.91064l0.24121,0.50537l-1.90527,0.91113l0.89355,1.86914
			l1.96387-0.93799l0.24121,0.50586l-2.49707,1.19336l-2.30176-4.81494l2.49707-1.19336L147.75781,221.72656z"/>
	</g>
	<g>
		<circle fill="none" cx="135.07129" cy="198.57129" r="28.59473"/>
		<path fill="#A3A3A3" d="M108.37207,185.31787c-0.12012,0.00342-0.26758,0.03467-0.37109,0.08545
			c-0.08789,0.04541-0.21875,0.14258-0.31543,0.34863c-0.16699,0.35889-0.0625,0.71338,0.27539,0.87109
			c0.14063,0.06543,0.24023,0.06592,0.37793,0.01123c0.16016-0.05762,0.2832-0.16553,0.40723-0.27344l0.31445-0.27637
			c0.19141-0.16895,0.38086-0.31934,0.60352-0.3999c0.27148-0.09863,0.51953-0.0752,0.78027,0.0459
			c0.66797,0.31348,0.88281,1.0166,0.5791,1.66895c-0.1123,0.23877-0.30176,0.51465-0.66309,0.65039
			c-0.25781,0.09766-0.55957,0.08936-0.79883,0.03711l0.07422-0.44287c0.20313,0.06201,0.40625,0.05176,0.56348-0.00098
			c0.23145-0.08398,0.35938-0.24268,0.44629-0.42725c0.23047-0.49512-0.01367-0.89355-0.37793-1.06445
			c-0.16211-0.07568-0.32715-0.09326-0.50781-0.01904c-0.14648,0.05762-0.27637,0.16895-0.45313,0.31885l-0.30469,0.25488
			c-0.13184,0.11035-0.29199,0.25391-0.52539,0.34375c-0.22559,0.08643-0.4375,0.09961-0.70898-0.02686
			c-0.56055-0.2627-0.73438-0.86719-0.45996-1.45459c0.10352-0.22266,0.23145-0.38184,0.43555-0.50439
			c0.16602-0.10156,0.37109-0.15771,0.56738-0.16553L108.37207,185.31787z"/>
		<path fill="#A3A3A3" d="M113.4668,182.54395c-0.00098,0.20215-0.01758,0.67578-0.37402,1.20215
			c-0.64648,0.95264-1.89746,1.22656-2.87988,0.56006c-0.9873-0.67041-1.18945-1.93115-0.54297-2.8833
			c0.64258-0.94727,1.89258-1.22998,2.87891-0.55957c0.60645,0.41113,0.79785,0.93896,0.86914,1.27051l0.83105-0.146
			l-0.32227,0.47607L113.4668,182.54395z M112.97266,182.21484c-0.0498-0.21484-0.19336-0.64502-0.67871-0.97461
			c-0.75879-0.51514-1.77539-0.32129-2.27734,0.41846c-0.50391,0.74414-0.30664,1.75537,0.45215,2.27002
			c0.75879,0.51563,1.77246,0.32568,2.27637-0.41846c0.14258-0.20801,0.27344-0.50977,0.28027-0.88232l-1.36523,0.23975
			l0.32227-0.47656L112.97266,182.21484z"/>
		<path fill="#A3A3A3" d="M114.12598,179.77637c0.24219,0.23438,0.50488,0.48926,0.9209,0.44824
			c0.21289-0.01953,0.46875-0.15576,0.62402-0.31543c0.1543-0.15967,0.28223-0.4209,0.29492-0.6333
			c0.02832-0.41699-0.23535-0.67188-0.47754-0.90625l-1.76465-1.70996l0.30957-0.31934l1.85156,1.79346
			c0.24121,0.23389,0.44922,0.48535,0.51465,0.85059c0.07031,0.40234-0.07129,0.85059-0.42676,1.21777
			c-0.35449,0.3667-0.79785,0.52246-1.2041,0.46533c-0.36523-0.05322-0.62402-0.25342-0.86523-0.48779l-1.85156-1.79395
			l0.30859-0.31885L114.12598,179.77637z"/>
		<path fill="#A3A3A3" d="M118.97168,176.02783l-1.35742,1.03125l0.2998,1.18945l-0.3916,0.29736l-1.07129-4.45605l3.96777,2.25537
			l-0.3916,0.29785L118.97168,176.02783z M118.5791,175.79834l-1.50586-0.86963l0.4248,1.69043L118.5791,175.79834z"/>
		<path fill="#A3A3A3" d="M119.81152,172.09473c0.23535-0.13232,0.5957-0.31299,0.95703-0.28223
			c0.28027,0.02148,0.6084,0.18896,0.81641,0.56055c0.2998,0.53467,0.16797,1.12354-0.33984,1.45654l1.98438,0.9375l-0.4707,0.26416
			l-1.91992-0.93262l-0.09961,0.05566l0.85742,1.52881l-0.3877,0.2168l-1.95801-3.49121L119.81152,172.09473z M120.5459,173.80908
			l0.24609-0.1377c0.48145-0.27002,0.63965-0.66211,0.41113-1.07031c-0.1084-0.19385-0.27441-0.35498-0.56445-0.35742
			c-0.20801-0.00098-0.3916,0.08789-0.55859,0.18213l-0.23633,0.13184L120.5459,173.80908z"/>
		<path fill="#A3A3A3" d="M124.75195,170.24512l-1.51172,0.61426l0.44727,1.09912l1.4668-0.59619l0.15723,0.38916l-1.46582,0.59619
			l0.58496,1.43799l1.50977-0.61426l0.15918,0.38916l-1.92188,0.78027l-1.50586-3.70313l1.9209-0.78076L124.75195,170.24512z"/>
		<path fill="#A3A3A3" d="M128.10449,169.62793c-0.08008-0.09082-0.19727-0.18359-0.30273-0.22949
			c-0.09082-0.03809-0.25098-0.07568-0.4707-0.01758c-0.38281,0.10254-0.58594,0.41211-0.49023,0.77148
			c0.04102,0.15088,0.10352,0.22705,0.23535,0.29785c0.14648,0.08496,0.30859,0.10986,0.4707,0.13477l0.41504,0.06348
			c0.25195,0.03809,0.48828,0.08643,0.69434,0.20557c0.25098,0.14404,0.3916,0.34863,0.4668,0.62744
			c0.19043,0.71338-0.21094,1.33008-0.90625,1.51611c-0.25488,0.06836-0.58789,0.10107-0.9248-0.08838
			c-0.24023-0.13428-0.42773-0.37012-0.54297-0.58789l0.3877-0.22754c0.08301,0.19434,0.22168,0.34375,0.36328,0.43066
			c0.21289,0.12305,0.41699,0.11768,0.61426,0.06592c0.52734-0.1416,0.67676-0.58496,0.57227-0.97363
			c-0.04688-0.17432-0.13965-0.31104-0.3125-0.40186c-0.1377-0.07422-0.30762-0.104-0.53516-0.14209l-0.3916-0.06982
			c-0.16895-0.02881-0.38184-0.05908-0.60156-0.18066c-0.21094-0.11719-0.35742-0.27051-0.43555-0.56104
			c-0.16016-0.59717,0.19141-1.12012,0.81738-1.2876c0.23828-0.06348,0.44238-0.06836,0.66797,0.0083
			c0.18457,0.06201,0.35938,0.18311,0.49121,0.32813L128.10449,169.62793z"/>
	</g>
	<g>
		<circle fill="none" cx="135.07129" cy="198.57129" r="28.59473"/>
		<path fill="#A3A3A3" d="M141.91504,172.82715l1.33203-3.95313l1.91211,4.09766l0.99121-2.94141l0.42188,0.14258l-1.33789,3.96387
			l-1.91113-4.09668l-0.9873,2.92871L141.91504,172.82715z"/>
		<path fill="#A3A3A3" d="M147.23633,172.61523c0.58301-1.04199,1.82227-1.35449,2.8291-0.79297
			c1.00586,0.56348,1.39063,1.78223,0.80762,2.8252c-0.58008,1.03711-1.81641,1.35645-2.82813,0.79102
			C147.0332,174.875,146.65625,173.65332,147.23633,172.61523z M147.63477,172.83789
			c-0.44727,0.80176-0.1709,1.79492,0.61523,2.2334c0.78613,0.43945,1.77734,0.15527,2.22559-0.64648
			c0.44824-0.80273,0.1709-1.7959-0.61523-2.23535S148.08301,172.03613,147.63477,172.83789z"/>
		<path fill="#A3A3A3" d="M153.55469,174.17871l-2.39258,3.21289l-0.35742-0.26563l2.39453-3.21289L153.55469,174.17871z"/>
		<path fill="#A3A3A3" d="M155.77148,177.10449c0.0332-0.11523,0.04785-0.26563,0.03027-0.37988
			c-0.01758-0.0957-0.07129-0.25098-0.23926-0.40527c-0.29199-0.26758-0.66211-0.27148-0.91309,0.00293
			c-0.10547,0.11523-0.13574,0.20996-0.12402,0.3584c0.00684,0.16895,0.07324,0.31934,0.13867,0.46875l0.16992,0.38379
			c0.10449,0.2334,0.19043,0.45898,0.20117,0.69629c0.0127,0.28809-0.08301,0.51758-0.27734,0.73145
			c-0.49805,0.54395-1.23438,0.53809-1.76563,0.05176c-0.19434-0.17773-0.40234-0.44043-0.42285-0.82617
			c-0.0166-0.27637,0.08105-0.56152,0.20313-0.77441l0.39941,0.2041c-0.11914,0.17383-0.16992,0.37207-0.16602,0.53711
			c0.01074,0.24609,0.12305,0.41602,0.27539,0.55371c0.40234,0.36816,0.85547,0.25488,1.12695-0.04199
			c0.12207-0.13281,0.1875-0.28418,0.1709-0.47852c-0.01074-0.15723-0.07813-0.31543-0.16797-0.52832l-0.15234-0.36719
			c-0.06738-0.15918-0.15527-0.35449-0.1709-0.60352c-0.01563-0.24219,0.03516-0.44922,0.2373-0.66895
			c0.41699-0.45703,1.04688-0.44238,1.52539-0.00488c0.18164,0.16699,0.2959,0.33496,0.35254,0.56738
			c0.04688,0.18848,0.03906,0.40039-0.01172,0.59082L155.77148,177.10449z"/>
		<path fill="#A3A3A3" d="M158.84766,179.94043l-1.05469-1.24609l-0.90723,0.76953l1.02441,1.20801l-0.32031,0.27148
			l-1.02344-1.20898l-1.18555,1.00586l1.05469,1.24512l-0.32031,0.27051l-1.3418-1.58301l3.05273-2.58789l1.3418,1.58301
			L158.84766,179.94043z"/>
	</g>
	<g>
		<path fill="none" stroke="#A3A3A3" stroke-width="0.5" stroke-linecap="round" stroke-miterlimit="10" d="M110.75162,161.2308
			c-1.10632,0-1.22231-1.94649-1.78858-1.94649s-0.24898,4.28185-2.70724,4.28185"/>
	</g>
	<g>
		<path fill="none" stroke="#A3A3A3" stroke-width="0.5" stroke-linecap="round" stroke-miterlimit="10" d="M62.87605,161.2308
			h-2.74839c-1.10632,0-1.22231-1.94649-1.78858-1.94649s-0.24897,4.28185-2.70724,4.28185"/>
	</g>
	<g id="g8560_1_" transform="matrix(0.33866666,0,0,0.33866666,-6.6675,182.3825)">
		<g id="circle8550_1_">
			<circle fill="#A3A3A3" cx="418.30872" cy="-194.54625" r="66.44771"/>
		</g>
		<g id="path8552_1_">
			<path fill="#262424" d="M418.36661-157.50208c-8.97498,0-17.61472-4.74651-23.7402-13.0434
				c-9.21878-12.49486-20.17462-12.74628-20.63177-12.74628l-0.01523-7.4969c0,0,0,0,0.01523,0
				c0.86856,0,15.19193,0.25142,26.66583,15.79381c4.76941,6.4836,11.55014,10.13301,17.79758,10.00349
				c6.56741-0.0381,12.72339-3.57323,17.34039-9.97302c11.29111-15.64142,24.50211-15.82428,25.06589-15.82428v7.4969
				c-0.36569,0.00763-10.07205,0.35046-19.00131,12.71581c-6.04932,8.38069-14.33859,13.02817-23.37448,13.07387
				C418.44281-157.50208,418.39709-157.50208,418.36661-157.50208z"/>
		</g>
		<g id="line8554_1_">
			<rect x="373.99463" y="-190.78865" fill="#262424" width="86.86969" height="7.32973"/>
		</g>
		<g id="path8556_1_">
			<path fill="#262424" d="M460.86432-198.37698c-0.56378,0-13.77478-0.18286-25.06589-15.83189
				c-4.617-6.39218-10.77298-9.93492-17.34039-9.96541c-0.03049-0.00761-0.06094-0.00761-0.10666-0.00761
				c-6.64362,0-12.93677,3.55037-17.69092,10.00349c-11.672,15.81665-26.31537,15.70238-26.68106,15.80142l0.01523-7.4969
				c0.45715,0,11.41299-0.25143,20.63177-12.75389c6.12549-8.28928,14.76523-13.04341,23.7402-13.04341
				c0.04572,0,0.09143,0,0.13715,0.00763c9.02066,0.0457,17.32516,4.68555,23.35925,13.06625
				c8.92926,12.37294,18.63562,12.71579,19.04703,12.73103L460.86432-198.37698z"/>
		</g>
		<g id="line8558_1_">
			<rect x="373.99463" y="-205.70671" fill="#262424" width="86.86969" height="7.32973"/>
		</g>
	</g>
</g>
</svg>
