<?xml version="1.0" encoding="utf-8"?>
<!-- Generator: Adobe Illustrator 24.0.2, SVG Export Plug-In . SVG Version: 6.00 Build 0)  -->
<svg version="1.0" id="Layer_1" xmlns="http://www.w3.org/2000/svg" xmlns:xlink="http://www.w3.org/1999/xlink" x="0px" y="0px"
	 width="43px" height="43px" viewBox="0 0 43 43" enable-background="new 0 0 43 43" xml:space="preserve">
<g id="Layer_5" display="none">
</g>
<g id="Layer_1_1_" display="none">
</g>
<g id="background">
</g>
<g id="print">
</g>
<g id="text">
</g>
<g id="_x31_">
</g>
<g id="COMP">
	<g>
		<defs>
			<rect id="SVGID_1_" y="-0.00001" width="43" height="43"/>
		</defs>
		<clipPath id="SVGID_2_">
			<use xlink:href="#SVGID_1_"  overflow="visible"/>
		</clipPath>
		<g id="XMLID_9_" clip-path="url(#SVGID_2_)">
			<circle fill="#414144" cx="21.5" cy="21.49999" r="21.5"/>
			<circle fill="#606266" cx="21.5" cy="21.49999" r="18.4831"/>
			<circle fill="#606266" stroke="#606266" stroke-miterlimit="10" cx="21.5" cy="21.49999" r="14.86463"/>
			<path fill="#CFCFCF" d="M23.52506,7.82703h-4.05013c-0.3403,0-0.61616-0.27586-0.61616-0.61616V0.61615
				c0-0.3403,0.27586-0.61616,0.61616-0.61616h4.05013c0.3403,0,0.61616,0.27586,0.61616,0.61616v6.59472
				C24.14122,7.55117,23.86536,7.82703,23.52506,7.82703z"/>
			<path fill="#EAECEF" d="M22.98843,7.50307h-2.97685c-0.27425,0-0.49657-0.22232-0.49657-0.49657V2.55144
				c0-0.27425,0.22232-0.49657,0.49657-0.49657h2.97685c0.27425,0,0.49657,0.22232,0.49657,0.49657V7.0065
				C23.485,7.28075,23.26267,7.50307,22.98843,7.50307z"/>
			<circle fill="#3D8FCC" stroke="#357BB0" stroke-miterlimit="10" cx="21.5" cy="21.49999" r="13.99692"/>
		</g>
	</g>
</g>
</svg>
