<?xml version="1.0" encoding="utf-8"?>
<!-- Generator: Adobe Illustrator 24.0.2, SVG Export Plug-In . SVG Version: 6.00 Build 0)  -->
<svg version="1.0" id="Layer_1" xmlns="http://www.w3.org/2000/svg" xmlns:xlink="http://www.w3.org/1999/xlink" x="0px" y="0px"
	 width="270px" height="380px" viewBox="0 0 270 380" enable-background="new 0 0 270 380" xml:space="preserve">
<g id="_x36_">
	<rect y="-0.00002" fill="none" width="270" height="380"/>
	<g>
		<circle fill="#262424" stroke="#606266" stroke-width="0.75" stroke-miterlimit="10" cx="83.5" cy="145.5" r="34.93385"/>
		
			<line fill="none" stroke="#606266" stroke-width="0.75" stroke-miterlimit="10" x1="83.5" y1="145.5" x2="58.79808" y2="170.20192"/>
		
			<line fill="none" stroke="#606266" stroke-width="0.5" stroke-miterlimit="10" x1="83.46204" y1="145.61636" x2="116.56929" y2="156.79225"/>
		
			<line fill="none" stroke="#606266" stroke-width="0.5" stroke-miterlimit="10" x1="83.46204" y1="145.61636" x2="117.52246" y2="135.10704"/>
		
			<line fill="none" stroke="#606266" stroke-width="0.5" stroke-miterlimit="10" x1="83.46204" y1="145.61636" x2="104.36681" y2="117.62621"/>
		
			<line fill="none" stroke="#606266" stroke-width="0.5" stroke-miterlimit="10" x1="83.46204" y1="145.61636" x2="50.3548" y2="156.79225"/>
		
			<line fill="none" stroke="#606266" stroke-width="0.5" stroke-miterlimit="10" x1="83.46204" y1="145.61636" x2="49.40163" y2="135.10704"/>
		
			<line fill="none" stroke="#606266" stroke-width="0.5" stroke-miterlimit="10" x1="83.46204" y1="145.61636" x2="62.55727" y2="117.62621"/>
		
			<line fill="none" stroke="#606266" stroke-width="0.5" stroke-miterlimit="10" x1="83.5" y1="110.56613" x2="83.5" y2="145.61636"/>
		
			<line fill="none" stroke="#606266" stroke-width="0.75" stroke-miterlimit="10" x1="83.5" y1="145.5" x2="108.20195" y2="170.20195"/>
		<circle fill="#262424" stroke="#606266" stroke-width="0.75" stroke-miterlimit="10" cx="83.5" cy="145.5" r="23.5"/>
	</g>
	<g>
		<circle fill="#262424" stroke="#606266" stroke-width="0.5" stroke-miterlimit="10" cx="186.44551" cy="145.5" r="34.93385"/>
		<circle fill="#262424" stroke="#606266" stroke-width="0.75" stroke-miterlimit="10" cx="186.44551" cy="145.5" r="34.93385"/>
		
			<line fill="none" stroke="#606266" stroke-width="0.75" stroke-miterlimit="10" x1="186.44551" y1="145.5" x2="161.74948" y2="170.19603"/>
		
			<line fill="none" stroke="#606266" stroke-width="0.75" stroke-miterlimit="10" x1="186.44551" y1="145.5" x2="211.14154" y2="170.19603"/>
		
			<line fill="none" stroke="#606266" stroke-width="0.5" stroke-miterlimit="10" x1="186.44551" y1="145.47665" x2="219.55275" y2="156.65253"/>
		
			<line fill="none" stroke="#606266" stroke-width="0.5" stroke-miterlimit="10" x1="186.44551" y1="145.47665" x2="220.50592" y2="134.96733"/>
		
			<line fill="none" stroke="#606266" stroke-width="0.5" stroke-miterlimit="10" x1="186.44551" y1="145.47665" x2="207.35028" y2="117.4865"/>
		
			<line fill="none" stroke="#606266" stroke-width="0.5" stroke-miterlimit="10" x1="186.44551" y1="145.47665" x2="153.33827" y2="156.65253"/>
		
			<line fill="none" stroke="#606266" stroke-width="0.5" stroke-miterlimit="10" x1="186.44551" y1="145.47665" x2="152.3851" y2="134.96733"/>
		
			<line fill="none" stroke="#606266" stroke-width="0.5" stroke-miterlimit="10" x1="186.44551" y1="145.47665" x2="165.54074" y2="117.4865"/>
		
			<line fill="none" stroke="#606266" stroke-width="0.5" stroke-miterlimit="10" x1="186.48346" y1="110.42642" x2="186.48346" y2="145.47665"/>
		<circle fill="#262424" stroke="#606266" stroke-width="0.75" stroke-miterlimit="10" cx="186.44551" cy="145.5" r="23.5"/>
	</g>
	<g>
		<circle fill="#262424" stroke="#606266" stroke-width="0.5" stroke-miterlimit="10" cx="135" cy="198.5" r="34.93385"/>
		
			<line fill="none" stroke="#606266" stroke-width="0.75" stroke-miterlimit="10" x1="135" y1="198.5" x2="110.59309" y2="222.90691"/>
		
			<line fill="none" stroke="#606266" stroke-width="0.5" stroke-miterlimit="10" x1="135" y1="198.5" x2="168.10724" y2="209.67587"/>
		
			<line fill="none" stroke="#606266" stroke-width="0.5" stroke-miterlimit="10" x1="135" y1="198.5" x2="169.06041" y2="187.99068"/>
		
			<line fill="none" stroke="#606266" stroke-width="0.5" stroke-miterlimit="10" x1="135" y1="198.5" x2="155.90477" y2="170.50986"/>
		
			<line fill="none" stroke="#606266" stroke-width="0.75" stroke-miterlimit="10" x1="135" y1="198.5" x2="159.70186" y2="223.20186"/>
		<circle fill="#262424" stroke="#606266" stroke-width="0.75" stroke-miterlimit="10" cx="135" cy="198.5" r="23.5"/>
	</g>
	<g>
		<circle fill="#262424" stroke="#606266" stroke-width="0.5" stroke-miterlimit="10" cx="135" cy="283.5" r="34.93385"/>
		
			<line fill="none" stroke="#606266" stroke-width="0.75" stroke-miterlimit="10" x1="135" y1="283.5" x2="110.30396" y2="308.19604"/>
		
			<line fill="none" stroke="#606266" stroke-width="0.75" stroke-miterlimit="10" x1="135" y1="283.5" x2="159.69603" y2="308.19604"/>
		<line fill="none" stroke="#606266" stroke-width="0.5" stroke-miterlimit="10" x1="135" y1="248.56616" x2="135" y2="283.5"/>
		<circle fill="#262424" stroke="#606266" stroke-width="0.75" stroke-miterlimit="10" cx="135" cy="283.5" r="23.5"/>
	</g>
	<g>
		<circle fill="none" cx="71" cy="351" r="14.578"/>
		
			<path fill="#A3A3A3" stroke="#A3A3A3" stroke-width="0.25" stroke-linecap="round" stroke-linejoin="round" stroke-miterlimit="10" d="
			M55.46094,340.14404l3.07422,1.30078l-1.59961-3.23633l3.32422,1.34229l-1.5-3.02686l0.34668-0.38232l2.08105,4.27832
			l-3.31641-1.35059l1.5957,3.24072l-4.35352-1.78369L55.46094,340.14404z"/>
		
			<path fill="#A3A3A3" stroke="#A3A3A3" stroke-width="0.25" stroke-linecap="round" stroke-linejoin="round" stroke-miterlimit="10" d="
			M64.04297,336.79102l-1.55859,0.87842l0.14258,1.28027l-0.45117,0.25342l-0.47656-4.7876l3.80469,2.9126l-0.45117,0.25391
			L64.04297,336.79102z M63.66797,336.49658l-1.44141-1.12012l0.20117,1.81982L63.66797,336.49658z"/>
		
			<path fill="#A3A3A3" stroke="#A3A3A3" stroke-width="0.25" stroke-linecap="round" stroke-linejoin="round" stroke-miterlimit="10" d="
			M64.73047,333.21533l2.01563,2.7666l0.26758-3.4126l0.49707-0.14111l-0.42383,4.75488l-2.85449-3.82666L64.73047,333.21533z"/>
		
			<path fill="#A3A3A3" stroke="#A3A3A3" stroke-width="0.25" stroke-linecap="round" stroke-linejoin="round" stroke-miterlimit="10" d="
			M71.35547,332.58496l-1.71289,0.08203l0.05859,1.24756l1.66309-0.07861l0.02051,0.44092l-1.66211,0.07861l0.07617,1.63135
			l1.71387-0.08105l0.02148,0.44092l-2.17969,0.10352l-0.2002-4.20215l2.17969-0.10254L71.35547,332.58496z"/>
		
			<path fill="#A3A3A3" stroke="#A3A3A3" stroke-width="0.25" stroke-linecap="round" stroke-linejoin="round" stroke-miterlimit="10" d="
			M74.09375,332.88477l-0.58398,3.71729l-0.46094-0.07227l0.58398-3.71631l-1.00879-0.15869l0.06934-0.43701l2.47656,0.39014
			l-0.06738,0.43604L74.09375,332.88477z"/>
		
			<path fill="#A3A3A3" stroke="#A3A3A3" stroke-width="0.25" stroke-linecap="round" stroke-linejoin="round" stroke-miterlimit="10" d="
			M77.55664,336.60791l-1.66602-0.65186l-0.90039,0.91895l-0.48145-0.18799l3.40527-3.39404l0.14844,4.78516l-0.48047-0.18848
			L77.55664,336.60791z M77.54688,336.13135l-0.04492-1.82275l-1.28125,1.30273L77.54688,336.13135z"/>
		
			<path fill="#A3A3A3" stroke="#A3A3A3" stroke-width="0.25" stroke-linecap="round" stroke-linejoin="round" stroke-miterlimit="10" d="
			M81.66992,335.51074c0.18945,0.13525,0.52051,0.39795,0.62695,0.77734c0.04883,0.15918,0.09766,0.51221-0.2002,0.92529
			c-0.12109,0.16992-0.37012,0.44043-0.81934,0.42822c0.39063,0.45898,0.2666,0.99805,0.03125,1.3252
			c-0.23633,0.32715-0.58984,0.4751-0.87695,0.48486c-0.42578,0.02002-0.74512-0.19336-0.98047-0.36279l-0.84766-0.61035
			l2.45313-3.40967L81.66992,335.51074z M79.23828,338.39307l0.43555,0.31152c0.21875,0.15918,0.44531,0.29834,0.70117,0.2876
			c0.20215-0.00049,0.41602-0.10352,0.5625-0.30811c0.19531-0.27051,0.15039-0.54346,0.06934-0.71045
			c-0.07617-0.16357-0.2334-0.32324-0.50488-0.51709l-0.3877-0.28027L79.23828,338.39307z M80.35742,336.83838l0.28613,0.20654
			c0.19824,0.14404,0.69824,0.44141,1.07715-0.08545c0.40527-0.56201-0.13965-0.96973-0.24707-1.04688l-0.2959-0.21338
			L80.35742,336.83838z"/>
		
			<path fill="#A3A3A3" stroke="#A3A3A3" stroke-width="0.25" stroke-linecap="round" stroke-linejoin="round" stroke-miterlimit="10" d="
			M84.71094,338.13965l-2.75977,2.55127l0.78711,0.85205l-0.32422,0.29883l-1.10352-1.19287l3.08398-2.85156L84.71094,338.13965z"/>
		
			<path fill="#A3A3A3" stroke="#A3A3A3" stroke-width="0.25" stroke-linecap="round" stroke-linejoin="round" stroke-miterlimit="10" d="
			M87.21289,342.3125l-0.9043-1.45459l-1.06055,0.6582l0.87891,1.41162l-0.375,0.23438l-0.87695-1.41309l-1.38672,0.86084
			l0.9043,1.45557l-0.37305,0.23291l-1.15137-1.85156l3.56738-2.21777l1.15039,1.85059L87.21289,342.3125z"/>
	</g>
	<g>
		<circle fill="none" cx="199.5" cy="351.03378" r="14.578"/>
		
			<path fill="#A3A3A3" stroke="#A3A3A3" stroke-width="0.25" stroke-linecap="round" stroke-linejoin="round" stroke-miterlimit="10" d="
			M189.7793,334.93408l1.92383,3.22656l0.99414-0.59277l0.22559,0.37695l-1.39355,0.83301l-2.15039-3.60449L189.7793,334.93408z"/>
		
			<path fill="#A3A3A3" stroke="#A3A3A3" stroke-width="0.25" stroke-linecap="round" stroke-linejoin="round" stroke-miterlimit="10" d="
			M192.36621,335.76563c-0.37793-1.19531,0.27637-2.36768,1.43066-2.73193c1.15332-0.36426,2.36133,0.21924,2.73926,1.41455
			c0.37598,1.19043-0.27051,2.36572-1.43066,2.73145C193.94629,337.54639,192.74219,336.95508,192.36621,335.76563z
			 M192.82227,335.62109c0.29102,0.91895,1.25,1.42188,2.15039,1.13721c0.90234-0.2832,1.39648-1.24609,1.10742-2.16553
			c-0.29102-0.91943-1.25-1.42285-2.15039-1.13867C193.02832,333.73877,192.5332,334.70264,192.82227,335.62109z"/>
		
			<path fill="#A3A3A3" stroke="#A3A3A3" stroke-width="0.25" stroke-linecap="round" stroke-linejoin="round" stroke-miterlimit="10" d="
			M197.87891,332.13721l0.97168,3.19043l1.45801-3.30078l1.10156,3.41016l1.36035-3.09131l0.51563,0.02246l-1.9502,4.33887
			l-1.08789-3.40967l-1.46387,3.30029l-1.4209-4.48291L197.87891,332.13721z"/>
		
			<path fill="#A3A3A3" stroke="#A3A3A3" stroke-width="0.25" stroke-linecap="round" stroke-linejoin="round" stroke-miterlimit="10" d="
			M209.12891,335.35107l-1.2793-0.68652l-0.58691,1.0957l1.2334,0.66064l-0.20898,0.39014l-1.23242-0.66211l-0.98438,1.8335
			l-0.41211-0.22021l1.99023-3.70703l1.68848,0.90625L209.12891,335.35107z"/>
		
			<path fill="#A3A3A3" stroke="#A3A3A3" stroke-width="0.25" stroke-linecap="round" stroke-linejoin="round" stroke-miterlimit="10" d="
			M210.98047,336.13965l-2.53027,3.35498l-0.37207-0.27979l2.5293-3.35498L210.98047,336.13965z"/>
	</g>
	<g>
		
			<ellipse transform="matrix(0.08248 -0.99659 0.99659 0.08248 7.76543 241.42732)" fill="none" cx="134.99962" cy="116.49633" rx="25.57993" ry="25.57996"/>
		<path fill="#A3A3A3" stroke="#A3A3A3" stroke-width="0.25" stroke-miterlimit="10" d="M108.69922,101.53465l3.71582,0.78271
			l-2.31543-3.00928l0.30566-0.48486l3.18262,4.23193l-5.19336-1.03369L108.69922,101.53465z"/>
		<path fill="#A3A3A3" stroke="#A3A3A3" stroke-width="0.25" stroke-miterlimit="10" d="M111.38867,97.62303l3.67188,2.88672
			l-0.32031,0.40723l-3.67188-2.88672L111.38867,97.62303z"/>
		<path fill="#A3A3A3" stroke="#A3A3A3" stroke-width="0.25" stroke-miterlimit="10" d="M115.45117,99.07372
			c0.12598-0.14111,0.35352-0.15479,0.49414-0.02783c0.14063,0.12549,0.15332,0.35205,0.02734,0.49414
			c-0.125,0.14063-0.35156,0.15332-0.49316,0.02783C115.33887,99.44238,115.3252,99.21385,115.45117,99.07372z"/>
		<path fill="#A3A3A3" stroke="#A3A3A3" stroke-width="0.25" stroke-miterlimit="10" d="M115.06055,93.61572l3.05469,2.10938
			l-1.01367-3.88574l3.31934,2.21094l-0.95215-3.63525l0.46484-0.33643l1.30078,5.12842l-3.30664-2.21875l1.00684,3.88867
			l-4.33789-2.92334L115.06055,93.61572z"/>
		<path fill="#A3A3A3" stroke="#A3A3A3" stroke-width="0.25" stroke-miterlimit="10" d="M124.62695,91.68456l-1.80664,0.83447
			l0.04395,1.43164l-0.52246,0.23926l-0.09961-5.34717l3.95508,3.56738l-0.52148,0.2417L124.62695,91.68456z M124.23633,91.32469
			l-1.49609-1.36914l0.05859,2.03271L124.23633,91.32469z"/>
		<path fill="#A3A3A3" stroke="#A3A3A3" stroke-width="0.25" stroke-miterlimit="10" d="M125.01563,87.93748l2.28516,3.03418
			l0.23633-3.79102l0.54883-0.16504l-0.38867,5.2832l-3.23047-4.19629L125.01563,87.93748z"/>
		<path fill="#A3A3A3" stroke="#A3A3A3" stroke-width="0.25" stroke-miterlimit="10" d="M131.6543,86.92822l-1.87891,0.29785
			l0.21777,1.36816l1.82324-0.29053l0.07715,0.48438l-1.82324,0.28906l0.28516,1.79004l1.87695-0.30029l0.07813,0.48438
			l-2.39063,0.37939l-0.73145-4.60596l2.38965-0.38086L131.6543,86.92822z"/>
		<path fill="#A3A3A3" stroke="#A3A3A3" stroke-width="0.25" stroke-miterlimit="10" d="M134.10742,86.77879l0.16602,4.17432
			l-0.5166,0.02002l-0.16602-4.17334l-1.13379,0.04395l-0.01855-0.48926l2.78223-0.11084l0.01953,0.48975L134.10742,86.77879z"/>
		<path fill="#A3A3A3" stroke="#A3A3A3" stroke-width="0.25" stroke-miterlimit="10" d="M138.33984,89.81053l-1.98047-0.17041
			l-0.66992,1.26318l-0.57227-0.04932l2.56055-4.68994l1.66602,5.05371l-0.57227-0.0498L138.33984,89.81053z M138.17969,89.30467
			l-0.62109-1.92871l-0.95508,1.79346L138.17969,89.30467z"/>
		<path fill="#A3A3A3" stroke="#A3A3A3" stroke-width="0.25" stroke-miterlimit="10" d="M141.68945,87.01023
			c0.25195,0.06006,0.70313,0.19043,0.97266,0.53516c0.11719,0.14355,0.31543,0.48633,0.18359,1.03711
			c-0.05469,0.22559-0.19727,0.6084-0.66406,0.78516c0.5957,0.30811,0.69531,0.91553,0.59082,1.35107
			c-0.10449,0.43604-0.40723,0.7373-0.69824,0.86865c-0.42969,0.19971-0.84766,0.11377-1.16211,0.03857l-1.12891-0.27148
			l1.08984-4.54053L141.68945,87.01023z M140.40137,90.99949l0.57813,0.1377c0.29297,0.0708,0.58301,0.11963,0.84277,0.00098
			c0.20801-0.08643,0.38477-0.28223,0.44922-0.55469c0.08691-0.36035-0.07422-0.62158-0.22754-0.75928
			c-0.14746-0.13672-0.37598-0.23486-0.7373-0.3208l-0.5166-0.12451L140.40137,90.99949z M140.89844,88.92967l0.38086,0.09131
			c0.26563,0.06396,0.9043,0.16016,1.07227-0.54102c0.18066-0.74902-0.55078-0.93994-0.69434-0.97412l-0.39551-0.09473
			L140.89844,88.92967z"/>
		<path fill="#A3A3A3" stroke="#A3A3A3" stroke-width="0.25" stroke-miterlimit="10" d="M145.36133,88.0957l-1.45117,3.91943
			l1.20703,0.44727l-0.16992,0.45947l-1.69336-0.62695l1.62207-4.38037L145.36133,88.0957z"/>
		<path fill="#A3A3A3" stroke="#A3A3A3" stroke-width="0.25" stroke-miterlimit="10" d="M149.48047,90.48193l-1.70508-0.85059
			l-0.61914,1.24121l1.6543,0.8252l-0.21875,0.43896l-1.6543-0.8252l-0.81152,1.62207l1.7041,0.85059l-0.21875,0.43896
			l-2.16797-1.08301l2.08789-4.17969l2.16797,1.08301L149.48047,90.48193z"/>
		<path fill="#A3A3A3" stroke="#A3A3A3" stroke-width="0.25" stroke-miterlimit="10" d="M150.9043,93.45654
			c0.88574-1.07324,2.37207-1.17139,3.4082-0.31787c1.03516,0.85449,1.22266,2.33203,0.33691,3.40576
			c-0.88086,1.06885-2.36621,1.17627-3.40723,0.31836C150.20117,96.00291,150.02344,94.52538,150.9043,93.45654z
			 M151.31445,93.79443c-0.67969,0.82666-0.57031,2.02295,0.23926,2.68994c0.80957,0.66797,2.00488,0.54785,2.68555-0.27783
			s0.57129-2.02246-0.23926-2.68994C153.19141,92.84959,151.99609,92.96971,151.31445,93.79443z"/>
		<path fill="#A3A3A3" stroke="#A3A3A3" stroke-width="0.25" stroke-miterlimit="10" d="M157.82715,98.0835
			c0.05469-0.12939,0.09277-0.30029,0.08691-0.43457c-0.00586-0.11426-0.04688-0.30176-0.21973-0.50244
			c-0.30078-0.3501-0.72852-0.40723-1.05664-0.12451c-0.1377,0.11865-0.18652,0.22461-0.19434,0.39697
			c-0.01367,0.19775,0.04102,0.38037,0.09668,0.56299l0.14355,0.46729c0.08789,0.28418,0.15625,0.55762,0.13574,0.8335
			c-0.02441,0.33496-0.16699,0.58838-0.42285,0.80615c-0.65234,0.56152-1.50195,0.45264-2.04883-0.18359
			c-0.20117-0.2334-0.4043-0.56543-0.37598-1.01563c0.01953-0.32031,0.17285-0.63623,0.34277-0.86719l0.43555,0.2915
			c-0.16406,0.18604-0.25,0.40771-0.26855,0.6001c-0.02148,0.28613,0.08691,0.49707,0.24121,0.67725
			c0.41602,0.48389,0.95605,0.41553,1.31152,0.10889c0.15918-0.1377,0.25586-0.30273,0.26367-0.53174
			c0.00879-0.18115-0.04688-0.37451-0.12207-0.6333l-0.125-0.44629c-0.05469-0.19287-0.13086-0.43115-0.11328-0.72266
			c0.01563-0.28125,0.10254-0.5127,0.36719-0.74121c0.54688-0.46924,1.27246-0.36523,1.76563,0.20752
			c0.1875,0.2168,0.29492,0.42773,0.3291,0.70313c0.02832,0.22656-0.01074,0.47119-0.09668,0.68262L157.82715,98.0835z"/>
		<path fill="#A3A3A3" stroke="#A3A3A3" stroke-width="0.25" stroke-miterlimit="10" d="M160.83105,102.70361
			c0.04785-0.20264,0.07715-0.48486,0.04688-0.74658c-0.03418-0.26758-0.12695-0.54834-0.27148-0.77979
			c-0.57031-0.91602-1.72949-1.13525-2.64453-0.56445c-1.07617,0.66943-1.07324,1.88086-0.62207,2.60596
			c0.16602,0.26758,0.40723,0.48096,0.64355,0.62305c0.25488,0.15527,0.50293,0.22314,0.61816,0.25l-0.54688,0.34082
			c-0.58887-0.24414-0.94531-0.65771-1.13086-0.9541c-0.73242-1.17773-0.38477-2.60693,0.7627-3.3208
			c1.18262-0.73779,2.61426-0.3999,3.35449,0.78955c0.14844,0.23779,0.4043,0.71387,0.33691,1.41602L160.83105,102.70361z"/>
	</g>
	<g>
		<circle fill="none" cx="83.5" cy="145.5" r="28.59473"/>
		<path fill="#A3A3A3" stroke="#A3A3A3" stroke-width="0.25" stroke-linejoin="round" stroke-miterlimit="10" d="
			M75.93555,170.28955c0.3457,0.09912,0.85547,0.26904,1.16504,0.64014c0.24316,0.28662,0.39258,0.75293,0.23633,1.29932
			c-0.22363,0.78369-0.90332,1.21484-1.69629,1.04688l0.97656,2.7583l-0.69141-0.19775l-0.92188-2.69238l-0.14648-0.04199
			l-0.64063,2.24609l-0.56836-0.16211l1.46387-5.13184L75.93555,170.28955z M75.00293,172.59375l0.3623,0.10352
			c0.70703,0.20215,1.22656-0.01514,1.39844-0.61523c0.08105-0.28418,0.07813-0.59424-0.19336-0.87109
			c-0.19238-0.19678-0.4502-0.28613-0.69629-0.35596l-0.34668-0.09863L75.00293,172.59375z"/>
		<path fill="#A3A3A3" stroke="#A3A3A3" stroke-width="0.25" stroke-linejoin="round" stroke-miterlimit="10" d="
			M78.74609,173.82031c0.1084-1.58936,1.42578-2.67041,2.95801-2.56641c1.53223,0.10498,2.69043,1.35596,2.58105,2.94434
			c-0.10742,1.58105-1.41699,2.66992-2.95703,2.56494C79.78711,176.65723,78.63672,175.40039,78.74609,173.82031z
			 M79.35156,173.86084c-0.08203,1.22168,0.81641,2.26123,2.01367,2.34277c1.19727,0.08252,2.23047-0.82471,2.31445-2.04639
			c0.08301-1.22119-0.81641-2.26221-2.01367-2.34326C80.46777,171.73193,79.43555,172.63965,79.35156,173.86084z"/>
		<path fill="#A3A3A3" stroke="#A3A3A3" stroke-width="0.25" stroke-linejoin="round" stroke-miterlimit="10" d="
			M85.54492,171.49658l2.16895,3.64697l0.79883-4.51904l2.39453,3.87793l0.74316-4.22998l0.64258-0.12939l-1.0918,5.94873
			l-2.37793-3.88086l-0.80762,4.52051l-3.11426-5.10547L85.54492,171.49658z"/>
	</g>
	<g>
		<circle fill="none" cx="186.44551" cy="145.5" r="28.59473"/>
		<path fill="#A3A3A3" stroke="#A3A3A3" stroke-width="0.25" stroke-linejoin="round" stroke-miterlimit="10" d="
			M176.54883,170.8125c-0.07715-0.22461-0.2207-0.51611-0.4082-0.75098c-0.19629-0.23682-0.45508-0.45264-0.73633-0.58887
			c-1.10742-0.53955-2.36133-0.04639-2.90039,1.06055c-0.63477,1.30225,0.10352,2.47119,0.98242,2.89795
			c0.32324,0.15869,0.68555,0.21826,1,0.21143c0.33984-0.00391,0.62109-0.08887,0.75-0.1333l-0.32227,0.66211
			c-0.71875,0.12256-1.31445-0.06152-1.67383-0.23633c-1.42383-0.69336-1.95508-2.28662-1.28027-3.67432
			c0.69727-1.43164,2.28711-1.97461,3.72559-1.27344c0.28711,0.13916,0.82422,0.44531,1.18555,1.16406L176.54883,170.8125z"/>
		<path fill="#A3A3A3" stroke="#A3A3A3" stroke-width="0.25" stroke-linejoin="round" stroke-miterlimit="10" d="
			M177.38477,172.75684c0.35254-1.55127,1.81836-2.41553,3.31445-2.07666c1.49707,0.33936,2.44727,1.75293,2.0957,3.30322
			c-0.34961,1.54346-1.81055,2.41699-3.31445,2.07568C177.97559,175.71875,177.03516,174.29932,177.38477,172.75684z
			 M177.97754,172.89063c-0.27051,1.19287,0.45801,2.35742,1.62695,2.62305c1.16895,0.26514,2.32715-0.47217,2.59766-1.66504
			c0.27051-1.19189-0.45605-2.35742-1.62598-2.62256C179.40625,170.96143,178.24805,171.69873,177.97754,172.89063z"/>
		<path fill="#A3A3A3" stroke="#A3A3A3" stroke-width="0.25" stroke-linejoin="round" stroke-miterlimit="10" d="
			M185.37988,171.38184l-0.15918,4.77295l1.4707,0.04883l-0.01855,0.55957l-2.06348-0.06885l0.17871-5.3335L185.37988,171.38184z"/>
		<path fill="#A3A3A3" stroke="#A3A3A3" stroke-width="0.25" stroke-linejoin="round" stroke-miterlimit="10" d="
			M188.6543,176.79248l-0.04199-5.70313l2.75488,4.11133l1.3252-4.79395l1.74121,5.43213l-0.59961,0.09912l-1.10352-3.58203
			l-1.15039,4.18066l-2.41016-3.59277l0.08398,3.74951L188.6543,176.79248z"/>
		<path fill="#A3A3A3" stroke="#A3A3A3" stroke-width="0.25" stroke-linejoin="round" stroke-miterlimit="10" d="
			M197.01758,174.98779l-2.2666-5.0752l5.5752,2.28467l-1.68555-3.77637l0.54004-0.2417l2.27246,5.09131l-5.57422-2.28467
			l1.67871,3.76025L197.01758,174.98779z"/>
	</g>
	<g>
		<circle fill="none" cx="135" cy="198.5" r="28.59473"/>
		
			<path fill="#A3A3A3" stroke="#A3A3A3" stroke-width="0.25" stroke-linecap="round" stroke-linejoin="round" stroke-miterlimit="10" d="
			M125.68262,223.28174l-1.73145,4.45215l-0.55273-0.21533l1.73242-4.45166l-1.20801-0.46973l0.20215-0.52246l2.96875,1.15527
			l-0.20313,0.52148L125.68262,223.28174z"/>
		
			<path fill="#A3A3A3" stroke="#A3A3A3" stroke-width="0.25" stroke-linecap="round" stroke-linejoin="round" stroke-miterlimit="10" d="
			M129.34766,227.72559l-2.21094-0.51514l-0.96387,1.31787l-0.6377-0.14893l3.6582-4.88477l1.05859,5.98486l-0.63867-0.1499
			L129.34766,227.72559z M129.25,227.12744l-0.38867-2.28174l-1.37109,1.87158L129.25,227.12744z"/>
		
			<path fill="#A3A3A3" stroke="#A3A3A3" stroke-width="0.25" stroke-linecap="round" stroke-linejoin="round" stroke-miterlimit="10" d="
			M132.92969,224.32422c0.29492,0.01855,0.8291,0.07471,1.20117,0.41016c0.16016,0.1377,0.45313,0.48389,0.41406,1.13184
			c-0.0166,0.26367-0.10059,0.72412-0.5918,1.01465c0.73242,0.229,0.96484,0.89209,0.93359,1.4043
			c-0.03027,0.51123-0.31055,0.91162-0.6123,1.11768c-0.44434,0.31006-0.93262,0.29541-1.2998,0.27393l-1.32617-0.07959
			l0.32129-5.33105L132.92969,224.32422z M132.27344,229.07275l0.67871,0.04102c0.34375,0.02148,0.68066,0.0166,0.94824-0.16748
			c0.2168-0.13867,0.37695-0.39404,0.39648-0.71387c0.02539-0.42334-0.20703-0.68506-0.4082-0.81006
			c-0.19336-0.12402-0.46973-0.18848-0.89355-0.21484l-0.60742-0.03711L132.27344,229.07275z M132.41992,226.64355l0.44727,0.02734
			c0.3125,0.01855,1.05078-0.00049,1.10059-0.82324c0.05371-0.87988-0.80859-0.94775-0.97656-0.95801l-0.46387-0.02881
			L132.41992,226.64355z"/>
		
			<path fill="#A3A3A3" stroke="#A3A3A3" stroke-width="0.25" stroke-linecap="round" stroke-linejoin="round" stroke-miterlimit="10" d="
			M136.64844,224.34229l0.33496,4.76709l1.46973-0.10254l0.03906,0.55908l-2.06055,0.14404l-0.375-5.32617L136.64844,224.34229z"/>
		
			<path fill="#A3A3A3" stroke="#A3A3A3" stroke-width="0.25" stroke-linecap="round" stroke-linejoin="round" stroke-miterlimit="10" d="
			M141.62695,224.15869l-2.13574,0.41943l0.30566,1.55469l2.07324-0.40723l0.1084,0.5498l-2.07422,0.40723l0.40039,2.0332
			l2.13574-0.42041l0.1084,0.54932l-2.71582,0.53564l-1.03125-5.2373l2.7168-0.5332L141.62695,224.15869z"/>
		
			<path fill="#A3A3A3" stroke="#A3A3A3" stroke-width="0.25" stroke-linecap="round" stroke-linejoin="round" stroke-miterlimit="10" d="
			M144.96484,223.56299c-0.11621-0.11182-0.2832-0.22217-0.42773-0.27393c-0.125-0.03906-0.34082-0.07422-0.62793,0.02832
			c-0.49707,0.17676-0.73535,0.60938-0.56934,1.07666c0.07031,0.19531,0.16309,0.29004,0.34375,0.37012
			c0.20508,0.09717,0.42285,0.11377,0.64063,0.12891l0.55762,0.04102c0.33984,0.02344,0.66016,0.06299,0.94629,0.19922
			c0.34668,0.16602,0.55664,0.42188,0.68555,0.78467c0.32813,0.92725-0.13867,1.78906-1.04395,2.11084
			c-0.33203,0.11768-0.77051,0.19727-1.23828-0.01904c-0.33496-0.1543-0.6084-0.44678-0.7832-0.7251l0.48926-0.34326
			c0.13184,0.25049,0.33203,0.43408,0.5293,0.53418c0.29688,0.14111,0.56641,0.11279,0.82324,0.02197
			c0.68652-0.24316,0.83691-0.84863,0.6582-1.354c-0.08105-0.22607-0.21777-0.39746-0.45801-0.49902
			c-0.19141-0.08643-0.41992-0.10645-0.72656-0.13428l-0.52734-0.05029c-0.22852-0.021-0.51465-0.03809-0.81836-0.17725
			c-0.29395-0.13281-0.50488-0.32227-0.63867-0.69922c-0.27539-0.77686,0.13672-1.5083,0.95117-1.79736
			c0.30859-0.10986,0.5791-0.13818,0.88672-0.06006c0.25195,0.06445,0.49805,0.20605,0.68848,0.38477L144.96484,223.56299z"/>
	</g>
	<g>
		<circle fill="none" cx="135" cy="283.5" r="28.59473"/>
		
			<path fill="#A3A3A3" stroke="#A3A3A3" stroke-width="0.25" stroke-linecap="round" stroke-linejoin="round" stroke-miterlimit="10" d="
			M117.6709,309.67383l3.43262-4.54932l-0.3125,4.93604l3.96484-2.99658l-1.91992,5.36523l-0.53711-0.28564l1.30273-3.51123
			l-3.45313,2.61572l0.27148-4.31299l-2.21289,3.0249L117.6709,309.67383z"/>
		
			<path fill="#A3A3A3" stroke="#A3A3A3" stroke-width="0.25" stroke-linecap="round" stroke-linejoin="round" stroke-miterlimit="10" d="
			M127.42578,308.27979l-1.61328,5.0874l-0.56445-0.17871l1.61328-5.0874L127.42578,308.27979z"/>
		
			<path fill="#A3A3A3" stroke="#A3A3A3" stroke-width="0.25" stroke-linecap="round" stroke-linejoin="round" stroke-miterlimit="10" d="
			M129.7207,311.49268l-0.96484-2.78711l0.66309,0.11621l0.74023,2.17041l1.46777-1.78223l0.66211,0.11719l-1.88965,2.28467
			l1.04395,2.98877l-0.66309-0.11621l-0.82617-2.37305l-1.60254,1.9458l-0.66211-0.11719L129.7207,311.49268z"/>
		
			<path fill="#A3A3A3" stroke="#A3A3A3" stroke-width="0.25" stroke-linecap="round" stroke-linejoin="round" stroke-miterlimit="10" d="
			M135.90332,312.21533c-0.2207-1.57666,0.8457-2.9043,2.36621-3.11719c1.51953-0.21289,2.91016,0.77246,3.12988,2.34814
			c0.21973,1.56787-0.83691,2.90234-2.36621,3.11621C137.50391,314.77686,136.12305,313.7832,135.90332,312.21533z
			 M136.50488,312.13086c0.16895,1.21143,1.2627,2.04297,2.4502,1.87695c1.18848-0.16602,2.01172-1.26611,1.84277-2.47705
			c-0.16895-1.21143-1.2627-2.04395-2.45117-1.87793C137.1582,309.81787,136.33594,310.91846,136.50488,312.13086z"/>
		
			<path fill="#A3A3A3" stroke="#A3A3A3" stroke-width="0.25" stroke-linecap="round" stroke-linejoin="round" stroke-miterlimit="10" d="
			M144.00879,311.27246c0.15723,0.41992,0.3291,0.87695,0.85254,1.06543c0.26563,0.09619,0.65332,0.07959,0.93164-0.02344
			c0.27734-0.10449,0.58008-0.3457,0.7168-0.59326c0.27148-0.4873,0.09961-0.94434-0.05664-1.36377l-1.14844-3.06592
			l0.55469-0.20801l1.2041,3.21582c0.15723,0.41895,0.26465,0.84082,0.13477,1.31787
			c-0.14551,0.52393-0.57129,0.98389-1.20996,1.22217c-0.63672,0.2373-1.25977,0.17285-1.71387-0.12842
			c-0.41113-0.27295-0.60645-0.66113-0.76465-1.08105l-1.2041-3.21582l0.55566-0.2085L144.00879,311.27246z"/>
		
			<path fill="#A3A3A3" stroke="#A3A3A3" stroke-width="0.25" stroke-linecap="round" stroke-linejoin="round" stroke-miterlimit="10" d="
			M148.77148,306.08643l2.44727,4.10596l-0.50781,0.30322l-2.44922-4.10645l-1.11328,0.66455l-0.28711-0.48096l2.73633-1.63135
			l0.28809,0.48096L148.77148,306.08643z"/>
	</g>
	<g>
		<circle fill="none" cx="135" cy="283.44943" r="28.59473"/>
		<path fill="#A3A3A3" d="M142.04492,253.64307l-0.83203,3.4834l1.07422,0.25586l-0.09766,0.4082l-1.50488-0.35938l0.92871-3.89063
			L142.04492,253.64307z"/>
		<path fill="#A3A3A3" d="M143.41992,256.00439c0.43164-1.11426,1.61621-1.59766,2.69238-1.18262
			c1.07617,0.41602,1.62793,1.57031,1.19727,2.68555c-0.42871,1.10938-1.61035,1.59961-2.69141,1.18164
			C143.53711,258.27197,142.99219,257.11475,143.41992,256.00439z M143.8457,256.16943
			c-0.33008,0.85742,0.08398,1.80273,0.92383,2.12695c0.84082,0.3252,1.7832-0.09668,2.11426-0.9541
			s-0.08301-1.80273-0.92285-2.12793C145.11914,254.89014,144.17773,255.31201,143.8457,256.16943z"/>
		<path fill="#A3A3A3" d="M149.59277,256.39697l-0.73242,3.09863l2.78809-2.02051l-0.73047,3.34082l2.60742-1.89453l0.41504,0.2666
			l-3.69336,2.64063l0.74121-3.33594l-2.79297,2.01855l0.98242-4.37988L149.59277,256.39697z"/>
		<path fill="#A3A3A3" d="M157.55664,263.32764l-0.94238-1.00781l-0.8623,0.80762l0.9082,0.97168l-0.30566,0.28711l-0.90918-0.97266
			l-1.44629,1.35156l-0.30371-0.32422l2.92285-2.73242l1.24512,1.33301L157.55664,263.32764z"/>
		<path fill="#A3A3A3" d="M159.125,264.56201L156,267.05225l-0.27734-0.34668l3.12695-2.49121L159.125,264.56201z"/>
	</g>
	<g>
		<circle fill="none" cx="135" cy="283.5" r="28.59473"/>
		<path fill="#A3A3A3" d="M104.5918,279.40625l3.15137-0.4082l-2.87109-1.89209l3.37891-0.49414l-2.68848-1.76807l0.10156-0.48047
			l3.76758,2.51807l-3.37598,0.48242l2.86914,1.89844l-4.43555,0.625L104.5918,279.40625z"/>
		<path fill="#A3A3A3" d="M109.6416,272.28125l-0.64258,1.57764l0.86328,0.87012l-0.18555,0.45557l-3.1875-3.28809l4.55957-0.0791
			l-0.18652,0.45605L109.6416,272.28125z M109.1875,272.28369l-1.7373,0.01807l1.22559,1.2373L109.1875,272.28369z"/>
		<path fill="#A3A3A3" d="M107.88184,269.3042l3.21289,0.54346l-2.08789-2.50146l0.24512-0.42725l2.87402,3.52051l-4.49023-0.70801
			L107.88184,269.3042z"/>
		<path fill="#A3A3A3" d="M111.69043,264.33936l-0.99219,1.29688l0.94531,0.7207l0.96191-1.2583l0.33203,0.25488l-0.96094,1.25879
			l1.23438,0.94434l0.99219-1.29736l0.33301,0.25488l-1.26074,1.6499l-3.18066-2.43066l1.26172-1.64893L111.69043,264.33936z"/>
		<path fill="#A3A3A3" d="M113.41016,262.44922l2.58105,2.4834l-0.30859,0.31982l-2.58105-2.48291l-0.67188,0.7002l-0.30371-0.29102
			l1.65527-1.7207l0.30273,0.2915L113.41016,262.44922z"/>
		<path fill="#A3A3A3" d="M118.16699,261.48975l-1.31934,1.07568l0.33984,1.17627l-0.37988,0.31055l-1.22168-4.41064
			l4.03711,2.11572l-0.38184,0.31006L118.16699,261.48975z M117.76855,261.27441l-1.5332-0.81641l0.48242,1.67188
			L117.76855,261.27441z"/>
		<path fill="#A3A3A3" d="M118.9375,257.48438c0.19043-0.11475,0.54395-0.30713,0.91699-0.2583
			c0.1582,0.01758,0.48438,0.10693,0.73633,0.52344c0.10156,0.16943,0.24414,0.48877,0.06543,0.87744
			c0.5498-0.17041,0.97461,0.14111,1.17285,0.46973c0.19922,0.32861,0.19531,0.69482,0.09668,0.9502
			c-0.1416,0.38037-0.44922,0.5791-0.68555,0.72168l-0.85156,0.51465l-2.06738-3.42725L118.9375,257.48438z M119.60938,259.13232
			l0.28809-0.17383c0.2002-0.12061,0.64844-0.44678,0.3291-0.97607c-0.34082-0.56494-0.90234-0.24023-1.01074-0.17529
			l-0.29785,0.1792L119.60938,259.13232z M120.55176,260.69385l0.43555-0.2627c0.22168-0.1333,0.42773-0.2793,0.51465-0.50684
			c0.0752-0.17822,0.06543-0.40332-0.05859-0.60889c-0.16406-0.27197-0.41992-0.33545-0.59668-0.32666
			c-0.17188,0.00537-0.36914,0.08301-0.64258,0.24756l-0.39063,0.23486L120.55176,260.69385z"/>
		<path fill="#A3A3A3" d="M122.24023,255.72021l1.48145,3.25928l1.00391-0.45654l0.17383,0.38232l-1.40918,0.64014l-1.65332-3.64209
			L122.24023,255.72021z"/>
		<path fill="#A3A3A3" d="M126.65918,254.5l-1.55176,0.51074l0.37207,1.12939l1.50488-0.49561l0.13184,0.39941l-1.50488,0.49512
			l0.48438,1.47754l1.55176-0.51025l0.13184,0.39893l-1.97266,0.64941l-1.25293-3.80469l1.97363-0.64941L126.65918,254.5z"/>
	</g>
	<g>
		<circle fill="none" cx="183.01788" cy="44.24548" r="14.57799"/>
		
			<path fill="#A3A3A3" stroke="#A3A3A3" stroke-width="0.25" stroke-linecap="round" stroke-linejoin="round" stroke-miterlimit="10" d="
			M166.24805,35.74021l3.34863,1.72266l0.53027-1.03223l0.39258,0.20215l-0.74414,1.44727l-3.74121-1.92383L166.24805,35.74021z"/>
		
			<path fill="#A3A3A3" stroke="#A3A3A3" stroke-width="0.25" stroke-linecap="round" stroke-linejoin="round" stroke-miterlimit="10" d="
			M169.2168,32.07811l-1.04492,1.35742l0.98828,0.76074l1.01367-1.31641l0.34863,0.26953l-1.01465,1.31641l1.29199,0.99512
			l1.0459-1.35645l0.34961,0.26855l-1.33008,1.72559l-3.32715-2.5625l1.3291-1.72656L169.2168,32.07811z"/>
		
			<path fill="#A3A3A3" stroke="#A3A3A3" stroke-width="0.25" stroke-linecap="round" stroke-linejoin="round" stroke-miterlimit="10" d="
			M170.10156,30.52244l2.96387,1.70703l-1.1416-3.22363l0.39648-0.33105l1.54297,4.51465l-4.1582-2.33691L170.10156,30.52244z"/>
		
			<path fill="#A3A3A3" stroke="#A3A3A3" stroke-width="0.25" stroke-linecap="round" stroke-linejoin="round" stroke-miterlimit="10" d="
			M175.77051,27.31736l-1.52832,0.77832l0.56641,1.1123l1.4834-0.75488l0.2002,0.39258l-1.4834,0.75586l0.74023,1.45508
			l1.52832-0.77832l0.20117,0.39453l-1.94531,0.98926l-1.90625-3.74805l1.94336-0.98926L175.77051,27.31736z"/>
		
			<path fill="#A3A3A3" stroke="#A3A3A3" stroke-width="0.25" stroke-linecap="round" stroke-linejoin="round" stroke-miterlimit="10" d="
			M177.54785,26.24705l1.07031,3.60156l1.11035-0.33008l0.125,0.42285l-1.55664,0.46191l-1.19531-4.02441L177.54785,26.24705z"/>
		
			<path fill="#A3A3A3" stroke="#A3A3A3" stroke-width="0.25" stroke-linecap="round" stroke-linejoin="round" stroke-miterlimit="10" d="
			M182.82813,27.35643l1.97949,0.0918l-0.03027,0.66504l-1.97949-0.0918L182.82813,27.35643z"/>
		
			<path fill="#A3A3A3" stroke="#A3A3A3" stroke-width="0.25" stroke-linecap="round" stroke-linejoin="round" stroke-miterlimit="10" d="
			M190.83496,29.46482l1.5625,0.79395l-0.0459,0.08984c-0.21094,0.41602-0.5625,0.80273-0.96094,1.00391
			c-0.19043,0.09473-0.87695,0.4043-1.7373-0.0332c-1.11328-0.56543-1.51465-1.83594-0.96094-2.92676
			s1.82324-1.51465,2.94043-0.94629c0.36035,0.18262,0.73633,0.48633,0.95898,0.95313
			c0.10352,0.21387,0.17578,0.46289,0.20801,0.66406l-0.45215,0.12402c-0.03027-0.20703-0.08398-0.4043-0.15723-0.56738
			c-0.10547-0.23828-0.30176-0.5498-0.75098-0.77734c-0.9043-0.45996-1.88086-0.09961-2.32227,0.77148
			c-0.51953,1.02441,0.0332,1.95508,0.74219,2.31445c0.5,0.25391,1.06055,0.2207,1.46582-0.04688
			c0.12793-0.08398,0.29199-0.22852,0.42285-0.45801l-1.11328-0.56445L190.83496,29.46482z"/>
		
			<path fill="#A3A3A3" stroke="#A3A3A3" stroke-width="0.25" stroke-linecap="round" stroke-linejoin="round" stroke-miterlimit="10" d="
			M194.4873,33.36619l-1.30176-1.22754l-1.17969,0.51758l-0.375-0.35449l4.42773-1.87891l-1.65039,4.49707l-0.37598-0.35449
			L194.4873,33.36619z M194.65625,32.92088l0.64063-1.70898l-1.67676,0.73145L194.65625,32.92088z"/>
		
			<path fill="#A3A3A3" stroke="#A3A3A3" stroke-width="0.25" stroke-linecap="round" stroke-linejoin="round" stroke-miterlimit="10" d="
			M198.21289,33.93943l-3.08789,2.14941l-0.26758-0.38281l3.08887-2.15039l-0.58301-0.83691l0.36133-0.25293l1.43359,2.05859
			l-0.3623,0.25195L198.21289,33.93943z"/>
		
			<path fill="#A3A3A3" stroke="#A3A3A3" stroke-width="0.25" stroke-linecap="round" stroke-linejoin="round" stroke-miterlimit="10" d="
			M200.29883,37.9658l-0.68555-1.57031l-1.14258,0.5l0.66602,1.52246l-0.4043,0.17676l-0.66504-1.52344l-1.49512,0.65234
			l0.68555,1.57031l-0.4043,0.17578l-0.87109-1.99707l3.84961-1.68066l0.87109,1.99707L200.29883,37.9658z"/>
	</g>
	<g>
		<circle fill="none" cx="183.01788" cy="44.24548" r="13.74777"/>
		
			<path fill="#A3A3A3" stroke="#A3A3A3" stroke-width="0.25" stroke-linecap="round" stroke-linejoin="round" stroke-miterlimit="10" d="
			M175.6582,57.02537l-2.03613,3.40332l-0.37793-0.22607l2.03613-3.40381L175.6582,57.02537z"/>
		
			<path fill="#A3A3A3" stroke="#A3A3A3" stroke-width="0.25" stroke-linecap="round" stroke-linejoin="round" stroke-miterlimit="10" d="
			M175.52734,61.49021l1.29004-3.92285l1.92285,4.04102l0.95898-2.91748l0.41797,0.13721l-1.29297,3.93311l-1.92383-4.04004
			l-0.95508,2.90527L175.52734,61.49021z"/>
		
			<path fill="#A3A3A3" stroke="#A3A3A3" stroke-width="0.25" stroke-linecap="round" stroke-linejoin="round" stroke-miterlimit="10" d="
			M182.10938,58.97215c0.39844,0.02051,0.72852,0.08545,0.98242,0.33105c0.27832,0.26514,0.33105,0.61963,0.31836,0.86865
			c-0.0293,0.55859-0.41016,1.09229-1.3125,1.04541l-0.38574-0.021l-0.09082,1.72168l-0.43945-0.02295l0.20898-3.96143
			L182.10938,58.97215z M181.73438,60.78025l0.36133,0.01904c0.52344,0.02734,0.85156-0.21631,0.87598-0.6748
			c0.0332-0.62891-0.55176-0.71973-0.83691-0.73486l-0.32617-0.0166L181.73438,60.78025z"/>
		
			<path fill="#A3A3A3" stroke="#A3A3A3" stroke-width="0.25" stroke-linecap="round" stroke-linejoin="round" stroke-miterlimit="10" d="
			M185.21094,61.31834c0.06055,0.32715,0.12695,0.68359,0.48633,0.89063c0.18164,0.104,0.46777,0.14258,0.68359,0.10205
			c0.2168-0.04004,0.46875-0.17822,0.60156-0.34229c0.26172-0.32031,0.19531-0.67676,0.13477-1.00488l-0.44531-2.39209
			l0.43359-0.08057l0.46582,2.50977c0.06152,0.32666,0.08496,0.64941-0.07129,0.98145
			c-0.17383,0.36523-0.5459,0.64648-1.04297,0.7373c-0.49609,0.09229-0.94434-0.03564-1.23828-0.31396
			c-0.26465-0.25391-0.3584-0.5625-0.41895-0.88965l-0.4668-2.50977l0.43262-0.08057L185.21094,61.31834z"/>
		
			<path fill="#A3A3A3" stroke="#A3A3A3" stroke-width="0.25" stroke-linecap="round" stroke-linejoin="round" stroke-miterlimit="10" d="
			M189.36719,58.03416l1.43945,3.24072l-0.40039,0.1792l-1.44141-3.24023l-0.87891,0.38965l-0.16992-0.37891l2.16016-0.96094
			l0.16992,0.37988L189.36719,58.03416z"/>
	</g>
	<g>
		<path fill="#A3A3A3" d="M160.00488,216.06689h-2.27051l-0.63965,1.50293h-0.65527l2.4541-5.58887l2.39063,5.58887h-0.65527
			L160.00488,216.06689z M159.77344,215.50684l-0.89648-2.13477l-0.91016,2.13477H159.77344z"/>
	</g>
	<g>
		<path fill="#A3A3A3" d="M111.26563,216.06689h-2.26953l-0.64063,1.50293h-0.65527l2.4541-5.58887l2.39063,5.58887h-0.6543
			L111.26563,216.06689z M111.03418,215.50684l-0.89551-2.13477l-0.91113,2.13477H111.03418z"/>
	</g>
	<g>
		<path fill="#A3A3A3" d="M58.86621,157.82471H57.9707l0.31152-0.55957H59.458v5.33301h-0.5918v-4.77344H58.86621z"/>
	</g>
	<g>
		<path fill="#A3A3A3" d="M52.71484,148.57324l1.94238-2.24658c0.13574-0.16016,0.49512-0.58398,0.62402-0.77588
			c0.23926-0.34375,0.29492-0.59961,0.29492-0.81543c0-0.59961-0.43164-1.03955-1.0625-1.03955
			c-0.37598,0-0.6875,0.16797-0.8877,0.47168c-0.10449,0.16016-0.16797,0.35986-0.17676,0.63184h-0.5908
			c0.02441-0.53564,0.19141-0.86377,0.39941-1.10352c0.22461-0.25586,0.59961-0.54346,1.26367-0.54346
			c0.94336,0,1.64648,0.67139,1.64648,1.59082c0,0.35986-0.10352,0.68799-0.42383,1.14355
			c-0.22363,0.31201-0.51172,0.63965-0.72656,0.8877l-1.11133,1.25488h2.25391v0.54395H52.71484z"/>
	</g>
	<g>
		<path fill="#A3A3A3" d="M58.10156,126.62156c0.0166-0.2959,0.11328-0.56787,0.24805-0.78369
			c0.35156-0.55176,0.91992-0.62354,1.24023-0.62354c1.00684,0,1.50195,0.70361,1.50195,1.43896
			c0,0.38379-0.14258,0.91162-0.6875,1.18359c0.18457,0.07178,0.76758,0.36768,0.76758,1.28713
			c0,0.99951-0.72656,1.60693-1.63867,1.60693c-0.55078,0-1.19922-0.23145-1.48633-0.91943
			c-0.08008-0.19189-0.11328-0.36768-0.12109-0.55957h0.5918c0.02441,0.19189,0.08789,0.39209,0.19238,0.53564
			c0.17578,0.25586,0.4873,0.3999,0.82324,0.3999c0.5918,0,1.04688-0.48779,1.04688-1.07959
			c0-0.30371-0.11914-0.71143-0.52734-0.89551c-0.16797-0.07959-0.39941-0.11963-0.60742-0.11182v-0.52785
			c0.20801,0.01611,0.43945-0.02393,0.60742-0.11182s0.44824-0.31201,0.44824-0.7915c0-0.47168-0.25586-0.91162-0.91113-0.91162
			c-0.2168,0-0.48047,0.04004-0.6875,0.3042c-0.10449,0.13574-0.19238,0.33545-0.20898,0.55957
			C58.69336,126.62156,58.10156,126.62156,58.10156,126.62156z"/>
	</g>
	<g>
		<path fill="#A3A3A3" d="M75.52539,118.65916h0.65625v0.54395h-0.65625v1.00732h-0.5918v-1.00732h-2.73438l3.32617-4.62158
			C75.52538,114.58154,75.52538,118.65916,75.52539,118.65916z M74.93359,118.65916v-2.3584l-1.68652,2.3584H74.93359z"/>
	</g>
	<g>
		<path fill="#A3A3A3" d="M93.79492,115.42088h-1.71191l-0.34375,1.15137c0.10449-0.02393,0.20801-0.03174,0.33594-0.03174
			c1.07129,0,1.75879,0.80762,1.75879,1.84668c0,1.19141-0.89453,1.91895-1.94336,1.91895
			c-0.43164,0-0.83105-0.11963-1.19141-0.41553c-0.16699-0.14404-0.33496-0.32764-0.46289-0.54346l0.47168-0.33594
			c0.08789,0.17578,0.2002,0.30371,0.36035,0.43164c0.22266,0.18408,0.49512,0.31982,0.86328,0.31982
			c0.75195,0,1.31055-0.61572,1.31055-1.36719c0-0.76758-0.55078-1.31152-1.31055-1.31152
			c-0.19238,0-0.55273,0.03223-1.03125,0.36816l0.77539-2.57471h2.11914C93.79493,114.87743,93.79493,115.42088,93.79492,115.42088z
			"/>
	</g>
	<g>
		<path fill="#A3A3A3" d="M107.8623,125.87695l-1.22363,1.70313c0.15234-0.04834,0.30469-0.07227,0.47266-0.07227
			c1.02344,0,1.72656,0.7676,1.72656,1.75928c0,1.06299-0.76758,1.83057-1.83105,1.83057c-1.25488,0-1.84668-0.9751-1.84668-1.81494
			c0-0.19971,0.03906-0.66357,0.43945-1.22314l1.81445-2.51855L107.8623,125.87695z M108.24609,129.28271
			c0-0.71143-0.52734-1.23096-1.25586-1.23096c-0.72656,0-1.23828,0.53564-1.23828,1.23096
			c0,0.71191,0.50391,1.27148,1.24609,1.27148C107.73438,130.5542,108.24609,130.00244,108.24609,129.28271z"/>
	</g>
	<g>
		<path fill="#A3A3A3" d="M113.27148,143.21045h-2.91797v-0.54346h3.91797l-3.56641,5.46094l-0.46289-0.31201L113.27148,143.21045z"
			/>
	</g>
	<g>
		<path fill="#A3A3A3" d="M109.90234,162.11523c0,0.83203-0.54297,1.56738-1.63086,1.56738s-1.63086-0.73535-1.63086-1.56738
			c0-0.5752,0.26367-1.06348,0.80664-1.30273c-0.42383-0.24805-0.64648-0.67188-0.64648-1.16797
			c0-0.75879,0.51172-1.47852,1.4707-1.47852s1.4707,0.71973,1.4707,1.47852c0,0.49609-0.22363,0.91992-0.64746,1.16797
			C109.63867,161.05176,109.90234,161.54004,109.90234,162.11523z M109.31055,162.09961c0-0.59961-0.43164-1.01563-1.03906-1.01563
			s-1.03906,0.41602-1.03906,1.01563c0,0.60742,0.42383,1.03906,1.03906,1.03906S109.31055,162.70703,109.31055,162.09961z
			 M109.18262,159.65332c0-0.58398-0.42383-0.94434-0.91113-0.94434c-0.48828,0-0.91211,0.36035-0.91211,0.94434
			c0,0.52734,0.39258,0.91895,0.91211,0.91895S109.18262,160.18066,109.18262,159.65332z"/>
	</g>
	<g>
		<path fill="#A3A3A3" d="M161.96973,157.82471h-0.89551l0.31152-0.55957h1.17578v5.33301h-0.5918V157.82471z"/>
	</g>
	<g>
		<path fill="#A3A3A3" d="M155.81836,148.57324l1.94238-2.24658c0.13574-0.16016,0.49512-0.58398,0.62402-0.77588
			c0.23926-0.34375,0.29492-0.59961,0.29492-0.81543c0-0.59961-0.43164-1.03955-1.0625-1.03955
			c-0.37598,0-0.6875,0.16797-0.8877,0.47168c-0.10449,0.16016-0.16797,0.35986-0.17676,0.63184h-0.59082
			c0.02441-0.53564,0.19141-0.86377,0.39941-1.10352c0.22461-0.25586,0.59961-0.54346,1.26367-0.54346
			c0.94336,0,1.64648,0.67139,1.64648,1.59082c0,0.35986-0.10352,0.68799-0.42383,1.14355
			c-0.22363,0.31201-0.51172,0.63965-0.72656,0.8877l-1.11133,1.25488h2.25391v0.54395H155.81836z"/>
	</g>
	<g>
		<path fill="#A3A3A3" d="M161.20508,126.62156c0.0166-0.2959,0.11328-0.56787,0.24805-0.78369
			c0.35156-0.55176,0.91992-0.62354,1.24023-0.62354c1.00684,0,1.50195,0.70361,1.50195,1.43896
			c0,0.38379-0.14258,0.91162-0.6875,1.18359c0.18457,0.07178,0.76758,0.36768,0.76758,1.28713
			c0,0.99951-0.72656,1.60693-1.63867,1.60693c-0.55078,0-1.19922-0.23145-1.48633-0.91943
			c-0.08008-0.19189-0.11328-0.36768-0.12109-0.55957h0.5918c0.02441,0.19189,0.08789,0.39209,0.19238,0.53564
			c0.17578,0.25586,0.4873,0.3999,0.82324,0.3999c0.5918,0,1.04688-0.48779,1.04688-1.07959
			c0-0.30371-0.11914-0.71143-0.52734-0.89551c-0.16797-0.07959-0.39941-0.11963-0.60742-0.11182v-0.52785
			c0.20801,0.01611,0.43945-0.02393,0.60742-0.11182s0.44824-0.31201,0.44824-0.7915c0-0.47168-0.25586-0.91162-0.91113-0.91162
			c-0.2168,0-0.48047,0.04004-0.6875,0.3042c-0.10449,0.13574-0.19238,0.33545-0.20898,0.55957H161.20508z"/>
	</g>
	<g>
		<path fill="#A3A3A3" d="M178.62891,118.65916h0.65625v0.54395h-0.65625v1.00732h-0.5918v-1.00732h-2.73438l3.32617-4.62158
			V118.65916z M178.03711,118.65916v-2.3584l-1.68652,2.3584H178.03711z"/>
	</g>
	<g>
		<path fill="#A3A3A3" d="M196.89844,115.42088h-1.71191l-0.34375,1.15137c0.10449-0.02393,0.20801-0.03174,0.33594-0.03174
			c1.07129,0,1.75879,0.80762,1.75879,1.84668c0,1.19141-0.89453,1.91895-1.94336,1.91895
			c-0.43164,0-0.83105-0.11963-1.19141-0.41553c-0.16699-0.14404-0.33496-0.32764-0.46289-0.54346l0.47168-0.33594
			c0.08789,0.17578,0.2002,0.30371,0.36035,0.43164c0.22266,0.18408,0.49512,0.31982,0.86328,0.31982
			c0.75195,0,1.31055-0.61572,1.31055-1.36719c0-0.76758-0.55078-1.31152-1.31055-1.31152
			c-0.19238,0-0.55273,0.03223-1.03125,0.36816l0.77539-2.57471h2.11914V115.42088z"/>
	</g>
	<g>
		<path fill="#A3A3A3" d="M210.96582,125.87695l-1.22363,1.70313c0.15234-0.04834,0.30469-0.07227,0.47266-0.07227
			c1.02344,0,1.72656,0.7676,1.72656,1.75928c0,1.06299-0.76758,1.83057-1.83105,1.83057c-1.25488,0-1.84668-0.9751-1.84668-1.81494
			c0-0.19971,0.03906-0.66357,0.43945-1.22314l1.81445-2.51855L210.96582,125.87695z M211.34961,129.28271
			c0-0.71143-0.52734-1.23096-1.25586-1.23096c-0.72656,0-1.23828,0.53564-1.23828,1.23096
			c0,0.71191,0.50391,1.27148,1.24609,1.27148C210.83789,130.5542,211.34961,130.00244,211.34961,129.28271z"/>
	</g>
	<g>
		<path fill="#A3A3A3" d="M216.375,143.21045h-2.91797v-0.54346h3.91797l-3.56641,5.46094l-0.46289-0.31201L216.375,143.21045z"/>
	</g>
	<g>
		<path fill="#A3A3A3" d="M213.00586,162.11523c0,0.83203-0.54297,1.56738-1.63086,1.56738s-1.63086-0.73535-1.63086-1.56738
			c0-0.5752,0.26367-1.06348,0.80664-1.30273c-0.42383-0.24805-0.64648-0.67188-0.64648-1.16797
			c0-0.75879,0.51172-1.47852,1.4707-1.47852s1.4707,0.71973,1.4707,1.47852c0,0.49609-0.22363,0.91992-0.64746,1.16797
			C212.74219,161.05176,213.00586,161.54004,213.00586,162.11523z M212.41406,162.09961c0-0.59961-0.43164-1.01563-1.03906-1.01563
			s-1.03906,0.41602-1.03906,1.01563c0,0.60742,0.42383,1.03906,1.03906,1.03906S212.41406,162.70703,212.41406,162.09961z
			 M212.28613,159.65332c0-0.58398-0.42383-0.94434-0.91113-0.94434c-0.48828,0-0.91211,0.36035-0.91211,0.94434
			c0,0.52734,0.39258,0.91895,0.91211,0.91895S212.28613,160.18066,212.28613,159.65332z"/>
	</g>
	<g>
		<path fill="#A3A3A3" d="M163.12402,196.09326c0.2959,0,0.83105,0.02393,1.22363,0.33594
			c0.16797,0.12793,0.47949,0.45557,0.47949,1.10303c0,0.26416-0.05566,0.72803-0.52832,1.04736
			c0.74414,0.18408,1.01563,0.83203,1.01563,1.34375s-0.25586,0.92725-0.54297,1.15137
			c-0.42383,0.33545-0.91211,0.35156-1.2793,0.35156h-1.32813v-5.33301H163.12402z M162.75586,198.43604h0.44824
			c0.31152,0,1.04785-0.06396,1.04785-0.8877c0-0.87939-0.86328-0.89551-1.03125-0.89551h-0.46484V198.43604z M162.75586,200.8667
			h0.67969c0.34375,0,0.67969-0.02393,0.93555-0.22412c0.20801-0.15186,0.35156-0.41553,0.35156-0.73535
			c0-0.42383-0.24707-0.67188-0.45508-0.78369c-0.2002-0.11182-0.48047-0.16016-0.90332-0.16016h-0.6084V200.8667z"/>
	</g>
	<g>
		<path fill="#A3A3A3" d="M105.46094,196.09326c0.29492,0,0.83105,0.02393,1.22266,0.33594
			c0.16797,0.12793,0.48047,0.45557,0.48047,1.10303c0,0.26416-0.05664,0.72803-0.52832,1.04736
			c0.74316,0.18408,1.01563,0.83203,1.01563,1.34375s-0.25586,0.92725-0.54395,1.15137
			c-0.42383,0.33545-0.91113,0.35156-1.2793,0.35156h-1.32715v-5.33301H105.46094z M105.09277,198.43604h0.44824
			c0.31152,0,1.04688-0.06396,1.04688-0.8877c0-0.87939-0.86328-0.89551-1.03125-0.89551h-0.46387
			C105.09278,196.65283,105.09278,198.43604,105.09277,198.43604z M105.09277,200.8667h0.67969
			c0.34375,0,0.67969-0.02393,0.93555-0.22412c0.20801-0.15186,0.35156-0.41553,0.35156-0.73535
			c0-0.42383-0.24707-0.67188-0.45605-0.78369c-0.19922-0.11182-0.47949-0.16016-0.90234-0.16016h-0.6084
			C105.09278,198.96338,105.09278,200.8667,105.09277,200.8667z"/>
	</g>
	<g>
		<path fill="#A3A3A3" d="M161.04297,180.34717c-0.16699-0.16797-0.42285-0.36768-0.69531-0.49561
			c-0.2793-0.12793-0.60742-0.20801-0.91895-0.20801c-1.23145,0-2.14355,0.99121-2.14355,2.22266
			c0,1.44727,1.17578,2.1748,2.15137,2.1748c0.36035,0,0.71191-0.104,0.99121-0.24756
			c0.30469-0.15186,0.51953-0.35205,0.61523-0.44775v0.73535c-0.59082,0.42383-1.20703,0.51953-1.60645,0.51953
			c-1.58301,0-2.75879-1.19922-2.75879-2.74219c0-1.59131,1.19141-2.77441,2.79102-2.77441
			c0.32031,0,0.93555,0.04004,1.57422,0.52734V180.34717z"/>
	</g>
	<g>
		<path fill="#A3A3A3" d="M112.83105,180.34717c-0.16699-0.16797-0.42285-0.36768-0.69531-0.49561
			c-0.28027-0.12793-0.6084-0.20801-0.91895-0.20801c-1.23242,0-2.14355,0.99121-2.14355,2.22266
			c0,1.44727,1.1748,2.1748,2.15137,2.1748c0.35938,0,0.71094-0.104,0.99121-0.24756
			c0.30371-0.15186,0.51953-0.35205,0.61523-0.44775v0.73535c-0.59082,0.42383-1.20703,0.51953-1.60645,0.51953
			c-1.58398,0-2.75879-1.19922-2.75879-2.74219c0-1.59131,1.19141-2.77441,2.79004-2.77441
			c0.32031,0,0.93555,0.04004,1.5752,0.52734C112.83104,179.61133,112.83104,180.34717,112.83105,180.34717z"/>
	</g>
	<g>
		<path fill="#A3A3A3" d="M129.02539,173.02979l0.88672-5.62891l2.04688,4.50146l2.08691-4.50928l0.83105,5.63672h-0.60742
			l-0.50391-3.70996l-1.81445,3.93359l-1.79102-3.93359l-0.52734,3.70996H129.02539z"/>
		<path fill="#A3A3A3" d="M136.7041,167.69678v5.33301h-0.5918v-5.33301H136.7041z"/>
		<path fill="#A3A3A3" d="M139.08008,170.27148l-1.43164-2.57471h0.67188l1.10352,2.00684l1.13477-2.00684h0.67188l-1.46289,2.57471
			l1.54297,2.7583h-0.67188l-1.22266-2.19092l-1.24023,2.19092h-0.67188L139.08008,170.27148z"/>
	</g>
	<g>
		<circle fill="none" cx="134.71875" cy="43.99998" r="14.57799"/>
		
			<path fill="#A3A3A3" stroke="#A3A3A3" stroke-width="0.25" stroke-linecap="round" stroke-linejoin="round" stroke-miterlimit="10" d="
			M123.45605,29.49168l2.34863,2.93262l-0.36523,0.2915l-2.34668-2.93311l-0.7959,0.63672l-0.27539-0.34326l1.95605-1.56494
			l0.27441,0.34326L123.45605,29.49168z"/>
		
			<path fill="#A3A3A3" stroke="#A3A3A3" stroke-width="0.25" stroke-linecap="round" stroke-linejoin="round" stroke-miterlimit="10" d="
			M125.91992,27.36814c0.25391-0.12793,0.63867-0.30176,1.0166-0.25293c0.29199,0.03467,0.62891,0.2251,0.83105,0.625
			c0.29005,0.57227,0.12695,1.18408-0.4209,1.51074l2.03809,1.07178l-0.50586,0.25635l-1.9707-1.06396l-0.10645,0.05469
			l0.83008,1.64014l-0.41602,0.21094l-1.89746-3.74902L125.91992,27.36814z M126.61328,29.19822l0.26465-0.13379
			c0.5166-0.26123,0.7002-0.66553,0.47949-1.10303c-0.10547-0.2085-0.27246-0.38574-0.57617-0.3999
			c-0.2168-0.01074-0.41406,0.07422-0.59375,0.16553l-0.25391,0.12793L126.61328,29.19822z"/>
		
			<path fill="#A3A3A3" stroke="#A3A3A3" stroke-width="0.25" stroke-linecap="round" stroke-linejoin="round" stroke-miterlimit="10" d="
			M129.48047,25.92967l1.2168,4.02197L130.25,30.08641l-1.21484-4.02295L129.48047,25.92967z"/>
		
			<path fill="#A3A3A3" stroke="#A3A3A3" stroke-width="0.25" stroke-linecap="round" stroke-linejoin="round" stroke-miterlimit="10" d="
			M133.82422,27.30271l1.74805-0.12061l0.00781,0.10059c0.03125,0.46484-0.07129,0.97754-0.31055,1.35498
			c-0.11426,0.17822-0.54492,0.79492-1.50781,0.8623c-1.24414,0.08594-2.24023-0.79932-2.3252-2.01855
			c-0.08398-1.21973,0.78613-2.2334,2.03809-2.32178c0.40234-0.02783,0.88086,0.04102,1.31055,0.32764
			c0.19922,0.13037,0.38867,0.30762,0.51953,0.46289l-0.32422,0.33789c-0.13086-0.16211-0.28027-0.30273-0.42578-0.40723
			c-0.21289-0.14893-0.54102-0.31543-1.04297-0.28076c-1.0127,0.0708-1.66406,0.87939-1.59668,1.85352
			c0.0791,1.14551,1.03027,1.66064,1.82324,1.60596c0.55957-0.03857,1.02344-0.35547,1.23438-0.79346
			c0.06641-0.1377,0.13281-0.34521,0.12793-0.60938l-1.24512,0.08691L133.82422,27.30271z"/>
		
			<path fill="#A3A3A3" stroke="#A3A3A3" stroke-width="0.25" stroke-linecap="round" stroke-linejoin="round" stroke-miterlimit="10" d="
			M139.24414,27.89744l1.69336,0.44092l-0.02441,0.09863c-0.11816,0.44971-0.37891,0.90234-0.72559,1.18311
			c-0.16406,0.1333-0.76953,0.58105-1.70117,0.33887c-1.20703-0.31494-1.86914-1.46973-1.56152-2.65234
			c0.30762-1.18164,1.45605-1.86621,2.66895-1.55078c0.38965,0.10205,0.82129,0.31836,1.13867,0.72607
			c0.14648,0.18799,0.26953,0.41455,0.34375,0.604l-0.41504,0.21777c-0.07324-0.19434-0.16895-0.37695-0.27441-0.52051
			c-0.1543-0.20898-0.41113-0.47217-0.89844-0.59814c-0.98145-0.25586-1.85547,0.30371-2.10156,1.24902
			c-0.28906,1.10791,0.44727,1.89941,1.2168,2.09961c0.54199,0.14111,1.08301-0.01074,1.4209-0.35889
			c0.10645-0.10938,0.23535-0.28418,0.31543-0.53711l-1.20703-0.31348L139.24414,27.89744z"/>
		
			<path fill="#A3A3A3" stroke="#A3A3A3" stroke-width="0.25" stroke-linecap="round" stroke-linejoin="round" stroke-miterlimit="10" d="
			M144.95313,28.70213l-1.48242-0.85889l-0.62695,1.07813l1.43945,0.83496l-0.2207,0.38135l-1.43945-0.83398l-0.81836,1.41162
			l1.48242,0.85889l-0.2207,0.38184l-1.88672-1.09424l2.10742-3.63428l1.88672,1.09326L144.95313,28.70213z"/>
		
			<path fill="#A3A3A3" stroke="#A3A3A3" stroke-width="0.25" stroke-linecap="round" stroke-linejoin="round" stroke-miterlimit="10" d="
			M147.17188,29.90135c0.20898,0.19287,0.50781,0.49268,0.59375,0.86377c0.07031,0.28711,0.00977,0.66943-0.29297,0.99854
			c-0.43555,0.47314-1.06641,0.53564-1.56641,0.13721l-0.28711,2.2876l-0.41797-0.38428l0.30469-2.22217l-0.08887-0.07959
			l-1.24707,1.354l-0.34375-0.31543l2.84961-3.09619L147.17188,29.90135z M145.69922,31.19529l0.21875,0.20068
			c0.42578,0.39209,0.86914,0.42383,1.20313,0.06152c0.15723-0.17188,0.26367-0.39014,0.17188-0.68115
			c-0.06641-0.20752-0.2168-0.36182-0.36426-0.49854l-0.20898-0.19287L145.69922,31.19529z"/>
	</g>
	<g>
		<g>
			
				<path fill="#A3A3A3" stroke="#A3A3A3" stroke-width="0.25" stroke-linecap="round" stroke-linejoin="round" stroke-miterlimit="10" d="
				M127.11914,56.91307l-2.23633,3.55322l-0.39453-0.24756l2.2373-3.55371L127.11914,56.91307z"/>
			
				<path fill="#A3A3A3" stroke="#A3A3A3" stroke-width="0.25" stroke-linecap="round" stroke-linejoin="round" stroke-miterlimit="10" d="
				M126.86719,61.62693l1.41992-4.14551l1.98828,4.3125l1.05664-3.08301l0.44141,0.15088l-1.42383,4.15869l-1.98828-4.31348
				l-1.05273,3.07178L126.86719,61.62693z"/>
			
				<path fill="#A3A3A3" stroke="#A3A3A3" stroke-width="0.25" stroke-linecap="round" stroke-linejoin="round" stroke-miterlimit="10" d="
				M133.84766,59.02781c0.42188,0.02393,0.77148,0.09277,1.04102,0.354c0.29395,0.28076,0.34961,0.65674,0.33398,0.92139
				c-0.03125,0.59131-0.43555,1.15527-1.39258,1.104l-0.4082-0.02246l-0.10059,1.82471l-0.46582-0.02588l0.23047-4.19824
				L133.84766,59.02781z M133.44531,60.94383l0.38477,0.021c0.55371,0.02979,0.90234-0.22852,0.92871-0.71289
				c0.03711-0.66748-0.58301-0.76416-0.88477-0.78076l-0.34668-0.01904L133.44531,60.94383z"/>
			
				<path fill="#A3A3A3" stroke="#A3A3A3" stroke-width="0.25" stroke-linecap="round" stroke-linejoin="round" stroke-miterlimit="10" d="
				M137.1543,61.50682c0.06836,0.34668,0.14258,0.72363,0.52344,0.93799c0.19434,0.10791,0.49609,0.146,0.72461,0.10059
				c0.22949-0.04443,0.49609-0.19238,0.63379-0.36768c0.27246-0.34131,0.19922-0.71777,0.13184-1.06396l-0.49414-2.52539
				l0.45703-0.08936l0.51855,2.64893c0.06738,0.34619,0.0957,0.68652-0.06641,1.03857
				c-0.18066,0.38867-0.57129,0.68896-1.0957,0.7915c-0.52441,0.10205-0.99902-0.02881-1.3125-0.3208
				c-0.28223-0.26465-0.38574-0.59131-0.45215-0.93652l-0.51758-2.64941l0.45605-0.08936L137.1543,61.50682z"/>
			
				<path fill="#A3A3A3" stroke="#A3A3A3" stroke-width="0.25" stroke-linecap="round" stroke-linejoin="round" stroke-miterlimit="10" d="
				M141.47949,57.96434l1.60059,3.40088l-0.4209,0.19873l-1.60059-3.3999l-0.92383,0.43408l-0.1875-0.39893l2.26758-1.06738
				l0.1875,0.39893L141.47949,57.96434z"/>
		</g>
	</g>
	<g>
		<path fill="#A3A3A3" d="M134.88713,94.01042c-12.4191,0-22.48689,10.06779-22.48689,22.4856
			c0,12.41912,10.06779,22.48563,22.48689,22.48563s22.48431-10.06651,22.48431-22.48563
			C157.37144,104.07822,147.30623,94.01042,134.88713,94.01042z"/>
	</g>
</g>
<rect x="121.10675" y="104.91356" fill="#262424" width="27.57108" height="23.17269"/>
<rect x="131.95573" y="107.45049" fill="#A3A3A3" width="5.78545" height="4.31588"/>
<rect x="131.95573" y="114.30329" fill="#A3A3A3" width="5.78545" height="4.27462"/>
<rect x="140.27811" y="121.11485" fill="#A3A3A3" width="5.86278" height="4.43447"/>
<rect x="140.27811" y="114.30329" fill="#A3A3A3" width="5.86278" height="4.27462"/>
<rect x="131.95573" y="121.11485" fill="#A3A3A3" width="5.78545" height="4.43447"/>
<rect x="123.64368" y="121.11485" fill="#A3A3A3" width="5.77513" height="4.43447"/>
<rect x="140.27811" y="107.45049" fill="#A3A3A3" width="5.86278" height="4.31588"/>
<rect x="123.64368" y="114.30329" fill="#A3A3A3" width="5.77513" height="4.27462"/>
<rect x="123.64368" y="107.45049" fill="#A3A3A3" width="5.77513" height="4.31588"/>
</svg>
